<svg width="76" height="76" viewBox="0 0 76 76" fill="none" xmlns="http://www.w3.org/2000/svg">
<g filter="url(#filter0_d_1950_763)">
<path fill-rule="evenodd" clip-rule="evenodd" d="M37.9964 4C54.5651 4 68 17.435 68 34C68 50.5722 54.5651 64 37.9964 64C21.4277 64 8 50.5722 8 34C8 17.435 21.4277 4 37.9964 4Z" fill="#3A2D91"/>
<path fill-rule="evenodd" clip-rule="evenodd" d="M37.9963 11.8525C50.2306 11.8525 60.1451 21.7709 60.1451 34C60.1451 46.2364 50.2306 56.1547 37.9963 56.1547C25.769 56.1547 15.8474 46.2364 15.8474 34C15.8474 21.7709 25.769 11.8525 37.9963 11.8525Z" fill="#FEFEFE"/>
<path fill-rule="evenodd" clip-rule="evenodd" d="M34.1228 24.6606H42.166L45.6172 33.9784C43.5838 33.6638 41.3307 33.4668 38.9654 33.426L38.0442 30.4666L37.1491 33.426C34.7815 33.4596 32.5451 33.6518 30.5164 33.9568C32.3399 29.0253 33.9867 24.6606 34.1228 24.6606ZM49.0828 43.3539L50.7368 47.8122L43.5145 48.1053L42.3808 44.4517C44.8726 44.2475 47.1519 43.8655 49.0828 43.3539ZM33.791 44.4637L32.6788 48.1029L25.4565 47.8098C25.4565 47.8098 26.1153 45.9962 27.0628 43.3923C29.0104 43.8992 31.2945 44.2667 33.791 44.4637Z" fill="#3E00FF"/>
<path fill-rule="evenodd" clip-rule="evenodd" d="M37.9966 34.1707C46.3382 34.1707 53.1475 36.3518 53.1475 39.0253C53.1475 41.6965 46.3382 43.88 37.9966 43.88C29.655 43.88 22.8528 41.6989 22.8528 39.0253C22.8528 36.3518 29.655 34.1707 37.9966 34.1707Z" fill="#008C44"/>
<path fill-rule="evenodd" clip-rule="evenodd" d="M33.4712 37.5528H33.9128C33.9271 37.363 33.9342 37.1925 33.939 37.0483C33.9462 36.8994 33.9462 36.7889 33.9462 36.7072V36.5367V36.3805C33.8579 36.5655 33.7696 36.7481 33.6884 36.9474C33.6144 37.1372 33.5404 37.3414 33.4712 37.5528ZM32.1967 38.3839L32.1299 38.3767C32.1036 38.3767 32.0821 38.3623 32.0631 38.3359C32.0416 38.3142 32.0368 38.2878 32.0368 38.2542C32.0368 38.2398 32.0368 38.2133 32.044 38.1797C32.0511 38.1461 32.0702 38.0716 32.0989 37.9683L32.106 37.9347V37.9203C32.18 37.6344 32.2898 37.4903 32.4378 37.4903H32.6072C32.7576 37.13 32.9127 36.7889 33.0607 36.4814C33.2111 36.174 33.3447 35.9289 33.4545 35.7392L33.4951 35.6839C33.55 35.595 33.5977 35.535 33.6383 35.5062C33.686 35.4797 33.7409 35.4653 33.8078 35.4653C33.834 35.4653 33.8746 35.4653 33.9152 35.4725C33.9557 35.4725 34.0035 35.4797 34.0512 35.487L34.0989 35.4942C34.309 35.5206 34.4522 35.5566 34.5118 35.6023C34.5739 35.6431 34.6145 35.7176 34.6264 35.828L34.6336 35.8953C34.667 36.1475 34.6956 36.4742 34.7147 36.8898C34.7338 37.3053 34.741 37.7545 34.741 38.2326C34.741 38.4776 34.741 38.6962 34.7266 38.8859C34.7266 38.9004 34.7266 38.9076 34.7266 38.9124L34.7195 38.9748C34.7123 39.0901 34.6789 39.1718 34.6169 39.2198C34.562 39.2607 34.4546 39.2871 34.3042 39.3015H34.2565H34.1825C34.0607 39.3015 33.9724 39.2799 33.9175 39.2463C33.8555 39.2054 33.8221 39.143 33.8221 39.0613V38.5905V38.2158V37.8747L33.6383 38.2638C33.6168 38.3118 33.5977 38.3383 33.5643 38.3599C33.5381 38.3815 33.4903 38.3863 33.4354 38.3863H33.1586C33.0774 38.5833 32.9891 38.7875 32.908 38.9988C32.8865 39.0469 32.8745 39.0733 32.8674 39.0805L32.8459 39.143C32.8196 39.1982 32.791 39.2391 32.7504 39.2655C32.717 39.2919 32.6764 39.3063 32.6215 39.3063C32.581 39.3063 32.5404 39.2991 32.4927 39.2919C32.4449 39.2847 32.3972 39.2703 32.3495 39.2583L32.3017 39.2439C32.1728 39.203 32.0845 39.1622 32.0368 39.1286C31.9891 39.0949 31.97 39.0541 31.97 38.9988C31.97 38.9844 31.97 38.9772 31.97 38.9652C31.9771 38.9508 31.9771 38.9388 31.9843 38.91L31.9915 38.8763C32.0058 38.8355 32.032 38.7682 32.0654 38.6794C32.1012 38.5953 32.149 38.492 32.1967 38.3839ZM35.1753 38.8331C35.2016 38.6962 35.2422 38.4992 35.3114 38.2398C35.3734 37.9803 35.4403 37.7017 35.5143 37.4014C35.6431 36.9306 35.7386 36.5775 35.8054 36.3517C35.8723 36.1211 35.9415 35.9145 36.0083 35.7248L36.0226 35.6767C36.0489 35.595 36.0847 35.5398 36.1181 35.5134C36.1515 35.487 36.2064 35.4725 36.2732 35.4725C36.3281 35.4725 36.3759 35.4725 36.4164 35.4725C36.457 35.4797 36.4976 35.4797 36.531 35.4797L36.5716 35.487C36.7554 35.5134 36.8771 35.5422 36.9368 35.5686C36.9964 35.595 37.0251 35.6431 37.0251 35.6983C37.0251 35.7055 37.0251 35.72 37.0251 35.732C37.0179 35.7464 37.0107 35.7584 37.0107 35.7728L36.9964 35.8208C36.9558 35.965 36.901 36.1764 36.827 36.455C36.4881 37.6753 36.2709 38.5136 36.1825 38.9772L36.1682 39.0397C36.1467 39.143 36.1133 39.2174 36.0656 39.2583C36.025 39.2919 35.9582 39.3135 35.8627 39.3135C35.8365 39.3135 35.8007 39.3135 35.7601 39.3063C35.7124 39.2991 35.6718 39.2919 35.6312 39.2847L35.605 39.2775C35.4212 39.2439 35.2995 39.203 35.2398 39.155C35.1849 39.1141 35.1515 39.0469 35.1515 38.9508C35.1515 38.9436 35.1586 38.9292 35.1586 38.9028C35.1586 38.8883 35.1658 38.8763 35.1658 38.8691L35.1753 38.8331ZM36.8842 38.9028C37.006 38.4199 37.1492 37.9011 37.3258 37.363C37.5024 36.8249 37.7053 36.2724 37.9225 35.72L37.944 35.6791C37.9702 35.6047 38.006 35.5494 38.0514 35.523C38.0991 35.4966 38.1588 35.4821 38.2423 35.4821C38.2972 35.4821 38.3497 35.4821 38.4046 35.4894C38.4595 35.4894 38.512 35.4966 38.5597 35.511H38.6218C38.8247 35.5518 38.9607 35.5926 39.0347 35.6407C39.1087 35.6887 39.1493 35.7848 39.1707 35.9337V36.0418C39.1707 36.198 39.1636 36.443 39.1493 36.7769C39.1349 37.118 39.1158 37.4855 39.0872 37.8939C39.2018 37.6633 39.3593 37.3486 39.5478 36.9522C39.8677 36.2917 40.0705 35.8953 40.166 35.7536L40.1875 35.72C40.2543 35.6119 40.3164 35.5422 40.3641 35.5158C40.419 35.4894 40.4858 35.4749 40.567 35.4749C40.5932 35.4749 40.6219 35.4749 40.6553 35.4821C40.6887 35.4821 40.7364 35.4894 40.8104 35.4966L40.8367 35.5038C41.0324 35.5374 41.1684 35.5782 41.2496 35.6335C41.3236 35.6815 41.3641 35.7704 41.3641 35.8857V35.9073V35.9482C41.3641 36.0034 41.3498 36.1331 41.3307 36.3301C41.3092 36.5271 41.2687 36.897 41.2162 37.4471C41.1947 37.6248 41.1756 37.8698 41.1422 38.1629C41.0944 38.5929 41.0682 38.8571 41.0539 38.946L41.0467 38.994C41.0252 39.1165 40.9846 39.1982 40.925 39.2391C40.8582 39.2799 40.7555 39.3063 40.6004 39.3063H40.5336H40.5001C40.3641 39.2991 40.2686 39.2799 40.2161 39.2439C40.1612 39.2102 40.135 39.1622 40.135 39.0877C40.135 39.0805 40.135 39.0661 40.1421 39.0541C40.1421 39.0397 40.1421 39.0277 40.1421 39.0277V39.0012C40.1493 38.9676 40.1899 38.6866 40.271 38.1701C40.3522 37.6537 40.4262 37.1612 40.4882 36.6904C40.3259 37.0507 40.1493 37.4207 39.9584 37.8026C39.7746 38.1917 39.5789 38.5809 39.376 38.9748L39.3497 39.0157C39.2877 39.131 39.2352 39.2054 39.1731 39.2463C39.1111 39.2871 39.0299 39.3087 38.9297 39.3087C38.9034 39.3087 38.8628 39.3087 38.8008 39.3015C38.7865 39.3015 38.7745 39.3015 38.7674 39.3015L38.7196 39.2943C38.5836 39.2799 38.4834 39.2463 38.4213 39.191C38.3545 39.1358 38.3258 39.0685 38.3258 38.9724V38.9508V38.91C38.3402 38.5424 38.3592 38.0092 38.3998 37.315C38.4141 37.0411 38.4213 36.8441 38.4332 36.7072C38.2495 37.2261 38.0728 37.8602 37.8843 38.6097C37.8366 38.8211 37.796 38.9652 37.7697 39.0517L37.7554 39.1069C37.7339 39.1886 37.7077 39.2511 37.6743 39.2703C37.648 39.2967 37.6003 39.3111 37.5239 39.3111C37.4976 39.3111 37.4618 39.3111 37.4165 39.3039C37.3759 39.2967 37.3282 39.2895 37.2804 39.2823L37.2399 39.2751C37.1038 39.2487 37.0084 39.2198 36.9558 39.179C36.8938 39.1454 36.8675 39.0973 36.8675 39.0421C36.8675 39.0277 36.8675 39.0084 36.8675 38.994C36.8747 38.9796 36.8819 38.9604 36.8819 38.9388L36.8842 38.9028ZM42.295 38.3983C42.4382 38.3911 42.5313 38.3719 42.5933 38.3311C42.6601 38.283 42.6888 38.223 42.6888 38.1269C42.6888 38.0644 42.6673 37.99 42.6339 37.9011C42.5933 37.8122 42.5265 37.6969 42.431 37.5528C42.4095 37.5263 42.3904 37.4855 42.3499 37.4303C42.1183 37.082 42.0038 36.8177 42.0038 36.64C42.0038 36.3205 42.1732 36.0466 42.5122 35.816C42.8511 35.5902 43.2783 35.4749 43.7938 35.4749C43.9848 35.4749 44.1137 35.5014 44.1805 35.5494C44.2545 35.5974 44.2879 35.6863 44.2879 35.816C44.2879 35.8569 44.2807 35.9121 44.2736 35.965C44.2664 36.0274 44.2664 36.0611 44.2664 36.0731L44.2592 36.0995C44.2449 36.2772 44.2115 36.3998 44.1447 36.4742C44.0826 36.5487 43.9824 36.5895 43.832 36.5967L43.7843 36.6039C43.7365 36.6111 43.696 36.6111 43.6626 36.6111C43.6291 36.6111 43.5957 36.6111 43.5671 36.6111C43.5194 36.6111 43.4788 36.6039 43.4597 36.5895C43.4334 36.5751 43.4191 36.5559 43.4191 36.5271V36.5127L43.4454 36.3637C43.3093 36.3709 43.2019 36.3974 43.1065 36.4454C43.0181 36.4934 42.9704 36.5487 42.9704 36.6015C42.9704 36.628 42.9776 36.664 42.9919 36.6904C43.0134 36.724 43.0325 36.7649 43.0659 36.8129C43.0874 36.8465 43.1279 36.8946 43.1685 36.9618C43.5074 37.4591 43.6769 37.841 43.6769 38.1269C43.6769 38.4944 43.5337 38.7802 43.2497 38.9916C42.9585 39.1958 42.5647 39.2991 42.0563 39.2991C41.82 39.2991 41.6505 39.2727 41.5408 39.2102C41.4334 39.143 41.3785 39.0469 41.3785 38.91C41.3785 38.8835 41.3785 38.8475 41.3856 38.8019C41.3856 38.761 41.3928 38.713 41.3999 38.6649L41.4071 38.6241V38.5977C41.4548 38.2782 41.6028 38.0932 41.8606 38.0524L41.894 38.0452C41.9155 38.038 41.9417 38.038 41.9823 38.0308C42.03 38.0308 42.0778 38.0308 42.1327 38.0308C42.1947 38.0308 42.2472 38.038 42.283 38.0644C42.3236 38.086 42.3379 38.1197 42.3379 38.1533V38.1797L42.295 38.3983Z" fill="#FEFEFE"/>
<path fill-rule="evenodd" clip-rule="evenodd" d="M28.4067 40.7691L28.7122 40.8508C28.5905 41.0214 28.4138 41.1439 28.1704 41.2183C27.9269 41.2928 27.6883 41.3 27.4639 41.24C27.3207 41.1991 27.2205 41.1367 27.1584 41.055C27.0964 40.9661 27.0844 40.87 27.1178 40.7619C27.1441 40.6586 27.2133 40.577 27.3088 40.5097C27.4043 40.4473 27.5522 40.3872 27.7432 40.332C27.7169 40.2839 27.7098 40.2287 27.7026 40.1758C27.7026 40.1206 27.7098 40.0605 27.7241 40.0053C27.7575 39.902 27.8124 39.8083 27.9007 39.7194C27.989 39.6305 28.0916 39.5633 28.2205 39.508C28.3351 39.4528 28.452 39.4264 28.5809 39.412C28.7026 39.3975 28.8172 39.412 28.9341 39.4384C29.0368 39.472 29.1179 39.5128 29.1585 39.5681C29.2062 39.6233 29.2206 39.6906 29.1991 39.7579C29.1776 39.8323 29.0559 39.9428 28.8387 40.0845C28.7098 40.1662 28.6072 40.2335 28.5332 40.2887L28.378 40.0701C28.4592 40.0077 28.5547 39.9476 28.6692 39.8804C28.7909 39.8059 28.853 39.7579 28.8602 39.7314C28.8673 39.717 28.8602 39.705 28.8458 39.6906C28.8315 39.6834 28.8196 39.669 28.7909 39.6642C28.7504 39.657 28.6883 39.657 28.6143 39.6714C28.5332 39.6858 28.452 39.7122 28.3709 39.7458C28.2754 39.7867 28.1943 39.8419 28.1346 39.9092C28.0678 39.9716 28.0272 40.0461 28.0057 40.1206C27.9795 40.195 27.9842 40.2767 28.0129 40.3512C28.0391 40.4329 28.0534 40.4809 28.0534 40.4953C28.0391 40.5289 27.9651 40.5626 27.8291 40.6034C27.7885 40.6106 27.7623 40.6178 27.7408 40.625C27.6334 40.6586 27.557 40.6875 27.5164 40.7139C27.4687 40.7403 27.4424 40.7691 27.4353 40.81C27.421 40.8436 27.4281 40.8844 27.4568 40.9133C27.483 40.9469 27.5307 40.9757 27.5928 40.9877C27.7145 41.0214 27.8506 41.0142 27.9985 40.9805C28.1489 40.9397 28.285 40.8724 28.4067 40.7691ZM29.6478 41.091C29.8506 40.8724 30.0201 40.6538 30.1633 40.4304C30.2994 40.2119 30.3805 40.0413 30.4068 39.926C30.3996 39.9188 30.3996 39.9188 30.3996 39.9188C30.3662 39.9116 30.2564 40.0269 30.0941 40.2671C29.9246 40.5049 29.7767 40.7836 29.6478 41.091ZM29.328 41.2664C29.3542 41.1847 29.3828 41.1102 29.4091 41.0358C29.4354 40.9685 29.4759 40.8917 29.5165 40.8244C29.495 40.81 29.4831 40.8028 29.4688 40.8028C29.4545 40.7956 29.4473 40.7956 29.4354 40.7884C29.3327 40.7667 29.2325 40.7956 29.1442 40.87C29.0487 40.9517 28.989 41.055 28.9604 41.1847C28.9532 41.2328 28.9532 41.2664 28.9747 41.2928C28.9962 41.3264 29.0225 41.3408 29.063 41.3553C29.0893 41.3553 29.1251 41.3553 29.1657 41.3408C29.2062 41.3288 29.2611 41.3024 29.328 41.2664ZM29.316 41.4922C29.2492 41.533 29.18 41.5594 29.1131 41.5739C29.0463 41.5883 28.9843 41.5883 28.9222 41.5739C28.8196 41.5594 28.7456 41.5114 28.705 41.4297C28.6644 41.3553 28.6573 41.252 28.6788 41.1295C28.7193 40.9445 28.8148 40.7956 28.9771 40.6875C29.1322 40.5794 29.3017 40.5385 29.4712 40.5722C29.4926 40.5794 29.5189 40.5794 29.538 40.5866C29.5642 40.601 29.5929 40.6082 29.6191 40.6202C29.7814 40.3199 29.9509 40.0821 30.1275 39.9044C30.3041 39.7266 30.4402 39.645 30.5285 39.6666C30.5691 39.6738 30.5953 39.7074 30.6096 39.7627C30.6168 39.8179 30.6096 39.8996 30.5881 40.0005C30.5404 40.2311 30.4259 40.4713 30.2421 40.7235C30.0583 40.9685 29.8363 41.1871 29.5786 41.3649L29.5714 41.3721C29.5714 41.3793 29.5714 41.3793 29.5714 41.3865C29.5642 41.4009 29.5714 41.4129 29.5786 41.4201C29.5857 41.4345 29.6048 41.4417 29.6263 41.4417C29.6669 41.4489 29.7409 41.4345 29.8578 41.3937C29.9724 41.3601 30.0941 41.3048 30.223 41.2376L30.1681 41.497C30.0129 41.5715 29.8697 41.6267 29.7409 41.6531C29.6191 41.6868 29.5165 41.694 29.4425 41.6795C29.3876 41.6651 29.3542 41.6531 29.3351 41.6243C29.316 41.5955 29.3089 41.5474 29.316 41.4922ZM30.2516 41.5138L30.2922 41.2616C30.4282 41.1871 30.5356 41.1175 30.6239 41.0646C30.7123 41.0094 30.76 40.9757 30.7743 40.9613L30.8769 40.8124L31.1538 40.8532L30.7051 41.4658C30.6979 41.4802 30.6908 41.4874 30.6836 41.4922C30.6836 41.4994 30.6765 41.5066 30.6765 41.5138V41.521C30.6836 41.5282 30.6836 41.5282 30.6908 41.5282C30.7385 41.5354 30.8674 41.4802 31.0631 41.3649C31.254 41.2496 31.4498 41.1054 31.6526 40.9277L31.9247 40.9685L31.4975 41.5618C31.4832 41.5835 31.476 41.5955 31.4641 41.6099C31.4498 41.6315 31.4426 41.6363 31.4426 41.6363C31.4426 41.6507 31.4426 41.6579 31.4426 41.6627C31.4426 41.6675 31.4498 41.6699 31.4498 41.6699C31.4712 41.6771 31.5309 41.6555 31.6264 41.6147C31.729 41.5739 31.8292 41.5258 31.9319 41.4658L31.8913 41.7252C31.7362 41.8069 31.593 41.8621 31.4784 41.8957C31.3567 41.9366 31.254 41.9438 31.1801 41.9366C31.1395 41.9294 31.1061 41.915 31.0846 41.8885C31.0631 41.8669 31.0583 41.8405 31.0583 41.8141C31.0655 41.7924 31.0727 41.7732 31.0846 41.7396C31.0989 41.706 31.118 41.6723 31.1395 41.6435L31.2684 41.4321C31.0917 41.5618 30.9223 41.6579 30.7528 41.7252C30.5834 41.7997 30.4617 41.8285 30.3805 41.8141C30.3471 41.8069 30.3184 41.7924 30.3065 41.7732C30.2922 41.7516 30.285 41.718 30.2922 41.6771C30.2994 41.6627 30.2994 41.6507 30.3065 41.6291C30.3137 41.6147 30.328 41.5955 30.3328 41.5811L30.4402 41.4177C30.4068 41.4393 30.3733 41.4513 30.3375 41.473C30.3113 41.485 30.285 41.4994 30.2516 41.5138ZM33.3233 41.8669C33.1539 41.963 33.0107 42.0231 32.8961 42.0639C32.7744 42.0975 32.6598 42.1119 32.55 42.0975C32.414 42.0831 32.3138 42.0423 32.2445 41.9678C32.1825 41.8933 32.1562 41.79 32.1705 41.6603C32.1968 41.4706 32.2851 41.312 32.4546 41.1895C32.624 41.0742 32.8078 41.019 33.0178 41.0406C33.1061 41.055 33.173 41.0742 33.2207 41.115C33.2613 41.1559 33.2828 41.2111 33.2756 41.2712C33.2756 41.2976 33.2684 41.3264 33.2541 41.3529C33.247 41.3793 33.2326 41.4081 33.2207 41.4345L33.1873 41.497L32.9224 41.4706C32.9439 41.4369 32.9558 41.4081 32.9629 41.3817C32.9773 41.3553 32.9844 41.3336 32.9844 41.3192C32.9916 41.2928 32.9844 41.2712 32.9701 41.252C32.9558 41.2376 32.9295 41.2304 32.9033 41.2304C32.8221 41.2159 32.7338 41.2568 32.6384 41.3529C32.5429 41.4417 32.488 41.5426 32.4832 41.6531C32.4761 41.7156 32.4832 41.7612 32.5095 41.8021C32.5429 41.8357 32.5835 41.8573 32.6455 41.8645C32.7338 41.8717 32.8364 41.8573 32.951 41.8093C33.0727 41.7684 33.2016 41.7012 33.352 41.6051L33.3233 41.8669ZM34.6456 41.4249C34.5979 41.4033 34.5573 41.3841 34.5167 41.3697C34.469 41.3553 34.4284 41.3481 34.3878 41.3481C34.2112 41.3336 34.0632 41.3697 33.9343 41.4561C33.8055 41.545 33.7386 41.6531 33.7315 41.79C33.7243 41.8381 33.7315 41.8717 33.7458 41.8981C33.7673 41.9246 33.7864 41.9462 33.8126 41.9462C33.8866 41.9534 33.9749 41.9126 34.0704 41.8381C34.1659 41.7564 34.2542 41.6483 34.3282 41.5042L34.5931 41.5258L34.4379 41.8405C34.4236 41.8621 34.4165 41.8741 34.4117 41.8957C34.4045 41.9174 34.4045 41.9294 34.4045 41.9438V41.951C34.4045 41.951 34.4045 41.951 34.4117 41.951C34.4332 41.951 34.4857 41.9294 34.5811 41.8837C34.6695 41.8357 34.7721 41.7804 34.8723 41.706L34.8508 41.9726C34.7005 42.0615 34.5668 42.1287 34.4499 42.1768C34.3353 42.2176 34.247 42.244 34.1921 42.2392C34.1515 42.2392 34.1253 42.2248 34.1038 42.2056C34.0895 42.184 34.0823 42.1504 34.0895 42.1023V42.0807C34.0155 42.1359 33.9463 42.1696 33.8938 42.184C33.8389 42.2056 33.7864 42.2104 33.7315 42.2104C33.6241 42.196 33.5477 42.1624 33.5 42.0951C33.4451 42.0327 33.426 41.939 33.4331 41.8165C33.4546 41.6123 33.5477 41.4417 33.7386 41.312C33.9224 41.1823 34.1444 41.1271 34.3974 41.1415C34.4236 41.1487 34.4594 41.1487 34.4928 41.1559C34.5263 41.1631 34.5811 41.1775 34.648 41.1967V41.4249H34.6456ZM35.4595 41.8885C35.4523 41.9029 35.4451 41.9101 35.4451 41.9222C35.438 41.9366 35.438 41.9438 35.438 41.9558C35.438 41.9702 35.438 41.9774 35.438 41.9822C35.438 41.987 35.4451 41.9894 35.4451 41.9894C35.4666 41.9894 35.5191 41.9678 35.6074 41.9222C35.6957 41.8741 35.7912 41.8141 35.8843 41.7444L35.87 42.011C35.7196 42.0999 35.5931 42.1672 35.4762 42.2224C35.3616 42.2705 35.2733 42.2897 35.2112 42.2897C35.1635 42.2825 35.1301 42.2753 35.1038 42.2488C35.0776 42.2272 35.0704 42.1936 35.0704 42.16C35.0704 42.1335 35.0776 42.1119 35.0847 42.0783C35.0991 42.0519 35.111 42.011 35.1396 41.963L35.2017 41.8141C35.1468 41.8621 35.0991 41.8957 35.0585 41.9222C35.0179 41.9558 34.9773 41.9774 34.9439 41.9966L34.9583 41.7444C35.0871 41.6483 35.1945 41.5666 35.2709 41.5066C35.3521 41.4441 35.3926 41.4105 35.3998 41.3985L35.5764 41.043L35.3401 41.0286L35.4284 40.8388L35.6647 40.8532C35.7459 40.6274 35.8199 40.4785 35.8748 40.3824C35.9368 40.2935 35.9965 40.2527 36.0514 40.2527C36.0848 40.2599 36.1134 40.2743 36.1254 40.2935C36.1468 40.3199 36.1516 40.3488 36.1516 40.3896C36.1445 40.4377 36.1039 40.5385 36.0227 40.6971C35.9893 40.7643 35.9607 40.8268 35.9416 40.8676L36.1588 40.882L36.0705 41.067L35.8461 41.0598L35.4595 41.8885ZM36.1373 41.9077C36.111 41.9342 36.0752 41.9558 36.049 41.975C36.0227 41.9966 35.9941 42.0086 35.9678 42.023L35.975 41.7708C36.0967 41.682 36.1993 41.6075 36.2805 41.5402C36.3616 41.473 36.4022 41.4321 36.4094 41.4249L36.4977 41.2544L36.7817 41.2688L36.45 41.9102L36.4094 41.9918C36.4022 41.999 36.4094 42.0062 36.4094 42.0134C36.4094 42.0206 36.4165 42.0206 36.4165 42.0206C36.438 42.0279 36.4977 41.999 36.586 41.9534C36.6815 41.8981 36.7769 41.8381 36.87 41.7684L36.8629 42.0279C36.7125 42.1239 36.5788 42.1984 36.4619 42.2464C36.3545 42.2945 36.259 42.3209 36.185 42.3137C36.1373 42.3137 36.1039 42.3065 36.0776 42.2801C36.0561 42.2585 36.0442 42.2392 36.0442 42.2056C36.0442 42.1792 36.0514 42.1504 36.0585 42.1167C36.0729 42.0831 36.0848 42.0495 36.0991 42.0134L36.1373 41.9077ZM36.7555 41.091C36.7077 41.0838 36.6743 41.0766 36.6481 41.0502C36.6266 41.0238 36.6146 40.9877 36.6146 40.9469C36.6146 40.8844 36.6361 40.8388 36.6767 40.8028C36.7173 40.7619 36.765 40.7475 36.8199 40.7475C36.8676 40.7475 36.901 40.7619 36.9225 40.7884C36.9488 40.81 36.9631 40.8436 36.9559 40.8844C36.9559 40.9469 36.9345 40.9925 36.901 41.0334C36.8557 41.0694 36.808 41.091 36.7555 41.091ZM37.6362 41.9702C37.6147 41.9438 37.6027 41.9222 37.5956 41.8957C37.5813 41.8741 37.5813 41.8549 37.5813 41.8285C37.5813 41.766 37.6027 41.7132 37.6433 41.6723C37.6839 41.6243 37.7316 41.6051 37.7937 41.5979C37.7794 41.5354 37.7531 41.4898 37.7269 41.461C37.7006 41.4273 37.6648 41.4129 37.6195 41.4129C37.5311 41.4129 37.45 41.461 37.376 41.5618C37.2949 41.6651 37.2543 41.7732 37.2543 41.8885C37.2471 41.951 37.2614 42.0038 37.2949 42.0375C37.3211 42.0711 37.3617 42.0927 37.4094 42.0927C37.45 42.0927 37.4906 42.0783 37.5311 42.0591C37.5765 42.0375 37.6099 42.0038 37.6362 41.9702ZM37.956 41.8477C37.9631 41.8477 37.9703 41.8549 37.9775 41.8549C37.9846 41.8549 37.9918 41.8549 37.9989 41.8549C38.0324 41.8549 38.0944 41.8141 38.1947 41.7468V41.7396L38.1875 41.999C38.1469 42.0399 38.1135 42.0615 38.0729 42.0807C38.0395 42.0951 37.9989 42.1023 37.9584 42.1023C37.944 42.1023 37.9369 42.1023 37.925 42.0951C37.9106 42.0951 37.8844 42.0879 37.851 42.0807C37.8032 42.1696 37.7364 42.2296 37.6481 42.2777C37.5669 42.3257 37.4715 42.3449 37.3712 42.3449C37.2424 42.3449 37.1349 42.3041 37.0586 42.2368C36.9917 42.1624 36.9512 42.0591 36.9559 41.9366C36.9559 41.7252 37.0299 41.5474 37.1731 41.3985C37.3163 41.2496 37.4858 41.1727 37.6672 41.1727C37.7746 41.1799 37.8701 41.2063 37.9393 41.2688C38.0133 41.3312 38.0467 41.4057 38.0467 41.4946C38.0467 41.5354 38.0324 41.5691 38.0204 41.5907C38.0061 41.6171 37.9799 41.6387 37.9464 41.6531C37.9608 41.6603 37.9727 41.6747 37.9799 41.694C37.987 41.7156 37.987 41.7348 37.987 41.7564C37.987 41.778 37.987 41.79 37.9799 41.8045C37.9751 41.8117 37.9679 41.8333 37.956 41.8477ZM38.2185 42.0927L38.2114 41.8405C38.3331 41.7444 38.4286 41.6555 38.5025 41.5883C38.5837 41.521 38.6243 41.4802 38.6314 41.4658L38.7054 41.2952L38.9894 41.288L38.7651 41.7588C38.9966 41.5739 39.1708 41.4441 39.2949 41.3697C39.4238 41.2952 39.5265 41.2544 39.5933 41.2544C39.6195 41.2544 39.6482 41.2616 39.6744 41.2808C39.7007 41.2952 39.7078 41.3144 39.715 41.336C39.715 41.3577 39.7007 41.3913 39.6744 41.4513C39.6601 41.4658 39.6529 41.485 39.6529 41.4922L39.4501 41.9342C39.4429 41.9558 39.4358 41.9678 39.4238 41.9894C39.4167 42.011 39.4095 42.0158 39.4095 42.0158C39.4095 42.0303 39.4167 42.0375 39.4167 42.0423C39.4167 42.0423 39.4238 42.0495 39.431 42.0495C39.4453 42.0495 39.4978 42.023 39.5933 41.9678C39.6816 41.9053 39.7699 41.8453 39.8654 41.7708L39.8725 42.0303C39.7293 42.1335 39.6004 42.2152 39.4859 42.2681C39.3785 42.3233 39.283 42.3497 39.209 42.3497C39.1684 42.3569 39.1279 42.3425 39.1016 42.3233C39.0754 42.3089 39.061 42.2825 39.061 42.2488C39.061 42.2272 39.0682 42.208 39.0754 42.1816C39.0825 42.1552 39.0968 42.1191 39.1159 42.0735L39.3116 41.6507C39.1279 41.7732 38.9393 41.9294 38.7341 42.1071C38.5312 42.2849 38.4023 42.3738 38.3474 42.3738C38.3259 42.3738 38.3068 42.3666 38.2854 42.3473C38.2639 42.3257 38.2591 42.3065 38.2591 42.2729C38.2591 42.2657 38.2591 42.2513 38.2663 42.2392C38.2663 42.2248 38.2734 42.2056 38.2806 42.1912L38.388 41.9726C38.3546 41.9942 38.3259 42.0206 38.2997 42.0399C38.2734 42.0591 38.2472 42.0783 38.2185 42.0927ZM41.6172 41.766C41.5767 41.7588 41.5361 41.7588 41.4955 41.7588C41.4549 41.7588 41.4144 41.7588 41.3809 41.7588C41.2926 41.766 41.2186 41.7804 41.1637 41.8069C41.1017 41.8333 41.0754 41.8621 41.0826 41.8957C41.0826 41.9294 41.1232 41.9582 41.1972 41.9774C41.2711 41.999 41.3738 41.999 41.5027 41.9918C41.6984 41.9774 41.8487 41.9438 41.9633 41.8837C42.0779 41.8237 42.1399 41.7468 42.1328 41.6579C42.1256 41.5763 42.0039 41.4874 41.7676 41.3985C41.7342 41.3769 41.7055 41.3721 41.6864 41.3649C41.5576 41.3096 41.4549 41.2424 41.3881 41.1679C41.3213 41.0934 41.2807 41.0118 41.2735 40.9085C41.2664 40.8124 41.295 40.7115 41.3547 40.6082C41.4167 40.5001 41.5051 40.4112 41.6125 40.3224C41.7079 40.2551 41.8082 40.1998 41.9108 40.159C42.0182 40.1182 42.1208 40.0918 42.2163 40.0845C42.338 40.0773 42.4335 40.099 42.5075 40.147C42.5815 40.195 42.6292 40.2623 42.6292 40.3512C42.6435 40.4881 42.5743 40.6106 42.4263 40.7331C42.2831 40.8484 42.0946 40.9229 41.8702 40.9589L41.9036 40.6923C42.0397 40.6514 42.1542 40.5962 42.2282 40.5433C42.3094 40.4953 42.35 40.4473 42.35 40.3992C42.35 40.3848 42.3356 40.3728 42.3165 40.3584C42.2903 40.3512 42.2688 40.344 42.2354 40.344C42.1877 40.3512 42.1328 40.3656 42.0588 40.392C41.9919 40.4184 41.9227 40.4473 41.8631 40.4881C41.7604 40.5506 41.6936 40.6106 41.6387 40.6779C41.591 40.7403 41.5719 40.8004 41.5767 40.8628C41.5838 40.9709 41.7055 41.0742 41.9418 41.1631C42.0087 41.1847 42.0564 41.2039 42.0922 41.2183C42.1996 41.2592 42.276 41.3216 42.3356 41.3889C42.3953 41.4561 42.4239 41.533 42.4311 41.6195C42.4454 41.7973 42.369 41.9462 42.1996 42.0567C42.0301 42.172 41.7938 42.2416 41.4883 42.2609C41.2712 42.2753 41.0945 42.2537 40.9656 42.1936C40.8368 42.1311 40.7699 42.0447 40.7628 41.927C40.7556 41.8093 40.8105 41.7156 40.9251 41.6411C41.0396 41.5594 41.1972 41.5114 41.4 41.497C41.4334 41.497 41.474 41.497 41.5146 41.497C41.5552 41.497 41.6029 41.5042 41.6506 41.5114L41.6172 41.766ZM42.7509 41.778C42.7294 41.8045 42.7032 41.8333 42.6769 41.8525C42.6507 41.8789 42.622 41.9005 42.5958 41.9198L42.5695 41.6675C42.6769 41.5642 42.7652 41.4778 42.8345 41.3937C42.9013 41.3192 42.9419 41.2784 42.949 41.264L43.0111 41.0862L43.2617 41.0598L43.0111 41.7492V41.7564C43.0039 41.778 43.0039 41.79 43.0039 41.79C43.0039 41.7973 43.0039 41.7973 43.0039 41.8045C43.0111 41.8045 43.0111 41.8045 43.0111 41.8045C43.0517 41.8045 43.14 41.7228 43.2832 41.5666C43.4264 41.4177 43.5743 41.2328 43.7175 41.0214L43.961 40.9949L43.6555 41.8597C43.6698 41.8453 43.7223 41.7973 43.8178 41.7108C43.9133 41.6219 44.0016 41.5474 44.0756 41.4802L44.1018 41.7396C43.9658 41.8621 43.844 41.9702 43.7414 42.0735C43.6388 42.1696 43.5457 42.2585 43.4693 42.3473C43.4144 42.5731 43.3619 42.7365 43.307 42.8518C43.2521 42.9599 43.1925 43.0151 43.1233 43.0223C43.0898 43.0295 43.0564 43.0151 43.0278 42.9959C43.0015 42.9743 42.9872 42.9407 42.98 42.907C42.9729 42.8254 42.9944 42.7221 43.0469 42.5996C43.0946 42.4843 43.1686 42.3545 43.2712 42.2176C43.2927 42.1552 43.3261 42.0543 43.3739 41.9174C43.4216 41.7804 43.455 41.6795 43.4765 41.6099C43.3261 41.7804 43.1925 41.9174 43.0636 42.0182C42.9419 42.1215 42.8536 42.1744 42.7915 42.1816C42.7652 42.1816 42.7438 42.1744 42.7247 42.1552C42.7032 42.1335 42.6913 42.1143 42.6841 42.0807C42.6841 42.0471 42.6841 42.0062 42.6984 41.951C42.708 41.9005 42.7223 41.8477 42.7509 41.778ZM44.3166 41.5066C44.4192 41.3985 44.5076 41.2952 44.5815 41.1919C44.6555 41.0838 44.7247 40.9733 44.7773 40.858C44.7629 40.7499 44.7701 40.6683 44.7987 40.6058C44.8202 40.5433 44.8656 40.5097 44.9205 40.5025C44.961 40.4953 44.9944 40.5025 45.0231 40.5241C45.0493 40.5458 45.0708 40.5794 45.078 40.6274C45.0851 40.6538 45.0851 40.6899 45.0708 40.7235C45.0637 40.7571 45.0446 40.7908 45.0159 40.8316C45.0302 40.9061 45.0493 40.9685 45.0565 41.0166C45.0708 41.0646 45.078 41.1126 45.0828 41.1463C45.0971 41.2496 45.1042 41.3433 45.1042 41.4201C45.0971 41.4946 45.0828 41.5642 45.0565 41.6243C45.1186 41.5835 45.1782 41.5354 45.2403 41.4802C45.3023 41.4249 45.362 41.3649 45.4241 41.2952L45.4646 41.5546C45.3572 41.6627 45.2474 41.7444 45.152 41.7997C45.0493 41.8621 44.961 41.8957 44.868 41.9077H44.8465C44.825 41.9294 44.7916 41.9486 44.7653 41.9558C44.7391 41.9702 44.7033 41.9774 44.6699 41.9822C44.6078 41.9894 44.5553 41.9822 44.5195 41.9606C44.4789 41.9342 44.4574 41.8933 44.4455 41.8381C44.4455 41.8117 44.4455 41.79 44.4527 41.7828C44.467 41.7756 44.4789 41.7684 44.5147 41.7612C44.5362 41.754 44.5625 41.754 44.603 41.7612C44.6436 41.7612 44.6699 41.7612 44.6913 41.754C44.7582 41.7468 44.8059 41.6916 44.8274 41.5979C44.8536 41.509 44.8536 41.3793 44.8274 41.2159L44.8202 41.1823C44.7725 41.2712 44.7176 41.3673 44.6436 41.4561C44.5696 41.545 44.4741 41.6459 44.3596 41.7492L44.3166 41.5066ZM46.0518 41.3625C46.0518 41.3769 46.0518 41.3841 46.0518 41.3961C46.0518 41.4105 46.0518 41.4225 46.0518 41.4369C46.0518 41.4441 46.0589 41.4513 46.0589 41.4586C46.0661 41.4658 46.0661 41.4658 46.0733 41.4658C46.0947 41.4586 46.1353 41.4249 46.2093 41.3625C46.2833 41.2952 46.3644 41.2183 46.4408 41.1319L46.4885 41.3913C46.374 41.5138 46.257 41.6099 46.1568 41.6844C46.0542 41.7516 45.9802 41.7924 45.9205 41.8069C45.8728 41.8141 45.8322 41.8069 45.8059 41.7924C45.7725 41.7708 45.7582 41.7444 45.751 41.7108C45.7439 41.6892 45.7439 41.6627 45.7439 41.6291C45.751 41.6027 45.7582 41.5618 45.7654 41.5066L45.7988 41.3433C45.751 41.3985 45.7176 41.4465 45.6842 41.4874C45.6508 41.521 45.6174 41.5546 45.5887 41.5763L45.541 41.3312C45.6436 41.2087 45.7319 41.1126 45.7916 41.031C45.8537 40.9565 45.8871 40.9085 45.8871 40.9013L45.9754 40.5121L45.7391 40.553L45.7797 40.3488L46.016 40.3079C46.0422 40.0773 46.078 39.9068 46.1114 39.8107C46.152 39.7074 46.1997 39.6546 46.2546 39.6474C46.2881 39.6402 46.3167 39.6474 46.3358 39.669C46.362 39.6906 46.3764 39.717 46.3835 39.7579C46.3907 39.7987 46.3764 39.9068 46.3358 40.0773C46.3143 40.159 46.3024 40.2215 46.2881 40.2671L46.5052 40.2263L46.4647 40.4304L46.2475 40.4713L46.0518 41.3625ZM47.5435 41.1511C47.4218 41.2952 47.3072 41.3961 47.2046 41.4706C47.1019 41.5378 47.0017 41.5859 46.8991 41.6147C46.763 41.6411 46.6485 41.6363 46.5673 41.5811C46.479 41.533 46.4169 41.4441 46.3907 41.3144C46.343 41.1295 46.3764 40.9589 46.4933 40.7956C46.6079 40.625 46.7654 40.5217 46.9611 40.4809C47.0637 40.4593 47.1377 40.4593 47.2046 40.4881C47.2666 40.5145 47.3072 40.5698 47.3191 40.637C47.3454 40.7523 47.3048 40.8676 47.1974 40.9925C47.09 41.1078 46.9325 41.2111 46.7153 41.2856C46.7296 41.3192 46.7487 41.3408 46.7821 41.3529C46.8155 41.3649 46.8561 41.3673 46.9038 41.3601C46.985 41.3384 47.0733 41.2928 47.1759 41.2159C47.2714 41.1343 47.3716 41.0262 47.4814 40.8965L47.5435 41.1511ZM46.6628 41.091C46.7845 41.043 46.8871 40.9877 46.9611 40.9205C47.0279 40.858 47.0637 40.798 47.0494 40.7499C47.0423 40.7283 47.0279 40.7163 47.016 40.7019C46.9945 40.6947 46.9754 40.6947 46.9492 40.6947C46.8943 40.7091 46.8346 40.7571 46.7726 40.8316C46.7105 40.9061 46.6771 40.9949 46.6628 41.091ZM48.3311 40.3872C48.386 40.2983 48.4385 40.2311 48.4862 40.183C48.5411 40.135 48.5889 40.1014 48.6294 40.0869C48.6557 40.0797 48.6843 40.0797 48.7106 40.0869C48.7368 40.1014 48.7512 40.1134 48.7655 40.1422C48.7726 40.1638 48.7726 40.2046 48.7655 40.2719C48.7655 40.2863 48.7655 40.2935 48.7655 40.2983L48.744 40.5722L48.9803 40.183C49.028 40.1014 49.0829 40.0341 49.1354 39.9861C49.1832 39.9308 49.2381 39.8972 49.2786 39.8828C49.312 39.8756 49.3407 39.8756 49.3669 39.8828C49.4004 39.8972 49.4147 39.9092 49.4218 39.9308C49.429 39.9452 49.429 39.9861 49.4218 40.0461C49.4147 40.0677 49.4147 40.0869 49.4147 40.0942L49.3526 40.577C49.3455 40.6034 49.3455 40.625 49.3455 40.6394C49.3455 40.6538 49.3455 40.6611 49.3455 40.6659C49.3455 40.6731 49.3526 40.6803 49.3526 40.6875C49.3598 40.6875 49.3669 40.6947 49.3669 40.6875C49.3884 40.6875 49.4338 40.6394 49.503 40.565C49.5698 40.4905 49.639 40.4016 49.6987 40.2983L49.787 40.5506C49.6796 40.6875 49.5841 40.8028 49.4958 40.8844C49.4004 40.9661 49.3264 41.0214 49.2524 41.0406C49.2118 41.055 49.1712 41.055 49.145 41.0478C49.1116 41.0334 49.0901 41.0142 49.0781 40.9853C49.071 40.9637 49.071 40.9373 49.071 40.9181C49.071 40.8917 49.071 40.8508 49.0781 40.7956L49.133 40.3392C49.0185 40.5025 48.8968 40.6875 48.787 40.9061C48.6724 41.1247 48.5912 41.24 48.5507 41.2544C48.5244 41.2616 48.5029 41.2616 48.4767 41.2472C48.4504 41.2328 48.4361 41.2135 48.4218 41.1919C48.4146 41.1655 48.4218 41.0838 48.4361 40.9613L48.4838 40.5457C48.3812 40.6899 48.2738 40.8724 48.1521 41.1054C48.0304 41.336 47.9421 41.461 47.88 41.4802C47.8537 41.4874 47.8323 41.4802 47.806 41.4658C47.7845 41.4513 47.7654 41.4321 47.7583 41.4033C47.7583 41.3961 47.7511 41.3817 47.7511 41.3697C47.7511 41.3481 47.7511 41.336 47.7511 41.3144L47.7845 41.0766C47.7631 41.1102 47.744 41.1391 47.7225 41.1655C47.701 41.1919 47.6819 41.2207 47.6604 41.2472L47.5793 41.0021C47.6676 40.8796 47.7296 40.7715 47.7821 40.6827C47.837 40.5938 47.8633 40.5457 47.8633 40.5337L47.8848 40.3488L48.1569 40.2599L48.09 40.7715L48.3311 40.3872Z" fill="#FEFEFE"/>
<path d="M41.3594 18.97L39.9631 20.8436" stroke="#FFF300" stroke-width="1.3622" stroke-miterlimit="10" stroke-linecap="round" stroke-linejoin="round"/>
<path d="M42.9535 20.6204L40.8914 21.8599" stroke="#FFF300" stroke-width="1.3622" stroke-miterlimit="10" stroke-linecap="round" stroke-linejoin="round"/>
<path d="M36.3208 18.3357L37.0249 20.3535" stroke="#FFF300" stroke-width="1.3622" stroke-miterlimit="10" stroke-linecap="round" stroke-linejoin="round"/>
<path d="M34.4282 19.2703L35.8459 20.9061" stroke="#FFF300" stroke-width="1.3622" stroke-miterlimit="10" stroke-linecap="round" stroke-linejoin="round"/>
<path d="M32.915 20.7139L35.0655 21.9413" stroke="#FFF300" stroke-width="1.3622" stroke-miterlimit="10" stroke-linecap="round" stroke-linejoin="round"/>
<path d="M32.3184 22.5203L34.4282 22.943" stroke="#FFF300" stroke-width="1.3622" stroke-miterlimit="10" stroke-linecap="round" stroke-linejoin="round"/>
<path d="M38.8985 18.0764L38.4641 20.4017" stroke="#FFF300" stroke-width="1.3622" stroke-miterlimit="10" stroke-linecap="round" stroke-linejoin="round"/>
<path d="M43.7866 22.5276L41.4619 23.0657" stroke="#FFF300" stroke-width="1.3622" stroke-miterlimit="10" stroke-linecap="round" stroke-linejoin="round"/>
<path fill-rule="evenodd" clip-rule="evenodd" d="M38.056 20.8772C39.6623 20.8772 40.9869 22.1167 41.0203 23.6516H35.0869C35.1203 22.1191 36.4426 20.8772 38.056 20.8772Z" fill="#FFF300" stroke="#FFF300" stroke-width="0.4824" stroke-miterlimit="10"/>
<path d="M34.686 22.1384C34.8005 22.1792 34.8554 22.3017 34.8077 22.417C34.7599 22.5251 34.6311 22.5731 34.5165 22.5323L34.686 22.1384ZM34.5165 22.5347L30.6309 21.0286L30.8004 20.6322L34.686 22.1384L34.5165 22.5347ZM30.6309 21.0286C30.5163 20.9878 30.4614 20.858 30.5092 20.7499C30.5569 20.6418 30.6858 20.5866 30.8004 20.6346L30.6309 21.0286Z" fill="#FFF300"/>
<path d="M35.507 21.1439C35.6025 21.2184 35.6144 21.3553 35.5333 21.4442C35.4521 21.5403 35.3089 21.5475 35.2134 21.4706L35.507 21.1439ZM35.2158 21.4706L32.0486 18.8811L32.3398 18.5616L35.507 21.1463L35.2158 21.4706ZM32.0486 18.8811C31.9532 18.8066 31.9412 18.6697 32.0224 18.5808C32.1035 18.492 32.2467 18.4776 32.3422 18.5592L32.0486 18.8811Z" fill="#FFF300"/>
<path d="M36.6932 20.4161C36.7481 20.5193 36.7075 20.6467 36.5977 20.7019C36.4903 20.7572 36.3543 20.7163 36.2922 20.613L36.6932 20.4161ZM36.2922 20.613L34.3112 16.9858L34.7051 16.7889L36.6932 20.4161L36.2922 20.613ZM34.3136 16.9858C34.2516 16.8825 34.2993 16.7552 34.4091 16.7C34.5189 16.6447 34.6525 16.6856 34.7074 16.7889L34.3136 16.9858Z" fill="#FFF300"/>
<path d="M38.0034 20.1688C38.0177 20.2913 37.9222 20.3945 37.8005 20.3994C37.6788 20.4138 37.5642 20.3249 37.557 20.2096L38.0034 20.1688ZM37.5547 20.2096L37.1823 16.1068L37.631 16.0731L38.0034 20.1712L37.5547 20.2096ZM37.1823 16.1068C37.168 15.9915 37.2635 15.8882 37.3852 15.8762C37.5069 15.869 37.6167 15.9506 37.6287 16.0731L37.1823 16.1068Z" fill="#FFF300"/>
<path d="M39.6099 20.4616C39.5621 20.5769 39.4332 20.6322 39.3187 20.5841C39.2041 20.5433 39.1421 20.4208 39.1898 20.3103L39.6099 20.4616ZM39.1898 20.3127L40.7364 16.551L41.1565 16.7071L39.6099 20.464L39.1898 20.3127ZM40.7364 16.5486C40.7841 16.4405 40.913 16.3852 41.0276 16.4261C41.1421 16.4669 41.197 16.5966 41.1565 16.7047L40.7364 16.5486Z" fill="#FFF300"/>
<path d="M40.803 21.3769C40.7075 21.4513 40.5667 21.4393 40.4903 21.3432C40.4092 21.2544 40.4235 21.1174 40.5166 21.043L40.803 21.3769ZM40.519 21.043L43.8485 18.4727L44.1253 18.7994L40.803 21.3769L40.519 21.043ZM43.8485 18.4727C43.9439 18.3983 44.0848 18.4103 44.1611 18.4991C44.2423 18.5952 44.228 18.7249 44.1277 18.7994L43.8485 18.4727Z" fill="#FFF300"/>
<path d="M41.5622 22.5563C41.4476 22.6043 41.3187 22.549 41.2638 22.4409C41.2161 22.3329 41.271 22.2103 41.3855 22.1623L41.5622 22.5563ZM41.3855 22.1599L45.252 20.5433L45.4358 20.9324L41.5645 22.5538L41.3855 22.1599ZM45.252 20.5433C45.3666 20.4952 45.5027 20.5433 45.5504 20.6514C45.5981 20.7595 45.5504 20.882 45.4358 20.93L45.252 20.5433Z" fill="#FFF300"/>
<path d="M34.3137 23.4068C34.4426 23.414 34.538 23.51 34.538 23.6253C34.5309 23.7479 34.4306 23.8367 34.3065 23.8367L34.3137 23.4068ZM34.3065 23.8367L30.23 23.7334L30.2443 23.3035L34.3137 23.4068L34.3065 23.8367ZM30.23 23.7358C30.1083 23.7358 30.0056 23.6326 30.0128 23.5173C30.0128 23.402 30.1154 23.3059 30.2443 23.3059L30.23 23.7358Z" fill="#FFF300"/>
<path d="M45.9155 23.2433C46.0372 23.2361 46.147 23.3322 46.147 23.4475C46.1542 23.5628 46.0587 23.6661 45.937 23.6733L45.9155 23.2433ZM45.937 23.6733L41.7602 23.8366L41.7387 23.4066L45.9155 23.2433L45.937 23.6733ZM41.7602 23.8366C41.6385 23.8438 41.5287 23.7477 41.5287 23.6324C41.5215 23.5099 41.617 23.4139 41.7387 23.4066L41.7602 23.8366Z" fill="#FFF300"/>
<path d="M14.4372 42.4866L14.8429 43.9399L16.158 43.9326L15.0935 44.8262L15.5016 46.2699L14.4372 45.3787L13.3655 46.2699L13.7784 44.8262L12.7068 43.9326L14.029 43.9399L14.4372 42.4866Z" fill="#FEFEFE"/>
<path d="M62.7013 42.4866L63.1095 43.9399L64.4317 43.9326L63.3601 44.8262L63.7658 46.2699L62.7013 45.3787L61.6297 46.2699L62.0426 44.8262L60.9709 43.9326L62.2956 43.9399L62.7013 42.4866Z" fill="#FEFEFE"/>
<path d="M13.2365 37.913L13.4394 39.2702L14.0767 39.3663L14.2604 40.5793L10.339 39.741L10.1433 38.4318L13.6232 36.3732L13.8141 37.6199L13.2365 37.913ZM12.4704 38.3021L11.203 38.9435L12.5993 39.1477L12.4704 38.3021ZM9.79725 35.2755V34.0624H13.5468V35.2755H9.79725ZM9.771 31.9966L10.0073 30.4208L12.3534 30.195L10.1911 29.2221L10.4273 27.6535L14.1292 28.2661L13.9788 29.2413L11.1577 28.7777L13.8714 29.998L13.7354 30.8772L10.7997 31.163L13.6208 31.6339L13.4704 32.6091L9.771 31.9966ZM13.2819 26.5774L13.647 25.494C13.8237 25.5421 13.9669 25.5493 14.0814 25.5157C14.2652 25.4676 14.4013 25.3307 14.4872 25.1193C14.5492 24.9632 14.5683 24.8263 14.5277 24.7038C14.4943 24.5885 14.4251 24.5068 14.332 24.4659C14.2437 24.4251 14.1483 24.4323 14.048 24.4804C13.9406 24.5356 13.7974 24.6917 13.6136 24.9632C13.3081 25.4052 13.0313 25.6862 12.7735 25.8231C12.5157 25.9529 12.2508 25.9601 11.9811 25.8448C11.8045 25.7631 11.6565 25.6334 11.5467 25.4556C11.4322 25.2779 11.3701 25.0665 11.3701 24.807C11.3629 24.5548 11.4441 24.2401 11.5945 23.8654C11.7854 23.4018 12.0074 23.0871 12.2651 22.919C12.5301 22.7556 12.8475 22.7292 13.227 22.8373L12.8618 23.9087C12.6924 23.8678 12.5563 23.875 12.4489 23.9351C12.3415 23.9903 12.2532 24.0984 12.1911 24.2546C12.1362 24.3843 12.1243 24.4924 12.1506 24.5812C12.1768 24.6701 12.2246 24.7302 12.3057 24.7662C12.3606 24.7926 12.4131 24.7878 12.4823 24.7518C12.5491 24.7182 12.6375 24.6149 12.7592 24.4371C13.0575 23.9951 13.301 23.6949 13.4919 23.5243C13.6757 23.361 13.8642 23.2649 14.0623 23.2385C14.2533 23.212 14.4418 23.2385 14.6328 23.3201C14.85 23.4162 15.0266 23.5724 15.1626 23.7837C15.2987 23.9951 15.3655 24.2329 15.3727 24.5068C15.3727 24.7806 15.3058 25.0857 15.1626 25.434C14.9192 26.0465 14.628 26.4213 14.3082 26.5582C13.9883 26.6927 13.6423 26.6999 13.2819 26.5774ZM14.2127 18.7922L16.0767 16.2075L16.7212 16.7119L15.554 18.3285L16.029 18.7033L17.1078 17.2044L17.7188 17.6872L16.64 19.1813L17.2295 19.6449L18.4301 17.9826L19.1079 18.5207L17.2104 21.151L14.2127 18.7922ZM17.473 14.5788L18.7761 13.3994C19.0339 13.1688 19.2702 13.0175 19.4874 12.9502C19.7046 12.883 19.9218 12.8613 20.139 12.9022C20.3561 12.9502 20.559 13.0391 20.7571 13.176C20.9552 13.3129 21.1366 13.4835 21.2989 13.6877C21.5638 14.0023 21.7333 14.281 21.8073 14.5116C21.8884 14.7494 21.9099 14.9824 21.8884 15.2058C21.8622 15.4364 21.793 15.6358 21.6927 15.7991C21.5423 16.0297 21.3944 16.2147 21.2392 16.3516L19.9361 17.531L17.473 14.5788ZM18.905 14.4563L20.2487 16.073L20.4659 15.876C20.6497 15.7126 20.7571 15.5685 20.8048 15.4604C20.8454 15.3451 20.8454 15.2154 20.7977 15.0713C20.7571 14.9271 20.6354 14.7374 20.4373 14.4996C20.1795 14.1849 19.948 14.0167 19.7595 13.9879C19.5637 13.9663 19.3537 14.0552 19.1222 14.2618L18.905 14.4563ZM23.7334 9.72657L24.731 9.11884L25.8504 11.1366C25.9578 11.3336 26.0342 11.545 26.0747 11.7564C26.1153 11.9677 26.101 12.1863 26.0485 12.3905C26.0008 12.6019 25.9124 12.7797 25.805 12.9166C25.6547 13.1063 25.4399 13.2841 25.1678 13.4547C25.0127 13.5507 24.8289 13.6396 24.6332 13.7285C24.4303 13.8174 24.2537 13.8654 24.0914 13.8726C23.9219 13.8798 23.7596 13.851 23.583 13.7909C23.4064 13.7285 23.2632 13.642 23.1558 13.5315C22.972 13.3538 22.836 13.176 22.7429 13.0127L21.6307 10.9949L22.6283 10.3872L23.7739 12.453C23.8766 12.6379 24.0055 12.7532 24.1606 12.8013C24.3157 12.8421 24.4804 12.8157 24.6546 12.7124C24.8241 12.6091 24.9315 12.4746 24.9745 12.3112C25.015 12.1551 24.9816 11.9774 24.879 11.7924L23.7334 9.72657ZM29.7073 9.50798L30.7718 9.48636C30.7933 9.78663 30.7647 10.0581 30.6835 10.2983C30.6024 10.5361 30.4735 10.7355 30.2969 10.906C30.1203 11.0694 29.8696 11.2063 29.5498 11.3144C29.1632 11.4441 28.8314 11.4921 28.545 11.4633C28.261 11.4297 27.9889 11.2928 27.7168 11.0549C27.4447 10.8243 27.2347 10.476 27.0939 10.0124C26.9029 9.39989 26.9101 8.87382 27.1201 8.43664C27.3373 7.99945 27.7311 7.67997 28.2992 7.49021C28.7479 7.33407 29.1321 7.31245 29.452 7.41574C29.7646 7.51903 30.0487 7.74243 30.2921 8.09073L29.3899 8.64322C29.3231 8.54714 29.261 8.47267 29.2061 8.43904C29.1178 8.37178 29.0224 8.33095 28.915 8.30933C28.8123 8.29491 28.7049 8.30212 28.5951 8.34296C28.3445 8.42463 28.1894 8.59518 28.1202 8.8474C28.0653 9.03717 28.0939 9.29659 28.1942 9.63049C28.323 10.0461 28.4663 10.3055 28.6357 10.4136C28.8052 10.5289 28.9961 10.5433 29.2133 10.476C29.4305 10.4016 29.5665 10.2863 29.6334 10.1277C29.7145 9.96438 29.736 9.7602 29.7073 9.50798ZM34.4904 9.34464L33.1872 9.5344L33.0917 10.2022L31.9175 10.3727L32.7934 6.29635L34.0488 6.11139L35.9606 9.77942L34.7601 9.95718L34.4904 9.34464ZM34.1371 8.54714L33.5404 7.21156L33.3232 8.66244L34.1371 8.54714ZM36.2995 5.86157H39.8199V6.82962H38.6409V9.77462H37.4809V6.82962H36.3019V5.86157H36.2995ZM41.4477 6.05855L42.6005 6.20267L42.147 10.0893L40.9942 9.94036L41.4477 6.05855ZM43.9156 8.44384C44.0778 7.83131 44.3643 7.39412 44.7843 7.1419C45.1972 6.88968 45.7008 6.84884 46.2903 7.01218C46.8942 7.18273 47.3143 7.47579 47.5529 7.90577C47.7964 8.33575 47.8369 8.8522 47.6818 9.45994C47.5672 9.90193 47.405 10.243 47.1878 10.4904C46.9777 10.7283 46.7128 10.8916 46.4001 10.9733C46.0946 11.0549 45.7366 11.0405 45.3357 10.9252C44.9299 10.8171 44.6029 10.6514 44.3738 10.4424C44.1423 10.231 43.98 9.95958 43.8845 9.61848C43.7938 9.27498 43.8081 8.88824 43.9156 8.44384ZM45.0349 8.75852C44.9395 9.14046 44.9323 9.43352 45.0278 9.63769C45.1232 9.84187 45.2855 9.9788 45.5218 10.0461C45.7581 10.1085 45.9705 10.0797 46.14 9.95718C46.3166 9.82746 46.4598 9.55602 46.5672 9.13325C46.6555 8.77774 46.6555 8.49909 46.56 8.29491C46.4646 8.09073 46.2951 7.96102 46.0588 7.89376C45.8345 7.83131 45.6316 7.86734 45.455 7.98985C45.2736 8.11716 45.1376 8.37659 45.0349 8.75852ZM50.121 8.46546L51.071 9.01074L51.2953 11.6146L52.3001 9.72657L53.2572 10.2791L51.4385 13.7021L50.4814 13.1424L50.2571 10.5577L49.2594 12.4386L48.3024 11.8861L50.121 8.46546ZM54.6439 14.5116L55.5127 15.2274C55.41 15.3836 55.3504 15.5205 55.3432 15.643C55.3361 15.8472 55.41 16.0249 55.5747 16.1811C55.6965 16.2891 55.8182 16.3516 55.9351 16.3516C56.0568 16.3588 56.1523 16.318 56.2191 16.2363C56.2812 16.1618 56.3075 16.0658 56.2931 15.9504C56.286 15.8279 56.1857 15.6358 56.0019 15.3715C55.7036 14.9296 55.5342 14.5524 55.5007 14.2594C55.4673 13.9591 55.5413 13.6925 55.737 13.4691C55.8659 13.3201 56.0282 13.2168 56.2311 13.1616C56.4268 13.1063 56.6368 13.1208 56.8755 13.2024C57.107 13.2841 57.3648 13.4619 57.656 13.7285C58.0092 14.0696 58.2264 14.3891 58.2932 14.7038C58.36 15.0184 58.2789 15.3451 58.0569 15.679L57.2025 14.9704C57.2979 14.8142 57.3314 14.6773 57.317 14.5548C57.2956 14.4251 57.2287 14.3098 57.107 14.1945C57.0044 14.0984 56.9113 14.0504 56.823 14.0504C56.7347 14.0432 56.6607 14.0768 56.6058 14.1393C56.5724 14.1873 56.5509 14.2474 56.5652 14.3242C56.5724 14.3987 56.632 14.5212 56.7562 14.6989C57.0617 15.1361 57.2574 15.4772 57.3457 15.715C57.434 15.9529 57.4602 16.1714 57.4197 16.3684C57.3863 16.5654 57.2979 16.7431 57.1619 16.9065C56.9996 17.0915 56.8015 17.214 56.5652 17.2812C56.3337 17.3437 56.0903 17.3365 55.8468 17.2476C55.5962 17.1659 55.3384 16.9954 55.0664 16.7431C54.5986 16.3012 54.3479 15.8904 54.3336 15.5301C54.3121 15.165 54.4219 14.8311 54.6439 14.5116ZM59.8589 16.169L60.6322 17.2404L60.0833 18.6648L61.5416 18.5015L62.3149 19.5656L59.6966 19.7218L58.4412 20.709L57.7419 19.741L58.9973 18.7537L59.8589 16.169ZM60.6728 21.8861L61.2217 22.8878C61.0714 22.991 60.9711 23.0991 60.9162 23.2072C60.8351 23.3922 60.8422 23.582 60.9377 23.7934C61.0117 23.9495 61.1 24.0528 61.2098 24.1008C61.3172 24.1489 61.4198 24.1489 61.5153 24.1008C61.5964 24.06 61.6585 23.9783 61.6919 23.863C61.7253 23.7477 61.6991 23.5291 61.6299 23.2096C61.5081 22.6836 61.4795 22.2752 61.563 21.9822C61.6299 21.6963 61.7993 21.4849 62.0642 21.348C62.2409 21.2591 62.4246 21.2255 62.6275 21.2519C62.8304 21.2783 63.0285 21.3744 63.2099 21.545C63.4008 21.7083 63.575 21.975 63.7445 22.3353C63.9545 22.7845 64.0357 23.1664 63.9879 23.4883C63.9331 23.8078 63.7445 24.0744 63.4175 24.3002L62.8829 23.3057C63.0261 23.2024 63.1072 23.0871 63.1335 22.9646C63.1598 22.8421 63.1407 22.7052 63.0714 22.5563C63.0094 22.4265 62.9426 22.3449 62.8614 22.3112C62.7803 22.2704 62.6991 22.2704 62.6251 22.304C62.5774 22.3305 62.5368 22.3857 62.5225 22.4602C62.4962 22.5274 62.5153 22.6716 62.5631 22.8829C62.692 23.409 62.7469 23.7958 62.7469 24.0552C62.7397 24.3074 62.6848 24.526 62.5774 24.6893C62.4748 24.8599 62.3339 24.9896 62.143 25.0857C61.933 25.1938 61.7015 25.2346 61.458 25.201C61.2217 25.1746 61.0045 25.0713 60.7993 24.8935C60.6036 24.7158 60.4269 24.4563 60.2646 24.1152C59.9878 23.5219 59.9043 23.0511 60.014 22.7052C60.131 22.3641 60.3482 22.0927 60.6728 21.8861ZM65.0214 25.6166L65.8759 29.1813L64.9737 29.4119L64.6896 28.2132L61.9497 28.9291L61.6728 27.7568L64.4128 27.0482L64.1216 25.8496L65.0214 25.6166ZM66.1933 31.2471L66.2482 34.478L65.4486 34.4996L65.4152 32.4746L64.8185 32.489L64.8519 34.3627L64.0858 34.3771L64.0524 32.5034L63.3197 32.5178L63.3531 34.5981L62.5058 34.6125L62.4509 31.3192L66.1933 31.2471ZM66.1814 36.4477L65.9379 38.0235L63.5989 38.2493L65.7565 39.2245L65.5202 40.7931L61.8184 40.1806L61.9688 39.2053L64.7971 39.6689L62.0833 38.4486L62.2194 37.5695L65.1551 37.2836L62.3339 36.8128L62.4843 35.8375L66.1814 36.4477Z" fill="#FEFEFE"/>
<path d="M21.0221 52.6116L21.9099 53.3947L19.4946 56.3877L18.6067 55.6094L21.0221 52.6116ZM21.4946 56.3469L22.4636 56.8921C22.3897 57.0627 22.361 57.2116 22.3753 57.3341C22.3968 57.5383 22.4971 57.6944 22.688 57.817C22.824 57.913 22.9529 57.9467 23.0746 57.9251C23.1892 57.9034 23.2775 57.8506 23.3253 57.7617C23.3801 57.6728 23.3921 57.5767 23.3587 57.4614C23.3253 57.3461 23.1964 57.1684 22.972 56.9354C22.5997 56.5534 22.3753 56.2195 22.287 55.9337C22.2059 55.6478 22.2393 55.374 22.3944 55.1146C22.4971 54.944 22.6379 54.8143 22.8288 54.7182C23.0126 54.6293 23.2226 54.6029 23.4661 54.6438C23.7095 54.6774 23.9959 54.8071 24.3277 55.0257C24.7334 55.2851 24.9984 55.571 25.1153 55.864C25.237 56.1643 25.2108 56.4982 25.0485 56.8657L24.0866 56.3204C24.1535 56.1499 24.1678 56.0058 24.1272 55.8905C24.0866 55.7752 23.9983 55.6647 23.8623 55.5758C23.7477 55.5013 23.6451 55.4677 23.5568 55.4797C23.4685 55.4941 23.4064 55.5422 23.3611 55.6094C23.3348 55.6647 23.3276 55.7247 23.3467 55.7992C23.3658 55.8736 23.4541 55.9841 23.6045 56.1331C23.9768 56.5078 24.2227 56.8081 24.3515 57.0339C24.4804 57.2525 24.5425 57.4638 24.5353 57.6608C24.5353 57.865 24.4804 58.0572 24.373 58.2325C24.2441 58.4511 24.0675 58.6072 23.8503 58.7105C23.626 58.8186 23.3897 58.8547 23.1319 58.8138C22.8742 58.773 22.5901 58.6577 22.2846 58.4535C21.7429 58.1052 21.4374 57.7521 21.3562 57.3966C21.2798 57.0483 21.3252 56.7 21.4946 56.3469ZM26.5354 56.3997L27.6214 56.8369L26.6046 59.5849L28.2944 60.2671L27.9627 61.1679L25.1965 60.0557L26.5354 56.3997ZM31.8721 61.5546L30.5905 61.24L30.2706 61.8261L29.1178 61.5474L31.3351 58.0716L32.5619 58.3646L33.0918 62.5083L31.9127 62.2224L31.8721 61.5546ZM31.8172 60.6683L31.7146 59.203L31.0153 60.4785L31.8172 60.6683ZM34.6312 58.8547L36.1563 58.9099L36.6647 61.3096L37.3282 58.958L38.8414 59.0132L38.7125 62.919L37.7697 62.8854L37.8652 59.9068L37.0322 62.859L36.1778 62.8326L35.5477 59.8203L35.4522 62.8061L34.5023 62.7725L34.6312 58.8547ZM42.715 61.8213L41.4071 61.9918L41.2997 62.6524L40.1254 62.8013L41.0682 58.7442L42.3236 58.5808L44.1757 62.2825L42.9752 62.4386L42.715 61.8213ZM42.3761 61.0166L41.7985 59.6738L41.5551 61.1199L42.3761 61.0166ZM44.3356 58.2686L46.3835 57.5335C46.7224 57.411 47.0135 57.4038 47.2594 57.5119C47.4957 57.62 47.6651 57.8122 47.7487 58.0716C47.8226 58.2902 47.8155 58.5016 47.7415 58.7057C47.6866 58.8427 47.5864 58.9652 47.4432 59.0877C47.7152 59.0612 47.9372 59.1021 48.1067 59.2174C48.2833 59.3255 48.405 59.5032 48.479 59.7362C48.5458 59.926 48.5601 60.1182 48.5267 60.3031C48.4933 60.4881 48.4122 60.6514 48.2952 60.7932C48.2212 60.882 48.0924 60.9709 47.9157 61.0598C47.6842 61.1823 47.5219 61.2568 47.4408 61.2904L45.5553 61.9654L44.3356 58.2686ZM45.9157 59.3183L46.3906 59.1477C46.5672 59.0853 46.6746 59.0108 46.7224 58.9291C46.7629 58.8403 46.7701 58.7394 46.7295 58.6289C46.6961 58.5208 46.6341 58.4439 46.5457 58.4103C46.4574 58.3694 46.3357 58.3839 46.1663 58.4439L45.6841 58.6145L45.9157 59.3183ZM46.3978 60.7716L46.9539 60.5746C47.1448 60.5073 47.2665 60.4256 47.3191 60.3296C47.3739 60.2263 47.3811 60.1254 47.3405 60.0029C47.3071 59.8948 47.2379 59.8179 47.1448 59.7843C47.0422 59.7434 46.9014 59.7579 46.7033 59.8251L46.1472 60.0221L46.3978 60.7716ZM52.0758 58.5544L50.9015 59.1741L51.0161 59.8347L49.9659 60.4016L49.5172 56.2508L50.6438 55.6502L53.6009 58.4655L52.5221 59.0372L52.0758 58.5544ZM51.4911 57.913L50.5077 56.8561L50.7512 58.3022L51.4911 57.913ZM52.5699 54.5669L53.9398 53.4907C54.2119 53.2794 54.4625 53.1424 54.6797 53.0896C54.9041 53.0343 55.1213 53.0343 55.3385 53.0968C55.5485 53.152 55.7442 53.2601 55.9351 53.4115C56.1189 53.5604 56.2884 53.7454 56.4435 53.9568C56.687 54.2907 56.8373 54.5765 56.897 54.8215C56.959 55.0593 56.9638 55.2923 56.9232 55.5157C56.8827 55.7463 56.8087 55.9385 56.687 56.0946C56.5247 56.3132 56.3624 56.4838 56.1977 56.6135L54.8205 57.6968L52.5699 54.5669ZM53.9995 54.5477L55.2334 56.258L55.465 56.0802C55.6559 55.9241 55.7776 55.7944 55.8254 55.6839C55.8803 55.5758 55.8874 55.4461 55.8516 55.3019C55.8182 55.153 55.7084 54.9536 55.527 54.7014C55.2907 54.3747 55.0735 54.1826 54.8826 54.1417C54.6917 54.1009 54.4769 54.1753 54.231 54.3675L53.9995 54.5477Z" fill="#FEFEFE"/>
</g>
<defs>
<filter id="filter0_d_1950_763" x="0" y="0" width="76" height="76" filterUnits="userSpaceOnUse" color-interpolation-filters="sRGB">
<feFlood flood-opacity="0" result="BackgroundImageFix"/>
<feColorMatrix in="SourceAlpha" type="matrix" values="0 0 0 0 0 0 0 0 0 0 0 0 0 0 0 0 0 0 127 0" result="hardAlpha"/>
<feOffset dy="4"/>
<feGaussianBlur stdDeviation="4"/>
<feComposite in2="hardAlpha" operator="out"/>
<feColorMatrix type="matrix" values="0 0 0 0 0 0 0 0 0 0 0 0 0 0 0 0 0 0 0.2 0"/>
<feBlend mode="normal" in2="BackgroundImageFix" result="effect1_dropShadow_1950_763"/>
<feBlend mode="normal" in="SourceGraphic" in2="effect1_dropShadow_1950_763" result="shape"/>
</filter>
</defs>
</svg>
