<svg width="18" height="18" viewBox="0 0 18 18" fill="none" xmlns="http://www.w3.org/2000/svg">
<path d="M12 2.40001V1.80001C12 1.64088 11.9368 1.48827 11.8243 1.37575C11.7117 1.26323 11.5591 1.20001 11.4 1.20001C11.2409 1.20001 11.0883 1.26323 10.9757 1.37575C10.8632 1.48827 10.8 1.64088 10.8 1.80001V2.40001H6C5.68174 2.40001 5.37651 2.52644 5.15147 2.75148C4.92643 2.97653 4.8 3.28175 4.8 3.60001V15.6C4.8 15.9183 4.92643 16.2235 5.15147 16.4485C5.37651 16.6736 5.68174 16.8 6 16.8H12C12.3183 16.8 12.6235 16.6736 12.8485 16.4485C13.0736 16.2235 13.2 15.9183 13.2 15.6V3.60001C13.2 3.28175 13.0736 2.97653 12.8485 2.75148C12.6235 2.52644 12.3183 2.40001 12 2.40001ZM7.2 15.6H6V14.4H7.2V15.6ZM7.2 13.2H6V12H7.2V13.2ZM7.2 10.8H6V9.60001H7.2V10.8ZM9.6 15.6H8.4V14.4H9.6V15.6ZM9.6 13.2H8.4V12H9.6V13.2ZM9.6 10.8H8.4V9.60001H9.6V10.8ZM12 15.6H10.8V14.4H12V15.6ZM12 13.2H10.8V12H12V13.2ZM12 10.8H10.8V9.60001H12V10.8ZM12 7.80001C12 7.95914 11.9368 8.11175 11.8243 8.22428C11.7117 8.3368 11.5591 8.40001 11.4 8.40001H6.6C6.44087 8.40001 6.28826 8.3368 6.17574 8.22428C6.06321 8.11175 6 7.95914 6 7.80001V4.20001C6 4.04088 6.06321 3.88827 6.17574 3.77575C6.28826 3.66323 6.44087 3.60001 6.6 3.60001H11.4C11.5591 3.60001 11.7117 3.66323 11.8243 3.77575C11.9368 3.88827 12 4.04088 12 4.20001V7.80001Z" fill="black"/>
</svg>
