<svg width="23" height="25" viewBox="0 0 23 25" fill="none" xmlns="http://www.w3.org/2000/svg">
<g clip-path="url(#clip0_381_31)">
<path d="M17.8918 24.9938H2.89778C2.11451 25.0438 1.33126 24.784 0.751438 24.2546C0.222477 23.6752 -0.0419831 22.9161 0.00887855 22.1469C-0.123362 19.4698 1.22953 16.9325 3.53864 15.5141C4.74915 14.7449 6.1631 14.3453 7.60757 14.3653H7.63812C9.07242 14.3653 10.527 14.3653 11.9308 14.3653C13.0498 14.3653 14.2094 14.3653 15.3487 14.3653C19.5092 14.3054 22.9373 17.5619 22.9983 21.6474C22.9983 21.6874 22.9983 21.7373 22.9983 21.7773C22.9983 21.9771 22.9983 22.1868 22.9983 22.3866C23.0492 23.7751 21.9506 24.9339 20.5367 24.9838C20.4655 24.9838 20.3942 24.9838 20.323 24.9838C19.5092 24.9938 18.6954 24.9938 17.8918 24.9938ZM14.4841 23.4954H16.1931C17.546 23.4954 18.9395 23.4954 20.3128 23.4954C20.8926 23.5554 21.4012 23.1458 21.4623 22.5764C21.4724 22.5065 21.4724 22.4366 21.4623 22.3667C21.4623 22.1769 21.4623 21.9971 21.4623 21.8073C21.4724 18.5308 18.7769 15.8737 15.4403 15.8637C15.4098 15.8637 15.369 15.8637 15.3385 15.8637C14.1992 15.8637 13.0396 15.8637 11.9206 15.8637C10.5067 15.8637 9.05206 15.8637 7.62794 15.8637H7.60757C6.46827 15.8437 5.33923 16.1534 4.38303 16.7727C2.50115 17.9115 1.40249 19.9692 1.53473 22.1369C1.5449 23.1658 1.88055 23.4954 2.89778 23.4954H14.4841Z" fill="#2A2A2A"/>
<path d="M11.4985 12.7562H11.4884C7.89753 12.7562 4.99841 9.89928 4.99841 6.3731C4.99841 2.84692 7.90771 0 11.4985 0C15.0894 0 17.9885 2.85691 17.9885 6.38309C17.9783 9.89928 15.0792 12.7462 11.4985 12.7562Z" fill="#2A2A2A"/>
</g>
<defs>
<clipPath id="clip0_381_31">
<rect width="23" height="25" fill="white"/>
</clipPath>
</defs>
</svg>
