<svg width="42" height="42" viewBox="0 0 42 42" fill="none" xmlns="http://www.w3.org/2000/svg">
<g filter="url(#filter0_d_3259_223)">
<path d="M21 34C29.2843 34 36 27.2843 36 19C36 10.7157 29.2843 4 21 4C12.7157 4 6 10.7157 6 19C6 27.2843 12.7157 34 21 34Z" fill="white"/>
<path d="M35.5 19C35.5 27.0081 29.0081 33.5 21 33.5C12.9919 33.5 6.5 27.0081 6.5 19C6.5 10.9919 12.9919 4.5 21 4.5C29.0081 4.5 35.5 10.9919 35.5 19Z" stroke="#A1A1A1" stroke-opacity="0.3"/>
</g>
<path d="M26.6563 26H24.9923C24.8056 26 24.651 25.9547 24.5283 25.864C24.411 25.768 24.3256 25.6507 24.2723 25.512L23.4083 23.152H18.6163L17.7523 25.512C17.7096 25.6347 17.6243 25.7467 17.4963 25.848C17.3736 25.9493 17.2216 26 17.0403 26H15.3683L19.9123 14.432H22.1123L26.6563 26ZM19.1683 21.632H22.8563L21.4483 17.784C21.3843 17.6133 21.3123 17.4133 21.2323 17.184C21.1576 16.9493 21.083 16.696 21.0083 16.424C20.9336 16.696 20.859 16.9493 20.7843 17.184C20.715 17.4187 20.6456 17.624 20.5763 17.8L19.1683 21.632Z" fill="#A1A1A1"/>
<defs>
<filter id="filter0_d_3259_223" x="0" y="0" width="42" height="42" filterUnits="userSpaceOnUse" color-interpolation-filters="sRGB">
<feFlood flood-opacity="0" result="BackgroundImageFix"/>
<feColorMatrix in="SourceAlpha" type="matrix" values="0 0 0 0 0 0 0 0 0 0 0 0 0 0 0 0 0 0 127 0" result="hardAlpha"/>
<feOffset dy="2"/>
<feGaussianBlur stdDeviation="3"/>
<feComposite in2="hardAlpha" operator="out"/>
<feColorMatrix type="matrix" values="0 0 0 0 0.0666667 0 0 0 0 0.0901961 0 0 0 0 0.101961 0 0 0 0.22 0"/>
<feBlend mode="normal" in2="BackgroundImageFix" result="effect1_dropShadow_3259_223"/>
<feBlend mode="normal" in="SourceGraphic" in2="effect1_dropShadow_3259_223" result="shape"/>
</filter>
</defs>
</svg>
