<svg width="110" height="110" viewBox="0 0 110 110" fill="none" xmlns="http://www.w3.org/2000/svg">
<circle cx="55" cy="55" r="45" fill="#FFEAEA"/>
<circle cx="55" cy="55" r="52.5" stroke="#FF3F3F" stroke-width="5"/>
<path d="M55.1254 35.4419C57.3149 36.5052 59.464 37.6553 61.6352 38.7582C61.7124 38.7968 61.7886 38.846 61.8511 38.9049C61.9972 39.0428 61.9944 39.2406 61.8502 39.3796C61.8079 39.4201 61.7602 39.4655 61.7078 39.4799C61.3788 39.5716 61.3311 39.8061 61.3485 40.1274C61.3752 40.6252 61.3568 41.126 61.355 41.6258C61.355 41.7194 61.3724 41.7879 61.445 41.8612C61.6315 42.0484 61.6407 42.2964 61.4753 42.5116C61.4174 42.5859 61.4101 42.6447 61.4266 42.7345C61.5047 43.1494 61.5644 43.5681 61.649 43.9821C61.6903 44.1827 61.626 44.2821 61.4468 44.3265C61.2263 44.3805 61.0058 44.397 60.7835 44.3439C60.6135 44.3034 60.5492 44.2049 60.585 44.0158C60.6668 43.5942 60.732 43.1687 60.8129 42.746C60.8312 42.6476 60.822 42.5839 60.7586 42.5029C60.5942 42.2897 60.6116 42.0562 60.8018 41.8535C60.857 41.7947 60.8845 41.7426 60.8836 41.6606C60.8808 41.0932 60.8818 40.5249 60.8818 39.9604C60.8101 39.917 60.766 39.9759 60.7201 39.999C60.3241 40.1968 59.9317 40.4014 59.5357 40.5982C59.4429 40.6445 59.3859 40.6909 59.3869 40.8134C59.3933 41.5428 59.2738 42.2588 59.1544 42.9747C59.136 43.0818 59.1388 43.1716 59.2325 43.2545C59.3611 43.3694 59.4356 43.5295 59.4659 43.7051C59.5578 44.2406 59.4934 44.7578 59.2775 45.2518C59.2022 45.4236 59.0634 45.5394 58.9026 45.6127C58.6555 45.7256 58.537 45.9205 58.4745 46.1916C58.1217 47.7248 56.8252 48.9647 55.3386 49.177C54.4813 49.2995 53.7141 49.0187 53.0314 48.4851C52.2514 47.8744 51.69 47.1015 51.4888 46.0778C51.4492 45.879 51.3372 45.7362 51.1607 45.6561C50.8189 45.5008 50.6416 45.2181 50.5745 44.8456C50.5185 44.534 50.4615 44.2213 50.4928 43.901C50.5167 43.653 50.5856 43.4215 50.7638 43.2516C50.8483 43.1716 50.8575 43.0944 50.841 42.9931C50.7225 42.2704 50.5975 41.5467 50.6067 40.8095C50.6085 40.6677 50.524 40.633 50.434 40.5866C49.7494 40.2354 49.0649 39.8842 48.3813 39.5311C48.3042 39.4915 48.2251 39.45 48.159 39.3941C47.9872 39.2474 47.9844 39.039 48.1572 38.8914C48.2398 38.8209 48.3372 38.7669 48.4337 38.7177C50.434 37.6891 52.4351 36.6615 54.4372 35.6359C54.5769 35.5645 54.723 35.5066 54.8663 35.4429H55.1263L55.1254 35.4419ZM64.0609 58.7071C64.2299 58.7071 64.2933 58.682 64.2915 58.4803C64.2814 57.1025 64.2832 55.7246 64.2887 54.3458C64.2906 54.0226 64.1849 53.7611 63.9791 53.5276C63.4489 52.9255 62.7828 52.5338 62.0845 52.2086C60.811 51.6152 59.499 51.1115 58.3063 50.3377C57.9655 50.1168 57.7753 50.1795 57.5915 50.5558C57.1992 51.3624 56.8234 52.1777 56.4274 52.9815C56.137 53.572 55.8513 54.1692 55.3946 54.6449C55.1089 54.9431 54.8874 54.9363 54.5934 54.644C54.2911 54.3439 54.0844 53.9685 53.8804 53.5961C53.342 52.6139 52.9295 51.5641 52.4094 50.5722C52.2008 50.1746 52.0345 50.1187 51.6615 50.3474C50.6857 50.9465 49.6713 51.457 48.6129 51.8815C47.7924 52.2105 47.0068 52.6235 46.3195 53.214C45.9152 53.5614 45.6791 53.9628 45.6947 54.5542C45.7287 55.8558 45.7104 57.1584 45.7002 58.461C45.6984 58.6588 45.7416 58.709 45.9336 58.708C48.9547 58.7003 51.9757 58.7032 54.9968 58.7032C58.0178 58.7032 61.0398 58.7013 64.0609 58.7071ZM71.3158 60.8954H38.6686C38.3746 60.8954 38.1081 61.0208 37.9152 61.2235C37.7222 61.4261 37.6028 61.7059 37.6028 62.0147C37.6028 62.6332 38.0805 63.1339 38.6686 63.1339H39.3908V80H41.4112V77.144H68.5731V80H70.5936V63.1339H71.3158C71.6098 63.1339 71.8763 63.0085 72.0692 62.8059C72.2622 62.6032 72.3816 62.3234 72.3816 62.0147C72.3816 61.3962 71.9047 60.8954 71.3158 60.8954ZM32.5227 30C34.7122 31.0633 36.8613 32.2134 39.0324 33.3163C39.1096 33.3549 39.1859 33.4041 39.2484 33.4629C39.3944 33.6009 39.3917 33.7987 39.2474 33.9377C39.2052 33.9782 39.1574 34.0235 39.105 34.038C38.7761 34.1297 38.7283 34.3641 38.7458 34.6854C38.7724 35.1833 38.754 35.6841 38.7522 36.1839C38.7522 36.2775 38.7697 36.346 38.8422 36.4193C39.0288 36.6065 39.0379 36.8545 38.8726 37.0697C38.8147 37.144 38.8073 37.2028 38.8239 37.2926C38.902 37.7074 38.9617 38.1262 39.0462 38.5401C39.0876 38.7408 39.0232 38.8402 38.8441 38.8846C38.6236 38.9386 38.403 38.955 38.1807 38.902C38.0107 38.8614 37.9464 38.763 37.9822 38.5739C38.064 38.1523 38.1292 37.7267 38.2101 37.3041C38.2285 37.2057 38.2193 37.142 38.1559 37.061C37.9914 36.8477 38.0089 36.6142 38.1991 36.4116C38.2542 36.3528 38.2818 36.3007 38.2808 36.2186C38.2781 35.6513 38.279 35.083 38.279 34.5185C38.2073 34.4751 38.1632 34.534 38.1173 34.5571C37.7213 34.7549 37.329 34.9595 36.9329 35.1563C36.8401 35.2026 36.7832 35.2489 36.7841 35.3715C36.7905 36.1009 36.6711 36.8169 36.5516 37.5328C36.5333 37.6399 36.536 37.7296 36.6297 37.8126C36.7584 37.9274 36.8328 38.0876 36.8631 38.2632C36.955 38.7987 36.8907 39.3159 36.6748 39.8099C36.5994 39.9817 36.4607 40.0975 36.2999 40.1708C36.0527 40.2837 35.9342 40.4786 35.8717 40.7497C35.5189 42.2829 34.2225 43.5228 32.7358 43.735C31.8786 43.8576 31.1114 43.5768 30.4287 43.0432C29.6486 42.4325 29.0872 41.6596 28.886 40.6359C28.8465 40.4371 28.7344 40.2943 28.558 40.2142C28.2162 40.0589 28.0389 39.7761 27.9718 39.4037C27.9157 39.092 27.8588 38.7794 27.89 38.4591C27.9139 38.2111 27.9828 37.9795 28.1611 37.8097C28.2456 37.7296 28.2548 37.6525 28.2382 37.5511C28.1197 36.8284 27.9948 36.1048 28.0039 35.3676C28.0058 35.2258 27.9212 35.191 27.8312 35.1447C27.1467 34.7935 26.4622 34.4423 25.7786 34.0892C25.7014 34.0496 25.6224 34.0081 25.5562 33.9521C25.3844 33.8055 25.3816 33.5971 25.5544 33.4494C25.6371 33.379 25.7345 33.325 25.8309 33.2758C27.8312 32.2472 29.8324 31.2196 31.8345 30.1939C31.9741 30.1225 32.1202 30.0646 32.2635 30.001H32.5236L32.5227 30ZM41.4581 53.2651C41.6272 53.2651 41.6906 53.2401 41.6887 53.0384C41.6786 51.6606 41.6804 50.2827 41.686 48.9039C41.6878 48.5807 41.5821 48.3192 41.3763 48.0857C40.8462 47.4836 40.18 47.0919 39.4817 46.7667C38.2083 46.1733 36.8962 45.6696 35.7036 44.8958C35.3627 44.6748 35.1725 44.7376 34.9887 45.1139C34.5964 45.9205 34.2206 46.7358 33.8246 47.5396C33.5343 48.1301 33.2485 48.7273 32.7919 49.203C32.5061 49.5012 32.2847 49.4944 31.9907 49.202C31.6884 48.902 31.4816 48.5266 31.2777 48.1542C30.7392 47.1719 30.3267 46.1222 29.8066 45.1303C29.5981 44.7327 29.4318 44.6768 29.0587 44.9054C28.083 45.5046 27.0686 46.0151 26.0101 46.4396C25.1896 46.7686 24.404 47.1816 23.7168 47.7721C23.3125 48.1195 23.0764 48.5208 23.092 49.1123C23.126 50.4139 23.1076 51.7165 23.0975 53.0191C23.0956 53.2169 23.1388 53.2671 23.3309 53.2661C26.3519 53.2584 29.373 53.2613 32.394 53.2613C35.4151 53.2613 38.437 53.2594 41.4581 53.2651ZM38.6686 59.4481H44.5866C44.4075 59.1702 44.3193 58.8354 44.322 58.4504L44.3266 57.8435C44.3331 57.0571 44.3404 56.2514 44.3321 55.4535H16.0658C15.7718 55.4535 15.5053 55.5789 15.3124 55.7816C15.1194 55.9842 15 56.264 15 56.5728C15 57.1912 15.4778 57.692 16.0658 57.692H16.788V74.5581H18.8085V71.702H38.0126V64.4876C36.9826 64.1856 36.2245 63.1908 36.2245 62.0147C36.2245 61.3296 36.4791 60.6851 36.9403 60.1997C37.4025 59.7154 38.0162 59.4481 38.6686 59.4481ZM93.9342 55.4535H65.6633C65.6605 56.5708 65.6623 57.5473 65.6688 58.4687C65.6725 58.902 65.5512 59.2213 65.4069 59.4481H71.3158C72.6637 59.4481 73.7598 60.5992 73.7598 62.0147C73.7598 62.6997 73.5053 63.3443 73.0432 63.8296C72.7409 64.147 72.3733 64.3719 71.9718 64.4886V71.702H91.1915V74.5581H93.212V57.692H93.9342C94.2282 57.692 94.4946 57.5666 94.6876 57.364C94.8805 57.1613 95 56.8815 95 56.5728C95 55.9543 94.5231 55.4535 93.9342 55.4535ZM83.0389 49.2358L79.4739 45.4921L83.0389 41.7484C83.2962 41.4782 83.4248 41.1241 83.4248 40.77C83.4248 40.4159 83.2962 40.0618 83.0389 39.7916C82.5244 39.2513 81.6901 39.2513 81.1756 39.7916L77.6106 43.5353L74.0456 39.7916C73.7883 39.5214 73.4511 39.3863 73.1139 39.3863C72.7767 39.3863 72.4395 39.5214 72.1822 39.7916C71.6677 40.3319 71.6677 41.208 72.1822 41.7484L75.7472 45.4921L72.1822 49.2358C71.6677 49.7761 71.6677 50.6523 72.1822 51.1926C72.6968 51.7329 73.531 51.7329 74.0456 51.1926L77.6106 47.4489L81.1756 51.1926C81.6901 51.7329 82.5244 51.7329 83.0389 51.1926C83.5534 50.6523 83.5534 49.7761 83.0389 49.2358Z" fill="#FF3F3F"/>
</svg>
