<svg width="64" height="59" viewBox="0 0 64 59" fill="none" xmlns="http://www.w3.org/2000/svg">
<rect x="0.25" width="63" height="59" rx="8" fill="white"/>
<g clip-path="url(#clip0_12999_106)">
<g clip-path="url(#clip1_12999_106)">
<path d="M30.8998 21C33.2998 21 35.0998 21.3 36.2998 22C37.5998 22.7 38.1998 23.9 38.1998 25.6C38.1998 26.6 37.8998 27.5 37.4998 28.2C37.2731 28.5419 36.9786 28.8337 36.6346 29.0573C36.2906 29.2809 35.9043 29.4316 35.4998 29.5C36.0715 29.6335 36.6138 29.8708 37.0998 30.2C37.4998 30.5 37.8998 31 38.1998 31.5C38.5128 32.2244 38.6498 33.0125 38.5998 33.8C38.6352 34.5225 38.4996 35.2431 38.2043 35.9033C37.9089 36.5636 37.462 37.1449 36.8998 37.6C35.4763 38.6167 33.7456 39.1112 31.9998 39H25.2998V21H30.8998ZM31.2998 28.1C32.3998 28.1 33.1998 28 33.5998 27.6C34.0998 27.3 34.2998 26.7 34.2998 26.1C34.2998 25.4 33.9998 24.9 33.4998 24.6C32.9998 24.3 32.1998 24.1 31.0998 24.1H29.0998V28.1H31.2998ZM29.0998 31.1V36H31.5998C32.6998 36 33.5998 35.7 33.9998 35.3C34.4998 34.8 34.6998 34.3 34.6998 33.5C34.7117 33.1977 34.6549 32.8967 34.5337 32.6196C34.4124 32.3424 34.2299 32.0964 33.9998 31.9C33.4998 31.5 32.6998 31.3 31.4998 31.3H28.9998L29.0998 31.1Z" fill="#FEB019"/>
</g>
</g>
<defs>
<clipPath id="clip0_12999_106">
<rect width="33" height="33" fill="white" transform="translate(15.25 13)"/>
</clipPath>
<clipPath id="clip1_12999_106">
<rect width="33" height="33" fill="white" transform="translate(15.25 13)"/>
</clipPath>
</defs>
</svg>
