<svg width="400" height="253" viewBox="0 0 400 253" fill="none" xmlns="http://www.w3.org/2000/svg">
<path d="M400 252.771C400 252.898 310.447 253 200.008 253C89.528 253 0 252.898 0 252.771C0 252.644 89.528 252.542 200.008 252.542C310.455 252.542 400 252.644 400 252.771Z" fill="#A1A1A1"/>
<path d="M358.749 0L332.181 22.0789L291.771 101.755L316.963 113.116L356.268 34.9752L358.749 0Z" fill="#FF8D29"/>
<g opacity="0.7">
<path d="M356.268 34.9752C354.909 35.1533 353.66 34.2969 353.762 32.9233C352.097 34.8565 349.157 35.5772 346.795 34.6191C344.424 33.6695 342.801 31.1173 342.954 28.5737C340.728 29.7692 337.865 29.6674 335.724 28.3193C333.591 26.9712 332.266 24.436 332.393 21.9178L358.749 0L356.268 34.9752Z" fill="white"/>
</g>
<path d="M348.061 8.87734C348.061 8.87734 348.46 15.4739 357.73 14.3292L358.749 0L348.061 8.87734Z" fill="#FF8D29"/>
<path opacity="0.3" d="M342.946 28.5823L303.989 106.834L291.763 101.755L332.172 22.0791L332.376 21.918C332.376 21.918 332.223 23.3933 332.928 25.0212C333.396 26.1065 334.245 27.3359 335.545 28.2093C337.211 29.337 338.986 29.5574 340.38 29.3878C341.884 29.2013 342.946 28.5823 342.946 28.5823Z" fill="black"/>
<path opacity="0.3" d="M353.762 32.9233L313.735 111.658L316.963 113.116L356.26 34.9752C356.26 34.9752 354.289 35.3144 353.77 33.4321C353.736 33.2879 353.762 33.1099 353.762 32.9233Z" fill="black"/>
<path d="M342.75 20.9769C342.767 20.9853 342.623 21.0701 342.614 21.333C342.606 21.5704 342.793 22.0113 343.294 22.0622C343.77 22.1215 344.382 21.935 344.968 21.5873C345.257 21.4093 345.537 21.1464 345.682 20.7903C345.835 20.4427 345.852 19.9933 345.605 19.6542C345.367 19.3065 344.917 19.1285 344.458 19.0776C343.991 19.0183 343.49 19.0776 342.98 19.1624C341.969 19.3405 340.898 19.705 339.946 20.341C339.488 20.6716 339.071 21.138 339.012 21.7145C338.952 22.2911 339.275 22.8761 339.76 23.2492C340.771 23.9784 342.207 23.9699 343.481 23.7155C346.089 23.1474 348.171 21.0871 348.672 18.8487C348.774 18.2891 348.638 17.721 348.273 17.3225C347.925 16.9155 347.44 16.6611 346.973 16.4746C346.013 16.1185 345.044 15.9574 344.169 15.915C342.41 15.8217 341 16.1948 340.074 16.5255C339.615 16.7035 339.267 16.8562 339.029 16.9749C338.799 17.0936 338.672 17.1444 338.672 17.1444C338.672 17.1444 339.122 16.8307 340.048 16.4576C340.966 16.11 342.385 15.703 344.178 15.7793C345.07 15.8217 346.038 15.9659 347.033 16.3305C347.517 16.5255 348.027 16.7798 348.409 17.2207C348.8 17.6447 348.97 18.2891 348.851 18.8826C348.333 21.2143 346.208 23.317 343.524 23.9021C342.852 24.0547 342.173 24.0886 341.51 24.0377C340.847 23.9784 340.176 23.8088 339.649 23.4018C339.131 23.0033 338.774 22.3589 338.842 21.706C338.91 21.0447 339.377 20.5444 339.853 20.2053C340.847 19.5439 341.935 19.1878 342.963 19.0098C343.481 18.925 343.991 18.8656 344.484 18.9335C344.968 18.9928 345.461 19.1878 345.724 19.5863C345.996 19.9764 345.962 20.4851 345.801 20.8497C345.639 21.2312 345.333 21.5026 345.027 21.6891C344.407 22.0367 343.795 22.2148 343.286 22.1385C342.75 22.0622 342.546 21.5789 342.58 21.333C342.597 21.0532 342.759 20.9769 342.75 20.9769Z" fill="white"/>
<path d="M356.999 20.5016C356.999 20.5271 356.608 20.4423 355.903 20.4677C355.206 20.4931 354.187 20.6966 353.057 21.2308C351.91 21.7565 350.695 22.6298 349.386 23.6727C348.078 24.6902 346.616 25.8857 344.764 26.5301C342.92 27.1745 340.983 27.166 339.36 26.742C337.72 26.3181 336.412 25.4617 335.477 24.6054C334.543 23.7405 333.982 22.8587 333.642 22.2398C333.311 21.6124 333.2 21.2393 333.2 21.2393C333.209 21.2393 333.251 21.3241 333.328 21.4936C333.404 21.6632 333.532 21.9091 333.702 22.2059C334.05 22.8079 334.628 23.6642 335.562 24.5121C336.488 25.343 337.78 26.174 339.394 26.581C340.992 26.9879 342.886 26.9879 344.696 26.3605C346.506 25.7331 347.95 24.546 349.276 23.5455C350.584 22.5111 351.833 21.6378 352.997 21.1206C354.153 20.5949 355.189 20.4084 355.903 20.4084C356.617 20.3829 356.999 20.5016 356.999 20.5016Z" fill="white"/>
<path d="M356.846 28.4889C356.829 28.5398 356.336 27.7513 355.028 27.6156C353.753 27.4884 351.969 27.853 350.074 28.3363C348.171 28.845 346.514 29.5318 345.35 30.0914C344.764 30.3712 344.305 30.6171 343.982 30.7782C343.668 30.9478 343.481 31.041 343.481 31.0326C343.473 31.0241 343.642 30.9054 343.948 30.7188C344.254 30.5323 344.713 30.2695 345.291 29.9727C346.446 29.3792 348.103 28.667 350.023 28.1582C350.983 27.8954 351.91 27.7089 352.759 27.5817C353.609 27.4545 354.391 27.3951 355.045 27.4884C355.699 27.5732 356.192 27.836 356.472 28.0735C356.744 28.3024 356.846 28.4889 356.846 28.4889Z" fill="white"/>
<path d="M345.818 34.0932C345.801 34.0763 346.132 33.788 346.71 33.381C347.287 32.9825 348.137 32.4398 349.225 32.2533C350.312 32.0498 351.349 32.4144 351.876 32.9062C352.148 33.1436 352.317 33.3895 352.402 33.5675C352.496 33.7456 352.513 33.8558 352.504 33.8558C352.47 33.8728 352.326 33.4403 351.782 33.0079C351.255 32.567 350.295 32.2448 349.25 32.4398C348.205 32.6179 347.364 33.1266 346.778 33.4912C346.191 33.8728 345.835 34.1187 345.818 34.0932Z" fill="white"/>
<path d="M357.696 15.7538C357.696 15.7623 357.653 15.7962 357.568 15.8555C357.483 15.9149 357.356 16.0166 357.177 16.1269C357.008 16.2371 356.778 16.3727 356.489 16.4321C356.192 16.4999 355.844 16.4575 355.487 16.3727C354.764 16.2116 353.957 15.8471 353.057 15.5333C352.148 15.2196 351.119 14.9568 350.023 14.7787C347.831 14.4226 345.801 14.4057 344.339 14.3972C343.702 14.3972 343.133 14.3972 342.606 14.3972C342.198 14.3972 341.969 14.3887 341.969 14.3717C341.969 14.3548 342.198 14.3378 342.606 14.3209C343.014 14.3039 343.608 14.2785 344.339 14.2615C345.801 14.2361 347.84 14.2276 350.049 14.5922C351.153 14.7702 352.19 15.0416 353.108 15.3722C354.025 15.7029 354.807 16.0675 355.512 16.2456C356.217 16.483 356.795 16.288 357.135 16.0675C357.492 15.8555 357.687 15.7368 357.696 15.7538Z" fill="white"/>
<path d="M230.12 177.004H157.679C149.395 177.004 142.682 170.306 142.682 162.039V154.027C142.682 145.76 149.395 139.062 157.679 139.062H230.12V177.004Z" fill="#FF8D29"/>
<path d="M363.975 145.37H211.181V139.07H363.975C365.351 139.07 366.464 140.181 366.464 141.554V142.885C366.456 144.259 365.343 145.37 363.975 145.37Z" fill="#FF8D29"/>
<path d="M363.975 177.004H211.181V170.705H363.975C365.351 170.705 366.464 171.815 366.464 173.189V174.52C366.456 175.894 365.343 177.004 363.975 177.004Z" fill="#FF8D29"/>
<path d="M361.825 170.704H228.506C221.496 170.704 215.812 165.032 215.812 158.037C215.812 151.042 221.496 145.37 228.506 145.37H361.825C358.257 153.815 358.257 162.259 361.825 170.704Z" fill="white"/>
<path opacity="0.3" d="M215.812 177.004H157.976C149.531 177.004 142.682 170.17 142.682 161.742V154.205C142.682 145.845 149.48 139.062 157.857 139.062H217.256C203.492 147.388 204.52 167.313 215.812 177.004Z" fill="black"/>
<path d="M345.631 159.216C345.631 159.343 318.263 159.445 284.515 159.445C250.758 159.445 223.399 159.343 223.399 159.216C223.399 159.089 250.758 158.987 284.515 158.987C318.263 158.987 345.631 159.089 345.631 159.216Z" fill="#A1A1A1"/>
<path d="M358.206 164.846C358.206 164.973 330.838 165.075 297.09 165.075C263.333 165.075 235.974 164.973 235.974 164.846C235.974 164.718 263.333 164.617 297.09 164.617C330.847 164.617 358.206 164.718 358.206 164.846Z" fill="#A1A1A1"/>
<path d="M354.501 151.228C354.501 151.356 327.134 151.457 293.385 151.457C259.629 151.457 232.27 151.356 232.27 151.228C232.27 151.101 259.629 151 293.385 151C327.134 151 354.501 151.101 354.501 151.228Z" fill="#A1A1A1"/>
<path d="M209.117 174.351C209.117 174.478 196.304 174.579 180.509 174.579C164.705 174.579 151.901 174.478 151.901 174.351C151.901 174.223 164.705 174.122 180.509 174.122C196.304 174.122 209.117 174.223 209.117 174.351Z" fill="#A1A1A1"/>
<path d="M209.117 142.216C209.117 142.343 196.304 142.445 180.509 142.445C164.705 142.445 151.901 142.343 151.901 142.216C151.901 142.089 164.705 141.987 180.509 141.987C196.304 141.995 209.117 142.097 209.117 142.216Z" fill="#A1A1A1"/>
<path d="M223.306 252.491H125.689C117.405 252.491 110.693 245.793 110.693 237.526V218.593C110.693 210.326 117.405 203.628 125.689 203.628H223.297V252.491H223.306Z" fill="#FF8D29"/>
<path d="M396.406 211.742H198.912V203.628H396.397C397.774 203.628 398.887 204.739 398.887 206.112V209.258C398.887 210.631 397.774 211.742 396.406 211.742Z" fill="#FF8D29"/>
<path d="M396.406 252.492H198.912V244.377H396.397C397.774 244.377 398.887 245.488 398.887 246.862V250.007C398.887 251.381 397.774 252.492 396.406 252.492Z" fill="#FF8D29"/>
<path d="M392.922 244.377H221.224C212.192 244.377 204.877 237.068 204.877 228.064C204.877 219.051 212.201 211.75 221.224 211.75H392.922C388.326 222.62 388.326 233.499 392.922 244.377Z" fill="white"/>
<path opacity="0.3" d="M204.877 252.491H125.494C117.32 252.491 110.693 245.878 110.693 237.721V218.924C110.693 210.479 117.55 203.628 126.021 203.628H206.738C189.014 214.354 190.339 240.011 204.877 252.491Z" fill="black"/>
<path d="M372.063 229.581C372.063 229.709 336.82 229.81 293.36 229.81C249.883 229.81 214.648 229.709 214.648 229.581C214.648 229.454 249.883 229.353 293.36 229.353C336.82 229.353 372.063 229.454 372.063 229.581Z" fill="#A1A1A1"/>
<path d="M388.266 236.831C388.266 236.958 353.023 237.06 309.563 237.06C266.086 237.06 230.851 236.958 230.851 236.831C230.851 236.704 266.086 236.602 309.563 236.602C353.023 236.602 388.266 236.704 388.266 236.831Z" fill="#A1A1A1"/>
<path d="M383.491 222.85C383.491 222.977 348.248 223.078 304.788 223.078C261.311 223.078 226.076 222.977 226.076 222.85C226.076 222.722 261.311 222.621 304.788 222.621C348.248 222.621 383.491 222.722 383.491 222.85Z" fill="#A1A1A1"/>
<path d="M196.262 249.066C196.262 249.193 179.761 249.295 159.421 249.295C139.071 249.295 122.58 249.193 122.58 249.066C122.58 248.939 139.071 248.837 159.421 248.837C179.761 248.837 196.262 248.939 196.262 249.066Z" fill="#A1A1A1"/>
<path d="M196.262 207.689C196.262 207.817 179.761 207.918 159.421 207.918C139.071 207.918 122.58 207.817 122.58 207.689C122.58 207.562 139.071 207.46 159.421 207.46C179.761 207.46 196.262 207.562 196.262 207.689Z" fill="#A1A1A1"/>
<path d="M252.543 203.814H172.114C166.005 203.814 161.06 198.871 161.06 192.783V186.874C161.06 180.777 166.014 175.843 172.114 175.843H252.543V203.814Z" fill="#334756"/>
<path d="M392.599 182.431H232.729V175.843H392.599C394.035 175.843 395.208 177.004 395.208 178.446V179.836C395.208 181.269 394.035 182.431 392.599 182.431Z" fill="#334756"/>
<path d="M392.599 203.815H232.729V197.227H392.599C394.035 197.227 395.208 198.388 395.208 199.83V201.22C395.208 202.653 394.035 203.815 392.599 203.815Z" fill="#334756"/>
<path d="M390.356 197.227H244.981C240.885 197.227 237.572 193.911 237.572 189.833C237.572 185.746 240.894 182.439 244.981 182.439H390.356C386.618 187.366 386.618 192.292 390.356 197.227Z" fill="white"/>
<path opacity="0.3" d="M237.572 203.814H172.182C166.039 203.814 161.052 198.846 161.052 192.707V187.17C161.052 180.913 166.133 175.843 172.403 175.843H239.084C224.691 181.973 225.761 196.667 237.572 203.814Z" fill="black"/>
<path d="M373.414 188.663C373.414 188.79 344.781 188.891 309.469 188.891C274.141 188.891 245.516 188.79 245.516 188.663C245.516 188.535 274.141 188.434 309.469 188.434C344.781 188.434 373.414 188.535 373.414 188.663Z" fill="#A1A1A1"/>
<path d="M386.567 192.648C386.567 192.775 357.934 192.877 322.622 192.877C287.293 192.877 258.669 192.775 258.669 192.648C258.669 192.521 287.293 192.419 322.622 192.419C357.942 192.419 386.567 192.521 386.567 192.648Z" fill="#A1A1A1"/>
<path d="M230.571 201.033C230.571 201.16 217.171 201.262 200.637 201.262C184.103 201.262 170.704 201.16 170.704 201.033C170.704 200.906 184.103 200.804 200.637 200.804C217.171 200.804 230.571 200.906 230.571 201.033Z" fill="#A1A1A1"/>
<path d="M230.571 179.132C230.571 179.259 217.171 179.361 200.637 179.361C184.103 179.361 170.704 179.259 170.704 179.132C170.704 179.005 184.103 178.903 200.637 178.903C217.171 178.912 230.571 179.014 230.571 179.132Z" fill="#A1A1A1"/>
<path d="M393.296 175.843C393.296 175.97 344.127 176.072 283.495 176.072C222.839 176.072 173.686 175.97 173.686 175.843C173.686 175.716 222.839 175.614 283.495 175.614C344.135 175.614 393.296 175.716 393.296 175.843Z" fill="#263238"/>
<path d="M305.128 150.813V166.007L310.404 162.624L316.292 166.007V150.813H305.128Z" fill="#FF8D29"/>
<path d="M385.853 87.7558C385.853 105.773 385.853 123.782 385.853 141.8C385.853 146.938 385.853 152.076 385.853 157.206C385.853 157.91 386.941 157.91 386.941 157.206C386.941 139.188 386.941 121.179 386.941 103.162C386.941 98.0237 386.941 92.8855 386.941 87.7558C386.949 87.0521 385.853 87.0521 385.853 87.7558Z" fill="#FF8D29"/>
<path d="M390.339 141.902C390.339 144.064 388.581 145.819 386.414 145.819C384.247 145.819 382.489 144.064 382.489 141.902C382.489 139.739 384.247 137.984 386.414 137.984C388.589 137.984 390.339 139.739 390.339 141.902Z" fill="#FF8D29"/>
<path d="M385.309 143.928C385.309 143.928 382.455 146.777 381.596 155.146C380.738 163.514 380.551 167.694 380.551 167.694L388.266 168.169C388.266 168.169 388.266 161.895 388.266 162.175C388.266 162.463 389.787 166.643 389.787 166.643L395.888 164.642C395.888 164.659 393.696 142.411 385.309 143.928Z" fill="#FF8D29"/>
<path d="M345.18 93.437H214.164V140.571H345.18V93.437Z" fill="#334756"/>
<path d="M391.198 85.3228H167.102V93.437H391.198V85.3228Z" fill="#334756"/>
<path opacity="0.3" d="M214.164 127.2C214.164 127.2 253.97 112.947 279.672 107.69C305.374 102.425 345.18 104.18 345.18 104.18V93.437H214.164V127.2Z" fill="black"/>
<path opacity="0.3" d="M248.159 85.3228H167.102V93.437H248.159V85.3228Z" fill="black"/>
<path d="M389.575 93.4369C389.575 93.5641 339.743 93.6659 278.296 93.6659C216.823 93.6659 166.999 93.5641 166.999 93.4369C166.999 93.3098 216.815 93.208 278.296 93.208C339.751 93.208 389.575 93.3098 389.575 93.4369Z" fill="#A1A1A1"/>
<path d="M248.031 93.5046C247.903 93.5046 247.802 91.6562 247.802 89.3839C247.802 87.1031 247.903 85.2632 248.031 85.2632C248.158 85.2632 248.26 87.1116 248.26 89.3839C248.26 91.6562 248.158 93.5046 248.031 93.5046Z" fill="#A1A1A1"/>
<path d="M266.723 140.571C266.596 140.571 266.494 131.371 266.494 120.035C266.494 108.69 266.596 99.4907 266.723 99.4907C266.851 99.4907 266.953 108.682 266.953 120.035C266.944 131.38 266.842 140.571 266.723 140.571Z" fill="#A1A1A1"/>
<path d="M77.1825 198.464L92.2469 192.401L103.751 162.403L119.087 170.289C119.087 170.289 117.601 173.248 114.431 180.582C113.208 183.414 109.155 191.299 107.498 195.14C104.38 202.39 97.3363 207.18 89.426 207.392L75.2878 207.757L77.1825 198.464Z" fill="#FFBF9D"/>
<path d="M69.6971 192.656L67.42 190.265C66.9782 189.985 66.4684 189.841 65.9501 189.858L58.7365 190.078C57.3771 190.214 56.1536 190.952 55.3974 192.096L52.772 196.548C52.772 196.548 51.0132 199.591 51.2341 200.338C51.574 201.457 52.755 201.228 52.755 201.228C52.755 201.228 53.0014 202.635 53.4772 202.924C54.2674 203.398 55.2275 203.034 55.2275 203.034C55.4909 203.577 56.0431 203.933 56.6464 203.89C56.7653 203.882 56.8928 203.856 57.0202 203.822C57.8784 203.56 58.2607 201.906 58.2607 201.906L61.9143 201.228C61.9143 201.228 67.1651 204.73 69.0174 207.027C70.8696 209.325 75.7126 207.57 75.7126 207.57L77.5224 198.922L69.6971 192.656Z" fill="#FFBF9D"/>
<path d="M64.3867 193.69C64.3952 193.741 63.809 193.851 62.8064 193.953C61.8123 194.063 60.4019 194.106 58.8215 194.309L58.9914 194.182C58.7365 194.742 58.4137 195.327 58.0568 195.903C56.9353 197.692 55.6183 199.083 54.5902 199.998C53.5537 200.906 52.8145 201.33 52.7805 201.287C52.738 201.228 53.4092 200.719 54.3693 199.761C55.3209 198.803 56.5784 197.404 57.666 195.666C58.0228 195.106 58.3287 194.538 58.5921 194.004L58.6431 193.894L58.762 193.877C60.3934 193.69 61.7868 193.716 62.7809 193.682C63.7835 193.648 64.3782 193.631 64.3867 193.69Z" fill="#FF9A6C"/>
<path d="M64.5482 197.115C64.5567 197.158 64.0639 197.353 63.1888 197.48C62.3221 197.607 61.0646 197.65 59.6627 197.361L59.9176 197.217C59.7731 197.641 59.6032 198.082 59.3908 198.523C58.6261 200.117 57.5555 201.338 56.6804 202.076C55.8053 202.822 55.1595 203.135 55.134 203.085C55.0916 203.025 55.6693 202.618 56.4595 201.838C57.2582 201.058 58.2438 199.854 58.9745 198.328C59.1784 197.904 59.3483 197.489 59.4928 197.082L59.5607 196.895L59.7477 196.937C62.4581 197.522 64.5397 196.988 64.5482 197.115Z" fill="#FF9A6C"/>
<path d="M73.7074 198.896C71.5663 197.904 69.4167 196.904 67.2756 195.911C66.3834 195.496 65.4573 195.081 64.4717 195.081C63.4181 195.089 62.4325 195.581 61.4894 196.064C60.3339 196.658 59.1868 197.26 58.0313 197.853C57.8444 197.946 57.6405 198.065 57.5725 198.269C57.4875 198.531 57.6745 198.803 57.8699 198.998C59.5947 200.744 62.7044 200.872 64.5652 199.269C65.1174 200.778 65.6952 202.313 66.7318 203.542C67.7684 204.772 69.3827 205.637 70.9715 205.348" fill="#FFBF9D"/>
<path d="M70.9801 205.34C70.9801 205.349 70.9206 205.374 70.8101 205.4C70.6912 205.425 70.5212 205.45 70.2833 205.459C69.8245 205.467 69.1193 205.383 68.3461 204.993C67.5729 204.611 66.7318 203.916 66.0691 202.924C65.3893 201.932 64.888 200.685 64.3867 199.346L64.7096 199.43C63.758 200.261 62.3816 200.711 60.9626 200.601C60.2574 200.55 59.5352 200.363 58.8725 200.016C58.5496 199.837 58.2267 199.634 57.9464 199.371C57.8104 199.244 57.6575 199.125 57.53 198.947C57.4111 198.786 57.2751 198.54 57.3431 198.252C57.4026 198.015 57.581 197.862 57.7255 197.769C57.8784 197.675 58.0058 197.616 58.1418 197.54C58.4137 197.404 58.6771 197.26 58.9405 197.124C59.4672 196.853 59.994 196.582 60.5123 196.319C61.5404 195.81 62.5175 195.216 63.6136 194.971C64.7266 194.699 65.8057 195.047 66.6638 195.428C67.5305 195.827 68.3206 196.209 69.0428 196.556C70.4363 197.234 71.5833 197.794 72.4669 198.226C73.2741 198.633 73.7074 198.862 73.6989 198.896C73.6819 198.922 73.2231 198.744 72.399 198.388C71.5068 197.989 70.3343 197.472 68.9154 196.853C68.1762 196.522 67.3775 196.166 66.5194 195.785C65.6697 195.42 64.7011 195.132 63.707 195.386C62.7129 195.615 61.7528 196.2 60.7247 196.717C60.2149 196.98 59.6882 197.251 59.1614 197.531C58.898 197.667 58.6261 197.811 58.3627 197.947C58.0908 198.082 57.8019 198.218 57.7934 198.362C57.7424 198.532 57.9888 198.82 58.2522 199.032C58.5071 199.261 58.796 199.447 59.0934 199.617C59.6967 199.931 60.3509 200.109 61.0051 200.16C62.3051 200.27 63.5796 199.871 64.4547 199.125L64.6756 198.93L64.7776 199.202C65.2619 200.55 65.7292 201.771 66.3579 202.737C66.9782 203.712 67.7429 204.382 68.4736 204.781C69.9435 205.586 70.997 205.264 70.9801 205.34Z" fill="#FF9A6C"/>
<path d="M157.347 114.88C157.407 110.064 158.163 105.265 157.985 100.449C157.798 95.6327 156.532 90.6217 153.167 87.1708C149.802 83.7199 143.957 82.3972 140.023 85.1868L139.216 89.2821C140.762 107.851 140.558 126.725 142.105 145.293C142.308 147.735 144.288 149.94 145.401 152.119C146.514 154.298 148.74 156.104 151.196 155.951C154.399 155.756 156.498 152.517 157.5 149.473C161.103 138.442 157.211 126.496 157.347 114.88Z" fill="#212121"/>
<path d="M145.741 89.9179C145.036 88.7308 144.322 87.5184 143.286 86.6027C142.257 85.6785 140.847 85.0765 139.488 85.3393C138.85 85.458 138.196 85.8226 137.984 86.4331C137.771 87.0436 138.23 87.866 138.876 87.8151L139.012 87.9338C140.456 89.2057 141.926 90.4521 143.422 91.673C143.795 91.9782 144.186 92.292 144.654 92.4361C145.121 92.5802 145.682 92.5124 146.004 92.1478C146.54 91.5373 146.149 90.6047 145.741 89.9179Z" fill="#FF8D29"/>
<path d="M148.468 94.6409C143.659 88.7735 137.202 85.3989 129.606 85.2717C125.324 85.2039 123.548 86.0857 120.464 86.9166C117.38 87.7476 114.593 89.4009 112.758 92.0039C110.574 95.0987 108.739 98.5666 108.322 102.331C107.898 106.198 107.473 110.089 107.762 113.973C108.05 117.856 109.113 121.756 111.398 124.91L121.288 126.623C126.751 126.81 132.291 126.988 137.61 125.741C142.929 124.495 148.103 121.637 150.958 116.983C154.926 110.53 153.278 100.508 148.468 94.6409Z" fill="#212121"/>
<path d="M139.666 94.5815L126.479 89.3501L123.038 89.7486C115.29 89.774 109.937 98.3038 109.886 104.57C109.826 111.531 110.039 120.035 111.143 125.165C113.369 135.483 122.197 136.34 122.197 136.34C122.197 136.34 122.019 141.834 121.951 145.302L142.139 143.844L143.15 98.1087C143.082 96.2095 141.569 94.6748 139.666 94.5815Z" fill="#FFBF9D"/>
<path d="M126.649 122.748C126.581 122.205 126.276 121.722 125.885 121.391C125.112 120.73 123.981 120.671 123.157 121.239C122.333 121.807 121.857 122.977 122.01 124.062C122.478 124.698 123.183 125.131 123.973 125.198C124.092 125.207 124.219 125.215 124.338 125.207C124.933 125.19 125.545 124.986 125.995 124.554C126.454 124.113 126.734 123.418 126.649 122.748Z" fill="#FF9A6C"/>
<path d="M113.378 113.379C113.395 114.083 114.007 114.659 114.746 114.659C115.485 114.659 116.071 114.083 116.054 113.379C116.037 112.675 115.425 112.099 114.695 112.099C113.947 112.099 113.361 112.675 113.378 113.379Z" fill="#263238"/>
<path d="M112.248 108.054C112.426 108.215 113.395 107.418 114.839 107.342C116.275 107.249 117.371 107.927 117.516 107.74C117.592 107.656 117.405 107.35 116.921 107.045C116.454 106.74 115.663 106.46 114.763 106.511C113.871 106.562 113.131 106.935 112.715 107.299C112.29 107.656 112.163 107.978 112.248 108.054Z" fill="#263238"/>
<path d="M121.492 119.314C121.492 119.229 120.591 119.128 119.13 119.017C118.765 119.001 118.408 118.95 118.331 118.695C118.229 118.432 118.365 118.034 118.518 117.593C118.816 116.686 119.121 115.736 119.453 114.744C120.744 110.683 121.653 107.359 121.492 107.308C121.331 107.257 120.15 110.505 118.858 114.566C118.552 115.567 118.255 116.516 117.974 117.432C117.855 117.856 117.643 118.339 117.864 118.882C117.974 119.153 118.255 119.331 118.501 119.382C118.739 119.441 118.951 119.433 119.13 119.433C120.591 119.441 121.492 119.399 121.492 119.314Z" fill="#263238"/>
<path d="M122.172 136.331C122.172 136.331 129.215 136.399 135.936 131.846C135.936 131.846 132.614 139.265 122.121 138.858L122.172 136.331Z" fill="#FF9A6C"/>
<path d="M125.783 120.077C125.545 120.077 125.63 121.637 124.355 122.816C123.081 124.003 121.407 123.918 121.407 124.13C121.39 124.232 121.798 124.41 122.495 124.393C123.183 124.376 124.177 124.105 124.959 123.384C125.74 122.663 126.038 121.739 126.055 121.095C126.089 120.442 125.893 120.06 125.783 120.077Z" fill="#263238"/>
<path d="M112.732 103.018C112.995 103.357 114.083 103.06 115.374 103.094C116.666 103.086 117.753 103.408 118.017 103.077C118.136 102.916 117.974 102.586 117.507 102.255C117.048 101.924 116.267 101.644 115.383 101.636C114.491 101.627 113.709 101.89 113.25 102.204C112.783 102.526 112.622 102.857 112.732 103.018Z" fill="#263238"/>
<path d="M129.088 113.014C129.122 113.718 128.561 114.337 127.822 114.388C127.083 114.439 126.454 113.913 126.42 113.21C126.386 112.506 126.947 111.887 127.686 111.836C128.417 111.785 129.045 112.311 129.088 113.014Z" fill="#263238"/>
<path d="M131.722 107.494C131.56 107.673 130.532 106.943 129.088 106.969C127.652 106.977 126.607 107.732 126.445 107.562C126.369 107.486 126.53 107.172 126.989 106.825C127.44 106.485 128.204 106.146 129.105 106.138C130.006 106.129 130.762 106.443 131.204 106.774C131.645 107.104 131.807 107.418 131.722 107.494Z" fill="#263238"/>
<path d="M130.855 102.891C130.575 103.221 129.462 102.899 128.119 102.907C126.785 102.874 125.655 103.17 125.383 102.831C125.264 102.67 125.443 102.339 125.927 102.017C126.411 101.703 127.219 101.432 128.136 101.441C129.054 101.449 129.853 101.729 130.328 102.06C130.821 102.399 130.983 102.729 130.855 102.891Z" fill="#263238"/>
<path d="M141.357 115.6C141.314 114.829 142.113 112.946 142.878 112.785C144.908 112.353 148.613 112.319 148.927 117.508C149.361 124.605 142.139 123.579 142.113 123.375C142.096 123.214 141.501 118.28 141.357 115.6Z" fill="#FFBF9D"/>
<path d="M143.914 120.662C143.948 120.637 144.042 120.738 144.254 120.823C144.467 120.9 144.823 120.95 145.18 120.789C145.911 120.467 146.472 119.238 146.429 117.957C146.404 117.313 146.234 116.703 145.971 116.211C145.724 115.702 145.359 115.363 144.976 115.32C144.594 115.253 144.339 115.499 144.263 115.702C144.178 115.906 144.237 116.05 144.195 116.058C144.178 116.075 144.033 115.948 144.076 115.651C144.093 115.507 144.169 115.337 144.331 115.193C144.492 115.041 144.739 114.956 145.002 114.973C145.554 114.981 146.072 115.448 146.361 115.99C146.676 116.533 146.888 117.211 146.914 117.94C146.956 119.373 146.302 120.755 145.299 121.112C144.806 121.273 144.382 121.145 144.152 120.993C143.94 120.832 143.889 120.679 143.914 120.662Z" fill="#FF9A6C"/>
<path d="M143.167 112.811L141.357 114.676C133.557 107.223 118.314 88.5697 119.164 89.6889C119.164 89.6889 124.508 87.4928 130.303 88.4849C136.106 89.4684 147.101 92.3682 146.931 99.1936C146.778 106.011 143.167 112.811 143.167 112.811Z" fill="#212121"/>
<path d="M153.498 111.242C153.507 111.242 153.473 111.098 153.388 110.835C153.303 110.572 153.15 110.191 152.904 109.716C152.411 108.783 151.468 107.52 149.93 106.384C148.426 105.214 146.327 104.264 143.948 103.509C141.569 102.738 138.893 102.136 136.259 101.008C133.608 99.9229 131.246 98.5239 129.232 97.0825C127.227 95.6241 125.57 94.1149 124.279 92.7582C122.987 91.4016 122.044 90.1976 121.415 89.3667C121.127 88.9682 120.889 88.646 120.702 88.3916C120.54 88.1712 120.447 88.0525 120.438 88.061C120.43 88.0695 120.498 88.1966 120.642 88.434C120.787 88.6715 120.999 89.0191 121.305 89.4515C121.908 90.3163 122.817 91.5458 124.1 92.9363C125.375 94.3268 127.032 95.87 129.045 97.3538C131.068 98.8206 133.447 100.245 136.123 101.347C138.791 102.492 141.484 103.085 143.855 103.832C146.225 104.561 148.282 105.468 149.785 106.587C151.306 107.681 152.258 108.885 152.785 109.784C153.303 110.691 153.456 111.259 153.498 111.242Z" fill="#A1A1A1"/>
<path d="M151.425 112.361C151.425 112.361 151.493 111.776 151.153 110.81C150.822 109.852 149.981 108.537 148.485 107.469C146.999 106.367 144.883 105.68 142.555 105.146C140.218 104.629 137.678 103.976 135.18 102.814C132.69 101.661 130.456 100.27 128.612 98.7697C126.76 97.2774 125.264 95.7342 124.109 94.3522C122.945 92.9786 122.155 91.7407 121.594 90.9098C121.348 90.5028 121.152 90.1806 120.991 89.9178C120.846 89.6888 120.77 89.5786 120.761 89.5786C120.753 89.5871 120.812 89.7143 120.931 89.9517C121.076 90.223 121.254 90.5622 121.475 90.9861C122.002 91.8509 122.758 93.1143 123.905 94.5218C125.044 95.9377 126.539 97.5148 128.4 99.041C130.252 100.576 132.512 101.992 135.027 103.162C137.55 104.332 140.142 104.993 142.47 105.493C144.798 106.002 146.871 106.647 148.333 107.698C149.811 108.715 150.661 109.953 151.017 110.877C151.4 111.785 151.383 112.37 151.425 112.361Z" fill="#A1A1A1"/>
<path d="M142.929 124.817C142.92 124.766 143.532 124.69 144.586 124.418C145.631 124.13 147.109 123.486 148.562 122.197C150.032 120.925 151.332 118.949 152.258 116.558C153.176 114.159 153.728 111.344 153.796 108.376C153.83 106.893 153.711 105.451 153.456 104.078C153.176 102.704 152.768 101.424 152.275 100.237C151.255 97.871 149.904 95.9548 148.596 94.5134C145.954 91.6221 143.744 90.4605 143.821 90.3588C143.829 90.3418 143.965 90.4181 144.212 90.5623C144.458 90.7149 144.84 90.9184 145.282 91.2406C146.191 91.8595 147.466 92.8431 148.834 94.2845C150.202 95.7174 151.612 97.6506 152.666 100.059C153.176 101.271 153.609 102.585 153.898 103.984C154.17 105.392 154.289 106.876 154.263 108.385C154.187 111.403 153.617 114.269 152.657 116.711C151.697 119.153 150.321 121.171 148.774 122.443C147.253 123.74 145.699 124.35 144.628 124.588C144.093 124.732 143.651 124.74 143.371 124.791C143.082 124.825 142.937 124.834 142.929 124.817Z" fill="#A1A1A1"/>
<path d="M151.978 212.09L109.937 218.186C94.1416 222.646 77.5054 223.952 60.113 222.443L123.387 251.898L148.791 252.288C148.791 252.288 156.523 252.313 157.874 245.556C159.251 238.696 160.729 218.313 160.729 218.313C160.729 218.313 155.708 213.964 151.978 212.09Z" fill="#212121"/>
<g opacity="0.3">
<path d="M151.859 229.751C152.547 233.948 152.802 238.213 152.598 242.461C155.198 239.663 156.387 235.618 155.716 231.862C155.342 229.785 154.484 227.513 155.572 225.707C156.302 224.494 158.231 223.104 157.951 221.722C157.951 221.722 156.26 221.722 154.73 221.662C153.498 221.611 150.941 221.535 150.941 221.535C152.232 224.859 152.13 226.902 151.621 229.87" fill="black"/>
</g>
<path d="M122.01 143.564L142.436 141.368L146.174 144.759L131.594 153.314L125.162 156.638L118.807 154.713L116.793 150.94L122.01 143.564Z" fill="#FFBF9D"/>
<path d="M94.473 168.39C94.473 168.39 100.879 156.129 102.46 153.45C105.162 148.88 110.209 146.294 110.209 146.294L122.01 143.572C122.01 143.572 120.787 149.473 128.128 149.88C137.465 150.398 143.269 141.461 143.269 141.461C143.269 141.461 153.923 142.555 156.872 143.793C159.811 145.031 168.138 148.498 169.361 159.546L172.216 177.581L149.7 179.294L150.015 203.297L140.448 211.106C140.448 211.106 112.97 220.543 111.22 221.17C110.387 221.467 110.591 209.809 108.628 199.829L104.924 190.842C103.437 187.247 102.519 183.431 102.298 179.548C102.154 176.996 102.222 175.054 102.222 175.054C102.222 175.054 96.4442 173.07 94.473 168.39Z" fill="#334756"/>
<path d="M112.214 211.734L149.964 200.423L149.7 179.285L168.928 177.827C168.928 177.827 167.39 188.781 167.169 194.394C166.847 202.475 162.955 213.76 160.347 216.159C157.738 218.559 111.22 221.162 111.22 221.162L112.214 211.734Z" fill="#FFBF9D"/>
<path d="M90.811 218.381C91.1253 218.898 91.7116 219.203 92.3064 219.102C92.4253 219.085 92.5443 219.051 92.6717 219C93.4959 218.661 93.2835 216.94 93.2835 216.94L97.3023 215.964C97.3023 215.964 102.859 218.958 104.915 221.069C106.971 223.18 111.636 220.984 111.636 220.984L112.63 212.2L104.618 206.019C104.618 206.019 105.111 206.383 104.49 205.162C103.879 203.941 101.559 204.594 101.559 204.594C101.143 204.001 99.5879 203.891 99.5879 203.891L93.0796 205.154C91.7371 205.417 90.5901 206.265 89.9443 207.469L87.5058 212.073C87.5058 212.073 86.2823 215.346 86.5797 216.066C87.0215 217.143 88.177 216.812 88.177 216.812C88.177 216.812 88.6614 218.864 89.2136 218.898C89.7659 218.924 90.811 218.381 90.811 218.381Z" fill="#FFBF9D"/>
<path d="M104.303 211.081C104.303 211.149 103.42 211.14 102.026 211.31C100.633 211.488 98.7128 211.878 96.7416 212.726C95.756 213.141 94.8553 213.624 94.0652 214.116C93.309 214.625 92.5103 215.057 92.2979 215.651C92.1959 215.939 92.2724 216.227 92.4338 216.422C92.5868 216.626 92.7907 216.745 92.9606 216.804C93.3175 216.923 93.5299 216.804 93.5469 216.846C93.5639 216.855 93.3599 217.041 92.9266 216.965C92.7142 216.923 92.4678 216.804 92.2554 216.575C92.043 216.355 91.8985 215.956 92.0175 215.558C92.1279 215.168 92.4338 214.845 92.7652 214.574C93.105 214.311 93.4619 214.048 93.8612 213.785C94.6514 213.26 95.569 212.76 96.5801 212.336C98.5938 211.471 100.574 211.115 102.001 211.013C103.428 210.92 104.312 211.038 104.303 211.081Z" fill="#FF9A6C"/>
<path d="M105.094 215.227C105.094 215.354 102.417 215.447 99.1461 215.897C95.8749 216.329 93.2665 216.948 93.2325 216.829C93.2155 216.778 93.8527 216.549 94.9148 216.287C95.9684 216.015 97.4468 215.71 99.0951 215.49C100.743 215.269 102.247 215.176 103.335 215.159C104.414 215.125 105.094 215.176 105.094 215.227Z" fill="#FF9A6C"/>
<path d="M90.828 218.211C90.8025 218.211 90.76 217.974 90.692 217.516C90.6326 217.067 90.5476 216.414 90.5391 215.6C90.5391 215.193 90.5476 214.743 90.6156 214.26C90.6835 213.777 90.8705 213.251 91.1508 212.785C91.6776 211.844 92.4253 210.852 93.4194 210.08C94.405 209.317 95.4076 208.656 96.4357 208.249C97.4553 207.85 98.4324 207.698 99.2396 207.596C100.047 207.503 100.709 207.469 101.16 207.452C101.61 207.435 101.865 207.443 101.865 207.469C101.873 207.536 100.871 207.647 99.282 207.884C98.4919 208.02 97.5487 208.198 96.5801 208.596C95.62 208.986 94.6344 209.648 93.6828 210.394C92.7227 211.148 92.026 212.056 91.4907 212.971C90.9214 213.845 90.879 214.803 90.8365 215.6C90.8025 217.202 90.9214 218.211 90.828 218.211Z" fill="#FF9A6C"/>
<path d="M99.401 205.586C99.4095 205.646 98.4239 205.747 96.869 206.053C95.3736 206.4 92.9691 206.697 91.7456 208.884C90.4031 210.894 89.2731 212.776 88.8313 214.285C88.3555 215.786 88.4829 216.787 88.3979 216.787C88.3725 216.787 88.3215 216.541 88.3045 216.091C88.2875 215.642 88.33 214.981 88.5424 214.201C88.9247 212.615 90.0463 210.665 91.3972 208.647C91.7456 208.138 92.1194 207.655 92.5782 207.256C93.0286 206.858 93.5723 206.604 94.0651 206.409C95.0762 206.036 96.0278 205.874 96.818 205.756C98.3984 205.527 99.3925 205.535 99.401 205.586Z" fill="#FF9A6C"/>
<path d="M103.369 219.788C103.36 219.797 103.216 219.704 102.953 219.517C102.655 219.314 102.264 219.051 101.788 218.72C100.76 218.05 99.231 217.092 97.2428 216.083L97.3363 216.092C96.1383 216.388 94.7873 216.728 93.3259 217.101L93.4534 216.923C93.4874 217.253 93.4959 217.576 93.4534 217.923C93.4109 218.262 93.3344 218.627 93.0711 218.932C92.9351 219.085 92.7227 219.186 92.5528 219.22C92.3743 219.28 92.1789 219.314 91.9835 219.297C91.5927 219.271 91.2103 219.093 90.9299 218.813C90.8619 218.746 90.794 218.669 90.7345 218.584L90.692 218.525L90.675 218.491L90.6665 218.474C90.6156 218.457 91.1338 218.601 90.9129 218.542H90.9044L90.777 218.601C90.6071 218.686 90.4371 218.754 90.2672 218.83C90.0888 218.898 89.9103 218.966 89.7234 219.008C89.63 219.034 89.528 219.051 89.426 219.068C89.3241 219.076 89.2051 219.093 89.0437 219.025C88.8058 218.881 88.7038 218.695 88.6019 218.517C88.5084 218.339 88.4234 218.161 88.3555 217.974C88.211 217.609 88.1006 217.236 88.0071 216.846L88.2535 216.99C87.7352 217.126 87.098 217.041 86.6986 216.592C86.5202 216.38 86.3588 216.117 86.3588 215.795C86.3503 215.507 86.3928 215.252 86.4437 214.998C86.6477 213.981 86.979 212.997 87.3359 211.988L87.3444 211.979L87.3529 211.963C87.7692 211.182 88.211 210.352 88.6528 209.504C88.9332 208.978 89.2051 208.461 89.477 207.944C89.7489 207.443 89.9868 206.892 90.3946 206.426C90.7855 205.968 91.2613 205.595 91.7966 205.332C92.3234 205.061 92.9181 204.951 93.4449 204.857C95.603 204.442 97.6592 204.052 99.5879 203.687L99.6134 203.679H99.6389C100.021 203.713 100.387 203.772 100.743 203.882C101.092 203.992 101.466 204.12 101.738 204.467L101.508 204.416C102.179 204.077 102.987 204.009 103.624 204.374C104.269 204.73 104.601 205.358 104.796 205.951L104.737 205.866C107.039 207.63 108.917 209.071 110.26 210.097C110.88 210.58 111.373 210.971 111.746 211.267C112.086 211.539 112.256 211.691 112.248 211.7C112.239 211.708 112.044 211.589 111.695 211.335C111.305 211.055 110.795 210.691 110.158 210.233C108.798 209.232 106.886 207.825 104.55 206.112L104.516 206.087L104.499 206.036C104.32 205.51 103.998 204.942 103.471 204.662C102.953 204.374 102.247 204.433 101.687 204.722L101.551 204.789L101.457 204.662C101.296 204.45 100.973 204.315 100.65 204.221C100.327 204.128 99.9702 204.069 99.6219 204.043H99.6729C97.7526 204.425 95.6965 204.823 93.5384 205.247C92.9861 205.349 92.4763 205.442 91.992 205.697C91.5162 205.934 91.0829 206.273 90.726 206.689C90.3692 207.096 90.1397 207.613 89.8594 208.13C89.5875 208.647 89.3156 209.165 89.0352 209.69C88.5934 210.53 88.1516 211.361 87.7352 212.149L87.7437 212.124C87.3869 213.107 87.064 214.091 86.8601 215.057C86.8176 215.295 86.7751 215.541 86.7836 215.761C86.7751 215.948 86.8856 216.143 87.0215 216.304C87.2849 216.617 87.7692 216.685 88.1601 216.592L88.364 216.541L88.4149 216.736C88.5084 217.101 88.6104 217.474 88.7463 217.813C88.8738 218.144 89.0522 218.534 89.2391 218.661C89.2476 218.661 89.3241 218.678 89.409 218.669C89.4855 218.661 89.5705 218.644 89.6554 218.627C89.8254 218.585 89.9868 218.525 90.1567 218.466C90.3182 218.398 90.4881 218.33 90.641 218.254L90.76 218.194H90.7685C90.5476 218.135 91.0744 218.279 91.0149 218.262L91.0234 218.271L91.0404 218.296L91.0744 218.347C91.1253 218.406 91.1678 218.474 91.2273 218.525C91.4482 218.746 91.7456 218.89 92.043 218.907C92.1959 218.924 92.3403 218.898 92.4848 218.847C92.6462 218.813 92.7482 218.754 92.8416 218.661C93.1985 218.228 93.1985 217.508 93.156 216.931L93.1475 216.779L93.2835 216.745C94.7534 216.397 96.1043 216.075 97.3108 215.795L97.3618 215.786L97.4043 215.812C99.401 216.863 100.905 217.855 101.916 218.568C102.417 218.932 102.8 219.22 103.046 219.424C103.25 219.661 103.377 219.772 103.369 219.788Z" fill="#FF9A6C"/>
<path d="M83.7503 225.24C83.7503 225.24 57.1137 216.889 48.7446 214.184C34.343 209.52 24.9118 214.235 21.938 219.381C18.0806 226.054 27.3333 239.069 30.8934 242.062C41.4546 250.923 59.5607 252.118 59.5607 252.118L124.661 251.999L105.654 226.283L83.7503 225.24Z" fill="#212121"/>
<path d="M87.7352 237.297C76.9446 238.56 65.8396 237.051 55.7797 232.956C54.021 232.243 52.2877 231.446 50.4439 230.98C48.6511 230.531 46.7819 230.395 44.9467 230.59C43.4937 230.743 41.9474 231.184 41.0637 232.345C39.7638 234.058 40.435 236.483 41.1572 238.501C41.9984 240.866 42.882 243.3 44.5388 245.191C46.4675 247.412 49.2714 248.675 52.0837 249.557C57.581 251.287 63.3841 251.779 69.1448 252.008L88.9332 250.931L87.7352 237.297Z" fill="#A1A1A1"/>
<path d="M49.5348 230.989C49.5603 230.98 49.6707 231.158 49.8406 231.523C50.0021 231.879 50.206 232.413 50.3674 233.1C50.6988 234.456 50.8092 236.483 50.1465 238.552C49.4753 240.621 48.2093 242.198 47.1472 243.113C46.612 243.58 46.1446 243.893 45.7963 244.088C45.4564 244.283 45.2525 244.368 45.244 244.343C45.2015 244.283 45.9577 243.851 46.9433 242.893C47.9289 241.952 49.1099 240.409 49.7472 238.416C50.3844 236.432 50.3249 234.49 50.0785 233.151C49.8236 231.803 49.4668 231.014 49.5348 230.989Z" fill="#212121"/>
<path d="M151.731 223.612C150.185 219.237 149.93 212.81 140.388 209.724C130.855 206.638 123.633 212.556 118.739 214.608C113.845 216.668 87.0385 231.328 87.0385 231.328C87.0385 231.328 81.9915 240.307 83.4275 244.275C84.8634 248.235 91.3887 252.16 91.3887 252.16H110.744C110.744 252.16 113.624 252.16 121.356 252.16C129.088 252.16 143.472 251.906 143.472 251.906C146.123 247.76 148.63 242.13 148.63 242.13L148.885 240.841C148.893 239.807 153.277 227.979 151.731 223.612Z" fill="#212121"/>
<path d="M135.129 246.327C135.129 246.327 135.103 246.496 134.908 246.734C134.713 246.971 134.39 247.285 133.922 247.624C132.996 248.302 131.552 249.142 129.683 249.99C128.748 250.414 127.711 250.855 126.556 251.219C125.4 251.584 124.126 251.855 122.783 252.033C120.082 252.415 117.091 252.33 113.981 252.381C107.745 252.483 102.103 252.711 98.0075 252.669C95.9599 252.652 94.3031 252.567 93.1645 252.457C92.5952 252.398 92.1534 252.338 91.856 252.271C91.5587 252.211 91.4057 252.177 91.4057 252.16C91.4142 252.118 92.0345 252.228 93.173 252.288C94.3115 252.355 95.9599 252.389 98.0075 252.372C102.094 252.338 107.736 252.059 113.981 251.965C117.108 251.923 120.073 252.016 122.741 251.66C124.075 251.491 125.324 251.236 126.462 250.897C127.601 250.558 128.638 250.134 129.572 249.727C131.441 248.913 132.894 248.124 133.837 247.497C134.313 247.183 134.645 246.903 134.857 246.692C135.061 246.471 135.103 246.31 135.129 246.327Z" fill="#263238"/>
<path d="M91.3972 252.152C91.3972 252.152 91.2528 252.093 90.9979 251.94C90.743 251.796 90.3691 251.559 89.8848 251.245C88.9247 250.6 87.5143 249.642 85.9425 248.116C85.1693 247.345 84.3451 246.429 83.7164 245.25C83.0536 244.055 83.0196 242.503 83.2745 240.994C83.8013 237.933 85.1438 234.669 86.8941 231.235L86.9111 231.192L86.9535 231.167C91.856 228.471 97.4893 225.41 103.641 222.112C106.716 220.467 109.928 218.762 113.259 217.05C114.924 216.193 116.606 215.32 118.382 214.531C120.141 213.785 121.823 212.81 123.582 211.92C126.072 210.648 128.638 209.529 131.331 209.012C132.665 208.723 134.024 208.639 135.367 208.639C136.701 208.707 138.026 208.859 139.292 209.198C141.816 209.868 144.195 210.919 146.157 212.471C147.118 213.268 147.959 214.175 148.655 215.167C149.335 216.168 149.845 217.245 150.27 218.33C150.686 219.415 150.992 220.509 151.298 221.577C151.578 222.646 152.012 223.646 152.156 224.748C152.368 226.919 152.012 228.962 151.646 230.862C151.255 232.769 150.788 234.55 150.312 236.212C150.074 237.043 149.836 237.84 149.607 238.611C149.386 239.374 149.131 240.146 149.021 240.824V240.85C148.919 241.333 148.842 241.74 148.757 242.139V242.147C147.678 245.522 146.361 248.006 145.316 249.6C144.263 251.194 143.49 251.889 143.49 251.889C143.49 251.889 143.523 251.83 143.6 251.737C143.693 251.626 143.804 251.482 143.957 251.304C144.263 250.923 144.696 250.338 145.206 249.532C146.208 247.93 147.491 245.428 148.528 242.079V242.088C149.012 241.681 148.919 241.282 148.783 240.799V240.824C148.902 240.036 149.148 239.324 149.361 238.535C149.582 237.763 149.811 236.958 150.04 236.127C150.499 234.465 150.958 232.693 151.332 230.794C151.689 228.903 152.029 226.868 151.808 224.782C151.672 223.773 151.23 222.739 150.949 221.671C150.644 220.602 150.338 219.517 149.921 218.457C149.505 217.397 149.004 216.346 148.341 215.379C147.661 214.421 146.854 213.539 145.92 212.768C144.016 211.267 141.671 210.233 139.199 209.588C137.958 209.249 136.667 209.105 135.367 209.046C134.058 209.046 132.733 209.122 131.424 209.41C128.79 209.91 126.259 211.013 123.786 212.285C122.036 213.175 120.345 214.15 118.561 214.913C116.819 215.693 115.128 216.566 113.463 217.414C110.132 219.127 106.929 220.823 103.845 222.459C97.7017 225.766 92.06 228.801 87.1235 231.455L87.1914 231.387C85.4412 234.779 84.0817 238.035 83.5379 241.028C83.2745 242.52 83.2915 243.978 83.9203 245.14C84.5235 246.293 85.3307 247.209 86.0784 247.98C87.6163 249.507 89.0097 250.499 89.9443 251.16C90.4116 251.474 90.7685 251.711 91.0319 251.889C91.2783 252.067 91.3972 252.152 91.3972 252.152Z" fill="#212121"/>
<path d="M140.167 241.062C140.167 241.062 149.097 242.121 148.299 246.488C147.508 250.846 144.586 252.313 144.586 252.313L120.319 252.364C120.328 252.364 134.815 251.355 140.167 241.062Z" fill="#A1A1A1"/>
<path d="M141.034 238.942C141.085 238.959 141.017 239.434 140.762 240.18C140.507 240.917 140.048 241.918 139.318 242.876C137.822 244.818 135.919 245.572 135.902 245.488C135.826 245.369 137.567 244.47 138.986 242.622C140.405 240.782 140.898 238.891 141.034 238.942Z" fill="#263238"/>
<path d="M137.941 240.655C138.06 240.663 137.924 242.156 137.083 243.758C136.267 245.361 135.214 246.404 135.137 246.327C135.044 246.251 135.919 245.123 136.709 243.572C137.516 242.029 137.822 240.638 137.941 240.655Z" fill="#263238"/>
<path d="M149.327 251.092C149.259 251.058 149.836 249.956 150.533 248.082C151.238 246.217 152.003 243.546 152.351 240.519C152.691 237.492 152.547 234.719 152.283 232.744C152.02 230.76 151.714 229.556 151.791 229.539C151.816 229.53 151.918 229.827 152.071 230.37C152.232 230.912 152.411 231.709 152.581 232.701C152.921 234.685 153.116 237.5 152.768 240.57C152.411 243.639 151.587 246.327 150.805 248.192C150.414 249.125 150.066 249.863 149.785 250.346C149.514 250.846 149.352 251.109 149.327 251.092Z" fill="#455A64"/>
<g opacity="0.3">
<path d="M144.28 238.713C144.22 238.128 143.982 237.433 143.405 237.314C142.699 237.17 142.215 237.984 141.926 238.645C138.85 245.751 128.731 251.279 121.008 251.991C124.185 252.016 129.088 251.643 132.215 251.075C135.341 250.507 138.417 249.312 140.762 247.175C143.099 245.038 144.611 241.859 144.28 238.713Z" fill="black"/>
</g>
<path d="M85.1608 229.047C85.1098 229.149 83.1896 228.42 80.87 227.419C78.5505 226.419 76.6982 225.512 76.7407 225.41C76.7832 225.3 78.7034 226.029 81.04 227.038C83.3595 228.047 85.2033 228.946 85.1608 229.047Z" fill="#A1A1A1"/>
<path d="M36.9175 190.96L51.4721 223.104C52.0753 224.435 53.3923 225.3 54.8537 225.317L97.3194 225.868L102.672 222.993L94.2861 222.383L81.2354 191.13C80.8191 190.129 79.8505 189.485 78.7629 189.477L38.0815 189.171C37.1639 189.146 36.5351 190.113 36.9175 190.96Z" fill="#A1A1A1"/>
<path d="M36.9175 190.961C36.9175 190.961 36.8325 190.842 36.79 190.571C36.7475 190.308 36.79 189.85 37.1893 189.46C37.3848 189.273 37.6736 189.121 38.0135 189.104C38.3364 189.104 38.6932 189.095 39.0841 189.095C39.8573 189.095 40.7494 189.095 41.7435 189.095C45.7708 189.112 51.574 189.129 58.7875 189.155C62.3986 189.172 66.3665 189.197 70.6232 189.214C72.7559 189.222 74.965 189.239 77.242 189.248C77.8198 189.256 78.3975 189.256 78.9753 189.265C79.5956 189.307 80.2073 189.562 80.6746 189.977C81.1674 190.376 81.4393 191.011 81.6517 191.537C81.8811 192.088 82.1105 192.639 82.3484 193.19C86.0614 202.076 90.1737 211.886 94.5155 222.273L94.3116 222.129C96.8945 222.315 99.6304 222.519 102.409 222.722C102.511 222.731 102.604 222.739 102.698 222.739L103.513 222.799L102.791 223.189C100.956 224.172 99.1376 225.147 97.4383 226.063L97.3873 226.088H97.3278C85.8405 225.936 74.9734 225.783 65.126 225.647C62.662 225.614 60.2659 225.58 57.9379 225.546C56.7654 225.52 55.6438 225.537 54.4798 225.478C53.2988 225.351 52.2197 224.664 51.5995 223.706C49.7047 219.729 48.1244 216.041 46.5865 212.675C43.5787 205.96 41.1487 200.542 39.4664 196.777C38.6423 194.92 38.005 193.47 37.5632 192.47C37.3593 191.986 37.1978 191.613 37.0789 191.342C36.9599 191.096 36.9175 190.961 36.9175 190.961C36.9175 190.961 36.9939 191.079 37.1129 191.334C37.2403 191.596 37.4103 191.97 37.6397 192.436C38.0985 193.428 38.7697 194.869 39.6194 196.709C41.3357 200.457 43.8081 205.849 46.8754 212.548C48.4218 215.88 50.0616 219.628 51.9138 223.502C52.4746 224.367 53.4517 224.986 54.5138 225.096C55.6013 225.147 56.7739 225.13 57.9294 225.156C60.2574 225.181 62.6535 225.207 65.1175 225.24C74.9649 225.359 85.8405 225.495 97.3193 225.631L97.2004 225.656C98.8997 224.74 100.718 223.765 102.553 222.782L102.647 223.231C102.553 223.223 102.46 223.214 102.358 223.214C99.5879 223.011 96.8435 222.807 94.2606 222.621L94.1161 222.612L94.0567 222.476C89.7319 212.09 85.6366 202.271 81.9321 193.377C81.7027 192.817 81.4733 192.266 81.2439 191.724C81.023 191.156 80.8106 190.664 80.3857 190.308C79.9779 189.952 79.4596 189.731 78.9243 189.689C78.3551 189.68 77.7858 189.672 77.2165 189.663C74.9395 189.638 72.7304 189.621 70.5977 189.604C66.3325 189.562 62.3731 189.519 58.7621 189.485C51.557 189.4 45.7539 189.333 41.7265 189.282C40.7239 189.265 39.8403 189.256 39.0671 189.239C38.6847 189.231 38.3279 189.231 38.005 189.222C37.6906 189.231 37.4272 189.367 37.2403 189.528C36.858 189.875 36.7985 190.316 36.824 190.571C36.8665 190.825 36.9344 190.952 36.9175 190.961Z" fill="#212121"/>
<path d="M93.0456 225.8C93.0286 225.809 92.9691 225.681 92.8502 225.453C92.7227 225.173 92.5613 224.825 92.3659 224.418C91.941 223.452 91.3633 222.146 90.658 220.569C89.2391 217.313 87.3104 212.794 85.2373 207.783C83.1641 202.772 81.3289 198.21 80.0629 194.886C79.4341 193.224 78.9243 191.876 78.6015 190.935C78.457 190.503 78.3296 190.147 78.2361 189.85C78.1596 189.604 78.1172 189.468 78.1342 189.46C78.1511 189.451 78.2106 189.579 78.3126 189.816C78.4315 190.104 78.576 190.452 78.7544 190.876C79.1537 191.859 79.689 193.174 80.3432 194.776C81.7197 198.117 83.5719 202.628 85.6281 207.622C87.6928 212.607 89.5535 217.118 90.9384 220.459C91.5927 222.061 92.1195 223.375 92.5188 224.359C92.6802 224.783 92.8162 225.139 92.9351 225.427C93.0201 225.664 93.0626 225.8 93.0456 225.8Z" fill="#212121"/>
<path d="M66.7063 206.536C66.7063 207.681 65.7717 208.614 64.6246 208.614C63.4776 208.614 62.543 207.681 62.543 206.536C62.543 205.392 63.4776 204.459 64.6246 204.459C65.7717 204.459 66.7063 205.392 66.7063 206.536Z" fill="white"/>
<path d="M108.042 154.841C108.11 154.875 107.498 156.019 106.64 157.927C105.782 159.826 104.711 162.514 103.853 165.575C102.995 168.644 102.519 171.493 102.264 173.562C102.009 175.631 101.941 176.928 101.865 176.928C101.831 176.928 101.822 176.606 101.822 176.012C101.822 175.427 101.856 174.579 101.941 173.528C102.111 171.434 102.545 168.551 103.411 165.456C104.278 162.361 105.4 159.674 106.343 157.791C106.81 156.85 107.218 156.104 107.524 155.604C107.838 155.095 108.016 154.824 108.042 154.841Z" fill="#A1A1A1"/>
<path d="M172.216 177.572C172.216 177.589 172.055 177.606 171.749 177.648C171.401 177.682 170.95 177.725 170.398 177.784C169.166 177.886 167.467 178.03 165.351 178.208C161.001 178.539 154.985 178.988 148.095 179.505L147.874 179.522L147.857 179.302C147.712 177.012 147.559 174.596 147.406 172.12C147.16 167.796 146.956 163.675 146.888 159.919C146.693 156.146 147.619 152.695 149.106 150.245C150.576 147.76 152.521 146.311 153.94 145.607C154.662 145.268 155.24 145.039 155.657 144.946C156.064 144.835 156.277 144.776 156.277 144.793C156.294 144.852 155.419 145.03 154.025 145.768C152.649 146.514 150.78 147.964 149.386 150.414C147.967 152.839 147.101 156.188 147.313 159.919C147.406 163.667 147.627 167.779 147.865 172.103C148.018 174.588 148.163 176.996 148.307 179.285L148.069 179.081C154.968 178.623 160.984 178.225 165.334 177.945C167.45 177.826 169.158 177.725 170.39 177.657C170.95 177.631 171.392 177.614 171.749 177.598C172.055 177.555 172.216 177.555 172.216 177.572Z" fill="#A1A1A1"/>
<path d="M129.887 192.258C129.878 192.283 129.606 192.19 129.13 191.978C128.892 191.876 128.604 191.749 128.289 191.554C127.975 191.367 127.592 191.181 127.219 190.901C126.445 190.392 125.587 189.68 124.729 188.798C123.888 187.9 123.055 186.823 122.35 185.593C121.653 184.355 121.161 183.092 120.812 181.914C120.489 180.726 120.311 179.633 120.268 178.709C120.217 178.251 120.251 177.827 120.251 177.462C120.251 177.098 120.285 176.784 120.319 176.521C120.387 176.012 120.438 175.732 120.464 175.732C120.557 175.741 120.404 176.877 120.583 178.683C120.659 179.59 120.872 180.65 121.203 181.803C121.56 182.948 122.061 184.169 122.732 185.373C123.429 186.568 124.228 187.62 125.027 188.51C125.851 189.383 126.658 190.104 127.389 190.638C128.867 191.724 129.921 192.173 129.887 192.258Z" fill="#A1A1A1"/>
</svg>
