<svg width="22" height="22" viewBox="0 0 22 22" fill="none" xmlns="http://www.w3.org/2000/svg">
<path fill-rule="evenodd" clip-rule="evenodd" d="M10.8803 15.7929L11.115 15.9805C11.1573 16.0147 11.2004 16.0492 11.244 16.084C11.2768 16.1102 11.3098 16.1367 11.343 16.1633V16.3119C11.2543 16.3823 11.166 16.4527 11.0791 16.5227L10.8732 16.6871C10.7925 16.7513 10.7202 16.8203 10.6565 16.8936V15.5812C10.7226 15.6554 10.7972 15.7263 10.8803 15.7929ZM16.0379 7.76839H21.6567C21.8461 7.76839 22 7.92515 22 8.11857V12.993C21.8305 12.6935 21.6633 12.3983 21.499 12.1089C21.4438 12.0124 21.3819 11.9241 21.3135 11.845V8.46874H16.3811V9.75125H15.6951V8.11857C15.6951 7.92515 15.8485 7.76839 16.0379 7.76839ZM11.2425 0.102736C11.3048 0.165921 11.343 0.253705 11.343 0.350171V10.6493H14.1737C14.11 10.8326 14.0769 11.0092 14.0528 11.1621C14.0441 11.2173 14.0357 11.273 14.0274 11.3283L14.024 11.3507H11.343V12.3886C11.1394 12.7479 10.9434 13.094 10.7509 13.434L10.6565 13.6007V4.48711H6.30494V7.00631C6.30494 7.19973 6.15101 7.35697 5.96167 7.35697H0.342798C0.153457 7.35697 0 7.19973 0 7.00631V1.2666C0 1.07318 0.153457 0.916425 0.342798 0.916425H5.96167C6.15101 0.916425 6.30494 1.07318 6.30494 1.2666V3.7858H10.6565V0.350171C10.6565 0.156757 10.8104 0 10.9998 0C11.0947 0 11.1806 0.0390687 11.2425 0.102736ZM0.686069 6.65614H5.6184V1.61677H0.686069V6.65614ZM10.6565 21.6498V18.8716C10.8761 19.2604 11.106 19.666 11.343 20.0837V21.6498C11.343 21.8432 11.1896 22 10.9998 22C10.8104 22 10.6565 21.8432 10.6565 21.6498ZM6.30494 17.4897H10.3373C10.2797 17.715 10.2797 17.9533 10.3397 18.191H6.30494V20.7107C6.30494 20.9041 6.15101 21.0609 5.96167 21.0609H0.342798C0.153457 21.0609 0 20.9041 0 20.7107V14.9705C0 14.7771 0.153457 14.6204 0.342798 14.6204H5.96167C6.15101 14.6204 6.30494 14.7771 6.30494 14.9705V17.4897ZM0.686069 20.3601H5.6184V15.3207H0.686069V20.3601ZM21.6698 17.4572L21.7006 17.4808C22.0198 17.7257 22.0873 18.0636 21.8861 18.4084C21.5698 18.9456 21.2355 19.51 20.8931 20.0854C20.6802 20.4426 20.3586 20.5508 19.9634 20.3966L19.7617 20.3184L19.7426 20.3109C19.4762 20.2074 19.2019 20.1008 18.9326 19.9929C18.8594 20.0363 18.7852 20.0785 18.7128 20.1196C18.6992 20.1272 18.6858 20.1349 18.6724 20.1425C18.5794 20.1945 18.483 20.2488 18.391 20.3045C18.3386 20.63 18.2871 20.9743 18.229 21.3864C18.1889 21.6718 18.0288 21.8706 17.7663 21.9627C17.7641 21.9643 17.7619 21.9657 17.7597 21.967C17.758 21.9681 17.7564 21.9691 17.7549 21.9701C17.7223 21.9899 17.686 22 17.6482 22H15.3519C15.3283 22 15.3052 21.9963 15.283 21.9885C14.9742 21.878 14.7995 21.6552 14.7636 21.3279C14.7396 21.1092 14.7049 20.8865 14.6712 20.6706L14.6687 20.6544C14.6629 20.6166 14.6571 20.5783 14.6512 20.5399C14.639 20.4609 14.6267 20.3809 14.6153 20.3013C14.4444 20.2111 14.2654 20.1098 14.069 19.9929C13.7092 20.137 13.3432 20.2792 13.0283 20.4012C12.6463 20.549 12.3223 20.4394 12.1155 20.0923C11.7921 19.5505 11.4573 18.987 11.1206 18.4167C10.9143 18.0663 10.9827 17.7225 11.3095 17.4739L11.5069 17.3233C11.7264 17.1553 11.954 16.9813 12.1797 16.8128C12.1722 16.6038 12.1722 16.3939 12.1797 16.1886C11.9691 16.0307 11.7571 15.8691 11.5522 15.7121L11.3175 15.533C10.9747 15.272 10.9081 14.941 11.1244 14.5751C11.4403 14.0415 11.7619 13.4992 12.108 12.9173C12.3186 12.5633 12.6486 12.4524 13.0382 12.6034L13.2252 12.6761C13.5019 12.7834 13.788 12.8948 14.0695 13.0067C14.2654 12.8897 14.4439 12.7889 14.6148 12.6982L14.6163 12.6872C14.6583 12.3847 14.7022 12.0721 14.7522 11.7642C14.774 11.6321 14.8018 11.4912 14.8571 11.3549C14.9364 11.1621 15.1138 11.0848 15.2436 11.0282L15.2438 11.0281L15.2698 11.017C15.2953 11.006 15.3231 11 15.3515 11H17.6477C17.6699 11 17.6917 11.0032 17.7129 11.0106C18.0269 11.1174 18.2054 11.3499 18.2432 11.702C18.2649 11.9046 18.2965 12.1117 18.3277 12.3115C18.3304 12.3294 18.3332 12.3473 18.336 12.3653C18.3528 12.4744 18.3699 12.5858 18.3853 12.6968C18.5765 12.8 18.7607 12.9045 18.9326 13.0067C19.2589 12.8759 19.5851 12.7489 19.9733 12.5988C20.3558 12.4506 20.6797 12.5606 20.8865 12.9072C21.2085 13.4481 21.5429 14.0121 21.8805 14.5833C22.0868 14.9327 22.0174 15.2766 21.6902 15.5261L21.5056 15.6675L21.4392 15.7181C21.2359 15.8734 21.0277 16.0324 20.8204 16.1872C20.8265 16.4275 20.8265 16.6264 20.8199 16.811C21.1098 17.028 21.4059 17.2549 21.6698 17.4572ZM16.4946 18.4604H16.5083C17.6166 18.4535 18.5152 17.5719 18.51 16.4942C18.5052 15.4152 17.6048 14.5392 16.5013 14.5392H16.497C15.3902 14.5415 14.4892 15.4207 14.4883 16.4988C14.4883 17.025 14.6994 17.5199 15.0828 17.8914C15.4615 18.2588 15.963 18.4604 16.4946 18.4604Z" fill="white"/>
</svg>
