<svg width="22" height="22" viewBox="0 0 22 22" fill="none" xmlns="http://www.w3.org/2000/svg">
<path d="M21.6567 7.76839H16.0379C15.8485 7.76839 15.6951 7.92515 15.6951 8.11857V10.6493H11.343V0.350171C11.343 0.253705 11.3048 0.165921 11.2425 0.102736C11.1806 0.0390687 11.0947 0 10.9998 0C10.8104 0 10.6565 0.156757 10.6565 0.350171V3.7858H6.30494V1.2666C6.30494 1.07318 6.15101 0.916425 5.96167 0.916425H0.342799C0.153457 0.916425 0 1.07318 0 1.2666V7.00631C0 7.19973 0.153457 7.35697 0.342799 7.35697H5.96167C6.15101 7.35697 6.30494 7.19973 6.30494 7.00631V4.48711H10.6565V17.4897H6.30494V14.9705C6.30494 14.7771 6.15101 14.6204 5.96167 14.6204H0.342799C0.153457 14.6204 0 14.7771 0 14.9705V20.7107C0 20.9041 0.153457 21.0609 0.342799 21.0609H5.96167C6.15101 21.0609 6.30494 20.9041 6.30494 20.7107V18.191H10.6565V21.6498C10.6565 21.8432 10.8104 22 10.9998 22C11.1896 22 11.343 21.8432 11.343 21.6498V11.3507H15.6951V13.8583C15.6951 14.0522 15.8485 14.2089 16.0379 14.2089H21.6567C21.8461 14.2089 22 14.0522 22 13.8583V8.11857C22 7.92515 21.8461 7.76839 21.6567 7.76839ZM5.6184 6.65614H0.68607V1.61677H5.6184V6.65614ZM5.6184 20.3601H0.68607V15.3207H5.6184V20.3601ZM21.3135 13.5081H16.3811V8.46874H21.3135V13.5081Z" fill="white"/>
</svg>
