<svg width="64" height="59" viewBox="0 0 64 59" fill="none" xmlns="http://www.w3.org/2000/svg">
<rect x="0.25" width="63" height="59" rx="8" fill="white"/>
<g clip-path="url(#clip0_12999_133)">
<path d="M28.5511 24.548C31.2386 21.8622 35.203 21.8146 37.9358 24.4053V24.4062L38.0823 24.5527C38.8638 25.3337 40.1323 25.3337 40.9138 24.5527C41.6954 23.7715 41.6954 22.5033 40.9138 21.7222C36.6148 17.4259 30.0233 17.4259 25.7243 21.7222C21.4252 26.0186 21.4252 32.9814 25.7243 37.2778C30.0233 41.5741 36.6148 41.5741 40.9138 37.2778C41.6954 36.4967 41.6954 35.2285 40.9138 34.4473C40.1323 33.6663 38.8638 33.6663 38.0823 34.4473C35.3464 37.1816 31.287 37.1816 28.5511 34.4473C25.8153 31.7132 25.8153 27.2821 28.5511 24.548Z" fill="#008FFB" stroke="#008FFB"/>
</g>
<defs>
<clipPath id="clip0_12999_133">
<rect width="33" height="33" fill="white" transform="translate(15.25 13)"/>
</clipPath>
</defs>
</svg>
