<svg width="32" height="32" viewBox="0 0 32 32" fill="none" xmlns="http://www.w3.org/2000/svg">
<g filter="url(#filter0_d_166_177)">
<path d="M16 24C21.5228 24 26 19.5228 26 14C26 8.47715 21.5228 4 16 4C10.4772 4 6 8.47715 6 14C6 19.5228 10.4772 24 16 24Z" fill="#FF8D29"/>
</g>
<path d="M13.4167 18.8081L9.19221 14.4423C8.93593 14.178 8.93593 13.7517 9.19221 13.4958L10.1098 12.5494C10.3661 12.285 10.7795 12.285 11.0275 12.5494L13.8714 15.4911L19.9725 9.19825C20.2288 8.93392 20.6421 8.93392 20.8902 9.19825L21.8078 10.1448C22.0641 10.4091 22.0641 10.8354 21.8078 11.0912L14.326 18.8081C14.078 19.064 13.6647 19.064 13.4167 18.8081Z" fill="white"/>
<defs>
<filter id="filter0_d_166_177" x="0" y="0" width="32" height="32" filterUnits="userSpaceOnUse" color-interpolation-filters="sRGB">
<feFlood flood-opacity="0" result="BackgroundImageFix"/>
<feColorMatrix in="SourceAlpha" type="matrix" values="0 0 0 0 0 0 0 0 0 0 0 0 0 0 0 0 0 0 127 0" result="hardAlpha"/>
<feOffset dy="2"/>
<feGaussianBlur stdDeviation="3"/>
<feComposite in2="hardAlpha" operator="out"/>
<feColorMatrix type="matrix" values="0 0 0 0 0.152941 0 0 0 0 0.0901961 0 0 0 0 0.0313726 0 0 0 0.22 0"/>
<feBlend mode="normal" in2="BackgroundImageFix" result="effect1_dropShadow_166_177"/>
<feBlend mode="normal" in="SourceGraphic" in2="effect1_dropShadow_166_177" result="shape"/>
</filter>
</defs>
</svg>
