<svg width="30" height="30" viewBox="0 0 30 30" fill="none" xmlns="http://www.w3.org/2000/svg">
<g clip-path="url(#clip0_1579_22)">
<path d="M30 15C30 23.2843 23.2843 30 15 30C6.71569 30 0 23.2843 0 15C0 6.71569 6.71569 0 15 0C23.2843 0 30 6.71569 30 15ZM15.0018 12.5175C15.0018 10.4874 15.0018 8.45741 15.0018 6.42708C15.0018 6.15656 15.0015 6.15625 14.7313 6.15625C12.3388 6.15625 9.94669 6.15594 7.55423 6.15625C7.20925 6.15625 7.25368 6.13971 7.25368 6.45374C7.25306 11.7754 7.25306 17.0971 7.25306 22.4191C7.25306 22.5123 7.25306 22.6057 7.25306 22.7246C6.87377 22.7246 6.52512 22.7246 6.17678 22.7246C6.17678 23.1109 6.17678 23.4709 6.17678 23.8416C6.27819 23.8416 6.36091 23.8416 6.44393 23.8416C12.1434 23.8416 17.8428 23.8416 23.542 23.8416C23.5867 23.8416 23.6317 23.8379 23.6762 23.8422C23.7831 23.8523 23.8257 23.8067 23.8238 23.6991C23.8199 23.4688 23.8232 23.2381 23.8232 23.0077C23.8232 22.7188 23.8229 22.7188 23.5325 22.7184C23.2672 22.7184 23.0015 22.7184 22.7135 22.7184C22.7135 19.3885 22.7135 16.0944 22.7135 12.7877C20.1385 12.7877 17.5876 12.7877 15.0021 12.7877C15.0018 12.6811 15.0018 12.5993 15.0018 12.5175ZM12.7619 22.705C11.6688 22.705 10.5864 22.705 9.49326 22.705C9.49326 21.9779 9.49326 21.2644 9.49326 20.5398C10.5812 20.5398 11.6599 20.5398 12.7619 20.5398C12.7619 21.2644 12.7619 21.9779 12.7619 22.705ZM20.4795 22.7047C19.3863 22.7047 18.3039 22.7047 17.2108 22.7047C17.2108 21.9786 17.2108 21.265 17.2108 20.5401C18.2975 20.5401 19.3759 20.5401 20.4795 20.5401C20.4795 21.2638 20.4795 21.9773 20.4795 22.7047ZM18.2812 16.0803C17.5597 16.0803 16.8471 16.0803 16.1155 16.0803C16.1155 15.367 16.1155 14.6498 16.1155 13.9216C16.8343 13.9216 17.5478 13.9216 18.2812 13.9216C18.2812 14.6498 18.2812 15.3578 18.2812 16.0803ZM16.1094 17.231C16.8321 17.231 17.5456 17.231 18.2748 17.231C18.2748 17.9439 18.2748 18.6572 18.2748 19.3876C17.5567 19.3876 16.8395 19.3876 16.1094 19.3876C16.1094 18.6697 16.1094 17.9559 16.1094 17.231ZM8.54289 7.27972C9.15625 7.27849 9.76991 7.28248 10.3833 7.27635C10.5285 7.27482 10.5686 7.32659 10.5674 7.4663C10.5616 8.07414 10.5616 8.68198 10.5674 9.28952C10.5686 9.4277 10.5312 9.48009 10.3839 9.47825C9.77053 9.47089 9.15686 9.47426 8.5435 9.4761C8.44455 9.47641 8.37255 9.47243 8.37377 9.33793C8.37929 8.67892 8.37714 8.02022 8.37868 7.36121C8.37868 7.34344 8.38848 7.32567 8.39706 7.29657C8.44424 7.29075 8.49357 7.28002 8.54289 7.27972ZM13.8814 9.31373C13.8845 9.44087 13.8398 9.47855 13.7157 9.47733C13.0959 9.47243 12.4761 9.47243 11.8563 9.47733C11.7322 9.47825 11.6866 9.43903 11.6875 9.31342C11.6915 8.68658 11.6915 8.05944 11.6878 7.4326C11.6872 7.31403 11.7353 7.27727 11.8474 7.27757C12.4737 7.28033 13.0999 7.28064 13.7261 7.27727C13.8401 7.27665 13.8839 7.31373 13.8814 7.4326C13.875 7.75245 13.8793 8.0723 13.8793 8.39216C13.879 8.69945 13.8738 9.00674 13.8814 9.31373ZM8.38726 12.777C8.38726 12.0551 8.38726 11.3425 8.38726 10.6176C8.44118 10.6112 8.48989 10.6002 8.53891 10.6002C9.15227 10.599 9.76532 10.5999 10.3787 10.5987C10.4801 10.5983 10.5674 10.5944 10.5665 10.7414C10.5616 11.3873 10.564 12.0331 10.5628 12.6789C10.5628 12.7089 10.5512 12.739 10.5435 12.7767C9.82292 12.777 9.1106 12.777 8.38726 12.777ZM11.7096 12.7767C11.7022 12.7206 11.6903 12.6719 11.6903 12.6229C11.689 12.0089 11.689 11.3949 11.6896 10.7812C11.6896 10.6921 11.6765 10.5983 11.8174 10.599C12.4939 10.6017 13.1703 10.6002 13.8627 10.6002C13.8627 11.3324 13.8627 12.0496 13.8627 12.777C13.1446 12.7767 12.4326 12.7767 11.7096 12.7767ZM10.5536 16.0778C9.8318 16.0778 9.1155 16.0778 8.38756 16.0778C8.38756 15.3631 8.38756 14.6507 8.38756 13.9246C9.10478 13.9246 9.81618 13.9246 10.5536 13.9246C10.5536 14.6461 10.5536 15.3536 10.5536 16.0778ZM11.7068 16.0864C11.7068 15.3664 11.7068 14.655 11.7068 13.9271C12.424 13.9271 13.1403 13.9271 13.868 13.9271C13.868 14.6461 13.868 15.3585 13.868 16.0864C13.1388 16.0864 12.4317 16.0864 11.7068 16.0864ZM21.5885 16.0836C20.867 16.0836 20.1553 16.0836 19.4283 16.0836C19.4283 15.3652 19.4283 14.6532 19.4283 13.9259C20.1422 13.9259 20.8542 13.9259 21.5885 13.9259C21.5885 14.6477 21.5885 15.36 21.5885 16.0836ZM8.38358 17.235C9.10509 17.235 9.82138 17.235 10.5502 17.235C10.5555 17.2966 10.5643 17.352 10.5643 17.4078C10.5653 18.0089 10.5613 18.6097 10.5677 19.2105C10.5692 19.3569 10.5291 19.4096 10.3744 19.4078C9.71752 19.3998 9.06066 19.4044 8.38388 19.4044C8.38358 18.6654 8.38358 17.958 8.38358 17.235ZM11.8171 19.3986C11.7745 19.398 11.6961 19.3226 11.6958 19.2816C11.6881 18.6048 11.6903 17.9277 11.6903 17.2353C12.4237 17.2353 13.14 17.2353 13.868 17.2353C13.868 17.9525 13.868 18.6651 13.868 19.4038C13.1697 19.4038 12.4933 19.4062 11.8171 19.3986ZM21.5864 17.2304C21.5864 17.9485 21.5864 18.6612 21.5864 19.3891C20.8729 19.3891 20.1615 19.3891 19.4314 19.3891C19.4314 18.6743 19.4314 17.9577 19.4314 17.2304C20.1501 17.2304 20.8621 17.2304 21.5864 17.2304Z" fill="#C5B786"/>
</g>
<defs>
<clipPath id="clip0_1579_22">
<rect width="30" height="30" fill="white"/>
</clipPath>
</defs>
</svg>
