<svg width="21" height="22" viewBox="0 0 21 22" fill="none" xmlns="http://www.w3.org/2000/svg">
<path d="M18.2953 13.6688H2.57132C2.44031 13.6688 2.33398 13.5608 2.33398 13.4277C2.33398 13.2946 2.44031 13.1865 2.57132 13.1865H18.2953C18.4263 13.1865 18.5327 13.2946 18.5327 13.4277C18.5327 13.5608 18.4263 13.6688 18.2953 13.6688Z" fill="white"/>
<path d="M18.2953 16.1444H2.57132C2.44031 16.1444 2.33398 16.0364 2.33398 15.9033C2.33398 15.7701 2.44031 15.6621 2.57132 15.6621H18.2953C18.4263 15.6621 18.5327 15.7701 18.5327 15.9033C18.5327 16.0364 18.4263 16.1444 18.2953 16.1444Z" fill="white"/>
<path d="M18.2953 18.6203H2.57132C2.44031 18.6203 2.33398 18.5122 2.33398 18.3791C2.33398 18.246 2.44031 18.1379 2.57132 18.1379H18.2953C18.4263 18.1379 18.5327 18.246 18.5327 18.3791C18.5327 18.5122 18.4263 18.6203 18.2953 18.6203Z" fill="white"/>
<path d="M20.644 21.9999H0.356004C0.15949 21.9999 0 21.8378 0 21.6382V10.1686C0 9.96894 0.15949 9.80688 0.356004 9.80688H20.644C20.8405 9.80688 21 9.96894 21 10.1686V21.6382C21 21.8378 20.8405 21.9999 20.644 21.9999ZM0.712009 21.2764H20.288V10.5304H0.712009V21.2764Z" fill="white"/>
<path d="M9.47314 7.59789L10.0736 8.4323H5.9881L6.63792 5.93775C6.76751 5.44096 7.18997 5.07971 7.69407 5.03485L9.06065 4.91138L9.47314 7.59789Z" fill="white"/>
<path d="M15.0121 8.43233H10.9565L11.5569 7.59792L11.969 4.91382L13.3061 5.03488C13.8102 5.08022 14.2327 5.44148 14.3623 5.93778L15.0121 8.43233Z" fill="white"/>
<path d="M10.4998 8.36819L10.0047 7.65485C9.99525 7.64134 9.99097 7.62446 9.99287 7.60758L10.2663 5.20997L10.0788 4.9611C10.0584 4.93409 10.0607 4.89598 10.084 4.87187L10.1562 4.79711C10.169 4.78408 10.1861 4.77637 10.2041 4.77637H10.7955C10.8136 4.77637 10.8311 4.7836 10.8435 4.79711L10.9156 4.87187C10.9389 4.89598 10.9413 4.93409 10.9209 4.9611L10.7334 5.20997L11.0068 7.60758C11.0087 7.62446 11.0044 7.64086 10.9949 7.65485L10.4998 8.36819Z" fill="white"/>
<path d="M10.4999 4.22511C11.6481 4.22511 12.579 3.27929 12.579 2.11256C12.579 0.945823 11.6481 0 10.4999 0C9.35166 0 8.42084 0.945823 8.42084 2.11256C8.42084 3.27929 9.35166 4.22511 10.4999 4.22511Z" fill="white"/>
<path d="M16.2126 8.43228H15.895L15.4877 6.86763L15.9653 6.82471L16.2126 8.43228Z" fill="white"/>
<path d="M20.5716 8.43228H18.1664L18.4137 6.8252L19.5073 6.92407C19.9193 6.96073 20.2649 7.25687 20.3712 7.66347L20.5716 8.43228Z" fill="white"/>
<path d="M17.554 6.88985L17.3693 7.13487L17.517 8.4323H16.7622L16.9099 7.13487L16.7252 6.88985C16.7058 6.8638 16.7081 6.82618 16.7304 6.80255L16.8012 6.72827C16.814 6.71621 16.8306 6.7085 16.8486 6.7085H17.4301C17.4481 6.7085 17.4648 6.71621 17.4776 6.72827L17.5483 6.80255C17.5711 6.82666 17.5735 6.8638 17.554 6.88985Z" fill="white"/>
<path d="M17.1395 6.33759C18.1068 6.33759 18.891 5.54076 18.891 4.55783C18.891 3.5749 18.1068 2.77808 17.1395 2.77808C16.1721 2.77808 15.3879 3.5749 15.3879 4.55783C15.3879 5.54076 16.1721 6.33759 17.1395 6.33759Z" fill="white"/>
<path d="M4.7876 8.43228H5.10468L5.51242 6.86763L5.0349 6.82471L4.7876 8.43228Z" fill="white"/>
<path d="M0.42865 8.43228H2.83381L2.58651 6.8252L1.49286 6.92407C1.08085 6.96073 0.735287 7.25687 0.62896 7.66347L0.42865 8.43228Z" fill="white"/>
<path d="M3.44622 6.88985L3.63087 7.13487L3.48325 8.4323H4.23797L4.09035 7.13487L4.275 6.88985C4.29446 6.8638 4.29208 6.82618 4.26977 6.80255L4.19905 6.72827C4.18623 6.71621 4.16962 6.7085 4.15158 6.7085H3.57011C3.55207 6.7085 3.53546 6.71621 3.52264 6.72827L3.45191 6.80255C3.42865 6.82666 3.42676 6.8638 3.44622 6.88985Z" fill="white"/>
<path d="M3.86056 6.33759C4.82791 6.33759 5.6121 5.54076 5.6121 4.55783C5.6121 3.5749 4.82791 2.77808 3.86056 2.77808C2.89321 2.77808 2.10901 3.5749 2.10901 4.55783C2.10901 5.54076 2.89321 6.33759 3.86056 6.33759Z" fill="white"/>
</svg>
