<svg width="23" height="22" viewBox="0 0 23 22" fill="none" xmlns="http://www.w3.org/2000/svg">
<path d="M10.5 7.66H0.35C0.16 7.66 0 7.5 0 7.31V0.350006C0 0.160006 0.15 0 0.34 0H10.49C10.68 0 10.84 0.160006 10.84 0.350006V7.31C10.84 7.5 10.69 7.66 10.5 7.66ZM0.700001 6.96001H10.16V0.699997H0.700001V6.96001Z" fill="#FF8D29"/>
<path d="M22.23 22.0001H12.08C11.89 22.0001 11.73 21.8401 11.73 21.6501V14.6901C11.73 14.5001 11.88 14.3401 12.07 14.3401H22.22C22.41 14.3401 22.57 14.5001 22.57 14.6901V21.6501C22.57 21.8401 22.42 22.0001 22.23 22.0001ZM12.43 21.3001H21.89V15.0401H12.43V21.3001Z" fill="#FF8D29"/>
<path d="M22.23 13.39H12.08C11.89 13.39 11.74 13.24 11.73 13.05V0.339996C11.73 0.149996 11.89 0 12.07 0H22.22C22.41 0 22.56 0.149996 22.57 0.339996V13.05C22.57 13.24 22.41 13.39 22.23 13.39ZM12.43 12.71H21.89V0.679993H12.43V12.71Z" fill="#FF8D29"/>
<path d="M10.5 22.0001H0.35C0.16 22.0001 0.01 21.8501 0 21.6601V8.94009C0 8.75009 0.16 8.6001 0.34 8.6001H10.49C10.68 8.6001 10.83 8.75009 10.84 8.94009V21.6601C10.84 21.8501 10.69 22.0001 10.5 22.0001ZM0.700001 21.3201H10.16V9.28009H0.700001V21.3201Z" fill="#FF8D29"/>
</svg>
