<svg width="23" height="22" viewBox="0 0 23 22" fill="none" xmlns="http://www.w3.org/2000/svg">
<path d="M10.5 7.66H0.35C0.16 7.66 0 7.5 0 7.31V0.350006C0 0.160006 0.15 0 0.34 0H10.49C10.68 0 10.84 0.160006 10.84 0.350006V7.31C10.84 7.5 10.69 7.66 10.5 7.66ZM0.700001 6.96001H10.16V0.699997H0.700001V6.96001Z" fill="white"/>
<path d="M22.23 22H12.08C11.89 22 11.73 21.84 11.73 21.65V14.69C11.73 14.5 11.88 14.34 12.07 14.34H22.22C22.41 14.34 22.57 14.5 22.57 14.69V21.65C22.57 21.84 22.42 22 22.23 22ZM12.43 21.3H21.89V15.04H12.43V21.3Z" fill="white"/>
<path d="M22.23 13.39H12.08C11.89 13.39 11.74 13.24 11.73 13.05V0.339996C11.73 0.149996 11.89 0 12.07 0H22.22C22.41 0 22.56 0.149996 22.57 0.339996V13.05C22.57 13.24 22.41 13.39 22.23 13.39ZM12.43 12.71H21.89V0.679993H12.43V12.71Z" fill="white"/>
<path d="M10.5 22H0.35C0.16 22 0.01 21.85 0 21.66V8.93997C0 8.74997 0.16 8.59998 0.34 8.59998H10.49C10.68 8.59998 10.83 8.74997 10.84 8.93997V21.66C10.84 21.85 10.69 22 10.5 22ZM0.700001 21.32H10.16V9.27997H0.700001V21.32Z" fill="white"/>
</svg>
