<svg width="64" height="59" viewBox="0 0 64 59" fill="none" xmlns="http://www.w3.org/2000/svg">
<rect x="0.25" width="63" height="59" rx="8" fill="white"/>
<path d="M25.2504 21.0424C24.93 21.3627 24.75 21.7972 24.75 22.2503V36.7503C24.75 37.2034 24.93 37.6379 25.2504 37.9583C25.5707 38.2787 26.0053 38.4587 26.4583 38.4587H31.2917C36.2392 38.4587 40.25 34.4479 40.25 29.5003C40.25 24.5528 36.2392 20.542 31.2917 20.542H26.4583C26.0053 20.542 25.5707 20.722 25.2504 21.0424ZM31.2917 35.042H28.1667V23.9587H31.2917C34.3523 23.9587 36.8333 26.4397 36.8333 29.5003C36.8333 32.561 34.3523 35.042 31.2917 35.042Z" fill="#775DD0" stroke="#775DD0"/>
</svg>
