<svg width="18" height="19" viewBox="0 0 18 19" fill="none" xmlns="http://www.w3.org/2000/svg">
<path fill-rule="evenodd" clip-rule="evenodd" d="M15.51 6.36C15.9 6.39 16.19 6.73 16.16 7.12C16.16 7.18 15.64 13.54 15.35 16.21C15.28 17.76 13.97 18.96 12.42 18.9C11.16 18.92 9.94 18.93 8.75 18.93C7.47 18.93 6.21998 18.92 4.97998 18.89C3.45998 18.92 2.19 17.73 2.12 16.21C1.82 13.52 1.30994 7.18 1.30994 7.12C1.27994 6.73 1.56996 6.39 1.95996 6.36C4.64001 6.36 13.7849 6.26973 15.5 6.36H15.51ZM10.74 0C11.61 0 12.37 0.589993 12.6 1.42999L12.84 2.62C12.92 3.00999 13.26 3.3 13.66 3.3H16.77C17.16 3.3 17.48 3.61999 17.48 4.00999C17.48 4.39999 17.16 4.72 16.77 4.72H0.709961C0.319961 4.72 0 4.39999 0 4.00999C0 3.61999 0.319961 3.3 0.709961 3.3H3.92004C4.28004 3.25 4.57001 2.97 4.64001 2.62L4.87 1.47C5.08 0.610001 5.84998 0.01 6.72998 0H10.74ZM10.74 1.42H6.72998C6.49998 1.42 6.29999 1.56999 6.23999 1.78999L6.02002 2.89999C5.99002 3.03999 5.95002 3.17 5.90002 3.3H11.5599C11.5099 3.17 11.4699 3.03999 11.4399 2.89999L11.21 1.75C11.14 1.55 10.95 1.42 10.73 1.42H10.74Z" fill="#C41414"/>
</svg>
