<svg width="17" height="20" viewBox="0 0 17 20" fill="none" xmlns="http://www.w3.org/2000/svg">
<path fill-rule="evenodd" clip-rule="evenodd" d="M15.0841 6.39597C15.4634 6.42608 15.7455 6.76734 15.7163 7.15878C15.7163 7.219 15.2105 13.6025 14.9285 16.2824C14.8604 17.8381 13.5864 19.0426 12.079 18.9823C10.8536 19.0024 9.66706 19.0125 8.50974 19.0125C7.26488 19.0125 6.04919 19.0024 4.84324 18.9723C3.36497 19.0024 2.12986 17.808 2.06178 16.2824C1.77002 13.5825 1.27397 7.219 1.27397 7.15878C1.24479 6.76734 1.52685 6.42608 1.90614 6.39597C2.28543 6.3759 2.60638 6.65693 2.64528 7.04837C2.64528 7.08852 2.84958 9.6881 3.07326 12.2576L3.12182 12.7695C3.23852 14.0442 3.34558 15.2787 3.44283 16.1318C3.43311 16.9047 4.02635 17.537 4.77521 17.5571C4.80439 17.5571 4.84326 17.5571 4.87244 17.5571C7.17736 17.6073 9.5212 17.6073 12.0595 17.5571C12.8181 17.6274 13.4891 17.0452 13.5474 16.2623C13.5474 16.2121 13.5474 16.172 13.5474 16.1218C13.8295 13.462 14.3255 7.10859 14.3352 7.04837C14.3741 6.65693 14.7048 6.3759 15.0744 6.39597H15.0841ZM10.4451 0.0124512C11.2912 0.0124512 12.0303 0.604626 12.254 1.44773L12.4874 2.64214C12.5652 3.03358 12.8959 3.32466 13.2849 3.32466H16.3095C16.6888 3.32466 17 3.64583 17 4.03728C17 4.42872 16.6888 4.74991 16.3095 4.74991H0.690466C0.311175 4.74991 0 4.42872 0 4.03728C0 3.64583 0.311175 3.32466 0.690466 3.32466H3.8124C4.16252 3.27447 4.44453 2.99343 4.51261 2.64214L4.73627 1.48789C4.9405 0.624708 5.68935 0.0224882 6.54518 0.0124512H10.4451ZM10.4451 1.4377H6.54518C6.3215 1.4377 6.127 1.58825 6.06865 1.80906L5.85472 2.92317C5.82554 3.06369 5.78664 3.19418 5.73802 3.32466H11.2425C11.1939 3.19418 11.155 3.06369 11.1258 2.92317L10.9021 1.76892C10.8341 1.56818 10.6493 1.4377 10.4353 1.4377H10.4451Z" fill="#212121"/>
</svg>
