<svg width="23" height="22" viewBox="0 0 23 22" fill="none" xmlns="http://www.w3.org/2000/svg">
<path d="M21.1365 11.7532C21.5297 11.3659 21.775 10.821 21.775 10.2178C21.775 9.16727 21.031 8.29256 20.057 8.12255V5.97466C20.057 5.77808 19.9017 5.61821 19.7108 5.61821H14.7134C14.4925 4.68796 13.807 3.94367 12.9255 3.66063C13.3187 3.27327 13.564 2.72845 13.564 2.12518C13.564 0.953435 12.6379 0 11.4998 0C10.3616 0 9.43551 0.953435 9.43551 2.12518C9.43551 2.72845 9.68041 3.27327 10.074 3.66063C9.19296 3.94318 8.50753 4.68748 8.28609 5.61821H3.28919C3.09825 5.61821 2.94297 5.77808 2.94297 5.97466V8.12255C1.96901 8.29256 1.22494 9.16727 1.22494 10.2178C1.22494 10.821 1.46984 11.3659 1.86346 11.7532C0.785353 12.0991 0 13.1365 0 14.3595V15.6998L0.204542 15.794C1.11281 16.2137 2.02766 16.447 2.94297 16.4934V19.5642C2.94297 19.7613 3.09825 19.9207 3.28919 19.9207H8.21057V21.1968L8.41558 21.2914C9.43785 21.7638 10.4681 22 11.4988 22C12.5291 22 13.5603 21.7638 14.5844 21.2914L14.789 21.1973V19.9207H19.7108C19.9017 19.9207 20.057 19.7613 20.057 19.5642V16.4934C20.9719 16.4465 21.8862 16.2132 22.795 15.794L23 15.6998V14.3595C23 13.1365 22.2146 12.0995 21.1365 11.7532ZM20.057 8.85139C20.6458 9.00981 21.0826 9.56236 21.0826 10.2183C21.0826 10.8737 20.6458 11.4267 20.057 11.5851C19.9463 11.6151 19.8304 11.6306 19.7108 11.6306C19.5912 11.6306 19.4753 11.6151 19.3646 11.5851C18.7753 11.4267 18.339 10.8737 18.339 10.2183C18.339 9.56236 18.7753 9.00981 19.3646 8.85139C19.4753 8.82145 19.5912 8.80599 19.7108 8.80599C19.8304 8.80551 19.9463 8.82145 20.057 8.85139ZM11.4998 0.713386C12.2565 0.713386 12.8715 1.34708 12.8715 2.12567C12.8715 2.90474 12.2565 3.53795 11.4998 3.53795C10.7435 3.53795 10.128 2.90426 10.128 2.12567C10.128 1.34756 10.7435 0.713386 11.4998 0.713386ZM8.90303 6.26736C8.90303 6.04084 8.93962 5.82252 9.00671 5.6187C9.2699 4.82417 10.0018 4.25085 10.8613 4.25085H12.1378C12.9973 4.25085 13.7292 4.82417 13.9924 5.6187C14.0599 5.82252 14.096 6.04084 14.096 6.26736V7.14207C12.3705 7.87864 10.6253 7.87864 8.90209 7.14255V6.26736H8.90303ZM2.94297 8.85139C3.05322 8.82145 3.16956 8.80599 3.28919 8.80599C3.40883 8.80599 3.52518 8.82145 3.63543 8.85139C4.22468 9.00981 4.66098 9.56236 4.66098 10.2183C4.66098 10.8737 4.22468 11.4267 3.63543 11.5851C3.52518 11.6151 3.40883 11.6306 3.28919 11.6306C3.16956 11.6306 3.05322 11.6151 2.94297 11.5851C2.35372 11.4267 1.9174 10.8737 1.9174 10.2183C1.9174 9.56236 2.35325 9.00981 2.94297 8.85139ZM2.94297 15.7776C2.19092 15.7346 1.43982 15.5539 0.692463 15.2342V14.3595C0.692463 13.2476 1.57118 12.343 2.65116 12.343H3.92771C5.00722 12.343 5.8864 13.2471 5.8864 14.3595V15.2342C5.13858 15.5534 4.38701 15.7346 3.6359 15.7771C3.40461 15.7896 3.17379 15.7896 2.94297 15.7776ZM14.0965 20.7312C12.371 21.4677 10.6257 21.4677 8.90256 20.7317V19.8565C8.90256 19.6299 8.93915 19.4116 9.00624 19.2078C9.26943 18.4133 10.0013 17.84 10.8608 17.84H12.1373C12.9968 17.84 13.7287 18.4133 13.9919 19.2078C14.0594 19.4116 14.0956 19.6299 14.0956 19.8565V20.7312H14.0965ZM10.128 15.7148C10.128 14.9362 10.7435 14.303 11.4998 14.303C12.2565 14.303 12.8715 14.9367 12.8715 15.7148C12.8715 16.4938 12.2565 17.1271 11.4998 17.1271C10.7435 17.1271 10.128 16.4938 10.128 15.7148ZM19.3646 19.2073H14.713C14.492 18.2775 13.8066 17.5328 12.925 17.2497C13.3182 16.8624 13.5635 16.3175 13.5635 15.7143C13.5635 14.543 12.6374 13.5896 11.4993 13.5896C10.3611 13.5896 9.43504 14.543 9.43504 15.7143C9.43504 16.3175 9.67994 16.8624 10.0736 17.2497C9.19249 17.5323 8.50706 18.2771 8.28562 19.2073H3.63449V16.4929C4.54933 16.446 5.46371 16.2127 6.37245 15.7935L6.57746 15.6993V14.359C6.57746 13.1361 5.79211 12.0991 4.714 11.7527C5.10715 11.3654 5.35251 10.8206 5.35251 10.2173C5.35251 9.16679 4.60844 8.29208 3.63449 8.12207V6.33063H8.20963V7.60671L8.41464 7.70138C9.43691 8.17375 10.4672 8.40945 11.4979 8.40945C12.5281 8.40945 13.5593 8.17326 14.5835 7.70138L14.788 7.60671V6.33063H19.3636V8.12207C18.3897 8.29208 17.6456 9.16679 17.6456 10.2173C17.6456 10.8206 17.8905 11.3654 18.2841 11.7527C17.206 12.0986 16.4207 13.1361 16.4207 14.359V15.6993L16.6252 15.7935C17.5339 16.2132 18.4479 16.4465 19.3636 16.4929V19.2073H19.3646ZM22.3075 15.2342C21.5602 15.5534 20.8086 15.7341 20.057 15.7771C19.8262 15.7901 19.5954 15.7901 19.3646 15.7776C18.6125 15.7346 17.8614 15.5539 17.1141 15.2342V14.3595C17.1141 13.2476 17.9923 12.343 19.0728 12.343H20.3493C21.4288 12.343 22.308 13.2471 22.308 14.3595V15.2342H22.3075Z" fill="white"/>
</svg>
