<svg width="18" height="18" viewBox="0 0 18 18" fill="none" xmlns="http://www.w3.org/2000/svg">
<path d="M0.65901 0.65901C1.08097 0.237053 1.65326 0 2.25 0H15.75C16.3467 0 16.919 0.237053 17.341 0.65901C17.7629 1.08097 18 1.65326 18 2.25V9C18 9.49706 17.5971 9.9 17.1 9.9C16.6029 9.9 16.2 9.49706 16.2 9V2.25C16.2 2.13065 16.1526 2.01619 16.0682 1.9318C15.9838 1.84741 15.8693 1.8 15.75 1.8H2.25C2.13065 1.8 2.01619 1.84741 1.9318 1.9318C1.84741 2.01619 1.8 2.13065 1.8 2.25V15.75C1.8 15.8693 1.84741 15.9838 1.9318 16.0682C2.01619 16.1526 2.13065 16.2 2.25 16.2H9C9.49706 16.2 9.9 16.6029 9.9 17.1C9.9 17.5971 9.49706 18 9 18H2.25C1.65326 18 1.08097 17.7629 0.65901 17.341C0.237053 16.919 0 16.3467 0 15.75V2.25C0 1.65326 0.237053 1.08097 0.65901 0.65901Z" fill="#334756"/>
<path fill-rule="evenodd" clip-rule="evenodd" d="M9 12.6C9 10.6118 10.6118 9 12.6 9C14.5882 9 16.2 10.6118 16.2 12.6C16.2 13.1257 16.0873 13.6251 15.8848 14.0753L17.6622 15.4972C18.0504 15.8077 18.1133 16.3741 17.8028 16.7622C17.4923 17.1504 16.9259 17.2133 16.5378 16.9028L14.7598 15.4804C14.1582 15.9323 13.4103 16.2 12.6 16.2C10.6118 16.2 9 14.5882 9 12.6ZM12.6 10.8C11.6059 10.8 10.8 11.6059 10.8 12.6C10.8 13.5941 11.6059 14.4 12.6 14.4C13.5941 14.4 14.4 13.5941 14.4 12.6C14.4 11.6059 13.5941 10.8 12.6 10.8Z" fill="#334756"/>
<path d="M4.5 4.5C4.00294 4.5 3.6 4.90294 3.6 5.4C3.6 5.89706 4.00294 6.3 4.5 6.3H13.5C13.9971 6.3 14.4 5.89706 14.4 5.4C14.4 4.90294 13.9971 4.5 13.5 4.5H4.5Z" fill="#334756"/>
<path d="M4.5 8.1C4.00294 8.1 3.6 8.50294 3.6 9C3.6 9.49706 4.00294 9.9 4.5 9.9H8.1C8.59706 9.9 9 9.49706 9 9C9 8.50294 8.59706 8.1 8.1 8.1H4.5Z" fill="#334756"/>
</svg>
