<svg width="18" height="18" viewBox="0 0 18 18" fill="none" xmlns="http://www.w3.org/2000/svg">
<path d="M2.45455 7.77273C2.45455 7.23024 2.67005 6.70997 3.05365 6.32637C3.43724 5.94278 3.95751 5.72727 4.5 5.72727C5.04249 5.72727 5.56276 5.94278 5.94635 6.32637C6.32995 6.70997 6.54545 7.23024 6.54545 7.77273C6.54545 8.31522 6.32995 8.83548 5.94635 9.21908C5.56276 9.60268 5.04249 9.81818 4.5 9.81818C3.95751 9.81818 3.43724 9.60268 3.05365 9.21908C2.67005 8.83548 2.45455 8.31522 2.45455 7.77273ZM4.5 6.95455C4.283 6.95455 4.0749 7.04075 3.92146 7.19419C3.76802 7.34762 3.68182 7.55573 3.68182 7.77273C3.68182 7.98972 3.76802 8.19783 3.92146 8.35127C4.0749 8.50471 4.283 8.59091 4.5 8.59091C4.717 8.59091 4.9251 8.50471 5.07854 8.35127C5.23198 8.19783 5.31818 7.98972 5.31818 7.77273C5.31818 7.55573 5.23198 7.34762 5.07854 7.19419C4.9251 7.04075 4.717 6.95455 4.5 6.95455ZM4.5 11.4545C3.95751 11.4545 3.43724 11.67 3.05365 12.0536C2.67005 12.4372 2.45455 12.9575 2.45455 13.5C2.45455 14.0425 2.67005 14.5628 3.05365 14.9464C3.43724 15.33 3.95751 15.5455 4.5 15.5455C5.04249 15.5455 5.56276 15.33 5.94635 14.9464C6.32995 14.5628 6.54545 14.0425 6.54545 13.5C6.54545 12.9575 6.32995 12.4372 5.94635 12.0536C5.56276 11.67 5.04249 11.4545 4.5 11.4545ZM3.68182 13.5C3.68182 13.283 3.76802 13.0749 3.92146 12.9215C4.0749 12.768 4.283 12.6818 4.5 12.6818C4.717 12.6818 4.9251 12.768 5.07854 12.9215C5.23198 13.0749 5.31818 13.283 5.31818 13.5C5.31818 13.717 5.23198 13.9251 5.07854 14.0785C4.9251 14.232 4.717 14.3182 4.5 14.3182C4.283 14.3182 4.0749 14.232 3.92146 14.0785C3.76802 13.9251 3.68182 13.717 3.68182 13.5ZM8.18182 7.56818C8.18182 7.40544 8.24647 7.24935 8.36155 7.13428C8.47663 7.0192 8.63271 6.95455 8.79545 6.95455H14.9318C15.0946 6.95455 15.2506 7.0192 15.3657 7.13428C15.4808 7.24935 15.5455 7.40544 15.5455 7.56818C15.5455 7.73093 15.4808 7.88701 15.3657 8.00209C15.2506 8.11717 15.0946 8.18182 14.9318 8.18182H8.79545C8.63271 8.18182 8.47663 8.11717 8.36155 8.00209C8.24647 7.88701 8.18182 7.73093 8.18182 7.56818ZM8.79545 12.6818C8.63271 12.6818 8.47663 12.7465 8.36155 12.8615C8.24647 12.9766 8.18182 13.1327 8.18182 13.2955C8.18182 13.4582 8.24647 13.6143 8.36155 13.7294C8.47663 13.8444 8.63271 13.9091 8.79545 13.9091H14.9318C15.0946 13.9091 15.2506 13.8444 15.3657 13.7294C15.4808 13.6143 15.5455 13.4582 15.5455 13.2955C15.5455 13.1327 15.4808 12.9766 15.3657 12.8615C15.2506 12.7465 15.0946 12.6818 14.9318 12.6818H8.79545ZM2.45455 3.47727C2.45455 3.31453 2.5192 3.15845 2.63428 3.04337C2.74935 2.92829 2.90544 2.86364 3.06818 2.86364H14.9318C15.0946 2.86364 15.2506 2.92829 15.3657 3.04337C15.4808 3.15845 15.5455 3.31453 15.5455 3.47727C15.5455 3.64002 15.4808 3.7961 15.3657 3.91118C15.2506 4.02626 15.0946 4.09091 14.9318 4.09091H3.06818C2.90544 4.09091 2.74935 4.02626 2.63428 3.91118C2.5192 3.7961 2.45455 3.64002 2.45455 3.47727ZM3.06818 0C2.25445 0 1.47405 0.323254 0.89865 0.89865C0.323254 1.47405 0 2.25445 0 3.06818V14.9318C0 15.7456 0.323254 16.526 0.89865 17.1014C1.47405 17.6767 2.25445 18 3.06818 18H14.9318C15.7456 18 16.526 17.6767 17.1014 17.1014C17.6767 16.526 18 15.7456 18 14.9318V3.06818C18 2.25445 17.6767 1.47405 17.1014 0.89865C16.526 0.323254 15.7456 0 14.9318 0H3.06818ZM1.22727 3.06818C1.22727 2.57994 1.42123 2.1117 1.76646 1.76646C2.1117 1.42123 2.57994 1.22727 3.06818 1.22727H14.9318C15.4201 1.22727 15.8883 1.42123 16.2335 1.76646C16.5788 2.1117 16.7727 2.57994 16.7727 3.06818V14.9318C16.7727 15.4201 16.5788 15.8883 16.2335 16.2335C15.8883 16.5788 15.4201 16.7727 14.9318 16.7727H3.06818C2.57994 16.7727 2.1117 16.5788 1.76646 16.2335C1.42123 15.8883 1.22727 15.4201 1.22727 14.9318V3.06818Z" fill="#334756"/>
</svg>
