<svg width="9" height="5" viewBox="0 0 9 5" fill="none" xmlns="http://www.w3.org/2000/svg">
<path d="M4.5 5C4.391 4.99849 4.28649 4.95556 4.20699 4.87963L0.0945228 0.692847C0.0289442 0.6115 -0.00456904 0.508228 0.000501658 0.403117C0.00557236 0.298007 0.0488644 0.198575 0.121957 0.124161C0.19505 0.0497477 0.292717 0.00567306 0.395962 0.000510722C0.499206 -0.00465161 0.600646 0.0294675 0.680549 0.0962312L4.5 3.98994L8.31945 0.0962312C8.39935 0.0294675 8.50079 -0.00465161 8.60404 0.000510722C8.70728 0.00567306 8.80495 0.0497477 8.87804 0.124161C8.95114 0.198575 8.99443 0.298007 8.9995 0.403117C9.00457 0.508228 8.97106 0.6115 8.90548 0.692847L4.79301 4.87963C4.71351 4.95556 4.609 4.99849 4.5 5Z" fill="#4F4A4A"/>
</svg>
