<svg width="16" height="9" viewBox="0 0 16 9" fill="none" xmlns="http://www.w3.org/2000/svg">
<path d="M1.76519 0.454737C1.69359 0.387074 1.60936 0.334176 1.51731 0.299065C1.42527 0.263953 1.32721 0.247314 1.22873 0.2501C1.13025 0.252886 1.03329 0.275041 0.943375 0.3153C0.853461 0.355559 0.772356 0.413134 0.704693 0.484737C0.637029 0.55634 0.584131 0.64057 0.54902 0.732617C0.513908 0.824664 0.49727 0.922724 0.500056 1.0212C0.502842 1.11968 0.524996 1.21664 0.565256 1.30656C0.605515 1.39647 0.663089 1.47757 0.734693 1.54524L7.48469 7.92024C7.62394 8.05189 7.80831 8.12524 7.99994 8.12524C8.19158 8.12524 8.37594 8.05189 8.51519 7.92024L15.2659 1.54524C15.3391 1.47802 15.3982 1.39693 15.4398 1.30669C15.4813 1.21644 15.5046 1.11884 15.5081 1.01954C15.5116 0.920248 15.4954 0.82124 15.4603 0.728272C15.4253 0.635305 15.3721 0.55023 15.3039 0.477989C15.2356 0.405749 15.1538 0.347783 15.0629 0.307458C14.9721 0.267134 14.8742 0.245254 14.7749 0.243091C14.6756 0.240928 14.5768 0.258523 14.4843 0.294856C14.3918 0.331189 14.3075 0.385535 14.2362 0.454737L7.99994 6.34374L1.76519 0.454737Z" fill="#2A2A2A"/>
</svg>
