<svg width="42" height="12" viewBox="0 0 42 12" fill="none" xmlns="http://www.w3.org/2000/svg">
<path d="M15.8807 10V2.72727H20.2699V3.50852H16.7614V5.96591H20.0426V6.74716H16.7614V9.21875H20.3267V10H15.8807ZM23.8033 10.1136C23.3487 10.1136 22.9474 9.99882 22.5994 9.76918C22.2514 9.53717 21.9792 9.21046 21.7827 8.78906C21.5862 8.36529 21.4879 7.86458 21.4879 7.28693C21.4879 6.71402 21.5862 6.21686 21.7827 5.79545C21.9792 5.37405 22.2526 5.04853 22.603 4.81889C22.9534 4.58925 23.3582 4.47443 23.8175 4.47443C24.1726 4.47443 24.4531 4.53362 24.6591 4.65199C24.8674 4.76799 25.026 4.90057 25.1349 5.04972C25.2462 5.1965 25.3326 5.31723 25.3942 5.41193H25.4652V2.72727H26.3033V10H25.4936V9.16193H25.3942C25.3326 9.26136 25.245 9.38684 25.1314 9.53835C25.0178 9.6875 24.8556 9.82126 24.6449 9.93963C24.4342 10.0556 24.1536 10.1136 23.8033 10.1136ZM23.9169 9.3608C24.2531 9.3608 24.5372 9.2732 24.7692 9.09801C25.0012 8.92045 25.1776 8.67543 25.2983 8.36293C25.419 8.04806 25.4794 7.68466 25.4794 7.27273C25.4794 6.86553 25.4202 6.50923 25.3018 6.20384C25.1835 5.89607 25.0083 5.65696 24.7763 5.48651C24.5443 5.31368 24.2578 5.22727 23.9169 5.22727C23.5618 5.22727 23.2659 5.31842 23.0291 5.50071C22.7947 5.68063 22.6184 5.92566 22.5 6.2358C22.384 6.54356 22.326 6.8892 22.326 7.27273C22.326 7.66098 22.3852 8.01373 22.5036 8.33097C22.6243 8.64583 22.8018 8.89678 23.0362 9.08381C23.273 9.26847 23.5665 9.3608 23.9169 9.3608ZM27.9545 10V4.54545H28.7926V10H27.9545ZM28.3807 3.63636C28.2173 3.63636 28.0765 3.58073 27.9581 3.46946C27.8421 3.35819 27.7841 3.22443 27.7841 3.06818C27.7841 2.91193 27.8421 2.77817 27.9581 2.6669C28.0765 2.55563 28.2173 2.5 28.3807 2.5C28.544 2.5 28.6837 2.55563 28.7997 2.6669C28.9181 2.77817 28.9773 2.91193 28.9773 3.06818C28.9773 3.22443 28.9181 3.35819 28.7997 3.46946C28.6837 3.58073 28.544 3.63636 28.3807 3.63636ZM32.6998 4.54545V5.25568H29.873V4.54545H32.6998ZM30.6969 3.23864H31.535V8.4375C31.535 8.67424 31.5693 8.8518 31.638 8.97017C31.709 9.08617 31.7989 9.1643 31.9078 9.20455C32.0191 9.24242 32.1363 9.26136 32.2594 9.26136C32.3517 9.26136 32.4275 9.25663 32.4867 9.24716C32.5459 9.23532 32.5932 9.22585 32.6287 9.21875L32.7992 9.97159C32.7424 9.9929 32.6631 10.0142 32.5613 10.0355C32.4595 10.0592 32.3304 10.071 32.1742 10.071C31.9374 10.071 31.7054 10.0201 31.4782 9.91832C31.2533 9.81652 31.0662 9.66146 30.9171 9.45312C30.7703 9.24479 30.6969 8.98201 30.6969 8.66477V3.23864ZM34.5712 10.0568C34.396 10.0568 34.2457 9.99408 34.1202 9.86861C33.9947 9.74313 33.932 9.5928 33.932 9.41761C33.932 9.24242 33.9947 9.09209 34.1202 8.96662C34.2457 8.84115 34.396 8.77841 34.5712 8.77841C34.7464 8.77841 34.8967 8.84115 35.0222 8.96662C35.1477 9.09209 35.2104 9.24242 35.2104 9.41761C35.2104 9.53362 35.1808 9.64015 35.1216 9.73722C35.0648 9.83428 34.9879 9.91241 34.8908 9.97159C34.7961 10.0284 34.6896 10.0568 34.5712 10.0568ZM37.3251 10.0568C37.1499 10.0568 36.9996 9.99408 36.8741 9.86861C36.7486 9.74313 36.6859 9.5928 36.6859 9.41761C36.6859 9.24242 36.7486 9.09209 36.8741 8.96662C36.9996 8.84115 37.1499 8.77841 37.3251 8.77841C37.5003 8.77841 37.6506 8.84115 37.7761 8.96662C37.9016 9.09209 37.9643 9.24242 37.9643 9.41761C37.9643 9.53362 37.9347 9.64015 37.8755 9.73722C37.8187 9.83428 37.7418 9.91241 37.6447 9.97159C37.55 10.0284 37.4435 10.0568 37.3251 10.0568ZM40.079 10.0568C39.9038 10.0568 39.7535 9.99408 39.628 9.86861C39.5025 9.74313 39.4398 9.5928 39.4398 9.41761C39.4398 9.24242 39.5025 9.09209 39.628 8.96662C39.7535 8.84115 39.9038 8.77841 40.079 8.77841C40.2542 8.77841 40.4045 8.84115 40.53 8.96662C40.6555 9.09209 40.7182 9.24242 40.7182 9.41761C40.7182 9.53362 40.6886 9.64015 40.6294 9.73722C40.5726 9.83428 40.4957 9.91241 40.3986 9.97159C40.3039 10.0284 40.1974 10.0568 40.079 10.0568Z" fill="#0085FF"/>
<g clip-path="url(#clip0_247_11037)">
<path d="M1.5 10.5H10.5M6.111 2.914L7.525 1.5L10 3.975L8.586 5.389M6.111 2.914L3.3075 5.7175C3.21373 5.81125 3.16103 5.9384 3.161 6.071V8.339H5.429C5.5616 8.33897 5.68875 8.28627 5.7825 8.1925L8.586 5.389M6.111 2.914L8.586 5.389" stroke="#0085FF" stroke-width="1.5" stroke-linecap="round" stroke-linejoin="round"/>
</g>
<defs>
<clipPath id="clip0_247_11037">
<rect width="12" height="12" fill="white"/>
</clipPath>
</defs>
</svg>
