<svg width="20" height="19" viewBox="0 0 20 19" fill="none" xmlns="http://www.w3.org/2000/svg">
<path fill-rule="evenodd" clip-rule="evenodd" d="M18.7545 17.4524C19.1645 17.4524 19.5045 17.7924 19.5045 18.2024C19.5045 18.6124 19.1645 18.9524 18.7545 18.9524H11.5045C11.0945 18.9524 10.7545 18.6124 10.7545 18.2024C10.7545 17.7924 11.0945 17.4524 11.5045 17.4524H18.7545ZM14.1245 0.662394L15.8445 2.00241C16.4845 2.40241 16.9445 3.04239 17.1045 3.77239C17.2845 4.52239 17.1545 5.32241 16.7345 5.97241V5.9924L16.7145 6.00241C16.6445 6.09241 16.3545 6.4624 14.8645 8.3224C14.8545 8.3424 14.8346 8.3724 14.8146 8.3924C14.7946 8.4224 14.7645 8.4524 14.7345 8.4824L14.4145 8.88239L14.1846 9.16239L12.4945 11.2824L12.1545 11.7124L7.14452 17.9824C6.68452 18.5524 5.9945 18.8924 5.2545 18.8924L1.61449 18.9424C1.26449 18.9424 0.964506 18.7024 0.884506 18.3624L0.0645599 14.8924C-0.10544 14.1824 0.0645209 13.4224 0.524521 12.8524L9.94444 1.0724H9.95445C11.0045 -0.177602 12.8445 -0.357601 14.1145 0.652399L14.1245 0.662394ZM11.1245 2.02239L9.84447 3.6224L14.1045 6.89241C14.9245 5.8624 15.4645 5.1924 15.5145 5.1224C15.6845 4.8224 15.7345 4.4624 15.6545 4.1224C15.5645 3.7524 15.3345 3.4324 15.0045 3.2324C14.9345 3.1824 13.2444 1.87241 13.1944 1.83241C12.5644 1.32241 11.6545 1.4024 11.1245 2.0124V2.02239Z" fill="#247BA0"/>
</svg>
