<svg width="19" height="19" viewBox="0 0 19 19" fill="none" xmlns="http://www.w3.org/2000/svg">
<path fill-rule="evenodd" clip-rule="evenodd" d="M18.2694 17.4962C18.6688 17.4962 19 17.8371 19 18.2481C19 18.6591 18.6688 19 18.2694 19H11.2069C10.8075 19 10.4763 18.6591 10.4763 18.2481C10.4763 17.8371 10.8075 17.4962 11.2069 17.4962H18.2694ZM13.7592 0.664058L15.4346 2.00743C16.0581 2.40844 16.5062 3.05004 16.6621 3.78187C16.8374 4.53375 16.7108 5.33577 16.3016 5.98741V6.00745L16.2821 6.01748C16.2139 6.10771 15.9315 6.47863 14.48 8.3433C14.4703 8.36335 14.4509 8.39343 14.4314 8.41348C14.4119 8.44356 14.3826 8.47363 14.3534 8.5037L14.0417 8.9047L13.8177 9.1854L12.1713 11.3107L11.8401 11.7418L6.95972 18.0276C6.51161 18.599 5.83945 18.9399 5.11859 18.9399L1.57273 18.99C1.23178 18.99 0.939558 18.7494 0.861628 18.4085L0.06289 14.9298C-0.102713 14.218 0.062852 13.4561 0.510954 12.8847L9.68722 1.07509H9.69697C10.7198 -0.178048 12.5123 -0.358499 13.7494 0.654038L13.7592 0.664058ZM8.6742 4.80444L1.66037 13.827C1.49476 14.0376 1.43639 14.3183 1.49484 14.5889L2.15718 17.4762L5.11859 17.4361C5.39135 17.4361 5.65434 17.3058 5.82969 17.0852L8.97612 13.025L9.3853 12.5037L9.79448 11.9824L12.824 8.08265L8.6742 4.80444ZM10.8368 2.02747L9.58983 3.6315L13.7397 6.90972C14.5384 5.87713 15.0645 5.20544 15.1132 5.13527C15.2788 4.83451 15.3275 4.47361 15.2496 4.13275C15.1619 3.76182 14.9379 3.44102 14.6164 3.24052C14.5482 3.19039 12.9019 1.87711 12.8532 1.83701C12.2395 1.32573 11.353 1.40592 10.8368 2.01745V2.02747Z" fill="#212121"/>
</svg>
