<svg width="27" height="26" viewBox="0 0 27 26" fill="none" xmlns="http://www.w3.org/2000/svg">
<path d="M5.375 3.25C4.95006 3.25 4.51456 3.3995 4.20662 3.70744C3.8995 4.01375 3.75 4.44925 3.75 4.875V13.8125C3.75 16.0794 5.09225 17.9701 7 19.1701V22.75H19.1875V19.1701C21.0952 17.9701 22.4375 16.0786 22.4375 13.8125V13H11.875V4.875C11.875 4.45006 11.7255 4.01456 11.4176 3.70662C11.1113 3.3995 10.6757 3.25 10.25 3.25H5.375ZM5.375 4.875H10.25V13H5.375V4.875ZM7 6.5V8.9375H8.625V6.5H7ZM5.6285 14.625H20.5582C20.2698 16.0282 19.4475 17.2656 17.9939 18.0529L17.5625 18.2812V21.125H8.625V18.2812L8.19356 18.0529C6.73919 17.2656 5.91775 16.0282 5.62931 14.625H5.6285Z" fill="black"/>
</svg>
