<svg width="193" height="220" viewBox="0 0 193 220" fill="none" xmlns="http://www.w3.org/2000/svg">
<path d="M76.3281 217.791C77.6923 219.04 81.3558 219.308 83.6244 218.718C83.8313 218.458 83.9693 218.167 84.0076 217.845C84.2988 215.623 82.9423 210.552 82.9959 208.139C83.0419 205.726 83.5784 203.022 83.5784 203.022C79.0872 202.685 74.1591 199.307 74.1591 199.307C74.1591 199.307 73.293 202.156 72.7566 203.505C72.6952 203.658 72.6493 203.796 72.6033 203.926C73.4387 205.006 74.5806 206.829 74.55 208.668C74.504 211.563 74.596 216.198 76.3357 217.791H76.3281Z" fill="#8A5133"/>
<path d="M76.3282 217.791C74.5884 216.198 74.4888 211.563 74.5424 208.668C74.5731 206.821 73.4311 205.006 72.5957 203.926C72.2355 204.96 72.3198 205.435 73.0939 206.546C73.96 207.802 73.7224 208.43 73.7224 211.035C73.7224 213.639 73.2855 217.362 76.3282 219.055C78.9264 220.495 82.4519 220.212 83.6245 218.726C81.3559 219.316 77.6924 219.048 76.3282 217.799V217.791Z" fill="#562717"/>
<path d="M90.8902 165.568C85.9315 166.671 73.7454 168.18 73.7454 168.18L70.856 158.406C70.856 158.406 70.5111 160.742 69.4075 166.595C67.6141 163.431 60.2488 146.425 55.428 143.33C50.6072 140.235 47.5109 140.993 43.7248 145.329C40.8813 149.696 40.7204 154.974 41.0806 158.62C42.2456 161.408 44.108 163.99 46.959 165.92C58.8462 169.008 63.0002 168.433 67.8286 170.072C72.6571 171.712 74.1133 171.229 80.0071 170.072C85.9008 168.916 91.6796 170.754 94.1168 169.107C96.0176 167.82 97.5274 166.135 97.7037 165.254C97.7037 165.216 97.7113 165.162 97.7113 165.093C96.5694 164.542 94.3851 164.802 90.9055 165.576L90.8902 165.568Z" fill="black"/>
<path d="M89.8556 143.131C88.2154 132.989 84.5902 114.979 78.2136 101.65C88.4223 94.679 95.9486 85.9997 99.9876 76.4318C94.1552 76.156 91.9249 66.4885 91.1355 61.0879C89.8019 65.8297 87.8322 71.6976 85.3184 76.3935C80.8731 84.6974 71.5994 90.3049 71.5994 90.3049C71.5994 90.3049 55.0141 100.049 43.7401 99.7196C43.7401 99.7196 38.5284 102.975 33.9759 107.158C30.5577 110.299 24.7252 115.477 19.5519 118.22C21.3453 119.89 25.7446 125.053 25.6986 135.624C31.7303 132.69 40.0306 126.079 44.8437 115.424C44.0696 125.757 43.058 133.196 40.5211 141.5C39.3715 144.955 38.4594 152.339 41.0883 158.636C40.7281 154.99 40.889 149.712 43.7324 145.345C47.5185 141.009 50.6225 140.251 55.4356 143.346C60.2564 146.441 67.6217 163.447 69.4151 166.611C70.5188 160.758 70.8637 158.422 70.8637 158.422L73.7531 168.196C73.7531 168.196 85.9391 166.68 90.8979 165.584C94.3774 164.811 96.5617 164.55 97.7037 165.102C97.696 163.501 95.5577 153.327 90.9209 147.674C92.469 144.87 93.5267 143.813 89.8556 143.131Z" fill="#212121"/>
<path d="M67.4838 193.063C68.4955 188.934 68.2119 187.923 67.1926 185.602C66.1809 183.281 66.7557 182.561 67.0469 180.745C67.1849 179.91 67.2155 179.037 67.1159 178.21C66.9933 177.857 66.8707 177.543 66.7634 177.268C65.2688 180.355 57.436 182.385 57.436 182.385C57.436 182.385 58.5473 183.35 59.1298 187.893C59.697 192.313 60.4941 195.997 62.0499 197.438C63.6057 197.438 66.4108 196.894 67.4838 193.063Z" fill="#8A5133"/>
<path d="M68.2119 185.144C66.6178 182.003 67.5375 183.259 67.7291 181.766C67.8747 180.639 67.4992 179.291 67.116 178.219C67.2156 179.046 67.1849 179.912 67.047 180.754C66.7557 182.562 66.1809 183.29 67.1926 185.611C68.2043 187.932 68.4955 188.943 67.4838 193.072C66.4109 196.903 63.6058 197.454 62.0499 197.447C62.0882 197.485 62.1266 197.523 62.1726 197.561C63.8127 198.917 66.5718 197.462 68.3576 193.501C69.7065 190.506 69.8521 188.285 68.2119 185.144Z" fill="#562717"/>
<path d="M72.4732 89.6728C70.8867 92.7752 66.7327 101.041 63.3528 109.184C59.582 106.419 45.8708 101.546 42.2839 100.298C41.5252 100.865 41.2109 101.225 41.2109 101.225L64.4641 111.651C64.4641 111.651 72.3736 94.9508 74.6958 88.3398C73.9447 88.8301 73.209 89.2668 72.4809 89.6728H72.4732Z" fill="#334756"/>
<path d="M61.5824 93.5957C59.6281 94.0936 57.4591 94.5992 54.9912 95.2121L60.5937 98.4678L61.5824 93.5957Z" fill="#E1F5FF"/>
<path d="M61.5824 93.5961L60.5937 98.4682L54.9912 95.2125C54.608 95.3044 54.2248 95.404 53.8262 95.5036C47.3346 97.0663 43.8628 99.127 42.2839 100.307C45.8708 101.555 59.582 106.427 63.3528 109.193C66.7327 101.057 70.8867 92.7841 72.4732 89.6816C69.1469 91.5048 65.859 92.516 61.5824 93.5961Z" fill="#212121"/>
<g style="mix-blend-mode:multiply" opacity="0.5">
<path d="M72.4732 89.6719C69.1469 91.4951 65.859 92.5062 61.5824 93.5864L60.5937 98.4584L54.9912 95.2027C54.608 95.2947 54.2248 95.3942 53.8262 95.4938C47.3346 97.0566 43.8628 99.1172 42.2839 100.297C42.7898 100.473 43.5025 100.718 44.3456 101.025C47.4803 99.2551 53.2591 96.5203 56.7003 98.1443C60.6397 100.312 61.4521 100.856 61.4521 100.856C61.4521 100.856 62.4025 95.2947 65.6597 94.3448C67.8823 93.6936 64.2878 102.534 61.7816 108.21C62.4024 108.555 62.9389 108.884 63.3528 109.183C66.7327 101.048 70.8867 92.7744 72.4732 89.6719Z" fill="#2E2E30"/>
</g>
<path d="M84.8816 64.5988C84.2301 59.7267 79.5166 59.3973 79.5166 59.3973C79.5166 59.3973 80.329 58.9913 83.9849 58.9071C81.2257 52.817 74.4736 53.9507 74.4736 53.9507C74.4736 53.9507 75.5313 53.2996 77.7232 52.7327C72.2816 47.0487 61.3908 47.8607 61.3908 47.8607L63.3375 46.2367C60.1722 44.9344 56.5087 47.3704 56.5087 47.3704C56.5087 47.3704 57.8116 43.793 56.754 43.793C54.723 43.9538 52.1248 48.5042 52.1248 48.5042C52.1248 48.5042 46.5146 44.8501 44.9741 45.6621C43.4336 46.4741 46.1084 50.3733 46.1084 50.3733C46.1084 50.3733 42.3683 48.1824 39.7701 49.8064C40.8278 49.8064 42.8588 51.1853 42.8588 51.1853C33.1712 50.335 26.4497 57.0609 26.3578 57.8346C26.2658 58.6083 29.0632 59.382 29.0632 59.382C29.0632 59.382 25.1008 60.9294 22.8782 64.8899C20.6556 68.8503 21.5217 70.3977 24.2271 69.0418C18.6246 76.6717 21.0388 77.1543 25.0012 75.2238C20.6556 83.7269 24.618 84.3015 27.8983 81.4977C27.3158 83.4282 28.1895 86.523 29.6381 85.0752C29.8833 83.5814 32.2439 82.3404 34.3055 83.5048C34.2136 82.9686 34.0909 82.417 33.884 81.8425C32.9183 79.1153 30.9946 75.3541 30.9946 75.3541C30.9946 75.3541 36.0453 71.9911 36.8501 70.0683C36.7734 72.5503 38.9347 73.0329 45.3497 65.8244C45.3497 65.8244 48.1547 69.7543 51.1208 68.7124C54.0868 67.6706 53.443 62.8599 53.443 62.8599C53.443 62.8599 58.6547 67.1037 61.2222 65.4261C61.7817 64.7826 59.7813 62.4615 59.7813 62.4615C59.7813 62.4615 64.6711 64.3843 67.0776 62.699C67.4762 62.3006 66.4338 61.2588 66.4338 61.2588C66.4338 61.2588 71.1627 63.4191 70.3656 60.8605C73.1707 64.6294 75.2553 69.8385 76.4586 72.8031C77.6619 75.7677 77.1024 79.3298 76.4969 81.0305C89.4494 71.3706 80.6356 62.7373 80.6356 62.7373C80.6356 62.7373 82.3447 62.8982 84.8586 64.6064L84.8816 64.5988Z" fill="#FCA32D"/>
<path d="M29.6535 85.0842C28.6878 91.1666 34.3899 91.4577 35.7388 89.4277C34.4819 87.2444 34.6582 85.4902 34.321 83.5138C32.2516 82.3417 29.891 83.5904 29.6535 85.0842Z" fill="#EFCAA6"/>
<g style="mix-blend-mode:multiply" opacity="0.5">
<path d="M84.8816 64.6C84.2301 59.728 79.5167 59.3986 79.5167 59.3986C79.5167 59.3986 80.3291 58.9926 83.9849 58.9083C81.2258 52.8182 74.4736 53.952 74.4736 53.952C74.4736 53.952 75.5313 53.3008 77.7232 52.734C76.7959 51.7611 75.6999 50.9874 74.5349 50.3516C75.3014 51.0333 75.7842 51.6385 75.6539 51.9756C75.1787 53.1553 71.2853 54.4499 71.2853 54.4499C71.2853 54.4499 81.4327 56.8093 80.1375 57.8741C78.8422 58.9389 72.228 56.6944 72.228 56.6944C72.228 56.6944 76.5966 64.0102 75.4163 64.1251C74.236 64.24 68.2196 56.6944 68.2196 56.6944C68.2196 56.6944 70.2277 60.3485 68.6948 60.3485C67.162 60.3485 63.1459 59.2837 63.1459 59.2837C63.1459 59.2837 65.2689 61.4056 63.9737 61.758C62.6784 62.1104 57.0069 59.636 57.0069 59.636C57.0069 59.636 59.1299 63.2901 57.8347 63.5276C56.5394 63.765 51.5807 59.636 51.5807 59.636C51.5807 59.636 52.0559 67.3042 49.8102 67.0667C47.5646 66.8292 45.8019 61.6431 45.8019 61.6431C45.8019 61.6431 39.5479 70.2534 38.3676 69.5487C37.1873 68.8439 37.4249 66.1321 37.4249 66.1321C37.4249 66.1321 32.5888 73.2104 31.4085 72.9729C30.2282 72.7354 30.4658 70.2611 30.4658 70.2611C30.4658 70.2611 26.0972 81.5833 25.1545 79.5762C24.2118 77.5692 27.6301 71.3182 27.6301 71.3182C27.6301 71.3182 23.8516 74.7425 23.2615 73.6777C22.6713 72.6129 26.5647 66.0095 26.5647 66.0095C26.5647 66.0095 23.1388 68.7213 22.5487 68.2541C22.1808 67.963 22.1655 67.059 22.2728 66.0785C20.8779 69.1427 21.8206 70.2458 24.2348 69.0354C18.6323 76.6652 21.0465 77.1478 25.0089 75.2174C20.6633 83.7205 24.6257 84.2951 27.906 81.4913C27.3235 83.4218 28.1972 86.5166 29.6457 85.0688C29.891 83.575 32.2516 82.334 34.3132 83.4984C34.2213 82.9621 34.0986 82.4106 33.8917 81.8361C32.926 79.1089 31.0023 75.3476 31.0023 75.3476C31.0023 75.3476 36.053 71.9847 36.8578 70.0619C36.7811 72.5439 38.9424 73.0265 45.3573 65.818C45.3573 65.818 48.1624 69.7478 51.1285 68.706C54.0945 67.6642 53.4507 62.8534 53.4507 62.8534C53.4507 62.8534 58.6624 67.0973 61.2299 65.4197C61.7894 64.7762 59.789 62.4551 59.789 62.4551C59.789 62.4551 64.6788 64.3779 67.0853 62.6926C67.4839 62.2942 66.4415 61.2524 66.4415 61.2524C66.4415 61.2524 71.1703 63.4126 70.3733 60.8541C73.1784 64.623 75.263 69.8321 76.4663 72.7967C77.6696 75.7613 77.1101 79.3234 76.5046 81.024C89.4571 71.3642 80.6433 62.7309 80.6433 62.7309C80.6433 62.7309 82.3524 62.8917 84.8663 64.6H84.8816Z" fill="#E28920"/>
</g>
<path d="M76.474 72.7942C75.2707 69.8296 73.1861 64.6205 70.381 60.8516C71.1857 63.4178 66.4492 61.2499 66.4492 61.2499C66.4492 61.2499 67.4916 62.2917 67.093 62.6901C64.6865 64.3754 59.7967 62.4526 59.7967 62.4526C59.7967 62.4526 61.8047 64.7737 61.2376 65.4172C58.6701 67.1025 53.4584 62.8509 53.4584 62.8509C53.4584 62.8509 54.1022 67.6617 51.1362 68.7035C48.1701 69.7454 45.365 65.8155 45.365 65.8155C38.9501 73.024 36.7888 72.5491 36.8655 70.0594C36.0607 71.9822 31.01 75.3452 31.01 75.3452C31.01 75.3452 32.9337 79.1141 33.8994 81.8336C34.8651 84.5607 34.137 86.6443 35.7388 89.4098C37.4786 92.788 46.8519 99.7437 59.6051 95.2011C72.3583 90.6584 76.5123 81.0062 76.5123 81.0062C77.1178 79.2979 77.6696 75.7435 76.474 72.7789V72.7942Z" fill="#F4D9BF"/>
<path d="M52.738 78.8988C52.1556 76.3249 51.0749 73.7587 50.4158 72.3798C49.7643 71.0009 47.9479 70.8553 45.9552 71.2537C43.9625 71.652 38.9272 73.6055 38.0534 74.0038C38.0534 74.0038 36.0607 75.015 35.118 75.8883C34.1754 76.7539 34.1983 78.5081 35.2637 81.4268C36.2753 84.2152 37.0034 85.6247 38.0534 86.5669C39.1034 87.5092 41.0961 87.0725 44.2844 86.1686C47.4727 85.2647 49.6877 84.5063 51.3508 83.4874C53.0216 82.4763 53.3052 81.4574 52.7304 78.8912L52.738 78.8988ZM48.5687 84.4067C45.8479 85.5634 40.0538 87.5934 38.7509 86.069C37.448 84.5522 36.7199 82.6984 36.0301 80.1628C35.3403 77.6272 34.8728 76.2483 37.5169 74.8771C40.1611 73.4982 43.0582 72.7781 45.4494 72.0121C47.8406 71.2537 49.7183 71.1081 50.6304 73.9885C50.6304 73.9885 51.6114 77.045 52.1939 79.144C52.7764 81.2429 51.2895 83.2346 48.5687 84.399V84.4067Z" fill="#2E2E30"/>
<path opacity="0.5" d="M50.6304 73.9954C49.7184 71.1151 47.8483 71.2606 45.4494 72.019C43.0582 72.7774 40.1611 73.5051 37.517 74.884C34.8728 76.2629 35.3403 77.6341 36.0301 80.1697C36.7199 82.7053 37.4403 84.5515 38.7509 86.0759C40.0538 87.6004 45.8556 85.5703 48.5688 84.4136C51.2895 83.2569 52.7687 81.2652 52.1939 79.1585C51.6114 77.0596 50.6304 74.0031 50.6304 74.0031V73.9954Z" fill="#D2FFF2"/>
<path d="M72.8794 74.7017C72.6648 72.7789 72.228 70.611 71.178 67.7843C70.128 64.9576 67.6295 65.1797 65.9204 65.6087C64.2189 66.0453 59.5437 67.4549 57.3671 68.5427C55.1905 69.6304 55.2671 71.0783 55.773 73.07C56.2788 75.0617 58.2025 79.4052 58.2025 79.4052C59.2908 82.3391 61.866 81.7952 64.035 81.4352C66.2116 81.0752 69.4689 79.7346 71.2086 78.5013C72.9484 77.2679 73.094 76.6168 72.8718 74.7017H72.8794ZM69.1087 78.9073C65.8207 80.3474 63.6594 80.807 61.9656 81.0139C60.2718 81.2207 59.7047 80.807 58.624 78.754C57.5434 76.701 56.4627 73.6292 56.4627 73.6292C56.4627 73.6292 55.3438 70.6952 57.0912 69.4619C58.4554 68.5043 62.0653 67.0412 64.8934 66.3747C67.7214 65.7083 69.6681 65.693 70.6492 68.7342C71.6225 71.7677 71.8294 72.3269 72.2433 74.2267C72.6572 76.1265 72.3966 77.4594 69.1087 78.8996V78.9073Z" fill="#2E2E30"/>
<path opacity="0.5" d="M70.6568 68.7341C69.6758 65.6928 67.7291 65.7082 64.901 66.3746C62.0729 67.0411 58.4631 68.4966 57.0989 69.4618C55.3514 70.6951 56.4704 73.6291 56.4704 73.6291C56.4704 73.6291 57.551 76.7009 58.6317 78.7539C59.7123 80.8069 60.2718 81.2206 61.9733 81.0138C63.6671 80.8069 65.8284 80.3473 69.1163 78.9071C72.4043 77.467 72.6572 76.1341 72.251 74.2343C71.8371 72.3345 71.6378 71.7676 70.6568 68.7417V68.7341Z" fill="#D2FFF2"/>
<path d="M33.225 83.0524L35.4093 81.5126L35.0184 80.1797L31.1173 83.3358C31.1173 83.3358 32.5275 83.0217 33.225 83.0524Z" fill="#2E2E30"/>
<path d="M70.9635 67.7903L71.3007 69.0926L74.9565 68.2652C74.9565 68.2652 75.1481 67.1085 75.6846 66.6719C73.8452 67.2004 70.9712 67.7903 70.9712 67.7903H70.9635Z" fill="#2E2E30"/>
<path d="M74.9105 69.233C74.9105 69.233 74.5733 66.5595 76.8036 66.2837C79.0339 66.008 81.6933 69.3096 79.9229 72.5194C79.0339 74.1357 76.9722 74.1357 76.7499 73.3543C76.5277 72.573 74.9105 69.233 74.9105 69.233Z" fill="#EFCAA6"/>
<path d="M79.1182 68.6271C79.1182 68.6271 79.0185 68.5888 78.8423 68.5198C78.7963 68.5045 78.7503 68.4739 78.7043 68.4662C78.6507 68.4662 78.597 68.4509 78.5357 68.4432C78.4284 68.4126 78.2981 68.4279 78.1601 68.4432C78.0912 68.4432 78.0299 68.4892 77.9609 68.5122L77.8612 68.5505L77.7693 68.6194C77.639 68.696 77.5317 68.8339 77.432 68.9641C77.3861 69.0408 77.3401 69.1174 77.2941 69.1863C77.2634 69.2706 77.2251 69.3548 77.1868 69.4391C77.1331 69.6153 77.0795 69.7915 77.0795 69.9753C77.0642 70.0673 77.0642 70.1592 77.0795 70.2511C77.0795 70.343 77.0795 70.435 77.1178 70.5192C77.0258 70.3813 77.2251 70.8563 77.2941 71.0095C77.4014 71.1397 77.478 71.2853 77.616 71.3772C77.7309 71.4921 77.8689 71.561 77.9992 71.6376C78.1218 71.7143 78.2598 71.7602 78.3747 71.8062C78.4897 71.8445 78.5893 71.8751 78.6813 71.8828C78.7733 71.9058 78.8423 71.8981 78.8882 71.9058C78.9419 71.9058 78.9649 71.9058 78.9649 71.9058C78.9649 71.9058 78.9419 71.9134 78.8882 71.9287C78.8423 71.9364 78.7656 71.9747 78.6736 71.9824C78.5817 71.9977 78.459 72.0054 78.3211 71.99C78.1908 71.9824 78.0452 71.967 77.8842 71.9058C77.7233 71.8598 77.5393 71.8062 77.3784 71.6836C77.1945 71.5917 77.0565 71.4232 76.9109 71.2546C76.8036 71.0631 76.6733 70.8639 76.635 70.6341C76.5966 70.5192 76.589 70.4043 76.5813 70.2894C76.566 70.1745 76.566 70.0596 76.5813 69.9447C76.5966 69.7072 76.6656 69.4851 76.7423 69.2706C76.7883 69.1633 76.8419 69.0637 76.8879 68.9641C76.9569 68.8722 77.0182 68.7803 77.0872 68.696C77.2328 68.5352 77.3937 68.382 77.5853 68.2977L77.7233 68.2287L77.8689 68.1981C77.9685 68.1828 78.0528 68.1445 78.1448 68.1598C78.2368 68.1675 78.3134 68.1751 78.3977 68.1828C78.4744 68.1904 78.5434 68.2364 78.6123 68.2594C78.7503 68.313 78.8423 68.3666 78.9112 68.4356C79.0492 68.5581 79.1335 68.6271 79.1335 68.6271H79.1182Z" fill="#C39368"/>
<path d="M79.1182 70.2672C79.1182 70.2672 79.0875 70.4741 78.8959 70.7269C78.804 70.8494 78.666 70.9797 78.4821 71.0869C78.3901 71.1252 78.2904 71.1865 78.1755 71.2018C78.0605 71.2325 77.9456 71.2401 77.8306 71.2325C77.7156 71.2248 77.6007 71.1865 77.4934 71.1559C77.3937 71.1099 77.2941 71.0639 77.2098 71.0027C77.0412 70.8801 76.9262 70.7422 76.8419 70.612C76.7499 70.4894 76.7116 70.3668 76.6733 70.2826C76.6426 70.1983 76.6273 70.1523 76.6273 70.1523C76.6273 70.1523 76.6733 70.1753 76.7499 70.2213C76.8266 70.2596 76.9186 70.3362 77.0412 70.4051C77.1025 70.4358 77.1638 70.4741 77.2251 70.5124C77.2941 70.5507 77.3631 70.5737 77.4321 70.612C77.501 70.6503 77.5777 70.6503 77.6467 70.6886C77.7156 70.7039 77.7923 70.7192 77.8613 70.7192C78.0069 70.7422 78.1525 70.7039 78.2981 70.6656C78.4437 70.6196 78.5817 70.5583 78.6966 70.4971C78.9342 70.3668 79.1105 70.2596 79.1105 70.2596L79.1182 70.2672Z" fill="#C39368"/>
<path d="M30.7724 87.1963C30.7724 87.1963 30.8107 87.0967 30.8643 86.9205C30.8797 86.8746 30.8873 86.8286 30.9103 86.775C30.941 86.729 30.9716 86.6831 31.0023 86.6294C31.0483 86.5222 31.1479 86.4379 31.2476 86.346C31.2859 86.2847 31.3702 86.2771 31.4315 86.2388L31.5235 86.1851L31.6384 86.1545C31.784 86.1085 31.9527 86.1085 32.1213 86.1162C32.2056 86.1315 32.2976 86.1392 32.3819 86.1545C32.4662 86.1851 32.5505 86.2158 32.6424 86.2388C32.8111 86.3077 32.9797 86.3843 33.1253 86.4992C33.2096 86.5452 33.2786 86.6065 33.3399 86.6677C33.4089 86.729 33.4778 86.7903 33.5238 86.8669C33.4778 86.706 33.7154 87.158 33.7844 87.3189C33.8151 87.4874 33.8764 87.6406 33.861 87.8015C33.8764 87.9624 33.8381 88.1156 33.8151 88.2611C33.7921 88.399 33.7461 88.5446 33.7001 88.6518C33.6541 88.7667 33.6081 88.8586 33.5621 88.9352C33.5238 89.0195 33.4702 89.0655 33.4472 89.1114L33.4012 89.1727C33.4012 89.1727 33.4242 89.1574 33.4625 89.1344C33.5008 89.1038 33.5775 89.0731 33.6388 89.0042C33.7078 88.9429 33.7921 88.8586 33.8687 88.7437C33.9454 88.6365 34.0297 88.5139 34.0833 88.353C34.1523 88.1998 34.2289 88.0236 34.2366 87.8245C34.2826 87.6253 34.2366 87.4108 34.2136 87.1886C34.137 86.9818 34.0603 86.752 33.9147 86.5758C33.8534 86.4762 33.7691 86.392 33.6848 86.3154C33.6005 86.2311 33.5162 86.1545 33.4165 86.0932C33.2249 85.9553 33.0103 85.8634 32.7957 85.7791C32.6884 85.7485 32.5735 85.7255 32.4662 85.6949C32.3512 85.6949 32.2439 85.6795 32.1289 85.6719C31.9067 85.6719 31.6921 85.7102 31.5005 85.8021L31.3625 85.8634L31.2399 85.9553C31.1709 86.0243 31.0789 86.0626 31.033 86.1468C30.9793 86.2158 30.9333 86.2847 30.8873 86.3537C30.8414 86.4226 30.8337 86.4992 30.8107 86.5682C30.7647 86.706 30.7417 86.8133 30.757 86.9052C30.757 87.0891 30.757 87.1963 30.757 87.1963H30.7724Z" fill="#C39368"/>
<path d="M32.037 88.2461C32.037 88.2461 32.2208 88.3533 32.5349 88.3687C32.6881 88.3763 32.8796 88.3533 33.0711 88.2844C33.1631 88.2384 33.2703 88.2078 33.3546 88.1235C33.4465 88.0546 33.5308 87.9703 33.5997 87.8784C33.6687 87.7865 33.7146 87.6715 33.7606 87.572C33.7912 87.4647 33.8142 87.3575 33.8219 87.2579C33.8372 87.0511 33.8066 86.8749 33.7606 86.7293C33.7299 86.5761 33.6533 86.4689 33.615 86.3923C33.5691 86.3156 33.5461 86.2773 33.5461 86.2773C33.5461 86.2773 33.5308 86.331 33.5155 86.4152C33.5001 86.4995 33.5001 86.6221 33.4695 86.76C33.4542 86.8289 33.4465 86.8978 33.4389 86.9744C33.4235 87.0511 33.3929 87.12 33.3852 87.1966C33.3699 87.2732 33.3239 87.3345 33.3086 87.4111C33.2703 87.4724 33.2397 87.5413 33.1937 87.5949C33.1171 87.7175 32.9945 87.8094 32.8796 87.8937C32.7494 87.9703 32.6192 88.0393 32.489 88.0929C32.2362 88.1925 32.037 88.2537 32.037 88.2537V88.2461Z" fill="#C39368"/>
<path d="M55.7424 83.8262C55.7424 83.8262 55.6274 83.8109 55.4205 83.7803C55.2212 83.7573 54.9299 83.719 54.5927 83.7266C54.2632 83.7266 53.8646 83.7956 53.6577 84.0177C53.5581 84.1327 53.5121 84.2859 53.4891 84.4697V84.485V84.5004C53.4891 84.5004 53.4891 84.4544 53.4891 84.4621V84.5923C53.5044 84.6459 53.5044 84.7225 53.5197 84.7531C53.5657 84.8144 53.5504 84.8604 53.6194 84.937C53.6654 85.0136 53.719 85.0826 53.7956 85.1515C53.857 85.2204 53.9413 85.2817 54.0256 85.3353C54.1942 85.4503 54.3781 85.5575 54.5697 85.6418C54.9453 85.818 55.3208 85.9558 55.6504 86.0707C56.3172 86.2852 56.7617 86.4308 56.7617 86.4308C56.7617 86.4308 56.2865 86.4844 55.5737 86.4001C55.3975 86.3772 55.2059 86.3465 55.0066 86.3006C54.8073 86.2546 54.5927 86.201 54.3781 86.1167C54.1635 86.0401 53.9413 85.9482 53.7267 85.8026C53.6194 85.7337 53.5121 85.6647 53.4124 85.5652C53.3051 85.4809 53.2132 85.3736 53.1365 85.2511C53.0446 85.1515 52.9986 84.96 52.9526 84.8068C52.9373 84.7302 52.9449 84.6842 52.9373 84.6229V84.4467V84.4008C52.9832 84.1327 53.0982 83.8492 53.3128 83.65C53.5351 83.4585 53.788 83.3819 54.0179 83.3589C54.2478 83.336 54.4471 83.3589 54.631 83.3896C54.9913 83.4585 55.2748 83.5734 55.4588 83.6654C55.6504 83.7573 55.75 83.8186 55.75 83.8186L55.7424 83.8262Z" fill="#C39368"/>
<path d="M59.9346 90.3746C63.077 89.0723 64.5332 87.5172 64.7324 85.334C61.2529 88.1454 56.4244 89.6468 53.604 90.3286C54.9989 90.8189 57.4974 91.3934 59.9346 90.3822V90.3746Z" fill="white"/>
<path d="M57.4438 92.6334C59.6435 92.5568 61.5595 91.6682 63.0387 90.4119C60.3716 90.1438 58.4019 91.6758 57.4438 92.6334Z" fill="#E34548"/>
<path d="M63.0386 90.4121C65.1156 88.6349 66.3189 86.1069 66.1503 84.0156C65.7134 84.4829 65.2306 84.9196 64.7248 85.3332C64.5255 87.5165 63.0693 89.0715 59.927 90.3738C57.4898 91.385 54.9912 90.8181 53.5963 90.3202C52.1938 90.6572 51.2894 90.7951 51.2894 90.7951C53.4737 92.1817 55.5584 92.6949 57.4438 92.626C58.4018 91.6684 60.3715 90.1363 63.0386 90.4044V90.4121Z" fill="#96172D"/>
<path d="M44.5143 80.1027C44.8745 81.2747 44.7519 82.3548 44.2384 82.5157C43.7249 82.6766 43.0121 81.8492 42.6442 80.6772C42.284 79.5051 42.4066 78.425 42.9201 78.2641C43.4336 78.1033 44.1464 78.9306 44.5143 80.1027Z" fill="#461A00"/>
<path d="M43.1728 79.5445C43.257 79.9122 43.1957 80.234 43.0349 80.2646C42.874 80.3029 42.6825 80.0348 42.5982 79.6671C42.5216 79.307 42.5829 78.9776 42.7438 78.947C42.9046 78.9087 43.0962 79.1768 43.1804 79.5445H43.1728Z" fill="white"/>
<path d="M65.5066 74.1275C65.8361 75.3072 65.6905 76.3874 65.1693 76.5329C64.6482 76.6785 63.9584 75.8358 63.6288 74.6561C63.2993 73.4764 63.4449 72.3963 63.9661 72.2507C64.4872 72.1052 65.177 72.9478 65.5142 74.1275H65.5066Z" fill="#461A00"/>
<path d="M64.1804 73.5314C64.2493 73.8991 64.1804 74.2208 64.0195 74.2515C63.8586 74.2821 63.6671 74.014 63.5982 73.6463C63.5292 73.2786 63.5982 72.9569 63.759 72.9262C63.9199 72.8956 64.1114 73.1637 64.1804 73.5314Z" fill="white"/>
<path d="M39.9158 78.6391C39.9158 78.6391 41.4563 73.2691 45.0201 77.0993C43.9165 75.0386 40.0614 73.1159 39.9158 78.6391Z" fill="#CC7A19"/>
<path d="M61.3448 72.4332C61.3448 72.4332 62.4562 67.2164 66.6102 70.9394C65.6904 68.8174 61.4905 67.0249 61.3448 72.4332Z" fill="#CC7A19"/>
<path d="M52.0329 77.697C52.0329 77.697 53.1059 73.7595 56.777 75.8202C56.1715 74.2574 52.577 73.5603 51.7953 76.5709C51.9409 77.1224 52.0252 77.697 52.0252 77.697H52.0329Z" fill="#2E2E30"/>
<path d="M44.2154 84.1172C44.2767 84.822 42.9355 85.5114 41.2341 85.6493C39.5249 85.7872 38.0994 85.3275 38.0458 84.6151C37.9921 83.9104 39.3257 83.2209 41.0271 83.083C42.7286 82.9451 44.1541 83.4048 44.2154 84.1095V84.1172Z" fill="#F9CBC0"/>
<path d="M71.9215 75.1618C72.2127 75.8129 71.1781 76.9007 69.6222 77.5978C68.0587 78.2949 66.5565 78.3332 66.273 77.6821C65.9817 77.0309 67.0164 75.9431 68.5799 75.246C70.1434 74.5489 71.6379 74.5106 71.9291 75.1618H71.9215Z" fill="#F9CBC0"/>
<path d="M39.4789 74.8861C39.7012 74.6946 39.5325 74.3729 39.2566 74.549C38.3369 75.1619 36.6968 75.5372 36.2063 76.6633C35.5318 78.1878 36.2369 80.3787 36.9727 81.7422C37.1796 82.1176 37.7545 81.6426 37.6472 81.3056C37.2716 80.1718 36.0837 77.7894 36.9574 76.648C37.5782 75.8437 38.7125 75.5372 39.4789 74.8784V74.8861Z" fill="white"/>
<path d="M38.9034 84.2164C38.6966 83.6954 38.4132 83.2052 38.1987 82.6766C38.0761 82.3778 37.5782 82.7532 37.6778 83.0137C37.8769 83.5422 38.1297 84.0478 38.3748 84.5534C38.5204 84.8522 39.003 84.4691 38.9034 84.2087V84.2164Z" fill="white"/>
<path d="M59.9269 78.0639C59.5437 76.8765 58.8539 75.827 58.44 74.6396C58.1488 73.8123 57.9265 72.9313 57.7809 72.0657C57.5357 70.6332 58.8079 69.7369 59.7736 68.9862C60.0112 68.8024 59.9499 68.4193 59.6203 68.6108C58.4937 69.2543 57.0298 69.8518 57.0068 71.3992C56.9685 74.0038 58.0568 76.2636 59.1758 78.5541C59.3904 78.9908 60.0572 78.4392 59.9346 78.0639H59.9269Z" fill="white"/>
<path d="M61.1373 79.665C60.8692 79.4582 60.7466 79.1135 60.4325 78.9526C60.2104 78.8377 59.789 79.2744 60.0188 79.4352C60.3099 79.6421 60.3329 80.0404 60.6776 80.2013C60.9228 80.3162 61.3901 79.8565 61.1373 79.665Z" fill="white"/>
<path d="M101.498 72.2498C101.559 72.0506 101.628 71.8514 101.689 71.6522C105.023 60.2075 101.306 46.7557 96.401 48.2878C94.6152 48.6632 93.6265 50.2029 93.0747 52.9607C93.1054 54.9601 93.3506 57.6872 94.14 61.0885C95.5579 67.2398 98.8229 73.529 101.49 72.2421L101.498 72.2498Z" fill="#2E2E30"/>
<path d="M94.1476 61.0945C93.3582 57.6933 93.1129 54.9662 93.0823 52.9668C93.067 53.0434 93.0516 53.1123 93.0363 53.1889C92.8064 54.4529 92.1549 57.4328 91.1279 61.0792C91.9173 66.4798 94.1476 76.1473 99.9801 76.4231C100.563 75.0519 101.068 73.6577 101.498 72.2482C98.8304 73.5351 95.5655 67.2459 94.1476 61.0945Z" fill="#334756"/>
<path d="M19.2913 127.215C18.1723 122.435 16.2563 120.627 14.9534 119.938C14.8691 119.953 14.7924 119.968 14.7081 119.983C13.3132 123.798 15.9574 131.857 20.9544 137.288C20.9544 137.288 21.1001 134.967 19.2837 127.223L19.2913 127.215Z" fill="#2E2E30"/>
<path d="M19.5366 118.213C17.9117 119.071 16.3483 119.699 14.9534 119.936C16.2563 120.626 18.18 122.434 19.2913 127.214C21.1001 134.966 20.9621 137.28 20.9621 137.28C22.219 137.057 23.8438 136.498 25.6909 135.61C25.7369 125.046 21.3376 119.875 19.5442 118.205L19.5366 118.213Z" fill="#334756"/>
<path d="M16.172 120.857L13.3516 122.136C13.3516 122.136 12.5392 120.956 10.6155 120.39C8.73776 119.838 7.28923 118.766 6.64544 118C6.00931 117.233 3.74071 119.447 8.86805 122.014C4.43048 122.098 -0.436282 124.955 0.0312342 126.326C0.414444 127.054 1.72502 126.15 2.88998 125.729C4.76771 125.047 6.47682 124.794 6.47682 124.794C6.47682 124.794 2.63706 126.028 1.18086 127.652C0.284153 128.655 0.812982 129.475 2.39181 128.808C3.97063 128.134 6.33887 126.993 7.68777 126.993C4.56077 128.31 1.9856 130.647 2.27684 131.673C2.53743 132.493 6.52281 129.95 8.21659 129.337C5.70274 131.382 5.02829 133.343 5.40384 133.811C5.78705 134.278 8.3009 131.995 10.1403 129.866C11.6885 130.739 14.4399 130.394 16.287 126.939C18.6246 126.028 18.8928 125.859 18.8928 125.859C18.8928 125.859 18.6169 123.347 16.1644 120.872L16.172 120.857Z" fill="#F4D9BF"/>
<path d="M17.9578 126.264C18.7702 125.927 18.8929 125.842 18.8929 125.842C18.8929 125.842 18.617 123.33 16.1644 120.855L15.306 121.246C16.4403 122.794 17.2987 124.479 17.9502 126.264H17.9578Z" fill="#E3BB94"/>
<path d="M9.10556 122.004C9.40447 122.035 9.69571 122.096 9.98695 122.149L10.1096 122.172L10.0866 122.341C10.0559 122.555 10.0329 122.785 10.0253 123.007C10.0253 123.23 10.0253 123.452 10.0329 123.674C10.0559 123.896 10.0789 124.111 10.1172 124.325L10.1862 124.647C10.2015 124.754 10.2475 124.854 10.2705 124.961C10.3012 125.068 10.3395 125.168 10.3778 125.267C10.4161 125.367 10.4468 125.474 10.5004 125.574C10.5464 125.673 10.6001 125.765 10.6461 125.872C10.6921 125.972 10.761 126.064 10.8147 126.156C10.876 126.248 10.922 126.355 10.9986 126.439L11.1979 126.715C11.2592 126.815 11.3435 126.891 11.4125 126.983C11.4891 127.075 11.5581 127.167 11.6348 127.259C11.5275 127.205 11.4278 127.152 11.3205 127.09C11.2209 127.029 11.1059 126.968 11.0216 126.891C10.8377 126.738 10.6384 126.593 10.4851 126.401C10.3165 126.225 10.1786 126.018 10.0483 125.811C9.97928 125.712 9.9333 125.597 9.87199 125.482C9.81067 125.375 9.77235 125.26 9.73403 125.137C9.69571 125.022 9.64206 124.907 9.61907 124.785C9.58841 124.662 9.56542 124.54 9.54242 124.425C9.51177 124.179 9.48111 123.934 9.48877 123.689C9.49644 123.199 9.58841 122.716 9.78768 122.257L9.87965 122.448C9.6114 122.31 9.35082 122.18 9.0979 122.019L9.10556 122.004Z" fill="#C39368"/>
<path d="M77.3707 167.615C77.3707 167.615 76.9645 169.576 78.0068 170.848C76.2747 171.828 76.3897 172.87 77.4856 173.966C77.4856 173.966 72.067 189.11 72.4579 198.571C77.0028 203.788 85.0195 203.688 85.0195 203.688C85.0195 203.688 92.6531 183.312 92.8447 170.174C92.9443 167.278 93.1359 165.057 93.1359 165.057C93.1359 165.057 81.3024 167.424 77.3707 167.623V167.615Z" fill="#212121"/>
<path d="M65.4528 158.691C65.4528 158.691 61.5364 159.258 60.2105 159.449C63.4295 167.086 67.9207 175.743 67.9207 175.743C67.9207 175.743 66.0353 185.97 53.1365 182.055C48.423 171.193 39.6091 151.245 44.9204 144.097C49.0744 140.811 51.6036 140.949 55.612 143.439C58.5474 146.028 62.916 153.007 65.4528 158.691Z" fill="#212121"/>
<path d="M56.1025 149.021C56.1025 149.021 56.1868 149.175 56.3248 149.458C56.4551 149.734 56.6544 150.132 56.869 150.607C57.3135 151.565 57.8346 152.859 58.3558 154.162C58.6011 154.813 58.854 155.471 59.0686 156.092C59.2908 156.705 59.4978 157.287 59.6741 157.777C59.8503 158.275 59.973 158.696 60.0726 158.988C60.1646 159.286 60.2105 159.455 60.2105 159.455C60.2105 159.455 60.1186 159.302 59.973 159.034C59.8273 158.758 59.6127 158.382 59.3751 157.907C59.1376 157.433 58.8463 156.889 58.6011 156.276C58.3405 155.671 58.0799 155.019 57.8193 154.368C57.5664 153.71 57.3211 153.058 57.1142 152.43C56.8996 151.81 56.7157 151.22 56.5624 150.714C56.2635 149.703 56.1102 149.014 56.1102 149.014L56.1025 149.021Z" fill="#030303"/>
<path d="M64.4641 111.646C64.4641 111.646 64.5177 111.823 64.6174 112.16C64.717 112.497 64.855 112.987 65.0236 113.623C65.3685 114.887 65.8283 116.695 66.3341 118.878C66.6024 119.966 66.8323 121.153 67.0929 122.417C67.3458 123.673 67.6447 124.999 67.8823 126.378C68.1122 127.756 68.3498 129.189 68.5874 130.637C68.71 131.365 68.825 132.092 68.9476 132.828C69.0626 133.563 69.1469 134.306 69.2465 135.049C69.4228 136.535 69.5991 138.014 69.7754 139.477C69.9746 140.932 70.0666 142.38 70.1739 143.774C70.2735 145.169 70.3655 146.525 70.4575 147.804C70.5035 148.447 70.5418 149.068 70.5801 149.673C70.5878 150.278 70.6031 150.86 70.6108 151.42C70.6491 153.664 70.6491 155.526 70.6644 156.836C70.6644 158.138 70.6644 158.889 70.6644 158.889C70.6644 158.889 70.6184 158.145 70.5495 156.836C70.4881 155.533 70.3732 153.672 70.2812 151.435C70.2582 150.876 70.2276 150.293 70.2046 149.696C70.1433 149.098 70.0896 148.478 70.0283 147.842C69.9133 146.563 69.7907 145.222 69.6604 143.828C69.5378 142.434 69.4381 140.994 69.2235 139.546C69.0396 138.09 68.848 136.612 68.6564 135.133C68.5644 134.398 68.4878 133.655 68.3805 132.92C68.2655 132.184 68.1506 131.456 68.0356 130.729C67.8057 129.281 67.5834 127.856 67.3688 126.469C67.1236 125.091 66.886 123.765 66.6637 122.501C66.4338 121.237 66.2345 120.042 65.9969 118.955C65.7747 117.859 65.5754 116.856 65.3991 115.959C65.2228 115.071 65.0389 114.297 64.9009 113.661C64.6327 112.382 64.4564 111.662 64.4564 111.662L64.4641 111.646Z" fill="#030303"/>
<path d="M40.5059 141.485C40.5059 141.485 40.5672 141.248 40.7128 140.849C40.8661 140.459 41.0807 139.884 41.4102 139.241C41.7475 138.597 42.169 137.846 42.7055 137.111C42.9814 136.743 43.2726 136.368 43.6022 136.016C43.9317 135.656 44.2843 135.319 44.6599 134.997C45.0354 134.683 45.4416 134.384 45.8555 134.131C46.2693 133.878 46.7062 133.656 47.1354 133.495C47.5646 133.319 48.0014 133.204 48.423 133.12C48.8445 133.043 49.243 132.997 49.6109 132.99C49.9788 132.959 50.316 133.013 50.6149 133.028C50.9062 133.082 51.1668 133.112 51.3737 133.158C51.7876 133.266 52.0175 133.334 52.0175 133.334C52.0175 133.334 51.7799 133.312 51.3584 133.266C51.1514 133.25 50.8908 133.25 50.6073 133.235C50.316 133.258 49.9941 133.25 49.6416 133.304C48.9365 133.373 48.1394 133.595 47.3423 133.947C46.9361 134.116 46.5529 134.353 46.162 134.591C45.7712 134.836 45.4033 135.119 45.0431 135.426C44.6828 135.725 44.338 136.046 44.0237 136.383C43.7018 136.72 43.4029 137.057 43.1193 137.41C42.5675 138.107 42.077 138.781 41.7015 139.394C40.9351 140.604 40.5135 141.478 40.5135 141.478L40.5059 141.485Z" fill="#030303"/>
<path d="M57.0299 135.779C57.0299 135.779 58.1718 137.235 59.881 139.41C60.7317 140.506 61.7587 141.747 62.8393 143.087C63.9353 144.42 65.1079 145.837 66.3342 147.216C66.932 147.913 67.5375 148.61 68.1506 149.277C68.4572 149.614 68.7561 149.943 69.055 150.273C69.3616 150.594 69.6681 150.909 69.967 151.215C70.5572 151.843 71.155 152.425 71.7221 152.977C72.274 153.544 72.8411 154.026 73.3546 154.486C73.8605 154.953 74.3586 155.344 74.7955 155.689C75.2323 156.041 75.6156 156.347 75.9604 156.554C76.6349 157.006 77.0181 157.259 77.0181 157.259C77.0181 157.259 76.6119 157.037 75.8991 156.646C75.5389 156.462 75.1327 156.187 74.6652 155.857C74.1977 155.535 73.6688 155.183 73.14 154.731C72.6035 154.294 72.0057 153.827 71.4309 153.276C70.8408 152.747 70.2123 152.188 69.6068 151.56C69.3003 151.253 68.986 150.939 68.6718 150.625C68.3652 150.296 68.0587 149.966 67.7444 149.637C67.116 148.978 66.5028 148.289 65.8897 147.592C64.6787 146.19 63.5215 144.75 62.4408 143.394C61.3678 142.03 60.4251 140.72 59.6127 139.594C58.8003 138.468 58.1642 137.503 57.712 136.836C57.2675 136.162 57.0222 135.771 57.0222 135.771L57.0299 135.779Z" fill="#030303"/>
<path d="M93.0899 53.7416C93.0899 53.7416 93.4731 51.6197 93.7184 50.5549C93.9636 49.49 91.3502 49.2985 90.9133 48.8159C90.4764 48.3333 90.8137 46.4029 90.7217 45.4377C90.6221 44.4724 90.9669 43.8443 92.8983 43.2621C94.8297 42.6799 97.1979 42.2509 97.2439 42.6799C97.2899 43.1165 96.6155 44.1737 95.5041 44.8555C99.3209 43.7447 102.417 42.7795 102.417 42.7795C102.417 42.7795 102.9 47.7511 99.6658 50.0263C98.0717 58.4758 95.895 66.8333 95.895 66.8333C95.895 66.8333 92.998 59.395 93.0899 53.7493V53.7416Z" fill="#F4D9BF"/>
<path d="M93.3428 52.3866C93.2049 53.122 93.0899 53.7348 93.0899 53.7348C92.9903 59.3882 95.895 66.8189 95.895 66.8189C95.895 66.8189 96.1939 65.6545 96.6614 63.7623C94.9523 60.2232 94.0556 56.2474 93.3505 52.3789L93.3428 52.3866Z" fill="#E3BB94"/>
<path d="M93.6724 45.4835C93.6724 45.4835 93.9559 45.4222 94.3775 45.5218C94.5844 45.5754 94.8297 45.6597 95.0596 45.8129C95.1745 45.8972 95.2972 45.9814 95.3968 46.0963C95.4964 46.2112 95.5961 46.3338 95.6651 46.4717C95.7494 46.6096 95.78 46.7628 95.826 46.9083C95.8643 47.0539 95.8567 47.2071 95.8643 47.3527C95.849 47.4905 95.826 47.6284 95.803 47.751C95.7724 47.8736 95.7264 47.9808 95.6881 48.0804C95.6191 48.2872 95.4964 48.4175 95.4351 48.5247C95.3662 48.6243 95.3202 48.6779 95.3202 48.6779C95.3202 48.6779 95.3202 48.609 95.3278 48.4864C95.3278 48.3638 95.3738 48.203 95.3662 48.0115C95.3662 47.9195 95.3738 47.8123 95.3815 47.705C95.3738 47.5978 95.3585 47.4905 95.3585 47.3833C95.3125 47.1688 95.2742 46.9466 95.1592 46.7551C94.9676 46.3568 94.5691 46.058 94.2548 45.8435C93.9329 45.6367 93.68 45.4988 93.68 45.4988L93.6724 45.4835Z" fill="#C39368"/>
<path d="M96.3088 46.2344C96.3088 46.2344 96.3088 46.1731 96.3165 46.0659C96.3242 45.9586 96.3702 45.8131 96.4315 45.6369C96.5081 45.476 96.5924 45.2692 96.738 45.1007C96.807 45.0164 96.876 44.9168 96.9526 44.8249C97.0369 44.7406 97.1289 44.664 97.2132 44.5798C97.3971 44.4189 97.5964 44.2887 97.7957 44.1967C97.9873 44.0895 98.1789 44.0052 98.3628 43.9746C98.7077 43.8827 98.953 43.875 98.953 43.875C98.953 43.875 98.7844 44.0665 98.5161 44.2657C98.4472 44.3193 98.3782 44.3729 98.3015 44.4266C98.2326 44.4878 98.1559 44.5568 98.0793 44.6181C97.9183 44.7483 97.742 44.8632 97.5888 45.0164C97.4125 45.1466 97.2669 45.2922 97.1136 45.4224C96.9526 45.5526 96.8377 45.6982 96.7074 45.8054C96.4775 46.0429 96.3088 46.2191 96.3088 46.2191V46.2344Z" fill="#C39368"/>
<g style="mix-blend-mode:multiply" opacity="0.5">
<path d="M25.0702 129.069C25.4534 130.977 25.691 133.144 25.6833 135.611C31.6537 132.708 39.8314 126.196 44.6675 115.732C45.0278 113.717 45.3496 111.488 45.6026 109.029C37.8541 120.099 30.4198 125.967 25.0779 129.061L25.0702 129.069Z" fill="#2E2E30"/>
<path d="M75.1633 96.6741C76.2593 98.3671 77.3783 99.9681 78.4819 101.454C88.5527 94.5215 95.9793 85.9112 99.9723 76.4352C98.3245 76.3586 96.9603 75.5236 95.8336 74.252C92.6147 80.4646 86.5293 88.8604 75.1556 96.6818L75.1633 96.6741Z" fill="#2E2E30"/>
</g>
<g style="mix-blend-mode:multiply" opacity="0.5">
<path d="M89.8556 143.135C89.0892 138.378 87.8783 131.905 86.1615 124.98C87.2805 132.977 87.8553 142.2 85.602 146.705C85.602 146.705 87.5334 145.74 88.6983 145.74C89.8633 145.74 86.5754 150.374 86.5754 150.374C86.5754 150.374 90.829 152.305 94.3085 161.382C85.8089 163.121 75.9528 164.469 75.9528 164.469L72.09 154.036C72.09 154.036 69.7524 139.956 68.4112 132.893C69.7754 147.272 67.2616 148.628 67.2616 148.628L56.6313 134.525C56.6313 134.525 64.5561 147.272 64.7477 150.167C64.9393 153.063 58.3711 138.769 50.0631 139.542C41.7551 140.316 43.104 144.567 42.5292 141.664C41.9467 138.769 46.4686 133.299 52.0405 133.33C46.9744 131.621 45.4339 132.778 45.4339 132.778L44.4683 120.414L44.4223 120.514C43.6865 128.327 42.6288 134.601 40.5365 141.473C39.3869 144.928 38.4749 152.312 41.1037 158.609C40.7435 154.963 40.9044 149.685 43.7478 145.318C47.5339 140.982 50.6379 140.224 55.4511 143.319C60.2718 146.414 67.6371 163.42 69.4305 166.584C70.5342 160.731 70.8791 158.395 70.8791 158.395L73.7685 168.169C73.7685 168.169 85.9546 166.653 90.9133 165.557C94.3928 164.783 96.5771 164.523 97.7191 165.075C97.7114 163.474 95.5731 153.3 90.9363 147.647C92.4845 144.843 93.5421 143.786 89.871 143.104L89.8556 143.135Z" fill="#2E2E30"/>
</g>
<g style="mix-blend-mode:multiply" opacity="0.5">
<path d="M60.2105 159.451C61.5364 159.259 65.4528 158.693 65.4528 158.693C62.916 153.009 58.5474 146.03 55.612 143.441C51.6036 140.951 49.0745 140.813 44.9205 144.099C43.4106 146.129 43.0427 149.194 43.3953 152.794C43.7402 149.492 44.6982 145.869 47.1891 145.111C51.9715 143.663 53.8569 151.193 56.754 158.44C59.651 165.687 65.3072 176.404 65.3072 176.404C65.3072 176.404 64.1193 182.708 52.4774 180.548C52.6996 181.061 52.9219 181.567 53.1288 182.049C66.0277 185.964 67.913 175.737 67.913 175.737C67.913 175.737 63.4295 167.088 60.2029 159.443L60.2105 159.451Z" fill="#1D1D1E"/>
</g>
<g style="mix-blend-mode:multiply" opacity="0.5">
<path d="M93.1359 165.059C93.1359 165.059 81.3024 167.426 77.3707 167.625C77.3707 167.625 76.9645 169.586 78.0068 170.858C76.2747 171.838 76.3897 172.88 77.4856 173.975C77.4856 173.975 72.067 189.12 72.4579 198.581C73.0251 199.232 73.6382 199.799 74.2897 200.289C75.0714 196.214 78.9035 176.84 81.1031 175.546C83.571 174.098 83.709 174.243 82.1148 173.807C80.5206 173.37 79.0721 172.213 80.5207 171.202C81.9692 170.191 84.7206 167.87 89.0739 167.724C91.6644 167.64 92.2469 172.551 92.3005 176.526C92.6148 174.312 92.814 172.167 92.8447 170.191C92.9443 167.295 93.1359 165.074 93.1359 165.074V165.059Z" fill="#1D1D1E"/>
</g>
<path d="M40.7818 31.7051L13.2213 58.2256L13.5892 59.2368L41.1496 32.7163L76.0141 36.0639L75.6462 35.0604L40.7818 31.7051Z" fill="#1D1D1E"/>
<path d="M13.5892 59.2373L13.6199 59.3062L25.5454 62.4317L69.7065 47.7696L76.2287 36.639L76.0141 36.0644L41.1497 32.7168L13.5892 59.2373Z" fill="#212121"/>
<path d="M25.8979 60.4249L23.7059 53.8905C23.7059 53.8905 38.2526 39.4888 66.3189 39.2207C67.8824 44.3609 68.3805 46.3756 68.3805 46.3756C68.3805 46.3756 46.162 47.923 25.9056 60.4249H25.8979Z" fill="#1D1D1E"/>
<g style="mix-blend-mode:multiply">
<path d="M31.4622 48.3062C38.199 45.4641 49.6569 41.136 52.0482 43.5107C55.3285 46.7741 39.203 49.5089 25.576 59.4751L25.8979 60.4327C46.1544 47.9385 68.3729 46.3834 68.3729 46.3834C68.3729 46.3834 67.8747 44.361 66.3112 39.2285C50.1321 39.3817 38.4519 44.2308 31.4545 48.3138L31.4622 48.3062Z" fill="#1D1D1E"/>
</g>
<path d="M106.775 40.9037C97.7272 45.355 85.9942 49.4177 85.1686 47.7177C84.343 46.0177 94.7352 39.1948 103.783 34.7409C104.327 34.4733 104.855 34.2188 105.364 33.982C113.332 30.2505 117.158 29.9984 117.934 31.5967C118.711 33.195 116.164 36.0793 108.343 40.1159C107.842 40.3748 107.32 40.6368 106.777 40.9044L106.775 40.9037Z" fill="#FF8D29"/>
<path d="M123.912 32.8709C122.037 33.7934 119.78 33.0151 118.866 31.1373C117.952 29.2594 118.734 26.9873 120.605 26.0642C121.217 25.7636 121.868 25.6421 122.501 25.6839C123.807 25.767 126.948 27.1965 129.365 25.627C128.076 29.6799 124.468 32.5955 123.909 32.8702L123.912 32.8709Z" fill="#0A0C09"/>
<path d="M108.339 40.1159C107.693 39.2172 107.103 38.234 106.59 37.1773C106.076 36.1205 105.667 35.0487 105.36 33.982C113.329 30.2505 117.154 29.9984 117.931 31.5967C118.707 33.195 116.16 36.0793 108.339 40.1159Z" fill="white"/>
<path d="M152.559 29.3444C151.088 30.1347 149.464 30.536 147.691 30.5469C145.917 30.5579 144.372 30.3801 143.05 30.0198C141.73 29.6564 140.509 29.1115 139.387 28.3853C138.268 27.661 137.369 26.6779 136.697 25.4368C136.025 24.1957 135.688 22.7502 135.696 21.0928C135.703 19.4385 136.015 17.9122 136.635 16.5108C137.255 15.1094 138.089 13.9652 139.134 13.0813C141.279 11.239 143.886 10.305 146.957 10.2843C149.083 10.2701 150.817 10.5298 152.161 11.0553C153.507 11.5858 154.692 12.5418 155.716 13.9263L155.773 10.0258L163.999 10.6681L163.859 29.3228L157.01 29.8804L155.916 26.2791C155.146 27.5276 154.024 28.5502 152.553 29.3406L152.559 29.3444ZM147.438 17.8152C146.731 18.6433 146.376 19.6282 146.369 20.7709C146.364 21.9105 146.704 22.8993 147.393 23.7311C148.082 24.5628 149.068 24.9757 150.355 24.9684C151.643 24.9612 152.64 24.5848 153.356 23.8398C154.07 23.098 154.43 22.0773 154.435 20.7859C154.441 19.4913 154.087 18.4634 153.374 17.6989C152.66 16.9344 151.669 16.5574 150.403 16.5648C149.137 16.5721 148.147 16.9921 147.439 17.8202L147.438 17.8152Z" fill="#334756"/>
<path d="M185.995 175.527C187.868 174.376 190.744 172.356 191.787 170.587C192.83 168.818 193.442 167.294 192.615 164.411C191.014 161.167 187.346 163.231 186.251 164.411C184.34 166.471 180.203 168.941 176.894 169.764C172.801 170.782 169.151 166.727 169.003 163.798C168.619 157.414 176.305 155.083 181.858 154.12C185.136 152.144 182.434 149.778 180.673 148.842C178.682 148.056 176.799 147.822 175.026 148.133C173.257 148.449 171.248 149.293 169.003 150.674C165.76 152.669 163.606 155.318 162.535 158.617C162.005 160.21 161.869 161.939 162.127 163.798C162.386 165.658 162.58 168.509 163.655 170.237C164.73 171.97 167.923 175.489 169.447 176.351C170.971 177.213 173.579 177.961 175.239 177.997C176.903 178.033 178.566 177.698 180.203 177.229C181.841 176.755 184.122 176.678 185.995 175.527Z" fill="#334756"/>
<path d="M134.521 107.504C136.151 106.675 137.945 106.275 139.899 106.307C141.852 106.338 143.553 106.571 145.004 106.998C146.454 107.429 147.792 108.056 149.019 108.88C150.242 109.701 151.221 110.8 151.945 112.177C152.67 113.554 153.022 115.146 152.992 116.962C152.965 118.774 152.602 120.439 151.901 121.96C151.2 123.48 150.268 124.713 149.105 125.656C146.719 127.622 143.835 128.582 140.452 128.529C138.11 128.492 136.202 128.165 134.728 127.556C133.253 126.941 131.959 125.864 130.848 124.322L130.737 128.595L121.683 127.688L121.683 88.7429L129.235 88.3006L130.784 110.781C131.648 109.432 132.897 108.339 134.527 107.509L134.521 107.504ZM140.016 120.264C140.806 119.374 141.209 118.304 141.231 117.052C141.252 115.803 140.89 114.711 140.141 113.783C139.392 112.854 138.312 112.378 136.893 112.354C135.475 112.33 134.371 112.718 133.573 113.517C132.777 114.312 132.368 115.422 132.347 116.837C132.323 118.255 132.7 119.39 133.477 120.246C134.253 121.101 135.34 121.538 136.735 121.562C138.129 121.585 139.226 121.149 140.015 120.259L140.016 120.264Z" fill="#334756"/>
</svg>
