<svg width="193" height="136" viewBox="0 0 193 136" fill="none" xmlns="http://www.w3.org/2000/svg">
<path d="M192.952 117.691C190.427 92.2441 184.111 29.0393 182.731 19.8018C180.997 8.19122 166.76 10.7541 166.76 10.7541L163.711 128.252H183.563C186.231 128.252 188.776 127.102 190.563 125.088C192.351 123.072 193.22 120.393 192.952 117.692V117.691Z" fill="#717171"/>
<path d="M32.3446 131.21C26.1454 131.078 21.2273 125.95 21.3579 119.755L23.3829 24.3671C23.4951 19.1043 27.714 14.8527 32.9791 14.6972L171.519 10.5892C175.639 10.4666 179.041 13.7783 179.029 17.8967L178.697 127.266C178.685 131.136 175.499 134.243 171.627 134.162L32.3446 131.21Z" fill="url(#paint0_linear_8420_407)"/>
<path d="M23.4158 123.206C21.4316 123.176 19.9343 121.4 20.2417 119.441C22.2865 106.452 28.7033 61.7756 26.6453 24.6803C26.5516 22.9889 27.863 21.5506 29.5582 21.4966L168.722 17.0604C170.629 16.9997 172.228 18.4881 172.301 20.3944C172.893 35.9903 175.096 100.213 172.212 123.042C172.037 124.432 170.842 125.464 169.439 125.443L23.4144 123.206H23.4158Z" fill="#334756"/>
<path d="M26.933 121.746C25.024 121.717 23.5821 120.008 23.8789 118.123C25.8459 105.624 32.0226 62.6291 30.0411 26.93C29.9514 25.3018 31.2126 23.9176 32.8432 23.8662L166.767 19.5974C168.603 19.5394 170.141 20.9724 170.211 22.8062C170.781 37.8141 172.902 99.6188 170.127 121.589C169.958 122.926 168.808 123.92 167.459 123.899L26.933 121.746Z" fill="#717171"/>
<path d="M109.245 46.5406L109.04 56.1789C109.009 57.6501 110.189 58.8617 111.662 58.8696L121.555 58.925C122.995 58.9329 124.176 57.7846 124.206 56.345L124.421 46.2123C124.453 44.6896 123.191 43.4557 121.668 43.5242L111.765 43.9632C110.377 44.0252 109.274 45.1523 109.245 46.5406Z" fill="url(#paint1_linear_8420_407)"/>
<path d="M74.6568 58.7907L84.5498 58.846C85.9904 58.854 87.1712 57.7057 87.2015 56.2661L87.3849 47.6481C87.4165 46.1334 86.1685 44.9047 84.654 44.9587L74.7517 45.3147C73.3547 45.3648 72.2399 46.4959 72.2096 47.892L72.0354 56.0986C72.0038 57.5699 73.1845 58.7815 74.6568 58.7894V58.7907Z" fill="url(#paint2_linear_8420_407)"/>
<path d="M83.3242 101.724L73.914 101.633C72.3375 101.617 71.042 102.872 71.009 104.448L70.8217 113.254C70.7887 114.819 72.013 116.123 73.5776 116.189L82.9812 116.587C84.5933 116.655 85.9456 115.386 85.9799 113.775L86.1738 104.661C86.2081 103.061 84.9271 101.74 83.3242 101.724Z" fill="url(#paint3_linear_8420_407)"/>
<path d="M67.4919 113.041L67.6753 104.431C67.7083 102.857 66.4497 101.56 64.8746 101.546L55.3654 101.453C53.8166 101.439 52.5435 102.671 52.5106 104.219L52.3338 112.521C52.3008 114.058 53.504 115.339 55.0422 115.405L64.5447 115.807C66.1292 115.874 67.459 114.627 67.4919 113.043V113.041Z" fill="url(#paint4_linear_8420_407)"/>
<path d="M68.3177 74.171L68.4681 67.1021C68.5038 65.3949 67.1278 63.9921 65.4194 63.9961L56.339 64.0119C54.6846 64.0146 53.3364 65.3368 53.3008 66.9887L53.157 73.7438C53.1213 75.4102 54.434 76.7945 56.1002 76.8485L65.174 77.1451C66.8679 77.2005 68.2808 75.8624 68.3164 74.1697L68.3177 74.171Z" fill="url(#paint5_linear_8420_407)"/>
<path d="M67.8812 94.71L68.1107 83.8984C68.1437 82.3507 66.9247 81.064 65.3759 81.0139L56.0898 80.7106C54.3958 80.6553 52.9829 81.9934 52.9473 83.6861L52.7164 94.59C52.6835 96.1747 53.9592 97.4759 55.5436 97.4772H65.0554C66.5936 97.4772 67.8509 96.2485 67.8838 94.7113L67.8812 94.71Z" fill="url(#paint6_linear_8420_407)"/>
<path d="M93.158 58.8946L103.051 58.9499C104.492 58.9579 105.672 57.8096 105.703 56.37L105.902 46.9821C105.934 45.4674 104.686 44.2387 103.171 44.2927L93.2688 44.6487C91.8717 44.6988 90.757 45.8299 90.7266 47.226L90.5366 56.2025C90.505 57.6738 91.6857 58.8853 93.158 58.8933V58.8946Z" fill="url(#paint7_linear_8420_407)"/>
<path d="M86.3862 94.6629L86.6012 84.5513C86.6342 82.9759 85.3941 81.6681 83.8176 81.6154L74.4114 81.3082C72.8098 81.2555 71.4734 82.5211 71.4404 84.1215L71.2188 94.5403C71.1845 96.1526 72.4826 97.4776 74.0961 97.4776H83.5089C85.0749 97.4776 86.3532 96.2278 86.3862 94.6643V94.6629Z" fill="url(#paint8_linear_8420_407)"/>
<path d="M103.308 63.9258L92.5049 63.9456C91.3189 63.9482 90.3518 64.8961 90.3268 66.0799L90.121 75.8026C90.0959 76.997 91.0365 77.9897 92.2318 78.0293L103.027 78.3826C104.242 78.4222 105.255 77.4624 105.28 76.2495L105.494 66.1538C105.521 64.9304 104.534 63.9245 103.308 63.9258Z" fill="url(#paint9_linear_8420_407)"/>
<path d="M108.82 66.5925L108.623 75.8525C108.592 77.3541 109.775 78.6012 111.276 78.6513L120.952 78.9677C122.478 79.0178 123.751 77.8115 123.784 76.2862L123.987 66.6927C124.02 65.1542 122.779 63.8899 121.239 63.8926L111.557 63.9097C110.067 63.9124 108.852 65.1041 108.82 66.5925Z" fill="url(#paint10_linear_8420_407)"/>
<path d="M73.7399 77.4257L84.5353 77.7791C85.7504 77.8186 86.7636 76.8589 86.7886 75.6447L86.9891 66.187C87.0155 64.9636 86.0287 63.9577 84.8032 63.959L73.9998 63.9788C72.8138 63.9814 71.8468 64.9293 71.8218 66.1131L71.6292 75.1978C71.6041 76.3922 72.5447 77.3849 73.7399 77.4244V77.4257Z" fill="url(#paint11_linear_8420_407)"/>
<path d="M102.308 82.2228L92.902 81.9157C91.3004 81.8629 89.964 83.1285 89.931 84.729L89.7226 94.544C89.6883 96.1563 90.9864 97.4812 92.5999 97.4812H102.013C103.579 97.4812 104.857 96.2314 104.89 94.6679L105.092 85.1588C105.125 83.5834 103.885 82.2742 102.308 82.2228Z" fill="url(#paint12_linear_8420_407)"/>
<path d="M121.125 82.8368L111.06 82.5072C109.642 82.4611 108.459 83.5804 108.43 84.9989L108.22 94.8811C108.189 96.3089 109.339 97.4822 110.767 97.4822H120.838C122.225 97.4835 123.357 96.3761 123.387 94.9905L123.59 85.4366C123.619 84.0418 122.52 82.883 121.126 82.8368H121.125Z" fill="url(#paint13_linear_8420_407)"/>
<path d="M57.5381 58.5672L65.0473 58.6094C67.0446 58.6213 68.6818 57.0288 68.724 55.0328L68.856 48.8419C68.8955 46.9712 67.3533 45.4525 65.4827 45.5197L57.1265 45.819C55.2308 45.8875 53.7176 47.4221 53.6767 49.3178L53.5672 54.4883C53.5197 56.7176 55.3086 58.5541 57.5408 58.5672H57.5381Z" fill="url(#paint14_linear_8420_407)"/>
<path d="M49.1696 104.47C49.2052 102.777 47.8504 101.38 46.1566 101.364L42.8864 101.332C40.401 101.309 38.3682 102.95 38.3246 105.018L38.198 111.002C38.1545 113.054 40.0844 114.771 42.5473 114.876L46.059 115.024C47.6433 115.092 48.973 113.845 49.006 112.26L49.1709 104.47H49.1696Z" fill="url(#paint15_linear_8420_407)"/>
<path d="M154.348 102.414L147.916 102.352C146.338 102.336 145.041 103.592 145.008 105.169L144.771 116.381C144.738 117.948 145.963 119.251 147.528 119.319L153.931 119.589C156.484 119.697 158.626 118.033 158.671 115.908L158.876 106.292C158.92 104.184 156.884 102.439 154.348 102.414Z" fill="url(#paint16_linear_8420_407)"/>
<path d="M43.145 97.4758H46.3374C47.993 97.4758 49.3451 96.1535 49.3807 94.499L49.6142 83.508C49.6499 81.8417 48.3373 80.4574 46.6712 80.4034L43.4576 80.2979C40.9235 80.2149 38.8141 81.872 38.7693 83.9813L38.5648 93.5972C38.52 95.7237 40.5897 97.4758 43.145 97.4758Z" fill="url(#paint17_linear_8420_407)"/>
<path d="M43.414 76.4328L47.4336 76.5647C48.7145 76.6069 49.783 75.5944 49.8107 74.3143L49.9796 66.3766C50.0073 65.086 48.9665 64.0247 47.6737 64.0273L43.6145 64.0353C41.153 64.0392 39.1584 65.6739 39.1148 67.7213L39.0119 72.5583C38.9684 74.6267 40.9287 76.3524 43.414 76.4342V76.4328Z" fill="url(#paint18_linear_8420_407)"/>
<path d="M155.376 42.2945L148.925 42.5266C147.471 42.5793 146.312 43.7553 146.281 45.2081L146.047 56.2834C146.014 57.814 147.242 59.0743 148.773 59.0835L155.415 59.1204C157.893 59.1349 159.911 57.4949 159.956 55.4344L160.153 46.1704C160.199 43.9807 158.006 42.2009 155.377 42.2945H155.376Z" fill="url(#paint19_linear_8420_407)"/>
<path d="M101.824 101.906L92.4138 101.815C90.8373 101.799 89.5418 103.054 89.5088 104.629L89.3096 114.038C89.2766 115.603 90.5009 116.907 92.0655 116.973L101.469 117.371C103.081 117.439 104.433 116.17 104.468 114.559L104.674 104.843C104.708 103.242 103.427 101.921 101.824 101.906Z" fill="url(#paint20_linear_8420_407)"/>
<path d="M155.104 63.8314L148.566 63.8433C147.075 63.8459 145.86 65.0377 145.829 66.5261L145.605 77.0622C145.573 78.5638 146.755 79.8109 148.257 79.8597L154.822 80.0746C157.356 80.1576 159.465 78.5005 159.51 76.3912L159.695 67.7086C159.739 65.5795 157.664 63.8248 155.104 63.8301V63.8314Z" fill="url(#paint21_linear_8420_407)"/>
<path d="M154.866 83.941L148.042 83.7182C146.624 83.672 145.441 84.7913 145.411 86.2098L145.226 94.8858C145.196 96.3135 146.345 97.4868 147.773 97.4868H154.63C157.096 97.4868 159.097 95.8521 159.141 93.8021L159.267 87.8182C159.311 85.7497 157.35 84.024 154.865 83.9423L154.866 83.941Z" fill="url(#paint22_linear_8420_407)"/>
<path d="M126.92 85.6057L126.723 94.8841C126.693 96.3118 127.842 97.4852 129.271 97.4852H139.342C140.729 97.4852 141.861 96.3791 141.891 94.9935L142.081 86.042C142.11 84.6472 141.011 83.4884 139.616 83.4423L129.552 83.1127C128.134 83.0666 126.95 84.1858 126.92 85.6044V85.6057Z" fill="url(#paint23_linear_8420_407)"/>
<path d="M138.822 102.261L129.416 102.17C127.838 102.154 126.541 103.411 126.508 104.987L126.283 115.597C126.25 117.163 127.475 118.467 129.04 118.535L138.44 118.931C140.053 119 141.407 117.73 141.441 116.117L141.673 105.201C141.708 103.599 140.425 102.277 138.821 102.261H138.822Z" fill="url(#paint24_linear_8420_407)"/>
<path d="M43.943 58.4889L47.8795 58.5113C49.1367 58.5179 50.1669 57.516 50.1946 56.2596L50.3595 48.4959C50.3872 47.1737 49.2976 46.1005 47.9758 46.148L43.8072 46.297C41.4208 46.3827 39.5357 47.9923 39.4935 49.9791L39.3945 54.6104C39.3497 56.7263 41.401 58.4744 43.9444 58.4889H43.943Z" fill="url(#paint25_linear_8420_407)"/>
<path d="M120.321 102.084L111.073 101.994C109.408 101.978 108.039 103.303 108.005 104.968L107.796 114.818C107.763 116.384 108.989 117.688 110.555 117.755L119.954 118.153C121.568 118.222 122.921 116.951 122.956 115.338L123.175 105.025C123.209 103.423 121.927 102.101 120.323 102.087L120.321 102.084Z" fill="url(#paint26_linear_8420_407)"/>
<path d="M127.763 45.8718L127.544 56.1785C127.511 57.7091 128.739 58.9694 130.271 58.9787L139.952 59.0327C141.45 59.0406 142.679 57.8462 142.71 56.3499L142.937 45.6411C142.97 44.0657 141.672 42.7869 140.095 42.8436L130.407 43.1916C128.953 43.2444 127.793 44.4203 127.763 45.8731V45.8718Z" fill="url(#paint27_linear_8420_407)"/>
<path d="M127.324 66.5593L127.114 76.4574C127.082 77.9589 128.266 79.2061 129.767 79.2562L139.442 79.5726C140.969 79.6227 142.242 78.4164 142.275 76.8911L142.493 66.6595C142.525 65.121 141.284 63.8567 139.745 63.8594L130.063 63.8765C128.572 63.8792 127.357 65.0709 127.325 66.5593H127.324Z" fill="url(#paint28_linear_8420_407)"/>
<path d="M42.8696 37.9468L43.3154 41.211C43.4579 42.2564 44.3404 43.0421 45.3958 43.0645L45.5501 43.0672C46.7348 43.0922 47.7149 42.1536 47.74 40.9697L47.8112 37.629C47.8389 36.3344 46.7202 35.3114 45.4314 35.4525L44.7599 35.5263C43.5608 35.6581 42.706 36.7524 42.8696 37.9468Z" fill="#334756"/>
<path d="M58.029 37.1095L58.4749 40.3737C58.6173 41.4191 59.4999 42.2049 60.5552 42.2273L60.7096 42.2312C61.8942 42.2563 62.8743 41.3176 62.8994 40.1338L62.9706 36.7931C62.9983 35.4985 61.8797 34.4755 60.5908 34.6165L59.9194 34.6904C58.7202 34.8222 57.8654 35.9164 58.029 37.1108V37.1095Z" fill="#334756"/>
<path d="M76.6818 37.3647L77.1277 40.6289C77.2702 41.6744 78.1527 42.4601 79.208 42.4825L79.3624 42.4851C80.547 42.5102 81.5272 41.5715 81.5522 40.3877L81.6235 37.047C81.6512 35.7524 80.5325 34.7294 79.2437 34.8704L78.5722 34.9443C77.3731 35.0761 76.5182 36.1703 76.6818 37.3647Z" fill="#334756"/>
<path d="M94.8544 36.5503L95.3003 39.8145C95.4428 40.8599 96.3253 41.6456 97.3806 41.668L97.535 41.6707C98.7196 41.6957 99.6998 40.7571 99.7248 39.5732L99.7961 36.2326C99.8238 34.938 98.7051 33.9149 97.4163 34.056L96.7448 34.1298C95.5457 34.2617 94.6908 35.3559 94.8544 36.5503Z" fill="#334756"/>
<path d="M113.519 34.1792L113.965 37.4434C114.108 38.4888 114.99 39.2745 116.045 39.2969L116.2 39.2996C117.384 39.3246 118.365 38.386 118.39 37.2021L118.461 33.8615C118.489 32.5669 117.37 31.5438 116.081 31.6849L115.41 31.7587C114.21 31.8906 113.356 32.9848 113.519 34.1792Z" fill="#334756"/>
<path d="M133.292 34.5991L133.738 37.8633C133.88 38.9087 134.763 39.6945 135.818 39.7169L135.973 39.7195C137.157 39.7446 138.137 38.8059 138.162 37.622L138.234 34.2814C138.261 32.9868 137.143 31.9638 135.854 32.1048L135.182 32.1786C133.983 32.3105 133.128 33.4047 133.292 34.5991Z" fill="#334756"/>
<path d="M149.982 34.2495L150.428 37.5137C150.57 38.5591 151.453 39.3449 152.508 39.3673L152.662 39.3699C153.847 39.3949 154.827 38.4563 154.852 37.2724L154.924 33.9318C154.951 32.6372 153.833 31.6142 152.544 31.7552L151.872 31.829C150.673 31.9609 149.818 33.0551 149.982 34.2495Z" fill="#334756"/>
<path d="M179.029 126.441C178.836 126.441 178.679 126.285 178.678 126.093L178.251 64.5096C178.251 64.3158 178.405 64.1576 178.599 64.1562H178.602C178.794 64.1562 178.951 64.3118 178.953 64.5043L179.38 126.088C179.38 126.281 179.226 126.44 179.032 126.441H179.029Z" fill="#334756"/>
<path d="M178.504 50.7158C178.311 50.7158 178.154 50.5602 178.153 50.3678L178.004 28.8592C178.004 28.6654 178.158 28.5072 178.352 28.5059H178.355C178.548 28.5059 178.705 28.6614 178.706 28.8539L178.855 50.3625C178.855 50.5563 178.701 50.7145 178.507 50.7158H178.504Z" fill="#334756"/>
<path d="M48.0416 32.37C49.9572 31.577 50.8669 29.3823 50.0734 27.4679C49.2799 25.5535 47.0836 24.6443 45.168 25.4373C43.2523 26.2302 42.3426 28.425 43.1361 30.3394C43.9297 32.2538 46.1259 33.1629 48.0416 32.37Z" fill="#334756"/>
<path d="M80.0243 31.2702C81.4905 29.805 81.4905 27.4294 80.0243 25.9642C78.5581 24.499 76.1809 24.499 74.7146 25.9642C73.2484 27.4294 73.2484 29.805 74.7146 31.2702C76.1809 32.7354 78.5581 32.7354 80.0243 31.2702Z" fill="#334756"/>
<path d="M111.078 30.2545C112.544 28.7893 112.544 26.4138 111.078 24.9486C109.612 23.4834 107.235 23.4834 105.768 24.9486C104.302 26.4138 104.302 28.7893 105.768 30.2545C107.235 31.7197 109.612 31.7197 111.078 30.2545Z" fill="#334756"/>
<path d="M139.189 29.9141C141.262 29.9141 142.943 28.2343 142.943 26.1621C142.943 24.09 141.262 22.4102 139.189 22.4102C137.115 22.4102 135.434 24.09 135.434 26.1621C135.434 28.2343 137.115 29.9141 139.189 29.9141Z" fill="#334756"/>
<path d="M142.045 0.160543C135.726 1.5382 136.322 18.1505 136.832 24.8951C136.952 26.4823 138.273 27.7058 139.867 27.7058C140.309 27.7058 140.73 27.5159 141.025 27.1863C141.321 26.8581 141.462 26.4178 141.415 25.9788C140.868 20.8808 139.707 6.20114 144.359 5.41673C144.359 5.41673 147.696 4.82612 148.258 11.2859H151.867C151.867 11.2859 149.99 -1.57174 142.045 0.160543Z" fill="#334756"/>
<path d="M111.279 1.01551C104.96 2.39317 105.556 19.0107 106.065 25.7553C106.185 27.3426 107.507 28.57 109.101 28.57C109.543 28.57 109.964 28.3814 110.259 28.0519C110.555 27.7236 110.696 27.2833 110.648 26.8443C110.102 21.7463 108.941 7.05611 113.593 6.27038C113.593 6.27038 116.929 5.80897 117.491 12.1277H121.101C121.101 12.1277 119.224 -0.718093 111.279 1.01419V1.01551Z" fill="#334756"/>
<path d="M80.5142 1.87039C74.195 3.24804 74.7913 19.8696 75.3005 26.6142C75.4206 28.2014 76.7425 29.4301 78.3361 29.4301C78.7781 29.4301 79.1989 29.2429 79.4944 28.9133C79.7899 28.5851 79.9311 28.1461 79.8836 27.7071C79.3374 22.6091 78.1765 7.91098 82.8282 7.12658C82.8282 7.12658 86.1632 6.75085 86.7252 13.1026L90.3373 12.9773C90.3373 12.9773 88.46 0.13942 80.5155 1.87171L80.5142 1.87039Z" fill="#334756"/>
<path d="M49.7494 2.86714C43.4302 4.2448 44.0265 20.8755 44.5358 27.6201C44.6558 29.2074 45.9777 30.4414 47.5713 30.4414C48.0133 30.4414 48.4341 30.2555 48.7296 29.9272C49.0252 29.5989 49.1663 29.1613 49.1188 28.7209C48.5727 23.623 47.4117 8.90774 52.0634 8.12201C52.0634 8.12201 55.3998 7.63686 55.9618 13.9543H59.5712C59.5712 13.9543 57.6939 1.13486 49.7494 2.86583V2.86714Z" fill="#334756"/>
<path d="M36.3889 135.234C35.0315 135.351 32.6754 135.541 30.818 135.623C29.702 135.671 29.0582 135.562 28.6888 135.414C28.6888 135.457 28.6902 135.496 28.6928 135.532C28.702 135.727 28.8603 135.884 29.0582 135.894C32.5685 136.091 35.3586 135.961 36.3533 135.902C36.5591 135.89 36.6817 135.666 36.5762 135.491C36.5234 135.404 36.4601 135.318 36.3902 135.232L36.3889 135.234Z" fill="#334756"/>
<path d="M30.8166 135.624C32.674 135.543 35.0301 135.353 36.3875 135.236C35.0525 133.6 30.8166 132.496 30.8166 132.496H29.6201C28.797 133.681 28.6783 134.81 28.6875 135.416C29.0582 135.564 29.7006 135.673 30.8166 135.624Z" fill="#212121"/>
<path d="M29.4195 130.543L29.5317 132.758C29.5435 132.998 29.7229 133.199 29.963 133.234C30.2018 133.268 30.5224 133.272 30.8614 133.16C31.0698 133.09 31.2255 132.915 31.2637 132.7L31.6503 130.544H29.4182L29.4195 130.543Z" fill="url(#paint29_linear_8420_407)"/>
<path d="M13.8774 135.603C13.2891 135.521 13.0226 135.216 12.9105 134.889L12.9078 134.898C12.8207 135.242 13.0226 135.599 13.4236 135.769C13.9091 135.975 14.4394 136.009 14.851 135.992C15.2929 135.974 15.6979 135.792 15.9208 135.499L15.9248 135.495C15.4815 135.714 14.8589 135.74 13.8774 135.603Z" fill="#334756"/>
<path d="M16.6529 130.527H15.6662C14.1636 130.496 13.2191 133.664 12.9104 134.89C13.0225 135.217 13.289 135.523 13.8774 135.605C14.8588 135.742 15.4815 135.716 15.9247 135.497C16.7373 134.429 17.1397 132.865 17.3323 131.952C17.5526 130.914 16.6516 130.525 16.6516 130.525L16.6529 130.527Z" fill="#212121"/>
<path d="M15.7929 128.47L15.2455 130.648C15.1782 130.916 15.3061 131.191 15.5528 131.318C15.8589 131.475 16.2902 131.641 16.6873 131.592C16.8733 131.569 17.029 131.438 17.091 131.262L17.8957 128.971L15.7942 128.469L15.7929 128.47Z" fill="url(#paint30_linear_8420_407)"/>
<path d="M15.14 129.1C15.8221 129.704 18.0397 129.784 18.0397 129.784C26.0264 110.627 29.2942 107.905 29.2942 107.905C28.1412 115.136 29.1082 131.143 29.1082 131.143C30.4261 131.725 32.1253 131.143 32.1253 131.143C32.2322 119.306 34.0527 108.982 36.2044 100.843C30.8061 100.721 27.9354 98.8757 26.9974 98.1348C22.4975 105.384 15.14 129.1 15.14 129.1Z" fill="#212121"/>
<path d="M28.3682 76.1061C27.3457 81.1988 27.7125 90.3151 27.9526 94.4731C28.0199 95.6425 27.2033 97.2614 26.5436 98.3674C26.4407 98.5415 26.5041 98.763 26.6835 98.8552C27.7877 99.4221 31.5317 101.181 35.8694 101.4C36.1583 101.414 36.4169 101.218 36.4921 100.938C39.7097 88.9321 43.4472 81.2595 43.4472 81.2595C39.3206 74.6744 28.3682 76.1061 28.3682 76.1061Z" fill="#FF8D29"/>
<path d="M29.8391 107.451C29.7942 107.451 29.7481 107.439 29.7058 107.414C29.5858 107.34 29.5475 107.184 29.6201 107.064C29.6636 106.992 30.6965 105.325 32.7874 104.316C32.9141 104.256 33.0671 104.308 33.1291 104.435C33.1898 104.561 33.137 104.714 33.0104 104.776C31.062 105.716 30.0686 107.313 30.0581 107.33C30.0092 107.409 29.9261 107.452 29.8391 107.452V107.451Z" fill="url(#paint31_linear_8420_407)"/>
<path d="M21.9591 90.7217C22.2876 93.0947 23.2572 95.6826 25.1964 98.4313L25.9338 97.8302C25.9338 97.8302 25.0829 94.3788 25.5671 90.462C24.3706 90.2287 22.9577 90.4686 21.9591 90.7217Z" fill="url(#paint32_linear_8420_407)"/>
<path d="M29.5089 82.388L28.3678 76.1035C28.3678 76.1035 20.7429 81.9279 21.9592 90.7212C22.9565 90.4694 24.3707 90.2281 25.5672 90.4615C25.9154 87.6402 26.9576 84.5764 29.5102 82.388H29.5089Z" fill="#FF8D29"/>
<path d="M43.447 81.2559L40.5039 87.5904C40.9801 91.4149 43.0354 93.0681 45.2529 93.7022C45.3915 91.9594 45.8321 90.5514 46.241 89.5772C43.4087 86.6544 43.447 81.2559 43.447 81.2559Z" fill="#FF8D29"/>
<path d="M46.2412 89.5781C45.8323 90.5524 45.3904 91.9604 45.2532 93.7032C51.167 95.9958 52.7316 91.549 52.7316 91.549L51.638 91.3566C49.1698 91.6163 47.4456 90.8213 46.2412 89.5781Z" fill="url(#paint33_linear_8420_407)"/>
<path d="M40.7358 73.4379L39.315 78.6585C39.1554 79.2452 38.5209 79.5602 37.9563 79.3348C37.3468 79.0909 36.5738 78.7587 35.9076 78.4001C35.1966 78.0165 34.9749 77.1029 35.4248 76.4332L38.3784 72.0312L40.7358 73.4392V73.4379Z" fill="url(#paint34_linear_8420_407)"/>
<path d="M43.8438 69.4684C43.857 69.558 42.6592 75.4259 42.6592 75.4259L39.3217 74.6705L39.6303 68.9411C39.6303 68.9411 43.6275 67.9681 43.8451 69.4684H43.8438Z" fill="url(#paint35_linear_8420_407)"/>
<path d="M40.3809 70.2172L39.9826 73.2203C39.9773 73.2586 39.9773 73.2968 39.9826 73.335C40.0169 73.571 40.191 74.3726 41.001 74.1432C41.7357 73.9349 42.4085 73.7569 42.8742 73.8979C43.0826 73.9612 43.2093 74.1735 43.1657 74.3871C43.0562 74.9197 42.7885 76.1167 42.398 77.1213C42.3188 77.3256 42.0959 77.4324 41.8848 77.3704C41.2516 77.1859 39.9272 76.76 38.943 76.1668C38.8098 76.0864 38.7307 75.9414 38.7373 75.7858C38.7689 75.0278 38.8586 72.7233 38.7834 72.076C38.7135 71.4696 37.9682 71.1057 37.645 70.9765C37.5394 70.9343 37.4563 70.85 37.4128 70.7445C37.2624 70.3688 37.0566 69.5013 38.1515 69.1454C38.3811 69.0715 38.5011 68.8237 38.4206 68.5969C38.2584 68.1461 38.1898 67.4566 39.0367 67.0782C39.8981 66.6933 40.5406 67.1507 40.8875 67.5238C41.0273 67.6741 41.2529 67.6978 41.4271 67.5871C41.526 67.5251 41.654 67.504 41.8083 67.6003C42.0167 67.7295 42.2911 67.6411 42.3993 67.421C42.6051 66.9978 43.0259 66.5456 43.8689 66.6893C45.3648 66.9451 45.5337 68.6022 45.1392 69.5725C44.7448 70.5428 43.1394 70.1737 42.3333 69.6846C41.7212 69.3128 40.9258 69.703 40.5801 69.9113C40.4707 69.9772 40.3981 70.0893 40.3809 70.2159V70.2172Z" fill="#334756"/>
<path d="M38.6477 73.1725C38.6477 73.1725 39.2624 71.4521 38.6305 71.0302C37.9986 70.6083 37.0633 70.8272 37.2691 72.0743C37.525 73.6247 38.6477 73.1725 38.6477 73.1725Z" fill="url(#paint36_linear_8420_407)"/>
<path d="M53.2453 94.1525C53.5435 94.3846 54.5632 93.8994 55.1872 93.5645C55.4919 93.4011 55.6383 93.0451 55.5341 92.7169C55.3837 92.2436 55.1331 91.6332 54.8257 91.5554C54.3139 91.4275 52.0185 93.1954 53.2453 94.1525Z" fill="url(#paint37_linear_8420_407)"/>
<path d="M2.09676 104.742L73.4641 85.5547L76.3308 96.0394L4.93315 115.917C3.41733 116.339 1.81972 115.613 1.13635 114.194C0.43583 112.739 -0.168382 110.501 0.0426973 107.24C0.119214 106.055 0.949017 105.049 2.09676 104.74V104.742Z" fill="#334756"/>
<path d="M95.1468 84.6197L85.4654 85.0389C85.3717 86.3586 85.6685 88.0988 86.9758 90.1712L95.4001 85.5254C95.8473 85.2788 95.656 84.5973 95.1455 84.6197H95.1468Z" fill="#334756"/>
<path d="M73.4641 85.5591C72.5195 91.9135 76.3306 96.0438 76.3306 96.0438L86.9764 90.1733C85.6691 88.1009 85.371 86.3607 85.466 85.041L73.4654 85.5604L73.4641 85.5591Z" fill="#FC8C2A"/>
<path d="M2.71023 107.937C2.6258 107.93 2.55193 107.872 2.52818 107.785C2.49916 107.676 2.5638 107.564 2.67329 107.535L70.9404 89.3272C71.0499 89.2982 71.162 89.3628 71.1911 89.4723C71.2201 89.5817 71.1554 89.6937 71.0459 89.7227L2.77884 107.93C2.75509 107.937 2.73266 107.938 2.71023 107.937Z" fill="#E4EBFD"/>
<path d="M3.53995 112.024C3.45552 112.017 3.38164 111.959 3.35789 111.872C3.32887 111.763 3.39351 111.651 3.50301 111.622L71.7701 93.4132C71.8796 93.3842 71.9917 93.4488 72.0208 93.5582C72.0498 93.6676 71.9852 93.7797 71.8757 93.8087L3.60855 112.017C3.5848 112.024 3.56237 112.025 3.53995 112.024Z" fill="#E4EBFD"/>
<path d="M25.6308 97.7261L29.0726 97.4453L30.5632 98.819C30.5632 98.819 30.211 99.3068 29.1082 99.026C28.0054 98.7465 26.4949 98.6766 26.4949 98.6766C26.4949 98.6766 24.9726 99.3622 24.9541 98.0794L25.6295 97.7248L25.6308 97.7261Z" fill="url(#paint38_linear_8420_407)"/>
<defs>
<linearGradient id="paint0_linear_8420_407" x1="115.25" y1="-10.3643" x2="91.541" y2="133.574" gradientUnits="userSpaceOnUse">
<stop stop-color="#FF8D29"/>
<stop offset="1" stop-color="#FC8C2A"/>
</linearGradient>
<linearGradient id="paint1_linear_8420_407" x1="109.04" y1="51.2246" x2="124.423" y2="51.2246" gradientUnits="userSpaceOnUse">
<stop stop-color="#DAE3FE"/>
<stop offset="1" stop-color="#E9EFFD"/>
</linearGradient>
<linearGradient id="paint2_linear_8420_407" x1="72.0341" y1="51.9011" x2="87.3849" y2="51.9011" gradientUnits="userSpaceOnUse">
<stop stop-color="#DAE3FE"/>
<stop offset="1" stop-color="#E9EFFD"/>
</linearGradient>
<linearGradient id="paint3_linear_8420_407" x1="70.8217" y1="109.112" x2="86.1751" y2="109.112" gradientUnits="userSpaceOnUse">
<stop stop-color="#DAE3FE"/>
<stop offset="1" stop-color="#E9EFFD"/>
</linearGradient>
<linearGradient id="paint4_linear_8420_407" x1="52.3325" y1="108.63" x2="67.6753" y2="108.63" gradientUnits="userSpaceOnUse">
<stop stop-color="#DAE3FE"/>
<stop offset="1" stop-color="#E9EFFD"/>
</linearGradient>
<linearGradient id="paint5_linear_8420_407" x1="53.1556" y1="70.5719" x2="68.4681" y2="70.5719" gradientUnits="userSpaceOnUse">
<stop stop-color="#DAE3FE"/>
<stop offset="1" stop-color="#E9EFFD"/>
</linearGradient>
<linearGradient id="paint6_linear_8420_407" x1="52.7138" y1="89.0926" x2="68.1121" y2="89.0926" gradientUnits="userSpaceOnUse">
<stop stop-color="#DAE3FE"/>
<stop offset="1" stop-color="#E9EFFD"/>
</linearGradient>
<linearGradient id="paint7_linear_8420_407" x1="90.5366" y1="51.6213" x2="105.902" y2="51.6213" gradientUnits="userSpaceOnUse">
<stop stop-color="#DAE3FE"/>
<stop offset="1" stop-color="#E9EFFD"/>
</linearGradient>
<linearGradient id="paint8_linear_8420_407" x1="71.2188" y1="89.3922" x2="86.6012" y2="89.3922" gradientUnits="userSpaceOnUse">
<stop stop-color="#DAE3FE"/>
<stop offset="1" stop-color="#E9EFFD"/>
</linearGradient>
<linearGradient id="paint9_linear_8420_407" x1="90.1197" y1="71.1555" x2="105.495" y2="71.1555" gradientUnits="userSpaceOnUse">
<stop stop-color="#DAE3FE"/>
<stop offset="1" stop-color="#E9EFFD"/>
</linearGradient>
<linearGradient id="paint10_linear_8420_407" x1="108.622" y1="71.4308" x2="123.987" y2="71.4308" gradientUnits="userSpaceOnUse">
<stop stop-color="#DAE3FE"/>
<stop offset="1" stop-color="#E9EFFD"/>
</linearGradient>
<linearGradient id="paint11_linear_8420_407" x1="71.6292" y1="70.8697" x2="86.9918" y2="70.8697" gradientUnits="userSpaceOnUse">
<stop stop-color="#DAE3FE"/>
<stop offset="1" stop-color="#E9EFFD"/>
</linearGradient>
<linearGradient id="paint12_linear_8420_407" x1="89.7226" y1="89.6978" x2="105.092" y2="89.6978" gradientUnits="userSpaceOnUse">
<stop stop-color="#DAE3FE"/>
<stop offset="1" stop-color="#E9EFFD"/>
</linearGradient>
<linearGradient id="paint13_linear_8420_407" x1="108.219" y1="89.994" x2="123.59" y2="89.994" gradientUnits="userSpaceOnUse">
<stop stop-color="#DAE3FE"/>
<stop offset="1" stop-color="#E9EFFD"/>
</linearGradient>
<linearGradient id="paint14_linear_8420_407" x1="53.5646" y1="52.0639" x2="68.856" y2="52.0639" gradientUnits="userSpaceOnUse">
<stop stop-color="#DAE3FE"/>
<stop offset="1" stop-color="#E9EFFD"/>
</linearGradient>
<linearGradient id="paint15_linear_8420_407" x1="38.1953" y1="108.18" x2="49.1709" y2="108.18" gradientUnits="userSpaceOnUse">
<stop stop-color="#DAE3FE"/>
<stop offset="1" stop-color="#E9EFFD"/>
</linearGradient>
<linearGradient id="paint16_linear_8420_407" x1="144.77" y1="110.972" x2="158.877" y2="110.972" gradientUnits="userSpaceOnUse">
<stop stop-color="#DAE3FE"/>
<stop offset="1" stop-color="#E9EFFD"/>
</linearGradient>
<linearGradient id="paint17_linear_8420_407" x1="38.5648" y1="88.8855" x2="49.6156" y2="88.8855" gradientUnits="userSpaceOnUse">
<stop stop-color="#DAE3FE"/>
<stop offset="1" stop-color="#E9EFFD"/>
</linearGradient>
<linearGradient id="paint18_linear_8420_407" x1="39.0119" y1="70.296" x2="49.9796" y2="70.296" gradientUnits="userSpaceOnUse">
<stop stop-color="#DAE3FE"/>
<stop offset="1" stop-color="#E9EFFD"/>
</linearGradient>
<linearGradient id="paint19_linear_8420_407" x1="146.045" y1="50.7055" x2="160.153" y2="50.7055" gradientUnits="userSpaceOnUse">
<stop stop-color="#DAE3FE"/>
<stop offset="1" stop-color="#E9EFFD"/>
</linearGradient>
<linearGradient id="paint20_linear_8420_407" x1="89.3083" y1="109.593" x2="104.675" y2="109.593" gradientUnits="userSpaceOnUse">
<stop stop-color="#DAE3FE"/>
<stop offset="1" stop-color="#E9EFFD"/>
</linearGradient>
<linearGradient id="paint21_linear_8420_407" x1="145.605" y1="71.955" x2="159.695" y2="71.955" gradientUnits="userSpaceOnUse">
<stop stop-color="#DAE3FE"/>
<stop offset="1" stop-color="#E9EFFD"/>
</linearGradient>
<linearGradient id="paint22_linear_8420_407" x1="145.226" y1="90.6012" x2="159.269" y2="90.6012" gradientUnits="userSpaceOnUse">
<stop stop-color="#DAE3FE"/>
<stop offset="1" stop-color="#E9EFFD"/>
</linearGradient>
<linearGradient id="paint23_linear_8420_407" x1="126.722" y1="90.2989" x2="142.081" y2="90.2989" gradientUnits="userSpaceOnUse">
<stop stop-color="#DAE3FE"/>
<stop offset="1" stop-color="#E9EFFD"/>
</linearGradient>
<linearGradient id="paint24_linear_8420_407" x1="126.283" y1="110.551" x2="141.675" y2="110.551" gradientUnits="userSpaceOnUse">
<stop stop-color="#DAE3FE"/>
<stop offset="1" stop-color="#E9EFFD"/>
</linearGradient>
<linearGradient id="paint25_linear_8420_407" x1="39.3919" y1="52.3283" x2="50.3582" y2="52.3283" gradientUnits="userSpaceOnUse">
<stop stop-color="#DAE3FE"/>
<stop offset="1" stop-color="#E9EFFD"/>
</linearGradient>
<linearGradient id="paint26_linear_8420_407" x1="107.795" y1="110.073" x2="123.175" y2="110.073" gradientUnits="userSpaceOnUse">
<stop stop-color="#DAE3FE"/>
<stop offset="1" stop-color="#E9EFFD"/>
</linearGradient>
<linearGradient id="paint27_linear_8420_407" x1="127.544" y1="50.9355" x2="142.938" y2="50.9355" gradientUnits="userSpaceOnUse">
<stop stop-color="#DAE3FE"/>
<stop offset="1" stop-color="#E9EFFD"/>
</linearGradient>
<linearGradient id="paint28_linear_8420_407" x1="127.113" y1="71.7153" x2="142.493" y2="71.7153" gradientUnits="userSpaceOnUse">
<stop stop-color="#DAE3FE"/>
<stop offset="1" stop-color="#E9EFFD"/>
</linearGradient>
<linearGradient id="paint29_linear_8420_407" x1="29.4195" y1="131.898" x2="31.6516" y2="131.898" gradientUnits="userSpaceOnUse">
<stop stop-color="#FF928E"/>
<stop offset="1" stop-color="#FEB3B1"/>
</linearGradient>
<linearGradient id="paint30_linear_8420_407" x1="15.2283" y1="130.035" x2="17.8957" y2="130.035" gradientUnits="userSpaceOnUse">
<stop stop-color="#FF928E"/>
<stop offset="1" stop-color="#FEB3B1"/>
</linearGradient>
<linearGradient id="paint31_linear_8420_407" x1="24.2181" y1="120.163" x2="25.495" y2="117.607" gradientUnits="userSpaceOnUse">
<stop stop-color="#53D8FF"/>
<stop offset="1" stop-color="#3840F7"/>
</linearGradient>
<linearGradient id="paint32_linear_8420_407" x1="43.8298" y1="71.0048" x2="19.1795" y2="99.8919" gradientUnits="userSpaceOnUse">
<stop stop-color="#FF928E"/>
<stop offset="1" stop-color="#FEB3B1"/>
</linearGradient>
<linearGradient id="paint33_linear_8420_407" x1="56.8527" y1="82.1137" x2="32.2024" y2="111.001" gradientUnits="userSpaceOnUse">
<stop stop-color="#FF928E"/>
<stop offset="1" stop-color="#FEB3B1"/>
</linearGradient>
<linearGradient id="paint34_linear_8420_407" x1="37.9827" y1="71.9983" x2="37.901" y2="85.9555" gradientUnits="userSpaceOnUse">
<stop stop-color="#FF928E"/>
<stop offset="1" stop-color="#FEB3B1"/>
</linearGradient>
<linearGradient id="paint35_linear_8420_407" x1="49.234" y1="71.4894" x2="38.9444" y2="72.2814" gradientUnits="userSpaceOnUse">
<stop stop-color="#FF928E"/>
<stop offset="1" stop-color="#FEB3B1"/>
</linearGradient>
<linearGradient id="paint36_linear_8420_407" x1="33.5803" y1="78.2776" x2="38.2263" y2="71.8927" gradientUnits="userSpaceOnUse">
<stop stop-color="#FF928E"/>
<stop offset="1" stop-color="#FEB3B1"/>
</linearGradient>
<linearGradient id="paint37_linear_8420_407" x1="52.8905" y1="92.8817" x2="55.5684" y2="92.8817" gradientUnits="userSpaceOnUse">
<stop stop-color="#F9B776"/>
<stop offset="1" stop-color="#F47960"/>
</linearGradient>
<linearGradient id="paint38_linear_8420_407" x1="48.0978" y1="74.6461" x2="23.4475" y2="103.533" gradientUnits="userSpaceOnUse">
<stop stop-color="#FF928E"/>
<stop offset="1" stop-color="#FEB3B1"/>
</linearGradient>
</defs>
</svg>
