<svg width="64" height="59" viewBox="0 0 64 59" fill="none" xmlns="http://www.w3.org/2000/svg">
<rect x="0.25" width="63" height="59" rx="8" fill="white"/>
<path d="M26.7401 19.3656C26.3728 19.7328 26.1665 20.2309 26.1665 20.7503V38.2503C26.1665 38.7697 26.3728 39.2678 26.7401 39.6351C27.1073 40.0023 27.6055 40.2087 28.1248 40.2087C28.6442 40.2087 29.1423 40.0023 29.5096 39.6351C29.8768 39.2678 30.0832 38.7697 30.0832 38.2503V31.4587H36.8748C37.3942 31.4587 37.8923 31.2523 38.2596 30.8851C38.6268 30.5178 38.8332 30.0197 38.8332 29.5003C38.8332 28.9809 38.6268 28.4828 38.2596 28.1156C37.8923 27.7483 37.3942 27.542 36.8748 27.542H30.0832V22.7087H36.8748C37.3942 22.7087 37.8923 22.5023 38.2596 22.1351C38.6268 21.7678 38.8332 21.2697 38.8332 20.7503C38.8332 20.2309 38.6268 19.7328 38.2596 19.3656C37.8923 18.9983 37.3942 18.792 36.8748 18.792H28.1248C27.6055 18.792 27.1073 18.9983 26.7401 19.3656Z" fill="#FF4560" stroke="#FF4560"/>
</svg>
