<svg width="22" height="26" viewBox="0 0 22 26" fill="none" xmlns="http://www.w3.org/2000/svg">
<g clip-path="url(#clip0_12677_95)">
<path fill-rule="evenodd" clip-rule="evenodd" d="M22 18.574L14.9262 25.5L11.2862 21.8224L11.6963 21.2858L14.3643 23.9575L14.3977 23.9931C14.6525 24.2449 15.0615 24.2405 15.311 23.9834L15.5417 23.7458L15.5494 23.7531L16.6344 22.619L21.4512 18.0199L22 18.574ZM18.7087 11.668V1.57856H1.06905V20.1467L1.45152 19.9184C1.66862 19.7892 1.93987 19.8331 2.10765 20.0087L3.76031 21.595L5.47969 20.0423C5.6876 19.855 6.00092 19.8623 6.19965 20.0516L7.85569 21.6233L9.4571 20.057C9.53833 19.977 9.6389 19.9287 9.74334 19.9116C9.73174 20.2872 9.8647 20.6667 10.1432 20.9575C10.0709 21.0548 10.0111 21.161 9.96527 21.2736L9.84923 21.1721L8.23284 22.7526C8.02976 22.9517 7.70435 22.9565 7.49596 22.7585L5.82541 21.1721L4.12246 22.7097C3.9189 22.9121 3.59011 22.9165 3.38123 22.716L1.64782 21.0516L0.834066 21.5375C0.748484 21.596 0.645495 21.6302 0.534769 21.6302C0.239824 21.6302 0 21.3882 0 21.0911V1.03903C0 0.741468 0.239824 0.5 0.534769 0.5H19.243C19.5379 0.5 19.7773 0.741468 19.7773 1.03903V12.5407L19.257 12.0144C19.0975 11.8529 18.9089 11.7373 18.7087 11.668ZM15.4295 11.9012H3.91262V10.8226H15.4295V11.9012ZM13.6908 15.4813H3.91262V14.4027H14.7917L13.6908 15.4813ZM5.27323 8.30942H4.2564V4.45178H6.51587V5.28936H5.27323V6.02401H6.4182V6.86159H5.27323V8.30942ZM9.41358 8.30942H7.14299V4.45178H9.41358V5.28936H8.17578V5.89425H9.32171V6.73183H8.17578V7.46111H9.41358V8.30942ZM12.3529 8.30942H10.0823V4.45178H12.3529V5.28936H11.1151V5.89425H12.261V6.73183H11.1151V7.46111H12.3529V8.30942ZM15.5204 7.13915C15.5204 7.37818 15.4609 7.59087 15.3405 7.77624C15.2201 7.9621 15.047 8.106 14.8198 8.20942C14.5935 8.31235 14.3276 8.36357 14.0229 8.36357C13.7686 8.36357 13.5544 8.34552 13.3823 8.30942C13.2097 8.27381 13.0303 8.21039 12.8441 8.12064V7.19135C13.0398 7.29246 13.2454 7.37241 13.4577 7.42989C13.6705 7.48648 13.8658 7.51526 14.0433 7.51526C14.197 7.51526 14.3097 7.48843 14.3807 7.43526C14.4523 7.38209 14.4881 7.31282 14.4881 7.22891C14.4881 7.17574 14.4736 7.12989 14.4446 7.09037C14.4156 7.05086 14.3696 7.01086 14.3058 6.97037C14.2425 6.92988 14.0732 6.84695 13.7971 6.72207C13.5481 6.60792 13.3615 6.4967 13.2367 6.38987C13.1125 6.28255 13.0196 6.15913 12.9602 6.0206C12.9002 5.88206 12.8698 5.71718 12.8698 5.52693C12.8698 5.17229 12.9974 4.89521 13.2537 4.69569C13.5099 4.49666 13.8624 4.39764 14.3106 4.39764C14.7057 4.39764 15.1094 4.48935 15.5204 4.67423L15.2047 5.47766C14.8469 5.31278 14.5389 5.22985 14.2792 5.22985C14.1453 5.22985 14.0471 5.25424 13.9862 5.30204C13.9248 5.34985 13.8943 5.40936 13.8943 5.47912C13.8943 5.55473 13.934 5.62351 14.0113 5.68303C14.0892 5.74254 14.2985 5.85132 14.6423 6.00986C14.9721 6.15913 15.2003 6.32011 15.3289 6.49182C15.4566 6.66354 15.5204 6.87866 15.5204 7.13915ZM21.8844 16.7086L14.8111 23.6346L11.1707 19.9565L18.244 13.031L21.8844 16.7086ZM17.5309 18.0633C17.7267 18.6857 17.3858 19.3501 16.7688 19.5477C16.1524 19.7453 15.4938 19.4013 15.298 18.7789C15.1017 18.1569 15.443 17.4925 16.0595 17.295C16.6765 17.0969 17.335 17.4413 17.5309 18.0633ZM20.1583 17.3306L15.4343 21.8877C15.1389 21.5892 14.6549 21.5882 14.358 21.8882L12.9171 20.4345C13.2135 20.1365 13.2145 19.6487 12.9171 19.3491L17.6421 14.79C17.9375 15.0891 18.4215 15.0896 18.7184 14.79L20.1588 16.2427C19.8619 16.5428 19.8609 17.0306 20.1583 17.3306Z" fill="#334756"/>
</g>
<defs>
<clipPath id="clip0_12677_95">
<rect width="22" height="25" fill="white" transform="translate(0 0.5)"/>
</clipPath>
</defs>
</svg>
