<svg width="25" height="27" viewBox="0 0 25 27" fill="none" xmlns="http://www.w3.org/2000/svg">
<path d="M8.12516 3.29133C7.73839 3.29133 7.36746 3.44498 7.09397 3.71847C6.82048 3.99196 6.66683 4.36289 6.66683 4.74967C6.66683 5.13644 6.82048 5.50737 7.09397 5.78086C7.36746 6.05436 7.73839 6.208 8.12516 6.208C8.51194 6.208 8.88287 6.05436 9.15636 5.78086C9.42985 5.50737 9.5835 5.13644 9.5835 4.74967C9.5835 4.36289 9.42985 3.99196 9.15636 3.71847C8.88287 3.44498 8.51194 3.29133 8.12516 3.29133ZM3.99808 3.29133C4.29937 2.43743 4.85812 1.69801 5.59729 1.17499C6.33646 0.651963 7.21966 0.371094 8.12516 0.371094C9.03066 0.371094 9.91387 0.651963 10.653 1.17499C11.3922 1.69801 11.951 2.43743 12.2522 3.29133H22.7085C23.0953 3.29133 23.4662 3.44498 23.7397 3.71847C24.0132 3.99196 24.1668 4.36289 24.1668 4.74967C24.1668 5.13644 24.0132 5.50737 23.7397 5.78086C23.4662 6.05436 23.0953 6.208 22.7085 6.208H12.2522C11.951 7.0619 11.3922 7.80133 10.653 8.32435C9.91387 8.84737 9.03066 9.12824 8.12516 9.12824C7.21966 9.12824 6.33646 8.84737 5.59729 8.32435C4.85812 7.80133 4.29937 7.0619 3.99808 6.208H2.29183C1.90506 6.208 1.53412 6.05436 1.26063 5.78086C0.987142 5.50737 0.833496 5.13644 0.833496 4.74967C0.833496 4.36289 0.987142 3.99196 1.26063 3.71847C1.53412 3.44498 1.90506 3.29133 2.29183 3.29133H3.99808ZM16.8752 12.0413C16.4884 12.0413 16.1175 12.195 15.844 12.4685C15.5705 12.742 15.4168 13.1129 15.4168 13.4997C15.4168 13.8864 15.5705 14.2574 15.844 14.5309C16.1175 14.8044 16.4884 14.958 16.8752 14.958C17.2619 14.958 17.6329 14.8044 17.9064 14.5309C18.1799 14.2574 18.3335 13.8864 18.3335 13.4997C18.3335 13.1129 18.1799 12.742 17.9064 12.4685C17.6329 12.195 17.2619 12.0413 16.8752 12.0413ZM12.7481 12.0413C13.0494 11.1874 13.6081 10.448 14.3473 9.92498C15.0865 9.40196 15.9697 9.12109 16.8752 9.12109C17.7807 9.12109 18.6639 9.40196 19.403 9.92498C20.1422 10.448 20.701 11.1874 21.0022 12.0413H22.7085C23.0953 12.0413 23.4662 12.195 23.7397 12.4685C24.0132 12.742 24.1668 13.1129 24.1668 13.4997C24.1668 13.8864 24.0132 14.2574 23.7397 14.5309C23.4662 14.8044 23.0953 14.958 22.7085 14.958H21.0022C20.701 15.8119 20.1422 16.5513 19.403 17.0744C18.6639 17.5974 17.7807 17.8782 16.8752 17.8782C15.9697 17.8782 15.0865 17.5974 14.3473 17.0744C13.6081 16.5513 13.0494 15.8119 12.7481 14.958H2.29183C1.90506 14.958 1.53412 14.8044 1.26063 14.5309C0.987142 14.2574 0.833496 13.8864 0.833496 13.4997C0.833496 13.1129 0.987142 12.742 1.26063 12.4685C1.53412 12.195 1.90506 12.0413 2.29183 12.0413H12.7481ZM8.12516 20.7913C7.73839 20.7913 7.36746 20.945 7.09397 21.2185C6.82048 21.492 6.66683 21.8629 6.66683 22.2497C6.66683 22.6364 6.82048 23.0074 7.09397 23.2809C7.36746 23.5544 7.73839 23.708 8.12516 23.708C8.51194 23.708 8.88287 23.5544 9.15636 23.2809C9.42985 23.0074 9.5835 22.6364 9.5835 22.2497C9.5835 21.8629 9.42985 21.492 9.15636 21.2185C8.88287 20.945 8.51194 20.7913 8.12516 20.7913ZM3.99808 20.7913C4.29937 19.9374 4.85812 19.198 5.59729 18.675C6.33646 18.152 7.21966 17.8711 8.12516 17.8711C9.03066 17.8711 9.91387 18.152 10.653 18.675C11.3922 19.198 11.951 19.9374 12.2522 20.7913H22.7085C23.0953 20.7913 23.4662 20.945 23.7397 21.2185C24.0132 21.492 24.1668 21.8629 24.1668 22.2497C24.1668 22.6364 24.0132 23.0074 23.7397 23.2809C23.4662 23.5544 23.0953 23.708 22.7085 23.708H12.2522C11.951 24.5619 11.3922 25.3013 10.653 25.8244C9.91387 26.3474 9.03066 26.6282 8.12516 26.6282C7.21966 26.6282 6.33646 26.3474 5.59729 25.8244C4.85812 25.3013 4.29937 24.5619 3.99808 23.708H2.29183C1.90506 23.708 1.53412 23.5544 1.26063 23.2809C0.987142 23.0074 0.833496 22.6364 0.833496 22.2497C0.833496 21.8629 0.987142 21.492 1.26063 21.2185C1.53412 20.945 1.90506 20.7913 2.29183 20.7913H3.99808Z" fill="#334756"/>
</svg>
