<svg width="18" height="18" viewBox="0 0 18 18" fill="none" xmlns="http://www.w3.org/2000/svg">
<path d="M17 0H1C0.734784 0 0.48043 0.0998125 0.292893 0.27748C0.105357 0.455147 0 0.696116 0 0.947376V3.40108C0 3.89656 0.213 4.38351 0.583 4.73404L6 9.86597V17.0528C6.0002 17.2142 6.04387 17.3729 6.1269 17.5138C6.20992 17.6548 6.32955 17.7733 6.47444 17.8582C6.61934 17.9431 6.78471 17.9916 6.9549 17.999C7.1251 18.0064 7.29447 17.9726 7.447 17.9007L11.447 16.0059C11.786 15.8449 12 15.5171 12 15.158V9.86597L17.417 4.73404C17.787 4.38351 18 3.89656 18 3.40108V0.947376C18 0.696116 17.8946 0.455147 17.7071 0.27748C17.5196 0.0998125 17.2652 0 17 0ZM10.293 8.80396C10.2 8.89179 10.1262 8.99618 10.0759 9.11114C10.0256 9.22609 9.99981 9.34933 10 9.47376V14.5725L8 15.5199V9.47376C8.00019 9.34933 7.9744 9.22609 7.92412 9.11114C7.87383 8.99618 7.80004 8.89179 7.707 8.80396L2 3.40108V1.89475H16.001L16.003 3.39445L10.293 8.80396Z" fill="#334756"/>
</svg>
