<svg width="30" height="30" viewBox="0 0 30 30" fill="none" xmlns="http://www.w3.org/2000/svg">
<g clip-path="url(#clip0_1579_19)">
<path d="M15 30C23.2843 30 30 23.2843 30 15C30 6.71573 23.2843 0 15 0C6.71573 0 0 6.71573 0 15C0 23.2843 6.71573 30 15 30Z" fill="#C5B786"/>
<path d="M8.7 20.4V14.1H10.5V20.4H8.7ZM14.1 20.4V14.1H15.9V20.4H14.1ZM6 24V22.2H24V24H6ZM19.5 20.4V14.1H21.3V20.4H19.5ZM6 12.3V10.5L15 6L24 10.5V12.3H6Z" fill="black"/>
</g>
<defs>
<clipPath id="clip0_1579_19">
<rect width="30" height="30" fill="white"/>
</clipPath>
</defs>
</svg>
