<svg width="88" height="88" viewBox="0 0 88 88" fill="none" xmlns="http://www.w3.org/2000/svg">
<g clip-path="url(#clip0_11632_115)">
<rect y="43.8408" width="62" height="62" rx="10" transform="rotate(-45 0 43.8408)" fill="white"/>
<path d="M36.9289 6.07106C40.8342 2.16582 47.1658 2.16582 51.0711 6.07107L81.9289 36.9289C85.8342 40.8342 85.8342 47.1658 81.9289 51.0711L51.0711 81.9289C47.1658 85.8342 40.8342 85.8342 36.9289 81.9289L6.07106 51.0711C2.16582 47.1658 2.16582 40.8342 6.07107 36.9289L36.9289 6.07106Z" fill="#DA0708"/>
<g clip-path="url(#clip1_11632_115)">
<mask id="mask0_11632_115" style="mask-type:luminance" maskUnits="userSpaceOnUse" x="24" y="24" width="41" height="40">
<path d="M64.3686 24H24.3687V64H64.3686V24Z" fill="white"/>
</mask>
<g mask="url(#mask0_11632_115)">
<path d="M40.5503 57.0192C34.0718 55.6304 29.3686 49.805 29.3686 43.167C29.3686 35.3553 35.7236 29.0004 43.5353 29.0004C50.1735 29.0004 55.9987 33.7035 57.3868 40.1824C57.4327 40.3964 57.5203 40.5994 57.6445 40.7796C57.7688 40.9598 57.9273 41.1138 58.1111 41.2328C58.2949 41.3518 58.5004 41.4333 58.7157 41.4728C58.931 41.5125 59.1519 41.5092 59.366 41.4634C59.5801 41.4175 59.783 41.33 59.9632 41.2057C60.1435 41.0814 60.2975 40.9228 60.4164 40.7391C60.5354 40.5553 60.6169 40.3499 60.6565 40.1346C60.6961 39.9193 60.6929 39.6982 60.647 39.4842C58.9311 31.478 51.7343 25.667 43.5353 25.667C33.8861 25.667 26.0353 33.5174 26.0353 43.167C26.0353 51.3661 31.8458 58.5625 39.8521 60.2784C40.0661 60.3243 40.287 60.3275 40.5023 60.2879C40.7175 60.2484 40.9229 60.1668 41.1066 60.0479C41.2904 59.929 41.4489 59.7751 41.5732 59.595C41.6974 59.4148 41.785 59.2119 41.8308 58.9979C41.8766 58.7839 41.8799 58.5629 41.8404 58.3477C41.8008 58.1325 41.7193 57.9271 41.6004 57.7433C41.4814 57.5596 41.3275 57.401 41.1473 57.2768C40.9672 57.1525 40.7643 57.065 40.5503 57.0192Z" fill="white"/>
<path d="M41.8687 33.167V41.5004H36.8687C36.4286 41.5034 36.0076 41.6803 35.6975 41.9926C35.3874 42.3048 35.2134 42.727 35.2134 43.167C35.2134 43.6071 35.3874 44.0294 35.6975 44.3416C36.0076 44.6538 36.4286 44.8307 36.8687 44.8337H43.5353C43.9774 44.8337 44.4013 44.6581 44.7138 44.3455C45.0264 44.033 45.202 43.6091 45.202 43.167V33.167C45.199 32.727 45.0221 32.3059 44.7099 31.9959C44.3977 31.6858 43.9754 31.5117 43.5353 31.5117C43.0953 31.5117 42.6731 31.6858 42.3609 31.9959C42.0486 32.3059 41.8717 32.727 41.8687 33.167Z" fill="white"/>
<path d="M53.5353 42.334C47.562 42.334 42.702 47.1934 42.702 53.1673C42.702 59.1412 47.562 64.0006 53.5353 64.0006C59.5086 64.0006 64.3687 59.1412 64.3687 53.1673C64.3687 47.1933 59.5087 42.334 53.5353 42.334ZM53.5353 60.6673C52.0519 60.6673 50.6019 60.2274 49.3685 59.4033C48.1351 58.5791 47.1739 57.4078 46.6062 56.0374C46.0386 54.667 45.89 53.159 46.1794 51.7041C46.4688 50.2492 47.1831 48.9129 48.232 47.864C49.2809 46.8151 50.6173 46.1008 52.0721 45.8114C53.527 45.522 55.035 45.6705 56.4055 46.2382C57.7759 46.8059 58.9472 47.7671 59.7713 49.0005C60.5955 50.2338 61.0353 51.6839 61.0353 53.1673C61.033 55.1557 60.2422 57.062 58.8362 58.4681C57.4301 59.8741 55.5237 60.665 53.5353 60.6673Z" fill="white"/>
<path d="M53.5353 47.334C53.0933 47.334 52.6694 47.5096 52.3569 47.8222C52.0443 48.1347 51.8687 48.5586 51.8687 49.0006V53.1673C51.8672 53.3871 51.9092 53.6051 51.9923 53.8086C52.0753 54.0121 52.1979 54.1972 52.3528 54.3532C52.5077 54.5091 52.692 54.633 52.8949 54.7174C53.0978 54.8019 53.3156 54.8454 53.5354 54.8454C53.7552 54.8454 53.9729 54.8019 54.1758 54.7174C54.3788 54.633 54.5631 54.5091 54.7179 54.3532C54.8728 54.1972 54.9954 54.0121 55.0785 53.8086C55.1616 53.6051 55.2035 53.3871 55.202 53.1673V49.0006C55.202 48.5586 55.0264 48.1347 54.7138 47.8221C54.4013 47.5096 53.9774 47.334 53.5353 47.334Z" fill="white"/>
<path d="M53.5353 59.0003C54.4558 59.0003 55.2019 58.2541 55.2019 57.3336C55.2019 56.4132 54.4558 55.667 53.5353 55.667C52.6148 55.667 51.8687 56.4132 51.8687 57.3336C51.8687 58.2541 52.6148 59.0003 53.5353 59.0003Z" fill="white"/>
</g>
</g>
</g>
<defs>
<clipPath id="clip0_11632_115">
<rect y="43.8408" width="62" height="62" rx="10" transform="rotate(-45 0 43.8408)" fill="white"/>
</clipPath>
<clipPath id="clip1_11632_115">
<rect width="40" height="40" fill="white" transform="translate(24.3687 24)"/>
</clipPath>
</defs>
</svg>
