<svg width="29" height="28" viewBox="0 0 29 28" fill="none" xmlns="http://www.w3.org/2000/svg">
<path d="M28.2371 4.5353L14.8526 0.0574553C14.6236 -0.0191518 14.3761 -0.0191518 14.1471 0.0574553L0.762638 4.5353C0.540546 4.6096 0.34738 4.75216 0.210504 4.94278C0.0736282 5.1334 -1.73473e-05 5.36242 3.06499e-09 5.59738V16.792C3.06499e-09 17.0889 0.117512 17.3736 0.326686 17.5836C0.535859 17.7935 0.819559 17.9114 1.11538 17.9114C1.41119 17.9114 1.69489 17.7935 1.90406 17.5836C2.11324 17.3736 2.23075 17.0889 2.23075 16.792V7.15063L6.91393 8.71648C5.66967 10.734 5.274 13.1647 5.8138 15.4748C6.3536 17.7849 7.78475 19.7856 9.79299 21.0375C7.2834 22.0255 5.11399 23.8124 3.52737 26.2556C3.44486 26.3787 3.38754 26.517 3.35876 26.6626C3.32997 26.8081 3.3303 26.9579 3.35971 27.1033C3.38912 27.2487 3.44703 27.3867 3.53007 27.5095C3.61312 27.6322 3.71964 27.7371 3.84345 27.8182C3.96725 27.8992 4.10588 27.9548 4.25126 27.9816C4.39665 28.0084 4.54589 28.0059 4.69031 27.9743C4.83474 27.9427 4.97147 27.8826 5.09255 27.7975C5.21363 27.7124 5.31665 27.604 5.39563 27.4786C7.49671 24.2434 10.815 22.3893 14.4999 22.3893C18.1848 22.3893 21.503 24.2434 23.6041 27.4786C23.7677 27.7227 24.0204 27.8923 24.3076 27.9508C24.5948 28.0093 24.8934 27.952 25.1389 27.7914C25.3843 27.6307 25.5569 27.3795 25.6193 27.0921C25.6817 26.8047 25.6289 26.5042 25.4724 26.2556C23.8858 23.8124 21.708 22.0255 19.2068 21.0375C21.2131 19.7856 22.6429 17.7863 23.1826 15.4778C23.7223 13.1694 23.3279 10.7404 22.0858 8.72348L28.2371 6.66647C28.4593 6.5922 28.6525 6.44966 28.7894 6.25904C28.9263 6.06841 29 5.83938 29 5.60438C29 5.36938 28.9263 5.14035 28.7894 4.94972C28.6525 4.7591 28.4593 4.61656 28.2371 4.54229V4.5353ZM21.1921 13.4336C21.1924 14.4955 20.9419 15.5423 20.461 16.4882C19.9802 17.4341 19.2827 18.252 18.4259 18.875C17.5691 19.498 16.5773 19.9082 15.532 20.0719C14.4866 20.2357 13.4175 20.1484 12.4122 19.8171C11.407 19.4858 10.4944 18.9201 9.7492 18.1663C9.00402 17.4125 8.44752 16.4921 8.12538 15.4806C7.80324 14.4692 7.72463 13.3954 7.89599 12.3476C8.06736 11.2997 8.48383 10.3076 9.11122 9.45253L14.1471 11.1317C14.3761 11.2083 14.6236 11.2083 14.8526 11.1317L19.8885 9.45253C20.7359 10.6056 21.1928 12.0008 21.1921 13.4336Z" fill="white"/>
</svg>
