<svg width="31" height="31" viewBox="0 0 31 31" fill="none" xmlns="http://www.w3.org/2000/svg">
<path d="M15.5 1C13.7648 1 12.0683 1.30329 10.4564 1.90142L10.8769 3.03423C12.3535 2.48625 13.9092 2.20833 15.5 2.20833C22.8291 2.20833 28.7917 8.17086 28.7917 15.5C28.7917 22.8291 22.8291 28.7917 15.5 28.7917C8.17086 28.7917 2.20833 22.8291 2.20833 15.5C2.20833 11.5155 3.99848 7.76969 7.04167 5.25454V9.45833H8.25V3.41667H2.20833V4.625H5.90946C2.80827 7.36188 1 11.3119 1 15.5C1 23.4949 7.50506 30 15.5 30C23.4949 30 30 23.4949 30 15.5C30 7.50506 23.4949 1 15.5 1Z" fill="white" stroke="white"/>
<path d="M11.8758 20.335H10.6675V21.5433H20.3341V20.335H19.1258V18.2723L16.3551 15.5016L19.1258 12.7309V10.6683H20.3341V9.45996H10.6675V10.6683H11.8758V12.7309L14.6465 15.5016L11.8758 18.2723V20.335ZM13.0841 12.2307V10.6683H17.9175V12.2307L15.5008 14.6473L13.0841 12.2307ZM15.5008 16.3559L17.9175 18.7726V20.335H13.0841V18.7726L15.5008 16.3559Z" fill="white" stroke="white"/>
<path d="M13.0833 23.9595H11.875V25.1678H13.0833V23.9595Z" fill="white" stroke="white"/>
<path d="M16.1034 23.9595H14.895V25.1678H16.1034V23.9595Z" fill="white" stroke="white"/>
<path d="M19.1256 23.9595H17.9172V25.1678H19.1256V23.9595Z" fill="white" stroke="white"/>
</svg>
