<svg width="20" height="32" viewBox="0 0 20 32" fill="none" xmlns="http://www.w3.org/2000/svg">
<path d="M2.90341 29V28.233L5.78409 25.0795C6.12216 24.7102 6.40057 24.3892 6.61932 24.1165C6.83807 23.8409 7 23.5824 7.10511 23.3409C7.21307 23.0966 7.26705 22.8409 7.26705 22.5739C7.26705 22.267 7.19318 22.0014 7.04545 21.777C6.90057 21.5526 6.7017 21.3793 6.44886 21.2571C6.19602 21.1349 5.91193 21.0739 5.59659 21.0739C5.26136 21.0739 4.96875 21.1435 4.71875 21.2827C4.47159 21.419 4.27983 21.6108 4.14347 21.858C4.00994 22.1051 3.94318 22.3949 3.94318 22.7273H2.9375C2.9375 22.2159 3.0554 21.767 3.29119 21.3807C3.52699 20.9943 3.84801 20.6932 4.25426 20.4773C4.66335 20.2614 5.12216 20.1534 5.63068 20.1534C6.14205 20.1534 6.59517 20.2614 6.99006 20.4773C7.38494 20.6932 7.6946 20.9844 7.91903 21.3509C8.14347 21.7173 8.25568 22.125 8.25568 22.5739C8.25568 22.8949 8.19744 23.2088 8.08097 23.5156C7.96733 23.8196 7.76847 24.1591 7.48438 24.5341C7.20312 24.9062 6.8125 25.3608 6.3125 25.8977L4.35227 27.9943V28.0625H8.40909V29H2.90341ZM9.77699 27.2102V26.3409L13.6122 20.2727H14.2429V21.6193H13.8168L10.919 26.2045V26.2727H16.0838V27.2102H9.77699ZM13.8849 29V26.946V26.5412V20.2727H14.8906V29H13.8849Z" fill="#3ACA37"/>
<mask id="mask0_247_7877" style="mask-type:alpha" maskUnits="userSpaceOnUse" x="0" y="0" width="20" height="17">
<rect width="19.3333" height="17" fill="#D9D9D9"/>
</mask>
<g mask="url(#mask0_247_7877)">
<path d="M18 8.33499H17.6666H15.6666H10.6666H8.66665H3.66665H1.66665H1.33331C0.783313 8.33499 0.333313 8.78499 0.333313 9.33499V16.0017C0.333313 16.185 0.483313 16.335 0.666646 16.335H2.99998C3.14998 16.335 3.27998 16.235 3.31998 16.0917L3.91665 14.0017H15.4166L16.0133 16.0917C16.0533 16.235 16.1833 16.335 16.3333 16.335H18.6666C18.85 16.335 19 16.185 19 16.0017V9.33499C19 8.78499 18.55 8.33499 18 8.33499Z" fill="#3ACA37"/>
<path d="M3.66663 7.66831V6.33498C3.66663 5.78498 4.11663 5.33498 4.66663 5.33498H7.66663C8.21663 5.33498 8.66663 5.78498 8.66663 6.33498V7.66831H10.6666V6.33498C10.6666 5.78498 11.1166 5.33498 11.6666 5.33498H14.6666C15.2166 5.33498 15.6666 5.78498 15.6666 6.33498V7.66831H17H17.6666V0.668313C17.6666 0.48498 17.5166 0.33498 17.3333 0.33498H15C14.8266 0.33498 14.6833 0.468313 14.6666 0.641647L14.6033 1.40831C11.73 -0.0250204 7.60329 -0.0250204 4.72996 1.40831L4.66663 0.641647C4.64996 0.468313 4.50663 0.33498 4.33329 0.33498H1.99996C1.81663 0.33498 1.66663 0.48498 1.66663 0.668313V7.66831H2.33329H3.66663Z" fill="#3ACA37"/>
<path d="M4.66665 6.00165C4.48331 6.00165 4.33331 6.15165 4.33331 6.33498V7.66831H7.99998V6.33498C7.99998 6.15165 7.84998 6.00165 7.66665 6.00165H4.66665Z" fill="#3ACA37"/>
<path d="M11.6666 6.00165C11.4833 6.00165 11.3333 6.15165 11.3333 6.33498V7.66831H15V6.33498C15 6.15165 14.85 6.00165 14.6666 6.00165H11.6666Z" fill="#3ACA37"/>
</g>
</svg>
