<svg width="56" height="12" viewBox="0 0 56 12" fill="none" xmlns="http://www.w3.org/2000/svg">
<path d="M18.125 10H15.8807V2.72727H18.2244C18.9299 2.72727 19.5336 2.87287 20.0355 3.16406C20.5374 3.45289 20.9221 3.86837 21.1896 4.41051C21.4571 4.95028 21.5909 5.59659 21.5909 6.34943C21.5909 7.10701 21.456 7.75923 21.1861 8.30611C20.9162 8.85062 20.5232 9.26965 20.0071 9.56321C19.491 9.8544 18.8636 10 18.125 10ZM16.7614 9.21875H18.0682C18.6695 9.21875 19.1679 9.10275 19.5632 8.87074C19.9586 8.63873 20.2533 8.30848 20.4474 7.87997C20.6416 7.45147 20.7386 6.94129 20.7386 6.34943C20.7386 5.76231 20.6428 5.25687 20.451 4.8331C20.2592 4.40696 19.9728 4.08026 19.5916 3.85298C19.2105 3.62334 18.7358 3.50852 18.1676 3.50852H16.7614V9.21875ZM25.2415 10.1136C24.7159 10.1136 24.2625 9.99763 23.8814 9.76562C23.5026 9.53125 23.2102 9.20455 23.0043 8.78551C22.8007 8.36411 22.6989 7.87405 22.6989 7.31534C22.6989 6.75663 22.8007 6.2642 23.0043 5.83807C23.2102 5.40956 23.4967 5.07576 23.8636 4.83665C24.233 4.59517 24.6638 4.47443 25.1562 4.47443C25.4403 4.47443 25.7209 4.52178 25.9979 4.61648C26.2749 4.71117 26.527 4.86506 26.7543 5.07812C26.9815 5.28883 27.1626 5.56818 27.2976 5.91619C27.4325 6.2642 27.5 6.69271 27.5 7.2017V7.55682H23.2955V6.83239H26.6477C26.6477 6.52462 26.5862 6.25 26.4631 6.00852C26.3423 5.76705 26.1695 5.57647 25.9446 5.43679C25.7221 5.29711 25.4593 5.22727 25.1562 5.22727C24.8224 5.22727 24.5336 5.31013 24.2898 5.47585C24.0483 5.6392 23.8625 5.85227 23.7322 6.11506C23.602 6.37784 23.5369 6.65956 23.5369 6.96023V7.44318C23.5369 7.85511 23.608 8.20431 23.75 8.49077C23.8944 8.77486 24.0945 8.99148 24.3501 9.14062C24.6058 9.28741 24.9029 9.3608 25.2415 9.3608C25.4616 9.3608 25.6605 9.33002 25.8381 9.26847C26.018 9.20455 26.1731 9.10985 26.3033 8.98438C26.4335 8.85653 26.5341 8.69792 26.6051 8.50852L27.4148 8.7358C27.3295 9.01042 27.1863 9.25189 26.9851 9.46023C26.7839 9.66619 26.5353 9.82718 26.2393 9.94318C25.9434 10.0568 25.6108 10.1136 25.2415 10.1136ZM31.147 4.54545V5.25568H28.3203V4.54545H31.147ZM29.1442 3.23864H29.9822V8.4375C29.9822 8.67424 30.0166 8.8518 30.0852 8.97017C30.1563 9.08617 30.2462 9.1643 30.3551 9.20455C30.4664 9.24242 30.5836 9.26136 30.7067 9.26136C30.799 9.26136 30.8748 9.25663 30.9339 9.24716C30.9931 9.23532 31.0405 9.22585 31.076 9.21875L31.2464 9.97159C31.1896 9.9929 31.1103 10.0142 31.0085 10.0355C30.9067 10.0592 30.7777 10.071 30.6214 10.071C30.3847 10.071 30.1527 10.0201 29.9254 9.91832C29.7005 9.81652 29.5135 9.66146 29.3643 9.45312C29.2176 9.24479 29.1442 8.98201 29.1442 8.66477V3.23864ZM34.0128 10.1278C33.6671 10.1278 33.3535 10.0627 33.0717 9.93253C32.79 9.79995 32.5663 9.60938 32.4006 9.3608C32.2348 9.10985 32.152 8.80682 32.152 8.4517C32.152 8.1392 32.2135 7.88589 32.3366 7.69176C32.4598 7.49527 32.6243 7.34138 32.8303 7.23011C33.0362 7.11884 33.2635 7.03598 33.5121 6.98153C33.763 6.92472 34.0152 6.87973 34.2685 6.84659C34.5999 6.80398 34.8686 6.77202 35.0746 6.75071C35.2829 6.72704 35.4344 6.68797 35.5291 6.63352C35.6262 6.57907 35.6747 6.48437 35.6747 6.34943V6.32102C35.6747 5.97064 35.5788 5.69839 35.3871 5.50426C35.1977 5.31013 34.91 5.21307 34.5241 5.21307C34.1241 5.21307 33.8104 5.30066 33.5831 5.47585C33.3558 5.65104 33.196 5.83807 33.1037 6.03693L32.3082 5.75284C32.4503 5.4214 32.6397 5.16335 32.8764 4.97869C33.1155 4.79167 33.3759 4.66146 33.6577 4.58807C33.9418 4.51231 34.2211 4.47443 34.4957 4.47443C34.6709 4.47443 34.8722 4.49574 35.0994 4.53835C35.3291 4.5786 35.5504 4.66264 35.7635 4.79048C35.9789 4.91832 36.1577 5.11127 36.2997 5.36932C36.4418 5.62737 36.5128 5.97301 36.5128 6.40625V10H35.6747V9.26136H35.6321C35.5753 9.37973 35.4806 9.50639 35.348 9.64134C35.2154 9.77628 35.0391 9.8911 34.8189 9.9858C34.5987 10.0805 34.33 10.1278 34.0128 10.1278ZM34.1406 9.375C34.4721 9.375 34.7514 9.3099 34.9787 9.17969C35.2083 9.04948 35.3812 8.88139 35.4972 8.67543C35.6155 8.46946 35.6747 8.25284 35.6747 8.02557V7.25852C35.6392 7.30114 35.5611 7.3402 35.4403 7.37571C35.322 7.40885 35.1847 7.43845 35.0284 7.46449C34.8745 7.48816 34.7242 7.50947 34.5774 7.52841C34.433 7.54498 34.3158 7.55919 34.2259 7.57102C34.008 7.59943 33.8045 7.6456 33.6151 7.70952C33.428 7.77107 33.2765 7.86458 33.1605 7.99006C33.0469 8.11316 32.9901 8.28125 32.9901 8.49432C32.9901 8.78551 33.0978 9.00568 33.3132 9.15483C33.531 9.30161 33.8068 9.375 34.1406 9.375ZM38.0424 10V4.54545H38.8805V10H38.0424ZM38.4686 3.63636C38.3052 3.63636 38.1644 3.58073 38.046 3.46946C37.93 3.35819 37.872 3.22443 37.872 3.06818C37.872 2.91193 37.93 2.77817 38.046 2.6669C38.1644 2.55563 38.3052 2.5 38.4686 2.5C38.6319 2.5 38.7716 2.55563 38.8876 2.6669C39.006 2.77817 39.0652 2.91193 39.0652 3.06818C39.0652 3.22443 39.006 3.35819 38.8876 3.46946C38.7716 3.58073 38.6319 3.63636 38.4686 3.63636ZM41.2536 2.72727V10H40.4155V2.72727H41.2536ZM46.6522 5.76705L45.8993 5.98011C45.852 5.85464 45.7821 5.73272 45.6898 5.61435C45.5998 5.49361 45.4767 5.39418 45.3205 5.31605C45.1642 5.23793 44.9642 5.19886 44.7203 5.19886C44.3865 5.19886 44.1084 5.2758 43.8858 5.42969C43.6657 5.5812 43.5556 5.77415 43.5556 6.00852C43.5556 6.21686 43.6313 6.38139 43.7828 6.50213C43.9344 6.62287 44.1711 6.72348 44.4931 6.80398L45.3027 7.00284C45.7904 7.12121 46.1538 7.30232 46.3929 7.54616C46.632 7.78764 46.7516 8.09896 46.7516 8.48011C46.7516 8.79261 46.6616 9.07197 46.4817 9.31818C46.3042 9.56439 46.0556 9.75852 45.736 9.90057C45.4164 10.0426 45.0447 10.1136 44.6209 10.1136C44.0646 10.1136 43.6041 9.9929 43.2395 9.75142C42.8749 9.50994 42.6441 9.1572 42.5471 8.69318L43.3425 8.49432C43.4183 8.78788 43.5615 9.00805 43.7722 9.15483C43.9853 9.30161 44.2634 9.375 44.6067 9.375C44.9973 9.375 45.3075 9.29214 45.5371 9.12642C45.7691 8.95833 45.8851 8.7571 45.8851 8.52273C45.8851 8.33333 45.8188 8.17472 45.6863 8.04688C45.5537 7.91667 45.3501 7.8196 45.0755 7.75568L44.1664 7.54261C43.6668 7.42424 43.2999 7.24077 43.0655 6.99219C42.8335 6.74124 42.7175 6.42756 42.7175 6.05114C42.7175 5.74337 42.8039 5.47112 42.9767 5.23438C43.1519 4.99763 43.3899 4.81179 43.6905 4.67685C43.9935 4.5419 44.3368 4.47443 44.7203 4.47443C45.2601 4.47443 45.6839 4.5928 45.9917 4.82955C46.3018 5.06629 46.522 5.37879 46.6522 5.76705ZM48.6239 10.0568C48.4487 10.0568 48.2984 9.99408 48.1729 9.86861C48.0475 9.74313 47.9847 9.5928 47.9847 9.41761C47.9847 9.24242 48.0475 9.09209 48.1729 8.96662C48.2984 8.84115 48.4487 8.77841 48.6239 8.77841C48.7991 8.77841 48.9495 8.84115 49.0749 8.96662C49.2004 9.09209 49.2631 9.24242 49.2631 9.41761C49.2631 9.53362 49.2335 9.64015 49.1744 9.73722C49.1175 9.83428 49.0406 9.91241 48.9435 9.97159C48.8488 10.0284 48.7423 10.0568 48.6239 10.0568ZM51.3778 10.0568C51.2027 10.0568 51.0523 9.99408 50.9268 9.86861C50.8014 9.74313 50.7386 9.5928 50.7386 9.41761C50.7386 9.24242 50.8014 9.09209 50.9268 8.96662C51.0523 8.84115 51.2027 8.77841 51.3778 8.77841C51.553 8.77841 51.7034 8.84115 51.8288 8.96662C51.9543 9.09209 52.017 9.24242 52.017 9.41761C52.017 9.53362 51.9875 9.64015 51.9283 9.73722C51.8714 9.83428 51.7945 9.91241 51.6974 9.97159C51.6027 10.0284 51.4962 10.0568 51.3778 10.0568ZM54.1317 10.0568C53.9566 10.0568 53.8062 9.99408 53.6808 9.86861C53.5553 9.74313 53.4925 9.5928 53.4925 9.41761C53.4925 9.24242 53.5553 9.09209 53.6808 8.96662C53.8062 8.84115 53.9566 8.77841 54.1317 8.77841C54.3069 8.77841 54.4573 8.84115 54.5827 8.96662C54.7082 9.09209 54.771 9.24242 54.771 9.41761C54.771 9.53362 54.7414 9.64015 54.6822 9.73722C54.6254 9.83428 54.5484 9.91241 54.4513 9.97159C54.3567 10.0284 54.2501 10.0568 54.1317 10.0568Z" fill="#0085FF"/>
<g clip-path="url(#clip0_627_2369)">
<path d="M1.5 10.5H10.5M6.111 2.914L7.525 1.5L10 3.975L8.586 5.389M6.111 2.914L3.3075 5.7175C3.21373 5.81125 3.16103 5.9384 3.161 6.071V8.339H5.429C5.5616 8.33897 5.68875 8.28627 5.7825 8.1925L8.586 5.389M6.111 2.914L8.586 5.389" stroke="#0085FF" stroke-width="1.5" stroke-linecap="round" stroke-linejoin="round"/>
</g>
<defs>
<clipPath id="clip0_627_2369">
<rect width="12" height="12" fill="white"/>
</clipPath>
</defs>
</svg>
