<svg width="20" height="23" viewBox="0 0 20 23" fill="none" xmlns="http://www.w3.org/2000/svg">
<path d="M9.65521 22.5C5.76758 22.5 2.82099 15.9953 2.69803 15.7182C2.66634 15.6483 2.65049 15.5723 2.65049 15.4958V15.1199H0.621426C0.319226 15.1199 0.0749512 14.875 0.0749512 14.5734V1.04648C0.0749512 0.744821 0.319226 0.5 0.621426 0.5H10.5061C10.8083 0.5 11.0525 0.744821 11.0525 1.04648C11.0525 1.34813 10.8083 1.59295 10.5061 1.59295H1.1679V14.0269H3.19696C3.49917 14.0269 3.74344 14.2717 3.74344 14.5734V15.3772C4.55987 17.1527 7.06765 21.407 9.65521 21.407C12.2466 21.407 14.7511 17.1533 15.5659 15.3778V14.5734C15.5659 14.2717 15.8102 14.0269 16.1124 14.0269H18.1414V1.59295H12.7237C12.4215 1.59295 12.1772 1.34813 12.1772 1.04648C12.1772 0.744821 12.4215 0.5 12.7237 0.5H18.6879C18.9901 0.5 19.2344 0.744821 19.2344 1.04648V14.5734C19.2344 14.875 18.9901 15.1199 18.6879 15.1199H16.6588V15.4958C16.6588 15.5723 16.643 15.6483 16.6113 15.7182C16.4883 15.9953 13.5428 22.5 9.65521 22.5Z" fill="black"/>
<path d="M9.6552 20.3174C6.95452 20.3174 4.9965 16.1002 4.78228 15.6193C4.75059 15.5494 4.73474 15.4734 4.73474 15.3969V12.0776C4.73474 11.776 4.97902 11.5312 5.28122 11.5312C5.58342 11.5312 5.82769 11.776 5.82769 12.0776V15.2783C6.38291 16.4702 8.01141 19.2244 9.6552 19.2244C11.2979 19.2244 12.9264 16.4702 13.4816 15.2783V3.53185H5.82769V10.1076C5.82769 10.4092 5.58342 10.6541 5.28122 10.6541C4.97902 10.6541 4.73474 10.4092 4.73474 10.1076V2.98538C4.73474 2.68373 4.97902 2.4389 5.28122 2.4389H14.0281C14.3303 2.4389 14.5746 2.68373 14.5746 2.98538V15.3969C14.5746 15.4734 14.5587 15.5494 14.527 15.6193C14.3128 16.1002 12.3548 20.3174 9.6552 20.3174Z" fill="black"/>
<path d="M9.65519 9.09659C8.28682 9.09659 7.17365 7.98342 7.17365 6.61559C7.17365 5.24722 8.28682 4.13405 9.65519 4.13405C11.023 4.13405 12.1356 5.24722 12.1356 6.61559C12.1356 7.98342 11.023 9.09659 9.65519 9.09659ZM9.65519 5.227C8.88958 5.227 8.2666 5.84998 8.2666 6.61559C8.2666 7.38066 8.88958 8.00364 9.65519 8.00364C10.4203 8.00364 11.0427 7.38066 11.0427 6.61559C11.0427 5.84998 10.4203 5.227 9.65519 5.227Z" fill="black"/>
<path d="M16.9835 12.0399H15.8167C15.5145 12.0399 15.2703 11.7951 15.2703 11.4935C15.2703 11.1918 15.5145 10.947 15.8167 10.947H16.9835C17.2857 10.947 17.5299 11.1918 17.5299 11.4935C17.5299 11.7951 17.2857 12.0399 16.9835 12.0399Z" fill="black"/>
<path d="M16.9835 10.0092H15.8167C15.5145 10.0092 15.2703 9.76437 15.2703 9.46272C15.2703 9.16107 15.5145 8.91624 15.8167 8.91624H16.9835C17.2857 8.91624 17.5299 9.16107 17.5299 9.46272C17.5299 9.76437 17.2857 10.0092 16.9835 10.0092Z" fill="black"/>
<path d="M16.9835 7.97906H15.8167C15.5145 7.97906 15.2703 7.73424 15.2703 7.43258C15.2703 7.13093 15.5145 6.88611 15.8167 6.88611H16.9835C17.2857 6.88611 17.5299 7.13093 17.5299 7.43258C17.5299 7.73424 17.2857 7.97906 16.9835 7.97906Z" fill="black"/>
<path d="M16.9835 5.94836H15.8167C15.5145 5.94836 15.2703 5.70354 15.2703 5.40188C15.2703 5.10023 15.5145 4.85541 15.8167 4.85541H16.9835C17.2857 4.85541 17.5299 5.10023 17.5299 5.40188C17.5299 5.70354 17.2857 5.94836 16.9835 5.94836Z" fill="black"/>
<path d="M3.48932 12.0399H2.3226C2.0204 12.0399 1.77612 11.7951 1.77612 11.4935C1.77612 11.1918 2.0204 10.947 2.3226 10.947H3.48932C3.79152 10.947 4.0358 11.1918 4.0358 11.4935C4.0358 11.7951 3.79152 12.0399 3.48932 12.0399Z" fill="black"/>
<path d="M3.48932 10.0092H2.3226C2.0204 10.0092 1.77612 9.76437 1.77612 9.46272C1.77612 9.16107 2.0204 8.91624 2.3226 8.91624H3.48932C3.79152 8.91624 4.0358 9.16107 4.0358 9.46272C4.0358 9.76437 3.79152 10.0092 3.48932 10.0092Z" fill="black"/>
<path d="M3.48932 7.97906H2.3226C2.0204 7.97906 1.77612 7.73424 1.77612 7.43258C1.77612 7.13093 2.0204 6.88611 2.3226 6.88611H3.48932C3.79152 6.88611 4.0358 7.13093 4.0358 7.43258C4.0358 7.73424 3.79152 7.97906 3.48932 7.97906Z" fill="black"/>
<path d="M3.48932 5.94836H2.3226C2.0204 5.94836 1.77612 5.70354 1.77612 5.40188C1.77612 5.10023 2.0204 4.85541 2.3226 4.85541H3.48932C3.79152 4.85541 4.0358 5.10023 4.0358 5.40188C4.0358 5.70354 3.79152 5.94836 3.48932 5.94836Z" fill="black"/>
</svg>
