<svg width="42" height="42" viewBox="0 0 42 42" fill="none" xmlns="http://www.w3.org/2000/svg">
<g filter="url(#filter0_d_3259_211)">
<path d="M21 34C29.2843 34 36 27.2843 36 19C36 10.7157 29.2843 4 21 4C12.7157 4 6 10.7157 6 19C6 27.2843 12.7157 34 21 34Z" fill="white"/>
<path d="M35.5 19C35.5 27.0081 29.0081 33.5 21 33.5C12.9919 33.5 6.5 27.0081 6.5 19C6.5 10.9919 12.9919 4.5 21 4.5C29.0081 4.5 35.5 10.9919 35.5 19Z" stroke="#A1A1A1" stroke-opacity="0.3"/>
</g>
<path d="M19.6872 24.224H24.3192V26H17.5352V14.432H19.6872V24.224Z" fill="#A1A1A1"/>
<defs>
<filter id="filter0_d_3259_211" x="0" y="0" width="42" height="42" filterUnits="userSpaceOnUse" color-interpolation-filters="sRGB">
<feFlood flood-opacity="0" result="BackgroundImageFix"/>
<feColorMatrix in="SourceAlpha" type="matrix" values="0 0 0 0 0 0 0 0 0 0 0 0 0 0 0 0 0 0 127 0" result="hardAlpha"/>
<feOffset dy="2"/>
<feGaussianBlur stdDeviation="3"/>
<feComposite in2="hardAlpha" operator="out"/>
<feColorMatrix type="matrix" values="0 0 0 0 0.0666667 0 0 0 0 0.0901961 0 0 0 0 0.101961 0 0 0 0.22 0"/>
<feBlend mode="normal" in2="BackgroundImageFix" result="effect1_dropShadow_3259_211"/>
<feBlend mode="normal" in="SourceGraphic" in2="effect1_dropShadow_3259_211" result="shape"/>
</filter>
</defs>
</svg>
