<svg width="110" height="110" viewBox="0 0 110 110" fill="none" xmlns="http://www.w3.org/2000/svg">
<circle cx="55" cy="55" r="45" fill="#E1F1FF"/>
<circle cx="55" cy="55" r="52.5" stroke="#136AAA" stroke-width="5"/>
<path d="M35.8958 36.2879C37.5512 37.0579 39.1759 37.8907 40.8174 38.6894C40.8758 38.7173 40.9334 38.7529 40.9806 38.7956C41.0911 38.8955 41.089 39.0387 40.98 39.1393C40.948 39.1687 40.9119 39.2015 40.8723 39.212C40.6236 39.2784 40.5875 39.4482 40.6007 39.6808C40.6208 40.0414 40.6069 40.404 40.6055 40.7659C40.6055 40.8337 40.6187 40.8833 40.6736 40.9364C40.8146 41.072 40.8216 41.2515 40.6965 41.4074C40.6528 41.4612 40.6472 41.5038 40.6597 41.5688C40.7188 41.8692 40.7639 42.1724 40.8278 42.4722C40.8591 42.6175 40.8105 42.6895 40.675 42.7216C40.5083 42.7608 40.3416 42.7726 40.1735 42.7342C40.045 42.7049 39.9963 42.6336 40.0234 42.4966C40.0852 42.1913 40.1346 41.8832 40.1957 41.5771C40.2096 41.5059 40.2026 41.4598 40.1547 41.4011C40.0304 41.2466 40.0436 41.0776 40.1874 40.9308C40.229 40.8882 40.2499 40.8505 40.2492 40.7911C40.2471 40.3802 40.2478 39.9687 40.2478 39.5599C40.1936 39.5285 40.1603 39.5711 40.1255 39.5879C39.8261 39.7311 39.5295 39.8793 39.2301 40.0218C39.16 40.0553 39.1169 40.0889 39.1176 40.1776C39.1225 40.7058 39.0322 41.2243 38.9418 41.7427C38.928 41.8203 38.93 41.8853 39.0009 41.9454C39.0981 42.0285 39.1544 42.1445 39.1773 42.2717C39.2468 42.6594 39.1982 43.034 39.0349 43.3917C38.978 43.5161 38.8731 43.5999 38.7515 43.653C38.5647 43.7348 38.475 43.8759 38.4278 44.0722C38.1611 45.1825 37.1809 46.0804 36.057 46.2341C35.4089 46.3228 34.8288 46.1195 34.3127 45.7331C33.7229 45.2908 33.2985 44.7311 33.1464 43.9898C33.1165 43.8459 33.0318 43.7425 32.8984 43.6845C32.64 43.572 32.5059 43.3672 32.4552 43.0975C32.4128 42.8719 32.3698 42.6455 32.3934 42.4135C32.4114 42.2339 32.4635 42.0662 32.5983 41.9433C32.6622 41.8853 32.6691 41.8294 32.6566 41.756C32.567 41.2327 32.4726 40.7086 32.4795 40.1748C32.4809 40.0721 32.417 40.047 32.3489 40.0134C31.8314 39.7591 31.3139 39.5048 30.7971 39.249C30.7387 39.2204 30.679 39.1903 30.629 39.1498C30.4991 39.0436 30.497 38.8927 30.6276 38.7858C30.6901 38.7348 30.7637 38.6956 30.8367 38.66C32.3489 37.9152 33.8619 37.171 35.3755 36.4283C35.4811 36.3766 35.5915 36.3347 35.6999 36.2886L35.8958 36.2879ZM42.6513 53.1353C42.7791 53.1353 42.827 53.1171 42.8256 52.9711C42.818 51.9733 42.8194 50.9755 42.8236 49.9771C42.8249 49.743 42.7451 49.5537 42.5895 49.3846C42.1886 48.9486 41.685 48.6649 41.1571 48.4294C40.1943 47.9997 39.2023 47.635 38.3007 47.0746C38.043 46.9146 37.8992 46.96 37.7602 47.2325C37.4636 47.8167 37.1795 48.4071 36.8801 48.9891C36.6606 49.4167 36.4446 49.8492 36.0993 50.1937C35.8833 50.4096 35.7159 50.4047 35.4936 50.193C35.2651 49.9757 35.1088 49.7039 34.9545 49.4342C34.5475 48.7229 34.2356 47.9627 33.8424 47.2444C33.6847 46.9565 33.559 46.916 33.277 47.0816C32.5392 47.5155 31.7724 47.8851 30.9721 48.1926C30.3518 48.4308 29.7579 48.7299 29.2383 49.1575C28.9326 49.409 28.7541 49.6997 28.7659 50.128C28.7916 51.0706 28.7777 52.0138 28.7701 52.9571C28.7687 53.1003 28.8013 53.1367 28.9465 53.136C31.2305 53.1304 33.5145 53.1325 35.7986 53.1325C38.0826 53.1325 40.3673 53.1311 42.6513 53.1353ZM47.7049 57.7957H49.5908V33.2771C49.5908 32.0194 48.5774 31 47.327 31H24.2639C23.0135 31 22 32.0194 22 33.2771V78.7222C22 79.9806 23.0135 81 24.2639 81H47.327C48.5774 81 49.5908 79.9806 49.5908 78.7222V63.5126L46.6296 61.7574C45.7974 61.2634 45.409 60.3013 45.6633 59.3636C45.9182 58.4259 46.7386 57.7957 47.7049 57.7957ZM37.4822 74.4069C37.2308 74.6599 36.8834 74.8164 36.5 74.8164H28.7096C27.9427 74.8164 27.3203 74.191 27.3203 73.4189C27.3203 73.0333 27.4759 72.6839 27.7274 72.431C27.9789 72.178 28.3262 72.0215 28.7096 72.0215H36.5C37.2669 72.0215 37.8893 72.6469 37.8893 73.4189C37.8893 73.8046 37.7337 74.154 37.4822 74.4069ZM43.8628 69.7954C43.612 70.0484 43.2647 70.2049 42.8805 70.2049H28.7096C27.9427 70.2049 27.3203 69.5795 27.3203 68.8074C27.3203 68.4217 27.4759 68.0724 27.7274 67.8195C27.9789 67.5665 28.3262 67.41 28.7096 67.41H42.8805C43.6481 67.41 44.2698 68.0354 44.2698 68.8074C44.2698 69.1931 44.1142 69.5425 43.8628 69.7954ZM43.8628 65.1839C43.612 65.4368 43.2647 65.5933 42.8805 65.5933H28.7096C27.9427 65.5933 27.3203 64.968 27.3203 64.1959C27.3203 63.8102 27.4759 63.4609 27.7274 63.2079C27.9789 62.955 28.3262 62.7985 28.7096 62.7985H42.8805C43.6481 62.7985 44.2698 63.4238 44.2698 64.1959C44.2698 64.5816 44.1142 64.931 43.8628 65.1839ZM24.7647 56.6778C24.1972 56.6778 23.7366 56.2145 23.7366 55.6437V33.7809C23.7366 33.21 24.1972 32.7468 24.7647 32.7468H46.8261C47.3937 32.7468 47.8542 33.21 47.8542 33.7809V55.6437C47.8542 56.2145 47.3937 56.6778 46.8261 56.6778H24.7647ZM70.8597 68.1534H72.8832L71.8621 65.3425L70.8597 68.1534ZM89.402 59.1931H47.7049C46.9651 59.1931 46.6983 60.1755 47.3353 60.5535L51.4518 62.9941C52.0909 63.3728 52.4834 64.0639 52.4834 64.8101V73.0137C52.4834 74.4572 53.6462 75.6269 55.0814 75.6269H89.402C90.8372 75.6269 92 74.4572 92 73.0137V61.8063C92 60.3628 90.8372 59.1931 89.402 59.1931ZM61.8577 70.6597C61.741 70.7638 61.5701 70.8155 61.345 70.8155H58.0336C57.7349 70.8155 57.5203 70.7485 57.389 70.6157C57.2584 70.4823 57.1931 70.2671 57.1931 69.9701V64.7248C57.1931 64.4461 57.2549 64.2371 57.38 64.0974C57.5043 63.9584 57.6689 63.8885 57.8718 63.8885C58.0746 63.8885 58.2455 63.9577 58.3733 64.0953C58.5004 64.233 58.5644 64.4433 58.5644 64.7248V69.6815H61.345C61.5666 69.6815 61.7368 69.736 61.8556 69.8443C61.9744 69.9526 62.0334 70.0889 62.0334 70.2531C62.0334 70.4173 61.9751 70.5563 61.8577 70.6597ZM67.9894 70.6646C67.8796 70.7652 67.7178 70.8155 67.5017 70.8155H63.7749C63.4762 70.8155 63.2609 70.7485 63.1303 70.6157C62.9997 70.4823 62.9337 70.2671 62.9337 69.9701V64.8499C62.9337 64.6522 62.9636 64.4901 63.0219 64.365C63.0803 64.2392 63.172 64.1477 63.2963 64.0904C63.4214 64.0331 63.5804 64.0045 63.7749 64.0045H67.3955C67.6143 64.0045 67.7768 64.0534 67.8831 64.1512C67.9894 64.2483 68.0422 64.3762 68.0422 64.5341C68.0422 64.692 67.9894 64.8248 67.8831 64.9219C67.7768 65.0197 67.6143 65.0686 67.3955 65.0686H64.3056V66.7406H67.1509C67.36 66.7406 67.5163 66.7882 67.6198 66.8825C67.7226 66.9775 67.7747 67.1019 67.7747 67.257C67.7747 67.4121 67.724 67.5379 67.6219 67.635C67.5205 67.7328 67.3635 67.7817 67.1509 67.7817H64.3056V69.7193H67.5017C67.7178 69.7193 67.8796 69.7696 67.9894 69.8702C68.0984 69.9708 68.1533 70.1043 68.1533 70.2719C68.1533 70.4396 68.0984 70.564 67.9894 70.6646ZM74.8435 70.7338C74.7129 70.8658 74.5545 70.9315 74.3704 70.9315C74.2621 70.9315 74.1697 70.912 74.0933 70.8735C74.0162 70.8344 73.9516 70.782 73.8988 70.7156C73.8467 70.6492 73.7904 70.5465 73.7307 70.4089C73.6702 70.2712 73.6188 70.1497 73.5758 70.0442L73.2521 69.1896H70.4998L70.1761 70.063C70.0497 70.4033 69.942 70.6332 69.8531 70.7527C69.7635 70.8721 69.6176 70.9315 69.4141 70.9315C69.2418 70.9315 69.089 70.8679 68.957 70.7408C68.8243 70.6143 68.7584 70.4704 68.7584 70.309C68.7584 70.216 68.7736 70.1203 68.8042 70.0211C68.8355 69.9219 68.8862 69.7842 68.957 69.6075L70.6888 65.1846C70.7381 65.0574 70.7972 64.9051 70.8666 64.7269C70.9361 64.5488 71.0097 64.4013 71.0882 64.2833C71.1667 64.1659 71.2702 64.0702 71.398 63.9975C71.5258 63.9248 71.6835 63.8885 71.8711 63.8885C72.0586 63.8885 72.2219 63.9248 72.3497 63.9975C72.4768 64.0702 72.5803 64.1645 72.6588 64.2791C72.7373 64.3937 72.8033 64.5166 72.8575 64.648C72.911 64.78 72.9798 64.9554 73.0631 65.1755L74.8317 69.5704C74.9706 69.9044 75.0401 70.1483 75.0401 70.2999C75.0401 70.4515 74.9741 70.6024 74.8435 70.7338ZM81.0169 64.7269C80.9981 64.8059 80.9752 64.8835 80.9474 64.9596C80.9196 65.0351 80.8918 65.1133 80.864 65.1937L79.2247 69.6445C79.1656 69.815 79.1073 69.9771 79.0489 70.1301C78.9906 70.2831 78.9225 70.418 78.8461 70.534C78.769 70.6506 78.6662 70.7457 78.5383 70.8197C78.4105 70.8945 78.2542 70.9315 78.0695 70.9315C77.8847 70.9315 77.7284 70.8952 77.6013 70.8225C77.4734 70.7499 77.3699 70.6534 77.2915 70.534C77.213 70.4152 77.1442 70.2796 77.0858 70.128C77.0275 69.9764 76.9691 69.815 76.9108 69.6445L75.2985 65.2314C75.2707 65.1504 75.2422 65.0714 75.2131 64.9939C75.1839 64.917 75.1589 64.8331 75.1394 64.743C75.1193 64.6536 75.1089 64.5774 75.1089 64.5159C75.1089 64.358 75.1721 64.2134 75.2985 64.0834C75.4249 63.9535 75.5833 63.8885 75.7743 63.8885C76.0084 63.8885 76.1738 63.9605 76.271 64.1044C76.3676 64.2483 76.4669 64.4782 76.569 64.7947L78.1021 69.3615L79.6401 64.7619C79.72 64.5201 79.7804 64.3524 79.82 64.2581C79.8603 64.1631 79.9263 64.0785 80.0187 64.0024C80.111 63.9262 80.2375 63.8885 80.3979 63.8885C80.5146 63.8885 80.623 63.9178 80.723 63.9765C80.8231 64.0359 80.9016 64.1135 80.9585 64.2113C81.0155 64.3091 81.0447 64.4076 81.0447 64.5061C81.0447 64.5746 81.0349 64.648 81.0169 64.7269ZM87.1298 70.6646C87.02 70.7652 86.8575 70.8155 86.6422 70.8155H82.9147C82.616 70.8155 82.4013 70.7485 82.2707 70.6157C82.1394 70.4823 82.0741 70.2671 82.0741 69.9701V64.8499C82.0741 64.6522 82.1033 64.4901 82.1623 64.365C82.2207 64.2392 82.3124 64.1477 82.4367 64.0904C82.5618 64.0331 82.7208 64.0045 82.9147 64.0045H86.5359C86.7547 64.0045 86.9172 64.0534 87.0235 64.1512C87.1298 64.2483 87.1826 64.3762 87.1826 64.5341C87.1826 64.692 87.1298 64.8248 87.0235 64.9219C86.9172 65.0197 86.7547 65.0686 86.5359 65.0686H83.4461V66.7406H86.2914C86.5005 66.7406 86.6567 66.7882 86.7602 66.8825C86.8631 66.9775 86.9145 67.1019 86.9145 67.257C86.9145 67.4121 86.8637 67.5379 86.7623 67.635C86.6609 67.7328 86.5039 67.7817 86.2914 67.7817H83.4461V69.7193H86.6422C86.8575 69.7193 87.02 69.7696 87.1298 69.8702C87.2389 69.9708 87.2937 70.1043 87.2937 70.2719C87.2937 70.4396 87.2389 70.564 87.1298 70.6646Z" fill="#136AAA"/>
</svg>
