<svg width="106" height="106" viewBox="0 0 106 106" fill="none" xmlns="http://www.w3.org/2000/svg">
<g filter="url(#filter0_d_1946_734)">
<path fill-rule="evenodd" clip-rule="evenodd" d="M52.9946 4C77.8476 4 98 24.1525 98 49C98 73.8583 77.8476 94 52.9946 94C28.1416 94 8 73.8583 8 49C8 24.1525 28.1416 4 52.9946 4Z" fill="#3A2D91"/>
<path fill-rule="evenodd" clip-rule="evenodd" d="M52.9945 15.7788C71.3461 15.7788 86.2178 30.6563 86.2178 49C86.2178 67.3546 71.3461 82.2321 52.9945 82.2321C34.6537 82.2321 19.7712 67.3546 19.7712 49C19.7712 30.6563 34.6537 15.7788 52.9945 15.7788Z" fill="#FEFEFE"/>
<path fill-rule="evenodd" clip-rule="evenodd" d="M47.1841 34.991H59.2491L64.4259 48.9677C61.3756 48.4957 57.996 48.2002 54.4482 48.1389L53.0662 43.6998L51.7237 48.1389C48.1722 48.1894 44.8177 48.4776 41.7746 48.9352C44.5098 41.5379 46.9801 34.991 47.1841 34.991ZM69.6242 63.0308L72.1052 69.7183L61.2718 70.1579L59.5713 64.6775C63.3089 64.3712 66.7279 63.7983 69.6242 63.0308ZM46.6865 64.6955L45.0182 70.1543L34.1848 69.7147C34.1848 69.7147 35.1729 66.9943 36.5942 63.0885C39.5156 63.8488 42.9417 64.4 46.6865 64.6955Z" fill="#3E00FF"/>
<path fill-rule="evenodd" clip-rule="evenodd" d="M52.9948 49.2559C65.5072 49.2559 75.7212 52.5275 75.7212 56.5379C75.7212 60.5446 65.5072 63.8199 52.9948 63.8199C40.4823 63.8199 30.2791 60.5482 30.2791 56.5379C30.2791 52.5275 40.4823 49.2559 52.9948 49.2559Z" fill="#008C44"/>
<path fill-rule="evenodd" clip-rule="evenodd" d="M46.2067 54.3291H46.869C46.8905 54.0445 46.9013 53.7887 46.9084 53.5725C46.9192 53.3491 46.9192 53.1833 46.9192 53.0608V52.805V52.5708C46.7867 52.8482 46.6542 53.1221 46.5325 53.4212C46.4215 53.7058 46.3105 54.0121 46.2067 54.3291ZM44.2949 55.5758L44.1947 55.565C44.1553 55.565 44.1231 55.5434 44.0945 55.5038C44.0622 55.4714 44.0551 55.4317 44.0551 55.3813C44.0551 55.3597 44.0551 55.32 44.0658 55.2696C44.0766 55.2191 44.1052 55.1074 44.1482 54.9525L44.1589 54.9021V54.8804C44.2699 54.4517 44.4346 54.2355 44.6565 54.2355H44.9107C45.1363 53.695 45.369 53.1833 45.5909 52.7221C45.8165 52.2609 46.017 51.8934 46.1817 51.6088L46.2425 51.5259C46.3249 51.3926 46.3965 51.3025 46.4573 51.2593C46.5289 51.2196 46.6113 51.198 46.7115 51.198C46.7509 51.198 46.8118 51.198 46.8726 51.2088C46.9335 51.2088 47.0051 51.2196 47.0767 51.2304L47.1483 51.2412C47.4633 51.2809 47.6781 51.3349 47.7676 51.4034C47.8607 51.4646 47.9216 51.5763 47.9395 51.7421L47.9502 51.843C48.0003 52.2213 48.0433 52.7113 48.0719 53.3347C48.1006 53.958 48.1113 54.6318 48.1113 55.3488C48.1113 55.7164 48.1113 56.0443 48.0898 56.3289C48.0898 56.3505 48.0898 56.3613 48.0898 56.3685L48.0791 56.4622C48.0684 56.6352 48.0182 56.7577 47.9252 56.8298C47.8428 56.891 47.6817 56.9306 47.4562 56.9523H47.3846H47.2736C47.091 56.9523 46.9585 56.9198 46.8762 56.8694C46.7831 56.8081 46.733 56.7145 46.733 56.5919V55.8857V55.3236V54.812L46.4573 55.3957C46.4251 55.4678 46.3965 55.5074 46.3463 55.5398C46.307 55.5722 46.2354 55.5794 46.153 55.5794H45.7377C45.616 55.8749 45.4835 56.1812 45.3618 56.4983C45.3296 56.5703 45.3117 56.61 45.301 56.6208L45.2687 56.7145C45.2293 56.7973 45.1864 56.8586 45.1255 56.8982C45.0754 56.9378 45.0145 56.9595 44.9322 56.9595C44.8713 56.9595 44.8105 56.9487 44.7389 56.9378C44.6673 56.927 44.5957 56.9054 44.5241 56.8874L44.4525 56.8658C44.2591 56.8045 44.1267 56.7433 44.0551 56.6928C43.9835 56.6424 43.9548 56.5811 43.9548 56.4983C43.9548 56.4766 43.9548 56.4658 43.9548 56.4478C43.9656 56.4262 43.9656 56.4082 43.9763 56.3649L43.9871 56.3145C44.0085 56.2532 44.0479 56.1524 44.098 56.019C44.1517 55.8929 44.2233 55.738 44.2949 55.5758ZM48.7629 56.2496C48.8023 56.0443 48.8631 55.7488 48.967 55.3597C49.06 54.9705 49.1603 54.5525 49.2713 54.1022C49.4646 53.3959 49.6078 52.8663 49.708 52.5276C49.8083 52.1817 49.9121 51.8718 50.0124 51.5871L50.0338 51.5151C50.0732 51.3926 50.1269 51.3097 50.177 51.2701C50.2272 51.2304 50.3095 51.2088 50.4097 51.2088C50.4921 51.2088 50.5637 51.2088 50.6245 51.2088C50.6854 51.2196 50.7463 51.2196 50.7964 51.2196L50.8573 51.2304C51.1329 51.2701 51.3155 51.3133 51.405 51.3529C51.4945 51.3926 51.5375 51.4646 51.5375 51.5475C51.5375 51.5583 51.5375 51.5799 51.5375 51.598C51.5267 51.6196 51.516 51.6376 51.516 51.6592L51.4945 51.7313C51.4337 51.9475 51.3513 52.2645 51.2403 52.6825C50.732 54.5129 50.4062 55.7704 50.2737 56.4658L50.2522 56.5595C50.22 56.7144 50.1699 56.8261 50.0983 56.8874C50.0374 56.9378 49.9372 56.9703 49.794 56.9703C49.7546 56.9703 49.7009 56.9703 49.64 56.9595C49.5684 56.9487 49.5076 56.9378 49.4467 56.927L49.4073 56.9162C49.1317 56.8658 48.9491 56.8045 48.8596 56.7325C48.7772 56.6712 48.7271 56.5703 48.7271 56.4262C48.7271 56.4154 48.7378 56.3938 48.7378 56.3541C48.7378 56.3325 48.7486 56.3145 48.7486 56.3037L48.7629 56.2496ZM51.3262 56.3541C51.5088 55.6299 51.7236 54.8516 51.9886 54.0445C52.2535 53.2374 52.5578 52.4087 52.8836 51.5799L52.9158 51.5187C52.9552 51.407 53.0089 51.3241 53.0769 51.2845C53.1485 51.2448 53.238 51.2232 53.3633 51.2232C53.4457 51.2232 53.5244 51.2232 53.6068 51.234C53.6891 51.234 53.7679 51.2448 53.8395 51.2665H53.9326C54.2369 51.3277 54.4409 51.389 54.5519 51.461C54.6629 51.5331 54.7238 51.6772 54.756 51.9006V52.0628C54.756 52.297 54.7452 52.6645 54.7238 53.1653C54.7023 53.677 54.6736 54.2283 54.6307 54.8408C54.8025 54.4949 55.0388 54.0229 55.3216 53.4284C55.8014 52.4375 56.1057 51.843 56.2489 51.6304L56.2811 51.5799C56.3813 51.4178 56.4744 51.3133 56.546 51.2737C56.6284 51.234 56.7286 51.2124 56.8503 51.2124C56.8897 51.2124 56.9327 51.2124 56.9828 51.2232C57.0329 51.2232 57.1045 51.234 57.2155 51.2448L57.2549 51.2556C57.5485 51.3061 57.7525 51.3673 57.8742 51.4502C57.9852 51.5223 58.0461 51.6556 58.0461 51.8286V51.861V51.9222C58.0461 52.0051 58.0246 52.1997 57.996 52.4951C57.9637 52.7906 57.9029 53.3455 57.8241 54.1706C57.7919 54.4372 57.7633 54.8048 57.7131 55.2444C57.6415 55.8893 57.6022 56.2857 57.5807 56.419L57.5699 56.4911C57.5377 56.6748 57.4769 56.7973 57.3873 56.8586C57.2871 56.9198 57.1332 56.9595 56.9005 56.9595H56.8002H56.7501C56.546 56.9487 56.4028 56.9198 56.3241 56.8658C56.2417 56.8153 56.2023 56.7433 56.2023 56.6316C56.2023 56.6208 56.2023 56.5991 56.2131 56.5811C56.2131 56.5595 56.2131 56.5415 56.2131 56.5415V56.5019C56.2238 56.4514 56.2847 56.0298 56.4064 55.2552C56.5281 54.4805 56.6391 53.7418 56.7322 53.0356C56.4887 53.5761 56.2238 54.131 55.9374 54.7039C55.6617 55.2876 55.3682 55.8713 55.0639 56.4622L55.0245 56.5235C54.9314 56.6964 54.8526 56.8081 54.7596 56.8694C54.6665 56.9306 54.5448 56.9631 54.3944 56.9631C54.355 56.9631 54.2941 56.9631 54.2011 56.9523C54.1796 56.9523 54.1617 56.9523 54.1509 56.9523L54.0793 56.9414C53.8753 56.9198 53.7249 56.8694 53.6318 56.7865C53.5316 56.7036 53.4886 56.6028 53.4886 56.4586V56.4262V56.3649C53.5101 55.8137 53.5387 55.0138 53.5996 53.9724C53.6211 53.5617 53.6318 53.2662 53.6497 53.0608C53.3741 53.8391 53.1091 54.7904 52.8263 55.9145C52.7547 56.2316 52.6938 56.4478 52.6545 56.5775L52.633 56.6604C52.6008 56.7829 52.5614 56.8766 52.5113 56.9054C52.4719 56.9451 52.4003 56.9667 52.2857 56.9667C52.2463 56.9667 52.1926 56.9667 52.1246 56.9559C52.0637 56.9451 51.9921 56.9342 51.9205 56.9234L51.8597 56.9126C51.6556 56.873 51.5124 56.8298 51.4337 56.7685C51.3406 56.7181 51.3012 56.646 51.3012 56.5631C51.3012 56.5415 51.3012 56.5127 51.3012 56.4911C51.3119 56.4694 51.3227 56.4406 51.3227 56.4082L51.3262 56.3541ZM59.4423 55.5975C59.6571 55.5867 59.7968 55.5578 59.8898 55.4966C59.9901 55.4245 60.033 55.3344 60.033 55.1903C60.033 55.0966 60.0008 54.9849 59.9507 54.8516C59.8898 54.7183 59.7896 54.5453 59.6464 54.3291C59.6142 54.2895 59.5855 54.2283 59.5247 54.1454C59.1774 53.6229 59.0056 53.2266 59.0056 52.9599C59.0056 52.4807 59.2597 52.07 59.7681 51.7241C60.2765 51.3854 60.9173 51.2124 61.6906 51.2124C61.977 51.2124 62.1704 51.252 62.2706 51.3241C62.3816 51.3962 62.4317 51.5295 62.4317 51.7241C62.4317 51.7853 62.421 51.8682 62.4102 51.9475C62.3995 52.0411 62.3995 52.0916 62.3995 52.1096L62.3887 52.1492C62.3673 52.4159 62.3171 52.5996 62.2169 52.7113C62.1238 52.823 61.9735 52.8843 61.7479 52.8951L61.6763 52.9059C61.6047 52.9167 61.5438 52.9167 61.4937 52.9167C61.4436 52.9167 61.3935 52.9167 61.3505 52.9167C61.2789 52.9167 61.2181 52.9059 61.1894 52.8843C61.15 52.8627 61.1285 52.8338 61.1285 52.7906V52.769L61.1679 52.5456C60.9639 52.5564 60.8028 52.596 60.6596 52.6681C60.5271 52.7402 60.4555 52.823 60.4555 52.9023C60.4555 52.9419 60.4662 52.996 60.4877 53.0356C60.5199 53.0861 60.5486 53.1473 60.5987 53.2194C60.6309 53.2698 60.6918 53.3419 60.7526 53.4428C61.261 54.1886 61.5152 54.7615 61.5152 55.1903C61.5152 55.7416 61.3004 56.1704 60.8744 56.4875C60.4376 56.7937 59.8469 56.9487 59.0843 56.9487C58.7299 56.9487 58.4757 56.909 58.311 56.8153C58.1499 56.7145 58.0676 56.5703 58.0676 56.3649C58.0676 56.3253 58.0676 56.2713 58.0783 56.2028C58.0783 56.1415 58.089 56.0695 58.0998 55.9974L58.1105 55.9362V55.8965C58.1821 55.4173 58.4041 55.1399 58.7907 55.0786L58.8409 55.0678C58.8731 55.057 58.9125 55.057 58.9733 55.0462C59.0449 55.0462 59.1165 55.0462 59.1989 55.0462C59.292 55.0462 59.3707 55.057 59.4244 55.0966C59.4853 55.1291 59.5068 55.1795 59.5068 55.2299V55.2696L59.4423 55.5975Z" fill="#FEFEFE"/>
<path fill-rule="evenodd" clip-rule="evenodd" d="M38.61 59.1537L39.0683 59.2762C38.8857 59.5321 38.6208 59.7158 38.2556 59.8275C37.8904 59.9392 37.5324 59.95 37.1959 59.8599C36.9811 59.7987 36.8307 59.705 36.7376 59.5825C36.6445 59.4492 36.6266 59.305 36.6768 59.1429C36.7161 58.988 36.82 58.8655 36.9632 58.7646C37.1064 58.6709 37.3283 58.5808 37.6148 58.4979C37.5754 58.4259 37.5646 58.343 37.5539 58.2637C37.5539 58.1809 37.5646 58.0908 37.5861 58.0079C37.6362 57.853 37.7186 57.7124 37.851 57.5791C37.9835 57.4458 38.1374 57.3449 38.3308 57.2621C38.5026 57.1792 38.678 57.1395 38.8714 57.1179C39.0539 57.0963 39.2258 57.1179 39.4012 57.1576C39.5552 57.208 39.6769 57.2693 39.7377 57.3521C39.8093 57.435 39.8308 57.5359 39.7986 57.6368C39.7664 57.7485 39.5838 57.9142 39.258 58.1268C39.0647 58.2493 38.9107 58.3502 38.7998 58.4331L38.5671 58.1052C38.6888 58.0115 38.832 57.9214 39.0038 57.8205C39.1864 57.7088 39.2795 57.6368 39.2902 57.5971C39.301 57.5755 39.2902 57.5575 39.2688 57.5359C39.2473 57.5251 39.2294 57.5035 39.1864 57.4963C39.1256 57.4855 39.0325 57.4855 38.9215 57.5071C38.7998 57.5287 38.678 57.5683 38.5563 57.6188C38.4131 57.68 38.2914 57.7629 38.2019 57.8638C38.1016 57.9575 38.0408 58.0692 38.0086 58.1809C37.9692 58.2926 37.9763 58.4151 38.0193 58.5268C38.0587 58.6493 38.0802 58.7213 38.0802 58.743C38.0587 58.7934 37.9477 58.8438 37.7436 58.9051C37.6828 58.9159 37.6434 58.9267 37.6112 58.9375C37.4501 58.988 37.3355 59.0312 37.2746 59.0708C37.203 59.1105 37.1637 59.1537 37.1529 59.215C37.1314 59.2654 37.1422 59.3267 37.1851 59.3699C37.2245 59.4204 37.2961 59.4636 37.3892 59.4816C37.5718 59.5321 37.7759 59.5212 37.9978 59.4708C38.2234 59.4095 38.4274 59.3087 38.61 59.1537ZM40.4717 59.6365C40.776 59.3087 41.0302 58.9808 41.245 58.6457C41.449 58.3178 41.5708 58.062 41.6101 57.889C41.5994 57.8782 41.5994 57.8782 41.5994 57.8782C41.5493 57.8674 41.3846 58.0403 41.1411 58.4007C40.887 58.7574 40.665 59.1753 40.4717 59.6365ZM39.9919 59.8996C40.0313 59.7771 40.0743 59.6654 40.1137 59.5537C40.153 59.4528 40.2139 59.3375 40.2748 59.2366C40.2425 59.215 40.2246 59.2042 40.2032 59.2042C40.1817 59.1934 40.1709 59.1934 40.153 59.1825C39.9991 59.1501 39.8487 59.1934 39.7163 59.3051C39.5731 59.4276 39.4836 59.5825 39.4406 59.7771C39.4299 59.8491 39.4299 59.8996 39.4621 59.9392C39.4943 59.9897 39.5337 60.0113 39.5945 60.0329C39.6339 60.0329 39.6876 60.0329 39.7485 60.0113C39.8093 59.9933 39.8917 59.9536 39.9919 59.8996ZM39.974 60.2383C39.8738 60.2995 39.77 60.3392 39.6697 60.3608C39.5695 60.3824 39.4764 60.3824 39.3833 60.3608C39.2294 60.3392 39.1184 60.2671 39.0575 60.1446C38.9967 60.0329 38.9859 59.878 39.0181 59.6942C39.079 59.4168 39.2222 59.1934 39.4657 59.0312C39.6984 58.8691 39.9526 58.8078 40.2067 58.8583C40.239 58.8691 40.2783 58.8691 40.307 58.8799C40.3464 58.9015 40.3893 58.9123 40.4287 58.9303C40.6722 58.4799 40.9263 58.1232 41.1913 57.8566C41.4562 57.5899 41.6603 57.4674 41.7927 57.4999C41.8536 57.5107 41.893 57.5611 41.9144 57.644C41.9252 57.7269 41.9144 57.8494 41.8822 58.0007C41.8106 58.3466 41.6388 58.7069 41.3631 59.0853C41.0874 59.4528 40.7545 59.7807 40.3678 60.0473L40.3571 60.0581C40.3571 60.0689 40.3571 60.0689 40.3571 60.0797C40.3464 60.1014 40.3571 60.1194 40.3678 60.1302C40.3786 60.1518 40.4072 60.1626 40.4394 60.1626C40.5003 60.1734 40.6113 60.1518 40.7867 60.0905C40.9586 60.0401 41.1411 59.9572 41.3345 59.8563L41.2521 60.2455C41.0194 60.3572 40.8046 60.4401 40.6113 60.4797C40.4287 60.5301 40.2748 60.5409 40.1638 60.5193C40.0814 60.4977 40.0313 60.4797 40.0027 60.4364C39.974 60.3932 39.9633 60.3211 39.974 60.2383ZM41.3774 60.2707L41.4383 59.8924C41.6424 59.7807 41.8035 59.6762 41.9359 59.5969C42.0684 59.514 42.14 59.4636 42.1615 59.442L42.3154 59.2186L42.7307 59.2798L42.0576 60.1986C42.0469 60.2203 42.0362 60.2311 42.0254 60.2383C42.0254 60.2491 42.0147 60.2599 42.0147 60.2707V60.2815C42.0254 60.2923 42.0254 60.2923 42.0362 60.2923C42.1078 60.3031 42.3011 60.2203 42.5947 60.0473C42.8811 59.8744 43.1746 59.6582 43.4789 59.3915L43.8871 59.4528L43.2462 60.3428C43.2248 60.3752 43.214 60.3932 43.1961 60.4148C43.1746 60.4473 43.1639 60.4545 43.1639 60.4545C43.1639 60.4761 43.1639 60.4869 43.1639 60.4941C43.1639 60.5013 43.1746 60.5049 43.1746 60.5049C43.2069 60.5157 43.2964 60.4833 43.4396 60.422C43.5935 60.3608 43.7439 60.2887 43.8978 60.1986L43.837 60.5878C43.6042 60.7103 43.3894 60.7932 43.2176 60.8436C43.035 60.9049 42.8811 60.9157 42.7701 60.9049C42.7092 60.894 42.6591 60.8724 42.6269 60.8328C42.5947 60.8004 42.5875 60.7607 42.5875 60.7211C42.5982 60.6887 42.609 60.6598 42.6269 60.6094C42.6484 60.559 42.677 60.5085 42.7092 60.4653L42.9025 60.1482C42.6376 60.3428 42.3834 60.4869 42.1293 60.5878C41.8751 60.6995 41.6925 60.7427 41.5708 60.7211C41.5206 60.7103 41.4777 60.6887 41.4598 60.6598C41.4383 60.6274 41.4276 60.577 41.4383 60.5157C41.449 60.4941 41.449 60.4761 41.4598 60.4437C41.4705 60.422 41.492 60.3932 41.4992 60.3716L41.6603 60.1266C41.6101 60.159 41.56 60.177 41.5063 60.2094C41.4669 60.2275 41.4276 60.2491 41.3774 60.2707ZM45.985 60.8004C45.7308 60.9445 45.516 61.0346 45.3442 61.0958C45.1616 61.1463 44.9897 61.1679 44.8251 61.1463C44.621 61.1247 44.4706 61.0634 44.3668 60.9517C44.2737 60.84 44.2343 60.6851 44.2558 60.4905C44.2952 60.2058 44.4277 59.968 44.6819 59.7843C44.936 59.6113 45.2117 59.5284 45.5268 59.5609C45.6592 59.5825 45.7595 59.6113 45.8311 59.6726C45.8919 59.7338 45.9242 59.8167 45.9134 59.9068C45.9134 59.9464 45.9027 59.9897 45.8812 60.0293C45.8704 60.0689 45.849 60.1122 45.8311 60.1518L45.7809 60.2455L45.3836 60.2058C45.4158 60.1554 45.4337 60.1122 45.4444 60.0725C45.4659 60.0329 45.4766 60.0005 45.4766 59.9788C45.4874 59.9392 45.4766 59.9068 45.4552 59.878C45.4337 59.8563 45.3943 59.8455 45.3549 59.8455C45.2332 59.8239 45.1007 59.8852 44.9575 60.0293C44.8143 60.1626 44.732 60.3139 44.7248 60.4797C44.7141 60.5734 44.7248 60.6418 44.7642 60.7031C44.8143 60.7535 44.8752 60.786 44.9683 60.7968C45.1007 60.8076 45.2547 60.786 45.4265 60.7139C45.6091 60.6526 45.8024 60.5518 46.028 60.4076L45.985 60.8004ZM47.9684 60.1374C47.8968 60.105 47.8359 60.0761 47.7751 60.0545C47.7035 60.0329 47.6426 60.0221 47.5817 60.0221C47.3168 60.0005 47.0948 60.0545 46.9015 60.1842C46.7082 60.3175 46.6079 60.4797 46.5972 60.6851C46.5865 60.7571 46.5972 60.8076 46.6187 60.8472C46.6509 60.8868 46.6796 60.9193 46.7189 60.9193C46.8299 60.9301 46.9624 60.8688 47.1056 60.7571C47.2488 60.6346 47.3812 60.4725 47.4922 60.2563L47.8896 60.2887L47.6569 60.7607C47.6354 60.7932 47.6247 60.8112 47.6175 60.8436C47.6068 60.876 47.6068 60.8941 47.6068 60.9157V60.9265C47.6068 60.9265 47.6068 60.9265 47.6175 60.9265C47.6498 60.9265 47.7285 60.8941 47.8717 60.8256C48.0042 60.7535 48.1581 60.6707 48.3085 60.559L48.2763 60.9589C48.0507 61.0922 47.8502 61.1931 47.6748 61.2652C47.503 61.3264 47.3705 61.3661 47.2882 61.3589C47.2273 61.3589 47.1879 61.3372 47.1557 61.3084C47.1342 61.276 47.1235 61.2255 47.1342 61.1535V61.121C47.0232 61.2039 46.9194 61.2544 46.8407 61.276C46.7583 61.3084 46.6795 61.3156 46.5972 61.3156C46.4361 61.294 46.3215 61.2436 46.2499 61.1427C46.1676 61.049 46.139 60.9085 46.1497 60.7247C46.1819 60.4184 46.3215 60.1626 46.6079 59.968C46.8836 59.7735 47.2166 59.6906 47.5961 59.7122C47.6354 59.723 47.6891 59.723 47.7393 59.7338C47.7894 59.7446 47.8717 59.7663 47.972 59.7951V60.1374H47.9684ZM49.1892 60.8328C49.1785 60.8544 49.1677 60.8652 49.1677 60.8832C49.157 60.9049 49.157 60.9157 49.157 60.9337C49.157 60.9553 49.157 60.9661 49.157 60.9733C49.157 60.9805 49.1677 60.9841 49.1677 60.9841C49.1999 60.9841 49.2787 60.9517 49.4112 60.8832C49.5436 60.8112 49.6868 60.7211 49.8265 60.6166L49.805 61.0166C49.5794 61.1499 49.3897 61.2508 49.2143 61.3336C49.0424 61.4057 48.9099 61.4345 48.8169 61.4345C48.7453 61.4237 48.6951 61.4129 48.6558 61.3733C48.6164 61.3408 48.6056 61.2904 48.6056 61.24C48.6056 61.2003 48.6164 61.1679 48.6271 61.1174C48.6486 61.0778 48.6665 61.0166 48.7095 60.9445L48.8025 60.7211C48.7202 60.7932 48.6486 60.8436 48.5877 60.8832C48.5269 60.9337 48.466 60.9661 48.4159 60.9949L48.4374 60.6166C48.6307 60.4725 48.7918 60.35 48.9064 60.2599C49.0281 60.1662 49.089 60.1158 49.0997 60.0978L49.3646 59.5645L49.0102 59.5429L49.1427 59.2582L49.4971 59.2798C49.6188 58.9411 49.7298 58.7177 49.8121 58.5736C49.9052 58.4403 49.9947 58.379 50.0771 58.379C50.1272 58.3898 50.1701 58.4115 50.188 58.4403C50.2203 58.4799 50.2274 58.5232 50.2274 58.5844C50.2167 58.6565 50.1558 58.8078 50.0341 59.0456C49.984 59.1465 49.941 59.2402 49.9124 59.3014L50.2382 59.3231L50.1057 59.6005L49.7692 59.5897L49.1892 60.8328ZM50.2059 60.8616C50.1666 60.9013 50.1129 60.9337 50.0735 60.9625C50.0341 60.9949 49.9911 61.013 49.9518 61.0346L49.9625 60.6562C50.1451 60.5229 50.299 60.4112 50.4207 60.3103C50.5425 60.2094 50.6033 60.1482 50.6141 60.1374L50.7465 59.8816L51.1726 59.9032L50.6749 60.8652L50.6141 60.9877C50.6033 60.9985 50.6141 61.0094 50.6141 61.0202C50.6141 61.031 50.6248 61.031 50.6248 61.031C50.657 61.0418 50.7465 60.9985 50.879 60.9301C51.0222 60.8472 51.1654 60.7571 51.305 60.6526L51.2943 61.0418C51.0687 61.1859 50.8683 61.2976 50.6928 61.3697C50.5317 61.4417 50.3885 61.4814 50.2775 61.4706C50.2059 61.4706 50.1558 61.4597 50.1164 61.4201C50.0842 61.3877 50.0663 61.3589 50.0663 61.3084C50.0663 61.2688 50.0771 61.2255 50.0878 61.1751C50.1093 61.1247 50.1272 61.0742 50.1487 61.0202L50.2059 60.8616ZM51.1332 59.6365C51.0616 59.6257 51.0115 59.6149 50.9721 59.5753C50.9399 59.5357 50.922 59.4816 50.922 59.4204C50.922 59.3267 50.9542 59.2582 51.015 59.2042C51.0759 59.1429 51.1475 59.1213 51.2298 59.1213C51.3015 59.1213 51.3516 59.1429 51.3838 59.1825C51.4232 59.215 51.4447 59.2654 51.4339 59.3267C51.4339 59.4204 51.4017 59.4888 51.3516 59.5501C51.2835 59.6041 51.212 59.6365 51.1332 59.6365ZM52.4542 60.9553C52.422 60.9157 52.4041 60.8832 52.3934 60.8436C52.3719 60.8112 52.3719 60.7824 52.3719 60.7427C52.3719 60.649 52.4041 60.5698 52.465 60.5085C52.5258 60.4364 52.5974 60.4076 52.6905 60.3968C52.669 60.3031 52.6297 60.2347 52.5903 60.1914C52.5509 60.141 52.4972 60.1194 52.4292 60.1194C52.2967 60.1194 52.175 60.1914 52.064 60.3428C51.9423 60.4977 51.8814 60.6598 51.8814 60.8328C51.8707 60.9265 51.8922 61.0058 51.9423 61.0562C51.9817 61.1066 52.0425 61.1391 52.1141 61.1391C52.175 61.1391 52.2359 61.1174 52.2967 61.0886C52.3647 61.0562 52.4149 61.0058 52.4542 60.9553ZM52.934 60.7715C52.9447 60.7715 52.9555 60.7824 52.9662 60.7824C52.9769 60.7824 52.9877 60.7824 52.9984 60.7824C53.0485 60.7824 53.1416 60.7211 53.292 60.6202V60.6094L53.2812 60.9985C53.2204 61.0598 53.1703 61.0922 53.1094 61.121C53.0593 61.1427 52.9984 61.1535 52.9376 61.1535C52.9161 61.1535 52.9053 61.1535 52.8874 61.1427C52.866 61.1427 52.8266 61.1319 52.7765 61.121C52.7048 61.2544 52.6046 61.3444 52.4721 61.4165C52.3504 61.4886 52.2072 61.5174 52.0569 61.5174C51.8635 61.5174 51.7024 61.4561 51.5879 61.3553C51.4876 61.2436 51.4268 61.0886 51.4339 60.9049C51.4339 60.5878 51.5449 60.3211 51.7597 60.0978C51.9745 59.8744 52.2287 59.7591 52.5008 59.7591C52.6619 59.7699 52.8051 59.8095 52.9089 59.9032C53.0199 59.9969 53.07 60.1086 53.07 60.2419C53.07 60.3031 53.0485 60.3536 53.0306 60.386C53.0092 60.4256 52.9698 60.4581 52.9197 60.4797C52.9411 60.4905 52.959 60.5121 52.9698 60.5409C52.9805 60.5734 52.9805 60.6022 52.9805 60.6346C52.9805 60.667 52.9805 60.6851 52.9698 60.7067C52.9626 60.7175 52.9519 60.7499 52.934 60.7715ZM53.3278 61.1391L53.317 60.7607C53.4996 60.6166 53.6428 60.4833 53.7538 60.3824C53.8755 60.2815 53.9364 60.2203 53.9471 60.1986L54.0581 59.9428L54.4842 59.932L54.1476 60.6382C54.4949 60.3608 54.7562 60.1662 54.9424 60.0545C55.1357 59.9428 55.2897 59.8816 55.3899 59.8816C55.4293 59.8816 55.4723 59.8924 55.5116 59.9212C55.551 59.9428 55.5618 59.9716 55.5725 60.0041C55.5725 60.0365 55.551 60.0869 55.5116 60.177C55.4902 60.1986 55.4794 60.2275 55.4794 60.2383L55.1751 60.9013C55.1644 60.9337 55.1536 60.9517 55.1357 60.9841C55.125 61.0166 55.1143 61.0238 55.1143 61.0238C55.1143 61.0454 55.125 61.0562 55.125 61.0634C55.125 61.0634 55.1357 61.0742 55.1465 61.0742C55.168 61.0742 55.2467 61.0346 55.3899 60.9517C55.5224 60.858 55.6548 60.7679 55.798 60.6562L55.8088 61.0454C55.594 61.2003 55.4007 61.3228 55.2288 61.4021C55.0677 61.485 54.9245 61.5246 54.8135 61.5246C54.7527 61.5354 54.6918 61.5138 54.6524 61.485C54.613 61.4633 54.5916 61.4237 54.5916 61.3733C54.5916 61.3408 54.6023 61.312 54.613 61.2724C54.6238 61.2327 54.6453 61.1787 54.6739 61.1102L54.9675 60.4761C54.6918 60.6598 54.409 60.8941 54.1011 61.1607C53.7968 61.4273 53.6035 61.5606 53.5211 61.5606C53.4889 61.5606 53.4602 61.5498 53.428 61.521C53.3958 61.4886 53.3886 61.4597 53.3886 61.4093C53.3886 61.3985 53.3886 61.3769 53.3994 61.3589C53.3994 61.3372 53.4101 61.3084 53.4209 61.2868L53.582 60.9589C53.5319 60.9913 53.4889 61.031 53.4495 61.0598C53.4101 61.0886 53.3707 61.1174 53.3278 61.1391ZM58.4258 60.649C58.365 60.6382 58.3041 60.6382 58.2433 60.6382C58.1824 60.6382 58.1215 60.6382 58.0714 60.6382C57.9389 60.649 57.828 60.6707 57.7456 60.7103C57.6525 60.7499 57.6132 60.7932 57.6239 60.8436C57.6239 60.894 57.6848 60.9373 57.7957 60.9661C57.9067 60.9985 58.0607 60.9985 58.254 60.9877C58.5476 60.9661 58.7731 60.9157 58.945 60.8256C59.1168 60.7355 59.2099 60.6202 59.1991 60.4869C59.1884 60.3644 59.0058 60.2311 58.6514 60.0978C58.6013 60.0653 58.5583 60.0581 58.5297 60.0473C58.3363 59.9644 58.1824 59.8635 58.0822 59.7518C57.9819 59.6401 57.921 59.5176 57.9103 59.3627C57.8996 59.2186 57.9425 59.0672 58.032 58.9123C58.1251 58.7502 58.2576 58.6168 58.4187 58.4835C58.5619 58.3826 58.7122 58.2998 58.8662 58.2385C59.0273 58.1773 59.1812 58.1376 59.3244 58.1268C59.507 58.116 59.6502 58.1484 59.7612 58.2205C59.8722 58.2926 59.9438 58.3935 59.9438 58.5268C59.9653 58.7321 59.8615 58.9159 59.6395 59.0997C59.4247 59.2726 59.1419 59.3843 58.8053 59.4384L58.8555 59.0384C59.0595 58.9772 59.2314 58.8943 59.3423 58.815C59.4641 58.743 59.5249 58.6709 59.5249 58.5988C59.5249 58.5772 59.5034 58.5592 59.4748 58.5376C59.4354 58.5268 59.4032 58.516 59.3531 58.516C59.2815 58.5268 59.1991 58.5484 59.0882 58.588C58.9879 58.6277 58.8841 58.6709 58.7946 58.7321C58.6406 58.8258 58.5404 58.9159 58.4581 59.0168C58.3865 59.1105 58.3578 59.2006 58.365 59.2942C58.3757 59.4564 58.5583 59.6113 58.9127 59.7446C59.013 59.7771 59.0846 59.8059 59.1383 59.8275C59.2994 59.8888 59.4139 59.9824 59.5034 60.0833C59.593 60.1842 59.6359 60.2995 59.6466 60.4292C59.6681 60.6959 59.5536 60.9193 59.2994 61.085C59.0452 61.258 58.6908 61.3625 58.2325 61.3913C57.9067 61.4129 57.6418 61.3805 57.4485 61.2904C57.2551 61.1967 57.1549 61.067 57.1442 60.8904C57.1334 60.7139 57.2158 60.5734 57.3876 60.4617C57.5595 60.3392 57.7957 60.2671 58.1001 60.2455C58.1502 60.2455 58.211 60.2455 58.2719 60.2455C58.3328 60.2455 58.4044 60.2563 58.476 60.2671L58.4258 60.649ZM60.1264 60.6671C60.0942 60.7067 60.0548 60.7499 60.0154 60.7787C59.976 60.8184 59.9331 60.8508 59.8937 60.8796L59.8543 60.5013C60.0154 60.3464 60.1479 60.2167 60.2517 60.0905C60.3519 59.9788 60.4128 59.9176 60.4235 59.896L60.5166 59.6293L60.8925 59.5897L60.5166 60.6238V60.6346C60.5059 60.667 60.5059 60.6851 60.5059 60.6851C60.5059 60.6959 60.5059 60.6959 60.5059 60.7067C60.5166 60.7067 60.5166 60.7067 60.5166 60.7067C60.5775 60.7067 60.7099 60.5842 60.9247 60.35C61.1396 60.1266 61.3615 59.8491 61.5763 59.5321L61.9415 59.4924L61.4832 60.7896C61.5047 60.7679 61.5835 60.6959 61.7267 60.5662C61.8699 60.4328 62.0024 60.3211 62.1133 60.2203L62.1527 60.6094C61.9486 60.7932 61.7661 60.9553 61.6121 61.1102C61.4582 61.2544 61.3186 61.3877 61.204 61.521C61.1217 61.8597 61.0429 62.1047 60.9605 62.2777C60.8782 62.4398 60.7887 62.5227 60.6849 62.5335C60.6348 62.5443 60.5846 62.5227 60.5417 62.4939C60.5023 62.4614 60.4808 62.411 60.4701 62.3605C60.4593 62.238 60.4916 62.0831 60.5703 61.8993C60.6419 61.7264 60.7529 61.5318 60.9068 61.3264C60.9391 61.2328 60.9892 61.0814 61.0608 60.876C61.1324 60.6707 61.1825 60.5193 61.2147 60.4148C60.9892 60.6707 60.7887 60.876 60.5954 61.0274C60.4128 61.1823 60.2803 61.2616 60.1872 61.2724C60.1479 61.2724 60.1156 61.2616 60.087 61.2327C60.0548 61.2003 60.0369 61.1715 60.0261 61.121C60.0261 61.0706 60.0261 61.0094 60.0476 60.9265C60.0619 60.8508 60.0834 60.7715 60.1264 60.6671ZM62.4749 60.2599C62.6289 60.0977 62.7613 59.9428 62.8723 59.7879C62.9833 59.6257 63.0871 59.46 63.1659 59.287C63.1444 59.1249 63.1551 59.0024 63.1981 58.9087C63.2303 58.815 63.2983 58.7646 63.3807 58.7538C63.4416 58.743 63.4917 58.7538 63.5346 58.7862C63.574 58.8186 63.6062 58.8691 63.617 58.9411C63.6277 58.9808 63.6277 59.0348 63.6062 59.0853C63.5955 59.1357 63.5669 59.1861 63.5239 59.2474C63.5454 59.3591 63.574 59.4528 63.5848 59.5248C63.6062 59.5969 63.617 59.669 63.6241 59.7194C63.6456 59.8744 63.6564 60.0149 63.6564 60.1302C63.6456 60.2419 63.6241 60.3464 63.5848 60.4364C63.6778 60.3752 63.7673 60.3031 63.8604 60.2203C63.9535 60.1374 64.043 60.0473 64.1361 59.9428L64.197 60.332C64.0358 60.4941 63.8712 60.6166 63.728 60.6995C63.574 60.7932 63.4416 60.8436 63.3019 60.8616H63.2697C63.2375 60.894 63.1874 60.9229 63.148 60.9337C63.1086 60.9553 63.0549 60.9661 63.0048 60.9733C62.9117 60.9841 62.8329 60.9733 62.7792 60.9409C62.7184 60.9013 62.6862 60.84 62.6682 60.7571C62.6682 60.7175 62.6682 60.6851 62.679 60.6743C62.7005 60.6634 62.7184 60.6526 62.7721 60.6418C62.8043 60.631 62.8437 60.631 62.9045 60.6418C62.9654 60.6418 63.0048 60.6418 63.037 60.631C63.1372 60.6202 63.2088 60.5373 63.2411 60.3968C63.2804 60.2635 63.2804 60.0689 63.2411 59.8239L63.2303 59.7735C63.1587 59.9068 63.0764 60.0509 62.9654 60.1842C62.8544 60.3175 62.7112 60.4689 62.5394 60.6238L62.4749 60.2599ZM65.0777 60.0437C65.0777 60.0653 65.0777 60.0761 65.0777 60.0941C65.0777 60.1158 65.0777 60.1338 65.0777 60.1554C65.0777 60.1662 65.0884 60.177 65.0884 60.1878C65.0991 60.1986 65.0991 60.1986 65.1099 60.1986C65.1421 60.1878 65.203 60.1374 65.3139 60.0437C65.4249 59.9428 65.5466 59.8275 65.6612 59.6978L65.7328 60.0869C65.561 60.2707 65.3855 60.4148 65.2352 60.5265C65.0812 60.6274 64.9703 60.6887 64.8808 60.7103C64.8091 60.7211 64.7483 60.7103 64.7089 60.6887C64.6588 60.6562 64.6373 60.6166 64.6266 60.5662C64.6158 60.5337 64.6158 60.4941 64.6158 60.4437C64.6266 60.404 64.6373 60.3428 64.648 60.2599L64.6982 60.0149C64.6266 60.0978 64.5764 60.1698 64.5263 60.2311C64.4762 60.2815 64.4261 60.332 64.3831 60.3644L64.3115 59.9969C64.4655 59.8131 64.5979 59.669 64.6874 59.5465C64.7805 59.4348 64.8306 59.3627 64.8306 59.3519L64.9631 58.7682L64.6087 58.8294L64.6695 58.5232L65.024 58.4619C65.0633 58.116 65.117 57.8602 65.1672 57.7161C65.228 57.5611 65.2996 57.4818 65.382 57.471C65.4321 57.4602 65.475 57.471 65.5037 57.5035C65.5431 57.5359 65.5645 57.5755 65.5753 57.6368C65.586 57.698 65.5645 57.8602 65.5037 58.116C65.4715 58.2385 65.4536 58.3322 65.4321 58.4007L65.7579 58.3394L65.697 58.6457L65.3712 58.7069L65.0777 60.0437ZM67.3152 59.7266C67.1326 59.9428 66.9608 60.0941 66.8068 60.2058C66.6529 60.3067 66.5025 60.3788 66.3486 60.422C66.1445 60.4617 65.9727 60.4545 65.851 60.3716C65.7185 60.2995 65.6254 60.1662 65.586 59.9716C65.5144 59.6942 65.5645 59.4384 65.74 59.1934C65.9118 58.9375 66.1481 58.7826 66.4417 58.7213C66.5956 58.6889 66.7066 58.6889 66.8068 58.7321C66.8999 58.7718 66.9608 58.8547 66.9787 58.9555C67.0181 59.1285 66.9572 59.3014 66.7961 59.4888C66.635 59.6618 66.3987 59.8167 66.0729 59.9284C66.0944 59.9788 66.123 60.0113 66.1732 60.0293C66.2233 60.0473 66.2841 60.0509 66.3557 60.0401C66.4775 60.0077 66.6099 59.9392 66.7639 59.8239C66.9071 59.7014 67.0574 59.5393 67.2221 59.3447L67.3152 59.7266ZM65.9942 59.6365C66.1767 59.5645 66.3307 59.4816 66.4417 59.3807C66.5419 59.287 66.5956 59.197 66.5741 59.1249C66.5634 59.0925 66.5419 59.0744 66.524 59.0528C66.4918 59.042 66.4632 59.042 66.4238 59.042C66.3414 59.0636 66.2519 59.1357 66.1588 59.2474C66.0658 59.3591 66.0156 59.4924 65.9942 59.6365ZM68.4966 58.5808C68.579 58.4475 68.6578 58.3466 68.7294 58.2745C68.8117 58.2025 68.8833 58.152 68.9442 58.1304C68.9835 58.1196 69.0265 58.1196 69.0659 58.1304C69.1053 58.152 69.1267 58.1701 69.1482 58.2133C69.159 58.2457 69.159 58.307 69.1482 58.4079C69.1482 58.4295 69.1482 58.4403 69.1482 58.4475L69.116 58.8583L69.4704 58.2745C69.542 58.152 69.6244 58.0511 69.7031 57.9791C69.7747 57.8962 69.8571 57.8458 69.9179 57.8242C69.9681 57.8133 70.011 57.8133 70.0504 57.8242C70.1005 57.8458 70.122 57.8638 70.1327 57.8962C70.1435 57.9178 70.1435 57.9791 70.1327 58.0692C70.122 58.1016 70.122 58.1304 70.122 58.1412L70.0289 58.8655C70.0182 58.9051 70.0182 58.9375 70.0182 58.9591C70.0182 58.9808 70.0182 58.9916 70.0182 58.9988C70.0182 59.0096 70.0289 59.0204 70.0289 59.0312C70.0397 59.0312 70.0504 59.042 70.0504 59.0312C70.0826 59.0312 70.1506 58.9591 70.2545 58.8475C70.3547 58.7358 70.4585 58.6024 70.548 58.4475L70.6805 58.8258C70.5194 59.0312 70.3762 59.2042 70.2437 59.3267C70.1005 59.4492 69.9895 59.5321 69.8786 59.5609C69.8177 59.5825 69.7568 59.5825 69.7175 59.5717C69.6673 59.5501 69.6351 59.5212 69.6172 59.478C69.6065 59.4456 69.6065 59.4059 69.6065 59.3771C69.6065 59.3375 69.6065 59.2762 69.6172 59.1934L69.6996 58.5088C69.5277 58.7538 69.3451 59.0312 69.1804 59.3591C69.0086 59.687 68.8869 59.8599 68.826 59.8816C68.7866 59.8924 68.7544 59.8924 68.715 59.8707C68.6756 59.8491 68.6542 59.8203 68.6327 59.7879C68.6219 59.7482 68.6327 59.6257 68.6542 59.442L68.7258 58.8186C68.5718 59.0348 68.4107 59.3087 68.2281 59.6582C68.0456 60.0041 67.9131 60.1914 67.82 60.2203C67.7806 60.2311 67.7484 60.2203 67.709 60.1986C67.6768 60.177 67.6482 60.1482 67.6374 60.105C67.6374 60.0941 67.6267 60.0725 67.6267 60.0545C67.6267 60.0221 67.6267 60.0041 67.6267 59.9716L67.6768 59.6149C67.6446 59.6654 67.6159 59.7086 67.5837 59.7482C67.5515 59.7879 67.5229 59.8311 67.4906 59.8707L67.3689 59.5032C67.5014 59.3195 67.5945 59.1573 67.6732 59.024C67.7556 58.8907 67.7949 58.8186 67.7949 58.8006L67.8272 58.5232L68.2353 58.3898L68.1351 59.1573L68.4966 58.5808Z" fill="#FEFEFE"/>
<path d="M58.0389 26.4551L55.9446 29.2656" stroke="#FFF300" stroke-width="1.3622" stroke-miterlimit="10" stroke-linecap="round" stroke-linejoin="round"/>
<path d="M60.4304 28.9304L57.3372 30.7897" stroke="#FFF300" stroke-width="1.3622" stroke-miterlimit="10" stroke-linecap="round" stroke-linejoin="round"/>
<path d="M50.4812 25.5037L51.5373 28.5303" stroke="#FFF300" stroke-width="1.3622" stroke-miterlimit="10" stroke-linecap="round" stroke-linejoin="round"/>
<path d="M47.6423 26.9053L49.7689 29.359" stroke="#FFF300" stroke-width="1.3622" stroke-miterlimit="10" stroke-linecap="round" stroke-linejoin="round"/>
<path d="M45.3726 29.0708L48.5982 30.912" stroke="#FFF300" stroke-width="1.3622" stroke-miterlimit="10" stroke-linecap="round" stroke-linejoin="round"/>
<path d="M44.4775 31.7805L47.6423 32.4147" stroke="#FFF300" stroke-width="1.3622" stroke-miterlimit="10" stroke-linecap="round" stroke-linejoin="round"/>
<path d="M54.3479 25.1145L53.6963 28.6024" stroke="#FFF300" stroke-width="1.3622" stroke-miterlimit="10" stroke-linecap="round" stroke-linejoin="round"/>
<path d="M61.6799 31.7913L58.1929 32.5984" stroke="#FFF300" stroke-width="1.3622" stroke-miterlimit="10" stroke-linecap="round" stroke-linejoin="round"/>
<path fill-rule="evenodd" clip-rule="evenodd" d="M53.084 29.3159C55.4934 29.3159 57.4804 31.1752 57.5305 33.4776H48.6304C48.6805 31.1788 50.6639 29.3159 53.084 29.3159Z" fill="#FFF300" stroke="#FFF300" stroke-width="0.4824" stroke-miterlimit="10"/>
<path d="M48.0291 31.2075C48.2009 31.2688 48.2832 31.4526 48.2116 31.6255C48.14 31.7877 47.9467 31.8597 47.7749 31.7985L48.0291 31.2075ZM47.7749 31.8021L41.9465 29.5429L42.2007 28.9484L48.0291 31.2075L47.7749 31.8021ZM41.9465 29.5429C41.7746 29.4816 41.6923 29.2871 41.7639 29.1249C41.8355 28.9628 42.0288 28.8799 42.2007 28.952L41.9465 29.5429Z" fill="#FFF300"/>
<path d="M49.2606 29.7159C49.4038 29.8276 49.4217 30.0329 49.3 30.1663C49.1783 30.3104 48.9635 30.3212 48.8203 30.2059L49.2606 29.7159ZM48.8239 30.2059L44.0731 26.3217L44.5099 25.8424L49.2606 29.7195L48.8239 30.2059ZM44.0731 26.3217C43.9299 26.21 43.912 26.0046 44.0337 25.8713C44.1554 25.738 44.3702 25.7163 44.5134 25.8388L44.0731 26.3217Z" fill="#FFF300"/>
<path d="M51.0398 28.6241C51.1221 28.779 51.0613 28.97 50.8966 29.0529C50.7355 29.1357 50.5314 29.0745 50.4383 28.9195L51.0398 28.6241ZM50.4383 28.9195L47.4669 23.4788L48.0576 23.1833L51.0398 28.6241L50.4383 28.9195ZM47.4704 23.4788C47.3774 23.3238 47.449 23.1329 47.6136 23.05C47.7783 22.9671 47.9788 23.0284 48.0612 23.1833L47.4704 23.4788Z" fill="#FFF300"/>
<path d="M53.0052 28.253C53.0267 28.4368 52.8835 28.5917 52.7009 28.5989C52.5183 28.6205 52.3464 28.4872 52.3357 28.3143L53.0052 28.253ZM52.3321 28.3143L51.7736 22.16L52.4467 22.1096L53.0052 28.2566L52.3321 28.3143ZM51.7736 22.16C51.7521 21.9871 51.8953 21.8322 52.0779 21.8141C52.2605 21.8033 52.4252 21.9258 52.4431 22.1096L51.7736 22.16Z" fill="#FFF300"/>
<path d="M55.4147 28.6924C55.3431 28.8654 55.1497 28.9482 54.9779 28.8762C54.8061 28.8149 54.713 28.6312 54.7846 28.4654L55.4147 28.6924ZM54.7846 28.469L57.1045 22.8265L57.7346 23.0607L55.4147 28.696L54.7846 28.469ZM57.1045 22.8229C57.1761 22.6607 57.3694 22.5778 57.5412 22.6391C57.7131 22.7003 57.7954 22.8949 57.7346 23.0571L57.1045 22.8229Z" fill="#FFF300"/>
<path d="M57.2046 30.0653C57.0614 30.177 56.8502 30.159 56.7356 30.0149C56.6139 29.8815 56.6354 29.6762 56.775 29.5645L57.2046 30.0653ZM56.7786 29.5645L61.7728 25.7091L62.1881 26.1991L57.2046 30.0653L56.7786 29.5645ZM61.7728 25.7091C61.916 25.5974 62.1273 25.6154 62.2418 25.7487C62.3635 25.8928 62.3421 26.0874 62.1917 26.1991L61.7728 25.7091Z" fill="#FFF300"/>
<path d="M58.3432 31.8345C58.1714 31.9066 57.9781 31.8237 57.8957 31.6615C57.8241 31.4994 57.9065 31.3156 58.0783 31.2436L58.3432 31.8345ZM58.0783 31.24L63.8781 28.815L64.1537 29.3988L58.3468 31.8309L58.0783 31.24ZM63.8781 28.815C64.0499 28.743 64.254 28.815 64.3256 28.9772C64.3972 29.1393 64.3256 29.3231 64.1537 29.3952L63.8781 28.815Z" fill="#FFF300"/>
<path d="M47.4704 33.11C47.6637 33.1208 47.8069 33.2649 47.8069 33.4379C47.7962 33.6217 47.6458 33.755 47.4597 33.755L47.4704 33.11ZM47.4597 33.755L41.3449 33.6L41.3664 32.9551L47.4704 33.11L47.4597 33.755ZM41.3449 33.6036C41.1623 33.6036 41.0083 33.4487 41.0191 33.2758C41.0191 33.1028 41.173 32.9587 41.3664 32.9587L41.3449 33.6036Z" fill="#FFF300"/>
<path d="M64.8733 32.8651C65.0558 32.8543 65.2205 32.9984 65.2205 33.1713C65.2313 33.3443 65.0881 33.4992 64.9055 33.51L64.8733 32.8651ZM64.9055 33.51L58.6403 33.7551L58.6081 33.1101L64.8733 32.8651L64.9055 33.51ZM58.6403 33.7551C58.4577 33.7659 58.293 33.6217 58.293 33.4488C58.2823 33.265 58.4255 33.1209 58.6081 33.1101L58.6403 33.7551Z" fill="#FFF300"/>
<path d="M17.6556 61.73L18.2642 63.9099L20.2369 63.8991L18.6402 65.2395L19.2524 67.405L17.6556 66.0682L16.0482 67.405L16.6675 65.2395L15.0601 63.8991L17.0434 63.9099L17.6556 61.73Z" fill="#FEFEFE"/>
<path d="M90.0521 61.73L90.6643 63.9099L92.6477 63.8991L91.0402 65.2395L91.6488 67.405L90.0521 66.0682L88.4446 67.405L89.064 65.2395L87.4565 63.8991L89.4435 63.9099L90.0521 61.73Z" fill="#FEFEFE"/>
<path d="M15.8548 54.8696L16.1591 56.9054L17.115 57.0495L17.3907 58.8691L11.5086 57.6116L11.215 55.6479L16.4348 52.56L16.7212 54.43L15.8548 54.8696ZM14.7056 55.4533L12.8046 56.4153L14.8989 56.7216L14.7056 55.4533ZM10.6959 50.9133V49.0937H16.3202V50.9133H10.6959ZM10.6565 45.995L11.0109 43.6313L14.5302 43.2926L11.2866 41.8333L11.641 39.4804L17.1937 40.3993L16.9682 41.8621L12.7365 41.1667L16.8071 42.9971L16.603 44.3159L12.1995 44.7447L16.4312 45.4509L16.2056 46.9138L10.6565 45.995ZM15.9228 37.8662L16.4706 36.2412C16.7355 36.3133 16.9503 36.3241 17.1221 36.2736C17.3978 36.2016 17.6019 35.9962 17.7308 35.6791C17.8238 35.4449 17.8525 35.2395 17.7916 35.0558C17.7415 34.8828 17.6377 34.7603 17.4981 34.699C17.3656 34.6378 17.2224 34.6486 17.072 34.7207C16.9109 34.8035 16.6961 35.0377 16.4204 35.4449C15.9622 36.1079 15.5469 36.5294 15.1603 36.7348C14.7736 36.9294 14.3762 36.9402 13.9717 36.7673C13.7067 36.6448 13.4848 36.4502 13.3201 36.1835C13.1482 35.9169 13.0552 35.5998 13.0552 35.2107C13.0444 34.8324 13.1661 34.3603 13.3917 33.7982C13.6781 33.1028 14.011 32.6308 14.3977 32.3786C14.7951 32.1336 15.2712 32.0939 15.8405 32.2561L15.2927 33.8631C15.0385 33.8018 14.8345 33.8127 14.6734 33.9027C14.5123 33.9856 14.3798 34.1478 14.2867 34.382C14.2044 34.5765 14.1865 34.7387 14.2258 34.872C14.2652 35.0053 14.3368 35.0954 14.4586 35.1494C14.5409 35.1891 14.6197 35.1819 14.7235 35.1278C14.8237 35.0774 14.9562 34.9224 15.1388 34.6558C15.5863 33.9928 15.9515 33.5424 16.2379 33.2866C16.5135 33.0416 16.7964 32.8975 17.0935 32.8578C17.3799 32.8182 17.6627 32.8578 17.9491 32.9803C18.2749 33.1245 18.5399 33.3587 18.7439 33.6757C18.948 33.9928 19.0482 34.3495 19.059 34.7603C19.059 35.1711 18.9587 35.6287 18.7439 36.1511C18.3788 37.0699 17.942 37.632 17.4623 37.8374C16.9825 38.0392 16.4634 38.05 15.9228 37.8662ZM17.3191 26.1883L20.1151 22.3113L21.0817 23.068L19.3311 25.4929L20.0435 26.055L21.6617 23.8067L22.5782 24.5309L20.96 26.7721L21.8443 27.4675L23.6451 24.9741L24.6618 25.7812L21.8156 29.7267L17.3191 26.1883ZM22.2095 19.8684L24.1642 18.0992C24.5508 17.7533 24.9053 17.5263 25.2311 17.4254C25.5568 17.3245 25.8826 17.2921 26.2084 17.3534C26.5342 17.4254 26.8385 17.5588 27.1357 17.7641C27.4328 17.9695 27.7049 18.2253 27.9484 18.5316C28.3457 19.0036 28.5999 19.4216 28.7109 19.7675C28.8326 20.1242 28.8649 20.4737 28.8326 20.8088C28.7933 21.1547 28.6894 21.4538 28.5391 21.6988C28.3135 22.0447 28.0916 22.3221 27.8588 22.5275L25.9041 24.2967L22.2095 19.8684ZM24.3575 19.6846L26.3731 22.1096L26.6989 21.8141C26.9746 21.5691 27.1357 21.3529 27.2073 21.1908C27.2681 21.0178 27.2681 20.8232 27.1965 20.607C27.1357 20.3908 26.9531 20.1062 26.6559 19.7495C26.2693 19.2775 25.922 19.0252 25.6392 18.982C25.3456 18.9496 25.0306 19.0829 24.6833 19.3928L24.3575 19.6846ZM31.6 12.59L33.0965 11.6784L34.7756 14.705C34.9367 15.0005 35.0513 15.3176 35.1121 15.6347C35.173 15.9517 35.1515 16.2796 35.0727 16.5859C35.0011 16.903 34.8687 17.1696 34.7076 17.375C34.482 17.6596 34.1598 17.9263 33.7517 18.1821C33.519 18.3262 33.2433 18.4595 32.9497 18.5929C32.6454 18.7262 32.3805 18.7982 32.1371 18.8091C31.8829 18.8199 31.6394 18.7766 31.3745 18.6865C31.1096 18.5929 30.8948 18.4632 30.7337 18.2974C30.458 18.0308 30.2539 17.7641 30.1143 17.5191L28.446 14.4925L29.9425 13.5809L31.6609 16.6796C31.8149 16.957 32.0082 17.13 32.2409 17.202C32.4736 17.2633 32.7206 17.2237 32.982 17.0687C33.2362 16.9138 33.3973 16.712 33.4617 16.467C33.5226 16.2328 33.4724 15.9662 33.3185 15.6887L31.6 12.59ZM40.561 12.2621L42.1577 12.2297C42.19 12.6801 42.147 13.0872 42.0253 13.4475C41.9036 13.8043 41.7102 14.1033 41.4453 14.3591C41.1804 14.6042 40.8045 14.8095 40.3247 14.9717C39.7448 15.1662 39.2471 15.2383 38.8175 15.1951C38.3915 15.1446 37.9834 14.9392 37.5752 14.5825C37.1671 14.2366 36.852 13.7142 36.6408 13.0188C36.3544 12.1 36.3652 11.3109 36.6802 10.6551C37.006 9.9993 37.5967 9.52008 38.4488 9.23543C39.1218 9.00122 39.6982 8.9688 40.178 9.12373C40.6469 9.27867 41.073 9.61376 41.4381 10.1362L40.0849 10.965C39.9846 10.8208 39.8915 10.7091 39.8092 10.6587C39.6767 10.5578 39.5335 10.4965 39.3724 10.4641C39.2185 10.4425 39.0574 10.4533 38.8927 10.5146C38.5168 10.6371 38.2841 10.8929 38.1803 11.2712C38.0979 11.5559 38.1409 11.945 38.2912 12.4459C38.4846 13.0692 38.6994 13.4583 38.9536 13.6205C39.2077 13.7934 39.4942 13.8151 39.8199 13.7142C40.1457 13.6025 40.3498 13.4295 40.45 13.1917C40.5718 12.9467 40.604 12.6404 40.561 12.2621ZM47.7355 12.0171L45.7808 12.3017L45.6376 13.3034L43.8762 13.5592L45.1901 7.44465L47.0732 7.16721L49.9409 12.6693L48.1401 12.9359L47.7355 12.0171ZM47.2057 10.8208L46.3107 8.81746L45.9849 10.9938L47.2057 10.8208ZM50.4492 6.79248H55.7299V8.24456H53.9613V12.662H52.2214V8.24456H50.4528V6.79248H50.4492ZM58.1715 7.08794L59.9007 7.30413L59.2205 13.1341L57.4913 12.9107L58.1715 7.08794ZM61.8733 10.6659C62.1168 9.74708 62.5464 9.0913 63.1765 8.71297C63.7958 8.33464 64.5512 8.27338 65.4355 8.5184C66.3413 8.77422 66.9714 9.21381 67.3294 9.85878C67.6946 10.5037 67.7554 11.2784 67.5227 12.19C67.3509 12.853 67.1074 13.3647 66.7816 13.7358C66.4666 14.0925 66.0692 14.3375 65.6002 14.46C65.142 14.5825 64.6049 14.5609 64.0035 14.388C63.3949 14.2258 62.9044 13.9772 62.5607 13.6637C62.2134 13.3466 61.97 12.9395 61.8268 12.4278C61.6907 11.9126 61.7122 11.3325 61.8733 10.6659ZM63.5524 11.1379C63.4092 11.7108 63.3984 12.1504 63.5417 12.4567C63.6849 12.7629 63.9283 12.9683 64.2827 13.0692C64.6372 13.1629 64.9558 13.1196 65.21 12.9359C65.4749 12.7413 65.6897 12.3342 65.8508 11.7C65.9833 11.1667 65.9833 10.7488 65.8401 10.4425C65.6969 10.1362 65.4427 9.94165 65.0883 9.84076C64.7517 9.74708 64.4474 9.80113 64.1825 9.98489C63.9104 10.1759 63.7063 10.565 63.5524 11.1379ZM71.1816 10.6983L72.6065 11.5162L72.943 15.4221L74.4502 12.59L75.8858 13.4187L73.1578 18.5532L71.7222 17.7137L71.3856 13.8367L69.8892 16.658L68.4535 15.8292L71.1816 10.6983ZM77.9659 19.7675L79.269 20.8412C79.1151 21.0755 79.0256 21.2808 79.0148 21.4646C79.0041 21.7709 79.1151 22.0375 79.3621 22.2717C79.5447 22.4338 79.7273 22.5275 79.9027 22.5275C80.0853 22.5383 80.2285 22.4771 80.3287 22.3546C80.4218 22.2429 80.4612 22.0988 80.4397 21.9258C80.429 21.742 80.2786 21.4538 80.0029 21.0574C79.5554 20.3945 79.3012 19.8288 79.2511 19.3892C79.201 18.9388 79.312 18.5388 79.6055 18.2037C79.7989 17.9803 80.0423 17.8254 80.3466 17.7425C80.6402 17.6596 80.9552 17.6813 81.3132 17.8038C81.6605 17.9263 82.0472 18.1929 82.4839 18.5929C83.0138 19.1045 83.3396 19.5837 83.4398 20.0558C83.5401 20.5278 83.4183 21.0178 83.0854 21.5186L81.8037 20.4557C81.9469 20.2215 81.997 20.0161 81.9756 19.8324C81.9433 19.6378 81.8431 19.4648 81.6605 19.2919C81.5066 19.1478 81.3669 19.0757 81.2345 19.0757C81.102 19.0649 80.991 19.1153 80.9087 19.209C80.8586 19.2811 80.8263 19.3711 80.8478 19.4865C80.8586 19.5981 80.9481 19.7819 81.1342 20.0485C81.5925 20.7043 81.8861 21.216 82.0185 21.5727C82.151 21.9294 82.1904 22.2573 82.1295 22.5528C82.0794 22.8482 81.9469 23.1148 81.7429 23.3599C81.4994 23.6373 81.2023 23.8211 80.8478 23.922C80.5006 24.0156 80.1354 24.0048 79.7702 23.8715C79.3943 23.749 79.0077 23.4932 78.5995 23.1148C77.8978 22.4519 77.5219 21.8357 77.5004 21.2952C77.4682 20.7476 77.6329 20.2467 77.9659 19.7675ZM85.7884 22.2537L86.9483 23.8607L86.1249 25.9974L88.3123 25.7524L89.4723 27.3486L85.5449 27.5828L83.6618 29.0637L82.6128 27.6116L84.4959 26.1307L85.7884 22.2537ZM87.0092 30.8292L87.8326 32.3318C87.607 32.4867 87.4567 32.6488 87.3743 32.811C87.2526 33.0884 87.2634 33.3731 87.4066 33.6902C87.5175 33.9244 87.65 34.0793 87.8147 34.1514C87.9758 34.2234 88.1297 34.2234 88.2729 34.1514C88.3947 34.0901 88.4878 33.9676 88.5379 33.7946C88.588 33.6217 88.5486 33.2938 88.4448 32.8146C88.2622 32.0255 88.2192 31.4129 88.3445 30.9734C88.4448 30.5446 88.699 30.2275 89.0964 30.0221C89.3613 29.8888 89.637 29.8384 89.9413 29.878C90.2456 29.9176 90.5427 30.0618 90.8148 30.3176C91.1012 30.5626 91.3626 30.9626 91.6168 31.503C91.9318 32.1768 92.0535 32.7497 91.9819 33.2325C91.8996 33.7118 91.6168 34.1117 91.1263 34.4504L90.3243 32.9587C90.5391 32.8038 90.6609 32.6308 90.7002 32.4471C90.7396 32.2633 90.711 32.0579 90.6072 31.8345C90.5141 31.6399 90.4138 31.5174 90.2921 31.467C90.1704 31.4057 90.0487 31.4057 89.9377 31.4562C89.8661 31.4958 89.8052 31.5787 89.7837 31.6904C89.7444 31.7913 89.773 32.0075 89.8446 32.3245C90.0379 33.1136 90.1203 33.6938 90.1203 34.0829C90.1095 34.4612 90.0272 34.7891 89.8661 35.0341C89.7121 35.29 89.5009 35.4845 89.2145 35.6287C88.8995 35.7908 88.5522 35.8521 88.187 35.8016C87.8326 35.762 87.5068 35.607 87.1989 35.3404C86.9053 35.0738 86.6404 34.6846 86.397 34.173C85.9817 33.283 85.8564 32.5768 86.0211 32.0579C86.1965 31.5463 86.5223 31.1391 87.0092 30.8292ZM93.5321 36.425L94.8138 41.7721L93.4605 42.118L93.0345 40.32L88.9245 41.3937L88.5092 39.6354L92.6192 38.5724L92.1824 36.7745L93.5321 36.425ZM95.2899 44.8708L95.3723 49.7171L94.1729 49.7495L94.1228 46.712L93.2278 46.7336L93.2779 49.5441L92.1287 49.5657L92.0786 46.7552L90.9795 46.7769L91.0296 49.8972L89.7587 49.9188L89.6763 44.9789L95.2899 44.8708ZM95.272 52.6717L94.9069 55.0353L91.3984 55.374L94.6348 56.8369L94.2803 59.1898L88.7276 58.271L88.9532 56.8081L93.1956 57.5035L89.125 55.6731L89.3291 54.3543L93.7326 53.9256L89.5009 53.2193L89.7265 51.7564L95.272 52.6717Z" fill="#FEFEFE"/>
<path d="M27.533 76.9175L28.8648 78.0921L25.2417 82.5817L23.9099 81.4142L27.533 76.9175ZM28.2418 82.5204L29.6953 83.3383C29.5844 83.5942 29.5414 83.8176 29.5629 84.0013C29.5951 84.3076 29.7455 84.5418 30.0319 84.7256C30.2359 84.8697 30.4293 84.9201 30.6119 84.8877C30.7837 84.8553 30.9162 84.776 30.9878 84.6427C31.0701 84.5094 31.088 84.3652 31.0379 84.1923C30.9878 84.0193 30.7944 83.7527 30.4579 83.4032C29.8994 82.8303 29.5629 82.3294 29.4304 81.9007C29.3087 81.4719 29.3588 81.0611 29.5915 80.672C29.7455 80.4162 29.9567 80.2216 30.2431 80.0775C30.5188 79.9441 30.8338 79.9045 31.199 79.9658C31.5642 80.0162 31.9938 80.2108 32.4914 80.5387C33.1 80.9278 33.4974 81.3566 33.6728 81.7962C33.8554 82.2466 33.816 82.7474 33.5726 83.2987L32.1298 82.4808C32.2301 82.225 32.2515 82.0088 32.1907 81.8358C32.1298 81.6629 31.9973 81.4971 31.7933 81.3638C31.6214 81.2521 31.4675 81.2017 31.335 81.2197C31.2026 81.2413 31.1095 81.3134 31.0415 81.4142C31.0021 81.4971 30.9913 81.5872 31.02 81.6989C31.0486 81.8106 31.1811 81.9763 31.4066 82.1997C31.9651 82.7618 32.3339 83.2122 32.5272 83.5509C32.7205 83.8788 32.8136 84.1959 32.8029 84.4913C32.8029 84.7976 32.7205 85.0859 32.5594 85.3489C32.3661 85.6768 32.1012 85.911 31.7754 86.0659C31.4389 86.2281 31.0844 86.2821 30.6978 86.2209C30.3111 86.1596 29.8851 85.9867 29.4268 85.6804C28.6142 85.1579 28.1559 84.6283 28.0342 84.095C27.9196 83.5725 27.9876 83.0501 28.2418 82.5204ZM35.803 82.5997L37.4319 83.2555L35.9068 87.3775L38.4415 88.4008L37.9439 89.752L33.7946 88.0837L35.803 82.5997ZM43.8081 90.3321L41.8856 89.8601L41.4058 90.7392L39.6767 90.3213L43.0026 85.1075L44.8427 85.5471L45.6375 91.7625L43.8689 91.3338L43.8081 90.3321ZM43.7257 89.0025L43.5718 86.8046L42.5228 88.7179L43.7257 89.0025ZM47.9467 86.2821L50.2343 86.365L50.9969 89.9646L51.9922 86.4371L54.262 86.5199L54.0686 92.3787L52.6545 92.3282L52.7977 87.8603L51.5482 92.2886L50.2666 92.249L49.3214 87.7306L49.1782 92.2093L47.7533 92.1589L47.9467 86.2821ZM60.0724 90.732L58.1106 90.9879L57.9495 91.9787L56.188 92.2021L57.6022 86.1164L59.4853 85.8714L62.2635 91.4238L60.4627 91.6581L60.0724 90.732ZM59.5641 89.525L58.6977 87.5108L58.3325 89.6799L59.5641 89.525ZM62.5033 85.4029L65.5751 84.3004C66.0834 84.1166 66.5202 84.1058 66.889 84.268C67.2434 84.4301 67.4976 84.7183 67.6229 85.1075C67.7339 85.4354 67.7231 85.7525 67.6121 86.0587C67.5298 86.2641 67.3794 86.4479 67.1646 86.6316C67.5727 86.592 67.9057 86.6532 68.1599 86.8262C68.4248 86.9883 68.6074 87.255 68.7184 87.6045C68.8186 87.8891 68.8401 88.1774 68.79 88.4548C68.7399 88.7323 68.6181 88.9773 68.4427 89.1899C68.3317 89.3232 68.1384 89.4565 67.8735 89.5898C67.5262 89.7736 67.2828 89.8853 67.161 89.9357L64.3328 90.9482L62.5033 85.4029ZM64.8734 86.9775L65.5858 86.7217C65.8507 86.628 66.0118 86.5163 66.0834 86.3938C66.1443 86.2605 66.155 86.1092 66.0942 85.9434C66.044 85.7813 65.951 85.666 65.8185 85.6155C65.686 85.5543 65.5035 85.5759 65.2493 85.666L64.5261 85.9218L64.8734 86.9775ZM65.5965 89.1575L66.4307 88.862C66.7171 88.7611 66.8997 88.6386 66.9785 88.4945C67.0608 88.3395 67.0715 88.1882 67.0107 88.0044C66.9606 87.8423 66.8567 87.727 66.7171 87.6765C66.5632 87.6153 66.3519 87.6369 66.0548 87.7378L65.2206 88.0333L65.5965 89.1575ZM74.1136 85.8317L72.3522 86.7613L72.524 87.7522L70.9488 88.6026L70.2757 82.3763L71.9655 81.4755L76.4013 85.6984L74.7831 86.556L74.1136 85.8317ZM73.2365 84.8697L71.7615 83.2843L72.1266 85.4534L73.2365 84.8697ZM74.8547 79.8505L76.9096 78.2362C77.3178 77.9192 77.6937 77.7138 78.0195 77.6345C78.356 77.5516 78.6818 77.5516 79.0076 77.6453C79.3226 77.7282 79.6162 77.8903 79.9026 78.1173C80.1783 78.3407 80.4324 78.6182 80.6652 78.9353C81.0303 79.4361 81.2559 79.8649 81.3454 80.2324C81.4385 80.5891 81.4456 80.9386 81.3848 81.2737C81.3239 81.6196 81.2129 81.9079 81.0303 82.1421C80.7869 82.47 80.5434 82.7258 80.2964 82.9204L78.2307 84.5454L74.8547 79.8505ZM76.9991 79.8216L78.85 82.3871L79.1973 82.1205C79.4837 81.8863 79.6663 81.6917 79.7379 81.5259C79.8203 81.3638 79.831 81.1692 79.7773 80.953C79.7272 80.7296 79.5625 80.4306 79.2904 80.0522C78.936 79.5622 78.6102 79.274 78.3238 79.2127C78.0374 79.1515 77.7152 79.2631 77.3464 79.5514L76.9991 79.8216Z" fill="#FEFEFE"/>
</g>
<defs>
<filter id="filter0_d_1946_734" x="0" y="0" width="106" height="106" filterUnits="userSpaceOnUse" color-interpolation-filters="sRGB">
<feFlood flood-opacity="0" result="BackgroundImageFix"/>
<feColorMatrix in="SourceAlpha" type="matrix" values="0 0 0 0 0 0 0 0 0 0 0 0 0 0 0 0 0 0 127 0" result="hardAlpha"/>
<feOffset dy="4"/>
<feGaussianBlur stdDeviation="4"/>
<feComposite in2="hardAlpha" operator="out"/>
<feColorMatrix type="matrix" values="0 0 0 0 0 0 0 0 0 0 0 0 0 0 0 0 0 0 0.2 0"/>
<feBlend mode="normal" in2="BackgroundImageFix" result="effect1_dropShadow_1946_734"/>
<feBlend mode="normal" in="SourceGraphic" in2="effect1_dropShadow_1946_734" result="shape"/>
</filter>
</defs>
</svg>
