<svg width="61" height="61" viewBox="0 0 61 61" fill="none" xmlns="http://www.w3.org/2000/svg">
<path d="M14.6181 35.576L13.0153 34.0527C13.0165 34.052 13.0179 34.0515 13.0191 34.0508L13.0153 34.0527C12.9317 34.0983 12.856 34.1381 12.7851 34.1759C12.708 34.217 12.6367 34.2558 12.5674 34.2979C7.98992 37.1036 4.58283 40.9499 2.34397 45.8313C0.518804 49.81 -0.106921 54.0104 0.0145836 58.3578C0.0654076 60.2048 0.819966 60.9983 2.67776 60.9983H49.4131C49.6161 60.9983 49.8213 61.0021 50.0244 60.9983C51.3687 60.9711 52.2614 60.0705 52.2796 58.7103C52.2862 58.1668 52.2871 57.6234 52.284 57.0799L52.2796 56.531C52.2342 51.655 50.9551 47.1241 48.4115 42.9656C46.131 39.2375 43.0904 36.2755 39.2913 34.0418C39.0989 34.2198 38.9157 34.3851 38.7379 34.5558L27.8543 44.9378C26.7203 46.0183 25.5793 46.0129 24.4472 44.9342C22.2301 42.8204 20.013 40.7083 17.7942 38.5964C16.7364 37.5882 15.6776 36.5826 14.6181 35.576Z" fill="white"/>
<path d="M17.143 29.0316C14.3344 26.2712 13.03 22.9152 13.0789 18.9874V18.9892C13.104 16.9828 13.0978 14.9763 13.0917 12.941C13.0891 12.029 13.0863 11.1113 13.0863 10.1851C10.8075 9.67856 8.57428 9.18285 6.34276 8.6888C5.12156 8.42002 4.38497 7.60282 4.37953 6.50976C4.3741 5.41456 5.11447 4.58294 6.32266 4.31417C12.6889 2.89961 19.0551 1.47749 25.4249 0.0792425C25.6684 0.0262912 25.9282 -0.00136639 26.1861 5.19455e-05C26.405 0.00123389 26.6225 0.0232182 26.8274 0.0683686C30.743 0.925518 34.6557 1.79472 38.5689 2.66417C41.0238 3.20975 43.479 3.75534 45.9351 4.29786C46.875 4.50493 47.5678 4.96235 47.8328 5.92493C48.0905 6.86009 47.7621 7.60282 47.0672 8.24037C46.9293 8.36754 46.8494 8.6271 46.8494 8.82496C46.8409 9.77595 46.836 10.7274 46.8364 11.6791C46.8367 12.5668 46.8419 13.4544 46.8532 14.3421C46.8568 14.5818 46.9802 14.865 47.1416 15.0467C47.3371 15.2659 47.5489 15.4715 47.7605 15.6772C48.0713 15.9791 48.3815 16.2805 48.6384 16.623C48.8597 16.9189 49.0176 17.4764 48.8833 17.7669C48.7309 18.0938 48.2302 18.4389 47.8635 18.4588C46.4629 18.5387 45.0533 18.4952 43.6473 18.4898C43.1539 18.4862 42.771 18.29 42.575 17.8052C42.3791 17.322 42.5207 16.9208 42.8707 16.5703L42.8845 16.5561C42.8958 16.544 42.9069 16.5322 42.9199 16.523C44.4657 15.4625 44.9065 13.9915 44.6834 12.1791C44.6113 11.598 44.6132 11.0085 44.6285 10.4052C44.6404 9.94332 44.6597 9.47361 44.6597 8.99398L39.2152 10.1944C39.2152 11.915 39.2185 13.6206 39.2192 15.3188C39.2199 16.7175 39.219 18.1113 39.2133 19.5048C39.2006 22.7119 38.2772 25.663 36.062 27.9728C34.8737 29.2096 34.7522 30.4662 34.89 31.9481C34.9044 32.0897 34.8247 32.284 34.7212 32.3838C31.9363 35.0515 29.1405 37.7101 26.3447 40.3688C26.3151 40.396 26.2778 40.4156 26.2274 40.4419C26.1972 40.4575 26.1624 40.4757 26.1215 40.4995C25.8984 40.296 25.6644 40.0892 25.4396 39.8748L22.3577 36.9374C20.8226 35.4739 19.287 34.0111 17.7488 32.5509C17.5663 32.3786 17.4446 32.2297 17.4115 32.0072C17.3985 31.9202 17.3992 31.8219 17.415 31.7065C17.5018 31.0709 17.4687 30.417 17.4363 29.77L17.4278 29.5982C17.4186 29.4039 17.2881 29.1732 17.143 29.0316Z" fill="white"/>
<path d="M51.1449 31.9883L58.5638 24.6905L61 27.0981L51.1449 36.7937L46.4762 32.1959L48.9157 29.7916L51.1449 31.9883Z" fill="white"/>
</svg>
