<svg width="33" height="22" viewBox="0 0 33 22" fill="none" xmlns="http://www.w3.org/2000/svg">
<path d="M27.61 8.87167C29.5 7.82166 30.17 5.43166 29.11 3.55166C28.06 1.66166 25.67 0.991657 23.79 2.05166C21.9 3.10166 21.23 5.49166 22.29 7.37166C22.64 7.99166 23.15 8.50166 23.76 8.86166C22.48 8.98166 21.29 9.59166 20.43 10.5517C19.74 10.2417 19 10.0517 18.24 9.98167C20.87 8.79167 22.04 5.69166 20.84 3.07166C19.65 0.441661 16.55 -0.728345 13.93 0.471655C11.3 1.66166 10.13 4.76166 11.33 7.38166C11.85 8.54166 12.78 9.46167 13.93 9.98167C13.15 10.0517 12.4 10.2517 11.69 10.5817C10.85 9.62166 9.68 9.02166 8.42 8.87167C10.3 7.81167 10.96 5.42166 9.9 3.54166C8.84 1.66166 6.45 1.00167 4.57 2.06167C2.69 3.12167 2.03 5.51165 3.09 7.39165C3.44 8.01165 3.95 8.52166 4.57 8.87167C1.97 9.17167 0 11.3717 0 13.9917V16.0317C0 16.1717 0.0799998 16.3017 0.2 16.3617C1.62 17.1017 3.16 17.6017 4.74 17.8417C4.94 17.8717 5.13 17.7317 5.16 17.5217C5.19 17.3217 5.05 17.1317 4.84 17.1017C3.41 16.8917 2.02 16.4417 0.73 15.7917V13.9817C0.73 11.5417 2.71 9.57167 5.15 9.56167H7.83C9.03 9.56167 10.18 10.0517 11.01 10.9217C8.94 12.1617 7.66 14.4017 7.66 16.8217V19.7517C7.66 19.8917 7.74 20.0217 7.88 20.0817C10.45 21.3017 13.25 21.9516 16.1 21.9816C18.94 21.9516 21.74 21.3017 24.3 20.0817C24.43 20.0217 24.51 19.8917 24.51 19.7517V16.8217C24.51 14.3817 23.22 12.1217 21.11 10.8817C21.94 10.0317 23.08 9.55167 24.26 9.56167H26.94C29.38 9.56167 31.35 11.5417 31.36 13.9817V15.7917C30.07 16.4417 28.68 16.8817 27.26 17.1017C27.06 17.1317 26.92 17.3117 26.94 17.5217C26.97 17.7217 27.15 17.8617 27.36 17.8417C28.94 17.6017 30.48 17.1017 31.9 16.3617C32.02 16.3017 32.1 16.1717 32.1 16.0317V13.9917C32.1 11.4017 30.18 9.22166 27.62 8.88166L27.61 8.87167ZM6.49 8.63166C4.74 8.63166 3.32 7.21166 3.32 5.46166C3.32 3.71166 4.74 2.29166 6.49 2.29166C8.24 2.29166 9.66 3.71166 9.66 5.46166C9.66 7.21166 8.24 8.63166 6.49 8.63166ZM11.6 5.21166C11.6 2.73166 13.61 0.721655 16.09 0.721655C18.57 0.721655 20.58 2.73166 20.58 5.21166C20.58 7.69166 18.57 9.70167 16.09 9.70167C13.61 9.70167 11.61 7.69166 11.6 5.21166ZM23.77 16.8217V19.5116C18.9 21.8116 13.26 21.8116 8.4 19.5116V16.8217C8.4 13.4317 11.15 10.6817 14.54 10.6817H17.63C21.02 10.6817 23.77 13.4317 23.77 16.8217ZM22.52 5.45167C22.52 3.70167 23.94 2.28165 25.69 2.28165C27.44 2.28165 28.86 3.70167 28.86 5.45167C28.86 7.20167 27.44 8.62167 25.69 8.62167C23.94 8.62167 22.52 7.20167 22.52 5.45167Z" fill="#FF8D29"/>
</svg>
