<svg width="225" height="146" viewBox="0 0 225 146" fill="none" xmlns="http://www.w3.org/2000/svg">
<mask id="path-1-inside-1_1503_27" fill="white">
<path fill-rule="evenodd" clip-rule="evenodd" d="M170.001 3.95193C165.952 9.09875 165.487 22.4545 169.212 26.5707C171.351 28.9342 171.417 30.5679 169.724 39.1793L167.777 49.0704L165.037 41.286C163.531 37.0037 162.243 30.8106 162.177 27.523C162.11 24.2369 161.33 20.1912 160.442 18.5341C158.32 14.5682 150.831 10.7888 145.095 10.7888C142.574 10.7888 139.627 9.7237 138.548 8.42369C137.468 7.1221 132.841 4.97002 128.266 3.64024C117.596 0.537428 109.083 2.58613 101.147 10.1638C98.0347 13.1366 93.021 16.7845 90.0059 18.2694C84.0541 21.2015 81.4509 26.9576 79.753 40.9398C78.4875 51.3619 75.3408 50.4848 71.3248 38.5904C68.28 29.5748 68.222 28.6539 70.5934 26.92C72.9741 25.1783 72.9585 24.2479 70.3741 14.3897C68.8391 8.53176 67.0943 3.17506 66.496 2.48432C65.3009 1.10286 51.2372 4.19471 50.0609 6.09775C49.6568 6.75089 51.3061 12.128 53.726 18.0438C56.9808 25.9974 58.9856 28.928 61.4212 29.2866C63.755 29.6297 65.4215 31.8459 67.1382 36.8831C69.2088 42.9635 69.2291 43.72 67.2729 42.0973C61.711 37.4799 57.7514 45.7405 62.516 52.0244C64.3517 54.4475 64.358 55.6692 62.5536 59.9843C60.8197 64.1381 60.7916 65.7858 62.4064 68.8699C66.4067 76.5102 68.9112 79.7587 71.411 80.5528C72.8191 80.9992 74.4167 83.5961 74.9618 86.323C77.8954 100.993 79.0028 103.201 83.4103 103.176C85.849 103.162 86.8812 102.659 85.8349 101.992C83.7533 100.669 88.5462 100.481 124.464 100.481C160.382 100.481 165.175 100.669 163.094 101.992C162.047 102.659 163.08 103.162 165.518 103.176C169.924 103.201 170.43 102.208 173.901 86.7537C174.481 84.1693 176.561 79.2355 178.522 75.7897C183.136 67.6842 183.604 64.3856 181.02 58.169C179.291 54.0073 179.267 52.203 180.893 48.2763C182.589 44.1805 182.514 43.1075 180.379 40.9711C178.315 38.9068 177.449 38.8222 175.447 40.4825C173.398 42.1834 173.044 42.0409 173.176 39.5646C173.503 33.4201 175.502 29.4088 179.153 27.5715C183.307 25.4821 186.81 17.5003 186.997 9.70334C187.221 0.300916 175.889 -3.53336 170.001 3.95193ZM129.605 6.65691C141.12 11.5312 143.897 21.499 136.059 29.8301L131.513 34.6621L136.581 32.095C141.568 29.5686 142.763 27.1455 143.614 17.8371C143.952 14.1406 144.71 13.2353 147.175 13.5924C156.124 14.8893 161.618 22.1882 159.624 30.1309C159.051 32.4192 156.415 36.1141 153.768 38.3429C149.971 41.5366 147.94 42.1803 144.149 41.3893C132.734 39.0101 124.546 38.7439 116.179 40.4793C111.259 41.5005 107.235 42.9353 107.235 43.6651C107.235 44.3966 109.841 44.2744 113.027 43.3957C118.492 41.8858 139.167 42.1349 140.641 43.7278C141.015 44.1319 140.996 46.5988 140.597 49.2082C139.873 53.9494 139.866 53.9541 129.428 53.9071C123.683 53.882 116.724 54.4396 113.965 55.1445C109.212 56.3599 108.877 56.1547 107.602 51.235C106.366 46.4641 105.625 45.9504 98.5218 44.9401C82.9013 42.7191 78.2134 27.2943 91.0773 20.4418C92.96 19.4409 95.8592 18.6202 97.5226 18.6202C101.73 18.6202 108.457 24.2448 109.267 28.4408C109.804 31.2226 109.984 31.0017 110.155 27.3585C110.38 22.5265 106.62 17.0539 103.077 17.0539C97.4317 17.0539 103.962 8.64923 111.934 5.65449C116.249 4.03181 124.511 4.5017 129.605 6.65691ZM179.261 44.8555C179.226 48.7932 177.135 51.5263 175.134 50.2545C174.042 49.5622 173.895 47.8753 174.733 45.6387C176.294 41.4645 179.295 40.9461 179.261 44.8555ZM67.2901 46.7993C68.8673 51.7691 66.3769 54.0841 64.0761 49.7862C62.9828 47.7422 62.4205 45.5322 62.8262 44.8759C64.1622 42.7128 66.283 43.6276 67.2901 46.7993ZM80.6082 53.0785C80.6082 53.94 79.078 54.6448 77.2078 54.6448C73.5881 54.6448 68.0779 58.7516 68.0779 61.4488C68.0779 62.3384 69.5158 61.524 71.2716 59.6397C74.5577 56.1109 79.7327 55.0944 81.3225 57.6662C81.8158 58.465 80.7053 59.3468 78.8524 59.6241C77.0011 59.8997 74.3478 61.8842 72.9569 64.0332L70.4274 67.9395L74.8349 64.5124C77.2579 62.6266 80.2542 61.4738 81.4916 61.9484C84.5882 63.1372 84.3501 63.8953 79.7421 67.5197C77.543 69.2489 76.1302 71.0501 76.6001 71.5216C77.0716 71.9915 78.9135 71.0579 80.6944 69.4462C83.4636 66.9417 84.1386 66.8478 85.3619 68.8041C86.3784 70.4299 85.7848 71.8834 83.3085 73.8365C77.449 78.4555 72.9475 78.9145 69.5267 75.2399C63.8536 69.1518 63.0689 64.525 66.5524 57.6975C69.3137 52.2844 70.3882 51.5123 75.1575 51.5123C78.1554 51.5123 80.6082 52.2171 80.6082 53.0785ZM176.996 56.9347C180.696 61.7855 180.948 62.9023 179.377 67.5072C178.412 70.3406 176.6 74.0057 175.351 75.655C173.307 78.3537 172.443 78.4618 166.702 76.742C160.628 74.922 157.323 71.3853 159.584 69.1252C160.16 68.5488 161.999 68.9309 163.672 69.9757C169.116 73.3761 170.767 71.9727 165.584 68.3498C162.812 66.4123 160.531 64.2963 160.516 63.651C160.465 61.4597 167.274 62.4622 170.154 65.0685C171.804 66.5611 173.019 66.9089 173.019 65.8876C173.019 63.2469 165.568 58.8628 162.851 59.906C161.551 60.4041 160.489 60.2052 160.489 59.4643C160.489 56.7343 168.626 56.0012 171.368 58.4838C175.261 62.0064 177.135 61.4613 173.802 57.7774C172.208 56.0153 168.978 54.6448 166.419 54.6448C163.786 54.6448 162.278 53.9854 162.838 53.0785C163.371 52.2171 165.844 51.5123 168.333 51.5123C171.657 51.5123 173.959 52.9532 176.996 56.9347ZM104.494 76.0434C103.418 76.4789 101.656 76.4789 100.578 76.0434C99.5023 75.6096 100.383 75.254 102.536 75.254C104.69 75.254 105.572 75.6096 104.494 76.0434ZM147.567 76.0857C146.059 76.4804 143.593 76.4804 142.085 76.0857C140.577 75.6926 141.811 75.3699 144.826 75.3699C147.841 75.3699 149.075 75.6926 147.567 76.0857ZM91.9638 77.6097C90.8878 78.0452 89.1257 78.0452 88.0481 77.6097C86.972 77.1759 87.8523 76.8203 90.0059 76.8203C92.1596 76.8203 93.0414 77.1759 91.9638 77.6097ZM160.064 77.5189C159.544 78.0389 158.193 78.0953 157.063 77.6426C155.814 77.143 156.185 76.7718 158.009 76.6966C159.66 76.6292 160.584 76.9989 160.064 77.5189ZM120.42 82.2225C123.006 83.2139 123.935 89.1031 121.506 89.1031C120.74 89.1031 120.212 87.9457 120.331 86.5313C120.451 85.1154 119.568 83.6149 118.368 83.1935C116.752 82.6265 116.393 83.4943 116.977 86.5485C117.41 88.815 117.158 90.6694 116.415 90.6694C115.674 90.6694 115.067 88.5549 115.067 85.9706C115.067 81.1887 116.008 80.5293 120.42 82.2225ZM129.838 83.0134C129.246 83.9704 129.733 85.3691 130.921 86.1209C132.615 87.1954 132.637 87.4946 131.029 87.5134C129.901 87.5259 129.414 88.2417 129.946 89.1031C130.479 89.9646 130.167 90.6694 129.256 90.6694C128.344 90.6694 127.597 88.5549 127.597 85.9706C127.597 83.3862 128.344 81.2717 129.256 81.2717C130.167 81.2717 130.43 82.0549 129.838 83.0134ZM102.01 87.5525C102.237 91.0109 102.181 91.0532 101.509 87.9284C101.092 85.9909 99.7436 84.4043 98.5109 84.4043C95.7574 84.4043 95.5208 90.1056 98.229 91.1988C99.7624 91.8175 99.7514 92.0149 98.1804 92.112C95.6649 92.267 94.0642 88.3325 95.3157 85.0715C96.7817 81.2498 101.716 83.0776 102.01 87.5525ZM106.452 86.6049C106.452 88.6756 105.923 90.0429 105.277 89.6435C104.632 89.2457 104.103 87.551 104.103 85.8782C104.103 84.2054 104.632 82.838 105.277 82.838C105.923 82.838 106.452 84.5327 106.452 86.6049ZM110.709 89.3882C109.729 90.3687 109.509 89.3397 110.094 86.4812C110.761 83.2029 111.156 82.8082 111.611 84.9619C111.951 86.5611 111.544 88.5534 110.709 89.3882ZM137.778 86.6754C137.778 88.8933 137.195 89.9301 136.395 89.1298C135.635 88.3701 135.436 86.6425 135.955 85.2924C137.276 81.8481 137.778 82.2287 137.778 86.6754ZM143.47 88.5612C141.996 91.0955 141.783 90.8825 141.74 86.832C141.706 83.463 142.162 82.6798 143.423 83.9407C144.662 85.1796 144.674 86.4874 143.47 88.5612ZM149.916 83.8749C147.208 84.9682 147.445 90.6694 150.198 90.6694C151.431 90.6694 152.759 89.2488 153.149 87.5134C153.743 84.8679 153.824 84.929 153.649 87.8877C153.405 92.0368 148.396 93.6297 147.003 90.0022C145.752 86.7412 147.352 82.8067 149.868 82.9617C151.439 83.0589 151.45 83.2562 149.916 83.8749ZM172.523 86.265C172.023 87.5134 171.652 87.1422 171.577 85.3174C171.509 83.6666 171.879 82.7425 172.399 83.2625C172.919 83.7825 172.975 85.1342 172.523 86.265ZM159.306 88.32C158.894 90.4736 157.859 92.2357 157.005 92.2357C156.153 92.2357 155.882 91.1205 156.406 89.7579C156.929 88.3952 157.356 86.6331 157.356 85.8421C157.356 85.0512 157.964 84.4043 158.705 84.4043C159.447 84.4043 159.718 86.1664 159.306 88.32ZM87.4983 93.5671C86.3502 95.0785 83.7439 91.6249 83.7643 88.6192C83.7862 85.3284 83.8708 85.3472 85.8506 89.1031C86.9861 91.2568 87.727 93.2663 87.4983 93.5671ZM164.168 89.9364C162.926 93.1739 162.055 92.7933 162.055 89.0107C162.055 87.2377 162.729 86.2024 163.553 86.7114C164.376 87.2205 164.654 88.6724 164.168 89.9364ZM170.956 92.5302C170.457 93.7785 170.086 93.4073 170.01 91.5826C169.943 89.9317 170.313 89.0076 170.833 89.5276C171.353 90.0476 171.409 91.3993 170.956 92.5302ZM113.892 98.0404C111.954 98.4132 108.781 98.4132 106.844 98.0404C104.906 97.666 106.491 97.3606 110.368 97.3606C114.244 97.3606 115.829 97.666 113.892 98.0404ZM142.085 98.0404C140.147 98.4132 136.974 98.4132 135.037 98.0404C133.099 97.666 134.684 97.3606 138.561 97.3606C142.437 97.3606 144.022 97.666 142.085 98.0404ZM95.8466 99.4469C95.3266 99.9669 93.9749 100.023 92.8456 99.5706C91.5957 99.071 91.9669 98.6998 93.7917 98.6246C95.4425 98.5573 96.3666 98.9269 95.8466 99.4469ZM156.932 99.4469C156.412 99.9669 155.06 100.023 153.931 99.5706C152.681 99.071 153.052 98.6998 154.877 98.6246C156.528 98.5573 157.452 98.9269 156.932 99.4469Z"/>
</mask>
<path fill-rule="evenodd" clip-rule="evenodd" d="M170.001 3.95193C165.952 9.09875 165.487 22.4545 169.212 26.5707C171.351 28.9342 171.417 30.5679 169.724 39.1793L167.777 49.0704L165.037 41.286C163.531 37.0037 162.243 30.8106 162.177 27.523C162.11 24.2369 161.33 20.1912 160.442 18.5341C158.32 14.5682 150.831 10.7888 145.095 10.7888C142.574 10.7888 139.627 9.7237 138.548 8.42369C137.468 7.1221 132.841 4.97002 128.266 3.64024C117.596 0.537428 109.083 2.58613 101.147 10.1638C98.0347 13.1366 93.021 16.7845 90.0059 18.2694C84.0541 21.2015 81.4509 26.9576 79.753 40.9398C78.4875 51.3619 75.3408 50.4848 71.3248 38.5904C68.28 29.5748 68.222 28.6539 70.5934 26.92C72.9741 25.1783 72.9585 24.2479 70.3741 14.3897C68.8391 8.53176 67.0943 3.17506 66.496 2.48432C65.3009 1.10286 51.2372 4.19471 50.0609 6.09775C49.6568 6.75089 51.3061 12.128 53.726 18.0438C56.9808 25.9974 58.9856 28.928 61.4212 29.2866C63.755 29.6297 65.4215 31.8459 67.1382 36.8831C69.2088 42.9635 69.2291 43.72 67.2729 42.0973C61.711 37.4799 57.7514 45.7405 62.516 52.0244C64.3517 54.4475 64.358 55.6692 62.5536 59.9843C60.8197 64.1381 60.7916 65.7858 62.4064 68.8699C66.4067 76.5102 68.9112 79.7587 71.411 80.5528C72.8191 80.9992 74.4167 83.5961 74.9618 86.323C77.8954 100.993 79.0028 103.201 83.4103 103.176C85.849 103.162 86.8812 102.659 85.8349 101.992C83.7533 100.669 88.5462 100.481 124.464 100.481C160.382 100.481 165.175 100.669 163.094 101.992C162.047 102.659 163.08 103.162 165.518 103.176C169.924 103.201 170.43 102.208 173.901 86.7537C174.481 84.1693 176.561 79.2355 178.522 75.7897C183.136 67.6842 183.604 64.3856 181.02 58.169C179.291 54.0073 179.267 52.203 180.893 48.2763C182.589 44.1805 182.514 43.1075 180.379 40.9711C178.315 38.9068 177.449 38.8222 175.447 40.4825C173.398 42.1834 173.044 42.0409 173.176 39.5646C173.503 33.4201 175.502 29.4088 179.153 27.5715C183.307 25.4821 186.81 17.5003 186.997 9.70334C187.221 0.300916 175.889 -3.53336 170.001 3.95193ZM129.605 6.65691C141.12 11.5312 143.897 21.499 136.059 29.8301L131.513 34.6621L136.581 32.095C141.568 29.5686 142.763 27.1455 143.614 17.8371C143.952 14.1406 144.71 13.2353 147.175 13.5924C156.124 14.8893 161.618 22.1882 159.624 30.1309C159.051 32.4192 156.415 36.1141 153.768 38.3429C149.971 41.5366 147.94 42.1803 144.149 41.3893C132.734 39.0101 124.546 38.7439 116.179 40.4793C111.259 41.5005 107.235 42.9353 107.235 43.6651C107.235 44.3966 109.841 44.2744 113.027 43.3957C118.492 41.8858 139.167 42.1349 140.641 43.7278C141.015 44.1319 140.996 46.5988 140.597 49.2082C139.873 53.9494 139.866 53.9541 129.428 53.9071C123.683 53.882 116.724 54.4396 113.965 55.1445C109.212 56.3599 108.877 56.1547 107.602 51.235C106.366 46.4641 105.625 45.9504 98.5218 44.9401C82.9013 42.7191 78.2134 27.2943 91.0773 20.4418C92.96 19.4409 95.8592 18.6202 97.5226 18.6202C101.73 18.6202 108.457 24.2448 109.267 28.4408C109.804 31.2226 109.984 31.0017 110.155 27.3585C110.38 22.5265 106.62 17.0539 103.077 17.0539C97.4317 17.0539 103.962 8.64923 111.934 5.65449C116.249 4.03181 124.511 4.5017 129.605 6.65691ZM179.261 44.8555C179.226 48.7932 177.135 51.5263 175.134 50.2545C174.042 49.5622 173.895 47.8753 174.733 45.6387C176.294 41.4645 179.295 40.9461 179.261 44.8555ZM67.2901 46.7993C68.8673 51.7691 66.3769 54.0841 64.0761 49.7862C62.9828 47.7422 62.4205 45.5322 62.8262 44.8759C64.1622 42.7128 66.283 43.6276 67.2901 46.7993ZM80.6082 53.0785C80.6082 53.94 79.078 54.6448 77.2078 54.6448C73.5881 54.6448 68.0779 58.7516 68.0779 61.4488C68.0779 62.3384 69.5158 61.524 71.2716 59.6397C74.5577 56.1109 79.7327 55.0944 81.3225 57.6662C81.8158 58.465 80.7053 59.3468 78.8524 59.6241C77.0011 59.8997 74.3478 61.8842 72.9569 64.0332L70.4274 67.9395L74.8349 64.5124C77.2579 62.6266 80.2542 61.4738 81.4916 61.9484C84.5882 63.1372 84.3501 63.8953 79.7421 67.5197C77.543 69.2489 76.1302 71.0501 76.6001 71.5216C77.0716 71.9915 78.9135 71.0579 80.6944 69.4462C83.4636 66.9417 84.1386 66.8478 85.3619 68.8041C86.3784 70.4299 85.7848 71.8834 83.3085 73.8365C77.449 78.4555 72.9475 78.9145 69.5267 75.2399C63.8536 69.1518 63.0689 64.525 66.5524 57.6975C69.3137 52.2844 70.3882 51.5123 75.1575 51.5123C78.1554 51.5123 80.6082 52.2171 80.6082 53.0785ZM176.996 56.9347C180.696 61.7855 180.948 62.9023 179.377 67.5072C178.412 70.3406 176.6 74.0057 175.351 75.655C173.307 78.3537 172.443 78.4618 166.702 76.742C160.628 74.922 157.323 71.3853 159.584 69.1252C160.16 68.5488 161.999 68.9309 163.672 69.9757C169.116 73.3761 170.767 71.9727 165.584 68.3498C162.812 66.4123 160.531 64.2963 160.516 63.651C160.465 61.4597 167.274 62.4622 170.154 65.0685C171.804 66.5611 173.019 66.9089 173.019 65.8876C173.019 63.2469 165.568 58.8628 162.851 59.906C161.551 60.4041 160.489 60.2052 160.489 59.4643C160.489 56.7343 168.626 56.0012 171.368 58.4838C175.261 62.0064 177.135 61.4613 173.802 57.7774C172.208 56.0153 168.978 54.6448 166.419 54.6448C163.786 54.6448 162.278 53.9854 162.838 53.0785C163.371 52.2171 165.844 51.5123 168.333 51.5123C171.657 51.5123 173.959 52.9532 176.996 56.9347ZM104.494 76.0434C103.418 76.4789 101.656 76.4789 100.578 76.0434C99.5023 75.6096 100.383 75.254 102.536 75.254C104.69 75.254 105.572 75.6096 104.494 76.0434ZM147.567 76.0857C146.059 76.4804 143.593 76.4804 142.085 76.0857C140.577 75.6926 141.811 75.3699 144.826 75.3699C147.841 75.3699 149.075 75.6926 147.567 76.0857ZM91.9638 77.6097C90.8878 78.0452 89.1257 78.0452 88.0481 77.6097C86.972 77.1759 87.8523 76.8203 90.0059 76.8203C92.1596 76.8203 93.0414 77.1759 91.9638 77.6097ZM160.064 77.5189C159.544 78.0389 158.193 78.0953 157.063 77.6426C155.814 77.143 156.185 76.7718 158.009 76.6966C159.66 76.6292 160.584 76.9989 160.064 77.5189ZM120.42 82.2225C123.006 83.2139 123.935 89.1031 121.506 89.1031C120.74 89.1031 120.212 87.9457 120.331 86.5313C120.451 85.1154 119.568 83.6149 118.368 83.1935C116.752 82.6265 116.393 83.4943 116.977 86.5485C117.41 88.815 117.158 90.6694 116.415 90.6694C115.674 90.6694 115.067 88.5549 115.067 85.9706C115.067 81.1887 116.008 80.5293 120.42 82.2225ZM129.838 83.0134C129.246 83.9704 129.733 85.3691 130.921 86.1209C132.615 87.1954 132.637 87.4946 131.029 87.5134C129.901 87.5259 129.414 88.2417 129.946 89.1031C130.479 89.9646 130.167 90.6694 129.256 90.6694C128.344 90.6694 127.597 88.5549 127.597 85.9706C127.597 83.3862 128.344 81.2717 129.256 81.2717C130.167 81.2717 130.43 82.0549 129.838 83.0134ZM102.01 87.5525C102.237 91.0109 102.181 91.0532 101.509 87.9284C101.092 85.9909 99.7436 84.4043 98.5109 84.4043C95.7574 84.4043 95.5208 90.1056 98.229 91.1988C99.7624 91.8175 99.7514 92.0149 98.1804 92.112C95.6649 92.267 94.0642 88.3325 95.3157 85.0715C96.7817 81.2498 101.716 83.0776 102.01 87.5525ZM106.452 86.6049C106.452 88.6756 105.923 90.0429 105.277 89.6435C104.632 89.2457 104.103 87.551 104.103 85.8782C104.103 84.2054 104.632 82.838 105.277 82.838C105.923 82.838 106.452 84.5327 106.452 86.6049ZM110.709 89.3882C109.729 90.3687 109.509 89.3397 110.094 86.4812C110.761 83.2029 111.156 82.8082 111.611 84.9619C111.951 86.5611 111.544 88.5534 110.709 89.3882ZM137.778 86.6754C137.778 88.8933 137.195 89.9301 136.395 89.1298C135.635 88.3701 135.436 86.6425 135.955 85.2924C137.276 81.8481 137.778 82.2287 137.778 86.6754ZM143.47 88.5612C141.996 91.0955 141.783 90.8825 141.74 86.832C141.706 83.463 142.162 82.6798 143.423 83.9407C144.662 85.1796 144.674 86.4874 143.47 88.5612ZM149.916 83.8749C147.208 84.9682 147.445 90.6694 150.198 90.6694C151.431 90.6694 152.759 89.2488 153.149 87.5134C153.743 84.8679 153.824 84.929 153.649 87.8877C153.405 92.0368 148.396 93.6297 147.003 90.0022C145.752 86.7412 147.352 82.8067 149.868 82.9617C151.439 83.0589 151.45 83.2562 149.916 83.8749ZM172.523 86.265C172.023 87.5134 171.652 87.1422 171.577 85.3174C171.509 83.6666 171.879 82.7425 172.399 83.2625C172.919 83.7825 172.975 85.1342 172.523 86.265ZM159.306 88.32C158.894 90.4736 157.859 92.2357 157.005 92.2357C156.153 92.2357 155.882 91.1205 156.406 89.7579C156.929 88.3952 157.356 86.6331 157.356 85.8421C157.356 85.0512 157.964 84.4043 158.705 84.4043C159.447 84.4043 159.718 86.1664 159.306 88.32ZM87.4983 93.5671C86.3502 95.0785 83.7439 91.6249 83.7643 88.6192C83.7862 85.3284 83.8708 85.3472 85.8506 89.1031C86.9861 91.2568 87.727 93.2663 87.4983 93.5671ZM164.168 89.9364C162.926 93.1739 162.055 92.7933 162.055 89.0107C162.055 87.2377 162.729 86.2024 163.553 86.7114C164.376 87.2205 164.654 88.6724 164.168 89.9364ZM170.956 92.5302C170.457 93.7785 170.086 93.4073 170.01 91.5826C169.943 89.9317 170.313 89.0076 170.833 89.5276C171.353 90.0476 171.409 91.3993 170.956 92.5302ZM113.892 98.0404C111.954 98.4132 108.781 98.4132 106.844 98.0404C104.906 97.666 106.491 97.3606 110.368 97.3606C114.244 97.3606 115.829 97.666 113.892 98.0404ZM142.085 98.0404C140.147 98.4132 136.974 98.4132 135.037 98.0404C133.099 97.666 134.684 97.3606 138.561 97.3606C142.437 97.3606 144.022 97.666 142.085 98.0404ZM95.8466 99.4469C95.3266 99.9669 93.9749 100.023 92.8456 99.5706C91.5957 99.071 91.9669 98.6998 93.7917 98.6246C95.4425 98.5573 96.3666 98.9269 95.8466 99.4469ZM156.932 99.4469C156.412 99.9669 155.06 100.023 153.931 99.5706C152.681 99.071 153.052 98.6998 154.877 98.6246C156.528 98.5573 157.452 98.9269 156.932 99.4469Z" fill="#2A2A2A" stroke="#2A2A2A" stroke-width="3.13257" mask="url(#path-1-inside-1_1503_27)"/>
<path d="M104.037 72.8324C87.7475 72.8324 82.631 78.5754 82.1089 81.447L84.4583 99.4593H155.724L169.038 98.6761L173.737 81.447L168.255 79.0975L151.026 71.2661C142.15 71.7882 120.326 72.8324 104.037 72.8324Z" fill="#2A2A2A" stroke="#2A2A2A" stroke-width="1.56629"/>
<path d="M7.36758 73.4224L12.2469 70.3729C35.7953 57.8532 60.745 52.0567 138.791 80.2006C200.551 102.472 216.283 77.2034 216.007 63.019C240.263 108.5 207.517 140.888 193.368 144.884C184.126 147.495 162.504 143.552 152.732 140.888C141.798 136.717 114.689 131.364 102.995 131.364C81.2402 126.485 61.3359 130.89 54.1031 133.702L48.7489 135.328L43.3524 137.463C33.1059 142.342 29.3244 138.073 28.7145 135.328L26.8848 131.364V125.875C28.5925 110.017 20.4807 100.97 16.2113 98.4288L10.1122 95.3792L5.23295 92.0247L3.09824 88.6702C-2.51297 82.3271 0.760236 78.505 3.09824 77.3868L7.36758 73.4224Z" fill="#2A2A2A"/>
<path d="M55.7911 104.99C55.1034 104.694 54.5503 104.287 54.1316 103.767C53.7147 103.233 53.4045 102.629 53.201 101.955C52.9975 101.281 52.8914 100.551 52.8828 99.7657C52.8741 98.9801 52.9416 98.1888 53.0852 97.3918C53.2307 96.5799 53.443 95.7763 53.7223 94.981C54.0033 94.1707 54.3225 93.418 54.6799 92.7229C55.0539 92.0146 55.4486 91.3844 55.8637 90.8321C56.2956 90.2668 56.7369 89.8083 57.1877 89.4566C57.6218 89.1179 58.0143 88.9325 58.3653 88.9004C58.7163 88.8682 59.0247 88.9365 59.2905 89.1051C59.5582 89.2588 59.7852 89.4981 59.9714 89.8228C60.1577 90.1475 60.2957 90.4965 60.3854 90.8697C60.4769 91.228 60.5147 91.5947 60.4985 91.9699C60.4991 92.3321 60.4383 92.6414 60.3161 92.8979C60.2088 93.1563 60.0419 93.3469 59.8155 93.4698C59.6058 93.5797 59.3365 93.5616 59.0075 93.4154C58.8679 93.202 58.8461 92.9504 58.9423 92.6605C59.0533 92.3724 59.1568 92.0835 59.2529 91.7936C59.3658 91.4907 59.4164 91.2027 59.4048 90.9297C59.41 90.6437 59.2359 90.4034 58.8827 90.209C58.5295 90.0145 58.1757 90.0085 57.8213 90.1911C57.4668 90.3737 57.1181 90.6927 56.7752 91.1483C56.449 91.5909 56.1323 92.1402 55.825 92.7963C55.5344 93.4394 55.2681 94.1307 55.0259 94.8703C54.7856 95.595 54.5806 96.3392 54.4109 97.1028C54.2561 97.8682 54.1365 98.5927 54.0521 99.2764C53.9844 99.9469 53.9705 100.549 54.0104 101.082C54.0502 101.615 54.1585 102.02 54.3354 102.299C54.6017 102.709 54.9003 103.04 55.2313 103.292C55.5771 103.546 55.9452 103.742 56.3354 103.881C56.7257 104.019 57.1363 104.115 57.5672 104.169C58.0131 104.224 58.4607 104.264 58.9103 104.289C59.4341 104.324 59.9243 104.263 60.3809 104.108C60.8394 103.939 61.2858 103.745 61.7201 103.527C62.1543 103.309 62.5803 103.097 62.9978 102.892C63.4172 102.673 63.8572 102.531 64.3177 102.467C64.8877 102.371 65.1906 102.424 65.2262 102.624C65.2785 102.812 65.1275 103.057 64.7732 103.361C64.4338 103.666 63.9328 103.996 63.2703 104.352C62.6245 104.695 61.8886 104.973 61.0624 105.188C60.2362 105.403 59.3626 105.514 58.4413 105.521C57.535 105.53 56.6516 105.353 55.7911 104.99ZM68.5896 106.728C68.0952 106.456 67.7018 106.098 67.4095 105.655C67.1339 105.198 66.9242 104.697 66.7803 104.151C66.6531 103.593 66.5817 103.01 66.5659 102.405C66.5519 101.785 66.5667 101.175 66.6104 100.577C66.6707 99.9662 66.7413 99.394 66.8222 98.8609C66.9198 98.3147 67.0008 97.8418 67.0652 97.4424C67.2879 96.1271 67.6881 94.962 68.266 93.947C68.8458 92.9171 69.641 91.9139 70.6517 90.9372C71.2989 90.3382 71.8806 89.9649 72.3967 89.8174C72.9295 89.6568 73.3966 89.6616 73.7981 89.8319C74.2013 89.9873 74.551 90.2718 74.8469 90.6855C75.1447 91.0844 75.3822 91.5437 75.5595 92.0635C75.7386 92.5684 75.8629 93.0891 75.9324 93.6258C76.0169 94.1643 76.0473 94.6508 76.0239 95.0855C76.0004 95.5201 75.9267 95.8731 75.8026 96.1445C75.6805 96.401 75.5097 96.5006 75.2905 96.4434C75.2508 96.0311 75.2197 95.7331 75.1972 95.5492C75.1894 95.3672 75.1669 95.1834 75.1294 94.9977C75.092 94.8121 75.0238 94.5698 74.9249 94.2709C74.8427 93.959 74.7064 93.4745 74.5159 92.8173C74.2025 91.9337 73.8441 91.3539 73.4406 91.0778C73.0372 90.8017 72.6201 90.7577 72.1895 90.946C71.7589 91.1342 71.3203 91.5101 70.8735 92.0736C70.4417 92.6388 70.0267 93.3118 69.6286 94.0925C69.2323 94.8583 68.8733 95.6891 68.5515 96.5848C68.2298 97.4805 67.9702 98.3613 67.7728 99.2271C67.5772 100.078 67.4568 100.87 67.4115 101.604C67.3663 102.338 67.421 102.933 67.5759 103.39C67.6469 103.67 67.7384 103.968 67.8503 104.283C67.9771 104.601 68.1373 104.892 68.3309 105.158C68.5263 105.408 68.7495 105.617 69.0005 105.783C69.2663 105.952 69.5738 106.028 69.923 106.01C70.6546 105.95 71.309 105.721 71.886 105.325C72.463 104.928 72.9776 104.426 73.4298 103.818C73.8821 103.21 74.284 102.52 74.6357 101.749C74.9874 100.978 75.2954 100.193 75.5598 99.3961C75.839 98.6007 76.0857 97.824 76.3 97.0659C76.5161 96.2929 76.7063 95.6073 76.8707 95.0089C77.0517 94.3976 77.2181 93.9052 77.3698 93.5316C77.5382 93.145 77.7079 92.9321 77.8787 92.8928C78.0328 92.8666 78.1582 92.8896 78.2549 92.9619C78.3516 93.0342 78.4223 93.1334 78.4671 93.2597C78.5118 93.3859 78.5325 93.5242 78.529 93.6747C78.5274 93.8103 78.5053 93.9282 78.4627 94.0286C77.8677 94.8152 77.4195 95.6349 77.1181 96.4879C76.8334 97.3278 76.662 98.1667 76.6039 99.0044C76.5624 99.8291 76.6138 100.635 76.7581 101.422C76.919 102.197 77.1384 102.925 77.4162 103.608C77.7107 104.278 78.0432 104.885 78.4136 105.429C78.8008 105.959 79.1924 106.392 79.5885 106.728C80.0013 107.05 80.3982 107.258 80.7791 107.35C81.1748 107.444 81.5295 107.382 81.843 107.165C82.5145 106.614 83.022 106.292 83.3654 106.198C83.7107 106.09 83.9262 106.117 84.0119 106.278C84.0994 106.425 84.0701 106.662 83.9238 106.991C83.7776 107.32 83.5497 107.639 83.24 107.948C82.9321 108.242 82.5555 108.482 82.11 108.669C81.6627 108.87 81.1892 108.917 80.6894 108.81C80.1878 108.718 79.6664 108.42 79.1251 107.915C78.5839 107.411 78.0626 106.623 77.5613 105.55C77.349 105.192 77.1562 104.798 76.9828 104.37C76.8094 103.941 76.6443 103.505 76.4876 103.064C76.3458 102.624 76.2114 102.185 76.0844 101.747C75.9723 101.31 75.8658 100.89 75.7648 100.485C75.6225 100.905 75.4254 101.401 75.1737 101.974C74.9387 102.533 74.6499 103.101 74.3072 103.677C73.9812 104.24 73.605 104.782 73.1786 105.303C72.769 105.811 72.3183 106.223 71.8266 106.539C71.3498 106.858 70.8356 107.051 70.2841 107.119C69.7326 107.186 69.1678 107.056 68.5896 106.728ZM84.8626 108.737C84.8348 108.718 84.804 108.662 84.7704 108.567C84.7369 108.472 84.7228 108.403 84.7283 108.358C84.7042 107.208 84.7194 106.23 84.7739 105.422C84.8432 104.615 84.9182 103.885 84.9989 103.232C85.0815 102.563 85.1603 101.924 85.2355 101.314C85.3107 100.705 85.357 100.024 85.3744 99.2721C85.4085 98.5069 85.3969 97.6228 85.3397 96.62C85.2842 95.6022 85.1662 94.358 84.9856 92.8873C84.9538 92.7778 84.9982 92.6626 85.1188 92.5417C85.2411 92.4059 85.3868 92.3258 85.5558 92.3014C85.7248 92.277 85.8902 92.3427 86.052 92.4984C86.2157 92.6393 86.3146 92.9382 86.3487 93.395C86.3544 93.4712 86.3602 93.6077 86.3661 93.8046C86.3886 93.9884 86.4019 94.1862 86.406 94.3979C86.41 94.6096 86.4159 94.8065 86.4236 94.9885C86.4313 95.1705 86.438 95.2996 86.4437 95.3757L86.6444 95.4005C87.6341 94.1044 88.5242 93.1883 89.3146 92.6521C90.1068 92.1012 90.7898 91.8234 91.3637 91.8187C91.9543 91.8011 92.419 92.0093 92.7577 92.4434C93.0982 92.8626 93.3034 93.4009 93.3731 94.0583C93.4595 94.7026 93.3938 95.4187 93.1759 96.2066C92.9598 96.9795 92.582 97.7175 92.0426 98.4204C91.5051 99.1084 90.7966 99.715 89.917 100.24C89.0542 100.752 87.9969 101.067 86.7453 101.184L86.7233 101.362C87.2159 101.649 87.6948 102.048 88.1599 102.558C88.6399 103.07 89.1135 103.634 89.5806 104.25C90.0496 104.851 90.5176 105.459 90.9848 106.075C91.4519 106.691 91.9329 107.256 92.4277 107.769C92.9244 108.268 93.4395 108.679 93.9731 109.001C94.5085 109.309 95.0705 109.461 95.6593 109.458C95.689 109.462 95.805 109.378 96.0071 109.207C96.2093 109.036 96.4365 108.845 96.6888 108.635C96.9411 108.424 97.1831 108.236 97.415 108.068C97.6636 107.888 97.8492 107.79 97.9718 107.775C98.1092 107.761 98.1484 107.872 98.0893 108.106C98.0469 108.327 97.86 108.742 97.5285 109.349C97.1304 110.13 96.6966 110.65 96.2271 110.909C95.7706 111.184 95.2925 111.269 94.7927 111.162C94.2929 111.055 93.7818 110.796 93.2592 110.384C92.7349 109.987 92.2132 109.508 91.6941 108.946C91.175 108.384 90.6689 107.779 90.1757 107.129C89.6825 106.48 89.2089 105.856 88.7547 105.257C88.3155 104.659 87.907 104.118 87.5292 103.634C87.1663 103.152 86.8472 102.803 86.572 102.588L85.732 108.844C85.721 108.933 85.6691 108.987 85.5763 109.006C85.5001 109.012 85.4332 109.003 85.3756 108.981C85.305 108.942 85.2046 108.9 85.0746 108.853C84.9612 108.794 84.8905 108.755 84.8626 108.737ZM86.5622 99.9166C87.2642 99.8524 87.9557 99.6284 88.6367 99.2447C89.3178 98.8611 89.9327 98.4014 90.4817 97.8656C91.0454 97.3317 91.5228 96.7645 91.9138 96.164C92.3047 95.5634 92.5602 95.0216 92.6801 94.5386C92.8019 94.0406 92.7614 93.6358 92.5585 93.3241C92.3704 93.0142 91.9783 92.8904 91.3822 92.9526C90.9087 92.9998 90.4789 93.1202 90.0929 93.314C89.7087 93.4929 89.3562 93.721 89.0353 93.9982C88.7293 94.2773 88.441 94.5962 88.1704 94.9551C87.9164 95.301 87.6756 95.6635 87.4477 96.0428C87.2701 96.5036 87.1166 96.8921 86.9871 97.208C86.8575 97.5239 86.7531 97.8203 86.6736 98.0972C86.5942 98.3741 86.5445 98.6546 86.5245 98.9388C86.5064 99.2081 86.5189 99.5341 86.5622 99.9166ZM105.212 111.09C105.108 110.836 105.043 110.564 105.019 110.274C104.994 109.984 104.993 109.69 105.014 109.391C105.051 109.093 105.109 108.806 105.189 108.53C105.27 108.238 105.357 107.962 105.449 107.702C105.574 106.812 105.725 105.895 105.902 104.951C106.095 103.994 106.253 103.026 106.374 102.045C106.51 101.066 106.57 100.085 106.556 99.1026C106.558 98.1071 106.438 97.1192 106.197 96.1389C105.729 96.0208 105.2 95.9705 104.609 95.9881C104.02 95.9909 103.419 96.0299 102.807 96.1052C102.194 96.1804 101.602 96.2659 101.032 96.3615C100.464 96.4422 99.9731 96.5098 99.559 96.5644C99.4366 96.7001 99.2863 96.757 99.1079 96.735C98.9463 96.7 98.805 96.6222 98.6841 96.5016C98.5632 96.3811 98.4831 96.2354 98.4438 96.0646C98.4194 95.8956 98.4777 95.7293 98.6186 95.5657C98.8822 95.5077 99.4031 95.4437 100.181 95.3738C100.959 95.3039 101.872 95.243 102.919 95.1912C103.984 95.1264 105.129 95.0791 106.354 95.0494C107.58 95.0196 108.787 95.0177 109.976 95.0437C111.167 95.0549 112.277 95.1014 113.308 95.1834C114.339 95.2654 115.184 95.3922 115.841 95.5639C116.499 95.7356 116.916 95.9606 117.093 96.2389C117.27 96.5172 117.1 96.8583 116.582 97.2622L116.426 97.2429C116.37 97.2058 116.251 97.1308 116.069 97.0178C115.902 96.9066 115.799 96.826 115.76 96.7759C114.366 96.5738 112.985 96.3958 111.616 96.2419C110.247 96.088 108.863 96.053 107.465 96.1369C107.461 96.1666 107.458 96.2567 107.454 96.4072C107.467 96.5446 107.478 96.7043 107.486 96.8863C107.495 97.0535 107.498 97.2122 107.495 97.3627C107.506 97.515 107.51 97.606 107.506 97.6357C107.467 98.9284 107.402 100.127 107.311 101.233C107.22 102.338 107.108 103.425 106.976 104.496C106.859 105.567 106.717 106.659 106.55 107.77C106.399 108.868 106.237 110.062 106.062 111.353C106.003 111.467 105.928 111.525 105.837 111.529C105.759 111.55 105.678 111.532 105.594 111.476C105.509 111.436 105.426 111.373 105.346 111.287C105.281 111.204 105.236 111.138 105.212 111.09ZM123.16 113.463C123.13 113.46 123.096 113.433 123.057 113.383C123.033 113.334 123.014 113.302 123.001 113.285C123.109 112.167 123.239 111.051 123.391 109.939C123.559 108.828 123.726 107.717 123.893 106.606C124.06 105.495 124.227 104.392 124.392 103.295C124.56 102.185 124.704 101.071 124.827 99.9545C124.873 99.7037 124.965 99.5113 125.102 99.3773C125.241 99.2285 125.387 99.1484 125.539 99.1371C125.691 99.1257 125.827 99.1877 125.946 99.3231C126.082 99.4455 126.178 99.6459 126.234 99.9244L126.209 100.125C125.727 101.952 125.367 103.831 125.129 105.763C124.89 107.695 124.67 109.606 124.466 111.497C124.515 111.473 124.594 111.438 124.706 111.391C124.819 111.329 124.926 111.32 125.026 111.363C125.015 111.572 124.966 111.846 124.88 112.182C124.793 112.518 124.664 112.827 124.494 113.107C124.34 113.375 124.151 113.563 123.926 113.671C123.702 113.779 123.446 113.71 123.16 113.463ZM134.236 114.672C134.132 114.418 134.067 114.146 134.042 113.856C134.018 113.566 134.016 113.272 134.038 112.973C134.075 112.676 134.133 112.388 134.212 112.112C134.294 111.82 134.381 111.544 134.473 111.284C134.598 110.394 134.749 109.477 134.926 108.533C135.119 107.577 135.276 106.608 135.398 105.627C135.533 104.648 135.594 103.667 135.58 102.685C135.582 101.689 135.462 100.701 135.221 99.721C134.753 99.6028 134.224 99.5526 133.633 99.5702C133.044 99.573 132.443 99.612 131.831 99.6872C131.218 99.7625 130.626 99.8479 130.056 99.9435C129.488 100.024 128.997 100.092 128.583 100.146C128.461 100.282 128.31 100.339 128.132 100.317C127.97 100.282 127.829 100.204 127.708 100.084C127.587 99.9632 127.507 99.8175 127.468 99.6467C127.443 99.4777 127.502 99.3114 127.643 99.1477C127.906 99.0897 128.427 99.0258 129.205 98.9558C129.983 98.8859 130.896 98.825 131.943 98.7733C133.008 98.7085 134.152 98.6612 135.378 98.6314C136.604 98.6016 137.811 98.5998 139 98.6258C140.191 98.6369 141.301 98.6835 142.332 98.7654C143.363 98.8474 144.207 98.9742 144.865 99.1459C145.523 99.3176 145.94 99.5427 146.117 99.821C146.294 100.099 146.124 100.44 145.606 100.844L145.45 100.825C145.394 100.788 145.275 100.713 145.093 100.6C144.926 100.489 144.823 100.408 144.784 100.358C143.39 100.156 142.009 99.9778 140.64 99.8239C139.271 99.6701 137.887 99.6351 136.489 99.719C136.485 99.7487 136.482 99.8388 136.478 99.9892C136.491 100.127 136.502 100.286 136.509 100.468C136.519 100.636 136.522 100.794 136.519 100.945C136.53 101.097 136.534 101.188 136.53 101.218C136.491 102.51 136.426 103.709 136.335 104.815C136.244 105.92 136.132 107.008 136 108.078C135.883 109.149 135.741 110.241 135.574 111.352C135.423 112.45 135.261 113.644 135.086 114.935C135.027 115.049 134.952 115.107 134.861 115.111C134.783 115.132 134.702 115.114 134.618 115.058C134.533 115.018 134.45 114.955 134.37 114.869C134.305 114.786 134.26 114.72 134.236 114.672ZM142.529 115.695C142.268 115.482 142.07 115.133 141.933 114.649C141.812 114.166 141.731 113.598 141.691 112.944C141.666 112.292 141.679 111.577 141.73 110.799C141.78 110.021 141.847 109.237 141.929 108.447C142.027 107.66 142.129 106.888 142.238 106.132C142.363 105.362 142.478 104.675 142.583 104.069C142.69 103.449 142.777 102.924 142.845 102.495C142.928 102.068 142.978 101.787 142.994 101.653C142.933 101.782 142.81 101.804 142.624 101.721C142.455 101.625 142.305 101.493 142.175 101.326C142.061 101.146 142.001 100.958 141.995 100.761C142.004 100.566 142.157 100.426 142.454 100.342C142.829 100.237 143.216 100.164 143.613 100.123C144.027 100.068 144.447 100.03 144.872 100.007C145.297 99.9838 145.714 99.9674 146.123 99.9575C146.532 99.9476 146.934 99.9219 147.332 99.8804L157.923 100.803C158.16 100.711 158.396 100.695 158.63 100.754C158.879 100.815 159.078 100.915 159.227 101.054C159.376 101.193 159.46 101.37 159.478 101.583C159.499 101.782 159.398 101.988 159.176 102.202C158.94 102.158 158.554 102.103 158.019 102.037C157.501 101.958 156.892 101.882 156.191 101.811C155.493 101.725 154.727 101.638 153.893 101.55C153.059 101.462 152.215 101.388 151.363 101.328C150.527 101.255 149.703 101.206 148.891 101.182C148.096 101.144 147.374 101.13 146.724 101.141C146.089 101.153 145.547 101.199 145.1 101.28C144.667 101.362 144.389 101.479 144.265 101.629C143.959 102.029 143.727 102.559 143.571 103.218C143.43 103.865 143.323 104.553 143.248 105.283C143.189 106 143.155 106.705 143.145 107.398C143.15 108.092 143.153 108.681 143.154 109.164C143.373 109.221 143.527 109.255 143.616 109.266C143.705 109.277 143.773 109.278 143.82 109.269C143.883 109.247 143.946 109.224 144.009 109.202C144.087 109.181 144.218 109.16 144.402 109.137C144.493 109.133 144.675 109.125 144.948 109.114C145.237 109.089 145.572 109.063 145.953 109.034C146.349 109.008 146.759 108.983 147.184 108.96C147.612 108.922 148.015 108.896 148.393 108.883C148.789 108.856 149.132 108.831 149.421 108.806C149.711 108.781 149.901 108.767 149.992 108.763C150.54 108.725 150.916 108.674 151.12 108.608C151.326 108.528 151.464 108.455 151.532 108.388C151.618 108.308 151.687 108.233 151.741 108.164C151.797 108.081 151.956 108.01 152.22 107.952C152.513 107.898 152.686 107.964 152.738 108.152C152.792 108.324 152.744 108.537 152.592 108.79C152.455 109.045 152.221 109.287 151.891 109.518C151.575 109.751 151.189 109.884 150.732 109.918C150.489 109.934 150.048 109.962 149.409 110.004C148.785 110.048 148.116 110.093 147.401 110.141C146.701 110.19 146.031 110.236 145.392 110.278C144.77 110.307 144.33 110.328 144.072 110.341C144.04 110.352 143.97 110.374 143.86 110.405C143.751 110.437 143.633 110.475 143.507 110.52C143.395 110.567 143.284 110.613 143.173 110.66C143.078 110.694 143.007 110.715 142.961 110.724C142.944 110.738 142.903 110.763 142.838 110.8C142.788 110.839 142.762 110.873 142.758 110.903C142.652 112.248 142.717 113.252 142.952 113.914C143.187 114.577 143.578 115.018 144.124 115.236C144.672 115.439 145.383 115.489 146.256 115.386C147.145 115.269 148.19 115.112 149.392 114.913C149.7 114.86 150.059 114.822 150.47 114.797C150.897 114.759 151.319 114.698 151.737 114.614C152.155 114.53 152.546 114.419 152.91 114.283C153.29 114.134 153.594 113.93 153.822 113.672C153.893 113.59 153.917 113.517 153.894 113.454C153.872 113.391 153.843 113.32 153.808 113.24C153.772 113.16 153.753 113.075 153.749 112.984C153.762 112.88 153.829 112.76 153.952 112.624C154.613 112.887 154.994 113.168 155.092 113.466C155.193 113.75 155.098 114.033 154.807 114.314C154.516 114.595 154.059 114.87 153.437 115.141C152.817 115.396 152.11 115.626 151.316 115.829C150.538 116.02 149.711 116.174 148.837 116.293C147.962 116.411 147.116 116.48 146.299 116.5C145.499 116.507 144.759 116.446 144.081 116.317C143.418 116.19 142.9 115.983 142.529 115.695ZM175.39 119.909C175.364 119.876 175.312 119.809 175.233 119.709C175.155 119.609 175.103 119.542 175.077 119.509C175.069 119.085 175.116 118.586 175.217 118.01C175.318 117.434 175.44 116.815 175.582 116.154C175.738 115.494 175.905 114.813 176.083 114.111C176.26 113.408 176.427 112.727 176.584 112.068C176.741 111.408 176.871 110.783 176.974 110.192C177.077 109.602 177.133 109.088 177.141 108.651C177.149 107.973 177.026 107.385 176.771 106.886C176.53 106.388 176.202 105.993 175.785 105.7C175.371 105.393 174.9 105.176 174.372 105.051C173.844 104.925 173.297 104.895 172.731 104.961C172.181 105.014 171.643 105.159 171.116 105.396C170.605 105.619 170.153 105.926 169.758 106.314C169.396 106.677 169.067 107.142 168.771 107.709C168.476 108.261 168.198 108.868 167.935 109.529C167.689 110.178 167.461 110.866 167.25 111.595C167.041 112.308 166.834 113.014 166.627 113.713C166.436 114.399 166.25 115.055 166.067 115.681C165.901 116.294 165.73 116.824 165.554 117.27C165.55 117.299 165.523 117.334 165.473 117.373C165.423 117.412 165.391 117.431 165.376 117.429C165.331 117.423 165.264 117.422 165.173 117.426C165.098 117.417 165.009 117.406 164.905 117.393C164.816 117.382 164.727 117.371 164.638 117.36C164.565 117.336 164.514 117.322 164.484 117.319C164.404 117.233 164.384 116.967 164.424 116.519C164.466 116.057 164.542 115.508 164.65 114.872C164.761 114.222 164.884 113.528 165.02 112.791C165.172 112.055 165.318 111.356 165.46 110.695C165.602 110.034 165.718 109.459 165.808 108.973C165.915 108.473 165.978 108.149 165.996 108C166.08 106.834 165.963 105.884 165.647 105.151C165.346 104.405 164.936 103.939 164.416 103.754C163.897 103.554 163.319 103.656 162.681 104.06C162.042 104.464 161.437 105.212 160.865 106.303C160.652 106.684 160.459 107.211 160.285 107.884C160.113 108.541 159.942 109.26 159.77 110.038C159.615 110.803 159.465 111.592 159.32 112.404C159.174 113.216 159.005 113.979 158.811 114.695C158.634 115.397 158.438 116.007 158.223 116.523C158.01 117.025 157.765 117.364 157.486 117.541C157.324 117.386 157.203 117.205 157.123 116.999C157.043 116.793 156.978 116.588 156.927 116.386L156.949 116.208C157.151 115.433 157.356 114.5 157.566 113.41C157.793 112.306 157.993 111.177 158.166 110.021C158.355 108.852 158.51 107.717 158.631 106.616C158.754 105.499 158.827 104.535 158.852 103.724C158.861 103.529 158.811 103.266 158.701 102.936C158.607 102.592 158.528 102.258 158.462 101.933C158.413 101.595 158.421 101.287 158.486 101.008C158.552 100.714 158.752 100.505 159.084 100.38C159.164 100.345 159.223 100.352 159.262 100.402L160.024 101.379C159.96 101.658 159.912 101.984 159.881 102.357C159.867 102.717 159.85 103.093 159.832 103.483C159.831 103.86 159.83 104.237 159.829 104.614C159.842 104.993 159.853 105.333 159.861 105.636C160.641 104.208 161.427 103.28 162.219 102.849C163.026 102.421 163.764 102.369 164.434 102.693C165.105 103.002 165.677 103.623 166.15 104.556C166.638 105.492 166.944 106.616 167.069 107.929C167.37 107.815 167.654 107.586 167.923 107.242C168.194 106.883 168.483 106.497 168.791 106.082C169.113 105.669 169.456 105.274 169.819 104.896C170.2 104.506 170.637 104.205 171.13 103.994C171.958 103.644 172.764 103.532 173.548 103.659C174.349 103.773 175.068 104.058 175.706 104.514C176.345 104.955 176.87 105.533 177.28 106.247C177.704 106.963 177.963 107.742 178.055 108.583C178.087 108.934 178.086 109.371 178.051 109.895C178.017 110.419 177.962 110.986 177.887 111.595C177.812 112.204 177.711 112.833 177.586 113.482C177.476 114.132 177.353 114.758 177.219 115.36C177.101 115.949 176.972 116.499 176.834 117.01C176.71 117.523 176.591 117.938 176.476 118.256C176.545 118.309 176.62 118.319 176.699 118.283C176.779 118.248 176.86 118.205 176.941 118.155C177.025 118.089 177.114 118.04 177.209 118.006C177.32 117.96 177.439 117.975 177.565 118.051C177.601 118.251 177.548 118.501 177.405 118.8C177.262 119.099 177.078 119.371 176.852 119.615C176.627 119.843 176.382 120.002 176.114 120.089C175.847 120.177 175.605 120.117 175.39 119.909ZM184.529 121.037C184.241 120.926 183.912 120.72 183.542 120.418C183.172 120.115 182.808 119.761 182.451 119.355C182.109 118.951 181.792 118.519 181.502 118.061C181.228 117.59 181.035 117.136 180.923 116.7C180.813 116.249 180.812 115.826 180.921 115.432C181.045 115.04 181.327 114.713 181.767 114.45C181.831 114.413 181.958 114.368 182.145 114.316C182.348 114.265 182.54 114.236 182.722 114.229C182.919 114.223 183.064 114.263 183.159 114.35C183.269 114.439 183.272 114.598 183.168 114.827C182.621 114.986 182.258 115.235 182.08 115.575C181.903 115.915 181.856 116.294 181.94 116.712C182.039 117.132 182.235 117.563 182.527 118.007C182.834 118.452 183.191 118.865 183.596 119.247C184.003 119.615 184.432 119.931 184.882 120.198C185.347 120.467 185.787 120.627 186.203 120.678C186.619 120.729 186.982 120.661 187.292 120.473C187.619 120.272 187.839 119.892 187.953 119.333C188.088 118.61 188.123 117.898 188.059 117.196C188.009 116.495 187.792 115.812 187.406 115.146C187.08 114.608 186.729 114.157 186.351 113.794C185.988 113.432 185.614 113.107 185.227 112.818C184.855 112.53 184.474 112.257 184.083 111.998C183.708 111.74 183.343 111.454 182.99 111.138C182.653 110.81 182.344 110.44 182.063 110.028C181.784 109.602 181.546 109.082 181.35 108.469C181.102 107.669 181.085 106.95 181.3 106.313C181.531 105.663 181.898 105.135 182.401 104.729C182.92 104.31 183.528 104.031 184.224 103.89C184.937 103.737 185.652 103.75 186.369 103.929C186.808 104.043 187.195 104.265 187.532 104.593C187.869 104.921 188.132 105.293 188.322 105.709C188.529 106.111 188.651 106.526 188.689 106.953C188.727 107.381 188.666 107.75 188.507 108.063C188.35 108.36 188.075 108.567 187.683 108.685C187.308 108.79 186.801 108.742 186.162 108.543C186.119 108.281 186.172 108.091 186.323 107.974C186.473 107.857 186.644 107.757 186.835 107.675C187.028 107.578 187.205 107.487 187.366 107.401C187.53 107.301 187.609 107.145 187.605 106.933C187.576 106.19 187.366 105.636 186.973 105.271C186.582 104.891 186.119 104.675 185.582 104.624C185.062 104.56 184.531 104.645 183.989 104.88C183.449 105.1 183.007 105.438 182.664 105.893C182.336 106.35 182.169 106.911 182.163 107.574C182.158 108.222 182.43 108.95 182.979 109.757C183.387 110.365 183.789 110.837 184.185 111.173C184.583 111.494 184.976 111.791 185.365 112.065C185.77 112.327 186.179 112.618 186.592 112.941C187.005 113.263 187.424 113.723 187.848 114.318C188.207 114.83 188.491 115.401 188.7 116.03C188.911 116.644 189.024 117.262 189.038 117.882C189.068 118.489 188.998 119.062 188.826 119.599C188.671 120.123 188.407 120.55 188.034 120.881C187.676 121.214 187.206 121.413 186.625 121.477C186.046 121.526 185.347 121.38 184.529 121.037Z" fill="white"/>
</svg>
