<svg width="20" height="22" viewBox="0 0 20 22" fill="none" xmlns="http://www.w3.org/2000/svg">
<path d="M15.8012 12.8681V4.61146L15.3822 4.1921L11.6276 0.434194L11.1937 0H1.55294C0.695192 0 0 0.695799 0 1.5543V20.4452C0 21.3037 0.695192 22 1.55294 22H14.2482C14.3989 22 14.5452 21.9782 14.683 21.9382C14.9261 21.9792 15.1761 22 15.4306 22C17.9505 22 20 19.9482 20 17.4261C20 15.0292 18.1481 13.057 15.8012 12.8681ZM11.6276 1.48358L14.3342 4.1921H12.5466C12.0401 4.1921 11.6276 3.77917 11.6276 3.27228V1.48358ZM1.55294 21.2582C1.10529 21.2582 0.741143 20.8932 0.741143 20.4452V1.5543C0.741143 1.10626 1.10529 0.74179 1.55294 0.74179H10.8864V3.27228C10.8864 4.18963 11.63 4.93389 12.5466 4.93389H15.06V12.8681C12.7131 13.057 10.8612 15.0292 10.8612 17.4261C10.8612 19.0289 11.6888 20.4413 12.9389 21.2582H1.55294ZM15.5739 21.2552C15.5265 21.2572 15.4785 21.2582 15.4306 21.2582C15.1505 21.2582 14.8777 21.228 14.6144 21.1702C12.8939 20.7953 11.6024 19.2588 11.6024 17.4261C11.6024 15.4386 13.1222 13.7998 15.06 13.6123C15.1821 13.6005 15.3056 13.5945 15.4306 13.5945C15.5556 13.5945 15.6791 13.6005 15.8012 13.6123C17.739 13.7998 19.2589 15.4386 19.2589 17.4261C19.2589 19.4913 17.619 21.1801 15.5739 21.2552ZM13.6963 6.72704H8.69954C8.59035 6.72704 8.5019 6.63852 8.5019 6.52923C8.5019 6.41994 8.59035 6.33142 8.69954 6.33142H13.6963C13.8055 6.33142 13.894 6.41994 13.894 6.52923C13.894 6.63852 13.8055 6.72704 13.6963 6.72704ZM13.6963 8.63938H8.69954C8.59035 8.63938 8.5019 8.55086 8.5019 8.44157C8.5019 8.33228 8.59035 8.24376 8.69954 8.24376H13.6963C13.8055 8.24376 13.894 8.33228 13.894 8.44157C13.894 8.55086 13.8055 8.63938 13.6963 8.63938ZM10.3004 16.0508C10.2653 16.1809 10.2357 16.3125 10.211 16.4465H2.10485C1.99565 16.4465 1.90721 16.3579 1.90721 16.2487C1.90721 16.1394 1.99565 16.0508 2.10485 16.0508H10.3004ZM8.69262 19.0309H2.10485C1.99565 19.0309 1.90721 18.9423 1.90721 18.8331C1.90721 18.7238 1.99565 18.6352 2.10485 18.6352H8.69262C8.80182 18.6352 8.89026 18.7238 8.89026 18.8331C8.89026 18.9423 8.80182 19.0309 8.69262 19.0309ZM12.9848 10.2283H2.81634C2.31434 10.2283 1.90721 10.6358 1.90721 11.1382V13.5515C1.90721 14.0544 2.31434 14.4614 2.81634 14.4614H11.0248C11.1167 14.3249 11.215 14.1929 11.3192 14.0658H2.81634C2.53323 14.0658 2.30249 13.8354 2.30249 13.5515V11.1382C2.30249 10.8549 2.53323 10.6239 2.81634 10.6239H12.9848C13.2679 10.6239 13.4987 10.8549 13.4987 11.1382V12.4754C13.6277 12.4245 13.7596 12.3785 13.894 12.3379V11.1382C13.894 10.6358 13.4868 10.2283 12.9848 10.2283ZM6.18262 6.58957C5.9914 6.40956 5.66579 6.23796 5.20727 6.07476V4.70344C5.30214 4.7341 5.38614 4.77614 5.45926 4.82905C5.6154 4.9423 5.73645 5.15198 5.82292 5.45858C5.84317 5.53078 5.92816 5.5832 6.02747 5.5832C6.14704 5.5832 6.24191 5.50804 6.23598 5.41902C6.22956 5.31962 6.2261 5.22418 6.2261 5.13368C6.2261 5.03032 6.23203 4.85674 6.24389 4.61294C6.24734 4.54124 6.18459 4.47695 6.09269 4.45667C5.78388 4.38843 5.48841 4.34293 5.20727 4.31969V4.02693C5.20727 3.95868 5.1796 3.89687 5.13464 3.85236C5.09017 3.80736 5.02841 3.77967 4.96023 3.77967C4.82385 3.77967 4.71318 3.89044 4.71318 4.02693V4.30337C4.63511 4.30386 4.55951 4.30683 4.48589 4.31128V4.02693C4.48589 3.95868 4.45822 3.89687 4.41326 3.85236C4.36879 3.80736 4.30703 3.77967 4.23885 3.77967C4.10248 3.77967 3.9918 3.89044 3.9918 4.02693V4.37112C3.69238 4.42947 3.44236 4.52492 3.24226 4.65745C2.88404 4.89482 2.70468 5.19352 2.70468 5.55353C2.70468 5.79882 2.79955 6.01097 2.98928 6.19147C3.16518 6.36011 3.49918 6.53467 3.9918 6.71518V8.25958C3.80997 8.21755 3.65779 8.14139 3.53476 8.03062C3.40333 7.91391 3.29068 7.69434 3.1968 7.3724C3.17605 7.30069 3.09106 7.24877 2.99224 7.24877H2.98483C2.86921 7.24877 2.77583 7.3185 2.77583 7.40455V7.44609C2.77583 7.73983 2.75854 8.03803 2.72395 8.33969C2.71555 8.41338 2.77731 8.48212 2.87267 8.50338C3.08612 8.55086 3.26992 8.583 3.42408 8.60031C3.60542 8.62306 3.79465 8.6374 3.9918 8.64333V8.92274C3.9918 9.05923 4.10248 9.17 4.23885 9.17C4.37522 9.17 4.48589 9.05923 4.48589 8.92274V8.64235C4.56446 8.63938 4.64005 8.63493 4.71318 8.62899V8.92274C4.71318 9.05923 4.82385 9.17 4.96023 9.17C5.0966 9.17 5.20727 9.05923 5.20727 8.92274V8.55927C5.51954 8.49349 5.77005 8.39014 5.95929 8.24969C6.31602 7.98463 6.49489 7.67604 6.49489 7.32344C6.49489 7.03167 6.39063 6.78738 6.18262 6.58957ZM4.71318 4.63767V5.8997C4.62968 5.86756 4.55408 5.83739 4.48589 5.80772V4.65498C4.55606 4.64459 4.63165 4.63866 4.71318 4.63767ZM3.87914 5.195C3.87914 5.08027 3.9167 4.98038 3.99229 4.89433V5.49221C3.9167 5.40072 3.87914 5.30132 3.87914 5.195ZM4.48589 8.29272V6.89419C4.57285 6.92782 4.64895 6.95898 4.71318 6.98716V8.25711C4.64302 8.27491 4.56693 8.28678 4.48589 8.29272ZM5.20727 7.92083V7.36301C5.25668 7.44559 5.28139 7.53807 5.28139 7.63994C5.28139 7.74379 5.25668 7.83726 5.20727 7.92083ZM17.6244 17.8331L17.6372 17.843C17.7726 17.9469 17.8013 18.0908 17.7158 18.2371C17.5814 18.4651 17.4396 18.705 17.2943 18.9493C17.2039 19.1011 17.0675 19.1471 16.9 19.0813L16.8146 19.0482L16.8067 19.0452C16.6935 19.0012 16.5774 18.9562 16.4628 18.9102C16.4316 18.9285 16.4 18.9468 16.3694 18.9641C16.3635 18.9676 16.358 18.9705 16.3521 18.974C16.3126 18.9962 16.2716 19.019 16.2325 19.0427C16.2103 19.1812 16.1885 19.3271 16.1638 19.5021C16.147 19.6233 16.0789 19.7079 15.9677 19.7469C15.9667 19.7474 15.9657 19.7484 15.9647 19.7489C15.9642 19.7494 15.9632 19.7499 15.9627 19.7504C15.9489 19.7588 15.9336 19.7633 15.9173 19.7633H14.9429C14.9331 19.7633 14.9232 19.7618 14.9138 19.7583C14.7828 19.7113 14.7087 19.6169 14.6934 19.4779C14.683 19.3849 14.6687 19.2905 14.6544 19.199L14.6534 19.1921C14.6509 19.1763 14.6485 19.1599 14.646 19.1436C14.641 19.11 14.6356 19.0759 14.6307 19.0422C14.558 19.0042 14.4824 18.9611 14.3989 18.9112C14.2463 18.9725 14.0911 19.0328 13.9572 19.0848C13.7951 19.1476 13.6578 19.1011 13.5698 18.9537C13.4325 18.7238 13.2907 18.4844 13.1479 18.2421C13.0604 18.0932 13.0896 17.9474 13.2279 17.8415L13.3119 17.7777C13.4053 17.7065 13.5017 17.6323 13.5975 17.5611C13.5945 17.4726 13.5945 17.3831 13.5975 17.2961C13.5081 17.2288 13.4182 17.1606 13.3312 17.0938L13.2314 17.0176C13.0861 16.9069 13.0575 16.7664 13.1494 16.6107C13.2833 16.3842 13.4196 16.1537 13.5669 15.9064C13.6563 15.7561 13.7961 15.7091 13.9617 15.7729L14.0412 15.8036C14.1588 15.8491 14.2799 15.8966 14.3994 15.944C14.4824 15.8946 14.5585 15.8516 14.6307 15.813L14.6312 15.8085C14.6489 15.68 14.6677 15.5474 14.689 15.4164C14.6984 15.3605 14.7102 15.3007 14.7334 15.2423C14.767 15.1602 14.8421 15.1276 14.8975 15.1033L14.9083 15.0984C14.9192 15.0939 14.9311 15.091 14.9429 15.091H15.9173C15.9267 15.091 15.9361 15.0925 15.945 15.0954C16.0784 15.1409 16.154 15.2393 16.1698 15.3892C16.1792 15.4752 16.1925 15.5632 16.2058 15.6478C16.2068 15.6552 16.2083 15.6631 16.2093 15.6706C16.2162 15.717 16.2236 15.764 16.2301 15.8115C16.3111 15.8555 16.3892 15.8995 16.4623 15.943C16.6006 15.8877 16.739 15.8338 16.904 15.77C17.0661 15.7072 17.2039 15.7536 17.2914 15.901C17.4282 16.131 17.57 16.3703 17.7133 16.6126C17.8008 16.761 17.7716 16.9069 17.6328 17.0132L17.5542 17.073L17.5261 17.0943C17.4396 17.1601 17.3516 17.2278 17.2637 17.2936C17.2662 17.3955 17.2662 17.48 17.2637 17.5587C17.3867 17.6506 17.5122 17.7471 17.6244 17.8331ZM15.4281 18.2589H15.4341C15.9044 18.2559 16.2854 17.8816 16.2834 17.4237C16.2814 16.9652 15.8995 16.5933 15.4311 16.5933H15.4291C14.9592 16.5943 14.5773 16.9677 14.5768 17.4256C14.5768 17.6492 14.6662 17.8593 14.8293 18.0171C14.9899 18.1734 15.2028 18.2589 15.4281 18.2589Z" fill="white"/>
</svg>
