<svg width="23" height="26" viewBox="0 0 23 26" fill="none" xmlns="http://www.w3.org/2000/svg">
<path d="M11.0217 25.0399C8.62557 25.0299 6.50242 23.5287 5.71382 21.2869L5.41052 20.2861H16.6228L16.3195 21.2869C15.541 23.5187 13.4178 25.0299 11.0217 25.0399Z" fill="#FF8D29"/>
<path d="M6.472 21.8473H3.09518C1.43709 21.8973 0.06208 20.6063 0.0115287 18.965C-0.00869182 18.3345 0.173313 17.714 0.537282 17.2036C1.0529 16.443 1.60896 15.6223 2.13469 14.8117V14.8017C2.13469 13.6107 2.13469 12.3897 2.13469 11.2188C2.13469 10.4382 2.13469 9.65758 2.13469 8.87696C2.10436 5.06393 4.57128 1.67123 8.22108 0.480289C12.8718 -1.03091 17.8865 1.47108 19.4131 6.07473C19.5041 6.33494 19.5749 6.59515 19.6355 6.86536C19.7771 7.53589 19.8479 8.21643 19.858 8.89697C19.8782 10.1179 19.8681 11.3489 19.8681 12.5399C19.8681 13.2805 19.8681 14.0411 19.8681 14.7816C19.8681 14.7917 19.8681 14.8017 19.8782 14.8017C20.3938 15.5823 20.9094 16.3529 21.4453 17.1335C22.4159 18.4646 22.1025 20.3261 20.7578 21.2768C20.2118 21.6571 19.5648 21.8573 18.8975 21.8373L6.472 21.8473ZM11.0014 1.59117C10.233 1.59117 9.47475 1.71127 8.75692 1.95146C5.74407 2.93224 3.722 5.72445 3.74222 8.86695C3.74222 9.64757 3.74222 10.4282 3.74222 11.2088C3.74222 12.3897 3.74222 13.6107 3.74222 14.8117C3.74222 15.1119 3.65122 15.3921 3.48946 15.6423C2.94351 16.473 2.38747 17.2936 1.87184 18.0643C1.63931 18.3745 1.55841 18.7748 1.6393 19.1551C1.77073 19.8457 2.40767 20.3261 3.11538 20.276C5.006 20.276 6.88652 20.276 8.77713 20.276H18.9379C19.5041 20.3361 20.04 20.0358 20.3028 19.5354C20.5859 19.055 20.5354 18.4446 20.1815 18.0142C19.6457 17.2236 19.1199 16.453 18.5942 15.6523C18.4324 15.3921 18.3414 15.1019 18.3313 14.7917C18.3313 14.0411 18.3313 13.2704 18.3313 12.5299C18.3313 11.3389 18.3313 10.1079 18.3212 8.90698C18.3212 8.32652 18.2505 7.74606 18.1392 7.18561C17.6944 5.21405 16.4205 3.52271 14.6411 2.53192C13.5188 1.91143 12.2753 1.58116 11.0014 1.59117Z" fill="#334756"/>
</svg>
