<svg width="88" height="88" viewBox="0 0 88 88" fill="none" xmlns="http://www.w3.org/2000/svg">
<g clip-path="url(#clip0_11632_114)">
<rect y="43.8408" width="62" height="62" rx="10" transform="rotate(-45 0 43.8408)" fill="white"/>
<path d="M36.9289 6.07106C40.8342 2.16582 47.1658 2.16582 51.0711 6.07107L81.9289 36.9289C85.8342 40.8342 85.8342 47.1658 81.9289 51.0711L51.0711 81.9289C47.1658 85.8342 40.8342 85.8342 36.9289 81.9289L6.07106 51.0711C2.16582 47.1658 2.16582 40.8342 6.07107 36.9289L36.9289 6.07106Z" fill="#098C11"/>
<path d="M42.7749 45.35H48.6499V47.0062C48.6641 47.1303 48.7001 47.2509 48.7562 47.3625L49.8062 48.8687C49.8636 48.9516 49.9402 49.0192 50.0294 49.066C50.1187 49.1128 50.2179 49.1373 50.3187 49.1375C50.4194 49.1373 50.5187 49.1128 50.6079 49.066C50.6971 49.0192 50.7737 48.9516 50.8312 48.8687L51.3687 48.1L51.9062 48.8687C51.9636 48.9516 52.0402 49.0192 52.1294 49.066C52.2187 49.1128 52.3179 49.1373 52.4187 49.1375C52.5194 49.1373 52.6187 49.1128 52.7079 49.066C52.7971 49.0192 52.8737 48.9516 52.9312 48.8687L53.4687 48.1L54.0062 48.8687C54.0638 48.9512 54.1404 49.0187 54.2297 49.0652C54.3189 49.1117 54.418 49.136 54.5187 49.136C54.6193 49.136 54.7184 49.1117 54.8077 49.0652C54.8969 49.0187 54.9735 48.9512 55.0312 48.8687L55.5687 48.1L56.0999 48.8687C56.1573 48.9526 56.2343 49.0211 56.3241 49.0684C56.414 49.1158 56.514 49.1406 56.6155 49.1406C56.7171 49.1406 56.8171 49.1158 56.907 49.0684C56.9968 49.0211 57.0738 48.9526 57.1312 48.8687L57.6624 48.1L58.1999 48.8687C58.2573 48.9526 58.3343 49.0211 58.4241 49.0684C58.514 49.1158 58.614 49.1406 58.7155 49.1406C58.8171 49.1406 58.9171 49.1158 59.007 49.0684C59.0968 49.0211 59.1738 48.9526 59.2312 48.8687L59.7624 48.1L60.3062 48.875C60.3643 48.9566 60.4412 49.0231 60.5303 49.0688C60.6196 49.1145 60.7185 49.1381 60.8187 49.1375C60.9188 49.1381 61.0177 49.1145 61.1069 49.0688C61.1962 49.0231 61.273 48.9566 61.3312 48.875L62.3812 47.3625C62.4428 47.2527 62.4812 47.1315 62.4937 47.0062V28.6625C62.4937 27.9232 62.2 27.2142 61.6772 26.6914C61.1545 26.1687 60.4455 25.875 59.7062 25.875H47.1062C46.3668 25.875 45.6578 26.1687 45.1351 26.6914C44.6123 27.2142 44.3187 27.9232 44.3187 28.6625V36.5H40.6187C40.4529 36.5 40.2939 36.5659 40.1767 36.6831C40.0595 36.8002 39.9937 36.9592 39.9937 37.125V42.55C39.9937 43.2894 40.2861 43.9987 40.8071 44.5233C41.3282 45.0479 42.0355 45.3451 42.7749 45.35ZM61.2437 28.6625V46.7875L60.8187 47.4125L60.2749 46.6375C60.2168 46.5559 60.1399 46.4894 60.0507 46.4437C59.9615 46.398 59.8626 46.3744 59.7624 46.375C59.6617 46.3752 59.5624 46.3997 59.4732 46.4465C59.384 46.4933 59.3073 46.5609 59.2499 46.6437L58.7437 47.4187L58.2124 46.65C58.155 46.5662 58.078 46.4977 57.9882 46.4503C57.8983 46.4029 57.7983 46.3782 57.6968 46.3782C57.5952 46.3782 57.4952 46.4029 57.4053 46.4503C57.3155 46.4977 57.2385 46.5662 57.1812 46.65L56.6437 47.4187L56.1124 46.65C56.055 46.5672 55.9783 46.4995 55.8892 46.4527C55.7999 46.4059 55.7007 46.3814 55.5999 46.3812C55.4992 46.3814 55.3999 46.4059 55.3107 46.4527C55.2215 46.4995 55.1448 46.5672 55.0874 46.65L54.5499 47.4187L54.0124 46.65C53.9548 46.5675 53.8782 46.5001 53.7889 46.4536C53.6997 46.407 53.6005 46.3827 53.4999 46.3827C53.3993 46.3827 53.3002 46.407 53.2109 46.4536C53.1217 46.5001 53.045 46.5675 52.9874 46.65L52.4499 47.4187L51.8687 46.65C51.8112 46.5672 51.7346 46.4995 51.6454 46.4527C51.5562 46.4059 51.4569 46.3814 51.3562 46.3812C51.2554 46.3814 51.1562 46.4059 51.0669 46.4527C50.9777 46.4995 50.9011 46.5672 50.8437 46.65L50.3062 47.4187L49.8874 46.7937V28.6687C49.8912 28.1204 49.7324 27.5832 49.4312 27.125H59.7062C60.1139 27.125 60.505 27.287 60.7933 27.5753C61.0817 27.8637 61.2437 28.2547 61.2437 28.6625ZM46.0187 27.575C46.2345 27.3607 46.5088 27.215 46.8072 27.1561C47.1056 27.0972 47.4148 27.1278 47.6958 27.244C47.9769 27.3601 48.2174 27.5567 48.3872 27.8091C48.5569 28.0615 48.6483 28.3584 48.6499 28.6625V44.1H45.0999C45.4027 43.6422 45.5636 43.1051 45.5624 42.5562V28.6687C45.5616 28.4652 45.6016 28.2636 45.68 28.0757C45.7583 27.8879 45.8735 27.7176 46.0187 27.575ZM44.3124 42.575C44.3258 42.7856 44.2959 42.9967 44.2246 43.1952C44.1532 43.3938 44.0419 43.5756 43.8975 43.7295C43.7532 43.8834 43.5788 44.006 43.3852 44.0898C43.1915 44.1737 42.9828 44.2169 42.7718 44.2169C42.5608 44.2169 42.352 44.1737 42.1584 44.0898C41.9648 44.006 41.7904 43.8834 41.646 43.7295C41.5017 43.5756 41.3903 43.3938 41.319 43.1952C41.2477 42.9967 41.2177 42.7856 41.2312 42.575V37.75H44.3124V42.575Z" fill="white" stroke="white" stroke-width="0.8"/>
<path d="M55.8936 31.9059H55.2686C55.2159 31.9077 55.1645 31.8892 55.125 31.8544C55.0855 31.8195 55.0608 31.7709 55.0561 31.7184C55.0591 31.6694 55.079 31.623 55.1123 31.5871C55.1547 31.5474 55.2105 31.525 55.2686 31.5246H56.5186C56.6843 31.5246 56.8433 31.4587 56.9605 31.3415C57.0777 31.2244 57.1436 31.0654 57.1436 30.8996C57.1436 30.7339 57.0777 30.5749 56.9605 30.4577C56.8433 30.3405 56.6843 30.2746 56.5186 30.2746H56.2373V29.9746C56.2373 29.8088 56.1715 29.6499 56.0543 29.5327C55.9371 29.4155 55.7781 29.3496 55.6123 29.3496C55.4466 29.3496 55.2876 29.4155 55.1704 29.5327C55.0531 29.6499 54.9873 29.8088 54.9873 29.9746V30.3121C54.7123 30.3618 54.4591 30.4949 54.2623 30.6934C54.1237 30.8256 54.0134 30.9847 53.9382 31.1609C53.863 31.3371 53.8244 31.5268 53.8248 31.7184C53.8298 32.1024 53.9862 32.4689 54.2601 32.7382C54.5341 33.0074 54.9033 33.1575 55.2873 33.1559H55.9123C55.9386 33.1542 55.965 33.1577 55.9899 33.1662C56.0148 33.1747 56.0378 33.188 56.0575 33.2055C56.0773 33.2229 56.0934 33.244 56.1049 33.2677C56.1165 33.2914 56.1232 33.317 56.1248 33.3434C56.1248 33.3899 56.1069 33.4347 56.0748 33.4684C56.0299 33.508 55.9722 33.5302 55.9123 33.5309H54.6623C54.4966 33.5309 54.3376 33.5967 54.2204 33.7139C54.1031 33.8311 54.0373 33.9901 54.0373 34.1559C54.0373 34.3216 54.1031 34.4806 54.2204 34.5978C54.3376 34.715 54.4966 34.7809 54.6623 34.7809H54.9436V35.0871C54.9436 35.2529 55.0094 35.4119 55.1266 35.529C55.2438 35.6462 55.4028 35.7121 55.5686 35.7121C55.7343 35.7121 55.8933 35.6462 56.0105 35.529C56.1277 35.4119 56.1936 35.2529 56.1936 35.0871V34.7496C56.468 34.693 56.7213 34.561 56.9248 34.3684C57.1298 34.1669 57.2696 33.9087 57.3264 33.6269C57.3831 33.3452 57.3541 33.053 57.2431 32.7879C57.1321 32.5228 56.9441 32.2971 56.7036 32.1399C56.4631 31.9827 56.1809 31.9012 55.8936 31.9059Z" fill="white"/>
<path d="M55.5686 28.0371C54.6796 28.0359 53.8101 28.2984 53.0703 28.7914C52.3305 29.2844 51.7536 29.9858 51.4125 30.8068C51.0714 31.6278 50.9815 32.5316 51.1542 33.4037C51.3269 34.2758 51.7544 35.0771 52.3826 35.7062C53.0108 36.3353 53.8115 36.7639 54.6834 36.9378C55.5553 37.1117 56.4591 37.0231 57.2806 36.6832C58.1021 36.3432 58.8043 35.7672 59.2983 35.0281C59.7924 34.289 60.0561 33.4199 60.0561 32.5308C60.0544 31.3407 59.5813 30.1995 58.7403 29.3573C57.8993 28.5151 56.7588 28.0404 55.5686 28.0371ZM55.5686 35.7683C54.9265 35.7696 54.2985 35.5802 53.7641 35.2243C53.2298 34.8683 52.813 34.3618 52.5668 33.7688C52.3204 33.1758 52.2557 32.5232 52.3806 31.8933C52.5056 31.2635 52.8147 30.685 53.2687 30.2309C53.7227 29.7769 54.3013 29.4679 54.9311 29.3429C55.5609 29.2179 56.2136 29.2827 56.8066 29.529C57.3996 29.7753 57.9061 30.192 58.2621 30.7264C58.618 31.2608 58.8073 31.8888 58.8061 32.5308C58.8044 33.389 58.4628 34.2115 57.8561 34.8183C57.2493 35.4251 56.4268 35.7667 55.5686 35.7683Z" fill="white"/>
<path d="M51.2437 39.6748H55.1749C55.3407 39.6748 55.4997 39.609 55.6168 39.4917C55.734 39.3746 55.7999 39.2156 55.7999 39.0498C55.7999 38.8841 55.734 38.7251 55.6168 38.6079C55.4997 38.4907 55.3407 38.4248 55.1749 38.4248H51.2437C51.0779 38.4248 50.9189 38.4907 50.8017 38.6079C50.6845 38.7251 50.6187 38.8841 50.6187 39.0498C50.6187 39.2156 50.6845 39.3746 50.8017 39.4917C50.9189 39.609 51.0779 39.6748 51.2437 39.6748Z" fill="white"/>
<path d="M59.0999 40.2998H51.2437C51.0779 40.2998 50.9189 40.3657 50.8017 40.4829C50.6845 40.6001 50.6187 40.7591 50.6187 40.9248C50.6187 41.0906 50.6845 41.2496 50.8017 41.3667C50.9189 41.484 51.0779 41.5498 51.2437 41.5498H59.0999C59.2657 41.5498 59.4247 41.484 59.5418 41.3667C59.659 41.2496 59.7249 41.0906 59.7249 40.9248C59.7249 40.7591 59.659 40.6001 59.5418 40.4829C59.4247 40.3657 59.2657 40.2998 59.0999 40.2998Z" fill="white"/>
<path d="M59.0999 42.1748H51.2437C51.0779 42.1748 50.9189 42.2407 50.8017 42.3579C50.6845 42.4751 50.6187 42.6341 50.6187 42.7998C50.6187 42.9656 50.6845 43.1246 50.8017 43.2417C50.9189 43.359 51.0779 43.4248 51.2437 43.4248H59.0999C59.2657 43.4248 59.4247 43.359 59.5418 43.2417C59.659 43.1246 59.7249 42.9656 59.7249 42.7998C59.7249 42.6341 59.659 42.4751 59.5418 42.3579C59.4247 42.2407 59.2657 42.1748 59.0999 42.1748Z" fill="white"/>
<path d="M59.0999 44.0439H51.2437C51.0779 44.0439 50.9189 44.1098 50.8017 44.227C50.6845 44.3442 50.6187 44.5032 50.6187 44.6689C50.6187 44.8347 50.6845 44.9937 50.8017 45.1109C50.9189 45.2281 51.0779 45.2939 51.2437 45.2939H59.0999C59.2657 45.2939 59.4247 45.2281 59.5418 45.1109C59.659 44.9937 59.7249 44.8347 59.7249 44.6689C59.7249 44.5032 59.659 44.3442 59.5418 44.227C59.4247 44.1098 59.2657 44.0439 59.0999 44.0439Z" fill="white"/>
<path d="M62.2874 52.1691C62.1508 51.8261 61.9473 51.5138 61.6888 51.2502C61.4303 50.9866 61.1218 50.7772 60.7815 50.6341C60.4412 50.491 60.0758 50.4171 59.7066 50.4166C59.3374 50.4163 58.9718 50.4893 58.6312 50.6316L50.6749 53.4316C50.7022 53.2748 50.7168 53.1159 50.7187 52.9566C50.7187 52.2472 50.4368 51.5668 49.9352 51.0651C49.4335 50.5635 48.7531 50.2816 48.0437 50.2816H45.9812C44.149 50.2878 42.3429 49.848 40.7187 49.0004C38.918 48.0481 36.9118 47.5504 34.8749 47.5504H31.7499V45.3066C31.7499 45.1409 31.684 44.982 31.5668 44.8647C31.4497 44.7475 31.2907 44.6816 31.1249 44.6816H26.8687C26.7029 44.6816 26.5439 44.7475 26.4267 44.8647C26.3095 44.982 26.2437 45.1409 26.2437 45.3066V60.6191C26.2437 60.7849 26.3095 60.9439 26.4267 61.0611C26.5439 61.1783 26.7029 61.2441 26.8687 61.2441H31.1249C31.2907 61.2441 31.4497 61.1783 31.5668 61.0611C31.684 60.9439 31.7499 60.7849 31.7499 60.6191V59.2129C32.8718 59.2645 33.9808 59.4749 35.0437 59.8379L38.2562 60.9691C39.9017 61.5533 41.635 61.8514 43.3812 61.8504H44.0062C45.8773 61.7657 47.7175 61.3422 49.4374 60.6004L60.9562 55.6754C61.5755 55.3624 62.0554 54.8291 62.3017 54.1805C62.548 53.5317 62.5429 52.8143 62.2874 52.1691ZM30.4999 59.9941H27.4937V45.9316H30.4999V59.9941ZM60.4499 54.5754L48.9687 59.4754C45.6987 60.8738 42.0231 60.9942 38.6687 59.8129L35.4562 58.6754C34.2613 58.2615 33.0131 58.0216 31.7499 57.9629V48.7754H34.8749C36.7067 48.7743 38.511 49.2206 40.1312 50.0754C41.9332 51.0308 43.9415 51.5308 45.9812 51.5316H48.0437C48.2313 51.5316 48.4172 51.5687 48.5904 51.6407C48.7637 51.7127 48.9211 51.8183 49.0535 51.9513C49.1859 52.0842 49.2907 52.2421 49.362 52.4156C49.4332 52.5893 49.4695 52.7753 49.4687 52.9629C49.4689 53.1662 49.4248 53.3671 49.3396 53.5517C49.2543 53.7363 49.1298 53.9001 48.9749 54.0316L47.9249 54.4004H41.1062C40.9404 54.4004 40.7814 54.4663 40.6642 54.5835C40.547 54.7007 40.4812 54.8596 40.4812 55.0254C40.4812 55.1911 40.547 55.3501 40.6642 55.4673C40.7814 55.5846 40.9404 55.6504 41.1062 55.6504H48.0437C48.2249 55.6504 59.0874 51.7941 59.0874 51.7941C59.4716 51.6351 59.9032 51.6351 60.2874 51.7941C60.5568 51.9065 60.7891 52.0922 60.9579 52.3302C61.1268 52.5682 61.2253 52.8489 61.2422 53.1402C61.2592 53.4315 61.1938 53.7218 61.0538 53.9778C60.9137 54.2337 60.7044 54.4451 60.4499 54.5879V54.5754Z" fill="white" stroke="white"/>
</g>
<defs>
<clipPath id="clip0_11632_114">
<rect y="43.8408" width="62" height="62" rx="10" transform="rotate(-45 0 43.8408)" fill="white"/>
</clipPath>
</defs>
</svg>
