<svg width="31" height="32" viewBox="0 0 31 32" fill="none" xmlns="http://www.w3.org/2000/svg">
<path fill-rule="evenodd" clip-rule="evenodd" d="M22.0848 1.12421L22.1811 1.15046C23.7853 1.58067 25.0555 1.92046 26.0544 2.28213C27.0767 2.65109 27.9109 3.07255 28.5978 3.71567C29.5974 4.65269 30.2968 5.86512 30.6073 7.19963C30.8217 8.11546 30.7707 9.04879 30.5782 10.1178C30.393 11.1648 30.0532 12.435 29.623 14.0378L28.8413 16.953C28.4125 18.5557 28.0713 19.8259 27.7111 20.8248C27.3407 21.8471 26.9192 22.6813 26.2761 23.3682C25.3697 24.336 24.2045 25.0234 22.919 25.3486C22.5423 26.2121 21.9935 26.9897 21.3061 27.6338C20.6192 28.2769 19.785 28.6984 18.7628 29.0688C17.7638 29.4305 16.4936 29.7703 14.8909 30.2005L14.7932 30.2267C13.189 30.6555 11.9203 30.9953 10.8732 31.1834C9.80421 31.3744 8.87088 31.4255 7.95359 31.2125C6.61926 30.9009 5.40733 30.2005 4.47109 29.2C3.82942 28.5146 3.4065 27.6805 3.03609 26.6582C2.67588 25.6592 2.33609 24.389 1.90588 22.7848L1.12421 19.8711C0.695462 18.2669 0.354213 16.9982 0.167546 15.9511C-0.0234957 14.8821 -0.0745374 13.9488 0.138379 13.0315C0.450013 11.6972 1.15038 10.4852 2.15088 9.549C2.8363 8.90734 3.67046 8.48442 4.69275 8.114C5.69171 7.7538 6.96192 7.414 8.56463 6.98379L8.61421 6.96921L9.70942 6.67754C10.2811 4.63734 10.7828 3.19505 11.7628 2.14942C12.6992 1.14945 13.9111 0.449609 15.2453 0.138379C16.1625 -0.0745374 17.0944 -0.0234957 18.1648 0.167546C19.2105 0.354213 20.4807 0.695462 22.0848 1.12421ZM9.04879 9.11879C7.45484 9.54609 6.31296 9.85525 5.43505 10.1717C4.54546 10.4925 4.02484 10.79 3.64567 11.1459C2.9612 11.7865 2.48211 12.6158 2.269 13.5288C2.15234 14.0363 2.1538 14.6371 2.3215 15.5661C2.48921 16.5096 2.80567 17.6909 3.25046 19.3534L4.00588 22.1709C4.45067 23.8334 4.76859 25.0146 5.0938 25.9144C5.41463 26.804 5.71213 27.3261 6.06796 27.7053C6.70863 28.3897 7.5379 28.8688 8.45088 29.0819C8.95692 29.1986 9.55921 29.1957 10.4882 29.0294C11.4317 28.8617 12.613 28.5452 14.2755 28.1005C15.938 27.6542 17.1192 27.3378 18.0205 27.0111C18.9086 26.6903 19.4307 26.3928 19.8098 26.0384C20.0111 25.8488 20.1934 25.6446 20.3582 25.4273C20.0876 25.3887 19.8182 25.3425 19.5503 25.2888C18.5703 25.0934 17.3919 24.7784 15.9409 24.389L15.8563 24.3671C14.2536 23.9369 12.9834 23.5971 11.9844 23.2355C10.9621 22.8665 10.128 22.445 9.44109 21.8019C8.44087 20.8651 7.74101 19.6526 7.43005 18.318C7.21713 17.4021 7.26817 16.4688 7.45921 15.3984C7.64588 14.3528 7.98713 13.0825 8.41588 11.4798L9.04879 9.11879ZM17.7798 2.3215C16.8494 2.1538 16.2486 2.15088 15.7425 2.269C14.8296 2.48211 14.0003 2.9612 13.3596 3.64567C12.7238 4.3238 12.3315 5.3738 11.6519 7.86463C11.5411 8.27005 11.4244 8.70609 11.2975 9.18004L10.5421 11.9975C10.0973 13.66 9.78088 14.8413 9.61317 15.7848C9.44546 16.7138 9.44254 17.3161 9.56067 17.8221C9.77378 18.7351 10.2529 19.5644 10.9373 20.205C11.3165 20.5609 11.8386 20.8569 12.7267 21.1792C13.628 21.5044 14.8092 21.8209 16.4717 22.2671C17.9665 22.6682 19.0748 22.9642 19.9761 23.1421C20.873 23.3215 21.4825 23.3653 21.9813 23.304C22.0907 23.2894 22.1942 23.2719 22.2963 23.2486C23.2093 23.0355 24.0385 22.5564 24.6792 21.8719C25.035 21.4928 25.3325 20.9707 25.6534 20.0825C25.9786 19.1813 26.295 18 26.7413 16.3375L27.4967 13.52C27.9415 11.8575 28.258 10.6763 28.4257 9.73275C28.5919 8.80379 28.5963 8.2015 28.4782 7.69546C28.2651 6.78248 27.786 5.95321 27.1015 5.31255C26.7223 4.95671 26.2003 4.66067 25.3121 4.33838C24.4094 4.01317 23.2296 3.69671 21.5671 3.25046C19.9046 2.80567 18.7234 2.48921 17.7798 2.3215ZM14.2944 12.4773C14.3316 12.3386 14.3958 12.2085 14.4833 12.0945C14.5708 11.9806 14.6799 11.885 14.8044 11.8132C14.9289 11.7415 15.0662 11.6949 15.2087 11.6762C15.3511 11.6576 15.4959 11.6671 15.6346 11.7044L22.6784 13.5915C22.9508 13.6734 23.1806 13.8582 23.319 14.1068C23.4574 14.3553 23.4935 14.648 23.4197 14.9227C23.3459 15.1974 23.168 15.4326 22.9237 15.5783C22.6794 15.724 22.3879 15.7688 22.1111 15.7032L15.0673 13.8161C14.7874 13.7409 14.5488 13.5577 14.4039 13.3066C14.2589 13.0556 14.2196 12.7574 14.2944 12.4773ZM13.1613 16.7036C13.1985 16.5647 13.2628 16.4344 13.3504 16.3204C13.438 16.2063 13.5472 16.1107 13.6718 16.0389C13.7964 15.9671 13.934 15.9206 14.0766 15.902C14.2192 15.8834 14.3641 15.8932 14.503 15.9307L18.7278 17.0623C19.008 17.1374 19.2469 17.3206 19.392 17.5718C19.5371 17.823 19.5764 18.1216 19.5014 18.4018C19.4264 18.682 19.2431 18.921 18.9919 19.0661C18.7407 19.2111 18.4421 19.2505 18.1619 19.1755L13.9357 18.0423C13.6557 17.9671 13.4171 17.7839 13.2722 17.5329C13.1273 17.2819 13.0879 16.9836 13.1628 16.7036H13.1613Z" fill="white"/>
</svg>
