<svg width="42" height="42" viewBox="0 0 42 42" fill="none" xmlns="http://www.w3.org/2000/svg">
<g filter="url(#filter0_d_3259_226)">
<path d="M21 34C29.2843 34 36 27.2843 36 19C36 10.7157 29.2843 4 21 4C12.7157 4 6 10.7157 6 19C6 27.2843 12.7157 34 21 34Z" fill="white"/>
<path d="M35.5 19C35.5 27.0081 29.0081 33.5 21 33.5C12.9919 33.5 6.5 27.0081 6.5 19C6.5 10.9919 12.9919 4.5 21 4.5C29.0081 4.5 35.5 10.9919 35.5 19Z" stroke="#A1A1A1" stroke-opacity="0.3"/>
</g>
<path d="M19.392 21.928V26H17.24V14.432H21.008C21.7813 14.432 22.4507 14.5227 23.016 14.704C23.5813 14.8853 24.048 15.1387 24.416 15.464C24.784 15.7893 25.056 16.1787 25.232 16.632C25.408 17.0853 25.496 17.5813 25.496 18.12C25.496 18.68 25.4027 19.1947 25.216 19.664C25.0293 20.128 24.7493 20.528 24.376 20.864C24.0027 21.2 23.536 21.4613 22.976 21.648C22.416 21.8347 21.76 21.928 21.008 21.928H19.392ZM19.392 20.248H21.008C21.4027 20.248 21.7467 20.2 22.04 20.104C22.3333 20.0027 22.576 19.8613 22.768 19.68C22.96 19.4933 23.104 19.2693 23.2 19.008C23.296 18.7413 23.344 18.4453 23.344 18.12C23.344 17.8107 23.296 17.5307 23.2 17.28C23.104 17.0293 22.96 16.816 22.768 16.64C22.576 16.464 22.3333 16.3307 22.04 16.24C21.7467 16.144 21.4027 16.096 21.008 16.096H19.392V20.248Z" fill="#A1A1A1"/>
<defs>
<filter id="filter0_d_3259_226" x="0" y="0" width="42" height="42" filterUnits="userSpaceOnUse" color-interpolation-filters="sRGB">
<feFlood flood-opacity="0" result="BackgroundImageFix"/>
<feColorMatrix in="SourceAlpha" type="matrix" values="0 0 0 0 0 0 0 0 0 0 0 0 0 0 0 0 0 0 127 0" result="hardAlpha"/>
<feOffset dy="2"/>
<feGaussianBlur stdDeviation="3"/>
<feComposite in2="hardAlpha" operator="out"/>
<feColorMatrix type="matrix" values="0 0 0 0 0.0666667 0 0 0 0 0.0901961 0 0 0 0 0.101961 0 0 0 0.22 0"/>
<feBlend mode="normal" in2="BackgroundImageFix" result="effect1_dropShadow_3259_226"/>
<feBlend mode="normal" in="SourceGraphic" in2="effect1_dropShadow_3259_226" result="shape"/>
</filter>
</defs>
</svg>
