<svg width="110" height="110" viewBox="0 0 110 110" fill="none" xmlns="http://www.w3.org/2000/svg">
<circle cx="55" cy="55" r="45" fill="#D1F3E0"/>
<circle cx="55" cy="55" r="52.5" stroke="#15931D" stroke-width="5"/>
<path d="M50.224 30C55.1508 32.2851 59.9866 34.7568 64.872 37.1269C65.0457 37.2098 65.2173 37.3156 65.3579 37.442C65.6866 37.7386 65.6804 38.1636 65.3558 38.4622C65.2607 38.5493 65.1532 38.6468 65.0353 38.6779C64.2952 38.8749 64.1877 39.3788 64.227 40.0693C64.2869 41.1392 64.2456 42.2154 64.2414 43.2895C64.2414 43.4906 64.2807 43.6379 64.444 43.7955C64.8637 44.1977 64.8844 44.7306 64.5123 45.193C64.382 45.3527 64.3655 45.4792 64.4027 45.672C64.5784 46.5637 64.7128 47.4636 64.903 48.3532C64.9961 48.7845 64.8513 48.998 64.4482 49.0934C63.952 49.2095 63.4558 49.2448 62.9555 49.1307C62.573 49.0437 62.4283 48.8322 62.5089 48.4257C62.6929 47.5196 62.8397 46.6051 63.0216 45.6969C63.063 45.4854 63.0423 45.3486 62.8997 45.1744C62.5296 44.7161 62.5689 44.2143 62.9968 43.7789C63.1209 43.6524 63.1829 43.5404 63.1808 43.3642C63.1746 42.1449 63.1767 40.9236 63.1767 39.7105C63.0154 39.6172 62.9162 39.7437 62.8128 39.7935C61.9217 40.2185 61.0389 40.6581 60.1478 41.0812C59.939 41.1807 59.8109 41.2802 59.8129 41.5436C59.8274 43.1112 59.5586 44.6498 59.2899 46.1884C59.2485 46.4185 59.2547 46.6114 59.4656 46.7897C59.755 47.0364 59.9225 47.3807 59.9907 47.758C60.1975 48.9089 60.0527 50.0203 59.5669 51.082C59.3974 51.4511 59.0852 51.6999 58.7234 51.8575C58.1672 52.1001 57.9005 52.519 57.7599 53.1016C56.966 56.3965 54.0488 59.0611 50.7037 59.5173C48.7747 59.7806 47.0484 59.1772 45.5123 58.0305C43.757 56.7179 42.4937 55.057 42.041 52.857C41.9521 52.4298 41.6998 52.1229 41.3029 51.9508C40.5338 51.617 40.1348 51.0094 39.9838 50.209C39.8577 49.5392 39.7295 48.8674 39.7998 48.179C39.8536 47.6461 40.0087 47.1484 40.4097 46.7835C40.5999 46.6114 40.6206 46.4455 40.5834 46.2278C40.3167 44.6746 40.0355 43.1195 40.0562 41.5353C40.0603 41.2304 39.8701 41.1558 39.6675 41.0563C38.1273 40.3015 36.587 39.5467 35.0488 38.7878C34.8751 38.7028 34.6973 38.6136 34.5485 38.4933C34.1619 38.1782 34.1557 37.7303 34.5443 37.413C34.7304 37.2616 34.9496 37.1455 35.1666 37.0398C39.6675 34.8273 44.1705 32.6189 48.6755 30.4147C48.9897 30.2613 49.3185 30.1369 49.641 30H50.2261H50.224ZM79.9769 54.6983C78.5297 54.2753 77.0142 55.1088 76.5925 56.5624L72.8834 69.3315C72.7367 69.8395 72.2735 70.1878 71.7463 70.1878H71.5789C71.1695 70.1878 70.7994 69.9494 70.6299 69.5761C70.5162 69.3252 70.3549 69.0909 70.1503 68.869C68.9573 67.5751 67.4584 66.7333 65.8871 66.0345C63.0216 64.7572 60.0693 63.6768 57.3857 62.0138C56.6166 61.539 56.1886 61.6738 55.7772 62.4825C54.8944 64.2139 54.0488 65.9661 53.1577 67.6954C52.5044 68.9644 51.8594 70.25 50.8318 71.2702C50.1889 71.911 49.6906 71.8965 49.029 71.2682C48.3488 70.6233 47.8836 69.8187 47.4247 69.0163C46.2152 66.9054 45.2848 64.6493 44.1146 62.5177C43.6474 61.6634 43.2711 61.5431 42.4338 62.0346C40.2361 63.3223 37.9536 64.4192 35.5739 65.3315C33.7277 66.0386 31.96 66.9261 30.4115 68.1951C29.4997 68.9375 28.9684 69.8022 29.0015 71.0733C29.08 73.8705 29.0366 76.6698 29.0159 79.4691C29.0118 79.8942 29.109 80.002 29.5411 80C30.7381 79.9979 31.9352 79.9958 33.1343 79.9958L34.2528 75.7429L35.2535 79.9917C40.1472 79.9875 45.0409 79.9896 49.9346 79.9896C55.8579 79.9896 61.7791 79.9896 67.7024 79.9958L68.4963 76.9726C68.6865 76.2468 69.3419 75.7429 70.0882 75.7429H73.4003C75.3561 75.7429 77.0783 74.447 77.6262 72.5642L81.8314 58.0927C82.2532 56.6412 81.4221 55.1213 79.9749 54.6983H79.9769Z" fill="#15931D"/>
</svg>
