<svg width="24" height="20" viewBox="0 0 24 20" fill="none" xmlns="http://www.w3.org/2000/svg">
<path fill-rule="evenodd" clip-rule="evenodd" d="M7.71429 0C7.0323 0 6.37825 0.263392 5.89601 0.732233C5.41377 1.20107 5.14286 1.83696 5.14286 2.5V3.33333H3.42857C2.51926 3.33333 1.64719 3.68452 1.00421 4.30964C0.361223 4.93476 0 5.78261 0 6.66667V14.1667C0 14.8297 0.270918 15.4656 0.753154 15.9344C1.23539 16.4033 1.88944 16.6667 2.57143 16.6667H5.14286V17.5C5.14286 18.163 5.41377 18.7989 5.89601 19.2678C6.37825 19.7366 7.0323 20 7.71429 20H16.4571C17.1391 20 17.7932 19.7366 18.2754 19.2678C18.7577 18.7989 19.0286 18.163 19.0286 17.5V16.6667H21.4286C22.1106 16.6667 22.7646 16.4033 23.2468 15.9344C23.7291 15.4656 24 14.8297 24 14.1667V6.66667C24 5.78261 23.6388 4.93476 22.9958 4.30964C22.3528 3.68452 21.4807 3.33333 20.5714 3.33333H18.8571V2.5C18.8571 1.83696 18.5862 1.20107 18.104 0.732233C17.6218 0.263392 16.9677 0 16.2857 0H7.71429ZM17.1429 2.5C17.1429 2.96024 16.7698 3.33333 16.3095 3.33333H7.69048C7.23024 3.33333 6.85714 2.96024 6.85714 2.5C6.85714 2.27899 6.94745 2.06702 7.10819 1.91074C7.26894 1.75446 7.48696 1.66667 7.71429 1.66667H16.2857C16.513 1.66667 16.7311 1.75446 16.8918 1.91074C17.0526 2.06702 17.1429 2.27899 17.1429 2.5ZM7.71429 13.3333H16.4571C16.6845 13.3333 16.9025 13.4211 17.0632 13.5774C17.224 13.7337 17.3143 13.9457 17.3143 14.1667V17.5C17.3143 17.721 17.224 17.933 17.0632 18.0893C16.9025 18.2455 16.6845 18.3333 16.4571 18.3333H7.71429C7.48696 18.3333 7.26894 18.2455 7.10819 18.0893C6.94745 17.933 6.85714 17.721 6.85714 17.5V14.1667C6.85714 13.9457 6.94745 13.7337 7.10819 13.5774C7.26894 13.4211 7.48696 13.3333 7.71429 13.3333ZM7 6.5C7 6.22386 7.22386 6 7.5 6H16.5C16.7761 6 17 6.22386 17 6.5C17 6.77614 16.7761 7 16.5 7H7.5C7.22386 7 7 6.77614 7 6.5ZM7.5 10C7.22386 10 7 10.2239 7 10.5C7 10.7761 7.22386 11 7.5 11H16.5C16.7761 11 17 10.7761 17 10.5C17 10.2239 16.7761 10 16.5 10H7.5Z" fill="white"/>
</svg>
