<svg width="21" height="19" viewBox="0 0 21 19" fill="none" xmlns="http://www.w3.org/2000/svg">
<path d="M14.5833 5.20833V2.08333H6.25V5.20833H4.16667V0H16.6667V5.20833H14.5833ZM16.6667 9.89583C16.9618 9.89583 17.2094 9.79583 17.4094 9.59583C17.6094 9.39583 17.709 9.14861 17.7083 8.85417C17.7083 8.55903 17.6083 8.31146 17.4083 8.11146C17.2083 7.91146 16.9611 7.81181 16.6667 7.8125C16.3715 7.8125 16.124 7.9125 15.924 8.1125C15.724 8.3125 15.6243 8.55972 15.625 8.85417C15.625 9.14931 15.725 9.39688 15.925 9.59688C16.125 9.79688 16.3722 9.89653 16.6667 9.89583ZM14.5833 16.6667V12.5H6.25V16.6667H14.5833ZM16.6667 18.75H4.16667V14.5833H0V8.33333C0 7.44792 0.303819 6.70556 0.911458 6.10625C1.5191 5.50694 2.25694 5.20764 3.125 5.20833H17.7083C18.5938 5.20833 19.3361 5.50799 19.9354 6.10729C20.5347 6.7066 20.834 7.44861 20.8333 8.33333V14.5833H16.6667V18.75ZM18.75 12.5V8.33333C18.75 8.03819 18.65 7.79062 18.45 7.59062C18.25 7.39062 18.0028 7.29097 17.7083 7.29167H3.125C2.82986 7.29167 2.58229 7.39167 2.38229 7.59167C2.18229 7.79167 2.08264 8.03889 2.08333 8.33333V12.5H4.16667V10.4167H16.6667V12.5H18.75Z" fill="#334756"/>
</svg>
