<svg width="29" height="30" viewBox="0 0 29 30" fill="none" xmlns="http://www.w3.org/2000/svg">
<path fill-rule="evenodd" clip-rule="evenodd" d="M21.9601 26.4607V17.7556H18.0419C16.3791 18.0532 14.7187 18.9554 13.0559 20.0015H10.0135C8.6338 20.0831 7.91398 21.4795 9.25045 22.4009C10.3206 23.1831 11.7266 23.1399 13.1711 23.0104C14.1668 22.96 14.21 24.2988 13.1711 24.3036C12.8112 24.3324 12.4177 24.2461 12.077 24.2461C10.275 24.2461 8.78976 23.9005 7.88039 22.4777L7.4245 21.4123L2.89681 19.1545C0.629367 18.4083 -0.980638 20.7789 0.689352 22.4273C3.84507 24.7327 7.2206 26.7211 10.7669 28.3634C13.2647 29.8823 15.7648 29.8319 18.2626 28.3634L21.9529 26.4607H21.9601ZM5.50017 1.87634H4.90272C4.80718 1.87475 4.71229 1.89219 4.62357 1.92765C4.53484 1.96311 4.45407 2.01588 4.38595 2.08289C4.31783 2.14989 4.26374 2.22978 4.22681 2.3179C4.18989 2.40603 4.17088 2.50062 4.1709 2.59617V16.2272C4.17034 16.3231 4.18895 16.4181 4.22562 16.5067C4.26229 16.5953 4.31629 16.6757 4.38444 16.7431C4.45196 16.812 4.53263 16.8666 4.62166 16.9037C4.71069 16.9408 4.80627 16.9596 4.90272 16.959H14.9323C15.1262 16.9584 15.3119 16.8811 15.449 16.744C15.5861 16.6069 15.6634 16.4211 15.6641 16.2272V15.553H14.8459V16.1408H4.9891V2.68974H5.50017V1.87634ZM8.82815 12.4769H15.9928V11.7955H8.82815V12.4769ZM8.82815 10.3751H15.9928V9.69362H8.82815V10.3799V10.3751ZM8.82815 4.0742H11.2276V3.39277H8.82815V4.079V4.0742ZM8.82815 6.17369H12.2161V5.49226H8.82815V6.17849V6.17369ZM8.82815 8.27317H16.0768V7.59174H8.82815V8.27797V8.27317ZM14.2676 1.55482L16.9334 4.36453H14.2676V1.55962V1.55482ZM18.4162 4.72204C18.4159 4.62506 18.3841 4.5308 18.3257 4.45337C18.2673 4.37594 18.1854 4.31952 18.0923 4.29255L14.1572 0.163164C14.1168 0.11338 14.0661 0.0729957 14.0085 0.0448189C13.9509 0.0166422 13.8878 0.00134929 13.8237 3.66883e-06H7.27573C7.17083 -0.000315179 7.0669 0.0201516 6.96995 0.0602221C6.87301 0.100293 6.78496 0.159173 6.71089 0.233462C6.63682 0.307752 6.57821 0.395979 6.53843 0.493048C6.49865 0.590118 6.4785 0.694106 6.47913 0.799007V13.9166C6.4785 14.0215 6.49865 14.1255 6.53843 14.2225C6.57821 14.3196 6.63682 14.4078 6.71089 14.4821C6.78496 14.5564 6.87301 14.6153 6.96995 14.6554C7.0669 14.6954 7.17083 14.7159 7.27573 14.7156H17.6196C17.7245 14.7159 17.8284 14.6954 17.9254 14.6554C18.0223 14.6153 18.1104 14.5564 18.1844 14.4821C18.2585 14.4078 18.3171 14.3196 18.3569 14.2225C18.3967 14.1255 18.4168 14.0215 18.4162 13.9166V4.72204ZM17.5164 5.25471V13.8134H7.36931V0.887786H13.3678V4.79883C13.3685 4.91741 13.416 5.03092 13.5001 5.11455C13.5842 5.19817 13.6979 5.24512 13.8165 5.24512L17.5164 5.25471ZM28.9904 16.9087H23.1406V27.3365H29V16.9087H28.9904Z" fill="white"/>
</svg>
