<svg width="29" height="30" viewBox="0 0 29 30" fill="none" xmlns="http://www.w3.org/2000/svg">
<path d="M19.1032 13.0535C19.1032 12.2094 18.8529 11.3843 18.3839 10.6824C17.9149 9.98057 17.2484 9.43355 16.4685 9.11052C15.6887 8.78749 14.8305 8.70298 14.0026 8.86765C13.1748 9.03233 12.4143 9.43881 11.8174 10.0357C11.2205 10.6326 10.8141 11.393 10.6494 12.2209C10.4847 13.0488 10.5692 13.9069 10.8923 14.6868C11.2153 15.4666 11.7623 16.1332 12.4642 16.6022C13.166 17.0711 13.9912 17.3214 14.8353 17.3214C15.9668 17.3202 17.0517 16.8702 17.8518 16.0701C18.6519 15.2699 19.102 14.1851 19.1032 13.0535ZM14.8353 16.2956C14.194 16.2956 13.5672 16.1055 13.0341 15.7492C12.5009 15.393 12.0853 14.8866 11.84 14.2942C11.5946 13.7018 11.5304 13.0499 11.6555 12.421C11.7806 11.7921 12.0893 11.2144 12.5428 10.761C12.9962 10.3076 13.5739 9.99883 14.2028 9.87373C14.8317 9.74863 15.4836 9.81284 16.076 10.0582C16.6684 10.3036 17.1747 10.7192 17.531 11.2523C17.8872 11.7855 18.0774 12.4123 18.0774 13.0535C18.0762 13.913 17.7342 14.737 17.1265 15.3447C16.5187 15.9525 15.6948 16.2944 14.8353 16.2956Z" fill="white"/>
<path d="M11.0712 7.37228C11.599 7.37241 12.1149 7.21603 12.5537 6.92294C12.9926 6.62985 13.3346 6.21319 13.5367 5.72568C13.7387 5.23816 13.7916 4.70168 13.6888 4.18409C13.5859 3.66649 13.3318 3.19102 12.9587 2.81782C12.5856 2.44462 12.1102 2.19045 11.5926 2.08745C11.0751 1.98445 10.5386 2.03725 10.051 2.23917C9.56344 2.44109 9.1467 2.78306 8.8535 3.22184C8.5603 3.66061 8.40381 4.17648 8.40381 4.70421C8.40466 5.41145 8.68594 6.08949 9.18598 6.58965C9.68602 7.08981 10.364 7.37126 11.0712 7.37228ZM11.0712 3.06063C11.3961 3.06051 11.7137 3.15673 11.9839 3.33714C12.2541 3.51755 12.4647 3.77403 12.589 4.07415C12.7134 4.37426 12.746 4.70452 12.6826 5.02316C12.6193 5.34179 12.4629 5.63447 12.2332 5.86419C12.0034 6.09391 11.7107 6.25033 11.3921 6.31368C11.0735 6.37703 10.7432 6.34445 10.4431 6.22007C10.143 6.09569 9.88651 5.88509 9.7061 5.61492C9.52569 5.34475 9.42947 5.02714 9.42959 4.70228C9.43079 4.26743 9.60419 3.85076 9.91185 3.54346C10.2195 3.23615 10.6364 3.06324 11.0712 3.06256V3.06063Z" fill="white"/>
<path d="M17.1873 4.7042C17.6525 4.7042 18.1073 4.56625 18.4941 4.3078C18.8809 4.04935 19.1823 3.682 19.3604 3.25221C19.5384 2.82242 19.585 2.34949 19.4942 1.89323C19.4035 1.43697 19.1794 1.01786 18.8505 0.688915C18.5215 0.359968 18.1024 0.135952 17.6462 0.045196C17.1899 -0.0455603 16.717 0.0010192 16.2872 0.179044C15.8574 0.357069 15.4901 0.658543 15.2316 1.04534C14.9732 1.43214 14.8352 1.8869 14.8352 2.3521C14.8359 2.97571 15.0839 3.57358 15.5249 4.01453C15.9658 4.45549 16.5637 4.70352 17.1873 4.7042ZM17.1873 1.02579C17.4498 1.02579 17.7064 1.10363 17.9246 1.24946C18.1428 1.3953 18.3129 1.60258 18.4133 1.84509C18.5137 2.0876 18.54 2.35444 18.4887 2.61186C18.4375 2.86928 18.311 3.10572 18.1254 3.29127C17.9397 3.47682 17.7032 3.60315 17.4458 3.65428C17.1883 3.70541 16.9215 3.67904 16.6791 3.57851C16.4366 3.47798 16.2294 3.3078 16.0837 3.08949C15.9379 2.87119 15.8602 2.61458 15.8603 2.3521C15.8607 2.00033 16.0006 1.66308 16.2494 1.4144C16.4982 1.16573 16.8355 1.02596 17.1873 1.02579Z" fill="white"/>
<path d="M16.0676 13.5014C15.9655 13.3553 15.834 13.2321 15.6815 13.1398C15.546 13.0558 15.3981 12.9937 15.2432 12.9557V11.7439C15.2889 11.7806 15.3307 11.8218 15.3681 11.8669C15.4122 11.9202 15.446 11.9813 15.4678 12.047C15.4921 12.121 15.5078 12.1974 15.5148 12.2749C15.517 12.3211 15.5288 12.3664 15.5494 12.4079C15.57 12.4494 15.599 12.4861 15.6346 12.5158C15.6702 12.5454 15.7116 12.5674 15.7561 12.5802C15.8006 12.593 15.8473 12.5964 15.8932 12.5902C16.0586 12.5702 16.1796 12.4505 16.2233 12.2111C16.2143 11.8418 16.0946 11.5399 15.863 11.3102C15.6911 11.1412 15.4771 11.0212 15.2432 10.9627V10.825C15.2435 10.7487 15.2213 10.6741 15.1794 10.6103C15.1376 10.5465 15.0779 10.4965 15.0079 10.4663C14.9378 10.4361 14.8605 10.4272 14.7854 10.4407C14.7103 10.4541 14.6408 10.4893 14.5856 10.5418C14.5474 10.5783 14.5173 10.6223 14.4972 10.6711C14.477 10.7198 14.4672 10.7722 14.4684 10.825V10.9228C14.3419 10.942 14.2176 10.9744 14.0978 11.0193C13.915 11.0842 13.7479 11.1868 13.6074 11.3205C13.4741 11.447 13.3694 11.6006 13.3004 11.771C13.2308 11.9495 13.2041 12.142 13.2226 12.3328C13.2551 12.6685 13.4166 12.9785 13.673 13.1977C13.9031 13.3826 14.1788 13.502 14.471 13.5432V14.7544C14.3195 14.7344 14.1749 14.6783 14.0495 14.5909C13.9207 14.5018 13.8264 14.3712 13.7824 14.2209C13.772 14.1351 13.7304 14.0561 13.6654 13.999C13.6005 13.9419 13.5169 13.9107 13.4304 13.9113C13.3771 13.9077 13.3237 13.9161 13.274 13.9358C13.2244 13.9555 13.1797 13.9861 13.1434 14.0253C13.1106 14.0635 13.0876 14.1091 13.0764 14.1582C13.0652 14.2073 13.0661 14.2584 13.0791 14.3071C13.108 14.485 13.1747 14.6547 13.2746 14.8047C13.3745 14.9548 13.5053 15.0818 13.6582 15.1772C13.9054 15.3281 14.1826 15.4232 14.4704 15.4558V15.533C14.4685 15.589 14.4791 15.6447 14.5014 15.6961C14.5236 15.7475 14.557 15.7934 14.5991 15.8304C14.6696 15.8917 14.7598 15.926 14.8533 15.9269C14.9422 15.926 15.0284 15.8965 15.0991 15.8426C15.1462 15.8072 15.1841 15.761 15.2097 15.708C15.2352 15.6549 15.2476 15.5964 15.2458 15.5375V15.4481C15.5444 15.3908 15.7774 15.2711 15.9402 15.0909C16.1283 14.8955 16.2438 14.6416 16.2677 14.3715C16.2797 14.2317 16.2721 14.0909 16.2452 13.9532C16.2175 13.792 16.1571 13.6383 16.0676 13.5014ZM14.471 12.8206C14.4248 12.8076 14.3798 12.7906 14.3365 12.7697C14.2468 12.7269 14.1639 12.671 14.0907 12.6037C14.0507 12.5679 14.0187 12.524 13.9967 12.475C13.9756 12.4149 13.9618 12.3524 13.9555 12.289C13.9495 12.2027 13.9622 12.1162 13.9926 12.0352C14.023 11.9543 14.0705 11.8808 14.1319 11.8199C14.2253 11.7274 14.3428 11.6629 14.471 11.6339V12.8206ZM15.565 14.3444C15.561 14.3795 15.5525 14.4138 15.5399 14.4468C15.5245 14.4935 15.5007 14.5371 15.4698 14.5755C15.4214 14.6291 15.363 14.6728 15.2979 14.7042C15.2816 14.7132 15.2646 14.721 15.2471 14.7273V13.6977C15.3188 13.7293 15.3832 13.7753 15.4363 13.8328C15.527 13.9377 15.5702 14.1076 15.565 14.3374V14.3444Z" fill="white"/>
<path d="M4.39598 24.3365H10.059V20.8884C10.0621 19.4159 9.59192 17.9813 8.71793 16.7962L7.1593 14.6726C6.74796 14.1145 6.21167 13.6605 5.59336 13.347C4.97506 13.0334 4.29192 12.869 3.59865 12.8668C3.59414 12.8668 3.58964 12.8668 3.58964 12.8668C3.56983 12.8666 3.55033 12.8717 3.53322 12.8817C3.5161 12.8917 3.50202 12.9061 3.49247 12.9235C3.48202 12.9407 3.4765 12.9606 3.4765 12.9807C3.4765 13.0009 3.48202 13.0207 3.49247 13.038L6.4881 18.723C6.52702 18.7945 6.55135 18.8731 6.55966 18.9541C6.56798 19.0351 6.56013 19.117 6.53655 19.195C6.51298 19.2729 6.47416 19.3455 6.42235 19.4083C6.37053 19.4711 6.30675 19.5231 6.2347 19.5611C6.16266 19.5991 6.08378 19.6224 6.00266 19.6297C5.92153 19.637 5.83976 19.6281 5.7621 19.6035C5.68444 19.5789 5.61243 19.5392 5.55026 19.4866C5.48808 19.434 5.43697 19.3695 5.39989 19.297L2.4049 13.6211C2.29372 13.417 2.23779 13.1875 2.24264 12.9552C2.2475 12.7229 2.31297 12.4959 2.43257 12.2967C2.55353 12.0928 2.72597 11.9244 2.9326 11.8082L2.26461 4.43789C2.19054 4.02028 2.02267 3.62492 1.77364 3.28159C1.52462 2.93826 1.20093 2.65592 0.826969 2.45582C0.519362 2.28786 0.320511 2.37731 0.247792 2.42236C0.171586 2.4665 0.108483 2.53011 0.064948 2.60666C0.0214126 2.68322 -0.00099042 2.76997 3.35944e-05 2.85803V13.9145C0.00107735 15.0346 0.266548 16.1386 0.774843 17.1367L4.34321 24.1144C4.3749 24.1844 4.39281 24.2598 4.39598 24.3365Z" fill="white"/>
<path d="M4.41078 25.6836H1.14551V29.5364H12.805V25.6836H4.41078ZM11.0713 27.7673C11.0714 27.9636 11.0133 28.1556 10.9044 28.3188C10.7954 28.4821 10.6405 28.6094 10.4592 28.6846C10.2779 28.7598 10.0783 28.7795 9.88578 28.7413C9.69325 28.7031 9.51637 28.6086 9.37753 28.4699C9.23869 28.3311 9.14411 28.1543 9.10577 27.9618C9.06743 27.7693 9.08705 27.5697 9.16213 27.3884C9.23722 27.207 9.36441 27.052 9.52761 26.9429C9.69081 26.8339 9.88269 26.7757 10.079 26.7757C10.342 26.7757 10.5944 26.8801 10.7804 27.0661C10.9665 27.252 11.0711 27.5043 11.0713 27.7673Z" fill="white"/>
<path d="M8.10649 13.8916L7.88962 11.4218C7.84176 10.9003 7.68975 10.3938 7.44258 9.93219C7.19542 9.47058 6.85812 9.06327 6.45068 8.73438L6.81364 12.6483C7.30828 12.991 7.74477 13.4107 8.10649 13.8916Z" fill="white"/>
<path d="M5.51574 11.9827L5.04275 6.89171C5.00284 6.44997 4.84112 6.02797 4.5756 5.67269C4.31007 5.31741 3.95116 5.04279 3.53882 4.87939L4.15532 11.6641C4.62021 11.7137 5.07717 11.8207 5.51574 11.9827Z" fill="white"/>
<path d="M22.1849 12.6513L22.5479 8.7373C22.1407 9.0659 21.8036 9.47281 21.5565 9.93395C21.3093 10.3951 21.1571 10.9011 21.109 11.4221L20.8921 13.8894C21.2542 13.4104 21.6907 12.9924 22.1849 12.6513Z" fill="white"/>
<path d="M25.4598 4.87939C25.048 5.04327 24.6898 5.3181 24.4249 5.67334C24.1599 6.02859 23.9987 6.45033 23.9591 6.89171L23.4861 11.9827C23.9247 11.8207 24.3816 11.7137 24.8465 11.6641L25.4598 4.87939Z" fill="white"/>
<path d="M18.9398 25.6836H16.1938V29.5364H27.8533V25.6836H18.9398ZM18.9186 28.7597C18.7223 28.7594 18.5306 28.701 18.3676 28.5918C18.2046 28.4826 18.0776 28.3275 18.0027 28.1462C17.9278 27.9649 17.9083 27.7654 17.9467 27.573C17.9852 27.3806 18.0798 27.2039 18.2186 27.0652C18.3574 26.9266 18.5343 26.8322 18.7267 26.794C18.9192 26.7558 19.1186 26.7755 19.2999 26.8507C19.4811 26.9258 19.636 27.053 19.745 27.2162C19.854 27.3793 19.9122 27.5711 19.9122 27.7673C19.9122 28.0305 19.8076 28.2829 19.6215 28.469C19.4354 28.6551 19.183 28.7597 18.9198 28.7597H18.9186Z" fill="white"/>
<path d="M28.7522 2.42236C28.6782 2.37731 28.4794 2.28786 28.1731 2.45582C27.7991 2.65592 27.4754 2.93826 27.2264 3.28159C26.9774 3.62492 26.8095 4.02028 26.7354 4.43789L26.0661 11.8082C26.273 11.9249 26.4455 12.094 26.5662 12.2986C26.6858 12.4978 26.7512 12.7248 26.7561 12.9571C26.761 13.1894 26.705 13.419 26.5938 13.623L23.6021 19.2996C23.565 19.3721 23.5139 19.4365 23.4517 19.4891C23.3895 19.5418 23.3175 19.5815 23.2399 19.6061C23.1622 19.6306 23.0804 19.6395 22.9993 19.6323C22.9182 19.625 22.8393 19.6017 22.7673 19.5637C22.6952 19.5257 22.6314 19.4737 22.5796 19.4109C22.5278 19.348 22.489 19.2755 22.4654 19.1975C22.4418 19.1196 22.434 19.0377 22.4423 18.9567C22.4506 18.8757 22.4749 18.7971 22.5139 18.7255L25.5095 13.0406C25.5199 13.0233 25.5255 13.0035 25.5255 12.9833C25.5255 12.9631 25.5199 12.9433 25.5095 12.926C25.4999 12.9087 25.4859 12.8943 25.4687 12.8843C25.4516 12.8743 25.4321 12.8692 25.4123 12.8694C25.4123 12.8694 25.4078 12.8694 25.4033 12.8694C24.71 12.8715 24.0269 13.036 23.4086 13.3495C22.7903 13.6631 22.254 14.1171 21.8427 14.6752L20.284 16.7988C19.4094 17.9828 18.9382 19.4164 18.9397 20.8884V24.3365H24.6028C24.6061 24.2597 24.6243 24.1843 24.6562 24.1144L28.2239 17.1367C28.7326 16.1387 28.9986 15.0347 29 13.9145V2.85803C29.001 2.76997 28.9786 2.68322 28.9351 2.60666C28.8915 2.53011 28.8284 2.4665 28.7522 2.42236Z" fill="white"/>
</svg>
