<svg width="20" height="17" viewBox="0 0 20 17" fill="none" xmlns="http://www.w3.org/2000/svg">
<mask id="mask0_638_3672" style="mask-type:alpha" maskUnits="userSpaceOnUse" x="0" y="0" width="20" height="17">
<rect x="0.5" width="19.3333" height="17" fill="#D9D9D9"/>
</mask>
<g mask="url(#mask0_638_3672)">
<path d="M18.5 8.33499H18.1666H16.1666H11.1666H9.16665H4.16665H2.16665H1.83331C1.28331 8.33499 0.833313 8.78499 0.833313 9.33499V16.0017C0.833313 16.185 0.983313 16.335 1.16665 16.335H3.49998C3.64998 16.335 3.77998 16.235 3.81998 16.0917L4.41665 14.0017H15.9166L16.5133 16.0917C16.5533 16.235 16.6833 16.335 16.8333 16.335H19.1666C19.35 16.335 19.5 16.185 19.5 16.0017V9.33499C19.5 8.78499 19.05 8.33499 18.5 8.33499Z" fill="#CA4037"/>
<path d="M4.16663 7.66833V6.335C4.16663 5.785 4.61663 5.335 5.16663 5.335H8.16663C8.71663 5.335 9.16663 5.785 9.16663 6.335V7.66833H11.1666V6.335C11.1666 5.785 11.6166 5.335 12.1666 5.335H15.1666C15.7166 5.335 16.1666 5.785 16.1666 6.335V7.66833H17.5H18.1666V0.668329C18.1666 0.484995 18.0166 0.334995 17.8333 0.334995H15.5C15.3266 0.334995 15.1833 0.468329 15.1666 0.641662L15.1033 1.40833C12.23 -0.0250051 8.10329 -0.0250051 5.22996 1.40833L5.16663 0.641662C5.14996 0.468329 5.00663 0.334995 4.83329 0.334995H2.49996C2.31663 0.334995 2.16663 0.484995 2.16663 0.668329V7.66833H2.83329H4.16663Z" fill="#CA4037"/>
<path d="M5.16665 6.00166C4.98331 6.00166 4.83331 6.15166 4.83331 6.335V7.66833H8.49998V6.335C8.49998 6.15166 8.34998 6.00166 8.16665 6.00166H5.16665Z" fill="#CA4037"/>
<path d="M12.1666 6.00166C11.9833 6.00166 11.8333 6.15166 11.8333 6.335V7.66833H15.5V6.335C15.5 6.15166 15.35 6.00166 15.1666 6.00166H12.1666Z" fill="#CA4037"/>
</g>
</svg>
