<svg width="262" height="263" viewBox="0 0 262 263" fill="none" xmlns="http://www.w3.org/2000/svg">
<path d="M188.135 20.7119H74.0281C69.5925 20.7119 65.9967 24.3484 65.9967 28.8342V186.215C65.9967 190.701 69.5925 194.337 74.0281 194.337H188.135C192.57 194.337 196.166 190.701 196.166 186.215V28.8342C196.166 24.3484 192.57 20.7119 188.135 20.7119Z" fill="#334756"/>
<path d="M188.609 183.864H73.5536V28.2373H188.609V183.864Z" fill="white"/>
<path d="M140.366 65.0647H80.9585C79.7294 65.0647 78.7316 64.0556 78.7316 62.8126C78.7316 61.5697 79.7294 60.5605 80.9585 60.5605H140.366C141.595 60.5605 142.593 61.5697 142.593 62.8126C142.593 64.0556 141.595 65.0647 140.366 65.0647Z" fill="#A1A1A1"/>
<path d="M181.174 122.025H98.5057C97.2767 122.025 96.2788 121.016 96.2788 119.773C96.2788 118.53 97.2767 117.521 98.5057 117.521H181.174C182.403 117.521 183.401 118.53 183.401 119.773C183.401 121.016 182.403 122.025 181.174 122.025Z" fill="#A1A1A1"/>
<path d="M181.174 137.1H98.5057C97.2767 137.1 96.2788 136.091 96.2788 134.848C96.2788 133.605 97.2767 132.596 98.5057 132.596H181.174C182.403 132.596 183.401 133.605 183.401 134.848C183.401 136.091 182.403 137.1 181.174 137.1Z" fill="#A1A1A1"/>
<path d="M181.174 151.406H98.5057C97.2767 151.406 96.2788 150.397 96.2788 149.154C96.2788 147.911 97.2767 146.902 98.5057 146.902H181.174C182.403 146.902 183.401 147.911 183.401 149.154C183.401 150.397 182.403 151.406 181.174 151.406Z" fill="#A1A1A1"/>
<path d="M94.0521 75.0564H80.9585C79.7294 75.0564 78.7316 74.0473 78.7316 72.8043C78.7316 71.5614 79.7294 70.5522 80.9585 70.5522H94.0521C95.2811 70.5522 96.2789 71.5614 96.2789 72.8043C96.2789 74.0473 95.2811 75.0564 94.0521 75.0564Z" fill="#A1A1A1"/>
<path d="M94.0521 82.262H80.9585C79.7294 82.262 78.7316 81.2528 78.7316 80.0099C78.7316 78.7669 79.7294 77.7578 80.9585 77.7578H94.0521C95.2811 77.7578 96.2789 78.7669 96.2789 80.0099C96.2789 81.2528 95.2811 82.262 94.0521 82.262Z" fill="#A1A1A1"/>
<path d="M94.0521 89.4617H80.9585C79.7294 89.4617 78.7316 88.4525 78.7316 87.2096C78.7316 85.9666 79.7294 84.9575 80.9585 84.9575H94.0521C95.2811 84.9575 96.2789 85.9666 96.2789 87.2096C96.2789 88.4525 95.2811 89.4617 94.0521 89.4617Z" fill="#A1A1A1"/>
<path d="M94.0521 96.6672H80.9585C79.7294 96.6672 78.7316 95.6581 78.7316 94.4152C78.7316 93.1722 79.7294 92.1631 80.9585 92.1631H94.0521C95.2811 92.1631 96.2789 93.1722 96.2789 94.4152C96.2789 95.6581 95.2811 96.6672 94.0521 96.6672Z" fill="#A1A1A1"/>
<path d="M94.0521 103.866H80.9585C79.7294 103.866 78.7316 102.857 78.7316 101.614C78.7316 100.371 79.7294 99.3623 80.9585 99.3623H94.0521C95.2811 99.3623 96.2789 100.371 96.2789 101.614C96.2789 102.857 95.2811 103.866 94.0521 103.866Z" fill="#A1A1A1"/>
<path d="M98.0978 73.8394H142.593" stroke="#A1A1A1" stroke-width="0.44" stroke-miterlimit="10"/>
<path d="M98.0978 82.2627H142.593" stroke="#A1A1A1" stroke-width="0.44" stroke-miterlimit="10"/>
<path d="M98.0978 89.4619H142.593" stroke="#A1A1A1" stroke-width="0.44" stroke-miterlimit="10"/>
<path d="M98.0978 96.6675H142.593" stroke="#A1A1A1" stroke-width="0.44" stroke-miterlimit="10"/>
<path d="M98.0978 104.408H142.593" stroke="#A1A1A1" stroke-width="0.44" stroke-miterlimit="10"/>
<path d="M90.0301 115.717H82.0109V123.827H90.0301V115.717Z" fill="#A1A1A1" stroke="#A1A1A1" stroke-width="1.01" stroke-miterlimit="10"/>
<path d="M90.0301 130.793H82.0109V138.903H90.0301V130.793Z" fill="#A1A1A1" stroke="#A1A1A1" stroke-width="1.01" stroke-miterlimit="10"/>
<path d="M90.0301 145.099H82.0109V153.209H90.0301V145.099Z" fill="#A1A1A1" stroke="#A1A1A1" stroke-width="1.01" stroke-miterlimit="10"/>
<path d="M87.5051 168.149H120.349" stroke="#A1A1A1" stroke-width="2.22" stroke-miterlimit="10"/>
<path d="M137.841 168.149H170.684" stroke="#A1A1A1" stroke-width="2.22" stroke-miterlimit="10"/>
<path d="M155.547 70.2886H150.04V75.8572H155.547V70.2886Z" fill="#A1A1A1" stroke="#A1A1A1" stroke-miterlimit="10"/>
<path d="M165.051 70.2886H159.544V75.8572H165.051V70.2886Z" fill="#A1A1A1" stroke="#A1A1A1" stroke-miterlimit="10"/>
<path d="M174.548 70.2886H169.042V75.8572H174.548V70.2886Z" fill="#A1A1A1" stroke="#A1A1A1" stroke-miterlimit="10"/>
<path d="M155.547 86.6748H150.04V92.2435H155.547V86.6748Z" fill="#A1A1A1" stroke="#A1A1A1" stroke-miterlimit="10"/>
<path d="M165.051 86.6748H159.545V92.2435H165.051V86.6748Z" fill="#A1A1A1" stroke="#A1A1A1" stroke-miterlimit="10"/>
<path d="M174.548 86.6748H169.042V92.2435H174.548V86.6748Z" fill="#A1A1A1" stroke="#A1A1A1" stroke-miterlimit="10"/>
<path d="M155.547 101.079H150.04V106.648H155.547V101.079Z" fill="#A1A1A1" stroke="#A1A1A1" stroke-miterlimit="10"/>
<path d="M165.051 101.079H159.545V106.648H165.051V101.079Z" fill="#A1A1A1" stroke="#A1A1A1" stroke-miterlimit="10"/>
<path d="M174.548 101.079H169.042V106.648H174.548V101.079Z" fill="#A1A1A1" stroke="#A1A1A1" stroke-miterlimit="10"/>
<path d="M88.5031 48.4758V52.3093H87.2802V43.1226H89.8478C90.4197 43.1226 90.9186 43.1841 91.3384 43.301C91.7583 43.4179 92.1051 43.5902 92.3728 43.8117C92.6466 44.0332 92.8474 44.304 92.9751 44.6178C93.109 44.9316 93.1698 45.2823 93.1698 45.67C93.1698 45.9961 93.1212 46.2976 93.0177 46.5807C92.9143 46.8637 92.7683 47.116 92.5796 47.3375C92.3849 47.559 92.1537 47.7559 91.8739 47.9098C91.594 48.0697 91.2837 48.1867 90.9308 48.2666C91.0829 48.3589 91.2167 48.4882 91.3384 48.6604L93.9851 52.3093H92.896C92.6709 52.3093 92.5066 52.2232 92.4032 52.0447L90.0425 48.7651C89.9694 48.6604 89.8903 48.5866 89.8052 48.5435C89.72 48.5005 89.5922 48.4758 89.4279 48.4758H88.497H88.5031ZM88.5031 47.5713H89.7869C90.1459 47.5713 90.4623 47.5283 90.7361 47.4421C91.0099 47.356 91.235 47.2329 91.4175 47.0729C91.6001 46.9129 91.74 46.7222 91.8313 46.5007C91.9225 46.2792 91.9712 46.033 91.9712 45.7623C91.9712 45.2147 91.7948 44.8024 91.4358 44.5255C91.0768 44.2486 90.5475 44.1071 89.8417 44.1071H88.497V47.5775L88.5031 47.5713Z" fill="#212121"/>
<path d="M100.915 43.1216V44.1369H96.5526V47.1889H100.082V48.1611H96.5526V51.293H100.915V52.3083H95.3175V43.1216H100.915Z" fill="#212121"/>
<path d="M106.732 51.4041C106.975 51.4041 107.2 51.3918 107.407 51.3672C107.614 51.3426 107.803 51.3057 107.985 51.2626C108.168 51.2134 108.338 51.158 108.496 51.0903C108.654 51.0226 108.819 50.9488 108.977 50.8626V48.8382H107.571C107.492 48.8382 107.425 48.8136 107.377 48.7705C107.328 48.7213 107.304 48.6659 107.304 48.5983V47.8906H110.09V51.4164C109.859 51.5826 109.622 51.7302 109.378 51.8533C109.129 51.9764 108.867 52.081 108.587 52.1671C108.308 52.2533 108.003 52.3148 107.687 52.3517C107.364 52.3948 107.018 52.4132 106.64 52.4132C105.983 52.4132 105.375 52.2963 104.827 52.0687C104.28 51.841 103.805 51.521 103.41 51.1088C103.014 50.6965 102.704 50.2042 102.479 49.6258C102.26 49.0474 102.144 48.4137 102.144 47.7245C102.144 47.0353 102.254 46.3831 102.473 45.8047C102.692 45.2263 103.002 44.734 103.404 44.3218C103.805 43.9095 104.292 43.5895 104.87 43.3619C105.448 43.1342 106.087 43.0234 106.793 43.0234C107.151 43.0234 107.486 43.0481 107.796 43.1034C108.107 43.1588 108.393 43.2326 108.654 43.3373C108.916 43.4357 109.159 43.5588 109.384 43.7003C109.61 43.8418 109.816 44.008 110.011 44.1864L109.664 44.7525C109.591 44.8694 109.5 44.9248 109.384 44.9248C109.318 44.9248 109.245 44.9002 109.165 44.8571C109.062 44.7956 108.94 44.7217 108.813 44.6417C108.679 44.5556 108.52 44.4756 108.332 44.3956C108.143 44.3156 107.924 44.2479 107.669 44.1925C107.413 44.1372 107.109 44.1064 106.756 44.1064C106.245 44.1064 105.783 44.1925 105.369 44.3587C104.955 44.5248 104.602 44.7709 104.31 45.0848C104.018 45.3986 103.793 45.7801 103.641 46.2231C103.483 46.6723 103.404 47.1707 103.404 47.7245C103.404 48.2783 103.483 48.8259 103.647 49.2813C103.811 49.7366 104.036 50.1242 104.334 50.4381C104.633 50.7519 104.979 50.998 105.387 51.1641C105.795 51.3303 106.239 51.4164 106.732 51.4164V51.4041Z" fill="#212121"/>
<path d="M113.449 52.3083H112.22V43.1216H113.449V52.3083Z" fill="#212121"/>
<path d="M120.531 44.5553C120.495 44.6168 120.452 44.6661 120.41 44.6968C120.367 44.7276 120.312 44.746 120.245 44.746C120.172 44.746 120.087 44.7091 119.996 44.6353C119.899 44.5615 119.783 44.4815 119.637 44.3953C119.491 44.3092 119.315 44.2292 119.114 44.1553C118.913 44.0815 118.657 44.0446 118.371 44.0446C118.098 44.0446 117.854 44.0815 117.641 44.1553C117.428 44.2292 117.252 44.3338 117.112 44.4568C116.972 44.5861 116.863 44.7337 116.79 44.906C116.717 45.0783 116.68 45.2629 116.68 45.466C116.68 45.7244 116.741 45.9336 116.869 46.1059C116.996 46.2782 117.161 46.4197 117.361 46.5366C117.562 46.6535 117.8 46.7581 118.061 46.8504C118.323 46.9366 118.584 47.0289 118.858 47.1212C119.132 47.2135 119.4 47.3181 119.655 47.4412C119.917 47.5581 120.148 47.7057 120.355 47.8842C120.562 48.0626 120.726 48.2841 120.848 48.5426C120.976 48.801 121.036 49.121 121.036 49.5025C121.036 49.9024 120.97 50.2839 120.836 50.6347C120.702 50.9854 120.501 51.2931 120.245 51.5577C119.984 51.8161 119.667 52.0253 119.29 52.173C118.913 52.3207 118.481 52.3945 118 52.3945C117.41 52.3945 116.875 52.2837 116.394 52.0684C115.913 51.853 115.5 51.5638 115.153 51.1946L115.506 50.6039C115.542 50.5547 115.579 50.5178 115.627 50.487C115.676 50.4562 115.731 50.4378 115.792 50.4378C115.883 50.4378 115.98 50.487 116.096 50.5793C116.212 50.6716 116.351 50.7823 116.522 50.8993C116.692 51.0162 116.899 51.1208 117.142 51.2192C117.386 51.3177 117.684 51.3608 118.031 51.3608C118.323 51.3608 118.584 51.3177 118.81 51.2377C119.035 51.1577 119.229 51.0408 119.388 50.8931C119.546 50.7454 119.667 50.567 119.753 50.3639C119.838 50.1609 119.88 49.9271 119.88 49.6809C119.88 49.404 119.82 49.1764 119.692 48.9979C119.564 48.8195 119.406 48.6718 119.199 48.5549C118.998 48.438 118.767 48.3334 118.505 48.2472C118.244 48.1611 117.982 48.0811 117.708 47.9888C117.434 47.8965 117.167 47.798 116.911 47.6811C116.65 47.5642 116.418 47.4165 116.218 47.2319C116.017 47.0474 115.853 46.8197 115.725 46.5428C115.597 46.2659 115.536 45.9275 115.536 45.5214C115.536 45.1952 115.597 44.8814 115.725 44.5799C115.853 44.2784 116.029 44.0077 116.266 43.7738C116.504 43.54 116.796 43.3493 117.142 43.2077C117.489 43.0662 117.891 42.9985 118.341 42.9985C118.846 42.9985 119.308 43.0785 119.728 43.2447C120.148 43.4046 120.513 43.6446 120.823 43.9523L120.525 44.543L120.531 44.5553Z" fill="#212121"/>
<path d="M128.788 43.1216V44.1676H125.855V52.3083H124.626V44.1676H121.681V43.1216H128.794H128.788Z" fill="#212121"/>
<path d="M131.429 48.4749V52.3083H130.206V43.1216H132.773C133.345 43.1216 133.844 43.1831 134.264 43.3C134.684 43.4169 135.03 43.5892 135.298 43.8107C135.572 44.0323 135.773 44.303 135.901 44.6168C136.034 44.9306 136.095 45.2814 136.095 45.669C136.095 45.9951 136.047 46.2966 135.943 46.5797C135.84 46.8627 135.694 47.115 135.505 47.3365C135.31 47.558 135.079 47.7549 134.799 47.9088C134.519 48.0688 134.209 48.1857 133.856 48.2657C134.008 48.358 134.142 48.4872 134.264 48.6595L136.911 52.3083H135.821C135.596 52.3083 135.432 52.2222 135.329 52.0437L132.968 48.7641C132.895 48.6595 132.816 48.5856 132.731 48.5426C132.645 48.4995 132.518 48.4749 132.353 48.4749H131.422H131.429ZM131.429 47.5704H132.712C133.071 47.5704 133.388 47.5273 133.661 47.4411C133.935 47.355 134.16 47.2319 134.343 47.0719C134.525 46.912 134.665 46.7212 134.757 46.4997C134.848 46.2782 134.897 46.0321 134.897 45.7613C134.897 45.2137 134.72 44.8014 134.361 44.5245C134.002 44.2476 133.473 44.1061 132.767 44.1061H131.422V47.5765L131.429 47.5704Z" fill="#212121"/>
<path d="M145.715 52.3083H144.766C144.656 52.3083 144.565 52.2837 144.498 52.2222C144.431 52.1606 144.382 52.093 144.346 52.013L143.494 49.7978H139.417L138.566 52.013C138.535 52.0868 138.487 52.1606 138.414 52.216C138.341 52.2776 138.255 52.3083 138.146 52.3083H137.197L140.829 43.1216H142.076L145.709 52.3083H145.715ZM139.764 48.8994H143.153L141.73 45.1644C141.638 44.9306 141.547 44.6476 141.456 44.2968C141.407 44.4753 141.364 44.6353 141.322 44.7829C141.279 44.9306 141.237 45.0598 141.194 45.1706L139.77 48.8994H139.764Z" fill="#212121"/>
<path d="M152.213 43.1216V44.1676H149.28V52.3083H148.051V44.1676H145.106V43.1216H152.219H152.213Z" fill="#212121"/>
<path d="M154.969 52.3083H153.74V43.1216H154.969V52.3083Z" fill="#212121"/>
<path d="M165.835 47.7181C165.835 48.4073 165.726 49.0349 165.513 49.6133C165.3 50.1856 164.996 50.684 164.6 51.0963C164.205 51.5085 163.736 51.8346 163.183 52.0623C162.629 52.29 162.021 52.4069 161.351 52.4069C160.682 52.4069 160.074 52.29 159.526 52.0623C158.978 51.8346 158.504 51.5147 158.114 51.0963C157.719 50.684 157.415 50.1856 157.202 49.6133C156.989 49.0411 156.879 48.4073 156.879 47.7181C156.879 47.029 156.989 46.4014 157.202 45.823C157.415 45.2507 157.719 44.7523 158.114 44.3339C158.51 43.9155 158.978 43.5955 159.526 43.3617C160.074 43.1278 160.682 43.0171 161.351 43.0171C162.021 43.0171 162.629 43.134 163.183 43.3617C163.736 43.5955 164.205 43.9155 164.6 44.3339C164.996 44.7523 165.3 45.2446 165.513 45.823C165.726 46.3952 165.835 47.029 165.835 47.7181ZM164.576 47.7181C164.576 47.152 164.503 46.6475 164.345 46.1983C164.193 45.7491 163.98 45.3676 163.7 45.06C163.42 44.7523 163.085 44.5123 162.684 44.3462C162.288 44.18 161.844 44.0939 161.351 44.0939C160.858 44.0939 160.426 44.18 160.025 44.3462C159.629 44.5123 159.289 44.7523 159.009 45.06C158.729 45.3676 158.51 45.7491 158.358 46.1983C158.206 46.6475 158.127 47.152 158.127 47.7181C158.127 48.2842 158.2 48.7888 158.358 49.2318C158.51 49.681 158.729 50.0564 159.009 50.364C159.289 50.6717 159.629 50.9117 160.025 51.0778C160.42 51.2439 160.865 51.3239 161.351 51.3239C161.838 51.3239 162.288 51.2439 162.684 51.0778C163.079 50.9117 163.42 50.6778 163.7 50.364C163.98 50.0564 164.193 49.6749 164.345 49.2318C164.497 48.7826 164.576 48.2781 164.576 47.7181Z" fill="#212121"/>
<path d="M168.397 43.1588C168.452 43.1896 168.512 43.2449 168.579 43.3311L173.842 50.2534C173.83 50.1427 173.818 50.0319 173.818 49.9273C173.818 49.8227 173.812 49.7243 173.812 49.6197V43.1157H174.889V52.3025H174.268C174.171 52.3025 174.092 52.284 174.025 52.2532C173.958 52.2163 173.897 52.1609 173.83 52.081L168.573 45.1647C168.579 45.2693 168.585 45.374 168.591 45.4786C168.591 45.5832 168.598 45.6755 168.598 45.7616V52.3086H167.521V43.1219H168.153C168.263 43.1219 168.342 43.1342 168.397 43.1649V43.1588Z" fill="#212121"/>
<path d="M122.91 12.9526H137.951C147.595 12.9526 155.425 20.8718 155.425 30.6247V30.6923C155.425 33.0429 153.533 34.9565 151.209 34.9565H109.659C107.334 34.9565 105.442 33.0429 105.442 30.6923V30.6247C105.442 20.8718 113.273 12.9526 122.917 12.9526H122.91Z" fill="#FF8D29"/>
<path d="M151.209 31.7135H109.658C107.687 31.7135 106.032 30.3414 105.57 28.4893C105.485 29.1907 105.436 29.8983 105.436 30.6183V30.686C105.436 33.0426 107.322 34.9501 109.652 34.9501H151.203C153.533 34.9501 155.419 33.0426 155.419 30.686V30.6183C155.419 29.8983 155.37 29.1846 155.285 28.4893C154.829 30.3414 153.174 31.7135 151.203 31.7135H151.209Z" fill="#D1690E"/>
<path d="M130.431 0C123.105 0 117.173 6.00554 117.173 13.4078V21.5855H143.689V13.4078C143.689 5.99938 137.75 0 130.431 0ZM138.517 17.3705H122.345V12.3864C122.345 7.86996 125.965 4.2088 130.431 4.2088C134.897 4.2088 138.517 7.86996 138.517 12.3864V17.3705Z" fill="#FF8D29"/>
<path d="M74.8798 167.479L76.2914 158.796C77.703 150.114 81.165 140.226 82.2298 127.224C83.2945 114.223 76.121 114.038 76.121 114.038C72.3609 113.244 68.0592 117.145 66.0027 121.194V107.528L40.3753 138.663C38.2579 140.792 36.8889 143.567 36.4934 146.564L29.9284 195.894L22.2134 204.029L60.904 211.412C60.904 211.412 75.2753 191.962 74.892 167.472L74.8798 167.479ZM63.1613 138.294C63.1613 138.349 63.1674 138.405 63.1735 138.454C63.3682 140.189 61.9383 148.164 60.2895 156.495L58.3364 158.716L63.1613 138.294Z" fill="#FDBA8A"/>
<path d="M78.5306 131.538L67.6821 129.464L69.3858 120.327C69.9516 117.299 72.8356 115.305 75.8352 115.878C78.8287 116.45 80.8001 119.367 80.2342 122.4L78.5306 131.538Z" fill="#FDD4B6"/>
<path d="M65.9967 121.194C65.9967 121.194 59.0848 140.349 56.6328 155.572C56.2738 157.787 58.9205 159.171 60.5025 157.596C60.8432 157.258 61.0683 156.821 61.1535 156.341C61.7498 152.827 64.2991 137.789 64.2687 137.217C64.2322 136.571 65.9967 121.188 65.9967 121.188V121.194Z" fill="#D49C73"/>
<path d="M72.0203 114.702C71.9473 114.745 71.8682 114.782 71.7952 114.831C72.0872 114.819 72.3914 114.831 72.6957 114.874C72.4279 114.788 72.1967 114.733 72.0203 114.702Z" fill="#E3A77B"/>
<path d="M74.8799 167.478L76.2915 158.796C77.7031 150.114 81.1651 140.225 82.2298 127.224C83.2946 114.222 76.1211 114.037 76.1211 114.037C75.9447 114 75.7682 113.976 75.5979 113.951C77.5509 114.591 81.4571 117.089 80.654 126.922C79.5892 139.918 76.1272 149.812 74.7156 158.494L73.304 167.176C73.6874 191.666 59.316 211.117 59.316 211.117L60.898 211.418C60.898 211.418 75.2693 191.968 74.886 167.478H74.8799Z" fill="#E3A77B"/>
<path d="M67.9968 206.754L18.863 197.375L15.9286 213.095L65.0623 222.475L67.9968 206.754Z" fill="white"/>
<path d="M68.7081 215.897L15.5806 205.754L0.332857 287.442L53.4604 297.584L68.7081 215.897Z" fill="#334756"/>
<path d="M200.681 211.418L239.372 204.034L231.657 195.899L225.091 146.569C224.696 143.573 223.327 140.797 221.21 138.668L195.582 107.533V121.199C193.526 117.151 189.224 113.25 185.464 114.043C185.464 114.043 178.29 114.228 179.355 127.23C180.42 140.225 183.882 150.12 185.293 158.802L186.705 167.484C186.322 191.974 200.693 211.424 200.693 211.424L200.681 211.418ZM203.236 158.722L201.283 156.5C199.634 148.169 198.205 140.194 198.399 138.459C198.399 138.41 198.411 138.355 198.411 138.299L203.236 158.722Z" fill="#FDBA8A"/>
<path d="M183.048 131.537L193.897 129.463L192.193 120.326C191.627 117.298 188.743 115.305 185.744 115.877C182.75 116.449 180.779 119.366 181.345 122.399L183.048 131.537Z" fill="#FDD4B6"/>
<path d="M195.582 121.193C195.582 121.193 202.494 140.348 204.946 155.571C205.305 157.786 202.658 159.171 201.076 157.596C200.736 157.257 200.511 156.82 200.425 156.34C199.829 152.827 197.28 137.788 197.31 137.216C197.347 136.57 195.582 121.187 195.582 121.187V121.193Z" fill="#D49C73"/>
<path d="M189.559 114.702C189.632 114.745 189.711 114.782 189.784 114.831C189.492 114.819 189.187 114.831 188.883 114.874C189.151 114.788 189.382 114.733 189.559 114.702Z" fill="#E3A77B"/>
<path d="M186.693 167.478L185.281 158.796C183.87 150.114 180.408 140.225 179.343 127.224C178.278 114.222 185.452 114.037 185.452 114.037C185.628 114 185.805 113.976 185.975 113.951C184.022 114.591 180.116 117.089 180.919 126.922C181.984 139.918 185.446 149.812 186.857 158.494L188.269 167.176C187.886 191.666 202.257 211.117 202.257 211.117L200.675 211.418C200.675 211.418 186.304 191.968 186.687 167.478H186.693Z" fill="#E3A77B"/>
<path d="M196.51 222.464L245.644 213.084L242.71 197.364L193.576 206.744L196.51 222.464Z" fill="white"/>
<path d="M208.129 297.588L261.256 287.445L246.009 205.758L192.881 215.901L208.129 297.588Z" fill="#334756"/>
</svg>
