<svg width="989" height="566" viewBox="0 0 989 566" fill="none" xmlns="http://www.w3.org/2000/svg">
<g opacity="0.3" filter="url(#filter0_d_2063_2)">
<circle cx="840.5" cy="90.5" r="65.5" fill="url(#paint0_linear_2063_2)"/>
</g>
<g opacity="0.3" filter="url(#filter1_d_2063_2)">
<circle cx="76.5" cy="415.5" r="51.5" fill="url(#paint1_linear_2063_2)"/>
</g>
<g opacity="0.3" filter="url(#filter2_d_2063_2)">
<circle cx="932" cy="284" r="32" fill="url(#paint2_linear_2063_2)"/>
</g>
<g opacity="0.3" filter="url(#filter3_f_2063_2)">
<circle cx="945" cy="504" r="77" fill="#FF8D29"/>
</g>
<path d="M937.654 513.17L935.987 513.489L934.362 504.789L926.185 506.352L923.307 503.318L916.742 453.988C916.346 450.991 914.977 448.216 912.86 446.087L887.816 415.66V336.252C887.816 331.767 884.221 328.13 879.785 328.13H844.07C841.977 325.01 838.922 322.605 835.339 321.349V320.826C835.339 313.418 829.4 307.418 822.081 307.418C814.755 307.418 808.823 313.424 808.823 320.826V321.349C805.239 322.611 802.185 325.01 800.092 328.13H765.678C761.243 328.13 757.647 331.767 757.647 336.252V414.946L732.02 446.081C729.902 448.21 728.533 450.985 728.138 453.982L721.573 503.312L718.695 506.346L710.517 504.783L708.893 513.483L707.226 513.163L691.984 594.86L745.113 605L760.361 523.31L758.03 522.867L759.655 514.166L755.943 513.459C757.714 510.345 759.91 506.001 761.845 500.771C762.989 501.398 764.297 501.761 765.685 501.761H879.791C880.99 501.761 882.115 501.491 883.138 501.017C885.048 506.136 887.202 510.394 888.948 513.459L885.237 514.166L886.861 522.867L884.531 523.31L899.778 605L952.907 594.86L937.66 513.17H937.654ZM750.115 465.636C750.206 465.654 750.303 465.667 750.401 465.673L749.999 466.134L750.115 465.636ZM894.893 466.134L894.491 465.673C894.588 465.667 894.686 465.654 894.777 465.636L894.893 466.134ZM814.001 319.805C814.001 315.288 817.621 311.627 822.087 311.627C826.553 311.627 830.173 315.288 830.173 319.805V320.383C829.984 320.383 829.796 320.371 829.607 320.371H814.567C814.378 320.371 814.189 320.377 814.001 320.383V319.805Z" fill="#21303C" fill-opacity="0.15"/>
<path d="M874.802 323.712H760.695C756.26 323.712 752.664 327.348 752.664 331.834V489.215C752.664 493.701 756.26 497.337 760.695 497.337H874.802C879.238 497.337 882.833 493.701 882.833 489.215V331.834C882.833 327.348 879.238 323.712 874.802 323.712Z" fill="#334756"/>
<path d="M875.277 486.864H760.221V331.237H875.277V486.864Z" fill="white"/>
<path d="M827.034 368.065H767.626C766.397 368.065 765.399 367.056 765.399 365.813C765.399 364.57 766.397 363.561 767.626 363.561H827.034C828.263 363.561 829.261 364.57 829.261 365.813C829.261 367.056 828.263 368.065 827.034 368.065Z" fill="#A1A1A1"/>
<path d="M867.841 425.025H785.173C783.944 425.025 782.946 424.016 782.946 422.773C782.946 421.53 783.944 420.521 785.173 420.521H867.841C869.071 420.521 870.068 421.53 870.068 422.773C870.068 424.016 869.071 425.025 867.841 425.025Z" fill="#A1A1A1"/>
<path d="M867.841 440.1H785.173C783.944 440.1 782.946 439.091 782.946 437.848C782.946 436.605 783.944 435.596 785.173 435.596H867.841C869.071 435.596 870.068 436.605 870.068 437.848C870.068 439.091 869.071 440.1 867.841 440.1Z" fill="#A1A1A1"/>
<path d="M867.841 454.406H785.173C783.944 454.406 782.946 453.397 782.946 452.154C782.946 450.911 783.944 449.902 785.173 449.902H867.841C869.071 449.902 870.068 450.911 870.068 452.154C870.068 453.397 869.071 454.406 867.841 454.406Z" fill="#A1A1A1"/>
<path d="M780.719 378.056H767.626C766.397 378.056 765.399 377.047 765.399 375.804C765.399 374.561 766.397 373.552 767.626 373.552H780.719C781.948 373.552 782.946 374.561 782.946 375.804C782.946 377.047 781.948 378.056 780.719 378.056Z" fill="#A1A1A1"/>
<path d="M780.719 385.262H767.626C766.397 385.262 765.399 384.253 765.399 383.01C765.399 381.767 766.397 380.758 767.626 380.758H780.719C781.948 380.758 782.946 381.767 782.946 383.01C782.946 384.253 781.948 385.262 780.719 385.262Z" fill="#A1A1A1"/>
<path d="M780.719 392.462H767.626C766.397 392.462 765.399 391.453 765.399 390.21C765.399 388.967 766.397 387.958 767.626 387.958H780.719C781.948 387.958 782.946 388.967 782.946 390.21C782.946 391.453 781.948 392.462 780.719 392.462Z" fill="#A1A1A1"/>
<path d="M780.719 399.667H767.626C766.397 399.667 765.399 398.658 765.399 397.415C765.399 396.172 766.397 395.163 767.626 395.163H780.719C781.948 395.163 782.946 396.172 782.946 397.415C782.946 398.658 781.948 399.667 780.719 399.667Z" fill="#A1A1A1"/>
<path d="M780.719 406.866H767.626C766.397 406.866 765.399 405.857 765.399 404.614C765.399 403.371 766.397 402.362 767.626 402.362H780.719C781.948 402.362 782.946 403.371 782.946 404.614C782.946 405.857 781.948 406.866 780.719 406.866Z" fill="#A1A1A1"/>
<path d="M784.765 376.839H829.26" stroke="#A1A1A1" stroke-width="0.44" stroke-miterlimit="10"/>
<path d="M784.765 385.263H829.26" stroke="#A1A1A1" stroke-width="0.44" stroke-miterlimit="10"/>
<path d="M784.765 392.462H829.26" stroke="#A1A1A1" stroke-width="0.44" stroke-miterlimit="10"/>
<path d="M784.765 399.667H829.26" stroke="#A1A1A1" stroke-width="0.44" stroke-miterlimit="10"/>
<path d="M784.765 407.408H829.26" stroke="#A1A1A1" stroke-width="0.44" stroke-miterlimit="10"/>
<path d="M776.697 418.717H768.678V426.827H776.697V418.717Z" fill="#A1A1A1" stroke="#A1A1A1" stroke-width="1.01" stroke-miterlimit="10"/>
<path d="M776.697 433.793H768.678V441.903H776.697V433.793Z" fill="#A1A1A1" stroke="#A1A1A1" stroke-width="1.01" stroke-miterlimit="10"/>
<path d="M776.697 448.099H768.678V456.209H776.697V448.099Z" fill="#A1A1A1" stroke="#A1A1A1" stroke-width="1.01" stroke-miterlimit="10"/>
<path d="M774.172 471.149H807.016" stroke="#A1A1A1" stroke-width="2.22" stroke-miterlimit="10"/>
<path d="M824.508 471.149H857.352" stroke="#A1A1A1" stroke-width="2.22" stroke-miterlimit="10"/>
<path d="M842.214 373.289H836.708V378.857H842.214V373.289Z" fill="#A1A1A1" stroke="#A1A1A1" stroke-miterlimit="10"/>
<path d="M851.718 373.289H846.212V378.857H851.718V373.289Z" fill="#A1A1A1" stroke="#A1A1A1" stroke-miterlimit="10"/>
<path d="M861.216 373.289H855.709V378.857H861.216V373.289Z" fill="#A1A1A1" stroke="#A1A1A1" stroke-miterlimit="10"/>
<path d="M842.214 389.675H836.708V395.243H842.214V389.675Z" fill="#A1A1A1" stroke="#A1A1A1" stroke-miterlimit="10"/>
<path d="M851.718 389.675H846.212V395.243H851.718V389.675Z" fill="#A1A1A1" stroke="#A1A1A1" stroke-miterlimit="10"/>
<path d="M861.216 389.675H855.709V395.243H861.216V389.675Z" fill="#A1A1A1" stroke="#A1A1A1" stroke-miterlimit="10"/>
<path d="M842.214 404.079H836.708V409.648H842.214V404.079Z" fill="#A1A1A1" stroke="#A1A1A1" stroke-miterlimit="10"/>
<path d="M851.718 404.079H846.212V409.648H851.718V404.079Z" fill="#A1A1A1" stroke="#A1A1A1" stroke-miterlimit="10"/>
<path d="M861.216 404.079H855.709V409.648H861.216V404.079Z" fill="#A1A1A1" stroke="#A1A1A1" stroke-miterlimit="10"/>
<path d="M775.17 351.476V355.309H773.947V346.123H776.515C777.087 346.123 777.586 346.184 778.006 346.301C778.425 346.418 778.772 346.59 779.04 346.812C779.314 347.033 779.515 347.304 779.642 347.618C779.776 347.932 779.837 348.282 779.837 348.67C779.837 348.996 779.788 349.298 779.685 349.581C779.582 349.864 779.435 350.116 779.247 350.338C779.052 350.559 778.821 350.756 778.541 350.91C778.261 351.07 777.951 351.187 777.598 351.267C777.75 351.359 777.884 351.488 778.006 351.66L780.652 355.309H779.563C779.338 355.309 779.174 355.223 779.07 355.045L776.71 351.765C776.637 351.66 776.558 351.587 776.472 351.544C776.387 351.5 776.259 351.476 776.095 351.476H775.164H775.17ZM775.17 350.571H776.454C776.813 350.571 777.13 350.528 777.403 350.442C777.677 350.356 777.902 350.233 778.085 350.073C778.267 349.913 778.407 349.722 778.499 349.501C778.59 349.279 778.638 349.033 778.638 348.762C778.638 348.215 778.462 347.802 778.103 347.525C777.744 347.249 777.215 347.107 776.509 347.107H775.164V350.577L775.17 350.571Z" fill="#212121"/>
<path d="M787.582 346.122V347.137H783.22V350.189H786.749V351.161H783.22V354.293H787.582V355.308H781.985V346.122H787.582Z" fill="#212121"/>
<path d="M793.399 354.404C793.642 354.404 793.867 354.392 794.074 354.367C794.281 354.343 794.47 354.306 794.652 354.263C794.835 354.213 795.005 354.158 795.163 354.09C795.322 354.023 795.486 353.949 795.644 353.863V351.838H794.239C794.159 351.838 794.093 351.814 794.044 351.771C793.995 351.721 793.971 351.666 793.971 351.598V350.891H796.757V354.416C796.526 354.583 796.289 354.73 796.046 354.853C795.796 354.976 795.535 355.081 795.255 355.167C794.975 355.253 794.671 355.315 794.354 355.352C794.032 355.395 793.685 355.413 793.308 355.413C792.651 355.413 792.042 355.296 791.494 355.069C790.947 354.841 790.472 354.521 790.077 354.109C789.681 353.696 789.371 353.204 789.146 352.626C788.927 352.047 788.811 351.414 788.811 350.724C788.811 350.035 788.921 349.383 789.14 348.805C789.359 348.226 789.669 347.734 790.071 347.322C790.472 346.91 790.959 346.59 791.537 346.362C792.115 346.134 792.754 346.023 793.46 346.023C793.819 346.023 794.153 346.048 794.464 346.103C794.774 346.159 795.06 346.233 795.322 346.337C795.583 346.436 795.827 346.559 796.052 346.7C796.277 346.842 796.484 347.008 796.678 347.186L796.332 347.752C796.259 347.869 796.167 347.925 796.052 347.925C795.985 347.925 795.912 347.9 795.833 347.857C795.729 347.796 795.608 347.722 795.48 347.642C795.346 347.556 795.188 347.476 794.999 347.396C794.81 347.316 794.591 347.248 794.336 347.193C794.08 347.137 793.776 347.106 793.423 347.106C792.912 347.106 792.45 347.193 792.036 347.359C791.622 347.525 791.269 347.771 790.977 348.085C790.685 348.399 790.46 348.78 790.308 349.223C790.15 349.672 790.071 350.171 790.071 350.724C790.071 351.278 790.15 351.826 790.314 352.281C790.478 352.737 790.704 353.124 791.002 353.438C791.3 353.752 791.647 353.998 792.054 354.164C792.462 354.33 792.906 354.416 793.399 354.416V354.404Z" fill="#212121"/>
<path d="M800.116 355.308H798.887V346.122H800.116V355.308Z" fill="#212121"/>
<path d="M807.199 347.555C807.162 347.617 807.12 347.666 807.077 347.697C807.034 347.728 806.98 347.746 806.913 347.746C806.84 347.746 806.755 347.709 806.663 347.635C806.566 347.561 806.45 347.481 806.304 347.395C806.158 347.309 805.982 347.229 805.781 347.155C805.58 347.082 805.325 347.045 805.039 347.045C804.765 347.045 804.522 347.082 804.309 347.155C804.096 347.229 803.919 347.334 803.779 347.457C803.639 347.586 803.53 347.734 803.457 347.906C803.384 348.078 803.347 348.263 803.347 348.466C803.347 348.724 803.408 348.934 803.536 349.106C803.664 349.278 803.828 349.42 804.029 349.537C804.229 349.654 804.467 349.758 804.728 349.85C804.99 349.937 805.252 350.029 805.525 350.121C805.799 350.213 806.067 350.318 806.323 350.441C806.584 350.558 806.815 350.706 807.022 350.884C807.229 351.063 807.393 351.284 807.515 351.543C807.643 351.801 807.704 352.121 807.704 352.502C807.704 352.902 807.637 353.284 807.503 353.635C807.369 353.985 807.168 354.293 806.913 354.558C806.651 354.816 806.335 355.025 805.957 355.173C805.58 355.321 805.148 355.394 804.668 355.394C804.077 355.394 803.542 355.284 803.061 355.068C802.581 354.853 802.167 354.564 801.82 354.195L802.173 353.604C802.209 353.555 802.246 353.518 802.295 353.487C802.343 353.456 802.398 353.438 802.459 353.438C802.55 353.438 802.648 353.487 802.763 353.579C802.879 353.672 803.019 353.782 803.189 353.899C803.359 354.016 803.566 354.121 803.81 354.219C804.053 354.318 804.351 354.361 804.698 354.361C804.99 354.361 805.252 354.318 805.477 354.238C805.702 354.158 805.897 354.041 806.055 353.893C806.213 353.745 806.335 353.567 806.42 353.364C806.505 353.161 806.548 352.927 806.548 352.681C806.548 352.404 806.487 352.176 806.359 351.998C806.231 351.819 806.073 351.672 805.866 351.555C805.665 351.438 805.434 351.333 805.173 351.247C804.911 351.161 804.649 351.081 804.376 350.989C804.102 350.896 803.834 350.798 803.578 350.681C803.317 350.564 803.086 350.417 802.885 350.232C802.684 350.047 802.52 349.82 802.392 349.543C802.264 349.266 802.203 348.927 802.203 348.521C802.203 348.195 802.264 347.881 802.392 347.58C802.52 347.278 802.696 347.008 802.934 346.774C803.171 346.54 803.463 346.349 803.81 346.208C804.156 346.066 804.558 345.999 805.008 345.999C805.513 345.999 805.976 346.079 806.396 346.245C806.815 346.405 807.18 346.645 807.491 346.952L807.193 347.543L807.199 347.555Z" fill="#212121"/>
<path d="M815.455 346.122V347.168H812.522V355.308H811.293V347.168H808.348V346.122H815.461H815.455Z" fill="#212121"/>
<path d="M818.096 351.475V355.308H816.873V346.122H819.44C820.012 346.122 820.511 346.183 820.931 346.3C821.351 346.417 821.698 346.589 821.965 346.811C822.239 347.032 822.44 347.303 822.568 347.617C822.702 347.931 822.762 348.281 822.762 348.669C822.762 348.995 822.714 349.297 822.61 349.58C822.507 349.863 822.361 350.115 822.172 350.337C821.978 350.558 821.746 350.755 821.467 350.909C821.187 351.069 820.876 351.186 820.523 351.266C820.676 351.358 820.809 351.487 820.931 351.659L823.578 355.308H822.489C822.264 355.308 822.099 355.222 821.996 355.044L819.635 351.764C819.562 351.659 819.483 351.586 819.398 351.543C819.313 351.499 819.185 351.475 819.021 351.475H818.09H818.096ZM818.096 350.57H819.38C819.739 350.57 820.055 350.527 820.329 350.441C820.603 350.355 820.828 350.232 821.01 350.072C821.193 349.912 821.333 349.721 821.424 349.5C821.515 349.278 821.564 349.032 821.564 348.761C821.564 348.214 821.387 347.801 821.028 347.525C820.669 347.248 820.14 347.106 819.434 347.106H818.09V350.577L818.096 350.57Z" fill="#212121"/>
<path d="M832.382 355.308H831.433C831.323 355.308 831.232 355.284 831.165 355.222C831.098 355.161 831.05 355.093 831.013 355.013L830.161 352.798H826.085L825.233 355.013C825.202 355.087 825.154 355.161 825.081 355.216C825.008 355.278 824.923 355.308 824.813 355.308H823.864L827.496 346.122H828.744L832.376 355.308H832.382ZM826.432 351.899H829.821L828.397 348.164C828.305 347.931 828.214 347.648 828.123 347.297C828.074 347.475 828.032 347.635 827.989 347.783C827.947 347.931 827.904 348.06 827.861 348.171L826.438 351.899H826.432Z" fill="#212121"/>
<path d="M838.88 346.122V347.168H835.947V355.308H834.718V347.168H831.773V346.122H838.886H838.88Z" fill="#212121"/>
<path d="M841.636 355.308H840.407V346.122H841.636V355.308Z" fill="#212121"/>
<path d="M852.503 350.718C852.503 351.407 852.393 352.035 852.18 352.613C851.967 353.186 851.663 353.684 851.268 354.096C850.872 354.509 850.404 354.835 849.85 355.062C849.296 355.29 848.688 355.407 848.019 355.407C847.349 355.407 846.741 355.29 846.193 355.062C845.646 354.835 845.171 354.515 844.782 354.096C844.386 353.684 844.082 353.186 843.869 352.613C843.656 352.041 843.547 351.407 843.547 350.718C843.547 350.029 843.656 349.401 843.869 348.823C844.082 348.251 844.386 347.752 844.782 347.334C845.177 346.915 845.646 346.595 846.193 346.362C846.741 346.128 847.349 346.017 848.019 346.017C848.688 346.017 849.296 346.134 849.85 346.362C850.404 346.595 850.872 346.915 851.268 347.334C851.663 347.752 851.967 348.245 852.18 348.823C852.393 349.395 852.503 350.029 852.503 350.718ZM851.243 350.718C851.243 350.152 851.17 349.647 851.012 349.198C850.86 348.749 850.647 348.368 850.367 348.06C850.087 347.752 849.753 347.512 849.351 347.346C848.956 347.18 848.511 347.094 848.019 347.094C847.526 347.094 847.094 347.18 846.692 347.346C846.297 347.512 845.956 347.752 845.676 348.06C845.396 348.368 845.177 348.749 845.025 349.198C844.873 349.647 844.794 350.152 844.794 350.718C844.794 351.284 844.867 351.789 845.025 352.232C845.177 352.681 845.396 353.056 845.676 353.364C845.956 353.672 846.297 353.912 846.692 354.078C847.088 354.244 847.532 354.324 848.019 354.324C848.505 354.324 848.956 354.244 849.351 354.078C849.747 353.912 850.087 353.678 850.367 353.364C850.647 353.056 850.86 352.675 851.012 352.232C851.164 351.783 851.243 351.278 851.243 350.718Z" fill="#212121"/>
<path d="M855.064 346.159C855.119 346.19 855.18 346.245 855.247 346.331L860.51 353.253C860.497 353.143 860.485 353.032 860.485 352.927C860.485 352.823 860.479 352.724 860.479 352.62V346.116H861.556V355.302H860.935C860.838 355.302 860.759 355.284 860.692 355.253C860.625 355.216 860.564 355.161 860.497 355.081L855.24 348.165C855.247 348.269 855.253 348.374 855.259 348.479C855.259 348.583 855.265 348.675 855.265 348.762V355.309H854.188V346.122H854.821C854.93 346.122 855.009 346.134 855.064 346.165V346.159Z" fill="#212121"/>
<path d="M809.578 315.953H824.618C834.262 315.953 842.093 323.872 842.093 333.625V333.692C842.093 336.043 840.2 337.957 837.876 337.957H796.326C794.002 337.957 792.109 336.043 792.109 333.692V333.625C792.109 323.872 799.94 315.953 809.584 315.953H809.578Z" fill="#FF8D29"/>
<path d="M837.876 334.714H796.326C794.354 334.714 792.699 333.341 792.237 331.489C792.152 332.191 792.103 332.898 792.103 333.618V333.686C792.103 336.043 793.989 337.95 796.32 337.95H837.87C840.2 337.95 842.086 336.043 842.086 333.686V333.618C842.086 332.898 842.038 332.185 841.953 331.489C841.496 333.341 839.841 334.714 837.87 334.714H837.876Z" fill="#D1690E"/>
<path d="M817.098 303C809.772 303 803.84 309.006 803.84 316.408V324.585H830.356V316.408C830.356 308.999 824.417 303 817.098 303ZM825.184 320.371H809.012V315.386C809.012 310.87 812.632 307.209 817.098 307.209C821.564 307.209 825.184 310.87 825.184 315.386V320.371Z" fill="#FF8D29"/>
<path d="M761.547 470.479L762.959 461.796C764.37 453.114 767.832 443.226 768.897 430.224C769.962 417.223 762.788 417.038 762.788 417.038C759.028 416.244 754.727 420.145 752.67 424.194V410.528L727.043 441.663C724.925 443.792 723.556 446.567 723.161 449.564L716.596 498.894L708.881 507.029L747.571 514.412C747.571 514.412 761.943 494.962 761.559 470.472L761.547 470.479ZM749.829 441.294C749.829 441.349 749.835 441.405 749.841 441.454C750.036 443.189 748.606 451.164 746.957 459.495L745.004 461.716L749.829 441.294Z" fill="#FDBA8A"/>
<path d="M765.198 434.538L754.349 432.464L756.053 423.327C756.619 420.299 759.503 418.305 762.503 418.878C765.496 419.45 767.467 422.367 766.902 425.4L765.198 434.538Z" fill="#FDD4B6"/>
<path d="M752.664 424.194C752.664 424.194 745.752 443.349 743.3 458.572C742.941 460.787 745.588 462.171 747.17 460.596C747.511 460.258 747.736 459.821 747.821 459.341C748.417 455.827 750.966 440.789 750.936 440.217C750.9 439.571 752.664 424.188 752.664 424.188V424.194Z" fill="#D49C73"/>
<path d="M758.688 417.702C758.615 417.745 758.536 417.782 758.463 417.831C758.755 417.819 759.059 417.831 759.363 417.874C759.095 417.788 758.864 417.733 758.688 417.702Z" fill="#E3A77B"/>
<path d="M761.547 470.478L762.959 461.796C764.37 453.114 767.832 443.225 768.897 430.224C769.962 417.222 762.788 417.037 762.788 417.037C762.612 417 762.436 416.976 762.265 416.951C764.218 417.591 768.124 420.089 767.321 429.922C766.257 442.918 762.795 452.812 761.383 461.494L759.971 470.176C760.355 494.666 745.983 514.117 745.983 514.117L747.565 514.418C747.565 514.418 761.937 494.968 761.553 470.478H761.547Z" fill="#E3A77B"/>
<path d="M754.664 509.754L705.531 500.375L702.596 516.095L751.73 525.475L754.664 509.754Z" fill="white"/>
<path d="M755.376 518.897L702.248 508.754L687 590.442L740.128 600.584L755.376 518.897Z" fill="#334756"/>
<path d="M887.348 514.418L926.039 507.034L918.324 498.899L911.759 449.569C911.363 446.573 909.994 443.797 907.877 441.668L882.25 410.533V424.199C880.193 420.151 875.891 416.25 872.131 417.043C872.131 417.043 864.958 417.228 866.022 430.23C867.087 443.225 870.549 453.12 871.961 461.802L873.372 470.484C872.989 494.974 887.36 514.424 887.36 514.424L887.348 514.418ZM889.904 461.722L887.951 459.5C886.302 451.169 884.872 443.194 885.067 441.459C885.067 441.41 885.079 441.355 885.079 441.299L889.904 461.722Z" fill="#FDBA8A"/>
<path d="M869.716 434.537L880.564 432.463L878.86 423.326C878.295 420.298 875.411 418.305 872.411 418.877C869.418 419.449 867.446 422.366 868.012 425.399L869.716 434.537Z" fill="#FDD4B6"/>
<path d="M882.25 424.193C882.25 424.193 889.161 443.348 891.613 458.571C891.972 460.786 889.326 462.171 887.744 460.596C887.403 460.257 887.178 459.82 887.093 459.34C886.497 455.827 883.947 440.788 883.978 440.216C884.014 439.57 882.25 424.187 882.25 424.187V424.193Z" fill="#D49C73"/>
<path d="M876.226 417.702C876.299 417.745 876.378 417.782 876.451 417.831C876.159 417.819 875.855 417.831 875.551 417.874C875.818 417.788 876.049 417.733 876.226 417.702Z" fill="#E3A77B"/>
<path d="M873.36 470.478L871.949 461.796C870.537 453.114 867.075 443.225 866.01 430.224C864.946 417.222 872.119 417.037 872.119 417.037C872.296 417 872.472 416.976 872.642 416.951C870.689 417.591 866.783 420.089 867.586 429.922C868.651 442.918 872.113 452.812 873.525 461.494L874.936 470.176C874.553 494.666 888.924 514.117 888.924 514.117L887.342 514.418C887.342 514.418 872.971 494.968 873.354 470.478H873.36Z" fill="#E3A77B"/>
<path d="M883.178 525.464L932.312 516.084L929.377 500.364L880.243 509.744L883.178 525.464Z" fill="white"/>
<path d="M894.796 600.588L947.924 590.445L932.676 508.758L879.548 518.901L894.796 600.588Z" fill="#334756"/>
<circle opacity="0.2" cx="453.5" cy="319.5" r="20.5" fill="#334756"/>
<circle opacity="0.2" cx="600.5" cy="524.5" r="20.5" fill="#334756"/>
<circle opacity="0.2" cx="640" cy="363" r="12" fill="#FF8D29"/>
<defs>
<filter id="filter0_d_2063_2" x="750.68" y="0.679998" width="179.64" height="179.64" filterUnits="userSpaceOnUse" color-interpolation-filters="sRGB">
<feFlood flood-opacity="0" result="BackgroundImageFix"/>
<feColorMatrix in="SourceAlpha" type="matrix" values="0 0 0 0 0 0 0 0 0 0 0 0 0 0 0 0 0 0 127 0" result="hardAlpha"/>
<feOffset/>
<feGaussianBlur stdDeviation="12.16"/>
<feComposite in2="hardAlpha" operator="out"/>
<feColorMatrix type="matrix" values="0 0 0 0 0.85 0 0 0 0 0.397196 0 0 0 0 0 0 0 0 0.5 0"/>
<feBlend mode="normal" in2="BackgroundImageFix" result="effect1_dropShadow_2063_2"/>
<feBlend mode="normal" in="SourceGraphic" in2="effect1_dropShadow_2063_2" result="shape"/>
</filter>
<filter id="filter1_d_2063_2" x="0.679998" y="339.68" width="151.64" height="151.64" filterUnits="userSpaceOnUse" color-interpolation-filters="sRGB">
<feFlood flood-opacity="0" result="BackgroundImageFix"/>
<feColorMatrix in="SourceAlpha" type="matrix" values="0 0 0 0 0 0 0 0 0 0 0 0 0 0 0 0 0 0 127 0" result="hardAlpha"/>
<feOffset/>
<feGaussianBlur stdDeviation="12.16"/>
<feComposite in2="hardAlpha" operator="out"/>
<feColorMatrix type="matrix" values="0 0 0 0 0.85 0 0 0 0 0.397196 0 0 0 0 0 0 0 0 0.5 0"/>
<feBlend mode="normal" in2="BackgroundImageFix" result="effect1_dropShadow_2063_2"/>
<feBlend mode="normal" in="SourceGraphic" in2="effect1_dropShadow_2063_2" result="shape"/>
</filter>
<filter id="filter2_d_2063_2" x="882.703" y="234.703" width="98.5946" height="98.5946" filterUnits="userSpaceOnUse" color-interpolation-filters="sRGB">
<feFlood flood-opacity="0" result="BackgroundImageFix"/>
<feColorMatrix in="SourceAlpha" type="matrix" values="0 0 0 0 0 0 0 0 0 0 0 0 0 0 0 0 0 0 127 0" result="hardAlpha"/>
<feOffset/>
<feGaussianBlur stdDeviation="8.64865"/>
<feComposite in2="hardAlpha" operator="out"/>
<feColorMatrix type="matrix" values="0 0 0 0 0 0 0 0 0 0.280952 0 0 0 0 0.491667 0 0 0 0.5 0"/>
<feBlend mode="normal" in2="BackgroundImageFix" result="effect1_dropShadow_2063_2"/>
<feBlend mode="normal" in="SourceGraphic" in2="effect1_dropShadow_2063_2" result="shape"/>
</filter>
<filter id="filter3_f_2063_2" x="768" y="327" width="354" height="354" filterUnits="userSpaceOnUse" color-interpolation-filters="sRGB">
<feFlood flood-opacity="0" result="BackgroundImageFix"/>
<feBlend mode="normal" in="SourceGraphic" in2="BackgroundImageFix" result="shape"/>
<feGaussianBlur stdDeviation="50" result="effect1_foregroundBlur_2063_2"/>
</filter>
<linearGradient id="paint0_linear_2063_2" x1="790.757" y1="49.408" x2="885.917" y2="144.259" gradientUnits="userSpaceOnUse">
<stop stop-color="#FF8D29"/>
<stop offset="1" stop-color="#FFB97B"/>
</linearGradient>
<linearGradient id="paint1_linear_2063_2" x1="37.3892" y1="383.191" x2="112.21" y2="457.769" gradientUnits="userSpaceOnUse">
<stop stop-color="#FF8D29"/>
<stop offset="1" stop-color="#FFB97B"/>
</linearGradient>
<linearGradient id="paint2_linear_2063_2" x1="907.698" y1="263.925" x2="954.189" y2="310.264" gradientUnits="userSpaceOnUse">
<stop stop-color="#334756"/>
<stop offset="1" stop-color="#82A6C0"/>
</linearGradient>
</defs>
</svg>
