<svg width="88" height="88" viewBox="0 0 88 88" fill="none" xmlns="http://www.w3.org/2000/svg">
<g clip-path="url(#clip0_11632_105)">
<rect y="43.8408" width="62" height="62" rx="10" transform="rotate(-45 0 43.8408)" fill="white"/>
<path d="M36.9289 6.07106C40.8342 2.16582 47.1658 2.16582 51.0711 6.07107L81.9289 36.9289C85.8342 40.8342 85.8342 47.1658 81.9289 51.0711L51.0711 81.9289C47.1658 85.8342 40.8342 85.8342 36.9289 81.9289L6.07106 51.0711C2.16582 47.1658 2.16582 40.8342 6.07107 36.9289L36.9289 6.07106Z" fill="#F95A00"/>
<path d="M44.2 25C41.9024 25 39.656 25.4016 37.5216 26.1936L38.0784 27.6936C40.0336 26.968 42.0936 26.6 44.2 26.6C53.9048 26.6 61.8 34.4952 61.8 44.2C61.8 53.9048 53.9048 61.8 44.2 61.8C34.4952 61.8 26.6 53.9048 26.6 44.2C26.6 38.924 28.9704 33.964 33 30.6336V36.2H34.6V28.2H26.6V29.8H31.5008C27.3944 33.424 25 38.6544 25 44.2C25 54.7864 33.6136 63.4 44.2 63.4C54.7864 63.4 63.4 54.7864 63.4 44.2C63.4 33.6136 54.7864 25 44.2 25Z" fill="white" stroke="white"/>
<path d="M39.4 50.6002H37.8V52.2002H50.6V50.6002H49L49 47.869L45.3312 44.2002L49 40.5314V37.8002H50.6V36.2002H37.8V37.8002H39.4V40.5314L43.0688 44.2002L39.4 47.869V50.6002ZM41 39.869V37.8002H47.4V39.869L44.2 43.069L41 39.869ZM44.2 45.3314L47.4 48.5314V50.6002H41V48.5314L44.2 45.3314Z" fill="white" stroke="white"/>
<path d="M40.9997 55.3999H39.4V56.9995H40.9997V55.3999Z" fill="white" stroke="white"/>
<path d="M44.9997 55.3999H43.4V56.9995H44.9997V55.3999Z" fill="white" stroke="white"/>
<path d="M48.9997 55.3999H47.4V56.9995H48.9997V55.3999Z" fill="white" stroke="white"/>
</g>
<defs>
<clipPath id="clip0_11632_105">
<rect y="43.8408" width="62" height="62" rx="10" transform="rotate(-45 0 43.8408)" fill="white"/>
</clipPath>
</defs>
</svg>
