<svg width="61" height="61" viewBox="0 0 61 61" fill="none" xmlns="http://www.w3.org/2000/svg">
<path d="M13.0789 18.9874C13.03 22.9153 14.3344 26.2713 17.143 29.0316C17.2136 29.1007 17.281 29.191 17.3323 29.2879C17.3864 29.3895 17.4231 29.4987 17.4278 29.5983L17.4363 29.7701V29.7758C17.4687 30.4209 17.5016 31.0728 17.415 31.7066C17.3713 32.025 17.4436 32.2134 17.5966 32.3938C17.6408 32.4458 17.6919 32.4973 17.7488 32.551C20.316 34.9879 22.8759 37.4324 25.4396 39.8748C25.5989 40.0268 25.7629 40.1753 25.9246 40.3211L26.1215 40.4996C26.2305 40.436 26.2977 40.4124 26.3447 40.3689C29.1405 37.7102 31.9363 35.0515 34.7212 32.3839C34.8247 32.2841 34.9044 32.0898 34.89 31.9482C34.7522 30.4663 34.8737 29.2096 36.062 27.9728C38.2772 25.6631 39.2005 22.712 39.2133 19.5049C39.2221 17.3987 39.2197 15.2917 39.2173 13.1682V13.1576L39.2166 12.6735C39.2159 11.8501 39.2152 11.0242 39.2152 10.1945L44.6597 8.99409C44.6597 9.33141 44.6496 9.66401 44.6397 9.99189V10.0203C44.6269 10.4521 44.6141 10.8769 44.6233 11.2963C44.6262 11.4294 44.6314 11.562 44.6394 11.6941C44.6491 11.8565 44.6635 12.0182 44.6834 12.1792C44.9065 13.9916 44.4657 15.4626 42.9199 16.5231C42.9069 16.5323 42.8958 16.5441 42.8845 16.5562L42.8707 16.5704C42.7613 16.68 42.6722 16.7945 42.6074 16.9148C42.5521 17.0181 42.5145 17.1256 42.4973 17.2382C42.4701 17.4143 42.4928 17.6027 42.575 17.8053C42.771 18.2901 43.1539 18.4863 43.6473 18.4898C43.8948 18.4908 44.1425 18.4927 44.3903 18.495L45.1001 18.5024L45.5765 18.5057C45.8018 18.5066 46.027 18.5069 46.2521 18.5054L46.557 18.5024C46.9932 18.4965 47.4288 18.4837 47.8635 18.4589C47.9898 18.452 48.1319 18.4066 48.2701 18.3369C48.5335 18.2038 48.7833 17.9814 48.8833 17.767C48.984 17.5488 48.9205 17.1805 48.7885 16.885C48.7448 16.7869 48.6935 16.6968 48.6384 16.6231C48.3815 16.2806 48.0713 15.9792 47.7605 15.6773C47.5489 15.4716 47.3371 15.266 47.1416 15.0468C46.9802 14.8651 46.8568 14.5819 46.8532 14.3422C46.8296 12.5026 46.8331 10.663 46.8494 8.82507C46.8494 8.62721 46.9293 8.36766 47.0671 8.24048C47.7621 7.60294 48.0905 6.8602 47.8328 5.92504C47.5678 4.96247 46.875 4.50505 45.9351 4.29798C43.3362 3.72379 40.7385 3.14652 38.1408 2.56926L34.9287 1.85608C33.0676 1.44287 31.2065 1.03084 29.3447 0.620941C28.5058 0.436321 27.6666 0.252174 26.8274 0.0684992C26.5995 0.0183847 26.3558 -0.00336313 26.1121 0.000419102C25.8785 0.00420133 25.645 0.0313861 25.4249 0.0793731C23.1511 0.578627 20.8777 1.08072 18.6046 1.58446C16.2534 2.1057 13.9028 2.6286 11.5521 3.15149L6.32266 4.31429C5.11447 4.58306 4.3741 5.41468 4.37953 6.50987C4.38497 7.60294 5.12156 8.42013 6.34276 8.68891L13.0863 10.1853C13.0863 11.1114 13.0891 12.0291 13.0917 12.9411C13.0952 14.1112 13.0988 15.2719 13.0964 16.4285C13.0955 16.8183 13.0941 17.2074 13.0917 17.5963L13.0851 18.422L13.0789 18.9874Z" fill="white"/>
<path d="M14.6181 35.5761C15.6776 36.5826 16.7364 37.5882 17.7942 38.5964L24.4472 44.9342C25.5793 46.0129 26.7203 46.0183 27.8543 44.9378C31.4829 41.4785 35.1093 38.017 38.7379 34.5558C38.7873 34.5083 38.8372 34.4613 38.8878 34.4142L38.9909 34.3185L39.2913 34.0419C43.0904 36.2755 46.131 39.2375 48.4115 42.9656C50.9551 47.1242 52.2342 51.655 52.2796 56.531C52.2869 57.2575 52.2885 57.9839 52.2796 58.7103C52.2614 60.0705 51.3687 60.9711 50.0244 60.9983C49.9192 61.0002 49.8133 61.0002 49.7076 60.9997L49.6091 60.999L49.4131 60.9983H2.67776C0.819966 60.9983 0.0654076 60.2048 0.0145836 58.3578C-0.106921 54.0104 0.518804 49.81 2.34397 45.8313C4.58283 40.9499 7.98992 37.1036 12.5674 34.2979C12.6052 34.275 12.6435 34.253 12.683 34.2312C12.7338 34.2031 12.7865 34.175 12.8425 34.1454C12.8967 34.1166 12.9539 34.0863 13.0153 34.0528L14.6181 35.5761Z" fill="white"/>
<path fill-rule="evenodd" clip-rule="evenodd" d="M50.9059 37.1894C51.7895 37.571 52.7334 37.7617 53.7381 37.7617C54.7427 37.7617 55.6867 37.571 56.5703 37.1894C57.4537 36.8084 58.2224 36.2911 58.8758 35.6375C59.5294 34.9841 60.0466 34.2154 60.4277 33.332C60.8092 32.4484 61 31.5045 61 30.4998C61 29.4952 60.8092 28.5513 60.4277 27.6677C60.0466 26.7843 59.5294 26.0155 58.8758 25.3622C58.2224 24.7085 57.4537 24.1908 56.5703 23.8096C55.6867 23.4285 54.7427 23.238 53.7381 23.238C52.7334 23.238 51.7895 23.4285 50.9059 23.8096C50.0225 24.1908 49.2538 24.7085 48.6004 25.3622C47.9468 26.0155 47.4295 26.7843 47.0485 27.6677C46.6669 28.5513 46.4762 29.4952 46.4762 30.4998C46.4762 31.5045 46.6669 32.4484 47.0485 33.332C47.4295 34.2154 47.9468 34.9841 48.6004 35.6375C49.2538 36.2911 50.0225 36.8084 50.9059 37.1894ZM50.8782 31.2709C50.6667 31.483 50.4097 31.5891 50.1071 31.5891C49.9613 31.5891 49.8258 31.5643 49.701 31.5149C49.5672 31.4619 49.4455 31.3806 49.336 31.2709C49.1805 31.1156 49.0817 30.936 49.0403 30.7317C49.0254 30.6577 49.0178 30.5805 49.0178 30.4998C49.0178 30.3318 49.0507 30.1776 49.1162 30.0375C49.1687 29.9257 49.2419 29.8228 49.336 29.7287C49.5476 29.5167 49.8046 29.4106 50.1071 29.4106C50.4097 29.4106 50.6667 29.5167 50.8782 29.7287C51.0903 29.9403 51.1964 30.1973 51.1964 30.4998C51.1964 30.727 51.1366 30.9284 51.017 31.1043C50.9773 31.1627 50.931 31.2182 50.8782 31.2709ZM54.1298 31.5206C54.009 31.5662 53.8785 31.5891 53.7381 31.5891C53.6123 31.5891 53.4946 31.5709 53.3847 31.5343C53.2298 31.4827 53.0906 31.395 52.967 31.2709C52.8384 31.1426 52.7488 30.9977 52.6982 30.836C52.6653 30.731 52.6488 30.619 52.6488 30.4998C52.6488 30.3405 52.6781 30.194 52.737 30.0599C52.7899 29.9394 52.8665 29.829 52.967 29.7287C53.1786 29.5167 53.4355 29.4106 53.7381 29.4106C54.0407 29.4106 54.2976 29.5167 54.5092 29.7287C54.7212 29.9403 54.8274 30.1973 54.8274 30.4998C54.8274 30.7012 54.7803 30.8823 54.6865 31.0433C54.6392 31.1241 54.5801 31.2 54.5092 31.2709C54.3957 31.3846 54.2693 31.4679 54.1298 31.5206ZM58.1402 31.2709C57.9286 31.483 57.6716 31.5891 57.369 31.5891C57.0665 31.5891 56.8095 31.483 56.5979 31.2709C56.3859 31.0594 56.2798 30.8024 56.2798 30.4998C56.2798 30.1973 56.3859 29.9403 56.5979 29.7287C56.8095 29.5167 57.0665 29.4106 57.369 29.4106C57.6716 29.4106 57.9286 29.5167 58.1402 29.7287C58.3059 29.8942 58.407 30.0873 58.4432 30.3084C58.4534 30.3701 58.4583 30.4339 58.4583 30.4998C58.4583 30.8024 58.3522 31.0594 58.1402 31.2709Z" fill="white"/>
</svg>
