<svg width="25" height="19" viewBox="0 0 25 19" fill="none" xmlns="http://www.w3.org/2000/svg">
<path d="M22.5 0.5H2.5C1.41 0.54 0.54 1.41 0.5 2.5V16.5C0.54 17.59 1.41 18.46 2.5 18.5H22.5C23.59 18.46 24.46 17.59 24.5 16.5V2.5C24.4816 1.97543 24.265 1.47734 23.8938 1.10619C23.5227 0.735027 23.0246 0.518405 22.5 0.5ZM22.5 16.5H2.5V2.5H22.5V16.5ZM14.5 14.5V13.25C14.5 11.59 11.16 10.75 9.5 10.75C7.84 10.75 4.5 11.59 4.5 13.25V14.5H14.5ZM9.5 4.5C8.83696 4.5 8.20107 4.76339 7.73223 5.23223C7.26339 5.70107 7 6.33696 7 7C7 7.3283 7.06466 7.65339 7.1903 7.95671C7.31594 8.26002 7.50009 8.53562 7.73223 8.76777C8.20107 9.23661 8.83696 9.5 9.5 9.5C9.8283 9.5 10.1534 9.43534 10.4567 9.3097C10.76 9.18406 11.0356 8.99991 11.2678 8.76777C11.4999 8.53562 11.6841 8.26002 11.8097 7.95671C11.9353 7.65339 12 7.3283 12 7C12 6.6717 11.9353 6.34661 11.8097 6.04329C11.6841 5.73998 11.4999 5.46438 11.2678 5.23223C11.0356 5.00009 10.76 4.81594 10.4567 4.6903C10.1534 4.56466 9.8283 4.5 9.5 4.5ZM14.5 4.5V5.5H20.5V4.5H14.5ZM14.5 6.5V7.5H20.5V6.5H14.5ZM14.5 8.5V9.5H18.5V8.5H14.5Z" fill="#334756"/>
</svg>
