<svg width="24" height="22" viewBox="0 0 24 22" fill="none" xmlns="http://www.w3.org/2000/svg">
<path d="M17.36 22C17.36 22 17.31 22 17.29 22L15.03 21.56C14.82 21.52 14.69 21.32 14.72 21.11C14.74 20.99 14.76 20.86 14.78 20.74C14.83 20.45 14.88 20.17 14.93 19.89C14.95 19.86 14.94 19.83 14.91 19.81C14.91 19.81 14.89 19.81 14.88 19.8C14.73 19.72 14.59 19.62 14.45 19.52C14.44 19.52 14.42 19.5 14.41 19.5C14.39 19.5 14.38 19.51 14.37 19.52C14.14 19.68 13.91 19.84 13.66 20.01L13.35 20.23C13.18 20.35 12.93 20.31 12.81 20.13L12.74 20.02H5.42003C5.21003 20.02 5.03003 19.85 5.03003 19.63V17.7C5.03003 17.65 5.03003 17.61 4.88003 17.61C4.73003 17.61 4.74003 17.65 4.74003 17.69V19.63C4.74003 19.84 4.57003 20.02 4.35003 20.02H1.41003C1.20003 20.02 1.03003 19.86 1.02003 19.65C1.02003 19.54 0.92003 16.99 1.02003 15.75C1.13003 12.91 2.82003 10.37 5.40003 9.17C5.36003 9.12 5.32003 9.06999 5.28003 9.00999C4.20003 7.60999 3.83003 5.78001 4.30003 4.07001C4.72003 2.42001 5.88003 1.05999 7.45003 0.399994C8.07003 0.139994 8.74003 0 9.42003 0H9.44003C11.56 0.01 13.45 1.31 14.23 3.27C15.09 5.23 14.77 7.51 13.4 9.16C13.63 9.28 13.86 9.4 14.11 9.53L14.49 9.73C14.49 9.73 14.55 9.77 14.58 9.8L14.69 9.72C14.86 9.6 15.11 9.64001 15.23 9.82001L15.43 10.12C15.58 10.35 15.74 10.57 15.89 10.79C15.91 10.82 15.93 10.85 15.96 10.88C16 10.88 16.04 10.87 16.07 10.86C16.21 10.82 16.36 10.8 16.5 10.78C16.52 10.78 16.54 10.78 16.56 10.77C16.56 10.77 16.59 10.71 16.59 10.68C16.64 10.4 16.69 10.13 16.74 9.85001C16.76 9.73001 16.79 9.61 16.81 9.48C16.85 9.27 17.05 9.13 17.26 9.17L19.52 9.61C19.73 9.65 19.86 9.85 19.83 10.06L19.76 10.43C19.71 10.71 19.66 10.98 19.61 11.25C19.58 11.28 19.59 11.34 19.62 11.36C19.63 11.37 19.65 11.38 19.67 11.38C19.81 11.46 19.94 11.54 20.06 11.64C20.07 11.65 20.09 11.66 20.11 11.67C20.13 11.67 20.15 11.65 20.17 11.63C20.4 11.47 20.62 11.31 20.86 11.14L21.17 10.93C21.34 10.81 21.59 10.85 21.71 11.02L23 12.95C23.12 13.12 23.07 13.36 22.9 13.48L22.01 14.11C21.94 14.16 21.9 14.19 21.88 14.21C21.88 14.25 21.88 14.3 21.88 14.36C21.88 14.39 21.88 14.43 21.88 14.47C21.9 14.82 22 14.92 22.36 14.93C22.51 14.93 22.67 14.96 22.81 15C22.89 15.02 22.96 15.04 23.04 15.05C23.2 15.06 23.35 15.15 23.45 15.27C23.54 15.4 23.57 15.56 23.53 15.71C23.43 16.23 23.33 16.75 23.23 17.3L23.12 17.87C23.08 18.08 22.88 18.22 22.67 18.18L22.32 18.11C22.06 18.06 21.82 18.02 21.57 17.97C21.52 17.97 21.47 17.95 21.43 17.95C21.4 17.99 21.38 18.02 21.36 18.06C21.32 18.14 21.26 18.22 21.2 18.32C21.18 18.35 21.13 18.43 21.1 18.47C21.13 18.52 21.18 18.6 21.2 18.64L21.61 19.26L21.81 19.57C21.93 19.74 21.88 19.98 21.71 20.1L19.83 21.42C19.66 21.54 19.41 21.5 19.29 21.32L19.11 21.06L18.69 20.44C18.64 20.36 18.6 20.31 18.57 20.28C18.53 20.28 18.48 20.28 18.43 20.29H18.3C18 20.32 17.9 20.39 17.87 20.77C17.85 20.98 17.81 21.19 17.76 21.4C17.74 21.49 17.72 21.58 17.7 21.67C17.67 21.85 17.52 21.98 17.34 21.99L17.36 22ZM15.54 20.87L17.06 21.17C17.09 21.03 17.12 20.89 17.13 20.75C17.1 20.12 17.58 19.59 18.21 19.57C18.23 19.57 18.25 19.57 18.27 19.57H18.39C18.79 19.46 19.2 19.67 19.36 20.04L19.74 20.6L21 19.72L20.59 19.1C20.27 18.77 20.27 18.25 20.59 17.93C20.64 17.85 20.69 17.78 20.72 17.72C20.88 17.31 21.34 17.1 21.75 17.24C21.99 17.29 22.22 17.33 22.47 17.37L22.51 17.18C22.6 16.7 22.68 16.25 22.77 15.8L22.68 15.78C22.58 15.75 22.47 15.74 22.37 15.73C21.74 15.77 21.2 15.29 21.16 14.66C21.16 14.63 21.16 14.59 21.16 14.56C21.16 14.52 21.16 14.49 21.16 14.46C21.07 14.08 21.26 13.69 21.61 13.52L22.2 13.1L21.34 11.81C21.11 11.97 20.89 12.12 20.67 12.28C20.37 12.53 19.93 12.52 19.63 12.27C19.53 12.2 19.43 12.13 19.32 12.07C18.96 11.91 18.78 11.51 18.88 11.13C18.93 10.86 18.98 10.59 19.02 10.32L17.52 10.03C17.47 10.31 17.42 10.57 17.37 10.84C17.33 11.24 17.01 11.55 16.62 11.58C16.5 11.6 16.39 11.62 16.28 11.65C15.9 11.8 15.46 11.64 15.28 11.27C15.13 11.05 14.98 10.84 14.83 10.62L13.57 11.5C13.65 11.63 13.74 11.75 13.81 11.88C13.86 11.95 13.9 12.02 13.94 12.08C14.1 12.26 14.19 12.49 14.2 12.72C14.17 13.02 14.04 13.3 13.84 13.52C13.65 13.93 13.18 14.13 12.76 13.98C12.54 13.94 12.32 13.9 12.1 13.86L11.81 15.41C12.09 15.47 12.35 15.52 12.61 15.57C12.98 15.62 13.27 15.92 13.31 16.3C13.33 16.41 13.34 16.54 13.37 16.65C13.52 17.03 13.37 17.47 13 17.66L12.38 18.11L13.25 19.41C13.49 19.24 13.71 19.09 13.94 18.93C14.23 18.7 14.64 18.71 14.93 18.93C15.04 19.01 15.16 19.09 15.28 19.16C15.62 19.33 15.79 19.71 15.7 20.08C15.65 20.34 15.6 20.61 15.56 20.89L15.54 20.87ZM1.80003 19.26H3.98003V17.71C4.02003 17.2 4.45003 16.82 4.96003 16.86C5.42003 16.89 5.78003 17.26 5.81003 17.72V19.27H12.22L11.51 18.21C11.39 18.04 11.44 17.8 11.61 17.68L11.89 17.48L12.53 17.02C12.53 17.02 12.6 16.97 12.63 16.94C12.63 16.9 12.61 16.85 12.6 16.81C12.57 16.67 12.54 16.53 12.52 16.38C12.52 16.36 12.52 16.34 12.5 16.33C12.5 16.33 12.46 16.31 12.44 16.31C12.17 16.26 11.9 16.2 11.62 16.14L11.26 16.06C11.06 16.02 10.92 15.82 10.96 15.61L11.39 13.31C11.43 13.1 11.63 12.96 11.84 13L12.17 13.06C12.42 13.1 12.65 13.15 12.89 13.19C12.95 13.2 13.01 13.21 13.07 13.22C13.1 13.18 13.16 13.11 13.21 13.04C13.3 12.94 13.37 12.82 13.42 12.69C13.38 12.62 13.34 12.56 13.3 12.49C13.25 12.43 13.2 12.35 13.15 12.27C13.06 12.12 12.96 11.97 12.85 11.82L12.7 11.59C12.58 11.42 12.63 11.18 12.8 11.06L13.88 10.3L13.75 10.23C13.43 10.06 13.14 9.91 12.84 9.75C12.79 9.8 12.73 9.84 12.67 9.89C11.59 10.78 10.19 11.19 8.79003 11.03C7.74003 10.91 6.75003 10.46 5.96003 9.75C5.94003 9.76 5.92003 9.77999 5.90003 9.78999C3.49003 10.85 1.90003 13.19 1.79003 15.82C1.72003 16.74 1.76003 18.49 1.79003 19.26H1.80003ZM9.42003 0.779999C8.85003 0.779999 8.28003 0.899995 7.76003 1.12C6.41003 1.69 5.42003 2.86 5.06003 4.27C4.66003 5.75 4.97003 7.32999 5.91003 8.53999C7.36003 10.47 10.09 10.86 12.03 9.42C12.09 9.38 12.15 9.33 12.2 9.28C13.87 7.9 14.41 5.58001 13.54 3.60001C12.87 1.91001 11.24 0.799999 9.42003 0.779999Z" fill="#FF8D29"/>
<path d="M17.28 17.67C16.73 17.67 16.21 17.44 15.83 17.05C15.44 16.66 15.23 16.13 15.23 15.57C15.23 15.02 15.45 14.49 15.84 14.1C16.22 13.71 16.74 13.49 17.29 13.49C18.45 13.52 19.36 14.48 19.33 15.63C19.32 16.17 19.1 16.68 18.72 17.06C18.34 17.45 17.82 17.66 17.28 17.66V17.67ZM15.91 15.57C15.91 15.94 16.05 16.3 16.32 16.57C16.57 16.83 16.92 16.98 17.28 16.98C17.64 16.98 17.99 16.84 18.24 16.58C18.79 16.03 18.79 15.13 18.24 14.58C17.99 14.33 17.65 14.18 17.29 14.17C16.93 14.17 16.58 14.32 16.32 14.58C16.06 14.84 15.91 15.2 15.91 15.57Z" fill="#FF8D29"/>
</svg>
