<svg width="217" height="213" viewBox="0 0 217 213" fill="none" xmlns="http://www.w3.org/2000/svg">
<path d="M153.787 22.2408V206.806C153.787 209.978 151.212 212.551 148.035 212.551H5.78829C2.60105 212.566 0.0181858 209.921 0.0362268 206.806V22.2408C0.0362268 19.0683 2.61158 16.4951 5.78829 16.4951H148.035C151.212 16.4951 153.787 19.0683 153.787 22.2408Z" fill="#334756"/>
<path opacity="0.1" d="M153.787 22.2419V206.807C153.787 209.979 151.212 212.553 148.035 212.553H5.78817C2.83997 212.553 0.41196 210.338 0.0751953 207.484C0.314238 207.073 0.440525 206.854 0.440525 206.854C0.440525 206.854 143 200.159 143 17.0055L143.596 16.4948C148.21 16.2694 153.473 16.2815 153.784 22.2404L153.787 22.2419Z" fill="white"/>
<path d="M143.002 25.2539H10.8198V198.804H143.002V25.2539Z" fill="white"/>
<path d="M118.132 96.5417C102.33 96.2593 102.333 72.7946 118.132 72.5137C133.933 72.7961 133.932 96.2608 118.132 96.5417ZM118.132 74.4454C104.871 74.6827 104.874 94.3742 118.132 94.61C131.392 94.3727 131.391 74.6812 118.132 74.4454Z" fill="#FFAF69"/>
<path d="M119.422 90.3239C118.271 90.7475 112.436 83.8527 111.594 83.3029C109.816 81.5109 112.532 78.7905 114.329 80.5705L119.422 85.6598L130.878 74.2135C132.67 72.438 135.395 75.1494 133.613 76.9459C133.055 77.2088 120.031 91.3002 119.422 90.3239Z" fill="#212121"/>
<path d="M118.132 176.564C102.33 176.28 102.333 152.817 118.132 152.536C133.933 152.818 133.932 176.283 118.132 176.564ZM118.132 154.467C104.871 154.705 104.874 174.396 118.132 174.632C131.392 174.395 131.391 154.703 118.132 154.467Z" fill="#FFAF69"/>
<path d="M119.422 169.987C118.271 170.411 112.436 163.516 111.594 162.966C109.816 161.174 112.532 158.455 114.329 160.234L119.422 165.323L130.878 153.877C132.67 152.101 135.395 154.812 133.613 156.609C133.055 156.872 120.031 170.963 119.422 169.987Z" fill="#212121"/>
<path d="M118.132 136.552C102.33 136.269 102.333 112.805 118.132 112.524C133.933 112.807 133.932 136.272 118.132 136.552ZM118.132 114.456C104.871 114.693 104.874 134.385 118.132 134.621C131.392 134.383 131.391 114.692 118.132 114.456Z" fill="#FFAF69"/>
<path d="M119.422 130.155C118.266 130.574 112.439 123.687 111.594 123.134C109.816 121.342 112.532 118.622 114.329 120.402L119.422 125.491L130.878 114.045C132.67 112.27 135.395 114.981 133.613 116.777C133.076 117.028 119.997 131.153 119.422 130.155Z" fill="#212121"/>
<path d="M118.775 12.9529H103.24V3.94159C103.24 1.7635 101.474 0 99.2937 0H54.531C52.3511 0 50.5846 1.765 50.5846 3.94159V12.9529C30.7816 13.8616 30.6628 8.01085 31.1033 28.2445C31.1033 30.4226 32.8683 32.1876 35.0483 32.1876H118.775C120.955 32.1876 122.72 30.4226 122.72 28.2445V16.8959C122.72 14.7179 120.953 12.9529 118.775 12.9529ZM76.9124 10.4218C73.5282 10.3647 73.5297 5.33406 76.9124 5.27698C80.2951 5.33556 80.2951 10.3647 76.9124 10.4218Z" fill="#FF8D29"/>
<path opacity="0.1" d="M122.721 16.8959V28.2445C122.721 30.4226 120.955 32.1876 118.776 32.1876H35.0497C32.8697 32.1876 31.1047 30.4226 31.1047 28.2445C31.1047 28.2445 99.2936 31.9953 99.2936 0C101.474 0 103.24 1.765 103.24 3.94159V12.9529H118.775C120.955 12.9529 122.72 14.7179 122.72 16.8959H122.721Z" fill="black"/>
<path opacity="0.3" d="M76.9115 0C52.4179 0 50.5837 12.9529 50.5837 12.9529V3.94159C50.5837 1.7635 52.3503 0 54.5302 0H76.9115Z" fill="white"/>
<path d="M59.1698 54.8399C58.5654 53.8666 58.0933 53.2011 57.725 52.8061C57.5792 52.6498 57.4168 52.4981 57.2409 52.3509C57.8874 52.1241 58.4136 51.7876 58.8135 51.3445C59.4269 50.6655 59.7381 49.8003 59.7381 48.7743C59.7381 47.9707 59.5351 47.2437 59.1352 46.6113C58.7263 45.9669 58.173 45.5117 57.4875 45.2579C56.8425 45.019 55.8668 44.9019 54.5062 44.9019H49.3796C49.1074 44.9019 48.8879 45.1212 48.8879 45.393V57.4476C48.8879 57.7195 49.1074 57.9388 49.3796 57.9388H51.8151C52.0872 57.9388 52.3067 57.7195 52.3067 57.4476V52.9067H52.3082C52.9321 52.9067 53.2313 52.9653 53.3711 53.0148C53.553 53.0779 53.7334 53.2056 53.9093 53.3904C54.0537 53.5436 54.3859 53.9642 55.1421 55.0983L56.9026 57.721C56.9944 57.8577 57.1477 57.9388 57.3116 57.9388H60.2252C60.4041 57.9388 60.5695 57.8412 60.6552 57.685C60.7424 57.5287 60.7363 57.338 60.6416 57.1863L59.1698 54.8369V54.8399ZM52.3052 47.9271H53.7139C54.9482 47.9271 55.312 47.9497 55.4173 47.9632C55.6954 48.0098 55.8969 48.1119 56.0367 48.2726C56.175 48.4319 56.2411 48.6467 56.2411 48.9336C56.2411 49.1964 56.1885 49.4022 56.0803 49.5615C55.9765 49.7132 55.8337 49.8183 55.6458 49.8829C55.5375 49.919 55.1241 50.0046 53.6147 50.0046H52.3037V47.9286L52.3052 47.9271Z" fill="#212121"/>
<path d="M71.1461 44.9048H68.7106C68.4385 44.9048 68.219 45.1241 68.219 45.396V52.0654C68.219 52.9862 68.1859 53.6472 68.1197 54.0287C68.0686 54.3201 67.9198 54.5635 67.6627 54.7708C67.4026 54.9796 66.9801 55.0862 66.4073 55.0862C65.8345 55.0862 65.3986 54.969 65.0964 54.7392C64.7987 54.5124 64.6138 54.218 64.5356 53.847C64.498 53.6592 64.4544 53.1725 64.4544 51.9272V45.3975C64.4544 45.1256 64.2349 44.9063 63.9628 44.9063H61.5273C61.2551 44.9063 61.0356 45.1256 61.0356 45.3975V51.8281C61.0356 53.2266 61.1183 54.2646 61.2867 54.9991C61.413 55.5354 61.6761 56.0521 62.067 56.5328C62.4609 57.0164 62.9961 57.4115 63.6591 57.7074C64.3251 58.0048 65.2482 58.149 66.481 58.149C67.4958 58.149 68.3392 58.0139 68.9887 57.7465C69.6502 57.4746 70.1914 57.0991 70.5944 56.6304C71.0003 56.1587 71.2814 55.5774 71.4303 54.903C71.5716 54.2645 71.6392 53.2266 71.6392 51.7305V45.399C71.6392 45.1271 71.4197 44.9078 71.1476 44.9078L71.1461 44.9048Z" fill="#212121"/>
<path d="M82.2727 54.9294H76.7071V45.4961C76.7071 45.2242 76.4876 45.0049 76.2155 45.0049H73.7799C73.5078 45.0049 73.2883 45.2242 73.2883 45.4961V57.453C73.2883 57.7249 73.5078 57.9442 73.7799 57.9442H82.2742C82.5464 57.9442 82.7659 57.7249 82.7659 57.453V55.4221C82.7659 55.1503 82.5464 54.9309 82.2742 54.9309L82.2727 54.9294Z" fill="#212121"/>
<path d="M93.1863 54.9285H86.9381V52.6302H92.5037C92.7758 52.6302 92.9953 52.4109 92.9953 52.139V50.1082C92.9953 49.8363 92.7758 49.617 92.5037 49.617H86.9381V47.9271H92.9563C93.2284 47.9271 93.4479 47.7078 93.4479 47.4359V45.396C93.4479 45.1241 93.2284 44.9048 92.9563 44.9048H84.0094C83.7373 44.9048 83.5178 45.1241 83.5178 45.396V57.4506C83.5178 57.7224 83.7373 57.9418 84.0094 57.9418H93.1863C93.4584 57.9418 93.6779 57.7224 93.6779 57.4506V55.4197C93.6779 55.1478 93.4584 54.9285 93.1863 54.9285Z" fill="#212121"/>
<path d="M104.382 51.7607C104.015 51.1704 103.504 50.6987 102.859 50.3592C102.249 50.0378 101.351 49.7404 100.114 49.4489C98.612 49.0944 98.1896 48.8391 98.0783 48.7445C97.9144 48.6063 97.8919 48.4876 97.8919 48.3884C97.8919 48.2337 97.9445 48.1331 98.0753 48.0384C98.388 47.8116 98.8496 47.696 99.4494 47.696C100.049 47.696 100.434 47.7966 100.687 47.9964C100.93 48.1887 101.096 48.5357 101.178 49.0284C101.219 49.2732 101.438 49.4489 101.685 49.4384L104.121 49.3318C104.39 49.3198 104.6 49.0929 104.591 48.8241C104.547 47.5803 104.086 46.5664 103.215 45.8138C102.362 45.0732 101.103 44.6992 99.4735 44.6992C98.4842 44.6992 97.6198 44.8539 96.9056 45.1574C96.1615 45.4743 95.5811 45.9475 95.1797 46.5619C94.7798 47.1747 94.5769 47.8447 94.5769 48.5522C94.5769 49.6472 95.0053 50.5861 95.8517 51.3446C96.4441 51.8749 97.4123 52.3015 98.8105 52.6485C99.8072 52.8963 100.449 53.0691 100.715 53.1607C101.15 53.3154 101.318 53.4611 101.378 53.5347C101.472 53.6459 101.515 53.7781 101.515 53.9478C101.515 54.2452 101.381 54.4946 101.096 54.7334C100.79 54.9873 100.3 55.1165 99.6373 55.1165C99.0119 55.1165 98.5383 54.9723 98.1911 54.6749C97.8453 54.3789 97.6092 53.8862 97.4875 53.2103C97.4424 52.9579 97.2093 52.7837 96.9552 52.8077L94.5844 53.0375C94.4536 53.0495 94.3318 53.1156 94.2491 53.2178C94.1664 53.3199 94.1288 53.4521 94.1439 53.5843C94.3168 55.0534 94.8655 56.195 95.7766 56.9791C96.6816 57.7602 97.9731 58.1553 99.6118 58.1553C100.72 58.1553 101.667 57.9946 102.426 57.6776C103.22 57.3456 103.844 56.8304 104.281 56.1439C104.714 55.4635 104.934 54.7214 104.934 53.9388C104.934 53.0871 104.747 52.3541 104.379 51.7607H104.382Z" fill="#212121"/>
<path d="M23.4564 79.6068C23.524 79.6549 23.6097 79.6684 23.6879 79.6429C24.1916 79.4762 24.6531 79.2418 25.062 78.9414V83.3877C25.062 83.5304 25.1778 83.6446 25.3191 83.6446H26.6451C26.788 83.6446 26.9022 83.5289 26.9022 83.3877V76.4449C26.9022 76.3022 26.7865 76.188 26.6451 76.188H25.5687C25.4604 76.188 25.3627 76.2556 25.3266 76.3592C25.1928 76.7318 24.9403 77.0652 24.5749 77.3491C24.1946 77.6451 23.8413 77.8478 23.5255 77.9515C23.4203 77.986 23.3481 78.0852 23.3481 78.1963V79.3995C23.3481 79.4822 23.3872 79.5603 23.4549 79.6083L23.4564 79.6068Z" fill="#212121"/>
<path d="M27.732 123.659C27.8748 123.659 27.9891 123.543 27.9891 123.402V122.172C27.9891 122.029 27.8733 121.915 27.732 121.915H25.6182C25.7475 121.781 25.988 121.551 26.3383 121.23C26.7713 120.833 27.0645 120.534 27.2359 120.316C27.493 119.99 27.6839 119.671 27.8042 119.369C27.9275 119.058 27.9891 118.727 27.9891 118.385C27.9891 117.766 27.7651 117.242 27.3231 116.825C26.8856 116.412 26.2842 116.204 25.537 116.204C24.859 116.204 24.2817 116.382 23.8231 116.732C23.3511 117.093 23.0684 117.682 22.9827 118.479C22.9752 118.547 22.9963 118.616 23.0383 118.669C23.0819 118.721 23.1451 118.756 23.2127 118.763L24.5342 118.895C24.6049 118.903 24.6726 118.88 24.7267 118.835C24.7808 118.79 24.8124 118.726 24.8169 118.655C24.8379 118.338 24.9101 118.108 25.0274 117.988C25.1416 117.872 25.298 117.815 25.5039 117.815C25.7099 117.815 25.8708 117.868 25.9805 117.978C26.0903 118.087 26.1429 118.251 26.1429 118.476C26.1429 118.691 26.0647 118.915 25.9144 119.142C25.8287 119.266 25.5761 119.556 24.8515 120.229C24.0847 120.941 23.5811 121.502 23.315 121.943C23.0444 122.391 22.8805 122.872 22.8264 123.372C22.8188 123.444 22.8414 123.517 22.891 123.572C22.9406 123.626 23.0098 123.657 23.0835 123.657H27.7335L27.732 123.659Z" fill="#212121"/>
<path d="M27.648 160.046C27.4856 159.845 27.2916 159.684 27.0646 159.567C27.5187 159.196 27.7487 158.732 27.7487 158.183C27.7487 157.689 27.5608 157.243 27.1924 156.855C26.7504 156.388 26.1596 156.152 25.4379 156.152C25.0215 156.152 24.6381 156.232 24.2968 156.391C23.9496 156.553 23.6729 156.782 23.476 157.069C23.285 157.347 23.1422 157.715 23.052 158.165C23.0385 158.234 23.052 158.305 23.0926 158.362C23.1317 158.419 23.1933 158.458 23.2625 158.47L24.4848 158.677C24.5539 158.689 24.6261 158.671 24.6832 158.629C24.7404 158.587 24.7764 158.523 24.784 158.452C24.811 158.212 24.8847 158.032 25.0004 157.919C25.1132 157.808 25.241 157.757 25.4004 157.757C25.5597 157.757 25.6815 157.8 25.7702 157.889C25.8589 157.977 25.9025 158.101 25.9025 158.263C25.9025 158.463 25.8409 158.61 25.707 158.727C25.5687 158.847 25.3522 158.906 25.0621 158.897C24.9313 158.892 24.817 158.99 24.8005 159.119L24.6547 160.199C24.6426 160.285 24.6757 160.37 24.7404 160.427C24.8065 160.484 24.8952 160.504 24.9794 160.481C25.1914 160.421 25.3733 160.391 25.5191 160.391C25.7055 160.391 25.8544 160.457 25.9852 160.6C26.1205 160.747 26.1866 160.949 26.1866 161.218C26.1866 161.506 26.116 161.725 25.9716 161.884C25.8318 162.039 25.674 162.111 25.471 162.111C25.2831 162.111 25.1297 162.05 24.9989 161.924C24.8636 161.793 24.7779 161.593 24.7449 161.327C24.7268 161.186 24.599 161.087 24.4577 161.103L23.1738 161.26C23.0325 161.276 22.9332 161.404 22.9483 161.545C23.0219 162.189 23.2926 162.721 23.7526 163.122C24.2112 163.523 24.793 163.726 25.48 163.726C26.2062 163.726 26.8241 163.486 27.3157 163.013C27.8103 162.536 28.0599 161.952 28.0599 161.276C28.0599 160.8 27.9216 160.385 27.6465 160.044L27.648 160.046Z" fill="#212121"/>
<path d="M56.244 80.8849H34.3678C33.8341 80.8849 33.4011 80.4522 33.4011 79.919C33.4011 79.3857 33.8341 78.9531 34.3678 78.9531H56.2425C56.7762 78.9531 57.2092 79.3857 57.2092 79.919C57.2092 80.4522 56.7762 80.8849 56.2425 80.8849H56.244Z" fill="#A1A1A1"/>
<path d="M97.6477 80.8849H64.7184C64.1847 80.8849 63.7517 80.4522 63.7517 79.919C63.7517 79.3857 64.1847 78.9531 64.7184 78.9531H97.6477C98.1814 78.9531 98.6144 79.3857 98.6144 79.919C98.6144 80.4522 98.1814 80.8849 97.6477 80.8849Z" fill="#A1A1A1"/>
<path d="M97.6481 90.1026H22.9479C22.4142 90.1026 21.9812 89.67 21.9812 89.1368C21.9812 88.6035 22.4142 88.1709 22.9479 88.1709H97.6481C98.1818 88.1709 98.6148 88.6035 98.6148 89.1368C98.6148 89.67 98.1818 90.1026 97.6481 90.1026Z" fill="#A1A1A1"/>
<path d="M97.648 120.897H34.3678C33.8341 120.897 33.4011 120.464 33.4011 119.931C33.4011 119.397 33.8341 118.965 34.3678 118.965H97.648C98.1817 118.965 98.6147 119.397 98.6147 119.931C98.6147 120.464 98.1817 120.897 97.648 120.897Z" fill="#A1A1A1"/>
<path d="M45.1413 130.113H22.9479C22.4142 130.113 21.9812 129.681 21.9812 129.148C21.9812 128.614 22.4142 128.182 22.9479 128.182H45.1398C45.6735 128.182 46.1065 128.614 46.1065 129.148C46.1065 129.681 45.6735 130.113 45.1398 130.113H45.1413Z" fill="#A1A1A1"/>
<path d="M97.6486 130.113H54.275C53.7413 130.113 53.3083 129.681 53.3083 129.148C53.3083 128.614 53.7413 128.182 54.275 128.182H97.6501C98.1838 128.182 98.6168 128.614 98.6168 129.148C98.6168 129.681 98.1838 130.113 97.6501 130.113H97.6486Z" fill="#A1A1A1"/>
<path d="M69.6244 160.907H34.3678C33.8341 160.907 33.4011 160.475 33.4011 159.941C33.4011 159.408 33.8341 158.976 34.3678 158.976H69.6244C70.1581 158.976 70.5911 159.408 70.5911 159.941C70.5911 160.475 70.1581 160.907 69.6244 160.907Z" fill="#A1A1A1"/>
<path d="M97.6481 160.907H76.931C76.3973 160.907 75.9644 160.475 75.9644 159.941C75.9644 159.408 76.3973 158.976 76.931 158.976H97.6481C98.1818 158.976 98.6148 159.408 98.6148 159.941C98.6148 160.475 98.1818 160.907 97.6481 160.907Z" fill="#A1A1A1"/>
<path d="M41.5879 170.123H22.9501C22.4164 170.123 21.9834 169.691 21.9834 169.157C21.9834 168.624 22.4164 168.191 22.9501 168.191H41.5879C42.1216 168.191 42.5546 168.624 42.5546 169.157C42.5546 169.691 42.1216 170.123 41.5879 170.123Z" fill="#A1A1A1"/>
<path d="M97.6481 170.123H47.5829C47.0492 170.123 46.6162 169.691 46.6162 169.157C46.6162 168.624 47.0492 168.191 47.5829 168.191H97.6496C98.1833 168.191 98.6163 168.624 98.6163 169.157C98.6163 169.691 98.1833 170.123 97.6496 170.123H97.6481Z" fill="#A1A1A1"/>
<path d="M186.145 65.9826C186.079 65.4804 186.038 64.9372 186.015 64.3688C185.884 61.0886 186.396 57.021 186.661 55.5007C186.734 55.0899 186.787 54.8639 186.807 54.8913C186.83 54.7954 186.858 54.6995 186.89 54.6082C187.244 53.5057 187.991 52.8369 188.857 52.5402C190.138 52.1019 191.68 52.474 192.624 53.4418C192.645 53.4624 192.661 53.4829 192.679 53.5034C193.275 54.1449 193.611 55.0374 193.451 56.1216C193.444 56.1718 193.437 56.2221 193.428 56.2723C193.417 56.3408 193.403 56.4092 193.387 56.4754C193.229 56.3704 192.789 60.6458 192.784 63.7502C192.784 64.7728 192.832 65.6699 192.951 66.2383C199.322 68.1466 180.159 74.4261 186.143 65.9849L186.145 65.9826Z" fill="#FDBA8A"/>
<path d="M179.525 69.2232C174.961 75.1626 172.866 82.0494 168.221 87.6646C167.901 87.9454 168.461 87.7742 168.639 87.8678C168.552 87.8792 168.452 87.8952 168.374 87.9043C168.224 87.95 167.892 87.8838 168.018 88.0709C168.16 88.2102 168.226 88.653 167.954 88.2695C166.32 82.1224 169.713 75.2197 171.308 69.2209C171.308 69.2209 171.276 67.6048 172.021 65.6372C172.982 63.0875 170.357 62.2886 170.357 62.2886C170.357 62.2886 167.266 64.4594 165.251 67.2168C159.058 75.6899 150.851 94.4076 165.898 98.9089C178.625 101.78 184.456 85.0967 190.48 77.0823C195.362 69.9514 184.732 62.3319 179.53 69.2187L179.525 69.2232Z" fill="#FDBA8A"/>
<path d="M155.671 90.9682C155.783 94.9308 158.518 100.786 166.137 100.786H166.162C170.524 100.774 173.745 97.6723 176.171 93.2713C180.747 84.9717 182.49 72.0382 183.669 66.4595C178.559 67.0187 171.597 74.6473 169.436 80.9268C170.03 78.2287 170.878 74.1748 171.214 71.2713C171.305 70.4792 171.36 69.7693 171.36 69.1986C170.83 69.226 167.798 69.3424 165.687 66.6512C165.603 66.7539 165.166 67.247 164.52 68.0779C161.865 71.479 155.662 80.5023 155.669 90.9704L155.671 90.9682Z" fill="#FF8D29"/>
<path d="M181.305 50.6535C181.305 50.6535 180.964 47.1269 181.785 44.5771L183.909 45.3327L181.305 50.6535Z" fill="#212121"/>
<path d="M182.424 60.9562C185.911 63.6565 192.812 63.3507 194.898 60.4951C202.677 49.8352 187.407 31.2043 182.358 48.0867C180.533 52.951 176.681 55.7198 182.424 60.9562Z" fill="#FDBA8A"/>
<path d="M186.214 51.2369C186.077 51.0292 186.134 50.7484 186.342 50.6092C186.55 50.4722 186.833 50.5293 186.97 50.737C187.107 50.9448 187.05 51.2255 186.842 51.3648C186.634 51.5017 186.351 51.4446 186.214 51.2369Z" fill="#212121"/>
<path d="M182.353 51.0358C182.216 50.828 182.273 50.5473 182.481 50.408C182.689 50.2711 182.973 50.3281 183.11 50.5359C183.247 50.7436 183.19 51.0243 182.982 51.1636C182.774 51.3005 182.49 51.2435 182.353 51.0358Z" fill="#212121"/>
<path d="M183.976 54.7976C184.243 54.7976 184.511 54.7543 184.73 54.6538C184.817 54.615 184.856 54.5123 184.817 54.4278C184.778 54.3411 184.675 54.3023 184.591 54.3411C184.04 54.5876 183.197 54.3959 183.058 54.1494C183.007 54.0626 183.119 53.9599 183.222 53.8869C184.127 53.2523 184.568 51.3531 184.586 51.2709C184.607 51.1796 184.549 51.086 184.456 51.0655C184.367 51.0472 184.271 51.102 184.25 51.1956C184.246 51.2139 183.823 53.0491 183.026 53.6061C182.592 53.9097 182.694 54.2064 182.758 54.3183C182.927 54.6127 183.453 54.7931 183.976 54.7953V54.7976Z" fill="#D49C73"/>
<path d="M182.783 46.8195C185.122 45.2422 189.582 46.0137 191.784 45.7421C191.784 45.7421 191.748 49.513 195.803 51.734C196.511 55.1169 197.245 56.5458 194.206 61.118C194.45 60.9239 194.681 60.7162 194.896 60.4902H194.901C204.505 48.3649 188.659 31.7107 182.781 46.8172L182.783 46.8195Z" fill="#D49C73"/>
<path d="M180.059 39.7098C181.146 36.7858 185.133 34.809 189.112 37.8153C192.176 40.1298 195.16 39.7692 195.416 42.5472C201.248 44.4326 199.192 50.8537 199.192 50.8537L196.375 50.8423C192.907 48.635 192.571 44.8481 192.571 44.8481C191.868 44.9622 191.118 45.017 190.44 44.9234C188.333 44.6335 185.279 44.7271 183.07 45.8387C180.861 46.9504 178.846 42.9763 180.059 39.7076V39.7098Z" fill="#212121"/>
<path d="M179.386 56.934C179.397 57.2878 179.438 57.6667 179.511 58.057C180.046 60.9605 182.242 64.6127 186.02 64.4598C186.308 64.4484 186.603 64.4142 186.909 64.3571C188.577 64.2087 190.809 63.8184 192.796 62.9442C195.634 61.6955 197.973 59.4563 197.466 55.5073C197.466 55.5073 197.466 55.5005 197.466 55.4959L197.066 53.7885L197.062 53.7725L197.018 53.5853L196.379 50.8439L194.334 48.9927C194.352 49.3625 194.594 50.1363 194.791 51.0927C195.184 53.0078 195.394 55.6557 193.262 57.2307C193.244 57.2421 193.228 57.2535 193.21 57.2649C191.384 58.4359 189.066 57.096 186.578 56.0163C184.261 55.012 181.798 54.2359 179.445 55.9296C179.434 55.9935 179.425 56.0574 179.415 56.1259C179.383 56.3747 179.374 56.6464 179.383 56.934H179.386ZM188.332 59.1778C187.677 59.2919 186.936 59.3901 186.178 59.4289C184.108 59.5385 181.913 59.2143 180.971 57.5959C181.321 54.7267 184.35 55.6899 186.422 57.144C187.398 57.8288 188.161 58.6231 188.332 59.1755V59.1778Z" fill="#212121"/>
<path d="M199.844 53.0493C199.707 54.5102 198.64 55.6059 197.464 55.4963C196.287 55.3867 195.444 54.1107 195.581 52.6498C195.718 51.189 196.785 50.0933 197.962 50.2029C199.138 50.3124 199.981 51.5884 199.844 53.0493Z" fill="#FDBA8A"/>
<path d="M196.862 51.4688C196.906 51.446 197.913 50.921 198.567 51.4003C198.734 51.5213 198.857 51.6994 198.939 51.9253C198.939 51.9253 198.939 51.9276 198.939 51.9299C199.094 52.3545 199.104 52.9548 198.962 53.7309C198.946 53.8131 198.875 53.8724 198.793 53.8702C198.784 53.8702 198.772 53.8702 198.763 53.8679C198.67 53.8496 198.608 53.7606 198.626 53.667C198.738 53.0598 198.75 52.5782 198.672 52.2244C197.705 52.5097 197.344 53.6784 197.34 53.6921C197.317 53.7674 197.249 53.8154 197.175 53.8154C197.159 53.8154 197.143 53.8131 197.127 53.8085C197.036 53.7811 196.986 53.6875 197.011 53.5962C197.029 53.5369 197.424 52.2472 198.553 51.9025C198.5 51.8112 198.441 51.7313 198.363 51.6765C197.886 51.3227 197.031 51.7679 197.022 51.7724C196.938 51.8181 196.835 51.7838 196.792 51.7017C196.748 51.6195 196.78 51.5145 196.862 51.4711V51.4688Z" fill="#D49C73"/>
<path d="M204.583 99.7611H205.7C205.67 99.5557 205.654 99.4507 205.654 99.4507C205.608 99.4644 205.563 99.4781 205.517 99.4918C205.247 99.5717 204.978 99.6493 204.706 99.7269C204.667 99.7383 204.626 99.7497 204.585 99.7611H204.583Z" fill="#E8C0A6"/>
<path d="M183.979 57.4479C184 57.4479 184.02 57.4434 184.041 57.4342C184.119 57.4 184.153 57.311 184.121 57.2334C184.105 57.1946 183.696 56.2746 182.419 56.1582C182.334 56.1514 182.261 56.213 182.252 56.2975C182.245 56.3819 182.307 56.455 182.392 56.4641C183.481 56.5623 183.826 57.3224 183.842 57.3543C183.867 57.4114 183.925 57.4456 183.982 57.4456L183.979 57.4479Z" fill="#D49C73"/>
<path d="M165.69 66.6459L171.363 69.1934C171.404 69.1705 171.29 66.6414 172.866 66.2031C174.6 65.7192 176.307 63.6602 176.272 63.5712C176.814 64.9636 179.462 62.3158 178.559 61.8204C179.165 61.2635 178.756 60.6312 178.002 60.2637C178.507 59.7752 177.967 59.1931 177.239 58.958C178.12 58.4946 178.833 58.2618 179.811 57.9605C181.152 57.5473 180.266 56.7781 179.473 56.915C172.994 58.0449 170.163 60.6357 165.688 66.6459H165.69Z" fill="#FDBA8A"/>
<path d="M182.278 49.4379C182.278 49.4379 182.301 49.4379 182.312 49.4334C183.834 49.0841 184.362 47.8835 184.385 47.8309C184.417 47.7533 184.382 47.6643 184.305 47.6301C184.227 47.5981 184.138 47.6324 184.104 47.71C184.097 47.7237 183.608 48.8216 182.246 49.1343C182.164 49.1526 182.114 49.2348 182.132 49.3169C182.148 49.3877 182.212 49.4356 182.28 49.4356L182.278 49.4379Z" fill="#D49C73"/>
<path d="M188.008 49.9234C188.036 49.9234 188.065 49.9165 188.091 49.8983C188.161 49.8526 188.182 49.759 188.136 49.6883C188.107 49.6426 187.407 48.5743 185.84 48.3803C185.756 48.3689 185.68 48.4282 185.669 48.5127C185.657 48.5972 185.717 48.6725 185.801 48.6839C187.22 48.8619 187.874 49.8458 187.878 49.8549C187.908 49.9005 187.956 49.9256 188.006 49.9256L188.008 49.9234Z" fill="#D49C73"/>
<path d="M166.163 100.786C170.524 100.775 173.745 97.6727 176.171 93.2718L175.447 79.5874C175.447 79.5874 171.23 88.234 168.831 95.9585C168.182 98.0471 167.22 99.613 166.16 100.786H166.163Z" fill="#D1690E"/>
<path d="M198.779 211.373L199.053 211.232C199.053 211.423 199.291 212.087 199.48 212.087L207.568 212.254C207.76 212.254 207.876 211.893 207.876 211.702L208.566 211.505C208.566 210.296 208.466 209.857 207.931 208.919C205.964 206.324 208.313 194.621 208.244 191.578C208.728 190.743 199.727 191.398 199.601 191.201C199.398 191.201 199.241 191.375 199.257 191.576L200.317 204.92C200.698 208.052 198.786 208.912 198.779 211.373Z" fill="#FDBA8A"/>
<path d="M163.718 212.534H179.829C181.237 212.477 181.225 211.044 180.965 209.932C180.078 205.926 181.646 196.727 181.936 192.607C182.013 191.854 181.422 191.196 180.661 191.196H173.551C172.781 191.196 172.185 191.872 172.281 192.634L173.574 202.936C174.07 207.704 169.135 208.104 165.887 208.759C164.612 209.078 163.28 209.574 162.658 210.526C162.078 211.377 162.686 212.53 163.716 212.53L163.718 212.534Z" fill="#FDBA8A"/>
<path d="M181.579 210.865C181.536 211.655 181.145 212.554 180.229 212.536H163.517C159.35 211.26 165.448 205.43 172.976 205.87C173.569 206.012 177.035 206.799 180.709 205.848C180.709 205.848 181.703 207.763 181.579 210.867V210.865Z" fill="#334756"/>
<path d="M207.289 212.535H200.148C196.698 212.142 199.115 205.915 203.719 205.869C208.347 205.824 210.737 212.151 207.292 212.535H207.289Z" fill="#334756"/>
<path d="M167.502 210.274C167.362 210.274 167.227 210.189 167.173 210.052C166.524 208.452 165.336 207.971 165.324 207.966C164.895 207.804 165.158 207.131 165.585 207.306C165.644 207.329 167.067 207.909 167.831 209.788C167.929 210.014 167.746 210.281 167.502 210.276V210.274Z" fill="#A1A1A1"/>
<path d="M170.262 209.941C170.111 209.941 169.969 209.843 169.924 209.69C169.355 207.857 167.758 207.01 167.742 207.001C167.331 206.796 167.664 206.152 168.068 206.371C168.144 206.41 169.946 207.366 170.602 209.48C170.675 209.704 170.497 209.943 170.262 209.939V209.941Z" fill="#A1A1A1"/>
<path d="M173.403 209.556C173.257 209.556 173.12 209.465 173.068 209.318C172.405 207.415 170.872 206.378 170.858 206.367C170.472 206.118 170.87 205.516 171.251 205.776C171.322 205.821 172.994 206.947 173.739 209.086C173.821 209.312 173.643 209.56 173.403 209.558V209.556Z" fill="#A1A1A1"/>
<path d="M206.277 207.991C203.556 206.459 201.15 208.47 200.768 207.783C200.451 207.064 203.999 205.987 206.457 207.331C206.768 207.5 206.626 208.005 206.277 207.993V207.991Z" fill="#A1A1A1"/>
<path d="M162.347 210.867H181.578C181.508 211.454 181.345 212.024 181.051 212.538H163.516C162.653 212.538 162.041 211.675 162.347 210.867Z" fill="#A1A1A1"/>
<path d="M207.289 212.535H200.147C199.238 212.535 198.507 211.77 198.564 210.864H208.875C208.929 211.77 208.198 212.535 207.291 212.535H207.289Z" fill="#A1A1A1"/>
<path d="M209.375 203.426C209.375 203.426 201.756 205.275 197.833 203.289C195.791 190.491 190.121 154.852 188.144 130.43C188.069 131.854 183.92 189.283 183.13 203.289C180.42 204.196 174.971 205.289 171.921 203.093C170.553 188.35 166.153 139.814 172.778 100.171C172.778 100.171 190.934 102.189 205.11 97.9092C209.012 110.484 210.047 188.336 209.373 203.426H209.375Z" fill="#334756"/>
<path d="M174.853 201.872C171.168 159.274 175.527 123.032 176.616 122.628C177.416 122.811 172.861 159.664 174.853 201.872Z" fill="#A1A1A1"/>
<path d="M203.381 201.87C200.84 158.22 194.427 117.522 195.184 116.938C196.157 116.881 202.663 158.503 203.381 201.87Z" fill="#A1A1A1"/>
<path d="M207.754 115.026C207.105 115.814 206.415 116.603 205.682 117.396C205.682 117.396 202.116 118.067 199.322 114.353C210.706 89.7551 188.755 88.4107 193.117 66.5225C207.811 68.255 228.251 90.166 207.754 115.026Z" fill="#FF8D29"/>
<path d="M207.753 115.028C207.104 115.815 206.414 116.605 205.681 117.397C205.681 117.397 202.115 118.068 199.321 114.354C199.654 113.17 200.15 112.471 200.499 111.48C200.499 111.48 202.626 113.973 207.753 115.025V115.028Z" fill="#D1690E"/>
<path d="M205.938 117.873C199.804 118.245 196.772 111.774 199.251 113.29C199.313 113.452 200.816 117.177 206.471 116.93C207.361 117.106 206.994 118.067 205.938 117.873Z" fill="#23659B"/>
<path d="M170.14 117.214C170.14 117.214 171.248 121.966 180.124 124.311C182.666 124.982 184.133 124.651 184.508 122.888C184.695 122.005 185.177 120.467 186.066 119.896C186.066 119.896 188.051 120.752 188.8 121.969C190.443 124.632 192.917 122.213 194.124 119.423C195.613 115.974 199.39 113.05 200.214 110.158L170.142 117.214H170.14Z" fill="white"/>
<path d="M206.3 111.34C206.01 111.852 205.838 111.77 205.543 111.473C197.568 105.524 194.719 118.522 186.129 118.754C177.386 119.619 172.522 120.113 170.139 117.214C165.981 110.774 172.595 81.9902 177.943 75.0213C180.287 71.3988 183.906 67.8653 186.145 65.9844C186.099 66.1738 185.281 71.1408 192.953 66.2377C193.339 66.3998 195.934 69.0568 195.781 70.3259C196.172 76.1535 210.01 104.794 206.302 111.34H206.3Z" fill="#FF8D29"/>
<path d="M201.686 113.17L199.938 112.807C206.927 97.0889 198.707 90.4465 194.362 81.5898C204.443 93.245 205.967 99.6364 201.686 113.17Z" fill="#D1690E"/>
<path d="M195.476 66.9454C195.517 69.8695 188.01 72.4512 187.585 72.4557L186.685 69.7942C185.529 70.0795 184.512 71.6956 184.512 71.6956C181.396 68.6574 182.89 66.8313 183.671 66.4592C184.574 66.0278 186.148 65.9822 186.145 65.9845C186.1 66.1739 185.976 70.6798 192.954 66.2378C193.851 65.8224 195.476 66.9454 195.476 66.9454Z" fill="white"/>
<path d="M183.13 203.291C183.137 203.279 182.146 203.656 180.78 203.916C180.78 203.916 184.606 146.923 185.177 139.318C185.749 131.712 188.145 130.434 188.145 130.434C188.145 130.434 183.066 202.06 183.13 203.293V203.291Z" fill="#A1A1A1"/>
<path d="M183.281 200.528C183.178 202.171 183.123 203.155 183.13 203.29C180.42 204.196 174.972 205.289 171.922 203.093C171.922 203.093 171.826 202.189 171.666 200.525C171.666 200.525 177.007 202.979 183.278 200.525L183.281 200.528Z" fill="#A1A1A1"/>
<path d="M209.375 203.427C209.375 203.427 201.756 205.276 197.833 203.29C197.833 203.29 197.671 202.3 197.388 200.528C197.388 200.528 202.754 202.03 209.469 200.528C209.499 202.256 209.352 203.286 209.377 203.43L209.375 203.427Z" fill="#A1A1A1"/>
<path d="M164.522 68.077C164.554 68.1181 164.584 68.1615 164.618 68.2026C167.124 71.4211 171.216 71.2704 171.216 71.2704C171.307 70.4784 171.362 69.7685 171.362 69.1978C170.832 69.2252 167.8 69.3416 165.689 66.6504C165.605 66.7531 165.169 67.2462 164.522 68.077Z" fill="#D1690E"/>
</svg>
