<svg width="30" height="30" viewBox="0 0 30 30" fill="none" xmlns="http://www.w3.org/2000/svg">
<g clip-path="url(#clip0_1579_24)">
<path d="M15 30C23.2843 30 30 23.2843 30 15C30 6.71573 23.2843 0 15 0C6.71573 0 0 6.71573 0 15C0 23.2843 6.71573 30 15 30Z" fill="#C5B786"/>
<path d="M18.3037 21.2632H11.7417V22.3113H18.3037V21.2632Z" fill="black"/>
<path d="M15.0228 7L11.8557 9.82532V8.66329H10.1013V11.3747L6 14.9975H7.95949V22.3114H10.7165V20.8076V20.3519V16.9114H11.719V20.3519H19.2835V22.3114H22.0405V14.9975H24L15.0228 7ZM19.3063 19.7367H12.4253V18.8253H19.3291V19.7367H19.3063Z" fill="black"/>
</g>
<defs>
<clipPath id="clip0_1579_24">
<rect width="30" height="30" fill="white"/>
</clipPath>
</defs>
</svg>
