<svg width="30" height="30" viewBox="0 0 30 30" fill="none" xmlns="http://www.w3.org/2000/svg">
<circle cx="15" cy="15" r="15" fill="#FF8D29"/>
<path d="M14.9872 9.10389H15.0257C15.1929 9.10389 15.3279 8.96894 15.3279 8.80186V7.49732H15.9772V7.75437C15.9772 7.96644 16.1507 8.13995 16.3629 8.13995H17.7C17.8029 8.13995 17.8864 8.05641 17.8864 7.95359V7.04106C17.8864 6.99163 17.8668 6.94423 17.8318 6.90928C17.7969 6.87433 17.7495 6.85469 17.7 6.85469H17.25V6.46912C17.25 6.32774 17.1343 6.21207 16.9929 6.21207H15.3144C15.2952 6.15057 15.2568 6.09682 15.2049 6.05866C15.153 6.02051 15.0902 5.99995 15.0257 6H14.9872C14.907 6 14.8302 6.03182 14.7735 6.08846C14.7169 6.14511 14.685 6.22193 14.685 6.30204V8.80186C14.685 8.96894 14.82 9.10389 14.9872 9.10389ZM14.6805 14.331C14.6793 14.3195 14.6786 14.3079 14.6786 14.2963V13.3902C14.6786 13.2103 14.82 13.0689 15 13.0689C15.18 13.0689 15.3214 13.2103 15.3214 13.3902V14.2256L16.1829 15.0868C16.3114 15.2153 16.3114 15.4145 16.1829 15.543C16.1122 15.6073 16.035 15.6394 15.9514 15.6394C15.9093 15.6399 15.8675 15.6316 15.8287 15.615C15.79 15.5984 15.7551 15.5739 15.7264 15.543L14.775 14.5919C14.7407 14.5583 14.7144 14.5174 14.698 14.4722C14.6816 14.4271 14.6757 14.3788 14.6805 14.331Z" fill="white"/>
<path d="M20.1364 14.971L20.1429 13.8014C20.1429 13.6086 20.0657 13.4287 19.9307 13.2938L18.4136 11.7772H22.2257C22.5214 11.7772 22.785 11.9571 22.8943 12.2334L23.9974 14.9967H24V23.9935H19.5064V23.9999H16.9286V23.9935H16.935V20.5876C16.935 20.337 16.7357 20.1377 16.485 20.1377H13.4957C13.245 20.1377 13.0457 20.337 13.0457 20.5876V23.9935H13.0714V23.9999H10.5064V23.9415L10.5 23.9935H6V14.9967H6.00257L7.10571 12.2334C7.215 11.9571 7.47857 11.7772 7.77429 11.7772H11.5864L10.0693 13.2938C9.93429 13.4287 9.85714 13.6151 9.85714 13.8014V14.971H9.86357C9.86357 14.9774 9.86229 14.9819 9.86036 14.9871C9.85836 14.9922 9.85728 14.9976 9.85714 15.0031V15.318C9.85714 15.4032 9.89101 15.485 9.95129 15.5452C10.0116 15.6055 10.0933 15.6393 10.1786 15.6393C10.2638 15.6393 10.3456 15.6055 10.4059 15.5452C10.4661 15.485 10.5 15.4032 10.5 15.318V15.0031C10.4999 14.9976 10.4988 14.9922 10.4968 14.9871C10.4955 14.9819 10.4936 14.9774 10.4936 14.971H10.5V14.1934C10.5 14.1613 10.5026 14.1298 10.5064 14.099C10.5154 13.9429 10.5818 13.7958 10.6929 13.6858L14.6464 9.79143C14.6936 9.74402 14.7497 9.7064 14.8115 9.68073C14.8733 9.65506 14.9395 9.64185 15.0064 9.64185C15.0733 9.64185 15.1396 9.65506 15.2014 9.68073C15.2631 9.7064 15.3192 9.74402 15.3664 9.79143L19.32 13.6858C19.4357 13.8014 19.5 13.9557 19.5064 14.1163V15.3823C19.5223 15.4604 19.5666 15.5298 19.6308 15.5771C19.695 15.6243 19.7744 15.646 19.8537 15.638C19.933 15.63 20.0065 15.5929 20.06 15.5337C20.1134 15.4746 20.1429 15.3977 20.1429 15.318V14.998C20.1429 14.9871 20.1422 14.9768 20.1364 14.971ZM15 16.282C15.5117 16.282 16.0024 16.0788 16.3642 15.7171C16.726 15.3555 16.9292 14.8649 16.9292 14.3534C16.9292 13.842 16.726 13.3514 16.3642 12.9898C16.0024 12.6281 15.5117 12.4249 15 12.4249C14.4883 12.4249 13.9976 12.6281 13.6358 12.9898C13.274 13.3514 13.0708 13.842 13.0708 14.3534C13.0708 14.8649 13.274 15.3555 13.6358 15.7171C13.9976 16.0788 14.4883 16.282 15 16.282ZM10.5064 15.0481V15.0031H10.5006L10.5064 15.0481ZM6.82286 18.2099H7.74857C7.85143 18.2099 7.92857 18.1327 7.92857 18.0299V16.4619C7.92857 16.3655 7.845 16.282 7.74857 16.282H6.82286C6.72643 16.282 6.64286 16.3655 6.64286 16.4619V18.0299C6.64286 18.1263 6.72643 18.2099 6.82286 18.2099ZM9.67714 18.2099C9.78 18.2099 9.85714 18.1327 9.85714 18.0299V16.4619C9.85714 16.3655 9.77357 16.282 9.67714 16.282H8.75143C8.655 16.282 8.57143 16.3655 8.57143 16.4619V18.0299C8.57143 18.1263 8.655 18.2099 8.75143 18.2099H9.67714ZM7.74857 20.7804C7.85143 20.7804 7.92857 20.7032 7.92857 20.6004V19.0324C7.92857 18.936 7.845 18.8525 7.74857 18.8525H6.82286C6.72643 18.8525 6.64286 18.936 6.64286 19.0324V20.6004C6.64286 20.6968 6.72643 20.7804 6.82286 20.7804H7.74857ZM9.67714 20.7804C9.78 20.7804 9.85714 20.7032 9.85714 20.6004V19.0324C9.85714 18.936 9.77357 18.8525 9.67714 18.8525H8.75143C8.655 18.8525 8.57143 18.936 8.57143 19.0324V20.6004C8.57143 20.6968 8.655 20.7804 8.75143 20.7804H9.67714ZM20.1429 18.0299C20.1429 18.1263 20.2264 18.2099 20.3229 18.2099H21.2486C21.3514 18.2099 21.4286 18.1327 21.4286 18.0299V16.4619C21.4286 16.3655 21.345 16.282 21.2486 16.282H20.3229C20.2264 16.282 20.1429 16.3655 20.1429 16.4619V18.0299ZM23.3571 18.0299V16.4619C23.3571 16.3655 23.2736 16.282 23.1771 16.282H22.2514C22.155 16.282 22.0714 16.3655 22.0714 16.4619V18.0299C22.0714 18.1263 22.155 18.2099 22.2514 18.2099H23.1771C23.28 18.2099 23.3571 18.1327 23.3571 18.0299ZM21.4286 20.6004V19.0324C21.4286 18.936 21.345 18.8525 21.2486 18.8525H20.3229C20.2264 18.8525 20.1429 18.936 20.1429 19.0324V20.6004C20.1429 20.6968 20.2264 20.7804 20.3229 20.7804H21.2486C21.3514 20.7804 21.4286 20.7032 21.4286 20.6004ZM23.3571 20.6004V19.0324C23.3571 18.936 23.2736 18.8525 23.1771 18.8525H22.2514C22.155 18.8525 22.0714 18.936 22.0714 19.0324V20.6004C22.0714 20.6968 22.155 20.7804 22.2514 20.7804H23.1771C23.28 20.7804 23.3571 20.7032 23.3571 20.6004Z" fill="white"/>
</svg>
