<svg width="21" height="20" viewBox="0 0 21 20" fill="none" xmlns="http://www.w3.org/2000/svg">
<path fill-rule="evenodd" clip-rule="evenodd" d="M2 8.52C2 4.92 4.92999 2 8.51999 2C12.12 2 15.04 4.92 15.04 8.52C15.04 12.12 12.12 15.04 8.51999 15.04C4.91999 15.04 2 12.12 2 8.52ZM17.04 8.52C17.04 3.81 13.22 0 8.51999 0C3.80999 0 0 3.81 0 8.52C0 13.23 3.80999 17.04 8.51999 17.04C10.5031 17.04 12.3266 16.3646 13.7734 15.231L18.6088 19.732C19.0131 20.1083 19.6459 20.0856 20.0222 19.6814C20.3985 19.2771 20.3758 18.6443 19.9715 18.2681L15.1937 13.8207C16.3498 12.3664 17.04 10.5247 17.04 8.52Z" fill="white"/>
</svg>
