<svg width="25" height="25" viewBox="0 0 25 25" fill="none" xmlns="http://www.w3.org/2000/svg">
<path d="M15.0707 25H9.85409C9.85409 25 9.74929 25 9.70271 24.9773C9.02734 24.7614 8.56157 24.1705 8.52664 23.4773C8.46841 22.9659 8.3869 22.4545 8.31704 21.9432C8.27046 21.6818 8.23553 21.4091 8.20059 21.1364C7.81633 20.9318 7.40878 20.7046 6.95465 20.4318C6.13955 20.7614 5.3128 21.0795 4.59085 21.3636C3.82232 21.7273 2.90242 21.4205 2.5298 20.6705C2.5298 20.6705 2.5298 20.6704 2.5298 20.6591C1.79621 19.4318 1.03933 18.1477 0.270804 16.8523C-0.218258 16.1477 -0.0203037 15.1818 0.701645 14.7045L1.15577 14.3637C1.65648 13.9773 2.16883 13.5909 2.68118 13.2045C2.66954 12.7273 2.66954 12.25 2.68118 11.7841C2.20376 11.4204 1.72635 11.0568 1.26057 10.7046L0.724932 10.2955C-0.00866109 9.84091 -0.218259 8.88637 0.247514 8.17046C0.259159 8.14773 0.270804 8.13638 0.282448 8.11365C1.0044 6.89774 1.72635 5.67046 2.51816 4.34092C2.89078 3.57955 3.83397 3.25 4.61414 3.625C4.61414 3.625 4.61414 3.625 4.62578 3.625L5.05662 3.79545C5.68542 4.04545 6.3375 4.29545 6.97794 4.54545C7.42042 4.28409 7.82798 4.04546 8.21224 3.84091V3.81817C8.30539 3.13635 8.41019 2.42044 8.52664 1.72726C8.57321 1.40908 8.64308 1.10229 8.75952 0.795468C8.93419 0.443196 9.24859 0.170441 9.63285 0.0568043L9.69107 0.0340895C9.74929 0.0113622 9.80751 0 9.87738 0H15.094C15.094 0 15.1988 -1.24834e-05 15.2454 0.0227148C15.9441 0.249988 16.4331 0.874993 16.4448 1.5909C16.4914 2.04545 16.5612 2.52272 16.6427 2.97727C16.6893 3.26136 16.7359 3.55683 16.7708 3.85229C17.2017 4.09093 17.6209 4.31819 18.0168 4.55683C18.762 4.26137 19.4956 3.96591 20.3806 3.625C21.1491 3.26137 22.069 3.56817 22.4533 4.31817C23.1868 5.54544 23.9437 6.82954 24.7123 8.12499C25.2013 8.82954 25.0034 9.79546 24.2814 10.2727L23.8622 10.5909C23.3499 10.9773 22.8259 11.3863 22.3135 11.7727C22.3252 12.3182 22.3252 12.7727 22.3135 13.1932C23.0005 13.7045 23.6992 14.2386 24.3164 14.7159C25.0267 15.1818 25.213 16.125 24.7355 16.8182C24.0136 18.0341 23.2567 19.3182 22.4765 20.625C22.1156 21.3864 21.184 21.7046 20.4155 21.3523C20.4039 21.3523 20.3806 21.3409 20.3689 21.3295L19.9148 21.1477C19.2976 20.9091 18.6572 20.6591 18.0284 20.4091C17.8305 20.5227 17.6325 20.6364 17.4346 20.75C17.225 20.8636 17.0037 20.9886 16.7941 21.1136C16.6777 21.8523 16.5612 22.6364 16.4215 23.5682C16.3633 24.1704 15.9557 24.6818 15.3735 24.875L15.3502 24.8977C15.2803 24.9432 15.1872 24.9659 15.1057 24.9659L15.0707 25ZM9.94724 24.1136H14.9427C14.9427 24.1136 14.9892 24.0909 15.0009 24.0909C15.2803 24.0114 15.4783 23.7727 15.4899 23.4887C15.6297 22.5227 15.7461 21.7273 15.8742 20.9659C15.9208 20.7387 16.0722 20.5341 16.2701 20.4091C16.4914 20.2727 16.7242 20.1477 16.9455 20.0227C17.1434 19.9091 17.3414 19.7955 17.5394 19.6818C17.7606 19.5341 18.0517 19.5114 18.2962 19.6136C18.925 19.8636 19.5771 20.125 20.2059 20.3637L20.66 20.5454C20.9744 20.7386 21.3936 20.6477 21.5916 20.3409C21.6149 20.3068 21.6382 20.2614 21.6498 20.2159C22.43 18.9091 23.1869 17.625 23.8972 16.4091C24.13 16.125 24.0718 15.7159 23.7807 15.4886C23.7574 15.4659 23.7341 15.4545 23.6992 15.4432C23.0821 14.9773 22.3834 14.4318 21.708 13.9205C21.4751 13.7614 21.3354 13.4886 21.3587 13.2045C21.3703 12.7954 21.3703 12.3409 21.3587 11.7955C21.347 11.5341 21.4635 11.2727 21.6847 11.125C22.2087 10.7273 22.7444 10.3182 23.2567 9.93181L23.6759 9.61363C24.0136 9.43181 24.13 9.02272 23.9437 8.69317C23.9204 8.65908 23.9088 8.63637 23.8855 8.60228C23.117 7.30683 22.3601 6.02273 21.6265 4.79546C21.4984 4.46591 21.1142 4.29547 20.7765 4.42047C20.7415 4.43183 20.7066 4.45454 20.6717 4.4659C19.7751 4.80681 19.0298 5.10227 18.2846 5.39773C18.0401 5.5 17.7489 5.47728 17.5277 5.32955C17.1434 5.10228 16.7242 4.86362 16.2934 4.63635C16.0489 4.52271 15.8742 4.28409 15.8393 4.01136C15.8043 3.71591 15.7461 3.40908 15.7112 3.11363C15.6413 2.64772 15.5598 2.17044 15.5132 1.69317C15.5132 1.3409 15.3153 1.02273 14.9776 0.886362H9.94724C9.73765 0.977271 9.60956 1.04545 9.57463 1.13636C9.48147 1.375 9.42325 1.62499 9.38832 1.87499C9.27187 2.56817 9.17872 3.27274 9.08556 3.95456V4.01136C9.05063 4.27273 8.88761 4.50001 8.64308 4.62501C8.25882 4.82955 7.85126 5.06818 7.39714 5.32955C7.17589 5.47728 6.88478 5.49999 6.64025 5.38635C5.99981 5.12499 5.33609 4.87501 4.69565 4.62501L4.26481 4.45456C3.93877 4.26138 3.51957 4.36363 3.32162 4.68181C3.29833 4.7159 3.28669 4.74999 3.27504 4.78408C2.49487 6.10226 1.76128 7.3409 1.03933 8.54544C0.794798 8.82953 0.829731 9.26136 1.13248 9.51136C1.16742 9.54545 1.21399 9.56818 1.24893 9.59091L1.78457 9.99999C2.25034 10.3523 2.72776 10.7273 3.20518 11.0795C3.43806 11.2386 3.57779 11.5114 3.5545 11.7955C3.54286 12.25 3.54286 12.7159 3.5545 13.1705C3.57779 13.4545 3.43806 13.7273 3.20518 13.8864C2.69283 14.2727 2.18047 14.6591 1.67977 15.0454L1.22564 15.3864C0.887953 15.5682 0.77151 15.9773 0.957819 16.3068C0.981108 16.3409 0.992752 16.3636 1.01604 16.3977C1.78457 17.6932 2.54145 18.9773 3.27504 20.2045C3.40313 20.5341 3.78739 20.7045 4.12508 20.5795C4.16001 20.5682 4.19494 20.5455 4.22988 20.5341C4.95182 20.25 5.79022 19.9318 6.61697 19.5909C6.8615 19.4886 7.1526 19.5114 7.37385 19.6477C7.82798 19.9205 8.23553 20.1477 8.61979 20.3523C8.86432 20.4659 9.02734 20.7046 9.05063 20.9659C9.08556 21.2387 9.13214 21.5114 9.17872 21.7841C9.26023 22.2955 9.34174 22.8295 9.39996 23.3523C9.39996 23.6818 9.60956 23.9773 9.92396 24.0909L9.94724 24.1136Z" fill="#334756"/>
<circle cx="12.5" cy="12.5" r="4" stroke="#FF8D29"/>
</svg>
