<svg width="51" height="51" viewBox="0 0 51 51" fill="none" xmlns="http://www.w3.org/2000/svg">
<rect width="51" height="51" rx="25.5" fill="#ECECEC"/>
<path d="M26.5549 36.0416C26.5549 36.0416 26.5561 36.0389 26.5386 36.0275C26.5097 36.0258 26.4983 36.0355 26.4869 36.0453C26.4869 36.0453 26.4899 36.0437 26.4832 36.0258C25.9181 36.0086 25.3596 36.0092 24.7829 36.0078C24.7041 36.0071 24.6433 36.0085 24.5644 36.0035C24.4831 36.0014 24.4201 36.0057 24.3383 36.0079C24.2441 36.0065 24.1686 36.0073 24.0731 36.0016C20.3151 35.9938 16.5772 35.9923 12.8393 35.9928C12.7846 35.9929 12.7299 36.019 12.6752 36.033C12.494 36.1307 12.3127 36.2284 12.1016 36.3149C11.9984 36.2978 11.9254 36.2887 11.8521 36.2865C11.2406 36.2684 10.629 36.2516 10.0107 36.2132C10.0188 35.9331 10.0336 35.6741 10.0531 35.3971C10.1152 35.0348 10.1726 34.6905 10.234 34.3433C10.2424 34.3292 10.2404 34.3203 10.2366 34.2968C10.2499 34.2097 10.2585 34.1397 10.2729 34.0503C10.2898 33.9289 10.3171 33.8251 10.3081 33.7251C10.2952 33.5816 10.2559 33.4408 10.2279 33.2989C10.2279 33.2989 10.2318 33.2994 10.242 33.2812C10.2424 33.0817 10.2325 32.9003 10.2303 32.7001C10.2352 32.6449 10.2327 32.6086 10.2301 32.5724C10.2301 32.5724 10.2327 32.5762 10.245 32.585C10.3516 32.4104 10.4458 32.2269 10.5401 32.0435C10.5401 32.0435 10.5434 32.0461 10.5531 32.0595C10.7336 31.7738 10.9044 31.4748 11.0752 31.1758C11.0752 31.1758 11.0757 31.1792 11.0894 31.1861C11.1682 31.0427 11.2334 30.8926 11.2986 30.7424C11.2986 30.7424 11.2987 30.7472 11.31 30.749C11.3283 30.7335 11.3353 30.7163 11.3524 30.6866C11.4541 30.4319 11.5457 30.1895 11.6372 29.9472C11.6409 29.9387 11.6446 29.9303 11.6611 29.9136C11.6739 29.9055 11.6695 29.912 11.6695 29.912C11.6806 29.8613 11.6917 29.8106 11.7091 29.7241C11.8307 29.3712 11.9459 29.054 12.0612 28.7369C12.1042 28.5561 12.1472 28.3754 12.2074 28.1689C12.2453 28.0589 12.2662 27.9747 12.2981 27.8729C12.3071 27.7297 12.3049 27.6042 12.3032 27.4598C12.2953 27.4048 12.2869 27.3686 12.2812 27.3134C12.2362 26.9321 12.3174 26.6128 12.5477 26.3397C12.572 26.311 12.5735 26.2596 12.5855 26.2188C12.5855 26.2188 12.5862 26.2221 12.5993 26.2294C12.8109 25.8617 13.0094 25.4867 13.2079 25.1117C13.2079 25.1117 13.2086 25.1166 13.2235 25.1151C13.2445 25.0781 13.2506 25.0425 13.2566 25.007C13.2559 24.9989 13.2551 24.9908 13.2609 24.9643C13.2825 24.9284 13.2974 24.9109 13.3123 24.8934C13.3145 24.8438 13.3166 24.7941 13.3472 24.7283C13.4972 24.3949 13.6188 24.0776 13.7489 23.7464C13.843 23.4072 13.9286 23.0819 14.0235 22.7425C14.0361 22.7059 14.0393 22.6833 14.0466 22.6497C14.0507 22.6385 14.0476 22.6148 14.0532 22.5969C14.0628 22.2935 14.105 22.0011 14.062 21.7243C13.9917 21.2714 14.0866 20.9041 14.3935 20.5931C14.5176 20.4674 14.6429 20.341 14.7526 20.201C15.0195 19.8605 15.2451 19.4926 15.3397 19.0478C15.3397 19.0478 15.3401 19.0517 15.3545 19.055C15.6754 18.3623 15.94 17.6507 16.0696 16.871C16.0804 16.8341 16.0826 16.8116 16.089 16.778C16.0932 16.767 16.0906 16.7433 16.0957 16.7246C16.0899 16.4854 16.1069 16.2578 16.0618 16.0457C15.9848 15.6829 16.032 15.3704 16.2574 15.086C16.32 15.0069 16.3572 14.9041 16.406 14.8122C16.406 14.8122 16.4061 14.8161 16.4192 14.8214C16.5086 14.7262 16.5849 14.6257 16.6737 14.5159C16.8151 14.2836 16.9643 14.0711 17.0687 13.8354C17.2666 13.3887 17.4325 12.9256 17.624 12.4755C17.7388 12.2057 17.8768 11.9474 18.0044 11.684C18.0044 11.684 18.005 11.6874 18.018 11.6955C18.2036 11.5413 18.3763 11.379 18.549 11.2167C18.8093 10.9913 19.1243 10.9723 19.4222 11.0235C19.7989 11.0883 20.1681 11.1383 20.5804 11.061C20.6552 11.0598 20.6952 11.0595 20.758 11.0609C25.3211 11.0632 29.8614 11.0639 34.4017 11.0643C34.5717 11.0643 34.7417 11.0598 34.9297 11.053C35.0346 11.0552 35.1215 11.0617 35.2085 11.0682C35.2085 11.0682 35.2262 11.0628 35.2469 11.0776C35.4971 11.1788 35.7266 11.2652 35.9562 11.3516C35.9562 11.3516 35.9509 11.3522 35.9532 11.3666C36.0297 11.4186 36.1038 11.4562 36.178 11.4938C36.178 11.4938 36.1748 11.4944 36.1691 11.5108C36.2269 11.5634 36.2905 11.5995 36.354 11.6357C36.354 11.6357 36.3507 11.6401 36.343 11.6575C36.3572 11.6788 36.379 11.6826 36.4008 11.6864C36.4008 11.6864 36.3973 11.6881 36.3844 11.7028C36.4105 11.7388 36.4496 11.7602 36.4888 11.7815C36.4888 11.7815 36.4854 11.7834 36.4768 11.8015C36.4901 11.8233 36.5121 11.827 36.5341 11.8308C36.5341 11.8308 36.5294 11.8338 36.5148 11.8414C36.6395 12.0826 36.7787 12.3161 36.9179 12.5496C36.9803 12.6964 37.0428 12.8433 37.0926 13.0148C37.0792 13.055 37.0784 13.0706 37.0817 13.1026C37.1038 13.1968 37.1217 13.2745 37.1364 13.3724C37.137 13.559 37.1406 13.7254 37.1357 13.9086C37.0951 14.1212 37.0661 14.3176 37.03 14.5125C36.9984 14.6833 36.9587 14.8524 36.9226 15.0223C36.8237 15.3962 36.7271 15.7709 36.6253 16.1439C36.4019 16.9626 36.1799 17.7818 35.9499 18.5984C35.6593 19.63 35.3561 20.6574 35.0683 21.6899C34.822 22.5732 34.5965 23.4634 34.3491 24.3464C34.1582 25.0274 33.94 25.6994 33.7478 26.3801C33.5831 26.9632 33.4448 27.555 33.2827 28.1391C33.0249 29.0684 32.754 29.9935 32.4946 30.9223C32.338 31.4835 32.2223 32.0603 32.0352 32.6089C31.7827 33.3497 31.5157 34.0901 31.1872 34.7935C30.8609 35.4921 30.2779 35.8552 29.5578 35.9448C29.2904 35.9782 29.0225 36.0072 28.7228 36.0195C28.0251 35.9982 27.3594 35.9946 26.6938 35.9951C26.6475 35.9951 26.6012 36.0254 26.5549 36.0416ZM21.3132 16.0233C21.2947 16.038 21.2761 16.0527 21.2382 16.0775C21.2382 16.0775 21.2171 16.0822 21.1952 16.0793C21.1783 16.0833 21.1696 16.0946 21.1491 16.1314C21.1413 16.1355 21.1336 16.1396 21.1071 16.1374C21.0922 16.1403 21.0838 16.15 21.0618 16.1913C20.9807 16.2837 20.8619 16.3612 20.8249 16.471C20.6528 16.9813 20.4846 17.495 20.3537 18.0188C20.2853 18.2925 20.4503 18.4775 20.7149 18.5068C20.8029 18.5165 20.8924 18.5118 20.9811 18.5118C24.4076 18.512 27.8341 18.512 31.2605 18.5119C31.4011 18.5119 31.5419 18.5154 31.6823 18.5102C32.0078 18.4981 32.2723 18.3299 32.3914 18.018C32.5744 17.5388 32.7113 17.0376 32.8463 16.5389C32.9068 16.3156 32.7957 16.1512 32.582 16.0427C32.582 16.0427 32.5749 16.0269 32.5478 15.9993C32.468 15.9886 32.3882 15.9686 32.3084 15.9686C28.744 15.9671 25.1796 15.9669 21.6152 15.9696C21.5227 15.9697 21.4302 16.0027 21.3132 16.0233ZM31.0832 21.0035C31.0109 20.9932 30.9386 20.9739 30.8664 20.9739C27.2666 20.9724 23.6668 20.9722 20.0671 20.9753C19.9942 20.9754 19.9213 21.0159 19.8169 21.049C19.5073 21.1482 19.3272 21.3896 19.2262 21.7044C19.1025 22.0898 18.9897 22.4793 18.8763 22.8684C18.768 23.2401 18.9308 23.4955 19.2859 23.4957C22.9172 23.4979 26.5486 23.4978 30.1799 23.4959C30.5287 23.4958 30.8245 23.2727 30.9428 22.9122C31.0863 22.4749 31.2171 22.0327 31.3449 21.5897C31.4135 21.3518 31.3332 21.1842 31.1161 21.0486C31.1161 21.0486 31.1094 21.0324 31.0832 21.0035Z" fill="#FF8D29"/>
<path d="M10.0174 36.2344C10.6289 36.2516 11.2405 36.2685 11.852 36.2866C11.9253 36.2887 11.9984 36.2979 12.0856 36.3167C11.9422 37.396 12.6532 38.1316 13.5066 38.3464C13.7627 38.4108 14.0249 38.447 14.3239 38.4963C20.0132 38.4961 25.6628 38.4957 31.3125 38.4933C31.4061 38.4933 31.4997 38.4687 31.5933 38.4556C31.852 38.3474 32.116 38.252 32.3681 38.1279C32.7049 37.9621 32.8609 37.6232 32.9676 37.2709C33.1007 36.8313 33.1923 36.3769 33.3111 35.9319C33.3832 35.6619 33.4789 35.3993 33.5534 35.13C33.6822 34.6647 33.7957 34.1943 33.929 33.7307C34.0315 33.3745 34.1671 33.0293 34.2656 32.672C34.4165 32.1245 34.539 31.5677 34.6908 31.0205C34.8262 30.5322 34.9883 30.0528 35.1324 29.5672C35.2957 29.0167 35.4564 28.4652 35.61 27.9115C35.743 27.4326 35.8597 26.9483 35.9924 26.4693C36.1406 25.9348 36.3055 25.4056 36.4506 24.8701C36.5779 24.3999 36.6806 23.9219 36.8083 23.4519C36.8909 23.1481 37.0036 22.8542 37.0941 22.5527C37.189 22.2363 37.2717 21.9157 37.3628 21.598C37.4827 21.1799 37.6057 20.7627 37.741 20.3177C37.8228 20.023 37.8908 19.7558 37.9588 19.4886C38.0452 19.1389 38.1316 18.7891 38.2234 18.4059C38.2992 18.1384 38.3927 17.9091 38.433 17.6692C38.4672 17.465 38.44 17.2488 38.44 17.0032C38.5599 17.0599 38.6325 17.0953 38.706 17.1286C38.8102 17.1759 38.9151 17.2216 39.0197 17.268C39.0197 17.268 39.0163 17.2693 39.0078 17.2815C39.0179 17.3017 39.0365 17.3098 39.0551 17.3179C39.2074 17.4776 39.3597 17.6374 39.5169 17.8129C39.5219 17.8287 39.5216 17.8194 39.5216 17.8194C39.5289 17.8267 39.5362 17.8339 39.5486 17.8758C39.5982 17.9536 39.6427 17.9968 39.6872 18.0399C39.6872 18.0399 39.6841 18.0416 39.6689 18.0516C39.7337 18.2613 39.8136 18.461 39.8935 18.6606C39.9272 18.7367 39.9868 18.8113 39.9906 18.8891C40.0239 19.5777 39.975 20.2524 39.7454 20.9088C39.5959 21.336 39.4978 21.7842 39.374 22.2222C39.2331 22.7208 39.0856 23.2174 38.9478 23.7171C38.8309 24.1408 38.7293 24.5695 38.6109 24.9927C38.4319 25.6321 38.2432 26.2683 38.0606 26.9065C37.8752 27.5542 37.6925 28.2027 37.5082 28.8507C37.3246 29.4965 37.1358 30.1405 36.9576 30.788C36.7509 31.5395 36.5571 32.2951 36.3501 33.0464C36.2432 33.4339 36.1137 33.814 36.0051 34.201C35.806 34.9104 35.6256 35.6262 35.4174 36.3324C35.1735 37.1596 34.9885 38.0229 34.6331 38.7919C34.1241 39.8931 33.2468 40.5941 32.1383 40.9241C32.0332 40.9554 31.9218 40.9619 31.7868 40.9742C31.5983 40.9784 31.4361 40.9969 31.274 40.997C26.8272 40.9989 22.3804 41.0028 17.9336 40.9969C16.6398 40.9952 15.3461 40.9649 14.0523 40.9477C13.5054 40.9235 13.0065 40.7017 12.5604 40.3985C12.0925 40.0806 11.6487 39.7008 11.2538 39.2823C10.7926 38.7935 10.4591 38.1914 10.2407 37.4869C10.1623 37.157 10.0879 36.8628 10.0157 36.5498C10.012 36.4806 10.0061 36.4304 10.0017 36.3641C10.0008 36.327 9.99827 36.3059 10.0019 36.2726C10.0112 36.2517 10.0143 36.2431 10.0174 36.2344Z" fill="#FF8D29"/>
<path d="M21.1257 16.1438C21.1335 16.1397 21.1412 16.1355 21.1693 16.1227C21.2044 16.1092 21.2136 16.0986 21.2171 16.0822C21.2171 16.0822 21.2381 16.0775 21.2607 16.0744C21.2993 16.0638 21.3152 16.0563 21.3407 16.0504C21.3501 16.052 21.369 16.0558 21.39 16.062C21.47 16.0699 21.5291 16.0732 21.5881 16.0732C25.1206 16.0734 28.653 16.0734 32.1855 16.0726C32.3181 16.0726 32.4507 16.0645 32.5832 16.0602C32.7957 16.1512 32.9067 16.3156 32.8462 16.5389C32.7112 17.0376 32.5743 17.5388 32.3913 18.018C32.2722 18.3299 32.0077 18.4982 31.6822 18.5102C31.5418 18.5154 31.4011 18.512 31.2604 18.512C27.834 18.512 24.4075 18.512 20.981 18.5118C20.8923 18.5118 20.8028 18.5165 20.7148 18.5068C20.4503 18.4775 20.2852 18.2925 20.3536 18.0188C20.4845 17.495 20.6528 16.9813 20.8248 16.4711C20.8618 16.3612 20.9806 16.2837 21.0806 16.1797C21.1126 16.1655 21.1214 16.1574 21.1257 16.1438Z" fill="white"/>
<path d="M31.1171 21.0663C31.333 21.1842 31.4133 21.3518 31.3447 21.5897C31.217 22.0327 31.0861 22.475 30.9426 22.9122C30.8243 23.2727 30.5285 23.4958 30.1798 23.4959C26.5484 23.4978 22.9171 23.4979 19.2857 23.4957C18.9306 23.4955 18.7678 23.2401 18.8762 22.8684C18.9896 22.4793 19.1024 22.0898 19.2261 21.7044C19.3271 21.3897 19.5071 21.1482 19.8334 21.0484C19.85 21.0478 19.8596 21.0472 19.8767 21.0568C19.9527 21.0705 20.0115 21.0783 20.0704 21.0783C23.6938 21.0789 27.3172 21.079 30.9406 21.0785C30.9994 21.0785 31.0582 21.0705 31.1171 21.0663Z" fill="white"/>
</svg>
