<svg width="220" height="189" viewBox="0 0 220 189" fill="none" xmlns="http://www.w3.org/2000/svg">
<path d="M220 86C220.008 77.1067 217.819 68.3492 213.628 60.5053C209.437 52.6615 203.373 45.9742 195.976 41.0374C188.579 36.1007 180.077 33.0673 171.225 32.2068C162.374 31.3462 153.447 32.6852 145.237 36.1047C137.027 39.5241 129.789 44.9183 124.166 51.808C118.542 58.6977 114.708 66.8696 113.002 75.5978C111.297 84.326 111.773 93.3404 114.39 101.84C117.006 110.34 121.681 118.062 128 124.32V182C128 183.023 128.261 184.028 128.758 184.922C129.256 185.815 129.974 186.566 130.843 187.104C131.713 187.642 132.706 187.949 133.727 187.996C134.749 188.042 135.765 187.827 136.68 187.37L166 172.71L195.32 187.37C196.152 187.785 197.07 188.001 198 188C199.114 188.002 200.205 187.69 201.15 187.1C202.02 186.563 202.739 185.813 203.238 184.92C203.736 184.028 203.999 183.022 204 182V124.32C209.071 119.31 213.097 113.343 215.844 106.765C218.591 100.187 220.003 93.1286 220 86ZM124 86C124 77.6932 126.463 69.5729 131.078 62.6661C135.693 55.7592 142.253 50.3759 149.927 47.1971C157.602 44.0182 166.047 43.1864 174.194 44.807C182.341 46.4276 189.825 50.4277 195.698 56.3015C201.572 62.1753 205.572 69.659 207.193 77.8062C208.814 85.9534 207.982 94.3982 204.803 102.073C201.624 109.747 196.241 116.307 189.334 120.922C182.427 125.537 174.307 128 166 128C154.861 128 144.178 123.575 136.302 115.698C128.425 107.822 124 97.1391 124 86ZM192 172.29L168.68 160.63C167.848 160.215 166.93 159.998 166 159.998C165.07 159.998 164.152 160.215 163.32 160.63L140 172.29V133.29C147.963 137.678 156.908 139.98 166 139.98C175.092 139.98 184.037 137.678 192 133.29V172.29ZM108 150C108 151.591 107.368 153.117 106.243 154.243C105.117 155.368 103.591 156 102 156H14C10.287 156 6.72602 154.525 4.10051 151.899C1.475 149.274 0 145.713 0 142V14C0 10.287 1.475 6.72602 4.10051 4.10051C6.72602 1.475 10.287 0 14 0H190C193.713 0 197.274 1.475 199.899 4.10051C202.525 6.72602 204 10.287 204 14C204 15.5913 203.368 17.1174 202.243 18.2426C201.117 19.3679 199.591 20 198 20C196.409 20 194.883 19.3679 193.757 18.2426C192.632 17.1174 192 15.5913 192 14C192 13.4696 191.789 12.9609 191.414 12.5858C191.039 12.2107 190.53 12 190 12H14C13.4696 12 12.9609 12.2107 12.5858 12.5858C12.2107 12.9609 12 13.4696 12 14V142C12 142.53 12.2107 143.039 12.5858 143.414C12.9609 143.789 13.4696 144 14 144H102C103.591 144 105.117 144.632 106.243 145.757C107.368 146.883 108 148.409 108 150ZM92 94C92 95.5913 91.3679 97.1174 90.2426 98.2426C89.1174 99.3679 87.5913 100 86 100H46C44.4087 100 42.8826 99.3679 41.7574 98.2426C40.6321 97.1174 40 95.5913 40 94C40 92.4087 40.6321 90.8826 41.7574 89.7574C42.8826 88.6321 44.4087 88 46 88H86C87.5913 88 89.1174 88.6321 90.2426 89.7574C91.3679 90.8826 92 92.4087 92 94ZM92 62C92 63.5913 91.3679 65.1174 90.2426 66.2426C89.1174 67.3679 87.5913 68 86 68H46C44.4087 68 42.8826 67.3679 41.7574 66.2426C40.6321 65.1174 40 63.5913 40 62C40 60.4087 40.6321 58.8826 41.7574 57.7574C42.8826 56.6321 44.4087 56 46 56H86C87.5913 56 89.1174 56.6321 90.2426 57.7574C91.3679 58.8826 92 60.4087 92 62Z" fill="black"/>
</svg>
