<svg width="19" height="22" viewBox="0 0 19 22" fill="none" xmlns="http://www.w3.org/2000/svg">
<path d="M7.86426 16.4062H14.1143V17.9688H7.86426V16.4062ZM4.73926 16.4062H6.30176V17.9688H4.73926V16.4062ZM7.86426 12.5H14.1143V14.0625H7.86426V12.5ZM4.73926 12.5H6.30176V14.0625H4.73926V12.5ZM7.86426 8.59375H14.1143V10.1562H7.86426V8.59375ZM4.73926 8.59375H6.30176V10.1562H4.73926V8.59375Z" fill="#334756"/>
<path d="M16.458 2.34375H14.1143V1.5625C14.1143 1.1481 13.9496 0.750671 13.6566 0.457646C13.3636 0.16462 12.9662 0 12.5518 0H6.30176C5.88736 0 5.48993 0.16462 5.1969 0.457646C4.90388 0.750671 4.73926 1.1481 4.73926 1.5625V2.34375H2.39551C1.98111 2.34375 1.58368 2.50837 1.29065 2.8014C0.997628 3.09442 0.833008 3.49185 0.833008 3.90625V20.3125C0.833008 20.7269 0.997628 21.1243 1.29065 21.4174C1.58368 21.7104 1.98111 21.875 2.39551 21.875H16.458C16.8724 21.875 17.2698 21.7104 17.5629 21.4174C17.8559 21.1243 18.0205 20.7269 18.0205 20.3125V3.90625C18.0205 3.49185 17.8559 3.09442 17.5629 2.8014C17.2698 2.50837 16.8724 2.34375 16.458 2.34375ZM6.30176 1.5625H12.5518V4.6875H6.30176V1.5625ZM16.458 20.3125H2.39551V3.90625H4.73926V6.25H14.1143V3.90625H16.458V20.3125Z" fill="#334756"/>
</svg>
