<svg width="18" height="18" viewBox="0 0 18 18" fill="none" xmlns="http://www.w3.org/2000/svg">
<g clip-path="url(#clip0_247_8685)">
<path d="M12.75 2.505C13.8812 3.15814 14.8222 4.0954 15.4799 5.22398C16.1375 6.35256 16.489 7.63333 16.4996 8.93951C16.5101 10.2457 16.1794 11.532 15.54 12.671C14.9007 13.8101 13.9749 14.7624 12.8544 15.4337C11.7339 16.1051 10.4575 16.4721 9.15157 16.4986C7.84562 16.525 6.55541 16.2099 5.40867 15.5844C4.26192 14.959 3.2984 14.0449 2.6135 12.9326C1.9286 11.8204 1.54606 10.5485 1.50375 9.243L1.5 9L1.50375 8.757C1.54575 7.46175 1.92266 6.19947 2.59773 5.09325C3.2728 3.98702 4.22299 3.07459 5.35567 2.44492C6.48835 1.81524 7.76486 1.4898 9.06075 1.50033C10.3566 1.51086 11.6277 1.857 12.75 2.505ZM9 4.5C8.8163 4.50003 8.639 4.56747 8.50172 4.68954C8.36444 4.81161 8.27674 4.97982 8.25525 5.16225L8.25 5.25V9L8.25675 9.09825C8.27385 9.22838 8.3248 9.35173 8.4045 9.456L8.46975 9.531L10.7198 11.781L10.7902 11.8425C10.9218 11.9446 11.0835 11.9999 11.25 11.9999C11.4165 11.9999 11.5782 11.9446 11.7098 11.8425L11.7802 11.7803L11.8425 11.7098C11.9445 11.5782 11.9999 11.4165 11.9999 11.25C11.9999 11.0835 11.9445 10.9218 11.8425 10.7903L11.7802 10.7198L9.75 8.68875V5.25L9.74475 5.16225C9.72326 4.97982 9.63556 4.81161 9.49828 4.68954C9.361 4.56747 9.1837 4.50003 9 4.5Z" fill="white"/>
</g>
<defs>
<clipPath id="clip0_247_8685">
<rect width="18" height="18" fill="white"/>
</clipPath>
</defs>
</svg>
