<svg width="1007" height="885" viewBox="0 0 1007 885" fill="none" xmlns="http://www.w3.org/2000/svg">
<path d="M165.439 829.072C154.781 837.737 145.058 840.936 136.27 838.67C127.481 836.403 118.59 829.739 109.596 818.676C97.532 803.836 90.0041 785.756 87.0126 764.437C71.8745 766.212 59.2603 760.894 49.1701 748.482C36.996 733.507 32.8034 714.844 36.5924 692.494C40.7939 667.343 54.6318 645.226 78.1062 626.142C85.5262 620.11 92.4532 615.263 98.8872 611.601C105.211 607.804 111.65 604.698 118.202 602.285C124.889 599.761 132.298 597.435 140.427 595.308C148.557 593.18 158.205 590.715 169.37 587.912C196.306 580.803 214.36 573.52 223.534 566.062C227.986 562.443 231.009 558.305 232.601 553.649C234.084 548.858 233.564 544.911 231.042 541.808C229.397 539.785 227.039 538.676 223.969 538.483C221.928 537.902 220.688 537.341 220.25 536.802C220.03 536.532 220.055 536.287 220.325 536.068C221.405 535.191 223.821 535.131 227.574 535.889C231.327 536.647 234.301 538.375 236.494 541.073C238.907 544.041 239.844 547.537 239.306 551.56C238.902 555.473 237.44 559.463 234.919 563.529C232.424 567.35 229.355 570.741 225.712 573.702C215.594 581.928 197.012 589.528 169.967 596.501C159.94 599.051 151.363 601.318 144.238 603.302C137.002 605.151 130.555 607.143 124.896 609.278C119.128 611.279 113.744 613.751 108.743 616.696C103.768 619.396 98.5825 622.94 93.1861 627.327C65.2597 650.03 50.6177 676.946 49.2601 708.076C49.0417 711.39 49.6037 715.527 50.9461 720.486C52.1787 725.309 53.8457 730.116 55.9471 734.906C58.1833 739.586 60.5627 743.478 63.0853 746.581C69.4465 754.405 77.1476 758.228 86.1885 758.048C85.3509 748.198 85.7361 738.474 87.3443 728.876C88.9777 719.033 91.8933 709.94 96.091 701.598C100.289 693.256 105.895 686.234 112.911 680.53C125.052 670.659 134.962 670.446 142.639 679.89C151.852 691.222 155.21 708.995 152.711 733.209C150.239 757.179 143.336 773.77 132.003 782.983C124.718 788.905 118.553 788.764 113.508 782.558C111.753 780.399 110.757 778.072 110.521 775.575C110.419 772.969 111.342 771.211 113.29 770.299C113.838 770.974 114.483 771.906 115.226 773.095C115.859 774.149 116.34 774.878 116.669 775.283C118.314 777.306 122.239 775.796 128.445 770.751C137.619 763.293 143.519 750.429 146.145 732.161C147.324 723.137 147.321 714.176 146.138 705.278C145.09 696.271 142.482 689.205 138.314 684.078C133.379 678.007 126.999 678.152 119.174 684.514C113.508 689.12 109.035 695.333 105.757 703.152C102.613 710.861 100.507 719.295 99.4382 728.455C98.26 737.479 97.8281 746.457 98.1427 755.388C99.0366 755.11 100.133 754.667 101.431 754.059C102.73 753.452 104.164 752.734 105.732 751.907L118.203 742.441C124.358 737.885 127.875 736.147 128.752 737.226C130.288 739.115 128.357 742.253 122.961 746.64C120.532 748.614 118.117 750.466 115.714 752.196C113.445 753.815 111.19 755.313 108.947 756.688C107.243 757.625 105.54 758.562 103.837 759.498C102.158 760.19 100.426 760.815 98.6377 761.372C101.191 785.736 107.897 804.597 118.755 817.953C132.794 835.221 146.491 838.427 159.847 827.569C174.957 815.285 182.119 791.985 181.334 757.668L172.959 666.332C169.956 633.146 173.847 611.61 184.631 601.722L193.801 597.292C197.217 596.532 200.405 597.973 203.366 601.616C204.902 603.505 204.995 604.997 203.646 606.094C203.241 606.423 202.12 607.111 200.281 608.157C198.468 608.959 197.157 609.689 196.348 610.347C186.769 618.134 183 637.891 185.042 669.618L190.506 758.614C189.579 792.754 181.224 816.24 165.439 829.072ZM243.772 733.124C239.86 736.305 236.972 736.748 235.107 734.455C234.01 733.106 233.065 730.289 232.271 726.005C229.483 709.897 227.063 695.62 225.01 683.172C222.983 670.48 221.445 659.63 220.397 650.623C215.503 611.804 215.484 588.628 220.339 581.095C220.609 580.876 220.811 580.711 220.946 580.602C220.972 580.357 221.052 580.18 221.187 580.07C222.94 578.644 225.239 579.129 228.082 581.523C229.98 584.685 231.3 600.642 232.042 629.392C232.24 644.244 232.728 656.283 233.507 665.509C234.31 674.491 235.337 680.715 236.586 684.181C238.406 677.324 240.398 669.99 242.564 662.18C244.729 654.369 246.924 646.871 249.148 639.685C251.263 632.364 253.454 626.101 255.722 620.897C257.879 615.558 259.928 611.876 261.867 609.851C262.137 609.632 262.474 609.358 262.879 609.029C263.174 608.565 263.389 608.278 263.523 608.168C267.301 605.097 270.616 605.316 273.467 608.823C274.235 609.768 274.721 612.846 274.924 618.058C275.128 623.27 275.476 631.278 275.968 642.081C276.716 661.192 279.503 673.715 284.328 679.651C286.851 682.754 289.259 683.374 291.552 681.509C293.871 679.4 295.759 676.072 297.217 671.526C298.81 666.87 300.019 661.742 300.844 656.142C301.669 650.542 302.211 645.283 302.471 640.366C302.756 635.205 302.916 631.266 302.949 628.55C303.176 626.349 303.627 624.974 304.301 624.426C304.841 623.987 305.33 624.037 305.769 624.577C306.646 625.656 307.148 627.377 307.275 629.738C307.302 633.078 307.012 637.683 306.406 643.553C305.936 649.313 305.183 655.415 304.147 661.859C303.137 668.058 301.877 673.675 300.369 678.711C298.886 683.502 297.335 686.555 295.716 687.871C287.757 694.342 279.993 692.923 272.425 683.614C268.148 678.353 264.983 669.498 262.93 657.051C262.186 652.277 261.51 647.449 260.902 642.566C260.293 637.683 259.685 632.8 259.076 627.917C248.827 650.59 243.542 676.061 243.221 704.332C243.441 708.186 243.758 712.297 244.173 716.666C244.478 720.899 244.656 724.564 244.707 727.659C244.759 730.754 244.447 732.576 243.772 733.124ZM338.879 655.806C335.641 658.439 331.471 659.924 326.369 660.263C321.267 660.602 317.252 659.384 314.325 656.61C304.53 647.319 301.038 629.655 303.848 603.619C306.523 577.693 313.594 560.069 325.061 550.746C328.164 548.224 331.195 546.992 334.156 547.05C335.868 547.227 337.584 547.96 339.305 549.25C341.161 550.43 342.224 550.91 342.494 550.691C343.033 550.252 343.451 549.801 343.746 549.337C343.931 548.738 344.293 548.219 344.833 547.781C346.452 546.465 348.362 545.92 350.563 546.147C352.765 546.374 354.317 546.905 355.219 547.74C355.574 547.9 356.685 558.088 358.555 578.303C360.205 598.248 363.299 610.185 367.838 614.114C371.035 616.669 373.78 617.014 376.074 615.149C383.089 609.446 386.473 587.425 386.226 549.085C386.192 548.216 386.378 547.617 386.783 547.288C387.457 546.74 388.178 546.938 388.946 547.882C389.823 548.962 390.313 550.804 390.415 553.41C392.036 590.409 388.26 612.637 379.086 620.095C377.872 621.082 376.56 621.812 375.152 622.285C367.352 624.817 360.764 622.778 355.39 616.167C353.526 613.874 351.931 611.361 350.606 608.629L347.93 630.971C347.224 637.819 345.977 643.314 344.19 647.455C342.538 651.487 340.768 654.271 338.879 655.806ZM333.439 652.835C341.263 646.474 344.957 629.242 344.519 601.141L341.951 554.157C339.336 553.146 336.814 553.627 334.386 555.602C326.156 562.292 320.4 577.951 317.118 602.578C313.515 627.914 316.021 644.364 324.634 651.926C327.94 654.616 330.875 654.919 333.439 652.835ZM459.827 556.472C456.184 559.434 452.798 560.506 449.669 559.689C446.43 558.736 443.55 556.709 441.027 553.606C434.666 545.781 430.564 535.223 428.722 521.932L424.564 490.357C420.874 504.561 418.622 520.396 417.809 537.862C417.574 542.535 417.386 547.953 417.244 554.119C417.237 560.174 417.332 567.043 417.528 574.726C417.826 585.016 417.503 590.544 416.559 591.312C414.67 592.847 412.46 593.299 409.93 592.667C407.29 591.9 405.422 590.842 404.325 589.493C403.447 588.414 402.194 586.184 400.566 582.802C398.827 579.286 397.553 576.064 396.743 573.138C395.822 570.077 394.957 567.083 394.147 564.157C393.362 560.986 392.564 557.937 391.753 555.011L389.976 577.631C389.925 578.12 389.774 579.588 389.522 582.034C389.269 584.479 388.738 586.031 387.929 586.689C387.254 587.238 386.533 587.04 385.765 586.095C385.546 585.826 385.407 585.379 385.348 584.755C385.044 584.105 384.955 583.169 385.081 581.946C385.46 578.277 385.796 574.419 386.09 570.371C386.384 566.322 386.471 561.882 386.352 557.049C386.36 554.578 386.371 550.872 386.387 545.929C386.293 540.852 386.236 535.408 386.218 529.598C386.334 523.677 386.468 518.191 386.618 513.139C386.525 511.646 386.773 510.436 387.364 509.508C387.844 508.445 388.219 507.804 388.489 507.585C392.131 504.623 395.104 504.559 397.408 507.393C398.066 508.202 398.521 509.176 398.775 510.314C400.233 536.914 403.312 555.586 408.012 566.329C410.94 537.957 413.944 516.02 417.027 500.518C420.135 484.771 423.712 475.253 427.759 471.962C429.918 470.207 431.811 469.229 433.439 469.026C435.201 468.713 436.85 469.501 438.386 471.39C438.934 472.065 439.305 472.659 439.499 473.173C439.862 474.447 440.168 480.473 440.415 491.251C440.383 497.551 440.414 503.24 440.509 508.317C440.738 513.284 441.042 517.518 441.423 521.018C442.066 526.769 443.151 531.825 444.678 536.185C446.096 540.41 447.738 543.669 449.602 545.963C450.37 546.907 451.437 547.944 452.804 549.074C454.17 550.203 455.528 550.22 456.877 549.123C459.98 546.601 462.643 539.954 464.867 529.184C465.776 523.963 466.483 518.907 466.988 514.015C467.383 508.988 467.698 504.139 467.933 499.466C468.034 498.488 468.088 496.763 468.096 494.292C467.994 491.686 468.078 490.273 468.348 490.054C468.887 489.615 469.596 489.936 470.473 491.015C470.912 491.555 471.342 492.773 471.765 494.671C472.212 496.324 472.373 497.761 472.247 498.984C472.188 501.945 471.936 506.183 471.491 511.699C471.18 517.105 470.52 522.907 469.51 529.106C468.634 535.196 467.442 540.758 465.934 545.794C464.426 550.829 462.39 554.389 459.827 556.472ZM532.972 500.37C528.52 503.989 523.498 505.943 517.906 506.231C512.45 506.41 506.849 505.585 501.106 503.756C495.497 501.818 490.225 499.606 485.29 497.119C485.333 499.101 485.583 501.475 486.039 504.241C486.63 506.898 487.293 510.056 488.028 513.716L491.954 531.363C485.562 533.422 481.05 532.833 478.417 529.595C473.701 523.794 469.432 500.489 465.608 459.679C461.903 420.117 461.424 395.41 464.171 385.559C464.516 384.606 465.431 383.526 466.915 382.319C471.097 378.919 474.066 378.299 475.821 380.457C476.15 380.862 476.412 383.114 476.607 387.213C476.692 391.176 476.744 396.064 476.763 401.875C476.781 407.685 476.787 413.619 476.78 419.674C476.799 425.485 476.826 430.617 476.861 435.07C476.786 439.388 476.888 441.994 477.166 442.888C484.288 426.567 491.492 415.445 498.777 409.522C501.61 407.219 504.831 405.945 508.441 405.699C512.186 405.344 515.665 405.764 518.878 406.961C522.092 408.158 524.441 409.945 525.926 412.323C531.098 420.89 530.857 431.618 525.201 444.507C520.776 455.05 515.326 462.954 508.851 468.218C501.835 473.922 496.266 476.993 492.142 477.433C491.222 477.956 490.712 478.707 490.611 479.685C490.536 480.419 491.017 481.148 492.054 481.873C509.432 495.531 522.505 498.796 531.274 491.667C535.591 488.157 539.296 481 542.388 470.195C545.615 459.281 547.382 445.744 547.69 429.585C547.867 427.873 548.36 426.688 549.169 426.03C549.844 425.482 550.51 425.612 551.168 426.422C551.716 427.096 552.067 428.492 552.219 430.609C552.146 438.511 551.562 447.164 550.468 456.568C549.399 465.728 547.525 474.31 544.846 482.314C542.056 490.183 538.098 496.202 532.972 500.37ZM491.622 473.486C497.693 468.55 503.623 459.584 509.414 446.586C516.14 431.707 516.926 421.097 511.771 414.756C510.893 413.677 509.409 413.091 507.317 412.999C505.226 412.907 503.505 413.409 502.156 414.506C494.871 420.428 488.675 430.171 483.568 443.734C478.174 458.874 477.457 471.221 481.415 480.775C482.899 479.569 484.897 478.168 487.41 476.574C489.948 474.735 491.352 473.705 491.622 473.486ZM719.053 430.431C715.68 433.173 711.582 435.161 706.758 436.393C702.069 437.516 697.414 437.716 692.792 436.992C688.305 436.158 684.8 434.19 682.278 431.087C679.974 428.254 680.239 425.686 683.073 423.382C683.612 422.944 684.084 422.56 684.489 422.231C685.138 421.927 685.788 421.623 686.437 421.319C692.772 425.804 697.913 428.683 701.861 429.955C705.918 431.363 710.644 429.873 716.041 425.486C724.405 418.686 728.85 405.549 729.376 386.075C730.037 366.492 727.538 340.403 721.878 307.808L705.495 213.236L702.71 252.808C701.533 269.001 700.47 282.302 699.52 292.709C698.57 303.117 697.843 310.766 697.338 315.658C696.43 324.463 695.314 332.876 693.992 340.897C692.671 348.918 690.691 356.129 688.053 362.531C685.55 368.824 681.87 373.944 677.013 377.892C669.323 384.144 661.804 382.75 654.456 373.711C645.682 362.918 641.22 348.059 641.072 329.134C641.154 322.345 641.236 315.555 641.319 308.766C641.401 301.977 641.429 295.12 641.402 288.196C641.142 265.552 640.012 247.761 638.009 234.824C637.156 229.916 636.16 225.796 635.02 222.465C634.016 219.024 632.691 216.292 631.046 214.269C628.633 211.301 625.596 210.184 621.936 210.919C618.167 211.519 613.449 214.122 607.782 218.728C593.482 230.354 580.737 255.056 569.547 292.834C566.792 301.572 565.087 310.913 564.432 320.856C563.776 330.8 564.353 340.191 566.16 349.029C567.967 357.867 571.229 365.187 575.945 370.988C580.771 376.924 586.034 379.815 591.735 379.662C597.462 379.264 602.956 376.926 608.217 372.649C615.098 367.055 620.307 357.89 623.846 345.154C628.32 330.537 631 322.533 631.885 321.141C634.594 327.23 633.707 337.026 629.224 350.529C624.125 365.206 617.124 376.163 608.22 383.402C601.205 389.105 593.902 391.009 586.311 389.113C578.72 387.218 572.292 383.032 567.028 376.556C552.112 358.209 550.29 328.543 561.563 287.561C563.779 279.261 567.293 270.354 572.107 260.839C577.054 251.215 582.686 242.156 589 233.661C595.205 225.032 601.478 218.14 607.819 212.985C613.755 208.159 619.814 205.138 625.995 203.922C632.177 202.706 637.352 204.661 641.519 209.787C646.564 215.993 650.097 228.47 652.118 247.218C653.023 255.221 653.633 265.481 653.948 277.996C654.399 290.402 654.5 304.997 654.251 321.78C654.059 328.434 655.124 336.084 657.446 344.728C659.658 353.237 662.299 359.38 665.37 363.157C668.331 366.8 671.229 367.47 674.062 365.166C677.03 362.754 679.714 357.098 682.116 348.2C689.033 323.082 693.954 294.545 696.88 262.589C699.538 234.436 700.105 211.568 698.582 193.984C697.642 181.527 700.275 172.776 706.481 167.731C708.64 165.976 710.268 165.774 711.364 167.123C711.584 167.393 711.736 167.717 711.82 168.097C712.039 168.366 712.191 168.691 712.276 169.071C715.325 187.43 719.055 211.174 723.466 240.303C728.011 269.323 733.17 303.782 738.941 343.68C740.412 354.585 740.811 365.688 740.139 376.989C739.468 388.291 737.472 398.652 734.152 408.073C730.831 417.495 725.798 424.948 719.053 430.431ZM796.628 281.994C793.121 284.846 788.807 285.328 783.687 283.44C780.01 281.948 776.91 279.651 774.387 276.548C768.026 268.723 764.656 252.864 764.279 228.971C764.845 204.311 768.569 189.184 775.449 183.59C782.195 178.107 788.529 179.007 794.451 186.292C796.316 188.586 798.02 191.234 799.564 194.236C799.893 194.64 800.732 194.294 802.081 193.198C803.861 191.527 805.892 189.203 808.177 186.225C810.352 183.113 812.607 179.823 814.943 176.356C817.168 172.754 819.179 169.439 820.974 166.411C822.66 163.248 823.891 160.903 824.666 159.376C825.61 155.024 827.498 151.696 830.331 149.393C833.569 146.761 836.175 146.659 838.149 149.087C838.917 150.032 839.225 151.238 839.073 152.705C838.265 156.948 837.832 162.341 837.775 168.886C837.743 175.186 838.099 182.515 838.844 190.872C839.386 201.187 840.485 209.704 842.14 216.426C843.685 223.012 845.677 227.667 848.115 230.39C849.836 231.68 851.371 231.777 852.72 230.68C853.664 229.912 854.874 228.369 856.349 226.049C857.715 223.594 859.152 219.849 860.66 214.814C862.059 209.644 863.077 202.766 863.716 194.18C863.842 192.957 864.069 188.964 864.396 182.2C864.613 175.301 864.496 165.648 864.046 153.242C863.908 142.599 864.399 134.245 865.519 128.181C866.664 121.872 867.912 118.169 869.261 117.073C873.848 113.344 877.714 113.001 880.861 116.045C881.3 116.584 881.667 118.414 881.963 121.535C882.259 124.655 882.227 129.163 881.866 135.058C881.817 142.716 881.815 149.328 881.859 154.895C882.037 160.351 882.207 164.695 882.368 167.925C883.502 180.895 885.916 189.24 889.611 192.958C891.476 195.252 893.205 195.863 894.799 194.791C896.283 193.585 897.48 192.163 898.39 190.527C901.416 185.154 903.806 178.17 905.557 169.575C907.444 160.871 908.563 149.431 908.913 135.253C908.904 134.14 909.317 133.132 910.152 132.229C910.877 131.192 911.678 131.213 912.555 132.292C912.775 132.562 913.024 133.144 913.302 134.038C913.606 134.687 913.695 135.623 913.569 136.846C913.452 142.767 913.197 148.24 912.802 153.267C912.407 158.293 911.476 164.315 910.011 171.333C908.992 176.419 908.002 181.816 907.042 187.526C906.108 192.992 903.684 197.315 899.772 200.495C896.534 203.127 892.988 204.554 889.134 204.774C885.305 204.75 882.184 203.254 879.771 200.286C877.139 197.048 875.253 193.763 874.114 190.432C872.999 186.857 871.548 183.555 869.759 180.528C869.585 192.993 868.66 203.156 866.984 211.017C865.443 218.768 863.657 224.702 861.625 228.818C859.484 232.799 857.537 235.503 855.783 236.929C854.029 238.354 851.592 239.215 848.472 239.511C845.376 239.563 842.23 238.311 839.033 235.757C835.836 233.202 833.263 228.796 831.313 222.539C828.84 215.363 826.952 206.702 825.651 196.556C824.349 186.411 823.786 176.898 823.96 168.017C823.294 169.678 822.536 171.639 821.685 173.9C820.859 175.916 819.695 178.206 818.195 180.77C817.015 182.626 815.527 185.068 813.731 188.096C811.936 191.124 810.098 193.963 808.218 196.612C806.473 199.151 805.006 200.791 803.817 201.534C809.055 204.67 811.458 216.721 811.025 237.687C811.276 259.219 807.421 273.22 799.461 279.691L796.628 281.994ZM794.804 272.722C800.47 268.115 803.79 256.902 804.763 239.081C804.843 221.539 803.128 210.609 799.618 206.292C796.498 206.588 791.21 205.733 783.754 203.728C779.706 207.018 777.538 217.856 777.248 236.242C777.452 245.038 778.243 252.35 779.619 258.178C781.131 263.895 782.983 268.103 785.176 270.801C788.762 274.385 791.971 275.025 794.804 272.722ZM957.077 151.892C954.784 153.756 952.211 154.727 949.361 154.804C946.536 154.636 944.355 153.607 942.82 151.719C939.639 147.806 940.612 143.766 945.739 139.599C947.627 138.063 950.064 137.202 953.05 137.016C955.926 136.695 958.186 137.546 959.831 139.569C961.148 141.188 961.422 143.318 960.655 145.958C959.889 148.598 958.696 150.576 957.077 151.892Z" fill="#2A2A2A" fill-opacity="0.5"/>
</svg>
