<svg width="29" height="29" viewBox="0 0 29 29" fill="none" xmlns="http://www.w3.org/2000/svg">
<path d="M10.9177 10.5018C12.9251 11.6704 16.1611 11.6704 18.1686 10.5018C20.1761 9.3333 20.1461 7.47563 18.1386 6.3071C16.1311 5.13856 12.8952 5.13856 10.8877 6.3071C8.91018 7.44567 8.91018 9.3333 10.9177 10.5018ZM11.8465 8.49436C11.9963 8.43443 12.1461 8.40447 12.2959 8.34454C12.4158 8.31458 12.4757 8.31458 12.5356 8.31458C12.5656 8.34454 12.5956 8.34454 12.5956 8.40447C12.6854 8.58424 12.8652 8.76402 13.075 8.91383C13.1049 8.94379 13.1349 8.97375 13.1948 9.00372C13.3147 9.06364 13.4345 9.12357 13.5843 9.15353C13.9738 9.24342 14.3034 9.0936 14.2735 8.8539C14.2735 8.76402 14.2135 8.70409 14.1536 8.6142C14.0338 8.43443 13.854 8.22469 13.7641 8.01496C13.6143 7.68537 13.6742 7.38574 14.1536 7.14604C14.663 6.87638 15.2622 6.87638 15.8914 7.0262C16.1311 7.08612 16.1311 7.08612 16.3409 6.99623C16.4008 6.96627 16.4607 6.90634 16.5506 6.87638C16.7004 6.7865 16.7603 6.7865 16.9102 6.87638C16.9701 6.90634 17 6.93631 17.06 6.96627C17.3596 7.14604 17.3596 7.14604 17.06 7.32582C16.8502 7.44567 16.8502 7.44567 17.03 7.59548C17.1798 7.71533 17.2697 7.83518 17.3596 7.95503C17.4195 8.01496 17.3896 8.07488 17.2697 8.10484C17.0899 8.16477 16.9401 8.22469 16.7603 8.25466C16.6405 8.28462 16.5806 8.28462 16.5506 8.25466C16.5206 8.22469 16.4907 8.22469 16.4907 8.16477C16.3708 7.98499 16.221 7.83518 15.9813 7.68537C15.9514 7.65541 15.9214 7.65541 15.8914 7.62544C15.8315 7.59548 15.7416 7.56552 15.6517 7.53556C15.3221 7.44567 15.0225 7.59548 15.0525 7.80522C15.0824 7.89511 15.1424 8.01496 15.2023 8.10484C15.3221 8.28462 15.442 8.43443 15.5319 8.6142C15.8015 9.18349 15.2023 9.72281 14.2435 9.78274C13.8839 9.8127 13.5544 9.75278 13.2547 9.66289C13.1349 9.63293 13.015 9.63293 12.9251 9.69285C12.8353 9.75278 12.7154 9.8127 12.5956 9.87263C12.5057 9.93255 12.3858 9.93255 12.2959 9.87263C12.236 9.84266 12.1461 9.78274 12.0862 9.75278C12.0263 9.72281 11.9963 9.69285 11.9364 9.66289C11.8465 9.60297 11.8465 9.54304 11.9364 9.48312C12.0263 9.42319 12.0862 9.39323 12.1761 9.3333C12.3559 9.24342 12.3559 9.21345 12.206 9.12357C12.0263 8.97375 11.8765 8.82394 11.7566 8.67413C11.6068 8.58424 11.6368 8.55428 11.8465 8.49436ZM18.8278 10.8614C19.3671 10.5318 20.2659 10.5318 20.8352 10.8614C21.4045 11.191 21.4045 11.7003 20.8352 12.0299C20.2959 12.3595 19.397 12.3595 18.8278 12.0299C18.2585 11.7003 18.2585 11.191 18.8278 10.8614ZM8.25101 4.74905C8.79033 4.41946 9.6892 4.41946 10.2585 4.74905C10.8278 5.07864 10.8278 5.588 10.2585 5.91758C9.71917 6.24717 8.82029 6.24717 8.25101 5.91758C7.71168 5.588 7.68172 5.07864 8.25101 4.74905ZM0.730431 7.23593L16.5506 16.3745C17.4794 16.9138 18.9476 16.9138 19.8465 16.3745L28.3258 11.4606C29.2247 10.9213 29.2247 10.0824 28.3258 9.54304L12.5057 0.404493C11.5768 -0.134831 10.1087 -0.134831 9.2098 0.404493L0.730431 5.31834C-0.168442 5.85766 -0.168442 6.72657 0.730431 7.23593ZM4.17611 5.31834C4.08623 5.25841 3.96638 5.19848 3.84653 5.16852L8.91018 2.20224C9.00007 2.26217 9.08995 2.32209 9.17984 2.38201C10.1087 2.92134 11.6068 2.92134 12.5356 2.38201C12.6555 2.32209 12.7454 2.26216 12.8053 2.17228L25.1199 9.27338C24.9701 9.3333 24.7903 9.39323 24.6704 9.48312C23.7416 10.0224 23.7416 10.8913 24.6704 11.4307C24.8202 11.5206 24.9701 11.5805 25.1498 11.6404L20.0262 14.6067C19.9364 14.5168 19.8165 14.4269 19.6667 14.337C18.7379 13.7977 17.2397 13.7977 16.3109 14.337C16.251 14.367 16.1911 14.4269 16.1311 14.4569L3.84653 7.35578C3.96638 7.29586 4.08623 7.26589 4.17611 7.20597C5.10495 6.72657 5.10495 5.85766 4.17611 5.31834ZM0.34092 9.06364C0.730432 8.8539 1.35964 8.88387 1.74915 9.12357L18.2884 18.6816L27.2172 13.4981C27.6067 13.2584 28.236 13.2584 28.6255 13.4981C29.015 13.7378 29.015 14.0973 28.6255 14.3071L19.1274 19.8202C18.648 20.0898 17.8989 20.0898 17.4495 19.8202L17.1199 19.6404L16.8802 19.4906L0.310957 9.90259C-0.108517 9.66289 -0.108517 9.30334 0.34092 9.06364ZM28.6554 17.2734L19.1573 22.7864C18.6779 23.0561 17.9289 23.0561 17.4794 22.7864L17.1499 22.6067L16.9102 22.4569L0.310957 12.8988C-0.0785545 12.6591 -0.0785545 12.2696 0.34092 12.0599C0.730432 11.8501 1.35964 11.8801 1.74915 12.1198L18.2884 21.6778L27.2172 16.4943C27.6067 16.2546 28.236 16.2546 28.6255 16.4943C29.0449 16.6741 29.0449 17.0337 28.6554 17.2734ZM0.34092 15.0561C0.730432 14.8464 1.35964 14.8764 1.74915 15.0861L18.2884 24.6441L27.2172 19.4606C27.6067 19.2209 28.236 19.2209 28.6255 19.4606C29.015 19.7003 29.015 20.0599 28.6255 20.2696L19.1274 25.7827C18.648 26.0523 17.8989 26.0523 17.4495 25.7827L17.1199 25.573L16.8802 25.4231L0.310957 15.8951C-0.108517 15.6554 -0.108517 15.2659 0.34092 15.0561ZM28.6554 23.2359L19.1573 28.7789C18.6779 29.0486 17.9289 29.0486 17.4794 28.7789L17.1199 28.5692L16.8802 28.4194L0.310957 18.8614C-0.0785545 18.6217 -0.0785545 18.2322 0.34092 18.0224C0.730432 17.8127 1.35964 17.8426 1.74915 18.0823L18.2884 27.6404L27.2172 22.4569C27.6067 22.2172 28.236 22.2172 28.6255 22.4569C29.0449 22.6666 29.0449 23.0261 28.6554 23.2359Z" fill="white"/>
</svg>
