<svg width="110" height="110" viewBox="0 0 110 110" fill="none" xmlns="http://www.w3.org/2000/svg">
<circle cx="55" cy="55" r="45" fill="#FDF2D8"/>
<circle cx="55" cy="55" r="52.5" stroke="#FF8D29" stroke-width="5" stroke-linejoin="round"/>
<path d="M40.382 79.9976C38.8095 79.3334 38.4455 78.7745 38.4455 77.0267C38.4455 72.6835 38.4455 68.3403 38.4455 63.9972V63.3734C37.9964 63.3734 37.5959 63.3771 37.1955 63.3734C36.1901 63.3612 35.7386 62.823 35.9297 61.8299C36.4762 58.9752 37.0336 56.1229 37.6057 53.1802C37.6605 53.3502 37.6994 53.4407 37.7164 53.5337C37.9635 54.9109 38.8046 55.7683 40.2128 55.8098C42.5084 55.8771 44.81 55.8832 47.1056 55.8086C48.6282 55.7585 49.4693 54.7983 49.7006 53.1814C49.8564 53.9618 50.017 54.7421 50.1667 55.5249C50.5781 57.6616 50.9883 59.7995 51.3936 61.9375C51.5531 62.7802 51.1149 63.3367 50.258 63.3709C49.8101 63.3893 49.361 63.3746 48.8559 63.3746C48.8559 63.6217 48.8559 63.8113 48.8559 64.0021C48.8559 68.3122 48.8206 72.6236 48.8753 76.9337C48.8948 78.4259 48.4518 79.4936 46.99 80H46.0187C44.5678 79.479 44.1272 78.41 44.1467 76.919C44.2027 72.6065 44.1662 68.2926 44.1662 63.98V63.4052H43.145C43.145 63.6412 43.145 63.8492 43.145 64.0571C43.145 68.4675 43.1413 72.878 43.1486 77.2896C43.1498 78.0688 43.0269 78.8038 42.4134 79.3249C42.0775 79.6098 41.6442 79.7786 41.2559 80H40.3808L40.382 79.9976ZM66.4267 79.9976C67.3603 79.6967 68.0711 79.161 68.295 78.1458C68.3608 77.8486 68.3693 77.533 68.3693 77.226C68.3729 71.2207 68.3717 65.2166 68.3717 59.2112V58.6046H69.371C69.382 58.8113 69.4002 59.0131 69.4002 59.2161C69.4014 65.1236 69.427 71.0311 69.3832 76.9374C69.3722 78.4308 69.8274 79.4936 71.2856 79.9976H72.2569C73.468 79.5413 74.1301 78.728 74.1276 77.3643C74.1106 70.0747 74.1203 62.7851 74.1179 55.4955C74.1179 55.361 74.0972 55.2264 74.0802 55.0258C73.3681 55.668 72.5746 55.789 71.7262 55.7793C70.0745 55.7609 68.4228 55.7744 66.7712 55.7731C65.694 55.7731 64.5888 55.9065 63.6723 54.9953C63.6492 55.1653 63.6346 55.2252 63.6346 55.2839C63.6346 62.6872 63.6272 70.0906 63.6394 77.4939C63.6419 78.7537 64.231 79.4973 65.4323 79.9181C65.4761 79.9327 65.5114 79.9706 65.5504 79.9976H66.4255H66.4267ZM43.9276 40.1433C43.2241 40.0944 42.579 40.24 41.9923 40.6424C41.1427 41.2246 40.7825 42.0844 40.6656 43.058C39.4302 43.1876 39.1344 43.5203 39.1344 44.7446C39.1344 47.4464 39.1344 50.1482 39.1344 52.85C39.1344 53.9593 39.5495 54.3727 40.6632 54.3739C42.6715 54.3764 44.6798 54.3776 46.6881 54.3739C47.7531 54.3715 48.1633 53.9593 48.1633 52.9026C48.1645 50.1677 48.1633 47.4342 48.1633 44.6993C48.1633 43.4995 47.859 43.1668 46.6479 43.0677C46.3668 41.3102 45.3602 40.2449 43.9252 40.1433H43.9276ZM45.1983 49.6259C45.7801 49.6455 46.1781 50.0198 46.2073 50.5432C46.2365 51.0716 45.8373 51.54 45.247 51.5584C44.1966 51.5914 43.1425 51.589 42.0921 51.5621C41.4933 51.5462 41.0928 51.1022 41.1074 50.5689C41.122 50.0283 41.5334 49.6528 42.1408 49.6235C42.1737 49.6223 42.2053 49.6235 42.2382 49.6235C42.7238 49.6235 43.2095 49.6235 43.6951 49.6235V49.6259C44.1966 49.6259 44.6993 49.6125 45.2007 49.6296L45.1983 49.6259ZM42.2199 43.0702C42.2199 42.2422 42.792 41.6392 43.5783 41.6233C44.4838 41.6049 45.0754 42.1553 45.1119 43.0702H42.2199V43.0702ZM64.377 44.6785C64.377 47.428 64.3746 50.1775 64.3782 52.9282C64.3795 53.8235 64.803 54.2993 65.6502 54.3042C67.8033 54.3189 69.9577 54.3177 72.1108 54.3042C72.9178 54.2993 73.3949 53.8456 73.3998 53.0347C73.418 50.1225 73.4168 47.2091 73.3998 44.2969C73.3949 43.5276 73.0054 43.1399 72.2569 43.0359C72.1327 43.0188 72.0074 43.0066 71.893 42.9931C71.4463 40.9824 70.3983 40.0064 68.7649 40.059C67.2507 40.1079 66.1942 41.1756 65.8899 42.9882C64.6144 43.1534 64.377 43.4237 64.377 44.6785V44.6785ZM67.3384 51.4875C66.7541 51.4679 66.361 51.0948 66.3342 50.5677C66.3086 50.0577 66.6847 49.5856 67.2519 49.5648C68.334 49.5244 69.4209 49.5244 70.503 49.5623C71.0775 49.5819 71.4523 50.0393 71.4353 50.553C71.417 51.0936 71.0069 51.4642 70.3971 51.4923C70.3642 51.4936 70.3326 51.4923 70.2997 51.4923C69.8141 51.4923 69.3284 51.4923 68.8428 51.4923V51.4899C68.3413 51.4899 67.8386 51.5034 67.3384 51.4862V51.4875ZM68.9377 41.5548C69.7471 41.5682 70.3204 42.1565 70.3167 42.9944H67.4309C67.4674 42.0978 68.0626 41.5401 68.9365 41.5548H68.9377ZM73.0541 41.5695C73.1089 41.66 73.2026 41.7431 73.2988 41.7884C74.5147 42.3547 74.9943 43.3307 74.9894 44.6492C74.9711 49.3165 74.9784 53.985 74.9845 58.6523C74.9857 59.9084 75.8085 60.7829 76.9588 60.7853C78.0883 60.7878 78.9378 59.9365 78.9415 58.7073C78.9561 53.8774 78.9768 49.0462 78.9318 44.2162C78.9147 42.3902 78.0225 41.0081 76.4123 40.1128C74.9322 39.2909 73.3353 39.6272 71.8516 39.5489C72.2557 40.2302 72.6512 40.9029 73.0566 41.5695H73.0541ZM63.0223 39.6027C60.7097 39.8046 58.8572 41.8263 58.8463 44.16C58.8231 49.0229 58.8341 53.8871 58.8463 58.7501C58.8463 59.0645 58.9217 59.402 59.052 59.6882C59.4293 60.515 60.3421 60.937 61.238 60.7486C62.1581 60.5542 62.774 59.7543 62.7752 58.656C62.7825 53.9226 62.7777 49.1893 62.7692 44.4559C62.7667 43.2451 63.2974 42.3791 64.3575 41.8226C64.4926 41.7517 64.6436 41.6624 64.7203 41.5389C65.1268 40.8894 65.5114 40.2265 65.8912 39.5893C64.9892 39.5893 63.9985 39.5184 63.0199 39.604L63.0223 39.6027ZM47.831 41.6282C47.8894 41.7297 48.0026 41.8165 48.1097 41.8716C49.137 42.395 49.6263 43.2378 49.6227 44.3874C49.619 46.1927 49.619 47.998 49.6251 49.8033C49.6251 50.01 49.647 50.2289 49.7152 50.4221C50.6317 52.9894 51.5506 55.5554 52.4866 58.1153C52.9114 59.2797 53.974 59.8118 55.0305 59.4289C56.0906 59.0449 56.5763 57.9515 56.1649 56.7932C54.6349 52.4818 53.0952 48.1729 51.5531 43.8664C51.1782 42.8195 50.6998 41.8288 49.8795 41.0472C49.0287 40.2375 48.0197 39.8804 46.895 39.9354C47.2103 40.5115 47.5121 41.0753 47.831 41.6306V41.6282ZM38.6196 40.2669C37.2673 40.816 36.492 41.9511 36.0076 43.261C34.8099 46.5046 33.6682 49.769 32.5034 53.0249C32.0433 54.3091 31.5613 55.5848 31.1231 56.8764C30.674 58.1997 31.5004 59.4534 32.843 59.5378C33.7412 59.5941 34.4861 59.0583 34.8415 58.0762C35.7532 55.5579 36.6612 53.0371 37.5594 50.5127C37.6385 50.2901 37.6678 50.0381 37.669 49.7996C37.6775 48.009 37.6714 46.2196 37.6751 44.429C37.6775 43.2696 38.1595 42.3987 39.2087 41.8642C39.3365 41.7994 39.4436 41.6587 39.5203 41.5291C39.8233 41.0154 40.1094 40.4919 40.4891 39.818C39.8148 39.9733 39.1843 40.0369 38.6196 40.2669V40.2669ZM68.9134 30.0003C66.6835 29.9722 64.7799 31.8729 64.7884 34.1172C64.7969 36.3665 66.6336 38.2072 68.8756 38.2133C71.1237 38.2194 72.947 36.3995 72.9653 34.1307C72.9835 31.8875 71.1602 30.0284 68.9134 30.0003ZM43.6696 30.47C41.4434 30.4602 39.6152 32.2801 39.6043 34.5184C39.5933 36.7468 41.4178 38.59 43.6428 38.5974C45.8702 38.6059 47.6886 36.7897 47.6996 34.5441C47.7117 32.3034 45.9055 30.4785 43.6696 30.4687V30.47Z" fill="#FF8D29"/>
</svg>
