<svg width="88" height="88" viewBox="0 0 88 88" fill="none" xmlns="http://www.w3.org/2000/svg">
<g clip-path="url(#clip0_11632_113)">
<rect y="43.8408" width="62" height="62" rx="10" transform="rotate(-45 0 43.8408)" fill="white"/>
<path d="M36.9289 6.07106C40.8342 2.16582 47.1658 2.16582 51.0711 6.07107L81.9289 36.9289C85.8342 40.8342 85.8342 47.1658 81.9289 51.0711L51.0711 81.9289C47.1658 85.8342 40.8342 85.8342 36.9289 81.9289L6.07106 51.0711C2.16582 47.1658 2.16582 40.8342 6.07107 36.9289L36.9289 6.07106Z" fill="#FF8D29"/>
<path d="M49.5891 41.9186C49.5891 40.8938 49.2852 39.8921 48.7159 39.04C48.1465 38.188 47.3373 37.5239 46.3906 37.1317C45.4438 36.7395 44.4021 36.6369 43.397 36.8369C42.3919 37.0368 41.4687 37.5302 40.7441 38.2549C40.0195 38.9795 39.526 39.9027 39.3261 40.9077C39.1262 41.9128 39.2288 42.9546 39.621 43.9013C40.0131 44.8481 40.6772 45.6573 41.5293 46.2266C42.3813 46.7959 43.3831 47.0998 44.4078 47.0998C45.7815 47.0984 47.0986 46.552 48.0699 45.5807C49.0413 44.6093 49.5876 43.2923 49.5891 41.9186ZM44.4078 45.8545C43.6294 45.8545 42.8684 45.6237 42.2211 45.1912C41.5739 44.7587 41.0694 44.144 40.7715 43.4248C40.4736 42.7056 40.3956 41.9142 40.5475 41.1507C40.6994 40.3872 41.0742 39.6859 41.6247 39.1354C42.1751 38.585 42.8765 38.2101 43.64 38.0582C44.4034 37.9064 45.1948 37.9843 45.914 38.2822C46.6332 38.5801 47.2479 39.0846 47.6804 39.7319C48.1129 40.3791 48.3438 41.1401 48.3438 41.9186C48.3423 42.962 47.9272 43.9623 47.1893 44.7001C46.4515 45.4379 45.4512 45.853 44.4078 45.8545Z" fill="white"/>
<path d="M39.8383 35.0211C40.4789 35.0212 41.1052 34.8314 41.638 34.4756C42.1708 34.1198 42.586 33.614 42.8313 33.0221C43.0766 32.4303 43.1408 31.779 43.016 31.1506C42.8911 30.5222 42.5826 29.945 42.1297 29.4919C41.6767 29.0389 41.0996 28.7303 40.4712 28.6053C39.8429 28.4802 39.1916 28.5443 38.5997 28.7895C38.0078 29.0346 37.5019 29.4497 37.1459 29.9824C36.79 30.5151 36.6 31.1414 36.6 31.782C36.601 32.6406 36.9425 33.4638 37.5495 34.071C38.1566 34.6782 38.9797 35.0199 39.8383 35.0211ZM39.8383 29.7867C40.2326 29.7866 40.6182 29.9034 40.9462 30.1224C41.2742 30.3414 41.5299 30.6528 41.6809 31.0171C41.8319 31.3815 41.8714 31.7824 41.7945 32.1692C41.7176 32.5561 41.5277 32.9114 41.2488 33.1903C40.97 33.4691 40.6146 33.659 40.2278 33.7359C39.841 33.8129 39.44 33.7733 39.0757 33.6223C38.7114 33.4713 38.4 33.2156 38.181 32.8877C37.962 32.5597 37.8451 32.1741 37.8453 31.7797C37.8467 31.2518 38.0572 30.7459 38.4308 30.3729C38.8043 29.9998 39.3103 29.7899 39.8383 29.7891V29.7867Z" fill="white"/>
<path d="M47.2633 31.7822C47.8281 31.7822 48.3801 31.6148 48.8497 31.301C49.3193 30.9872 49.6853 30.5413 49.9014 30.0195C50.1175 29.4977 50.1741 28.9236 50.0639 28.3697C49.9537 27.8158 49.6818 27.307 49.2824 26.9076C48.8831 26.5083 48.3743 26.2363 47.8204 26.1262C47.2665 26.016 46.6923 26.0725 46.1706 26.2887C45.6488 26.5048 45.2028 26.8708 44.8891 27.3403C44.5753 27.8099 44.4078 28.362 44.4078 28.9268C44.4087 29.6838 44.7098 30.4096 45.2451 30.945C45.7804 31.4803 46.5062 31.7814 47.2633 31.7822ZM47.2633 27.3166C47.582 27.3166 47.8934 27.4111 48.1584 27.5881C48.4233 27.7652 48.6298 28.0168 48.7517 28.3112C48.8736 28.6056 48.9055 28.9296 48.8432 29.2421C48.781 29.5546 48.6275 29.8417 48.4021 30.0669C48.1768 30.2922 47.8896 30.4455 47.5771 30.5076C47.2646 30.5697 46.9406 30.5377 46.6463 30.4156C46.3519 30.2936 46.1004 30.087 45.9235 29.822C45.7466 29.5569 45.6522 29.2454 45.6524 28.9268C45.6528 28.4997 45.8227 28.0903 46.1247 27.7884C46.4267 27.4865 46.8363 27.3168 47.2633 27.3166Z" fill="white"/>
<path d="M45.9039 42.4619C45.7799 42.2845 45.6203 42.135 45.4351 42.0229C45.2706 41.9209 45.0911 41.8455 44.9031 41.7994V40.3284C44.9585 40.3729 45.0093 40.4229 45.0547 40.4776C45.1082 40.5424 45.1493 40.6165 45.1758 40.6963C45.2051 40.7861 45.2243 40.8788 45.2328 40.9729C45.2354 41.0291 45.2497 41.0841 45.2747 41.1344C45.2998 41.1848 45.335 41.2294 45.3782 41.2654C45.4214 41.3014 45.4717 41.328 45.5257 41.3436C45.5797 41.3591 45.6364 41.3632 45.6922 41.3557C45.8929 41.3315 46.0398 41.1862 46.0929 40.8955C46.082 40.4471 45.9367 40.0807 45.6554 39.8018C45.4468 39.5966 45.187 39.4509 44.9031 39.3799V39.2127C44.9034 39.1201 44.8764 39.0295 44.8256 38.9521C44.7748 38.8747 44.7024 38.8139 44.6173 38.7773C44.5323 38.7407 44.4384 38.7299 44.3472 38.7462C44.2561 38.7625 44.1717 38.8052 44.1047 38.869C44.0584 38.9133 44.0218 38.9667 43.9973 39.0259C43.9729 39.0851 43.961 39.1487 43.9625 39.2127V39.3315C43.8088 39.3548 43.658 39.3941 43.5125 39.4487C43.2906 39.5274 43.0877 39.652 42.9172 39.8143C42.7553 39.9679 42.6282 40.1544 42.5445 40.3612C42.46 40.578 42.4276 40.8116 42.45 41.0432C42.4895 41.4508 42.6855 41.8272 42.9968 42.0932C43.2761 42.3177 43.6108 42.4627 43.9656 42.5127V43.983C43.7816 43.9587 43.6061 43.8907 43.4539 43.7846C43.2975 43.6764 43.1831 43.5179 43.1297 43.3354C43.117 43.2312 43.0664 43.1353 42.9876 43.066C42.9088 42.9967 42.8073 42.9588 42.7023 42.9596C42.6376 42.9552 42.5727 42.9654 42.5124 42.9893C42.4522 43.0132 42.398 43.0503 42.3539 43.0979C42.314 43.1443 42.2861 43.1997 42.2725 43.2593C42.2589 43.3189 42.26 43.381 42.2758 43.4401C42.3109 43.6561 42.3919 43.862 42.5131 44.0442C42.6344 44.2264 42.7932 44.3805 42.9789 44.4963C43.2789 44.6796 43.6154 44.7951 43.9648 44.8346V44.9284C43.9626 44.9963 43.9754 45.0639 44.0024 45.1264C44.0295 45.1888 44.07 45.2444 44.1211 45.2893C44.2067 45.3638 44.3161 45.4054 44.4297 45.4065C44.5376 45.4055 44.6423 45.3696 44.7281 45.3041C44.7853 45.2612 44.8313 45.2052 44.8623 45.1407C44.8933 45.0763 44.9084 45.0053 44.9062 44.9338V44.8252C45.2687 44.7557 45.5515 44.6104 45.7492 44.3916C45.9775 44.1544 46.1178 43.8462 46.1468 43.5182C46.1613 43.3485 46.1521 43.1776 46.1195 43.0104C46.0859 42.8148 46.0125 42.6281 45.9039 42.4619ZM43.9656 41.6354C43.9095 41.6196 43.8548 41.599 43.8023 41.5737C43.6934 41.5217 43.5928 41.4538 43.5039 41.3721C43.4553 41.3286 43.4164 41.2754 43.3898 41.2159C43.3642 41.1429 43.3474 41.0671 43.3398 40.9901C43.3325 40.8853 43.3479 40.7803 43.3848 40.682C43.4217 40.5837 43.4794 40.4945 43.5539 40.4205C43.6673 40.3083 43.8099 40.23 43.9656 40.1948V41.6354ZM45.2937 43.4854C45.2888 43.5279 45.2786 43.5696 45.2633 43.6096C45.2445 43.6664 45.2157 43.7193 45.1781 43.7659C45.1194 43.831 45.0485 43.884 44.9695 43.9221C44.9497 43.9331 44.9291 43.9425 44.9078 43.9502V42.7002C44.9948 42.7386 45.073 42.7944 45.1375 42.8643C45.2476 42.9916 45.3 43.1979 45.2937 43.4768V43.4854Z" fill="white"/>
<path d="M31.7343 55.6157H38.6093V51.4298C38.613 49.6421 38.0423 47.9006 36.9812 46.4618L35.089 43.8837C34.5897 43.2062 33.9386 42.6551 33.188 42.2744C32.4373 41.8937 31.608 41.6941 30.7664 41.6915C30.7609 41.6915 30.7554 41.6915 30.7554 41.6915C30.7314 41.6912 30.7077 41.6975 30.6869 41.7096C30.6662 41.7217 30.6491 41.7392 30.6375 41.7603C30.6248 41.7812 30.6181 41.8053 30.6181 41.8298C30.6181 41.8543 30.6248 41.8784 30.6375 41.8993L34.2742 48.8009C34.3214 48.8878 34.351 48.9831 34.3611 49.0815C34.3712 49.1799 34.3616 49.2793 34.333 49.3739C34.3044 49.4686 34.2573 49.5566 34.1944 49.6329C34.1315 49.7092 34.054 49.7723 33.9666 49.8184C33.8791 49.8645 33.7833 49.8928 33.6849 49.9017C33.5864 49.9105 33.4871 49.8997 33.3928 49.8699C33.2985 49.8401 33.2111 49.7918 33.1356 49.7279C33.0602 49.664 32.9981 49.5858 32.9531 49.4978L29.3172 42.6071C29.1822 42.3595 29.1143 42.0808 29.1202 41.7988C29.1261 41.5168 29.2055 41.2412 29.3507 40.9993C29.4976 40.7519 29.7069 40.5474 29.9578 40.4064L29.1468 31.4587C29.0569 30.9517 28.8531 30.4718 28.5508 30.055C28.2485 29.6381 27.8555 29.2954 27.4015 29.0525C27.0281 28.8486 26.7867 28.9571 26.6984 29.0118C26.6059 29.0654 26.5293 29.1426 26.4764 29.2356C26.4236 29.3285 26.3964 29.4338 26.3976 29.5407V42.9634C26.3989 44.3232 26.7212 45.6634 27.3382 46.8751L31.6703 55.3462C31.7087 55.4311 31.7305 55.5226 31.7343 55.6157Z" fill="white"/>
<path d="M31.7524 57.2515H27.7883V61.9288H41.943V57.2515H31.7524ZM39.8383 59.7812C39.8385 60.0195 39.768 60.2524 39.6357 60.4507C39.5034 60.6489 39.3153 60.8034 39.0952 60.8947C38.8751 60.986 38.6328 61.01 38.3991 60.9636C38.1654 60.9172 37.9506 60.8025 37.7821 60.6341C37.6135 60.4656 37.4987 60.251 37.4522 60.0172C37.4056 59.7835 37.4294 59.5413 37.5206 59.3211C37.6117 59.1009 37.7661 58.9127 37.9643 58.7803C38.1624 58.6479 38.3953 58.5772 38.6336 58.5772C38.953 58.5772 39.2593 58.7041 39.4852 58.9298C39.7111 59.1556 39.8381 59.4618 39.8383 59.7812Z" fill="white"/>
<path d="M36.239 42.9357L35.9758 39.9373C35.9177 39.3043 35.7331 38.6894 35.4331 38.129C35.133 37.5686 34.7235 37.0741 34.2289 36.6748L34.6695 41.4264C35.27 41.8424 35.7999 42.352 36.239 42.9357Z" fill="white"/>
<path d="M33.0937 40.6186L32.5195 34.4381C32.4711 33.9018 32.2747 33.3895 31.9524 32.9582C31.63 32.5269 31.1943 32.1935 30.6937 31.9951L31.4422 40.2318C32.0065 40.292 32.5613 40.4219 33.0937 40.6186Z" fill="white"/>
<path d="M53.3305 41.4298L53.7711 36.6782C53.2769 37.0771 52.8676 37.5711 52.5676 38.131C52.2675 38.6908 52.0828 39.3051 52.0243 39.9376L51.761 42.9329C52.2006 42.3513 52.7305 41.8439 53.3305 41.4298Z" fill="white"/>
<path d="M57.3063 31.9951C56.8064 32.1941 56.3715 32.5277 56.0499 32.959C55.7282 33.3902 55.5325 33.9022 55.4844 34.4381L54.9102 40.6186C55.4426 40.422 55.9973 40.2921 56.5617 40.2318L57.3063 31.9951Z" fill="white"/>
<path d="M49.3906 57.2515H46.057V61.9288H60.2117V57.2515H49.3906ZM49.3648 60.9858C49.1266 60.9855 48.8939 60.9146 48.696 60.7821C48.4981 60.6495 48.3439 60.4612 48.2529 60.2411C48.162 60.0209 48.1384 59.7788 48.185 59.5452C48.2317 59.3116 48.3466 59.0971 48.5151 58.9288C48.6836 58.7604 48.8983 58.6459 49.1319 58.5995C49.3656 58.5531 49.6077 58.5771 49.8278 58.6683C50.0478 58.7595 50.2358 58.914 50.3682 59.112C50.5005 59.3101 50.5711 59.543 50.5711 59.7812C50.5711 60.1007 50.4441 60.4071 50.2182 60.633C49.9923 60.8589 49.6859 60.9858 49.3664 60.9858H49.3648Z" fill="white"/>
<path d="M61.3031 29.0118C61.2133 28.9571 60.9719 28.8486 60.6 29.0525C60.146 29.2954 59.7531 29.6381 59.4507 30.055C59.1484 30.4718 58.9446 30.9517 58.8547 31.4587L58.0422 40.4064C58.2933 40.548 58.5027 40.7533 58.6492 41.0017C58.7944 41.2435 58.8739 41.5191 58.8798 41.8011C58.8857 42.0831 58.8178 42.3618 58.6828 42.6095L55.0508 49.5009C55.0058 49.5889 54.9437 49.6672 54.8682 49.7311C54.7928 49.7949 54.7053 49.8432 54.6111 49.873C54.5168 49.9028 54.4175 49.9136 54.319 49.9048C54.2205 49.896 54.1248 49.8677 54.0373 49.8215C53.9498 49.7754 53.8724 49.7123 53.8095 49.636C53.7466 49.5597 53.6995 49.4717 53.6709 49.3771C53.6422 49.2824 53.6327 49.183 53.6428 49.0846C53.6529 48.9863 53.6824 48.8909 53.7297 48.804L57.3664 41.9025C57.3791 41.8815 57.3858 41.8574 57.3858 41.8329C57.3858 41.8084 57.3791 41.7844 57.3664 41.7634C57.3548 41.7423 57.3377 41.7248 57.3169 41.7127C57.2962 41.7006 57.2725 41.6944 57.2484 41.6946C57.2484 41.6946 57.243 41.6946 57.2375 41.6946C56.3959 41.6972 55.5665 41.8969 54.8159 42.2775C54.0653 42.6582 53.4142 43.2094 52.9148 43.8868L51.0227 46.465C49.9609 47.9024 49.3888 49.6428 49.3906 51.4298V55.6157H56.2656C56.2697 55.5226 56.2917 55.4311 56.3305 55.3462L60.6617 46.8751C61.2793 45.6636 61.6022 44.3233 61.6039 42.9634V29.5407C61.6052 29.4338 61.578 29.3285 61.5251 29.2356C61.4723 29.1426 61.3956 29.0654 61.3031 29.0118Z" fill="white"/>
</g>
<defs>
<clipPath id="clip0_11632_113">
<rect y="43.8408" width="62" height="62" rx="10" transform="rotate(-45 0 43.8408)" fill="white"/>
</clipPath>
</defs>
</svg>
