<svg width="18" height="18" viewBox="0 0 18 18" fill="none" xmlns="http://www.w3.org/2000/svg">
<path d="M15.2348 9.54526C15.3064 9.61293 15.3906 9.66582 15.4827 9.70094C15.5747 9.73605 15.6728 9.75269 15.7713 9.7499C15.8697 9.74711 15.9667 9.72496 16.0566 9.6847C16.1465 9.64444 16.2276 9.58687 16.2953 9.51526C16.363 9.44366 16.4159 9.35943 16.451 9.26738C16.4861 9.17534 16.5027 9.07728 16.4999 8.9788C16.4972 8.88032 16.475 8.78336 16.4347 8.69344C16.3945 8.60353 16.3369 8.52243 16.2653 8.45476L9.51531 2.07976C9.37606 1.94811 9.19169 1.87476 9.00006 1.87476C8.80842 1.87476 8.62406 1.94811 8.48481 2.07976L1.73406 8.45476C1.66089 8.52198 1.6018 8.60307 1.56023 8.69331C1.51866 8.78356 1.49544 8.88116 1.49191 8.98046C1.48839 9.07975 1.50462 9.17876 1.53968 9.27173C1.57474 9.3647 1.62792 9.44977 1.69614 9.52201C1.76435 9.59425 1.84624 9.65222 1.93705 9.69254C2.02786 9.73287 2.12578 9.75475 2.22511 9.75691C2.32444 9.75907 2.42322 9.74148 2.5157 9.70514C2.60817 9.66881 2.69251 9.61446 2.76381 9.54526L9.00006 3.65626L15.2348 9.54526Z" fill="#2A2A2A"/>
</svg>
