<svg width="61" height="61" viewBox="0 0 61 61" fill="none" xmlns="http://www.w3.org/2000/svg">
<path d="M11.9331 60.997C9.93296 60.1868 9.47007 59.5049 9.47007 57.3725C9.47007 52.0739 9.47007 46.7752 9.47007 41.4765V40.7155C8.89881 40.7155 8.38948 40.72 7.88015 40.7155C6.60141 40.7006 6.02705 40.0441 6.27011 38.8324C6.96521 35.3497 7.67425 31.87 8.40187 28.2798C8.47153 28.4873 8.52107 28.5977 8.54275 28.7111C8.85701 30.3913 9.92676 31.4373 11.7179 31.488C14.6377 31.5701 17.5652 31.5775 20.4849 31.4865C22.4216 31.4253 23.4914 30.254 23.7855 28.2813C23.9837 29.2333 24.188 30.1853 24.3784 31.1403C24.9017 33.7471 25.4234 36.3554 25.939 38.9637C26.1418 39.9918 25.5844 40.6708 24.4946 40.7126C23.9248 40.7349 23.3536 40.717 22.7111 40.717C22.7111 41.0184 22.7111 41.2497 22.7111 41.4825C22.7111 46.7409 22.6662 52.0008 22.7359 57.2591C22.7607 59.0796 22.1971 60.3822 20.3379 61H19.1025C17.2571 60.3643 16.6967 59.0602 16.7215 57.2412C16.7927 51.9799 16.7462 46.717 16.7462 41.4556V40.7543H15.4474C15.4474 41.0423 15.4474 41.296 15.4474 41.5497C15.4474 46.9304 15.4427 52.3111 15.452 57.6934C15.4535 58.6439 15.2972 59.5407 14.5169 60.1763C14.0897 60.524 13.5385 60.7299 13.0447 61H11.9316L11.9331 60.997ZM45.0598 60.997C46.2472 60.6299 47.1513 59.9764 47.4361 58.7379C47.5197 58.3753 47.5306 57.9903 47.5306 57.6158C47.5352 50.2893 47.5337 42.9642 47.5337 35.6377V34.8976H48.8047C48.8186 35.1498 48.8418 35.396 48.8418 35.6437C48.8434 42.8508 48.8759 50.058 48.8201 57.2636C48.8062 59.0856 49.3852 60.3822 51.2398 60.997H52.4752C54.0156 60.4404 54.8578 59.4481 54.8547 57.7844C54.833 48.8911 54.8454 39.9978 54.8423 31.1045C54.8423 30.9404 54.816 30.7762 54.7943 30.5315C53.8887 31.3149 52.8793 31.4626 51.8003 31.4507C49.6995 31.4283 47.5987 31.4447 45.4979 31.4432C44.1278 31.4432 42.7221 31.6059 41.5564 30.4942C41.527 30.7016 41.5084 30.7747 41.5084 30.8464C41.5084 39.8784 41.4991 48.9105 41.5146 57.9426C41.5177 59.4795 42.267 60.3867 43.7949 60.9C43.8507 60.9179 43.8956 60.9642 43.9451 60.997H45.0582H45.0598ZM16.4428 12.3749C15.548 12.3152 14.7275 12.4928 13.9813 12.9837C12.9007 13.694 12.4425 14.7429 12.2938 15.9307C10.7225 16.0889 10.3463 16.4947 10.3463 17.9884C10.3463 21.2846 10.3463 24.5808 10.3463 27.877C10.3463 29.2304 10.8742 29.7347 12.2907 29.7362C14.8451 29.7392 17.3995 29.7407 19.9539 29.7362C21.3085 29.7332 21.8302 29.2304 21.8302 27.9411C21.8318 24.6047 21.8302 21.2697 21.8302 17.9332C21.8302 16.4694 21.4432 16.0635 19.9028 15.9426C19.5452 13.7984 18.2649 12.4987 16.4397 12.3749H16.4428ZM18.059 23.9436C18.799 23.9675 19.3053 24.4241 19.3424 25.0627C19.3796 25.7074 18.8718 26.2789 18.121 26.3012C16.7849 26.3415 15.4443 26.3385 14.1082 26.3057C13.3466 26.2863 12.8372 25.7447 12.8558 25.0941C12.8744 24.4345 13.3976 23.9765 14.1702 23.9406C14.212 23.9391 14.2522 23.9406 14.294 23.9406C14.9117 23.9406 15.5294 23.9406 16.1471 23.9406V23.9436C16.7849 23.9436 17.4243 23.9272 18.0621 23.9481L18.059 23.9436ZM14.2708 15.9456C14.2708 14.9354 14.9984 14.1998 15.9985 14.1804C17.1503 14.158 17.9027 14.8295 17.9491 15.9456H14.2708V15.9456ZM42.4527 17.9078C42.4527 21.2622 42.4496 24.6166 42.4543 27.9725C42.4558 29.0647 42.9946 29.6452 44.0721 29.6511C46.8107 29.6691 49.5509 29.6676 52.2895 29.6511C53.3159 29.6452 53.9227 29.0916 53.9289 28.1023C53.9522 24.5494 53.9506 20.9951 53.9289 17.4423C53.9227 16.5037 53.4273 16.0307 52.4752 15.9038C52.3173 15.883 52.1579 15.868 52.0124 15.8516C51.4442 13.3985 50.1113 12.2078 48.0337 12.2719C46.1078 12.3316 44.7641 13.6343 44.377 15.8457C42.7546 16.0471 42.4527 16.3769 42.4527 17.9078V17.9078ZM46.2193 26.2147C45.4762 26.1908 44.9762 25.7357 44.9421 25.0926C44.9096 24.4704 45.388 23.8944 46.1094 23.869C47.4857 23.8198 48.8681 23.8198 50.2444 23.866C50.9751 23.8899 51.4519 24.448 51.4303 25.0747C51.407 25.7342 50.8853 26.1863 50.1097 26.2207C50.0679 26.2222 50.0277 26.2207 49.9859 26.2207C49.3682 26.2207 48.7505 26.2207 48.1328 26.2207V26.2177C47.4949 26.2177 46.8556 26.2341 46.2193 26.2132V26.2147ZM48.2535 14.0968C49.283 14.1133 50.0122 14.831 50.0075 15.8531H46.337C46.3834 14.7594 47.1404 14.0789 48.252 14.0968H48.2535ZM53.4893 14.1147C53.5589 14.2252 53.6781 14.3266 53.8004 14.3818C55.347 15.0727 55.957 16.2635 55.9508 17.872C55.9275 23.5661 55.9368 29.2617 55.9446 34.9558C55.9461 36.4882 56.9927 37.5551 58.4556 37.5581C59.8923 37.5611 60.9729 36.5226 60.9775 35.0229C60.9961 29.1304 61.0224 23.2363 60.9651 17.3438C60.9434 15.116 59.8087 13.4298 57.7605 12.3376C55.878 11.3348 53.8469 11.7452 51.9597 11.6497C52.4737 12.4808 52.9768 13.3015 53.4924 14.1147H53.4893ZM40.7297 11.7153C37.7882 11.9616 35.432 14.4281 35.4181 17.2751C35.3887 23.208 35.4026 29.1423 35.4181 35.0752C35.4181 35.4586 35.5141 35.8705 35.6797 36.2196C36.1596 37.2283 37.3207 37.7431 38.4601 37.5134C39.6305 37.2761 40.4139 36.3002 40.4154 34.9603C40.4247 29.1856 40.4185 23.4109 40.4077 17.6362C40.4046 16.159 41.0795 15.1026 42.428 14.4236C42.5998 14.3371 42.7918 14.2281 42.8893 14.0774C43.4064 13.2851 43.8956 12.4764 44.3786 11.6989C43.2314 11.6989 41.9713 11.6124 40.7266 11.7168L40.7297 11.7153ZM21.4076 14.1864C21.4819 14.3102 21.6259 14.4162 21.7621 14.4833C23.0687 15.122 23.6911 16.1501 23.6864 17.5527C23.6818 19.7551 23.6818 21.9576 23.6895 24.16C23.6895 24.4122 23.7174 24.6793 23.8041 24.915C24.9698 28.0471 26.1387 31.1776 27.3292 34.3007C27.8695 35.7213 29.221 36.3704 30.5647 35.9033C31.9131 35.4348 32.5308 34.1008 32.0076 32.6877C30.0616 27.4278 28.1032 22.1709 26.1418 16.917C25.6649 15.6397 25.0565 14.4311 24.0131 13.4776C22.931 12.4898 21.6476 12.0541 20.2171 12.1212C20.6181 12.824 21.002 13.5119 21.4076 14.1894V14.1864ZM9.69145 12.5256C7.97149 13.1956 6.98534 14.5803 6.36919 16.1784C4.84584 20.1356 3.3937 24.1182 1.91216 28.0903C1.32697 29.6571 0.713912 31.2134 0.156589 32.7892C-0.414667 34.4037 0.636506 35.9332 2.34408 36.0361C3.48659 36.1048 4.43404 35.4512 4.88609 34.253C6.04563 31.1806 7.20053 28.1053 8.34304 25.0254C8.44367 24.7539 8.48082 24.4465 8.48237 24.1555C8.49321 21.971 8.48547 19.7879 8.49011 17.6034C8.49321 16.1889 9.10626 15.1264 10.4407 14.4744C10.6033 14.3953 10.7395 14.2237 10.8371 14.0655C11.2225 13.4388 11.5863 12.8001 12.0694 11.978C11.2117 12.1675 10.4098 12.2451 9.69145 12.5256V12.5256ZM48.2226 0.00037616C45.3864 -0.0339436 42.9652 2.28488 42.976 5.023C42.9868 7.76708 45.3229 10.0128 48.1746 10.0203C51.0339 10.0277 53.353 7.80737 53.3762 5.03941C53.3995 2.30278 51.0804 0.0346959 48.2226 0.00037616ZM16.1146 0.573367C13.2831 0.561429 10.9578 2.78177 10.9439 5.51243C10.9299 8.23115 13.2506 10.4798 16.0805 10.4888C18.9136 10.4992 21.2265 8.28337 21.2404 5.54376C21.2559 2.81012 18.9585 0.583812 16.1146 0.571875V0.573367Z" fill="white"/>
</svg>
