<svg width="17" height="17" viewBox="0 0 17 17" fill="none" xmlns="http://www.w3.org/2000/svg">
<path d="M15.4375 5.9375C15.7524 5.9375 16.0545 5.81239 16.2772 5.58969C16.4999 5.36699 16.625 5.06494 16.625 4.75V1.1875C16.625 0.872555 16.4999 0.57051 16.2772 0.347811C16.0545 0.125111 15.7524 0 15.4375 0H1.1875C0.872555 0 0.57051 0.125111 0.347811 0.347811C0.125111 0.57051 0 0.872555 0 1.1875V4.75C0 5.06494 0.125111 5.36699 0.347811 5.58969C0.57051 5.81239 0.872555 5.9375 1.1875 5.9375H7.71875V8.3125H4.15625C3.84131 8.3125 3.53926 8.43761 3.31656 8.66031C3.09386 8.88301 2.96875 9.18506 2.96875 9.5V11.875H1.1875C0.872555 11.875 0.57051 12.0001 0.347811 12.2228C0.125111 12.4455 0 12.7476 0 13.0625V15.4375C0 15.7524 0.125111 16.0545 0.347811 16.2772C0.57051 16.4999 0.872555 16.625 1.1875 16.625H5.9375C6.25244 16.625 6.55449 16.4999 6.77719 16.2772C6.99989 16.0545 7.125 15.7524 7.125 15.4375V13.0625C7.125 12.7476 6.99989 12.4455 6.77719 12.2228C6.55449 12.0001 6.25244 11.875 5.9375 11.875H4.15625V9.5H12.4688V11.875H10.6875C10.3726 11.875 10.0705 12.0001 9.84781 12.2228C9.62511 12.4455 9.5 12.7476 9.5 13.0625V15.4375C9.5 15.7524 9.62511 16.0545 9.84781 16.2772C10.0705 16.4999 10.3726 16.625 10.6875 16.625H15.4375C15.7524 16.625 16.0545 16.4999 16.2772 16.2772C16.4999 16.0545 16.625 15.7524 16.625 15.4375V13.0625C16.625 12.7476 16.4999 12.4455 16.2772 12.2228C16.0545 12.0001 15.7524 11.875 15.4375 11.875H13.6562V9.5C13.6562 9.18506 13.5311 8.88301 13.3084 8.66031C13.0857 8.43761 12.7837 8.3125 12.4688 8.3125H8.90625V5.9375H15.4375ZM5.9375 15.4375H1.1875V13.0625H5.9375V15.4375ZM15.4375 15.4375H10.6875V13.0625H15.4375V15.4375ZM1.1875 1.1875H15.4375V4.75H1.1875V1.1875Z" fill="#585858"/>
</svg>
