<svg width="25" height="19" viewBox="0 0 25 19" fill="none" xmlns="http://www.w3.org/2000/svg">
<path d="M24.9504 9.20636C23.9702 6.57888 22.2686 4.30662 20.0559 2.67044C17.8432 1.03425 15.2163 0.105858 12.5 0C9.78369 0.105858 7.15684 1.03425 4.94412 2.67044C2.7314 4.30662 1.02981 6.57888 0.0496469 9.20636C-0.016549 9.39611 -0.016549 9.60389 0.0496469 9.79364C1.02981 12.4211 2.7314 14.6934 4.94412 16.3296C7.15684 17.9657 9.78369 18.8941 12.5 19C15.2163 18.8941 17.8432 17.9657 20.0559 16.3296C22.2686 14.6934 23.9702 12.4211 24.9504 9.79364C25.0166 9.60389 25.0166 9.39611 24.9504 9.20636ZM12.5 17.2727C8.08321 17.2727 3.41641 13.8786 1.72469 9.5C3.41641 5.12136 8.08321 1.72727 12.5 1.72727C16.9168 1.72727 21.5836 5.12136 23.2753 9.5C21.5836 13.8786 16.9168 17.2727 12.5 17.2727Z" fill="#212121"/>
<path d="M12.5 4.31836C11.5111 4.31836 10.5444 4.62227 9.72209 5.19165C8.89982 5.76104 8.25894 6.57033 7.88049 7.51718C7.50204 8.46404 7.40302 9.50593 7.59596 10.5111C7.78889 11.5163 8.26511 12.4396 8.96439 13.1643C9.66367 13.889 10.5546 14.3825 11.5245 14.5824C12.4945 14.7824 13.4998 14.6798 14.4135 14.2876C15.3271 13.8954 16.1081 13.2312 16.6575 12.379C17.2069 11.5269 17.5002 10.525 17.5002 9.50018C17.5002 8.12587 16.9734 6.80786 16.0357 5.83608C15.0979 4.8643 13.8261 4.31836 12.5 4.31836ZM12.5 12.9547C11.8407 12.9547 11.1962 12.7521 10.6481 12.3725C10.0999 11.9929 9.67263 11.4534 9.42034 10.8222C9.16804 10.1909 9.10202 9.49635 9.23064 8.82623C9.35927 8.15611 9.67674 7.54057 10.1429 7.05744C10.6091 6.57432 11.2031 6.2453 11.8497 6.11201C12.4963 5.97872 13.1666 6.04713 13.7757 6.30859C14.3848 6.57006 14.9054 7.01284 15.2717 7.58094C15.6379 8.14903 15.8334 8.81693 15.8334 9.50018C15.8334 10.4164 15.4822 11.2951 14.8571 11.9429C14.232 12.5908 13.3841 12.9547 12.5 12.9547Z" fill="#212121"/>
</svg>
