<svg width="161" height="82" viewBox="0 0 161 82" fill="none" xmlns="http://www.w3.org/2000/svg">
<path d="M20.7233 78.7862C20.1493 78.9607 19.7507 78.6812 19.5278 77.9476C19.3145 77.246 19.3302 76.2658 19.5747 75.0069L24.7654 58.9014C26.3631 53.9564 27.4503 49.9679 28.0268 46.9359C28.6033 43.9038 28.7268 41.8457 28.3972 40.7613C28.2421 40.251 27.9344 39.9265 27.4742 39.7876C27.0139 39.6488 26.5141 39.6091 25.9747 39.6685C25.4354 39.728 24.9424 39.8255 24.4959 39.9612C21.7851 40.7852 18.5098 43.5923 14.6702 48.3825C13.58 49.7242 12.6352 51.1436 11.8361 52.6407C11.0369 54.1378 10.3417 55.6904 9.75042 57.2985C8.63172 60.4953 8.34378 62.9867 8.88661 64.7727C9.30343 66.1441 10.1933 66.7795 11.5563 66.6788C12.0734 66.6609 12.635 66.5599 13.241 66.3758C14.3891 66.0268 15.45 65.3908 16.4237 64.4678C17.3973 63.5447 18.2906 62.4719 19.1035 61.2494C19.7195 60.2957 20.0913 59.7995 20.2188 59.7607C20.3464 59.7219 20.4282 59.819 20.4641 60.0519C20.4763 60.7799 20.2078 61.5583 19.6584 62.3872C19.1091 63.2161 18.4016 64.0408 17.5362 64.8613C16.661 65.6498 15.7408 66.3476 14.7756 66.9545C13.8326 67.5198 12.9624 67.9237 12.1651 68.166C10.8894 68.5537 9.67618 68.5741 8.52553 68.227C7.36518 67.8481 6.59114 67.0208 6.2034 65.745C5.6121 63.7996 6.01729 61.0635 7.41896 57.5368C8.75403 54.1349 10.6915 50.8808 13.2313 47.7747C14.2675 46.4843 15.5415 45.1738 17.0532 43.8434C18.5553 42.481 20.1218 41.2733 21.7527 40.2202C23.3739 39.1351 24.8861 38.3794 26.2894 37.9529C28.8089 37.1871 30.3207 37.6334 30.8248 39.2918C31.4355 41.3011 30.9723 45.2219 29.4353 51.0543C28.326 55.0843 26.7248 59.9607 24.6319 65.6833C22.9025 70.4245 22.0219 72.7999 21.99 72.8096C22.0857 72.7805 23.1174 70.6727 25.085 66.4863C26.2825 63.8926 27.4362 61.5561 28.5462 59.4768C29.6783 57.3559 30.7459 55.4811 31.749 53.8523C32.2345 53.0428 32.82 52.0462 33.5054 50.8624C34.1811 49.6467 34.9726 48.239 35.8799 46.6393C36.686 45.2795 37.4892 44.025 38.2897 42.8759C39.122 41.7171 39.9847 41.002 40.8777 40.7306C41.8025 40.4495 42.4764 40.4886 42.8991 40.8478C41.07 45.3754 39.6795 50.6581 38.7275 56.6959C38.0534 61.0117 38.012 64.1424 38.6033 66.0879C38.9523 67.236 39.5073 67.9731 40.2684 68.2992C41.0294 68.6253 41.9043 68.6382 42.893 68.3377C43.9773 68.0081 45.0174 67.361 46.0133 66.3964C47.041 65.4221 47.9995 64.2772 48.8887 62.9617C49.778 61.6463 50.5729 60.3072 51.2736 58.9446C53.8168 54.1303 55.5185 49.2408 56.3786 44.2761C57.0414 40.3817 57.0675 37.4299 56.4568 35.4207C56.3986 35.2293 56.3294 35.0588 56.249 34.909C56.2005 34.7495 56.141 34.6109 56.0703 34.493C55.4006 34.6965 54.5763 34.5638 53.5977 34.0948C53.003 33.8575 52.6426 33.5315 52.5166 33.1169C52.4003 32.7342 52.4628 32.3668 52.7042 32.0148C52.9455 31.6627 53.2735 31.4236 53.6881 31.2976C54.2941 31.1134 54.823 31.2488 55.2748 31.7038C55.4799 31.9201 55.832 32.1615 56.3311 32.4279C56.6637 32.6055 56.8335 32.7629 56.8404 32.9002C57.119 33.1291 57.4816 33.1756 57.928 33.0399C58.3745 32.9042 58.731 32.5869 58.9974 32.0878C59.2957 31.5791 59.684 31.252 60.1624 31.1066C60.4175 31.0291 60.5742 31.086 60.6324 31.2773C60.739 31.6282 60.5378 32.0551 60.0288 32.5582C59.7777 32.8784 59.4386 33.1383 59.0115 33.3377C58.766 33.4472 58.5206 33.5566 58.2751 33.6661C58.02 33.7436 57.7551 33.7893 57.4806 33.803C58.2511 34.9624 58.7284 35.8451 58.9126 36.4511C59.688 39.0025 59.4794 42.6717 58.2866 47.4588C57.6951 49.8683 56.8942 52.2195 55.8839 54.5123C54.8737 56.8052 53.6382 59.0446 52.1774 61.2306C49.3071 65.6565 46.373 68.3251 43.3751 69.2363C40.0902 70.2347 37.9824 69.2031 37.0518 66.1414C36.6156 64.7062 36.4242 62.9876 36.4777 60.9855C36.5214 58.9515 36.6816 56.8996 36.9583 54.8297L38.1199 46.2721C37.0462 47.7829 36.1695 49.0249 35.4898 49.9979C34.8322 50.9294 34.2732 51.7264 33.8126 52.389C33.3839 53.0419 32.9761 53.7058 32.589 54.3809C32.2241 55.0144 31.7815 55.7934 31.2612 56.718C30.7063 57.7577 29.9868 59.2306 29.1029 61.1366C28.2093 63.0108 27.2039 65.3196 26.0868 68.0631L22.6022 76.5429C22.3996 77.0225 22.1394 77.4848 21.8217 77.9298C21.5041 78.3747 21.1379 78.6602 20.7233 78.7862ZM65.6288 59.9641C64.6082 60.2743 63.5864 60.2365 62.5633 59.8507C61.5305 59.433 60.8493 58.6819 60.5198 57.5976C59.8315 55.3332 60.4337 52.3282 62.3263 48.5826C64.2729 44.7858 66.3625 42.5481 68.595 41.8696C69.3285 41.6466 69.9816 41.6746 70.5541 41.9535C71.1488 42.1908 71.5334 42.5965 71.7079 43.1705C72.2507 44.9565 71.3646 47.142 69.0496 49.7269C66.9954 52.0236 65.1071 53.4336 63.3849 53.957C63.1298 54.0346 62.8968 54.0706 62.6861 54.0649C62.4694 55.0714 62.5065 56.0531 62.7973 57.0099C63.3013 58.6683 64.3347 59.26 65.8975 58.785C67.4921 58.3004 69.2245 56.6067 71.0946 53.7041C72.565 51.5501 73.7194 49.3876 74.5576 47.2167C74.7284 46.7467 74.9253 46.4778 75.1486 46.41C75.34 46.3518 75.4647 46.4184 75.5229 46.6098C75.581 46.8011 75.5359 47.111 75.3873 47.5393C74.853 48.9908 74.2258 50.366 73.5057 51.6648C72.7856 52.9637 71.9616 54.2071 71.0336 55.3949C69.1207 57.9273 67.3191 59.4504 65.6288 59.9641ZM63.7348 52.701C64.9467 52.3327 66.3412 51.2469 67.9183 49.4437C68.4205 48.8033 68.8921 48.1199 69.3333 47.3936C69.7967 46.6256 70.1325 45.8965 70.3407 45.2061C70.5808 44.506 70.6331 43.9327 70.4973 43.4862C70.3713 43.0716 69.9734 42.9661 69.3037 43.1696C68.3469 43.4604 67.2255 44.5852 65.9395 46.5438C65.3236 47.4974 64.7589 48.5052 64.2455 49.5671C63.7321 50.6289 63.3449 51.7047 63.0838 52.7944C63.2945 52.8 63.5115 52.7689 63.7348 52.701ZM78.9516 55.34C78.0267 55.6211 77.0978 55.6595 76.1647 55.4554C75.222 55.2193 74.5859 54.5591 74.2563 53.4748C73.8007 51.9758 73.7841 50.0299 74.2065 47.637C74.6608 45.2344 75.2343 42.7084 75.9272 40.0591C77.8169 32.8653 79.5431 29.031 81.1059 28.556C81.4248 28.459 81.7825 28.4897 82.179 28.6479C82.5976 28.7645 82.8665 28.9615 82.9857 29.2388L81.0037 34.7535C80.2292 36.9051 79.5436 38.8902 78.9467 40.7091C78.3401 42.496 77.8335 44.0959 77.4267 45.5085C77.2282 46.2308 77.006 47.0474 76.7603 47.9582C76.5145 48.869 76.3263 49.7972 76.1956 50.7427C76.0871 51.6467 76.1589 52.5133 76.4109 53.3425C76.5273 53.7252 76.7455 54.0421 77.0657 54.2932C77.3762 54.5123 77.8185 54.5347 78.3925 54.3602C79.4131 54.05 80.5878 53.1007 81.9167 51.5123C83.2358 49.892 84.413 47.8619 85.4482 45.4221C85.5495 45.1823 85.6716 44.9536 85.8145 44.7359C85.9574 44.5183 86.0926 44.3901 86.2202 44.3513C86.3797 44.3029 86.4885 44.3743 86.5467 44.5657C86.5757 44.6614 86.5223 44.8866 86.3863 45.2415C86.2725 45.5548 86.176 45.8106 86.0969 46.0088L85.3413 47.6495C84.9167 48.545 84.384 49.543 83.743 50.6437C83.1339 51.7346 82.4223 52.7173 81.6081 53.5919C80.8258 54.4568 79.9403 55.0395 78.9516 55.34ZM90.7443 52.3306C89.7238 52.6407 88.7019 52.6029 87.6788 52.2171C86.6461 51.7994 85.9649 51.0483 85.6353 49.964C84.9471 47.6996 85.5493 44.6946 87.4418 40.9491C89.3885 37.1522 91.4781 34.9145 93.7106 34.236C94.476 34.0033 95.1449 34.0265 95.7175 34.3054C96.2803 34.5524 96.6489 34.9629 96.8234 35.537C97.0658 36.3343 97.0973 37.126 96.9182 37.912C96.7237 38.877 96.2119 39.4854 95.3827 39.7375C94.5535 39.9895 94.0613 39.8604 93.9062 39.3501C93.7996 38.9993 93.8469 38.41 94.0483 37.5824C94.2718 36.7131 94.3788 36.2626 94.3691 36.2307C94.3497 36.1669 94.2922 36.1495 94.1965 36.1786C93.3326 36.5457 92.2875 37.5776 91.0612 39.2742C90.5243 40.0296 90.0575 40.7289 89.6607 41.3721C89.2958 42.0056 89.0218 42.594 88.8386 43.1375L87.8016 46.4313C87.6975 46.7765 87.6405 47.3339 87.6305 48.1034C87.6524 48.8632 87.7166 49.4185 87.8233 49.7693C88.0171 50.4072 88.3844 50.8704 88.925 51.159C89.4975 51.4379 90.1186 51.4756 90.7884 51.272C92.383 50.7873 94.1729 49.111 96.158 46.2431C97.7589 43.945 98.9403 41.7568 99.7023 39.6788C99.8036 39.439 99.9659 39.2851 100.189 39.2173C100.412 39.1494 100.543 39.1793 100.582 39.3068C100.611 39.4025 100.58 39.5862 100.488 39.8579C99.4419 42.7192 97.9955 45.3537 96.1492 47.7613C94.1725 50.3131 92.3709 51.8362 90.7443 52.3306ZM102.554 48.1663C101.757 48.4087 101.023 48.2309 100.354 47.6331C99.6746 47.0034 99.2284 46.3377 99.0151 45.6361C98.4335 43.7225 99.0066 40.6218 100.734 36.3341C102.484 32.0048 104.22 29.5784 105.943 29.0549C107.569 28.5606 108.644 29.1745 109.168 30.8967C109.245 31.1518 109.296 31.4326 109.319 31.739C109.374 32.0358 109.419 32.3533 109.452 32.6916C109.545 32.7679 109.719 32.7673 109.974 32.6897C110.835 32.428 111.763 31.8148 112.759 30.8502C112.892 31.4021 111.87 32.5663 109.693 34.343C110.363 35.2888 109.921 37.6179 108.367 41.3304C106.788 45.1898 105.105 47.3909 103.319 47.9337L102.554 48.1663ZM102.979 46.4694C104.35 46.0526 105.721 44.2597 107.092 41.0907C108.419 38.0049 108.918 35.9198 108.588 34.8355C107.99 34.7035 107.13 34.1639 106.006 33.2165C104.921 33.5461 103.756 35.3286 102.51 38.5642C101.276 41.7263 100.899 43.9834 101.38 45.3354C101.712 46.3144 102.245 46.6924 102.979 46.4694ZM125.242 41.2707C124.476 41.5033 123.963 41.1891 123.701 40.328C123.509 38.4353 123.616 36.208 124.022 33.6459C124.202 32.4065 124.388 31.183 124.578 29.9754C124.801 28.7582 125.002 27.5298 125.183 26.2904C124.245 27.4463 123.336 28.698 122.457 30.0453C121.568 31.3608 120.749 32.7941 120.001 34.3453C119.12 36.146 118.153 38.4084 117.1 41.1324C116.331 43.0732 115.851 44.0727 115.659 44.1309C115.213 44.2666 114.783 44.1707 114.37 43.8434C113.957 43.516 113.707 43.2088 113.619 42.9218C113.493 42.5072 113.535 41.3273 113.746 39.3821C113.804 38.7721 113.867 38.178 113.936 37.5999C114.026 36.9801 114.105 36.3812 114.173 35.8031L112.219 39.6894C112.175 39.7725 112.041 40.022 111.819 40.4379C111.597 40.8538 111.391 41.0908 111.199 41.1489C111.04 41.1974 110.926 41.11 110.858 40.8868C110.839 40.823 110.847 40.7336 110.881 40.6185C110.874 40.4812 110.927 40.3086 111.038 40.1007C111.37 39.4769 111.71 38.8164 112.055 38.1191C112.401 37.4218 112.738 36.64 113.067 35.7735C113.317 35.1054 113.664 34.1287 114.11 32.8436C114.578 31.5169 115.138 29.8658 115.792 27.8903C115.998 27.3053 116.419 26.9159 117.057 26.722C117.695 26.5281 118.106 26.7342 118.29 27.3401C118.358 27.5634 117.995 29.2936 117.203 32.5307C116.819 34.2498 116.513 35.6494 116.284 36.7293C116.087 37.7996 115.992 38.5774 116 39.0627C116.469 38.084 117.037 36.9709 117.703 35.7233C118.4 34.466 119.208 33.0535 120.125 31.4857C122.943 26.6576 124.974 24.0546 126.217 23.6765C126.568 23.5699 126.937 23.5798 127.324 23.7061C127.742 23.8227 128.005 24.0564 128.112 24.4072C128.16 24.5667 127.892 25.9198 127.307 28.4666C126.764 31.0355 126.492 32.5467 126.49 33.0001C129.129 28.9581 130.444 26.9211 130.434 26.8892C132.724 23.6499 134.523 21.8315 135.831 21.434C136.213 21.3177 136.603 21.3387 136.999 21.4969C137.418 21.6135 137.676 21.8313 137.773 22.1502C137.792 22.214 137.179 23.8637 135.933 27.0993C134.632 30.3861 134.111 32.9135 134.37 34.6814C134.591 35.8683 135.356 36.263 136.663 35.8656C137.461 35.6232 138.422 34.7737 139.547 33.3169C140.672 31.8601 141.744 30.0013 142.764 27.7403C142.888 27.4589 143.032 27.1886 143.197 26.9294C143.352 26.6383 143.51 26.4685 143.669 26.42C143.861 26.3618 143.981 26.4125 144.029 26.572C144.097 26.7952 144.031 27.094 143.831 27.4682C143.302 28.709 142.624 30.03 141.796 31.4314C140.999 32.8232 140.155 34.0554 139.261 35.1282C138.358 36.1692 137.476 36.8205 136.615 37.0822C134.446 37.7414 133.057 37.0663 132.446 35.0571C132.233 34.3554 132.177 33.484 132.279 32.4428C132.37 31.3697 132.491 30.3923 132.642 29.5105C133.024 27.4434 133.548 25.5594 134.216 23.8584C133.35 24.6789 132.486 25.6734 131.621 26.8418C130.789 28.0006 129.952 29.3175 129.112 30.7924C127.183 34.305 126.125 37.5878 125.939 40.6408C125.857 40.9444 125.624 41.1543 125.242 41.2707ZM146.731 35.314C145.711 35.6242 144.689 35.5864 143.666 35.2006C142.633 34.7829 141.952 34.0318 141.622 32.9475C140.934 30.6831 141.536 27.6781 143.429 23.9325C145.375 20.1357 147.465 17.898 149.697 17.2194C150.431 16.9965 151.084 17.0245 151.656 17.3034C152.251 17.5407 152.636 17.9464 152.81 18.5204C153.353 20.3064 152.467 22.4919 150.152 25.0768C148.098 27.3735 146.209 28.7835 144.487 29.3069C144.232 29.3845 143.999 29.4204 143.788 29.4148C143.572 30.4213 143.609 31.403 143.9 32.3598C144.404 34.0182 145.437 34.6099 147 34.1349C148.594 33.6503 150.327 31.9566 152.197 29.054C153.667 26.9 154.822 24.7375 155.66 22.5666C155.831 22.0966 156.028 21.8277 156.251 21.7599C156.442 21.7017 156.567 21.7683 156.625 21.9597C156.683 22.151 156.638 22.4609 156.49 22.8892C155.955 24.3407 155.328 25.7158 154.608 27.0147C153.888 28.3136 153.064 29.5569 152.136 30.7448C150.223 33.2772 148.421 34.8003 146.731 35.314ZM144.837 28.0509C146.049 27.6826 147.444 26.5968 149.021 24.7936C149.523 24.1532 149.994 23.4698 150.436 22.7435C150.899 21.9755 151.235 21.2464 151.443 20.556C151.683 19.8559 151.735 19.2826 151.6 18.8361C151.474 18.4215 151.076 18.316 150.406 18.5195C149.449 18.8103 148.328 19.9351 147.042 21.8937C146.426 22.8473 145.861 23.8551 145.348 24.917C144.834 25.9788 144.447 27.0546 144.186 28.1443C144.397 28.1499 144.614 28.1188 144.837 28.0509Z" fill="#2A2A2A" fill-opacity="0.5"/>
</svg>
